<svg width="32" height="32" viewBox="0 0 32 32" fill="none" xmlns="http://www.w3.org/2000/svg">
<g clip-path="url(#clip0_1150_10145)">
<path d="M0.5 7.62H19.1133V31.4733H0.5V7.62Z" fill="#37582A"/>
<path d="M19.1153 7.62V29.9H6.53526C5.67937 29.8996 4.85866 29.5594 4.25358 28.9541C3.6485 28.3487 3.30859 27.5279 3.30859 26.672V7.62H19.1153Z" fill="#A3B29D"/>
<path d="M9.27344 14.04H31.5001V31.4733H9.27344V14.04Z" fill="#EF6824"/>
<path d="M31.4983 14.04V29.9H15.2983C14.4422 29.9 13.6211 29.5599 13.0158 28.9545C12.4104 28.3492 12.0703 27.5281 12.0703 26.672V14.04H31.4983Z" fill="#F49A6C"/>
<path d="M14.6647 9.54736H14.4134V4.63869C14.4134 4.03339 14.2942 3.43401 14.0625 2.87478C13.8309 2.31555 13.4914 1.80742 13.0634 1.3794C12.6353 0.951384 12.1272 0.611863 11.568 0.380223C11.0088 0.148582 10.4094 0.0293579 9.80407 0.0293579C9.19877 0.0293579 8.59939 0.148582 8.04016 0.380223C7.48093 0.611863 6.9728 0.951384 6.54478 1.3794C6.11677 1.80742 5.77724 2.31555 5.5456 2.87478C5.31396 3.43401 5.19474 4.03339 5.19474 4.63869V9.54736H4.94141C4.8088 9.54736 4.68162 9.60004 4.58785 9.6938C4.49408 9.78757 4.44141 9.91475 4.44141 10.0474C4.44141 10.18 4.49408 10.3071 4.58785 10.4009C4.68162 10.4947 4.8088 10.5474 4.94141 10.5474H6.44474C6.57735 10.5474 6.70452 10.4947 6.79829 10.4009C6.89206 10.3071 6.94474 10.18 6.94474 10.0474C6.94474 9.91475 6.89206 9.78757 6.79829 9.6938C6.70452 9.60004 6.57735 9.54736 6.44474 9.54736H6.19807V4.63869C6.19807 4.16471 6.29143 3.69536 6.47282 3.25746C6.6542 2.81955 6.92006 2.42166 7.25522 2.08651C7.59038 1.75135 7.98827 1.48549 8.42617 1.3041C8.86408 1.12272 9.33342 1.02936 9.80741 1.02936C10.2814 1.02936 10.7507 1.12272 11.1886 1.3041C11.6265 1.48549 12.0244 1.75135 12.3596 2.08651C12.6947 2.42166 12.9606 2.81955 13.142 3.25746C13.3234 3.69536 13.4167 4.16471 13.4167 4.63869V9.54736H13.1654C13.0328 9.54736 12.9056 9.60004 12.8119 9.6938C12.7181 9.78757 12.6654 9.91475 12.6654 10.0474C12.6654 10.18 12.7181 10.3071 12.8119 10.4009C12.9056 10.4947 13.0328 10.5474 13.1654 10.5474H14.6647C14.7973 10.5474 14.9245 10.4947 15.0183 10.4009C15.1121 10.3071 15.1647 10.18 15.1647 10.0474C15.1647 9.91475 15.1121 9.78757 15.0183 9.6938C14.9245 9.60004 14.7973 9.54736 14.6647 9.54736Z" fill="#51454E"/>
<path d="M25.0815 16.218H23.6288C23.4962 16.218 23.369 16.2707 23.2753 16.3645C23.1815 16.4582 23.1288 16.5854 23.1288 16.718C23.1288 16.8506 23.1815 16.9778 23.2753 17.0716C23.369 17.1653 23.4962 17.218 23.6288 17.218H23.8555V18.1367C23.8429 19.0489 23.4716 19.9195 22.822 20.5601C22.1725 21.2008 21.2968 21.5599 20.3845 21.5599C19.4722 21.5599 18.5965 21.2008 17.947 20.5601C17.2974 19.9195 16.9261 19.0489 16.9135 18.1367V17.218H17.1395C17.2721 17.218 17.3993 17.1653 17.4931 17.0716C17.5868 16.9778 17.6395 16.8506 17.6395 16.718C17.6395 16.5854 17.5868 16.4582 17.4931 16.3645C17.3993 16.2707 17.2721 16.218 17.1395 16.218H15.6875C15.5549 16.218 15.4277 16.2707 15.3339 16.3645C15.2402 16.4582 15.1875 16.5854 15.1875 16.718C15.1875 16.8506 15.2402 16.9778 15.3339 17.0716C15.4277 17.1653 15.5549 17.218 15.6875 17.218H15.9135V18.1367C15.9279 19.313 16.4052 20.4363 17.2422 21.263C18.0791 22.0898 19.2081 22.5534 20.3845 22.5534C21.5609 22.5534 22.6899 22.0898 23.5268 21.263C24.3638 20.4363 24.8411 19.313 24.8555 18.1367V17.218H25.0815C25.2141 17.218 25.3413 17.1653 25.4351 17.0716C25.5288 16.9778 25.5815 16.8506 25.5815 16.718C25.5815 16.5854 25.5288 16.4582 25.4351 16.3645C25.3413 16.2707 25.2141 16.218 25.0815 16.218Z" fill="#51454E"/>
</g>
<defs>
<clipPath id="clip0_1150_10145">
<rect width="32" height="32" fill="white"/>
</clipPath>
</defs>
</svg>
