<svg width="56" height="56" viewBox="0 0 56 56" fill="none" xmlns="http://www.w3.org/2000/svg">
<path d="M44.4675 42.5206V39.5434H41.172V26.3594H31.3009V39.5434H28.0066V42.5206L36.237 50.7511L44.4675 42.5206Z" fill="#F1475D"/>
<path d="M27.9934 47.7695V44.7934H24.6991V26.3594H14.828V44.7934H11.5325V47.7695L19.763 56L27.9934 47.7695Z" fill="#F1475D"/>
<path d="M27.9934 47.7695V44.7934H24.6991V26.3594H19.763V56L27.9934 47.7695Z" fill="#DE1F55"/>
<path d="M44.4675 42.5206V39.5434H41.172V26.3594H36.237V50.7511L44.4675 42.5206Z" fill="#DE1F55"/>
<path d="M28 35.4572C37.7912 35.4572 45.7286 27.5198 45.7286 17.7286C45.7286 7.93736 37.7912 0 28 0C18.2088 0 10.2714 7.93736 10.2714 17.7286C10.2714 27.5198 18.2088 35.4572 28 35.4572Z" fill="#FFE54A"/>
<path d="M45.7286 17.7286C45.7286 27.5198 37.7912 35.4572 28 35.4572V0C37.7912 0 45.7286 7.93734 45.7286 17.7286Z" fill="#F4CC03"/>
<path d="M33.6328 20.8665C33.6328 23.2356 31.8992 25.2065 29.6341 25.5795V27.6139H26.3528V25.585C24.103 25.2251 22.3781 23.2717 22.3781 20.9212H25.6594C25.6594 21.7164 26.3058 22.3628 27.1009 22.3628H28.8553C29.68 22.3628 30.3516 21.6912 30.3516 20.8665C30.3516 20.0408 29.68 19.3692 28.8553 19.3692H27.1316C24.4967 19.3692 22.353 17.2254 22.353 14.5906C22.353 12.2215 24.0877 10.2506 26.3528 9.87764V7.84326H29.6341V9.8842C31.8806 10.2736 33.5956 12.2369 33.5956 14.5928H30.3144C30.3144 13.767 29.6417 13.0944 28.8159 13.0944H27.1316C26.3058 13.0944 25.6342 13.7659 25.6342 14.5906C25.6342 15.4164 26.3058 16.0879 27.1316 16.0879H28.8553C31.4891 16.0879 33.6328 18.2317 33.6328 20.8665Z" fill="#F4CC03"/>
<path d="M33.6328 20.8665C33.6328 23.2356 31.8992 25.2065 29.6341 25.5795V27.6139H28V22.3628H28.8553C29.68 22.3628 30.3516 21.6912 30.3516 20.8665C30.3516 20.0408 29.68 19.3692 28.8553 19.3692H28V16.088H28.8553C31.4891 16.088 33.6328 18.2317 33.6328 20.8665Z" fill="#EDAE02"/>
<path d="M28.8159 13.0944H28V7.84326H29.6341V9.8842C31.8806 10.2736 33.5956 12.2369 33.5956 14.5928H30.3144C30.3144 13.767 29.6417 13.0944 28.8159 13.0944Z" fill="#EDAE02"/>
</svg>
