<svg width="106" height="29" viewBox="0 0 106 29" fill="none" xmlns="http://www.w3.org/2000/svg">
<path d="M16.6748 13.1554C16.647 10.0302 19.2132 8.50977 19.3305 8.43899C17.8772 6.30282 15.6245 6.01095 14.8329 5.98768C12.9409 5.78696 11.1057 7.12897 10.1419 7.12897C9.1589 7.12897 7.67475 6.00707 6.07518 6.04004C4.01681 6.07204 2.09117 7.27345 1.03505 9.13909C-1.14452 12.9431 0.481021 18.5332 2.56921 21.608C3.61379 23.1139 4.83439 24.7953 6.43203 24.7361C7.99505 24.6712 8.5789 23.7316 10.4651 23.7316C12.334 23.7316 12.8822 24.7361 14.5116 24.6983C16.1891 24.6712 17.2452 23.1856 18.2533 21.6662C19.4604 19.9402 19.9452 18.2404 19.9644 18.1531C19.925 18.1395 16.7066 16.9012 16.6748 13.1554Z" fill="white"/>
<path d="M13.5969 3.96496C14.4376 2.90511 15.0128 1.46322 14.8531 0C13.6363 0.0543012 12.1147 0.848457 11.2384 1.88503C10.4632 2.79845 9.77064 4.29561 9.94954 5.70357C11.3163 5.80635 12.7197 5.00832 13.5969 3.96496Z" fill="white"/>
<path d="M34.8753 3.6774C34.8753 4.81869 34.5358 5.67782 33.8577 6.25477C33.2296 6.78711 32.337 7.05377 31.1808 7.05377C30.6076 7.05377 30.117 7.02856 29.7063 6.97814V0.742226C30.2421 0.654956 30.8192 0.610352 31.4425 0.610352C32.5438 0.610352 33.3739 0.851798 33.9337 1.33469C34.5608 1.88061 34.8753 2.66119 34.8753 3.6774ZM33.8125 3.70552C33.8125 2.96567 33.6182 2.39841 33.2296 2.00279C32.841 1.60814 32.2735 1.41032 31.5261 1.41032C31.2087 1.41032 30.9384 1.43166 30.7143 1.47626V6.21695C30.8384 6.23634 31.0654 6.24507 31.3953 6.24507C32.1667 6.24507 32.7621 6.02884 33.1815 5.59637C33.6009 5.1639 33.8125 4.53361 33.8125 3.70552Z" fill="white"/>
<path d="M40.5111 4.67378C40.5111 5.37678 40.312 5.95276 39.9138 6.40463C39.4963 6.8691 38.9433 7.10085 38.2526 7.10085C37.587 7.10085 37.0571 6.87879 36.6617 6.43275C36.2674 5.98767 36.0702 5.42624 36.0702 4.74941C36.0702 4.04156 36.2731 3.46073 36.681 3.00983C37.0888 2.55894 37.6371 2.33301 38.3277 2.33301C38.9933 2.33301 39.5281 2.55506 39.933 3.00014C40.3178 3.43261 40.5111 3.99113 40.5111 4.67378ZM39.4655 4.70675C39.4655 4.28494 39.3751 3.92326 39.1953 3.62169C38.9837 3.2571 38.6826 3.0748 38.2911 3.0748C37.8862 3.0748 37.5784 3.2571 37.3668 3.62169C37.1859 3.92326 37.0965 4.29076 37.0965 4.72517C37.0965 5.14697 37.1869 5.50866 37.3668 5.81022C37.5851 6.17482 37.8891 6.35711 38.2815 6.35711C38.6662 6.35711 38.9683 6.17191 39.1856 5.80053C39.3722 5.49314 39.4655 5.12855 39.4655 4.70675Z" fill="white"/>
<path d="M48.0672 2.42676L46.6484 6.99776H45.725L45.1373 5.01285C44.9883 4.51735 44.8671 4.02477 44.7728 3.53605H44.7545C44.667 4.03834 44.5458 4.52996 44.39 5.01285L43.7657 6.99776H42.8318L41.4977 2.42676H42.5336L43.0463 4.59978C43.1703 5.1137 43.2723 5.60338 43.3541 6.06688H43.3723C43.4474 5.68483 43.5714 5.19806 43.7465 4.60947L44.39 2.42773H45.2114L45.828 4.56293C45.977 5.08364 46.0982 5.58496 46.1915 6.06785H46.2194C46.2877 5.59756 46.3906 5.09624 46.5272 4.56293L47.0774 2.42773H48.0672V2.42676Z" fill="white"/>
<path d="M53.293 6.99707H52.285V4.37898C52.285 3.57222 51.981 3.16884 51.3712 3.16884C51.0721 3.16884 50.8306 3.27938 50.6431 3.50143C50.4574 3.72349 50.3632 3.9853 50.3632 4.28492V6.9961H49.3551V3.73221C49.3551 3.33077 49.3426 2.89539 49.3186 2.42414H50.2045L50.2516 3.13878H50.2795C50.3968 2.91673 50.5719 2.73346 50.8018 2.58704C51.075 2.41638 51.3808 2.33008 51.7155 2.33008C52.1388 2.33008 52.4908 2.46777 52.7707 2.74412C53.1189 3.08254 53.293 3.58773 53.293 4.25874V6.99707Z" fill="white"/>
<path d="M56.0727 6.99748H55.0657V0.329102H56.0727V6.99748Z" fill="white"/>
<path d="M62.0073 4.67378C62.0073 5.37678 61.8082 5.95276 61.41 6.40463C60.9925 6.8691 60.4385 7.10085 59.7489 7.10085C59.0823 7.10085 58.5523 6.87879 58.1579 6.43275C57.7636 5.98767 57.5664 5.42624 57.5664 4.74941C57.5664 4.04156 57.7694 3.46073 58.1772 3.00983C58.585 2.55894 59.1333 2.33301 59.8229 2.33301C60.4895 2.33301 61.0233 2.55506 61.4292 3.00014C61.814 3.43261 62.0073 3.99113 62.0073 4.67378ZM60.9608 4.70675C60.9608 4.28494 60.8704 3.92326 60.6905 3.62169C60.4799 3.2571 60.1778 3.0748 59.7873 3.0748C59.3814 3.0748 59.0736 3.2571 58.863 3.62169C58.6822 3.92326 58.5927 4.29076 58.5927 4.72517C58.5927 5.14697 58.6831 5.50866 58.863 5.81022C59.0813 6.17482 59.3853 6.35711 59.7777 6.35711C60.1625 6.35711 60.4635 6.17191 60.6809 5.80053C60.8685 5.49314 60.9608 5.12855 60.9608 4.70675Z" fill="white"/>
<path d="M66.886 6.99709H65.9809L65.9058 6.47056H65.8779C65.5682 6.89043 65.1267 7.10085 64.5535 7.10085C64.1254 7.10085 63.7792 6.96218 63.5185 6.6868C63.2819 6.43663 63.1636 6.12536 63.1636 5.75592C63.1636 5.1974 63.3944 4.77171 63.859 4.47693C64.3226 4.18216 64.9748 4.03768 65.8145 4.04446V3.95913C65.8145 3.35697 65.5009 3.05638 64.8728 3.05638C64.4255 3.05638 64.0312 3.16983 63.6907 3.39479L63.4858 2.72766C63.9071 2.46488 64.4275 2.33301 65.0411 2.33301C66.2261 2.33301 66.8206 2.96329 66.8206 4.22385V5.90719C66.8206 6.3639 66.8427 6.72753 66.886 6.99709ZM65.8395 5.42624V4.72129C64.7275 4.7019 64.1716 5.00928 64.1716 5.64247C64.1716 5.88101 64.2351 6.05943 64.3649 6.1787C64.4948 6.29796 64.6602 6.35711 64.8574 6.35711C65.0786 6.35711 65.2854 6.28633 65.474 6.14573C65.6634 6.00416 65.7798 5.82477 65.8231 5.60465C65.8337 5.5552 65.8395 5.49508 65.8395 5.42624Z" fill="white"/>
<path d="M72.6138 6.99748H71.7192L71.6721 6.26345H71.6442C71.3585 6.82197 70.8718 7.10124 70.1879 7.10124C69.6416 7.10124 69.1867 6.885 68.826 6.45253C68.4653 6.02006 68.2854 5.45863 68.2854 4.7692C68.2854 4.02934 68.4807 3.43009 68.8731 2.97241C69.253 2.54575 69.7186 2.33243 70.2726 2.33243C70.8814 2.33243 71.3075 2.53897 71.5499 2.95301H71.5692V0.329102H72.5782V5.76601C72.5782 6.21109 72.5897 6.62125 72.6138 6.99748ZM71.5692 5.06979V4.30764C71.5692 4.17576 71.5596 4.0691 71.5413 3.98765C71.4845 3.74329 71.3624 3.53772 71.1767 3.37191C70.9892 3.2061 70.7631 3.1227 70.5025 3.1227C70.1264 3.1227 69.8321 3.273 69.6156 3.57457C69.4011 3.87613 69.2925 4.26109 69.2925 4.73138C69.2925 5.18324 69.3954 5.54977 69.6022 5.83195C69.8205 6.13254 70.1148 6.28284 70.4832 6.28284C70.8141 6.28284 71.0786 6.15775 71.2797 5.90661C71.474 5.67486 71.5692 5.3956 71.5692 5.06979Z" fill="white"/>
<path d="M81.2348 4.67378C81.2348 5.37678 81.0357 5.95276 80.6375 6.40463C80.2201 6.8691 79.668 7.10085 78.9764 7.10085C78.3118 7.10085 77.7818 6.87879 77.3855 6.43275C76.9911 5.98767 76.7939 5.42624 76.7939 4.74941C76.7939 4.04156 76.9969 3.46073 77.4047 3.00983C77.8126 2.55894 78.3608 2.33301 79.0524 2.33301C79.717 2.33301 80.2528 2.55506 80.6568 3.00014C81.0415 3.43261 81.2348 3.99113 81.2348 4.67378ZM80.1903 4.70675C80.1903 4.28494 80.0998 3.92326 79.92 3.62169C79.7074 3.2571 79.4073 3.0748 79.0149 3.0748C78.6109 3.0748 78.3031 3.2571 78.0905 3.62169C77.9097 3.92326 77.8202 4.29076 77.8202 4.72517C77.8202 5.14697 77.9107 5.50866 78.0905 5.81022C78.3089 6.17482 78.6128 6.35711 79.0053 6.35711C79.39 6.35711 79.693 6.17191 79.9104 5.80053C80.096 5.49314 80.1903 5.12855 80.1903 4.70675Z" fill="white"/>
<path d="M86.6551 6.99707H85.648V4.37898C85.648 3.57222 85.3441 3.16884 84.7333 3.16884C84.4341 3.16884 84.1927 3.27938 84.0061 3.50143C83.8195 3.72349 83.7262 3.9853 83.7262 4.28492V6.9961H82.7172V3.73221C82.7172 3.33077 82.7057 2.89539 82.6816 2.42414H83.5665L83.6137 3.13878H83.6416C83.7599 2.91673 83.9349 2.73346 84.1639 2.58704C84.438 2.41638 84.7429 2.33008 85.0786 2.33008C85.5008 2.33008 85.8529 2.46777 86.1328 2.74412C86.4819 3.08254 86.6551 3.58773 86.6551 4.25874V6.99707Z" fill="white"/>
<path d="M93.4392 3.18766H92.3292V5.40819C92.3292 5.97253 92.5264 6.25471 92.9169 6.25471C93.0978 6.25471 93.2478 6.23919 93.3661 6.20719L93.3921 6.97808C93.193 7.05371 92.9314 7.09153 92.6091 7.09153C92.2109 7.09153 91.9012 6.96935 91.6771 6.72499C91.452 6.48064 91.3404 6.0695 91.3404 5.49255V3.18766H90.6777V2.42647H91.3404V1.58868L92.3283 1.28809V2.4255H93.4383V3.18766H93.4392Z" fill="white"/>
<path d="M98.7754 6.99748H97.7664V4.39878C97.7664 3.57942 97.4624 3.16925 96.8536 3.16925C96.3861 3.16925 96.0668 3.40682 95.8917 3.88195C95.8619 3.98183 95.8446 4.104 95.8446 4.24751V6.99651H94.8375V0.329102H95.8446V3.08392H95.8638C96.1812 2.5826 96.6362 2.33243 97.2258 2.33243C97.6433 2.33243 97.9886 2.47012 98.2627 2.74647C98.6042 3.09071 98.7754 3.60269 98.7754 4.27951V6.99748Z" fill="white"/>
<path d="M104.28 4.4953C104.28 4.67759 104.267 4.8308 104.243 4.95589H101.219C101.233 5.40775 101.377 5.75198 101.657 5.99052C101.913 6.20385 102.243 6.31051 102.647 6.31051C103.094 6.31051 103.502 6.23875 103.869 6.09427L104.027 6.80019C103.597 6.9883 103.091 7.08236 102.505 7.08236C101.803 7.08236 101.25 6.87388 100.85 6.45693C100.448 6.03997 100.249 5.48048 100.249 4.77844C100.249 4.08901 100.435 3.51497 100.809 3.05728C101.199 2.56857 101.727 2.32422 102.394 2.32422C103.046 2.32422 103.541 2.56857 103.876 3.05728C104.146 3.44515 104.28 3.92513 104.28 4.4953ZM103.318 4.23252C103.326 3.93095 103.26 3.67108 103.123 3.45194C102.948 3.16977 102.681 3.02819 102.321 3.02819C101.992 3.02819 101.723 3.16589 101.519 3.44224C101.351 3.66236 101.252 3.92513 101.219 4.23252H103.318Z" fill="white"/>
<path d="M39.295 24.5205H37.1106L35.9141 20.7301H31.755L30.6152 24.5205H28.4885L32.6091 11.6162H35.1542L39.295 24.5205ZM35.5534 19.1398L34.4713 15.7703C34.3568 15.426 34.1423 14.6154 33.8259 13.3393H33.7874C33.6614 13.8881 33.4584 14.6988 33.1795 15.7703L32.1166 19.1398H35.5534Z" fill="white"/>
<path d="M49.8917 19.7535C49.8917 21.336 49.4675 22.5868 48.6192 23.5051C47.8593 24.3225 46.9157 24.7308 45.7894 24.7308C44.5736 24.7308 43.7002 24.2905 43.1683 23.4101H43.1298V28.3117H41.0792V18.2786C41.0792 17.2837 41.0532 16.2627 41.0032 15.2154H42.8067L42.9211 16.6903H42.9596C43.6435 15.5791 44.6813 15.0244 46.0741 15.0244C47.1629 15.0244 48.0719 15.4579 48.799 16.3257C49.5281 17.1945 49.8917 18.3368 49.8917 19.7535ZM47.8025 19.8291C47.8025 18.9234 47.6006 18.1768 47.1946 17.5892C46.7512 16.9763 46.1558 16.6699 45.4094 16.6699C44.9035 16.6699 44.4437 16.8406 44.033 17.1771C43.6213 17.5165 43.352 17.9596 43.226 18.5084C43.1625 18.7644 43.1308 18.9739 43.1308 19.1387V20.6902C43.1308 21.367 43.3366 21.9381 43.7483 22.4045C44.16 22.8709 44.6948 23.1037 45.3527 23.1037C46.1251 23.1037 46.7262 22.8031 47.1562 22.2038C47.5871 21.6036 47.8025 20.8123 47.8025 19.8291Z" fill="white"/>
<path d="M60.5078 19.7535C60.5078 21.336 60.0836 22.5868 59.2343 23.5051C58.4754 24.3225 57.5318 24.7308 56.4055 24.7308C55.1897 24.7308 54.3163 24.2905 53.7854 23.4101H53.7469V28.3117H51.6962V18.2786C51.6962 17.2837 51.6703 16.2627 51.6202 15.2154H53.4237L53.5382 16.6903H53.5767C54.2596 15.5791 55.2974 15.0244 56.6912 15.0244C57.779 15.0244 58.688 15.4579 59.4171 16.3257C60.1433 17.1945 60.5078 18.3368 60.5078 19.7535ZM58.4186 19.8291C58.4186 18.9234 58.2157 18.1768 57.8098 17.5892C57.3664 16.9763 56.7729 16.6699 56.0255 16.6699C55.5186 16.6699 55.0598 16.8406 54.6482 17.1771C54.2365 17.5165 53.9681 17.9596 53.8421 18.5084C53.7796 18.7644 53.7469 18.9739 53.7469 19.1387V20.6902C53.7469 21.367 53.9527 21.9381 54.3625 22.4045C54.7742 22.87 55.309 23.1037 55.9688 23.1037C56.7412 23.1037 57.3423 22.8031 57.7723 22.2038C58.2032 21.6036 58.4186 20.8123 58.4186 19.8291Z" fill="white"/>
<path d="M72.3772 20.9013C72.3772 21.999 71.9992 22.8921 71.2403 23.5815C70.4064 24.3349 69.2454 24.7112 67.7536 24.7112C66.3762 24.7112 65.272 24.4435 64.4362 23.9073L64.9113 22.1842C65.8116 22.733 66.7994 23.0084 67.8758 23.0084C68.6481 23.0084 69.2493 22.832 69.6812 22.4809C70.1111 22.1299 70.3256 21.6587 70.3256 21.071C70.3256 20.5474 70.1486 20.1062 69.7937 19.7484C69.4407 19.3906 68.8511 19.058 68.0277 18.7506C65.7866 17.908 64.667 16.6736 64.667 15.0504C64.667 13.9896 65.0594 13.1198 65.8453 12.443C66.6282 11.7652 67.6728 11.4268 68.979 11.4268C70.1438 11.4268 71.1114 11.6314 71.8838 12.0396L71.3711 13.7249C70.6497 13.3292 69.8341 13.1314 68.9213 13.1314C68.1999 13.1314 67.6363 13.3108 67.2323 13.6677C66.8908 13.9867 66.7196 14.3755 66.7196 14.8361C66.7196 15.3461 66.9149 15.7679 67.3073 16.0996C67.6488 16.406 68.2692 16.7376 69.1695 17.0954C70.2708 17.5424 71.0797 18.0651 71.6001 18.6643C72.1185 19.2616 72.3772 20.0093 72.3772 20.9013Z" fill="white"/>
<path d="M79.1575 16.7664H76.8971V21.2841C76.8971 22.4331 77.2953 23.0072 78.0937 23.0072C78.4601 23.0072 78.7641 22.9752 79.0045 22.9112L79.0613 24.4811C78.6573 24.6333 78.1254 24.7099 77.4665 24.7099C76.6566 24.7099 76.0237 24.4607 75.5669 23.9633C75.1119 23.4649 74.883 22.629 74.883 21.4547V16.7645H73.5364V15.213H74.883V13.5093L76.8971 12.8965V15.213H79.1575V16.7664Z" fill="white"/>
<path d="M89.3558 19.7913C89.3558 21.2215 88.9499 22.3958 88.14 23.3141C87.2907 24.2595 86.1634 24.7308 84.7581 24.7308C83.4038 24.7308 82.3256 24.2779 81.5215 23.3723C80.7174 22.4666 80.3153 21.3234 80.3153 19.9455C80.3153 18.5036 80.7289 17.3225 81.559 16.4043C82.3871 15.485 83.5048 15.0254 84.9101 15.0254C86.2644 15.0254 87.3542 15.4782 88.1766 16.3849C88.9634 17.2643 89.3558 18.3998 89.3558 19.7913ZM87.2282 19.8582C87.2282 19 87.0464 18.2641 86.678 17.6503C86.248 16.9075 85.6334 16.5371 84.837 16.5371C84.0127 16.5371 83.3865 16.9085 82.9566 17.6503C82.5882 18.265 82.4064 19.0127 82.4064 19.897C82.4064 20.7551 82.5882 21.4911 82.9566 22.1039C83.4 22.8467 84.0194 23.2171 84.8187 23.2171C85.6017 23.2171 86.2163 22.8389 86.6597 22.0845C87.0377 21.4591 87.2282 20.7154 87.2282 19.8582Z" fill="white"/>
<path d="M96.0213 17.0336C95.8184 16.9957 95.602 16.9763 95.375 16.9763C94.6536 16.9763 94.0957 17.2508 93.7032 17.8006C93.3618 18.2854 93.1906 18.8982 93.1906 19.6381V24.5203H91.1408L91.1601 18.1458C91.1601 17.0733 91.1341 16.0969 91.0831 15.2164H92.8693L92.9443 16.9967H93.0011C93.2175 16.3849 93.559 15.8923 94.0264 15.5228C94.4833 15.1902 94.9767 15.0244 95.5087 15.0244C95.6981 15.0244 95.8694 15.038 96.0213 15.0622V17.0336Z" fill="white"/>
<path d="M105.193 19.4275C105.193 19.7979 105.169 20.1102 105.118 20.3652H98.9658C98.9898 21.2844 99.287 21.9874 99.8584 22.4723C100.377 22.9057 101.047 23.1229 101.871 23.1229C102.781 23.1229 103.612 22.9765 104.36 22.6827L104.681 24.1178C103.808 24.5018 102.777 24.6928 101.587 24.6928C100.156 24.6928 99.0321 24.2681 98.2146 23.4196C97.3989 22.5712 96.9901 21.4318 96.9901 20.0025C96.9901 18.5994 97.3701 17.431 98.1309 16.4991C98.9273 15.5043 100.004 15.0068 101.358 15.0068C102.688 15.0068 103.695 15.5043 104.379 16.4991C104.921 17.2894 105.193 18.2668 105.193 19.4275ZM103.237 18.8913C103.251 18.2785 103.117 17.749 102.839 17.302C102.484 16.727 101.939 16.44 101.205 16.44C100.535 16.44 99.9892 16.7202 99.5727 17.2826C99.2312 17.7297 99.0283 18.2659 98.9658 18.8903H103.237V18.8913Z" fill="white"/>
</svg>
