<svg width="179" height="48" viewBox="0 0 179 48" fill="none" xmlns="http://www.w3.org/2000/svg">
<rect width="179" height="48" rx="8" fill="black"/>
<path d="M53.6748 23.1554C53.647 20.0302 56.2132 18.5098 56.3305 18.439C54.8772 16.3028 52.6245 16.0109 51.8329 15.9877C49.9409 15.787 48.1057 17.129 47.1419 17.129C46.1589 17.129 44.6747 16.0071 43.0752 16.04C41.0168 16.072 39.0912 17.2735 38.0351 19.1391C35.8555 22.9431 37.481 28.5332 39.5692 31.608C40.6138 33.1139 41.8344 34.7953 43.432 34.7361C44.995 34.6712 45.5789 33.7316 47.4651 33.7316C49.334 33.7316 49.8822 34.7361 51.5116 34.6983C53.1891 34.6712 54.2452 33.1856 55.2533 31.6662C56.4604 29.9402 56.9452 28.2404 56.9644 28.1531C56.925 28.1395 53.7066 26.9012 53.6748 23.1554Z" fill="white"/>
<path d="M50.5969 13.965C51.4376 12.9051 52.0128 11.4632 51.8531 10C50.6363 10.0543 49.1147 10.8485 48.2384 11.885C47.4632 12.7985 46.7706 14.2956 46.9495 15.7036C48.3163 15.8063 49.7197 15.0083 50.5969 13.965Z" fill="white"/>
<path d="M71.8761 13.6774C71.8761 14.8187 71.5365 15.6778 70.8584 16.2548C70.2303 16.7871 69.3377 17.0538 68.1816 17.0538C67.6083 17.0538 67.1177 17.0286 66.707 16.9781V10.7422C67.2428 10.655 67.8199 10.6104 68.4432 10.6104C69.5445 10.6104 70.3746 10.8518 70.9344 11.3347C71.5615 11.8806 71.8761 12.6612 71.8761 13.6774ZM70.8132 13.7055C70.8132 12.9657 70.6189 12.3984 70.2303 12.0028C69.8417 11.6081 69.2742 11.4103 68.5269 11.4103C68.2095 11.4103 67.9392 11.4317 67.7151 11.4763V16.217C67.8391 16.2363 68.0661 16.2451 68.3961 16.2451C69.1675 16.2451 69.7629 16.0288 70.1822 15.5964C70.6016 15.1639 70.8132 14.5336 70.8132 13.7055Z" fill="white"/>
<path d="M77.5112 14.6738C77.5112 15.3768 77.3121 15.9528 76.9139 16.4046C76.4965 16.8691 75.9434 17.1008 75.2528 17.1008C74.5872 17.1008 74.0572 16.8788 73.6619 16.4327C73.2675 15.9877 73.0703 15.4262 73.0703 14.7494C73.0703 14.0416 73.2733 13.4607 73.6811 13.0098C74.0889 12.5589 74.6372 12.333 75.3278 12.333C75.9934 12.333 76.5282 12.5551 76.9331 13.0001C77.3179 13.4326 77.5112 13.9911 77.5112 14.6738ZM76.4657 14.7067C76.4657 14.2849 76.3753 13.9233 76.1954 13.6217C75.9838 13.2571 75.6827 13.0748 75.2912 13.0748C74.8863 13.0748 74.5785 13.2571 74.3669 13.6217C74.1861 13.9233 74.0966 14.2908 74.0966 14.7252C74.0966 15.147 74.187 15.5087 74.3669 15.8102C74.5852 16.1748 74.8892 16.3571 75.2816 16.3571C75.6664 16.3571 75.9684 16.1719 76.1858 15.8005C76.3724 15.4931 76.4657 15.1285 76.4657 14.7067Z" fill="white"/>
<path d="M85.0675 12.4268L83.6488 16.9978H82.7254L82.1377 15.0129C81.9886 14.5174 81.8674 14.0248 81.7732 13.5361H81.7549C81.6674 14.0383 81.5462 14.53 81.3903 15.0129L80.7661 16.9978H79.8321L78.498 12.4268H79.534L80.0466 14.5998C80.1707 15.1137 80.2727 15.6034 80.3544 16.0669H80.3727C80.4477 15.6848 80.5718 15.1981 80.7469 14.6095L81.3903 12.4277H82.2118L82.8283 14.5629C82.9774 15.0836 83.0986 15.585 83.1919 16.0678H83.2198C83.2881 15.5976 83.391 15.0962 83.5276 14.5629L84.0778 12.4277H85.0675V12.4268Z" fill="white"/>
<path d="M90.2927 16.9971H89.2847V14.379C89.2847 13.5722 88.9808 13.1688 88.371 13.1688C88.0718 13.1688 87.8304 13.2794 87.6428 13.5014C87.4572 13.7235 87.3629 13.9853 87.3629 14.2849V16.9961H86.3549V13.7322C86.3549 13.3308 86.3424 12.8954 86.3184 12.4241H87.2042L87.2514 13.1388H87.2793C87.3966 12.9167 87.5717 12.7335 87.8015 12.587C88.0747 12.4164 88.3806 12.3301 88.7153 12.3301C89.1385 12.3301 89.4906 12.4678 89.7705 12.7441C90.1186 13.0825 90.2927 13.5877 90.2927 14.2587V16.9971Z" fill="white"/>
<path d="M93.0735 16.9975H92.0664V10.3291H93.0735V16.9975Z" fill="white"/>
<path d="M99.0073 14.6738C99.0073 15.3768 98.8082 15.9528 98.41 16.4046C97.9925 16.8691 97.4385 17.1008 96.7489 17.1008C96.0823 17.1008 95.5523 16.8788 95.1579 16.4327C94.7636 15.9877 94.5664 15.4262 94.5664 14.7494C94.5664 14.0416 94.7694 13.4607 95.1772 13.0098C95.585 12.5589 96.1333 12.333 96.8229 12.333C97.4895 12.333 98.0233 12.5551 98.4292 13.0001C98.814 13.4326 99.0073 13.9911 99.0073 14.6738ZM97.9608 14.7067C97.9608 14.2849 97.8704 13.9233 97.6905 13.6217C97.4799 13.2571 97.1778 13.0748 96.7873 13.0748C96.3814 13.0748 96.0736 13.2571 95.863 13.6217C95.6822 13.9233 95.5927 14.2908 95.5927 14.7252C95.5927 15.147 95.6831 15.5087 95.863 15.8102C96.0813 16.1748 96.3853 16.3571 96.7777 16.3571C97.1625 16.3571 97.4635 16.1719 97.6809 15.8005C97.8685 15.4931 97.9608 15.1285 97.9608 14.7067Z" fill="white"/>
<path d="M103.886 16.9971H102.981L102.906 16.4706H102.878C102.569 16.8904 102.127 17.1008 101.554 17.1008C101.126 17.1008 100.78 16.9622 100.519 16.6868C100.282 16.4366 100.164 16.1254 100.164 15.7559C100.164 15.1974 100.395 14.7717 100.859 14.4769C101.323 14.1822 101.975 14.0377 102.815 14.0445V13.9591C102.815 13.357 102.501 13.0564 101.873 13.0564C101.426 13.0564 101.032 13.1698 100.691 13.3948L100.486 12.7277C100.908 12.4649 101.428 12.333 102.042 12.333C103.227 12.333 103.821 12.9633 103.821 14.2239V15.9072C103.821 16.3639 103.843 16.7275 103.886 16.9971ZM102.84 15.4262V14.7213C101.728 14.7019 101.172 15.0093 101.172 15.6425C101.172 15.881 101.236 16.0594 101.365 16.1787C101.495 16.298 101.661 16.3571 101.858 16.3571C102.079 16.3571 102.286 16.2863 102.474 16.1457C102.664 16.0042 102.78 15.8248 102.824 15.6047C102.834 15.5552 102.84 15.4951 102.84 15.4262Z" fill="white"/>
<path d="M109.614 16.9975H108.719L108.672 16.2634H108.644C108.358 16.822 107.872 17.1012 107.188 17.1012C106.641 17.1012 106.186 16.885 105.826 16.4525C105.465 16.0201 105.285 15.4586 105.285 14.7692C105.285 14.0293 105.48 13.4301 105.873 12.9724C106.253 12.5458 106.718 12.3324 107.272 12.3324C107.881 12.3324 108.307 12.539 108.55 12.953H108.569V10.3291H109.578V15.766C109.578 16.2111 109.589 16.6213 109.614 16.9975ZM108.569 15.0698V14.3076C108.569 14.1758 108.559 14.0691 108.541 13.9876C108.484 13.7433 108.362 13.5377 108.176 13.3719C107.989 13.2061 107.763 13.1227 107.502 13.1227C107.126 13.1227 106.832 13.273 106.615 13.5746C106.401 13.8761 106.292 14.2611 106.292 14.7314C106.292 15.1832 106.395 15.5498 106.602 15.8319C106.82 16.1325 107.115 16.2828 107.483 16.2828C107.814 16.2828 108.078 16.1578 108.279 15.9066C108.474 15.6749 108.569 15.3956 108.569 15.0698Z" fill="white"/>
<path d="M118.236 14.6738C118.236 15.3768 118.037 15.9528 117.638 16.4046C117.221 16.8691 116.669 17.1008 115.977 17.1008C115.313 17.1008 114.783 16.8788 114.386 16.4327C113.992 15.9877 113.795 15.4262 113.795 14.7494C113.795 14.0416 113.998 13.4607 114.406 13.0098C114.814 12.5589 115.362 12.333 116.053 12.333C116.718 12.333 117.254 12.5551 117.658 13.0001C118.042 13.4326 118.236 13.9911 118.236 14.6738ZM117.191 14.7067C117.191 14.2849 117.101 13.9233 116.921 13.6217C116.708 13.2571 116.408 13.0748 116.016 13.0748C115.612 13.0748 115.304 13.2571 115.092 13.6217C114.911 13.9233 114.821 14.2908 114.821 14.7252C114.821 15.147 114.912 15.5087 115.092 15.8102C115.31 16.1748 115.614 16.3571 116.006 16.3571C116.391 16.3571 116.694 16.1719 116.911 15.8005C117.097 15.4931 117.191 15.1285 117.191 14.7067Z" fill="white"/>
<path d="M123.655 16.9971H122.648V14.379C122.648 13.5722 122.344 13.1688 121.733 13.1688C121.434 13.1688 121.193 13.2794 121.006 13.5014C120.82 13.7235 120.726 13.9853 120.726 14.2849V16.9961H119.717V13.7322C119.717 13.3308 119.706 12.8954 119.682 12.4241H120.567L120.614 13.1388H120.642C120.76 12.9167 120.935 12.7335 121.164 12.587C121.438 12.4164 121.743 12.3301 122.079 12.3301C122.501 12.3301 122.853 12.4678 123.133 12.7441C123.482 13.0825 123.655 13.5877 123.655 14.2587V16.9971Z" fill="white"/>
<path d="M130.439 13.1877H129.329V15.4082C129.329 15.9725 129.526 16.2547 129.917 16.2547C130.098 16.2547 130.248 16.2392 130.366 16.2072L130.392 16.9781C130.193 17.0537 129.931 17.0915 129.609 17.0915C129.211 17.0915 128.901 16.9694 128.677 16.725C128.452 16.4806 128.34 16.0695 128.34 15.4926V13.1877H127.678V12.4265H128.34V11.5887L129.328 11.2881V12.4255H130.438V13.1877H130.439Z" fill="white"/>
<path d="M135.776 16.9975H134.767V14.3988C134.767 13.5794 134.463 13.1692 133.854 13.1692C133.387 13.1692 133.067 13.4068 132.892 13.882C132.863 13.9818 132.845 14.104 132.845 14.2475V16.9965H131.838V10.3291H132.845V13.0839H132.864C133.182 12.5826 133.637 12.3324 134.226 12.3324C134.644 12.3324 134.989 12.4701 135.263 12.7465C135.605 13.0907 135.776 13.6027 135.776 14.2795V16.9975Z" fill="white"/>
<path d="M141.281 14.4953C141.281 14.6776 141.268 14.8308 141.244 14.9559H138.221C138.234 15.4078 138.378 15.752 138.658 15.9905C138.914 16.2038 139.244 16.3105 139.648 16.3105C140.095 16.3105 140.503 16.2388 140.87 16.0943L141.028 16.8002C140.598 16.9883 140.092 17.0824 139.507 17.0824C138.804 17.0824 138.251 16.8739 137.851 16.4569C137.449 16.04 137.25 15.4805 137.25 14.7784C137.25 14.089 137.436 13.515 137.81 13.0573C138.2 12.5686 138.728 12.3242 139.395 12.3242C140.047 12.3242 140.542 12.5686 140.877 13.0573C141.147 13.4452 141.281 13.9251 141.281 14.4953ZM140.319 14.2325C140.327 13.931 140.261 13.6711 140.124 13.4519C139.949 13.1698 139.683 13.0282 139.322 13.0282C138.993 13.0282 138.725 13.1659 138.52 13.4422C138.352 13.6624 138.253 13.9251 138.221 14.2325H140.319Z" fill="white"/>
<path d="M76.295 34.5203H74.1106L72.9141 30.7298H68.755L67.6152 34.5203H65.4885L69.6091 21.616H72.1542L76.295 34.5203ZM72.5534 29.1396L71.4713 25.77C71.3568 25.4258 71.1423 24.6151 70.8259 23.3391H70.7874C70.6614 23.8879 70.4584 24.6985 70.1795 25.77L69.1166 29.1396H72.5534Z" fill="white"/>
<path d="M86.8927 29.7532C86.8927 31.3357 86.4685 32.5866 85.6201 33.5049C84.8603 34.3223 83.9167 34.7305 82.7903 34.7305C81.5746 34.7305 80.7012 34.2903 80.1693 33.4098H80.1308V38.3115H78.0801V28.2784C78.0801 27.2835 78.0542 26.2624 78.0042 25.2152H79.8076L79.9221 26.6901H79.9606C80.6444 25.5788 81.6823 25.0242 83.0751 25.0242C84.1639 25.0242 85.0728 25.4576 85.8 26.3255C86.5291 27.1943 86.8927 28.3365 86.8927 29.7532ZM84.8035 29.8289C84.8035 28.9232 84.6015 28.1765 84.1956 27.5889C83.7522 26.9761 83.1568 26.6697 82.4104 26.6697C81.9045 26.6697 81.4447 26.8404 81.034 27.1768C80.6223 27.5162 80.353 27.9593 80.227 28.5082C80.1635 28.7642 80.1318 28.9736 80.1318 29.1385V30.6899C80.1318 31.3667 80.3376 31.9379 80.7493 32.4043C81.161 32.8707 81.6958 33.1034 82.3537 33.1034C83.126 33.1034 83.7272 32.8028 84.1571 32.2036C84.5881 31.6033 84.8035 30.8121 84.8035 29.8289Z" fill="white"/>
<path d="M97.5089 29.7532C97.5089 31.3357 97.0847 32.5866 96.2354 33.5049C95.4765 34.3223 94.5329 34.7305 93.4066 34.7305C92.1908 34.7305 91.3174 34.2903 90.7865 33.4098H90.748V38.3115H88.6973V28.2784C88.6973 27.2835 88.6714 26.2624 88.6213 25.2152H90.4248L90.5393 26.6901H90.5778C91.2607 25.5788 92.2985 25.0242 93.6923 25.0242C94.7801 25.0242 95.6891 25.4576 96.4182 26.3255C97.1444 27.1943 97.5089 28.3365 97.5089 29.7532ZM95.4197 29.8289C95.4197 28.9232 95.2168 28.1765 94.8109 27.5889C94.3675 26.9761 93.774 26.6697 93.0266 26.6697C92.5197 26.6697 92.0609 26.8404 91.6493 27.1768C91.2376 27.5162 90.9692 27.9593 90.8432 28.5082C90.7807 28.7642 90.748 28.9736 90.748 29.1385V30.6899C90.748 31.3667 90.9538 31.9379 91.3636 32.4043C91.7753 32.8697 92.3101 33.1034 92.9699 33.1034C93.7423 33.1034 94.3434 32.8028 94.7734 32.2036C95.2043 31.6033 95.4197 30.8121 95.4197 29.8289Z" fill="white"/>
<path d="M109.377 30.9011C109.377 31.9988 108.999 32.8918 108.24 33.5813C107.406 34.3347 106.245 34.7109 104.753 34.7109C103.376 34.7109 102.272 34.4433 101.436 33.9071L101.911 32.184C102.811 32.7328 103.799 33.0082 104.875 33.0082C105.648 33.0082 106.249 32.8317 106.681 32.4807C107.111 32.1297 107.325 31.6584 107.325 31.0708C107.325 30.5472 107.148 30.106 106.793 29.7482C106.44 29.3904 105.851 29.0578 105.027 28.7504C102.786 27.9078 101.667 26.6734 101.667 25.0502C101.667 23.9893 102.059 23.1195 102.845 22.4427C103.628 21.7649 104.672 21.4265 105.979 21.4265C107.143 21.4265 108.111 21.6311 108.883 22.0393L108.371 23.7246C107.649 23.329 106.834 23.1312 105.921 23.1312C105.2 23.1312 104.636 23.3106 104.232 23.6674C103.89 23.9864 103.719 24.3753 103.719 24.8359C103.719 25.3459 103.914 25.7677 104.307 26.0993C104.648 26.4057 105.269 26.7374 106.169 27.0952C107.27 27.5422 108.079 28.0648 108.6 28.6641C109.118 29.2614 109.377 30.009 109.377 30.9011Z" fill="white"/>
<path d="M116.158 26.7662H113.898V31.2838C113.898 32.4329 114.296 33.0069 115.095 33.0069C115.461 33.0069 115.765 32.9749 116.006 32.9109L116.062 34.4808C115.658 34.6331 115.126 34.7097 114.468 34.7097C113.658 34.7097 113.025 34.4605 112.568 33.963C112.113 33.4646 111.884 32.6288 111.884 31.4545V26.7642H110.537V25.2128H111.884V23.5091L113.898 22.8962V25.2128H116.158V26.7662Z" fill="white"/>
<path d="M126.355 29.791C126.355 31.2213 125.949 32.3956 125.139 33.3138C124.29 34.2593 123.163 34.7305 121.758 34.7305C120.403 34.7305 119.325 34.2777 118.521 33.372C117.717 32.4663 117.315 31.3231 117.315 29.9452C117.315 28.5033 117.728 27.3223 118.558 26.404C119.387 25.4848 120.504 25.0251 121.909 25.0251C123.264 25.0251 124.354 25.478 125.176 26.3846C125.963 27.2641 126.355 28.3996 126.355 29.791ZM124.228 29.858C124.228 28.9998 124.046 28.2638 123.677 27.65C123.247 26.9073 122.633 26.5369 121.836 26.5369C121.012 26.5369 120.386 26.9082 119.956 27.65C119.588 28.2648 119.406 29.0124 119.406 29.8967C119.406 30.7549 119.588 31.4909 119.956 32.1037C120.399 32.8465 121.019 33.2169 121.818 33.2169C122.601 33.2169 123.216 32.8387 123.659 32.0843C124.037 31.4589 124.228 30.7151 124.228 29.858Z" fill="white"/>
<path d="M133.022 27.0333C132.819 26.9955 132.603 26.9761 132.376 26.9761C131.655 26.9761 131.097 27.2505 130.704 27.8003C130.363 28.2852 130.192 28.898 130.192 29.6378V34.5201H128.142L128.161 28.1455C128.161 27.0731 128.135 26.0966 128.084 25.2162H129.87L129.945 26.9965H130.002C130.219 26.3846 130.56 25.892 131.028 25.5226C131.484 25.19 131.978 25.0242 132.51 25.0242C132.699 25.0242 132.87 25.0377 133.022 25.062V27.0333Z" fill="white"/>
<path d="M142.193 29.4273C142.193 29.7977 142.169 30.1099 142.118 30.365H135.966C135.99 31.2842 136.287 31.9872 136.859 32.472C137.377 32.9055 138.048 33.1227 138.871 33.1227C139.782 33.1227 140.613 32.9763 141.36 32.6825L141.681 34.1176C140.808 34.5015 139.777 34.6926 138.587 34.6926C137.156 34.6926 136.033 34.2679 135.215 33.4194C134.399 32.5709 133.99 31.4316 133.99 30.0023C133.99 28.5992 134.37 27.4308 135.131 26.4989C135.928 25.504 137.004 25.0066 138.358 25.0066C139.689 25.0066 140.696 25.504 141.379 26.4989C141.921 27.2892 142.193 28.2666 142.193 29.4273ZM140.238 28.8911C140.251 28.2782 140.118 27.7488 139.84 27.3018C139.485 26.7268 138.939 26.4398 138.205 26.4398C137.535 26.4398 136.99 26.72 136.573 27.2824C136.232 27.7294 136.029 28.2656 135.966 28.8901H140.238V28.8911Z" fill="white"/>
</svg>
