<svg width="249" height="166" viewBox="0 0 249 166" fill="none" xmlns="http://www.w3.org/2000/svg">
<path d="M118.025 83.2014C117.676 83.2014 117.344 83.2014 116.417 79.5094C113.287 78.908 113.014 78.5414 112.923 78.418C112.835 78.3001 112.797 78.0843 112.837 77.9435C112.893 77.7442 113.024 77.2806 116.599 75.839C117.882 72.4936 118.315 72.4937 118.604 72.4937C118.752 72.4937 118.958 72.6002 119.047 72.7198C119.276 73.0288 119.484 73.8295 119.8 75.112C119.899 75.5145 120.018 76.0011 120.087 76.2134C120.274 76.297 120.689 76.4461 121.034 76.5691C122.87 77.2273 123.344 77.4517 123.43 77.8876C123.461 78.0505 123.378 78.2893 123.255 78.3998C122.881 78.7343 121.103 79.3946 120.173 79.7265C118.66 83.1685 118.338 83.1858 118.053 83.2006C118.044 83.2014 118.034 83.2014 118.025 83.2014ZM114.116 78.0128C114.74 78.1939 115.887 78.4539 116.887 78.6407C117.069 78.6736 117.214 78.8109 117.258 78.9899C117.514 80.0267 117.848 81.2075 118.088 81.8756C118.435 81.2534 118.963 80.1437 119.391 79.1619C119.443 79.0423 119.543 78.9496 119.666 78.9063C120.521 78.6056 121.487 78.2351 122.084 77.973C121.664 77.7953 121.088 77.5887 120.716 77.4552C119.667 77.0791 119.47 76.9981 119.336 76.8183C119.218 76.6601 119.145 76.3963 118.885 75.3373C118.786 74.9335 118.633 74.3139 118.498 73.8533C118.186 74.4473 117.747 75.4651 117.405 76.3659C117.358 76.4898 117.262 76.5873 117.14 76.6363C116.03 77.0808 114.77 77.645 114.116 78.0128Z" fill="#241726"/>
<path d="M11.3329 162.593C10.9828 162.593 10.6518 162.593 9.72545 158.902C6.59496 158.299 6.32199 157.933 6.23014 157.809C6.14261 157.691 6.10492 157.476 6.14478 157.335C6.20111 157.136 6.33196 156.672 9.907 155.231C11.19 151.885 11.6228 151.885 11.9109 151.885C12.06 151.885 12.2649 151.992 12.3538 152.111C12.583 152.419 12.7914 153.22 13.1068 154.502C13.206 154.905 13.3256 155.392 13.3945 155.605C13.5817 155.688 13.9968 155.837 14.3408 155.96C16.1775 156.619 16.6511 156.843 16.7364 157.279C16.7681 157.442 16.6849 157.681 16.5618 157.791C16.1892 158.126 14.4106 158.786 13.4794 159.118C11.9668 162.56 11.6449 162.577 11.3602 162.592C11.352 162.593 11.3416 162.593 11.3329 162.593ZM7.42427 157.404C8.0482 157.585 9.19554 157.847 10.196 158.033C10.3775 158.067 10.5223 158.203 10.5665 158.382C10.8221 159.418 11.1566 160.599 11.3962 161.267C11.7428 160.646 12.271 159.535 12.6991 158.553C12.7515 158.434 12.8512 158.341 12.9742 158.298C13.8291 157.997 14.7958 157.626 15.3924 157.364C14.9725 157.187 14.3963 156.98 14.0236 156.847C12.9755 156.47 12.7784 156.389 12.6441 156.21C12.5266 156.052 12.4539 155.788 12.1926 154.728C12.0938 154.325 11.9413 153.706 11.8065 153.246C11.4941 153.84 11.0548 154.857 10.7138 155.759C10.667 155.883 10.5704 155.98 10.4482 156.03C9.33809 156.472 8.0781 157.037 7.42427 157.404Z" fill="#241726"/>
<path d="M108.655 160.849C108.654 160.849 108.642 160.849 108.642 160.849C107.772 160.845 106.956 160.503 106.344 159.885C105.732 159.268 105.397 158.449 105.4 157.579C105.408 155.792 106.869 154.339 108.655 154.339C109.539 154.342 110.354 154.684 110.966 155.302C111.579 155.919 111.914 156.738 111.91 157.607C111.902 159.395 110.442 160.849 108.655 160.849ZM108.665 155.281C107.385 155.281 106.347 156.314 106.342 157.584C106.339 158.202 106.577 158.784 107.012 159.223C107.448 159.662 108.027 159.905 108.645 159.908L108.655 160.378V159.908C109.925 159.908 110.963 158.874 110.968 157.604C110.971 156.986 110.732 156.404 110.297 155.966C109.862 155.526 109.283 155.283 108.665 155.281Z" fill="#241726"/>
<path d="M30.1218 44.1929C30.0958 44.1929 30.0685 44.1912 30.0416 44.1864C29.7851 44.1422 29.6131 43.8987 29.6573 43.6422L31.9663 30.2013C32.0101 29.9456 32.2549 29.7719 32.5096 29.8169C32.7661 29.8611 32.9382 30.1046 32.894 30.3611L30.585 43.8021C30.546 44.0313 30.3471 44.1929 30.1218 44.1929Z" fill="#241726"/>
<path d="M23.3268 38.7626C23.118 38.7626 22.9269 38.6231 22.8719 38.4104C22.806 38.1595 22.9568 37.9021 23.2081 37.8367L38.5187 33.8422C38.7691 33.7734 39.0283 33.9259 39.0932 34.1789C39.1591 34.4298 39.0083 34.6871 38.7566 34.7526L23.446 38.747C23.4066 38.7579 23.3663 38.7626 23.3268 38.7626Z" fill="#241726"/>
<path d="M35.9184 42.2571C35.7927 42.2571 35.6675 42.2073 35.5744 42.108L25.8116 31.6793C25.6339 31.4891 25.6439 31.191 25.8337 31.0138C26.0239 30.8383 26.322 30.8456 26.4992 31.0359L36.262 41.4646C36.4396 41.6548 36.4297 41.9529 36.2399 42.1301C36.1493 42.2146 36.0336 42.2571 35.9184 42.2571Z" fill="#241726"/>
<path d="M33.0837 30.9999C32.2821 31.4306 31.2834 31.1295 30.8527 30.3283C30.422 29.5267 30.7232 28.528 31.5243 28.0973C32.3259 27.6667 33.3246 27.9678 33.7553 28.7689C34.186 29.5705 33.8853 30.5692 33.0837 30.9999Z" fill="white"/>
<path d="M32.3053 31.6671C31.5232 31.6671 30.8079 31.2395 30.4378 30.5518C30.1701 30.0527 30.1124 29.4799 30.2754 28.9374C30.4387 28.3958 30.8031 27.95 31.3018 27.6826C32.3005 27.1449 33.6355 27.5531 34.1697 28.5466C34.4371 29.044 34.4947 29.6168 34.3313 30.1593C34.168 30.7009 33.804 31.1467 33.3053 31.4141C32.9986 31.5796 32.6524 31.6671 32.3053 31.6671ZM32.3023 28.372C32.1073 28.372 31.9201 28.4188 31.7468 28.5115C31.4699 28.6606 31.2672 28.908 31.1766 29.2091C31.086 29.5098 31.1177 29.8278 31.2667 30.1056C31.5648 30.6597 32.3001 30.8881 32.8599 30.5843C33.1372 30.4353 33.3396 30.1879 33.4301 29.8868C33.5211 29.5861 33.489 29.268 33.3404 28.9911C33.135 28.6094 32.7373 28.372 32.3023 28.372Z" fill="#241726"/>
<path d="M31.1619 45.6572C30.3603 46.0879 29.3616 45.7868 28.9309 44.9856C28.5002 44.1841 28.8009 43.1853 29.6025 42.7547C30.4041 42.324 31.4028 42.6247 31.8335 43.4263C32.2642 44.2278 31.9635 45.2265 31.1619 45.6572Z" fill="white"/>
<path d="M30.3835 46.3238C29.601 46.3238 28.8861 45.8961 28.5165 45.2076C27.964 44.1799 28.351 42.8926 29.3796 42.3393C30.3809 41.8016 31.7141 42.2089 32.2479 43.2037C32.8004 44.2314 32.4134 45.5187 31.3848 46.072C31.0768 46.2375 30.731 46.3238 30.3835 46.3238ZM30.3805 43.0291C30.1851 43.0291 29.9983 43.0759 29.8246 43.169C29.2531 43.4762 29.0381 44.1911 29.3453 44.7631C29.6434 45.3172 30.3787 45.5426 30.939 45.2432C31.5105 44.936 31.7254 44.221 31.4186 43.6491C31.2132 43.2661 30.8155 43.0291 30.3805 43.0291Z" fill="#241726"/>
<path d="M24.5477 39.4012C23.9043 40.0446 22.8614 40.0446 22.2179 39.4012C21.5745 38.7578 21.5745 37.7149 22.2179 37.0714C22.8614 36.428 23.9043 36.428 24.5477 37.0714C25.1911 37.7149 25.1911 38.7578 24.5477 39.4012Z" fill="white"/>
<path d="M23.3826 40.355C22.8167 40.355 22.2842 40.1344 21.8847 39.7345C21.0593 38.9078 21.0593 37.565 21.8847 36.7383C22.685 35.9385 24.0793 35.9385 24.8804 36.7383C25.2808 37.1382 25.5009 37.6703 25.5009 38.2357C25.5009 38.802 25.2808 39.3341 24.8804 39.734C24.4805 40.1344 23.948 40.355 23.3826 40.355ZM23.3826 37.0598C23.0676 37.0598 22.7721 37.182 22.5502 37.4038C22.0914 37.8627 22.0914 38.6101 22.5502 39.0685C22.9948 39.5135 23.7699 39.5135 24.2149 39.0685C24.4376 38.8462 24.5598 38.5507 24.5598 38.2357C24.5598 37.9212 24.4376 37.6261 24.2149 37.4038C23.9926 37.182 23.6971 37.0598 23.3826 37.0598Z" fill="#241726"/>
<path d="M39.7459 34.9635C39.1025 35.6069 38.0596 35.6069 37.4162 34.9635C36.7727 34.32 36.7727 33.2771 37.4162 32.6337C38.0596 31.9903 39.1025 31.9903 39.7459 32.6337C40.3894 33.2767 40.3894 34.32 39.7459 34.9635Z" fill="white"/>
<path d="M38.5818 35.9164C38.0159 35.9164 37.4843 35.6967 37.0843 35.2968C36.684 34.8969 36.4639 34.3644 36.4639 33.7994C36.4639 33.2331 36.684 32.7005 37.0843 32.3011C37.8842 31.5012 39.2798 31.5012 40.0796 32.3011C40.48 32.701 40.7001 33.2335 40.7001 33.7994C40.7001 34.3648 40.48 34.8969 40.0796 35.2968C39.6793 35.6967 39.1476 35.9164 38.5818 35.9164ZM38.5818 32.6212C38.2672 32.6212 37.9721 32.7434 37.7499 32.9662C37.5272 33.1889 37.405 33.4839 37.405 33.7989C37.405 34.1135 37.5272 34.4086 37.7499 34.6308C38.194 35.0741 38.97 35.0741 39.4137 34.6308C39.6364 34.4081 39.7586 34.1131 39.7586 33.7989C39.7586 33.4835 39.6364 33.1884 39.4137 32.9662C39.1914 32.7439 38.8963 32.6212 38.5818 32.6212Z" fill="#241726"/>
<path d="M26.6551 31.9676C26.0117 32.6111 24.9688 32.6111 24.3253 31.9676C23.6819 31.3242 23.6819 30.2813 24.3253 29.6378C24.9688 28.9944 26.0117 28.9944 26.6551 29.6378C27.2986 30.2813 27.2986 31.3242 26.6551 31.9676Z" fill="white"/>
<path d="M25.4906 32.921C24.9248 32.921 24.3927 32.7004 23.9928 32.3005C23.1678 31.4751 23.1678 30.131 23.9928 29.3052C24.7926 28.5062 26.1886 28.5045 26.9885 29.3052C27.8135 30.1306 27.8135 31.4747 26.9885 32.3005C26.5881 32.7004 26.0561 32.921 25.4906 32.921ZM25.4906 29.6263C25.1761 29.6263 24.8806 29.7485 24.6583 29.9712C24.1999 30.43 24.1999 31.1766 24.6583 31.635C25.1028 32.08 25.8771 32.08 26.3225 31.635C26.7809 31.1761 26.7809 30.4296 26.3225 29.9712C26.0998 29.7485 25.8043 29.6263 25.4906 29.6263Z" fill="#241726"/>
<path d="M37.6952 43.0072C37.0517 43.6506 36.0088 43.6506 35.3654 43.0072C34.722 42.3637 34.722 41.3208 35.3654 40.6774C36.0088 40.034 37.0517 40.034 37.6952 40.6774C38.3386 41.3204 38.3386 42.3637 37.6952 43.0072Z" fill="white"/>
<path d="M36.53 43.9603C35.9641 43.9603 35.4325 43.7398 35.0326 43.3399C34.6322 42.9399 34.4121 42.4079 34.4121 41.8424C34.4121 41.2761 34.6327 40.7445 35.0326 40.345C35.8324 39.546 37.2276 39.5443 38.0279 40.345C38.4278 40.7449 38.6483 41.2761 38.6483 41.8424C38.6483 42.4079 38.4282 42.9399 38.0279 43.3399C37.6275 43.7398 37.0954 43.9603 36.53 43.9603ZM36.53 40.6656C36.2154 40.6656 35.9204 40.7878 35.6981 41.0105C35.4754 41.2328 35.3532 41.5283 35.3532 41.8424C35.3532 42.157 35.4754 42.4521 35.6981 42.6743C36.1431 43.1193 36.9169 43.1193 37.3619 42.6743C37.5846 42.4521 37.7068 42.1566 37.7068 41.8424C37.7068 41.5279 37.5846 41.2328 37.3619 41.0105C37.1396 40.7878 36.8441 40.6656 36.53 40.6656Z" fill="#241726"/>
<path d="M86.4373 8.63297C86.4239 8.63297 86.4099 8.63208 86.396 8.62962C86.2638 8.60684 86.1751 8.48132 86.1979 8.34911L87.3881 1.421C87.4106 1.28924 87.5368 1.19968 87.6681 1.22291C87.8003 1.24569 87.889 1.3712 87.8662 1.50342L86.6761 8.43152C86.656 8.54967 86.5535 8.63297 86.4373 8.63297Z" fill="#241726"/>
<path d="M82.9348 5.83404C82.8272 5.83404 82.7287 5.76213 82.7003 5.65248C82.6664 5.52316 82.7441 5.3905 82.8737 5.35678L90.7655 3.29784C90.8945 3.26233 91.0281 3.34094 91.0616 3.47137C91.0955 3.60068 91.0178 3.73335 90.8881 3.76707L82.9963 5.826C82.9759 5.83159 82.9552 5.83404 82.9348 5.83404Z" fill="#241726"/>
<path d="M89.4254 7.63511C89.3606 7.63511 89.2961 7.60943 89.2481 7.55828L84.2159 2.18281C84.1243 2.08476 84.1294 1.93111 84.2272 1.83976C84.3253 1.74931 84.4789 1.75311 84.5703 1.85116L89.6025 7.22662C89.6941 7.32467 89.6889 7.47833 89.5911 7.56967C89.5444 7.61322 89.4848 7.63511 89.4254 7.63511Z" fill="#241726"/>
<path d="M87.9641 1.83274C87.5509 2.05474 87.0362 1.89952 86.8142 1.48657C86.5922 1.0734 86.7474 0.558613 87.1603 0.336617C87.5735 0.114621 88.0883 0.269837 88.3103 0.682785C88.5323 1.09596 88.3773 1.61075 87.9641 1.83274Z" fill="white"/>
<path d="M87.5629 2.17663C87.1597 2.17663 86.791 1.95619 86.6003 1.60176C86.4623 1.34447 86.4326 1.04922 86.5165 0.769608C86.6007 0.490438 86.7885 0.260627 87.0456 0.122828C87.5604 -0.154332 88.2485 0.0560481 88.5239 0.568157C88.6617 0.824547 88.6914 1.1198 88.6072 1.39941C88.523 1.67858 88.3354 1.9084 88.0783 2.0462C87.9202 2.13151 87.7417 2.17663 87.5629 2.17663ZM87.5613 0.478153C87.4608 0.478153 87.3643 0.502275 87.275 0.550069C87.1323 0.626896 87.0277 0.754421 86.9811 0.90964C86.9344 1.06463 86.9507 1.22856 87.0275 1.37172C87.1812 1.65737 87.5602 1.77507 87.8487 1.61851C87.9917 1.54168 88.096 1.41415 88.1426 1.25894C88.1895 1.10394 88.173 0.940012 88.0964 0.7973C87.9905 0.600541 87.7855 0.478153 87.5613 0.478153Z" fill="#241726"/>
<path d="M86.9729 9.38796C86.5598 9.60996 86.045 9.45474 85.823 9.0418C85.601 8.62862 85.756 8.11383 86.1692 7.89184C86.5823 7.66984 87.0971 7.82484 87.3191 8.23801C87.5411 8.65118 87.3861 9.16597 86.9729 9.38796Z" fill="white"/>
<path d="M86.5716 9.73139C86.1683 9.73139 85.7998 9.51096 85.6093 9.15608C85.3245 8.62632 85.524 7.96279 86.0542 7.67759C86.5703 7.40043 87.2575 7.61037 87.5327 8.12315C87.8174 8.6529 87.618 9.31643 87.0878 9.60163C86.929 9.68695 86.7508 9.73139 86.5716 9.73139ZM86.5701 8.03315C86.4694 8.03315 86.3731 8.05727 86.2835 8.10528C85.989 8.26363 85.8782 8.63213 86.0365 8.92693C86.1902 9.21258 86.5692 9.32872 86.858 9.17439C87.1525 9.01605 87.2633 8.64754 87.1052 8.35274C86.9993 8.15531 86.7943 8.03315 86.5701 8.03315Z" fill="#241726"/>
<path d="M83.5639 6.16299C83.2322 6.49465 82.6947 6.49465 82.363 6.16299C82.0313 5.83134 82.0313 5.29377 82.363 4.96212C82.6947 4.63047 83.2322 4.63047 83.5639 4.96212C83.8955 5.29377 83.8955 5.83134 83.5639 6.16299Z" fill="white"/>
<path d="M82.9632 6.6546C82.6716 6.6546 82.3971 6.54092 82.1912 6.33478C81.7657 5.90865 81.7657 5.21653 82.1912 4.79041C82.6037 4.37813 83.3224 4.37813 83.7353 4.79041C83.9417 4.99655 84.0551 5.2708 84.0551 5.56226C84.0551 5.85416 83.9417 6.12842 83.7353 6.33455C83.5292 6.54092 83.2547 6.6546 82.9632 6.6546ZM82.9632 4.95613C82.8009 4.95613 82.6486 5.01911 82.5342 5.13346C82.2977 5.36997 82.2977 5.75522 82.5342 5.99151C82.7633 6.22087 83.1629 6.22087 83.3923 5.99151C83.5071 5.87694 83.57 5.72462 83.57 5.56226C83.57 5.40012 83.5071 5.24803 83.3923 5.13346C83.2777 5.01911 83.1254 4.95613 82.9632 4.95613Z" fill="#241726"/>
<path d="M91.3979 3.87564C91.0662 4.20729 90.5286 4.20729 90.197 3.87564C89.8653 3.54399 89.8653 3.00642 90.197 2.67477C90.5286 2.34311 91.0662 2.34311 91.3979 2.67477C91.7295 3.0062 91.7295 3.54399 91.3979 3.87564Z" fill="white"/>
<path d="M90.7977 4.36681C90.506 4.36681 90.232 4.25358 90.0259 4.04744C89.8195 3.84131 89.7061 3.56683 89.7061 3.2756C89.7061 2.9837 89.8195 2.70922 90.0259 2.5033C90.4381 2.09102 91.1575 2.09102 91.5698 2.5033C91.7762 2.70944 91.8896 2.98392 91.8896 3.2756C91.8896 3.56705 91.7762 3.84131 91.5698 4.04744C91.3634 4.25358 91.0894 4.36681 90.7977 4.36681ZM90.7977 2.66834C90.6356 2.66834 90.4835 2.73133 90.3689 2.84612C90.2541 2.96092 90.1911 3.11301 90.1911 3.27537C90.1911 3.43751 90.2541 3.5896 90.3689 3.70417C90.5978 3.93265 90.9978 3.93265 91.2265 3.70417C91.3413 3.58938 91.4043 3.43729 91.4043 3.27537C91.4043 3.11278 91.3413 2.96069 91.2265 2.84612C91.112 2.73155 90.9599 2.66834 90.7977 2.66834Z" fill="#241726"/>
<path d="M84.6498 2.33145C84.3182 2.66311 83.7806 2.66311 83.4489 2.33145C83.1173 1.9998 83.1173 1.46223 83.4489 1.13058C83.7806 0.798922 84.3182 0.798922 84.6498 1.13058C84.9815 1.46223 84.9815 1.9998 84.6498 2.33145Z" fill="white"/>
<path d="M84.05 2.82285C83.7583 2.82285 83.484 2.70917 83.2779 2.50303C82.8527 2.07758 82.8527 1.38479 83.2779 0.959111C83.6902 0.54728 84.4098 0.546386 84.8221 0.959111C85.2473 1.38457 85.2473 2.07735 84.8221 2.50303C84.6157 2.70917 84.3414 2.82285 84.05 2.82285ZM84.05 1.1246C83.8878 1.1246 83.7355 1.18758 83.621 1.30238C83.3847 1.53889 83.3847 1.9237 83.621 2.15999C83.8501 2.38935 84.2492 2.38935 84.4788 2.15999C84.7151 1.92348 84.7151 1.53867 84.4788 1.30238C84.364 1.18758 84.2117 1.1246 84.05 1.1246Z" fill="#241726"/>
<path d="M90.3402 8.02188C90.0086 8.35353 89.471 8.35353 89.1394 8.02188C88.8077 7.69023 88.8077 7.15266 89.1394 6.82101C89.471 6.48935 90.0086 6.48935 90.3402 6.82101C90.6719 7.15244 90.6719 7.69023 90.3402 8.02188Z" fill="white"/>
<path d="M89.7401 8.51305C89.4484 8.51305 89.1744 8.39937 88.9683 8.19324C88.7619 7.9871 88.6484 7.71284 88.6484 7.42139C88.6484 7.12949 88.7621 6.85546 88.9683 6.64954C89.3805 6.23771 90.0997 6.23682 90.5122 6.64954C90.7183 6.85568 90.832 7.12949 90.832 7.42139C90.832 7.71284 90.7185 7.9871 90.5122 8.19324C90.3058 8.39937 90.0316 8.51305 89.7401 8.51305ZM89.7401 6.81481C89.578 6.81481 89.4259 6.87779 89.3113 6.99259C89.1965 7.10716 89.1335 7.25947 89.1335 7.42139C89.1335 7.58353 89.1965 7.73562 89.3113 7.8502C89.5407 8.07956 89.9395 8.07956 90.1689 7.8502C90.2837 7.73562 90.3467 7.58331 90.3467 7.42139C90.3467 7.25925 90.2837 7.10716 90.1689 6.99259C90.0543 6.87779 89.902 6.81481 89.7401 6.81481Z" fill="#241726"/>
<path d="M65.9373 145.994C65.9373 145.994 44.325 132.906 44.0651 128.281C43.8047 123.657 42.5689 101.691 46.5526 103.786C50.5362 105.882 60.6261 113.432 65.1903 118.974C69.7546 124.517 65.9373 145.994 65.9373 145.994Z" fill="#FF8C71"/>
<path d="M74.9331 120.359C74.9331 120.359 88.1809 142.809 87.1332 144.801C86.0855 146.793 64.4715 161.153 62.2842 156.637C60.097 152.121 50.1011 125.622 49.6505 124.488C49.2003 123.354 70.7979 115.567 74.9331 120.359Z" fill="#FF8C71"/>
<path d="M21.7748 71.1387C21.7748 71.1387 57.5161 46.6048 60.4945 49.2661C63.4729 51.9273 101.34 104.881 102.544 109.527C103.749 114.174 65.8933 134.659 65.8933 134.659C65.8933 134.659 20.0538 74.0643 21.7748 71.1387Z" fill="#FDFFFF"/>
<path d="M65.8944 135.129C65.751 135.129 65.6102 135.064 65.5184 134.943C65.404 134.791 53.9267 119.613 42.8081 104.272C20.1377 72.9941 20.9697 71.5799 21.3696 70.8996C21.4047 70.8407 21.4523 70.7891 21.5087 70.7506C22.8271 69.8459 53.8552 48.5928 59.7843 48.5928C60.2249 48.5928 60.5698 48.7011 60.8085 48.9147C62.439 50.3718 73.1528 65.0407 82.5699 78.3803C87.1623 84.8865 102.208 106.352 103 109.41C104.235 114.171 72.4934 131.623 66.1176 135.072C66.047 135.111 65.9703 135.129 65.8944 135.129ZM22.1751 71.436C22.0329 74.6263 48.1531 110.416 66.0257 134.052C80.5486 126.172 102.893 112.746 102.089 109.646C100.883 104.99 62.8584 52.0097 60.182 49.6175C60.1374 49.5781 60.0096 49.5347 59.7847 49.5347C55.2893 49.5347 33.2992 63.8063 22.1751 71.436Z" fill="#241726"/>
<path d="M33.0773 75.5316C33.0773 75.5316 59.8154 57.178 62.0434 59.1685C64.2717 61.1595 92.6 100.774 93.5008 104.25C94.4016 107.726 66.082 123.05 66.082 123.05C66.082 123.05 31.7901 77.7201 33.0773 75.5316Z" fill="#37582A"/>
<path d="M38.6045 65.5751C38.6045 65.5751 45.2593 60.1751 51.3383 58.2864L38.6045 65.5751Z" fill="#FDFFFF"/>
<path d="M38.6047 66.046C38.4678 66.046 38.3317 65.9862 38.239 65.8723C38.0752 65.6699 38.106 65.374 38.3079 65.2094C38.5822 64.9871 45.1027 59.7309 51.1986 57.837C51.4495 57.7577 51.7112 57.8994 51.7879 58.1468C51.865 58.3951 51.7263 58.6589 51.4781 58.7361C45.5576 60.5749 38.9674 65.8866 38.9011 65.9407C38.8136 66.0118 38.7087 66.046 38.6047 66.046Z" fill="#241726"/>
<path d="M71.263 137.576C71.263 137.576 76.9131 137.277 69.7552 124.516C68.1308 121.621 60.268 120.798 60.268 120.798C60.268 120.798 59.8043 107.075 56.7895 107.077C53.3414 107.078 52.0931 126.67 53.0373 129.71C53.9818 132.749 70.6226 139.931 71.263 137.576Z" fill="#FF8C71"/>
<path d="M73.2 134.735C73.1952 134.735 73.1913 134.735 73.187 134.735C72.9274 134.728 72.7221 134.512 72.7285 134.252C72.7407 133.799 72.8676 123.137 60.1979 121.263C59.941 121.225 59.7629 120.986 59.801 120.729C59.8387 120.472 60.0757 120.29 60.3357 120.332C73.8469 122.33 73.6731 134.159 73.6696 134.277C73.6627 134.533 73.4539 134.735 73.2 134.735Z" fill="#241726"/>
<path d="M54.6821 114.812C54.4525 114.812 54.2103 114.784 53.9568 114.726C53.7033 114.668 53.5443 114.417 53.6015 114.163C53.6591 113.909 53.91 113.748 54.1648 113.808C54.7614 113.941 55.2233 113.859 55.5764 113.55C56.514 112.733 56.5452 110.526 56.4785 109.745C56.456 109.486 56.6479 109.258 56.907 109.236C57.1683 109.212 57.394 109.405 57.4166 109.664C57.4278 109.799 57.6817 112.965 56.1956 114.26C55.7731 114.627 55.2662 114.812 54.6821 114.812Z" fill="#241726"/>
<path d="M52.1641 128.516C52.025 128.516 51.8868 128.454 51.7936 128.336C50.5354 126.738 52.1727 118.791 52.5142 117.214C52.5696 116.961 52.8222 116.801 53.0735 116.854C53.3279 116.908 53.4891 117.159 53.4345 117.413C52.6255 121.155 51.8114 126.836 52.5341 127.754C52.6944 127.958 52.6598 128.254 52.4552 128.415C52.3686 128.483 52.2659 128.516 52.1641 128.516Z" fill="#241726"/>
<path d="M115.819 93.2339C115.819 93.2339 108.635 80.5811 103.732 78.9138C98.8297 77.2465 97.2833 80.185 97.2833 80.185C97.2833 80.185 94.6238 77.9566 92.486 79.4177C90.3481 80.8787 87.9317 83.0218 87.9317 83.0218C87.9317 83.0218 76.8786 73.8053 74.9266 76.2291C70.6076 81.5919 92.1827 93.5783 92.7342 97.7903C93.2945 102.069 78.2343 96.0905 77.8873 99.2544C77.5406 102.418 80.8579 102.579 86.7345 105.671C92.6112 108.763 95.4197 110.503 98.9662 110.797C102.513 111.091 110.947 131.688 113.571 130.94C116.196 130.191 133.994 120.746 134.932 119.059C135.87 117.373 115.819 93.2339 115.819 93.2339Z" fill="#FF8C71"/>
<path d="M97.3558 91.1779C97.1686 91.1779 96.9918 91.0657 96.9182 90.8811C95.6378 87.657 88.8846 83.3506 88.8166 83.3086C88.5969 83.169 88.5315 82.8783 88.671 82.6586C88.8097 82.439 89.1004 82.3744 89.3205 82.5126C89.6091 82.6955 96.4017 87.0283 97.7934 90.534C97.8892 90.7758 97.7713 91.0496 97.5295 91.1454C97.4724 91.1671 97.4134 91.1779 97.3558 91.1779Z" fill="#241726"/>
<path d="M103.968 85.0067C103.814 85.0067 103.662 84.9313 103.572 84.7926C101.986 82.3454 97.1775 80.6474 97.1294 80.6301C96.8837 80.5447 96.7542 80.2761 96.84 80.0308C96.9253 79.7851 97.1957 79.6556 97.4392 79.7422C97.6493 79.815 102.602 81.5664 104.362 84.2801C104.504 84.4989 104.442 84.7905 104.224 84.9317C104.144 84.9815 104.055 85.0067 103.968 85.0067Z" fill="#241726"/>
<path d="M84.5088 103.563C83.8459 103.563 83.0174 103.519 81.9788 103.419C81.7202 103.393 81.5308 103.163 81.5559 102.905C81.5806 102.646 81.8038 102.464 82.0698 102.481C85.7177 102.837 86.2129 102.423 86.2567 102.375C86.1579 102.02 84.3021 100.826 82.2622 99.8973C82.0256 99.7899 81.9212 99.5104 82.0287 99.2738C82.1361 99.0368 82.4143 98.9337 82.6522 99.0403C84.8741 100.051 87.4577 101.5 87.1471 102.658C87.0171 103.14 86.5604 103.563 84.5088 103.563Z" fill="#241726"/>
<path d="M80.8901 80.9172C79.085 80.9172 76.8779 78.2374 76.6179 77.9137C76.4558 77.7105 76.4879 77.4146 76.6907 77.2517C76.893 77.0879 77.1894 77.1212 77.3523 77.3232C78.2592 78.4514 80.0603 80.1538 81.04 79.9606C81.3754 79.8908 81.6306 79.5424 81.7978 78.9272C81.8663 78.6763 82.1262 78.532 82.3758 78.5961C82.6263 78.6642 82.7749 78.9233 82.7064 79.1733C82.4386 80.159 81.9425 80.7335 81.2319 80.8813C81.1197 80.906 81.0058 80.9172 80.8901 80.9172Z" fill="#241726"/>
<path d="M180.925 121.34C180.925 121.34 182.789 64.4214 173.927 59.7302C165.066 55.0391 143.695 64.9427 138.483 72.7613C133.271 80.58 129.622 98.3022 129.622 98.3022C129.622 98.3022 140.568 95.696 140.568 97.781C140.568 99.8659 141.089 112.897 142.653 113.418C144.217 113.939 155.163 108.727 155.163 110.812C155.163 112.897 156.726 122.801 155.163 124.364C153.599 125.928 137.921 128.846 134.026 132.864C125.45 141.707 126.79 158.591 126.79 158.591C126.79 158.591 212.536 158.799 212.817 154.839C214.538 130.516 202.097 127.236 202.097 127.236L180.925 121.34Z" fill="#FF8C71"/>
<path d="M146.1 106.698C143.762 106.698 142.031 102.437 141.838 101.943C141.744 101.701 141.863 101.428 142.105 101.333C142.346 101.237 142.62 101.359 142.715 101.601C143.147 102.705 144.715 105.816 146.158 105.754C146.788 105.717 148.025 104.963 149.234 100.329C149.3 100.076 149.561 99.9227 149.809 99.9924C150.06 100.058 150.211 100.315 150.146 100.566C149.094 104.597 147.808 106.6 146.213 106.694C146.175 106.697 146.138 106.698 146.1 106.698Z" fill="#241726"/>
<path d="M179.402 56.4555C179.402 56.4555 145.823 53.3055 146.103 42.2805C146.103 42.2805 136.029 51.7305 145.543 59.868C145.543 59.868 138.827 59.868 137.428 49.3682C137.428 49.3682 131.272 51.2058 133.511 62.7554C135.749 74.3051 158.415 79.2926 172.966 68.2677C172.966 68.2677 173.806 84.0176 181.361 90.055C181.361 90.055 197.031 68.0051 179.402 56.4555Z" fill="#241726"/>
<path d="M176.824 89.8837C176.824 89.8837 183.712 77.8297 188.878 86.4396C194.044 95.0494 186.295 105.813 178.976 98.9242L176.824 89.8837Z" fill="#FF8C71"/>
<path d="M68.4009 165.556C68.1474 165.556 67.9382 165.354 67.9308 165.099C67.9234 164.839 68.1279 164.622 68.3884 164.614C68.9867 164.597 69.6046 164.561 70.2402 164.506C70.5032 164.484 70.7277 164.675 70.7498 164.935C70.7723 165.193 70.5808 165.422 70.3217 165.444C69.6665 165.501 69.0313 165.539 68.4143 165.556C68.41 165.556 68.4057 165.556 68.4009 165.556ZM66.5196 165.55C66.5135 165.55 66.5075 165.55 66.5018 165.55C65.8532 165.527 65.2106 165.48 64.5915 165.412C64.3332 165.383 64.1465 165.15 64.1751 164.892C64.2037 164.634 64.4303 164.445 64.6946 164.476C65.2912 164.541 65.9108 164.586 66.5369 164.609C66.7965 164.619 66.9992 164.837 66.9897 165.098C66.9802 165.351 66.7713 165.55 66.5196 165.55ZM72.151 165.231C71.9196 165.231 71.7186 165.06 71.6852 164.825C71.6488 164.568 71.8286 164.329 72.086 164.294C72.6766 164.211 73.2814 164.112 73.9006 163.996C74.1489 163.948 74.4037 164.108 74.4578 164.357C74.5124 164.605 74.3699 164.85 74.1229 164.912C73.4409 165.041 72.8209 165.142 72.2164 165.227C72.1948 165.228 72.1727 165.231 72.151 165.231ZM62.7834 165.13C62.7535 165.13 62.7231 165.127 62.6924 165.121C62.0576 164.997 61.4281 164.843 60.8219 164.663C60.5727 164.588 60.4306 164.326 60.5047 164.077C60.5792 163.829 60.8379 163.689 61.0905 163.76C61.6672 163.932 62.2678 164.079 62.8735 164.198C63.1287 164.247 63.2951 164.494 63.2448 164.749C63.2006 164.975 63.0039 165.13 62.7834 165.13ZM75.8422 164.516C75.6329 164.516 75.4422 164.375 75.3872 164.164C75.3218 163.912 75.4726 163.654 75.7247 163.589C76.3214 163.435 76.9163 163.257 77.493 163.063C77.74 162.982 78.0064 163.113 78.0892 163.358C78.1724 163.605 78.0398 163.872 77.7937 163.955C77.1962 164.156 76.5792 164.34 75.9609 164.501C75.921 164.511 75.8812 164.516 75.8422 164.516ZM59.1832 164.054C59.1221 164.054 59.0606 164.042 59.0012 164.017C58.3946 163.762 57.8092 163.476 57.262 163.166C57.0358 163.038 56.9561 162.751 57.0844 162.525C57.213 162.298 57.499 162.218 57.7261 162.348C58.2408 162.639 58.7924 162.909 59.3652 163.149C59.6052 163.249 59.7179 163.525 59.6169 163.765C59.542 163.945 59.3673 164.054 59.1832 164.054ZM79.3994 163.313C79.2162 163.313 79.0415 163.205 78.9657 163.025C78.8652 162.785 78.9774 162.51 79.2166 162.408C79.7833 162.169 80.3462 161.908 80.8886 161.63C81.12 161.512 81.4034 161.603 81.5221 161.834C81.6408 162.065 81.5494 162.349 81.318 162.468C80.7543 162.757 80.1707 163.028 79.5827 163.276C79.5229 163.301 79.4605 163.313 79.3994 163.313ZM55.9232 162.194C55.8239 162.194 55.7243 162.162 55.6385 162.098C55.1146 161.699 54.6224 161.264 54.1762 160.805C53.995 160.619 53.9998 160.321 54.1861 160.14C54.3724 159.959 54.6701 159.964 54.8516 160.149C55.265 160.574 55.7212 160.978 56.2083 161.348C56.4149 161.505 56.4552 161.801 56.2979 162.008C56.2061 162.13 56.0653 162.194 55.9232 162.194ZM82.7457 161.604C82.5863 161.604 82.4307 161.523 82.3427 161.377C82.208 161.155 82.2795 160.865 82.5018 160.731C83.036 160.408 83.5516 160.071 84.0516 159.721C84.2648 159.574 84.559 159.625 84.7072 159.838C84.8558 160.052 84.8038 160.345 84.5902 160.494C84.0733 160.854 83.5404 161.203 82.9888 161.536C82.913 161.582 82.8285 161.604 82.7457 161.604ZM48.8584 160.635C48.2904 160.635 47.6864 160.594 47.0642 160.512C46.8064 160.478 46.6253 160.24 46.6591 159.983C46.6929 159.725 46.9229 159.541 47.1873 159.578C47.7752 159.655 48.3623 159.721 48.8771 159.693L48.9923 159.692C48.9958 159.692 48.9997 159.692 49.0027 159.692C49.2579 159.692 49.4676 159.896 49.4733 160.153C49.4789 160.412 49.2727 160.628 49.0131 160.634L48.8775 160.635C48.8719 160.635 48.8654 160.635 48.8584 160.635ZM50.8719 160.445C50.6527 160.445 50.4564 160.291 50.4109 160.068C50.3593 159.813 50.5244 159.565 50.7792 159.513C51.3802 159.392 51.943 159.207 52.4538 158.965C52.5292 158.929 52.6111 158.912 52.6887 158.92C52.4109 158.478 52.1718 158.024 51.9764 157.568C51.8737 157.329 51.9846 157.052 52.2233 156.949C52.4616 156.846 52.7389 156.957 52.8416 157.197C53.0687 157.725 53.3607 158.251 53.7091 158.759C53.856 158.974 53.8018 159.267 53.5873 159.414C53.4456 159.513 53.2693 159.522 53.1224 159.453C53.1016 159.605 53.0071 159.744 52.8577 159.815C52.2784 160.091 51.6419 160.299 50.9659 160.436C50.9339 160.442 50.9027 160.445 50.8719 160.445ZM45.2778 160.164C45.2405 160.164 45.2032 160.159 45.1655 160.15L44.9506 160.097C44.3813 159.951 43.841 159.789 43.3184 159.609C43.0723 159.524 42.9424 159.256 43.0268 159.01C43.1113 158.765 43.3787 158.634 43.6252 158.719C44.1235 158.891 44.6387 159.045 45.1564 159.178L45.3891 159.237C45.6413 159.298 45.7964 159.553 45.7349 159.805C45.6825 160.019 45.4896 160.164 45.2778 160.164ZM85.8298 159.454C85.6912 159.454 85.553 159.394 85.4602 159.276C85.2991 159.072 85.3333 158.776 85.5369 158.615C86.0261 158.227 86.5005 157.829 86.9624 157.422C87.1578 157.251 87.4551 157.271 87.6267 157.466C87.7987 157.662 87.7792 157.958 87.5838 158.13C87.1098 158.546 86.6236 158.955 86.1214 159.352C86.0352 159.421 85.9321 159.454 85.8298 159.454ZM41.7253 158.939C41.6603 158.939 41.594 158.925 41.5307 158.897C40.9475 158.631 40.3708 158.336 39.8179 158.019C39.5922 157.89 39.5142 157.603 39.6437 157.376C39.7724 157.15 40.061 157.073 40.2859 157.203C40.8141 157.505 41.3639 157.786 41.9202 158.04C42.1568 158.148 42.2612 158.427 42.1538 158.663C42.0749 158.837 41.9038 158.939 41.7253 158.939ZM54.213 158.816C54.086 158.816 53.9591 158.765 53.8663 158.664C53.6904 158.473 53.703 158.175 53.8945 157.999C54.3243 157.604 54.6827 157.149 54.96 156.646C55.0856 156.419 55.3707 156.333 55.5995 156.461C55.8274 156.586 55.9102 156.872 55.7849 157.1C55.4587 157.692 55.0371 158.228 54.5319 158.692C54.4409 158.775 54.3269 158.816 54.213 158.816ZM38.4643 157.071C38.3708 157.071 38.2763 157.043 38.194 156.985C37.6749 156.62 37.1628 156.224 36.6718 155.808C36.4738 155.64 36.4491 155.343 36.6172 155.145C36.7849 154.948 37.0804 154.922 37.2806 155.09C37.7503 155.488 38.2399 155.866 38.7356 156.215C38.9483 156.365 38.9995 156.658 38.8495 156.871C38.7577 157 38.6121 157.071 38.4643 157.071ZM88.6587 156.973C88.5348 156.973 88.4109 156.924 88.3186 156.828C88.1388 156.64 88.1453 156.343 88.3334 156.162C88.7861 155.729 89.2268 155.291 89.6596 154.848C89.8416 154.663 90.1397 154.658 90.3252 154.84C90.5115 155.022 90.5149 155.319 90.3334 155.506C89.8936 155.957 89.4443 156.402 88.9841 156.843C88.8927 156.93 88.7757 156.973 88.6587 156.973ZM51.8793 156.051C51.6514 156.051 51.4508 155.885 51.4144 155.653C51.365 155.334 51.3399 155.019 51.3399 154.717C51.3399 154.321 51.3828 153.945 51.4668 153.599C51.5279 153.347 51.7853 153.191 52.0353 153.253C52.2879 153.314 52.443 153.569 52.3815 153.821C52.3148 154.094 52.2814 154.396 52.2814 154.717C52.2814 154.972 52.3026 155.237 52.3447 155.508C52.3845 155.765 52.2086 156.006 51.9517 156.045C51.9274 156.049 51.9031 156.051 51.8793 156.051ZM55.9855 155.574C55.9613 155.574 55.937 155.572 55.9115 155.568C55.6549 155.528 55.4795 155.287 55.5202 155.029C55.5566 154.797 55.5744 154.57 55.5744 154.352C55.5744 153.999 55.5284 153.671 55.4383 153.376C55.3621 153.128 55.5016 152.864 55.7503 152.789C55.999 152.708 56.262 152.852 56.3382 153.1C56.4561 153.484 56.5159 153.905 56.5159 154.352C56.5159 154.621 56.4938 154.898 56.4496 155.176C56.4132 155.408 56.213 155.574 55.9855 155.574ZM35.593 154.643C35.4721 154.643 35.3516 154.597 35.2593 154.505C34.813 154.056 34.3754 153.582 33.959 153.093C33.7909 152.895 33.8143 152.598 34.0123 152.429C34.2103 152.261 34.5071 152.284 34.6761 152.482C35.0765 152.952 35.4972 153.41 35.927 153.841C36.1103 154.025 36.1094 154.323 35.9257 154.506C35.8334 154.597 35.713 154.643 35.593 154.643ZM91.3001 154.289C91.1844 154.289 91.0682 154.247 90.9773 154.161C90.7879 153.983 90.7793 153.685 90.9569 153.496C91.3893 153.036 91.8161 152.576 92.2386 152.121C92.4149 151.928 92.7126 151.918 92.9036 152.095C93.0943 152.273 93.1056 152.57 92.9288 152.761C92.5046 153.219 92.0769 153.68 91.6428 154.142C91.5501 154.24 91.4248 154.289 91.3001 154.289ZM52.917 152.632C52.7675 152.632 52.6211 152.561 52.5297 152.429C52.3815 152.216 52.4352 151.922 52.6493 151.774C52.8304 151.648 53.0314 151.546 53.245 151.471C53.5635 151.357 53.8399 151.286 54.1774 151.301C54.414 151.301 54.6463 151.339 54.8651 151.415C55.1103 151.5 55.2412 151.768 55.1562 152.013C55.0709 152.26 54.8022 152.388 54.5574 152.305C54.4361 152.264 54.3252 152.217 54.1701 152.242C53.9794 152.242 53.7754 152.281 53.5609 152.357C53.4244 152.406 53.2979 152.47 53.1844 152.548C53.1029 152.605 53.0093 152.632 52.917 152.632ZM33.1518 151.779C33.0067 151.779 32.8637 151.712 32.7718 151.586C32.4001 151.078 32.0379 150.545 31.6947 150C31.556 149.78 31.6219 149.49 31.8416 149.351C32.063 149.211 32.3529 149.279 32.4906 149.498C32.8225 150.024 33.1722 150.539 33.531 151.03C33.6843 151.24 33.6388 151.534 33.4296 151.687C33.3451 151.749 33.2485 151.779 33.1518 151.779ZM93.8651 151.531C93.7499 151.531 93.6337 151.489 93.5432 151.404C93.3534 151.226 93.3439 150.928 93.5215 150.739C93.9574 150.274 94.3911 149.816 94.827 149.369C95.009 149.185 95.3075 149.179 95.4925 149.362C95.6788 149.543 95.6823 149.841 95.5008 150.027C95.0696 150.469 94.6394 150.923 94.2083 151.383C94.1164 151.482 93.9908 151.531 93.8651 151.531ZM96.5017 148.842C96.3777 148.842 96.2534 148.794 96.1611 148.696C95.9817 148.509 95.9886 148.21 96.1771 148.031C96.6429 147.588 97.1139 147.159 97.594 146.752C97.7928 146.583 98.0901 146.607 98.2573 146.806C98.4259 147.004 98.4016 147.301 98.2036 147.469C97.7374 147.865 97.2794 148.281 96.8266 148.713C96.7352 148.799 96.6182 148.842 96.5017 148.842ZM31.1423 148.593C30.975 148.593 30.8134 148.504 30.728 148.347C30.4018 147.745 30.1167 147.17 29.8693 146.635C29.7601 146.399 29.8632 146.119 30.0998 146.01C30.3368 145.9 30.6158 146.003 30.7246 146.239C30.9637 146.758 31.2393 147.315 31.5556 147.898C31.6795 148.126 31.5946 148.412 31.3663 148.536C31.2948 148.575 31.2181 148.593 31.1423 148.593ZM99.3756 146.418C99.23 146.418 99.0862 146.351 98.9935 146.223C98.8414 146.013 98.8886 145.718 99.0992 145.566C99.6343 145.179 100.177 144.824 100.713 144.512C100.937 144.381 101.226 144.457 101.357 144.683C101.487 144.908 101.411 145.195 101.186 145.327C100.678 145.623 100.161 145.959 99.6508 146.329C99.568 146.389 99.4714 146.418 99.3756 146.418ZM29.5612 145.171C29.3723 145.171 29.1933 145.056 29.1218 144.869C28.6933 143.753 28.5096 143.056 28.5018 143.027C28.4359 142.776 28.5863 142.519 28.8376 142.453C29.0889 142.384 29.3463 142.537 29.4126 142.789C29.4139 142.795 29.5928 143.47 30.0005 144.533C30.0937 144.775 29.9724 145.047 29.7297 145.14C29.6743 145.161 29.6175 145.171 29.5612 145.171ZM115.486 144.561C115.439 144.561 115.39 144.554 115.343 144.538C114.731 144.342 114.138 144.171 113.562 144.025C113.311 143.962 113.158 143.706 113.221 143.453C113.285 143.201 113.539 143.046 113.793 143.113C114.388 143.263 115 143.439 115.63 143.643C115.878 143.721 116.014 143.987 115.935 144.234C115.87 144.434 115.685 144.561 115.486 144.561ZM102.625 144.542C102.442 144.542 102.269 144.436 102.192 144.257C102.089 144.019 102.199 143.742 102.438 143.639C103.035 143.38 103.648 143.161 104.26 142.986C104.51 142.913 104.771 143.059 104.842 143.309C104.913 143.559 104.769 143.819 104.519 143.891C103.945 144.055 103.371 144.261 102.811 144.503C102.75 144.529 102.687 144.542 102.625 144.542ZM111.838 143.643C111.811 143.643 111.785 143.642 111.757 143.636C111.139 143.529 110.525 143.45 109.933 143.402C109.674 143.38 109.481 143.153 109.502 142.895C109.523 142.636 109.752 142.447 110.009 142.464C110.63 142.514 111.272 142.596 111.918 142.709C112.174 142.753 112.346 142.997 112.301 143.253C112.262 143.483 112.063 143.643 111.838 143.643ZM106.221 143.513C105.991 143.513 105.791 143.346 105.755 143.112C105.717 142.855 105.894 142.616 106.151 142.577C106.777 142.482 107.425 142.426 108.077 142.41C108.324 142.399 108.553 142.609 108.56 142.869C108.566 143.129 108.362 143.345 108.101 143.351C107.488 143.367 106.878 143.419 106.29 143.508C106.267 143.511 106.244 143.513 106.221 143.513Z" fill="#241726"/>
<path d="M75.6279 62.9156C75.6279 70.8222 65.7304 90.3109 61.3117 90.3109C56.8931 90.3109 46.9956 70.8222 46.9956 62.9156C46.9956 55.009 53.4051 48.5994 61.3117 48.5994C69.2183 48.5994 75.6279 55.009 75.6279 62.9156Z" fill="#E75634"/>
<path d="M61.3112 72.6367C56.5281 72.6367 52.6507 68.7593 52.6507 63.9762C52.6507 59.1931 56.5281 55.3157 61.3112 55.3157C66.0942 55.3157 69.9717 59.1931 69.9717 63.9762C69.9717 68.7593 66.0942 72.6367 61.3112 72.6367Z" fill="white"/>
<path d="M61.3109 73.1072C66.3461 73.1072 70.4424 69.0118 70.4424 63.9762C70.4424 58.941 66.3461 54.8442 61.3109 54.8442C56.2761 54.8442 52.1798 58.941 52.1798 63.9762C52.1798 69.0118 56.2761 73.1072 61.3109 73.1072ZM61.3109 55.7862C65.8266 55.7862 69.5009 59.4609 69.5009 63.9766C69.5009 68.4923 65.8266 72.1661 61.3109 72.1661C56.7952 72.1661 53.1214 68.4923 53.1214 63.9766C53.1214 59.4605 56.7952 55.7862 61.3109 55.7862Z" fill="#241726"/>
<path d="M63.0789 58.9441C63.0789 58.9441 59.9809 58.2933 59.5685 58.9324C59.2998 59.3484 59.3397 69.2892 60.0953 69.6216C60.8506 69.9539 63.3194 69.5501 63.3194 69.5501C63.3194 69.5501 63.5504 59.0637 63.0789 58.9441Z" fill="#FF8C71"/>
<path d="M55.6437 62.5959C55.6437 62.5959 55.366 66.1281 56.1268 66.1381C62.5563 66.2208 66.8727 66.2581 66.8069 65.9366C66.6903 65.3672 66.4589 62.1189 66.4589 62.1189C66.4589 62.1189 55.7637 62.1245 55.6437 62.5959Z" fill="#FF8C71"/>
<path d="M197.335 27.775C199.268 29.7086 202.432 29.7086 204.366 27.775C206.299 25.8414 206.299 22.6778 204.366 20.7446L201.281 17.6597L194.25 24.6904L197.335 27.775Z" fill="#E75634"/>
<path d="M201.281 17.6595L196.904 13.2832C194.971 11.3496 191.807 11.3496 189.874 13.2832C187.94 15.2167 187.94 18.3803 189.874 20.3139L194.25 24.6902L201.281 17.6595Z" fill="white"/>
<path d="M194.25 25.0883C194.145 25.0883 194.044 25.0465 193.969 24.9718L189.592 20.5952C187.499 18.5015 187.499 15.0953 189.592 13.0022C190.602 11.9915 191.951 11.4351 193.389 11.4351C194.827 11.4351 196.176 11.9912 197.186 13.0022L201.562 17.3779C201.717 17.5332 201.717 17.7852 201.562 17.9405L194.531 24.9718C194.457 25.0462 194.356 25.0883 194.25 25.0883ZM193.389 12.231C192.164 12.231 191.015 12.7051 190.155 13.5651C188.372 15.3482 188.372 18.2492 190.155 20.033L194.25 24.1283L200.718 17.6595L196.624 13.5651C195.763 12.7048 194.614 12.231 193.389 12.231Z" fill="#241726"/>
<path d="M14.1392 122.996C11.5468 122.996 9.42578 125.117 9.42578 127.709C9.42578 130.301 11.5468 132.422 14.1392 132.422H18.2753V122.996H14.1392Z" fill="#37582A"/>
<path d="M18.2744 132.422H24.1419C26.7343 132.422 28.8553 130.301 28.8553 127.709C28.8553 125.117 26.7343 122.995 24.1419 122.995H18.2744V132.422Z" fill="white"/>
<path d="M24.1424 132.799H18.2746C18.0661 132.799 17.8975 132.631 17.8975 132.422V122.995C17.8975 122.787 18.0661 122.618 18.2746 122.618H24.1424C26.9494 122.618 29.2329 124.901 29.2329 127.708C29.2332 130.516 26.9497 132.799 24.1424 132.799ZM18.6518 132.045H24.1424C26.5335 132.045 28.4786 130.1 28.4786 127.709C28.4786 125.318 26.5332 123.373 24.1424 123.373H18.6518V132.045Z" fill="#241726"/>
<path d="M0.216797 113.79C0.216797 115.274 1.43096 116.489 2.91501 116.489C4.39905 116.489 5.61321 115.274 5.61321 113.79V111.423H0.216797V113.79Z" fill="#E75634"/>
<path d="M5.61321 111.423V108.064C5.61321 106.58 4.39905 105.365 2.91501 105.365C1.43096 105.365 0.216797 106.58 0.216797 108.064V111.423H5.61321Z" fill="white"/>
<path d="M5.61249 111.639H0.21591C0.0965303 111.639 0 111.542 0 111.423V108.064C0 106.457 1.30721 105.15 2.91412 105.15C4.52102 105.15 5.82824 106.457 5.82824 108.064V111.423C5.8284 111.542 5.73187 111.639 5.61249 111.639ZM0.431819 111.207H5.39658V108.064C5.39658 106.695 4.28293 105.581 2.91428 105.581C1.54548 105.581 0.431985 106.695 0.431985 108.064L0.431819 111.207Z" fill="#241726"/>
<path d="M107.127 14.6108C105.337 16.4862 105.407 19.4849 107.282 21.2747C109.158 23.0645 112.157 22.9945 113.946 21.1191L116.802 18.127L109.982 11.6187L107.127 14.6108Z" fill="#E75634"/>
<path d="M116.801 18.1269L120.852 13.8822C122.642 12.0068 122.572 9.00813 120.697 7.21829C118.821 5.42845 115.823 5.49846 114.033 7.37387L109.982 11.6185L116.801 18.1269Z" fill="white"/>
<path d="M116.541 18.3997L109.721 11.8911C109.57 11.7472 109.565 11.5088 109.709 11.3579L113.76 7.11327C115.698 5.0824 118.926 5.00723 120.957 6.94524C122.988 8.88325 123.063 12.1118 121.125 14.1424L117.074 18.3873C116.93 18.5381 116.692 18.5437 116.541 18.3997ZM110.515 11.6058L116.789 17.5936L120.58 13.6218C122.23 11.8921 122.166 9.14179 120.436 7.49114C118.707 5.84029 115.956 5.9047 114.306 7.63427L110.515 11.6058Z" fill="#241726"/>
<path d="M198.148 119.954C197.826 119.816 197.522 119.685 198.126 115.928C195.487 114.14 195.381 113.695 195.345 113.546C195.311 113.403 195.362 113.19 195.454 113.076C195.584 112.915 195.887 112.541 199.74 112.626C202.238 110.058 202.636 110.229 202.901 110.342C203.038 110.401 203.184 110.581 203.219 110.725C203.309 111.098 203.184 111.915 202.969 113.216C202.901 113.626 202.819 114.122 202.798 114.344C202.937 114.495 203.26 114.796 203.528 115.045C204.956 116.374 205.303 116.767 205.209 117.202C205.174 117.363 205.003 117.55 204.847 117.603C204.372 117.763 202.478 117.669 201.491 117.606C198.744 120.173 198.441 120.062 198.174 119.963C198.165 119.961 198.155 119.957 198.148 119.954ZM196.602 113.644C197.104 114.056 198.055 114.749 198.901 115.314C199.054 115.417 199.133 115.599 199.103 115.781C198.93 116.834 198.771 118.052 198.729 118.76C199.292 118.325 200.216 117.513 200.996 116.779C201.092 116.69 201.22 116.644 201.35 116.653C202.254 116.714 203.288 116.754 203.94 116.749C203.624 116.42 203.176 116.003 202.887 115.733C202.072 114.974 201.922 114.822 201.87 114.604C201.824 114.413 201.862 114.141 202.04 113.062C202.107 112.654 202.212 112.025 202.269 111.55C201.748 111.971 200.942 112.734 200.274 113.428C200.182 113.523 200.055 113.575 199.923 113.572C198.728 113.542 197.348 113.565 196.602 113.644Z" fill="#241726"/>
<path d="M214.011 120.607C213.835 120.531 213.668 120.459 213.999 118.401C212.553 117.421 212.495 117.178 212.475 117.096C212.457 117.017 212.484 116.901 212.535 116.838C212.606 116.75 212.772 116.545 214.883 116.592C216.252 115.185 216.47 115.278 216.615 115.341C216.69 115.373 216.77 115.471 216.789 115.55C216.838 115.754 216.77 116.202 216.652 116.915C216.615 117.14 216.57 117.412 216.559 117.533C216.635 117.616 216.812 117.781 216.959 117.917C217.741 118.645 217.931 118.86 217.88 119.099C217.861 119.187 217.767 119.289 217.681 119.319C217.421 119.406 216.383 119.355 215.843 119.321C214.337 120.727 214.171 120.666 214.025 120.612C214.02 120.611 214.015 120.608 214.011 120.607ZM213.164 117.149C213.439 117.375 213.96 117.755 214.423 118.065C214.507 118.121 214.551 118.221 214.534 118.321C214.439 118.897 214.352 119.565 214.329 119.952C214.638 119.714 215.144 119.269 215.572 118.867C215.624 118.818 215.694 118.793 215.765 118.798C216.261 118.831 216.827 118.854 217.185 118.851C217.012 118.671 216.766 118.442 216.607 118.294C216.161 117.878 216.079 117.795 216.05 117.675C216.025 117.571 216.046 117.422 216.143 116.831C216.18 116.607 216.238 116.262 216.269 116.002C215.984 116.233 215.542 116.651 215.176 117.031C215.125 117.083 215.056 117.111 214.983 117.11C214.329 117.094 213.573 117.106 213.164 117.149Z" fill="#241726"/>
<path d="M214.426 77.1534C214.17 77.1919 213.93 77.0159 213.89 76.7599C213.851 76.5039 214.027 76.2626 214.283 76.2227C215.385 76.0509 216.067 75.8627 216.074 75.8608C216.327 75.7855 216.584 75.9373 216.654 76.187C216.724 76.4376 216.578 76.6967 216.328 76.7672C216.299 76.7752 215.591 76.9721 214.428 77.153C214.427 77.1532 214.426 77.1533 214.426 77.1534ZM212.553 77.3694C212.541 77.3711 212.53 77.3728 212.519 77.3737C211.875 77.4233 211.229 77.4471 210.597 77.4446C210.337 77.4439 210.127 77.2319 210.128 76.9724C210.128 76.712 210.341 76.5051 210.6 76.5033C211.206 76.5058 211.827 76.4832 212.446 76.4343C212.705 76.4149 212.931 76.6082 212.951 76.8677C212.971 77.1149 212.795 77.3329 212.553 77.3694ZM208.787 77.355C208.75 77.3604 208.712 77.3613 208.674 77.3579C208.023 77.3001 207.379 77.2117 206.764 77.0971C206.508 77.0493 206.34 76.8031 206.388 76.5478C206.436 76.2913 206.685 76.1267 206.937 76.1711C207.524 76.2816 208.136 76.365 208.758 76.4211C209.017 76.4435 209.208 76.6723 209.185 76.9312C209.165 77.152 208.996 77.3234 208.787 77.355ZM205.091 76.6551C205.024 76.6652 204.954 76.6609 204.885 76.6398C204.258 76.4507 203.646 76.2248 203.066 75.9699C202.828 75.8656 202.72 75.587 202.825 75.349C202.929 75.1103 203.208 75.0039 203.445 75.1079C203.991 75.3482 204.567 75.5606 205.157 75.7385C205.406 75.8145 205.547 76.0768 205.472 76.326C205.417 76.5052 205.265 76.6289 205.091 76.6551ZM201.657 75.1372C201.552 75.1531 201.441 75.1334 201.343 75.0737C200.789 74.737 200.254 74.3592 199.754 73.9512C199.553 73.7861 199.523 73.4896 199.688 73.2891C199.851 73.0879 200.148 73.058 200.35 73.2217C200.816 73.6024 201.315 73.9549 201.831 74.2693C202.053 74.4041 202.124 74.6936 201.989 74.9159C201.914 75.0399 201.79 75.1172 201.657 75.1372ZM198.753 72.7643C198.605 72.7867 198.447 72.7381 198.337 72.6188C197.904 72.1514 197.493 71.6445 197.115 71.1107C196.965 70.8989 197.016 70.6051 197.228 70.4549C197.438 70.3023 197.733 70.3547 197.884 70.5672C198.237 71.0661 198.622 71.5418 199.028 71.9793C199.205 72.1692 199.194 72.4675 199.003 72.6438C198.931 72.7104 198.843 72.7508 198.753 72.7643ZM196.581 69.7084C196.391 69.7371 196.194 69.6458 196.097 69.4672C195.799 68.9161 195.522 68.3296 195.273 67.7234C195.175 67.4828 195.289 67.2079 195.53 67.1094C195.769 67.0094 196.045 67.1246 196.144 67.3656C196.381 67.9417 196.643 68.498 196.925 69.019C197.049 69.2475 196.964 69.5338 196.735 69.6577C196.686 69.6831 196.633 69.7005 196.581 69.7084ZM195.147 66.2399C194.921 66.274 194.697 66.1386 194.627 65.9129C194.492 65.4732 194.368 65.0178 194.253 64.5448L194.14 64.0571C194.083 63.8037 194.242 63.5518 194.496 63.4947C194.754 63.4353 195.002 63.5981 195.058 63.8516L195.168 64.3232C195.278 64.7764 195.398 65.2135 195.528 65.6357C195.604 65.8845 195.465 66.1482 195.216 66.2238C195.193 66.2313 195.17 66.2365 195.147 66.2399ZM194.334 62.5673C194.332 62.5676 194.33 62.5679 194.328 62.5683C194.07 62.6036 193.833 62.4233 193.798 62.1657C193.708 61.5097 193.652 60.8639 193.631 60.2449C193.622 59.9851 193.824 59.7724 194.085 59.758C194.345 59.7495 194.563 59.9529 194.572 60.2127C194.592 60.7991 194.645 61.4132 194.73 62.0379C194.765 62.2933 194.588 62.529 194.334 62.5673ZM194.222 58.8142C194.185 58.8197 194.147 58.8206 194.108 58.8172C193.85 58.794 193.659 58.5651 193.683 58.3061C193.744 57.637 193.852 56.9883 194.005 56.3803C194.069 56.1279 194.325 55.975 194.577 56.0396C194.829 56.1028 194.982 56.3589 194.918 56.6112C194.777 57.172 194.676 57.7707 194.62 58.3918C194.6 58.6121 194.431 58.7827 194.222 58.8142ZM201.731 56.5737C201.509 56.6072 201.283 56.6289 201.054 56.6394C200.794 56.6514 200.574 56.4505 200.562 56.1911C200.55 55.9318 200.744 55.708 201.011 55.6994C201.607 55.6709 202.179 55.5522 202.692 55.3484C202.933 55.2458 203.206 55.3686 203.303 55.6103C203.4 55.8517 203.282 56.1257 203.041 56.2216C202.63 56.3861 202.189 56.5046 201.731 56.5737ZM199.233 56.4686C199.178 56.4768 199.12 56.4754 199.063 56.4635C198.439 56.328 197.807 56.1181 197.186 55.8397C196.949 55.733 196.843 55.4545 196.949 55.2172C197.055 54.98 197.334 54.874 197.571 54.9802C198.132 55.2322 198.701 55.4217 199.262 55.5427C199.516 55.5982 199.677 55.8482 199.622 56.1032C199.58 56.2988 199.42 56.4403 199.233 56.4686ZM204.508 55.2365C204.362 55.2583 204.21 55.2126 204.1 55.099C203.918 54.9134 203.922 54.6152 204.108 54.4338C204.505 54.0476 204.834 53.5787 205.087 53.0398C205.197 52.8046 205.477 52.7024 205.713 52.8136C205.948 52.924 206.05 53.2045 205.939 53.4398C205.639 54.0819 205.243 54.6436 204.765 55.1087C204.692 55.1802 204.601 55.2223 204.508 55.2365ZM195.15 55.1869C195.062 55.2001 194.97 55.189 194.884 55.149C194.648 55.0404 194.544 54.7616 194.652 54.5249C194.681 54.4626 194.711 54.4008 194.741 54.3385C194.47 54.1225 194.206 53.8946 193.951 53.6552C193.762 53.4764 193.752 53.1795 193.93 52.9896C194.108 52.8003 194.406 52.7905 194.596 52.9682C194.792 53.1534 194.994 53.3302 195.201 53.4993C195.345 53.2655 195.498 53.0409 195.66 52.8241C195.815 52.6149 196.111 52.5739 196.318 52.7284C196.527 52.8837 196.569 53.1787 196.414 53.387C196.251 53.6039 196.099 53.8315 195.957 54.0675C195.973 54.0792 195.989 54.0899 196.005 54.1002C196.22 54.2462 196.276 54.5392 196.129 54.7546C195.992 54.9575 195.725 55.0192 195.515 54.9027C195.513 54.9078 195.511 54.9126 195.509 54.9177C195.44 55.0679 195.302 55.164 195.15 55.1869ZM205.758 51.8835C205.545 51.9157 205.33 51.7973 205.249 51.5873C205.05 51.0688 204.55 50.7677 204.166 50.606C203.927 50.5054 203.814 50.2297 203.915 49.9893C204.015 49.7502 204.293 49.6374 204.531 49.7382C205.323 50.0715 205.875 50.5938 206.128 51.2481C206.221 51.4909 206.1 51.7636 205.858 51.8567C205.825 51.8695 205.792 51.8784 205.758 51.8835ZM197.393 52.2031C197.237 52.2266 197.073 52.1717 196.964 52.0418C196.796 51.8432 196.82 51.5464 197.018 51.378C197.521 50.9526 198.077 50.5819 198.669 50.2758C198.902 50.1596 199.184 50.2472 199.303 50.4786C199.422 50.7087 199.332 50.9931 199.101 51.1124C198.571 51.3854 198.076 51.7169 197.627 52.097C197.558 52.1551 197.476 52.1906 197.393 52.2031ZM193.07 52.3941C192.909 52.4183 192.74 52.3583 192.631 52.2222C192.233 51.7236 191.86 51.1865 191.523 50.6255C191.39 50.4029 191.462 50.1133 191.685 49.9803C191.907 49.8447 192.197 49.9179 192.331 50.1415C192.645 50.6659 192.994 51.1685 193.366 51.6356C193.529 51.8381 193.496 52.1349 193.292 52.2966C193.226 52.3504 193.149 52.3822 193.07 52.3941ZM202.581 50.2835C202.555 50.2874 202.529 50.2896 202.502 50.2888C201.942 50.2786 201.353 50.345 200.758 50.493C200.5 50.5542 200.25 50.4004 200.188 50.1486C200.126 49.8958 200.28 49.6408 200.532 49.5787C201.209 49.4128 201.877 49.3354 202.519 49.3473C202.779 49.352 202.986 49.567 202.981 49.8262C202.977 50.0591 202.804 50.2499 202.581 50.2835ZM191.131 49.1786C190.927 49.2094 190.719 49.1023 190.631 48.9035C190.479 48.5601 190.336 48.2039 190.204 47.8373L189.943 47.1133C189.854 46.869 189.981 46.5988 190.226 46.5111C190.472 46.4192 190.739 46.549 190.828 46.7941L191.089 47.5181C191.213 47.864 191.348 48.1986 191.492 48.5231C191.597 48.7601 191.49 49.0383 191.252 49.1442C191.213 49.1606 191.172 49.1724 191.131 49.1786ZM189.814 45.6442C189.598 45.6768 189.381 45.5544 189.303 45.341C189.099 44.7866 188.88 44.197 188.644 43.5796C188.552 43.3359 188.673 43.064 188.916 42.9717C189.156 42.8777 189.43 43.0003 189.523 43.2426C189.761 43.8649 189.981 44.4583 190.186 45.0159C190.276 45.26 190.15 45.5309 189.906 45.6207C189.876 45.6323 189.845 45.6396 189.814 45.6442ZM188.466 42.1193C188.255 42.1511 188.042 42.0355 187.96 41.8293C187.733 41.2658 187.494 40.687 187.242 40.095C187.14 39.8566 187.251 39.5796 187.49 39.4774C187.729 39.3765 188.006 39.4873 188.108 39.7265C188.363 40.3239 188.605 40.9097 188.833 41.4787C188.93 41.7195 188.813 41.9939 188.572 42.0907C188.537 42.1047 188.501 42.114 188.466 42.1193ZM186.985 38.6496C186.782 38.6801 186.575 38.5746 186.486 38.379C186.232 37.8197 185.965 37.2534 185.688 36.6843C185.575 36.4512 185.671 36.1689 185.905 36.0557C186.139 35.9367 186.42 36.0385 186.534 36.2724C186.815 36.8484 187.084 37.4213 187.343 37.9896C187.451 38.2262 187.346 38.5054 187.109 38.6124C187.069 38.6312 187.027 38.6433 186.985 38.6496ZM185.331 35.2606C185.138 35.2897 184.939 35.196 184.844 35.0142C184.556 34.4651 184.257 33.9181 183.947 33.3733C183.819 33.1481 183.898 32.8602 184.123 32.7311C184.348 32.6043 184.636 32.681 184.765 32.9078C185.081 33.461 185.385 34.0185 185.678 34.5756C185.799 34.8067 185.71 35.0904 185.479 35.2115C185.431 35.2371 185.381 35.253 185.331 35.2606ZM183.466 31.9876C183.285 32.0148 183.098 31.9353 182.996 31.771C182.667 31.2421 182.327 30.7206 181.977 30.2063C181.831 29.9922 181.886 29.6995 182.101 29.5528C182.317 29.4059 182.609 29.4614 182.755 29.6764C183.113 30.2008 183.46 30.734 183.795 31.2733C183.932 31.4944 183.864 31.7842 183.644 31.9218C183.587 31.957 183.527 31.9784 183.466 31.9876ZM181.335 28.8791C181.17 28.9039 180.998 28.8405 180.89 28.699C180.513 28.2045 180.124 27.7211 179.724 27.2533C179.555 27.0566 179.579 26.7591 179.776 26.5901C179.973 26.4202 180.27 26.4428 180.439 26.6417C180.851 27.1225 181.251 27.6192 181.639 28.1287C181.797 28.3354 181.756 28.6307 181.549 28.7884C181.484 28.8377 181.41 28.8677 181.335 28.8791ZM178.881 26.0225C178.737 26.0442 178.585 25.9992 178.474 25.8866C178.034 25.439 177.582 25.0132 177.132 24.6218C176.936 24.4515 176.915 24.1546 177.086 23.9575C177.255 23.7629 177.553 23.7411 177.749 23.9114C178.218 24.3188 178.688 24.7611 179.146 25.2276C179.328 25.4131 179.326 25.711 179.14 25.8932C179.066 25.9648 178.976 26.0083 178.881 26.0225ZM176.039 23.561C175.921 23.5787 175.797 23.5518 175.693 23.4772C175.186 23.112 174.669 22.778 174.156 22.4864C173.93 22.3588 173.851 22.0714 173.979 21.8443C174.108 21.6194 174.395 21.5389 174.621 21.6687C175.163 21.9766 175.71 22.3285 176.244 22.7137C176.455 22.866 176.503 23.1602 176.35 23.3707C176.274 23.4783 176.159 23.5428 176.039 23.561ZM155.117 25.1868C154.945 25.2128 154.764 25.1414 154.659 24.9873C154.512 24.7732 154.566 24.4806 154.781 24.3331C154.993 24.1885 155.302 24.2239 155.452 24.4335C155.6 24.6425 155.576 24.917 155.369 25.0691C155.364 25.0724 155.318 25.1065 155.314 25.1099C155.252 25.152 155.186 25.1765 155.117 25.1868ZM172.774 21.7082C172.691 21.7207 172.605 21.7114 172.521 21.6766C171.961 21.4403 171.384 21.239 170.806 21.0797C170.556 21.0097 170.408 20.751 170.478 20.4995C170.547 20.2494 170.807 20.1033 171.057 20.1717C171.674 20.343 172.29 20.557 172.887 20.8091C173.126 20.9098 173.239 21.1864 173.138 21.4259C173.072 21.5826 172.931 21.6846 172.774 21.7082ZM156.721 24.1056C156.542 24.1326 156.356 24.0546 156.253 23.8926C156.114 23.673 156.179 23.3824 156.399 23.2432C156.956 22.8898 157.505 22.5661 158.046 22.2698C158.274 22.1469 158.56 22.2296 158.685 22.457C158.809 22.6845 158.726 22.9715 158.498 23.0961C157.974 23.3823 157.442 23.696 156.902 24.0376C156.845 24.0741 156.783 24.0962 156.721 24.1056ZM160.024 22.3056C159.822 22.3361 159.616 22.2313 159.526 22.0358C159.418 21.7992 159.523 21.5193 159.76 21.4122C160.357 21.1398 160.957 20.8961 161.542 20.6888C161.784 20.6032 162.055 20.7306 162.142 20.9756C162.23 21.221 162.101 21.4897 161.856 21.5765C161.297 21.7743 160.723 22.0067 160.15 22.2678C160.109 22.2871 160.067 22.2991 160.024 22.3056ZM169.165 20.7162C169.122 20.7226 169.077 20.7229 169.032 20.7179C168.438 20.6374 167.83 20.5967 167.225 20.5971C166.965 20.5973 166.754 20.3873 166.754 20.1269C166.754 19.8676 166.963 19.6577 167.224 19.6564C167.871 19.6557 168.522 19.6988 169.159 19.7843C169.416 19.82 169.597 20.0566 169.562 20.3138C169.533 20.5258 169.367 20.6858 169.165 20.7162ZM163.57 21.0571C163.332 21.093 163.102 20.9419 163.043 20.7031C162.982 20.4512 163.136 20.1962 163.389 20.134C163.924 20.003 164.455 19.8997 164.985 19.8207C165.085 19.8056 165.188 19.792 165.29 19.7788C165.548 19.7465 165.784 19.9282 165.817 20.1866C165.849 20.4438 165.715 20.6787 165.409 20.7129C165.294 20.7268 165.178 20.7443 165.065 20.7614C164.586 20.8335 164.098 20.9302 163.612 21.049C163.598 21.0519 163.584 21.0549 163.57 21.0571Z" fill="#241726"/>
<path d="M146.776 16.6697C148.526 15.9709 149.385 13.9679 148.686 12.2184C147.988 10.469 145.984 9.60941 144.235 10.3083L141.444 11.4233L143.985 17.7845L146.776 16.6697Z" fill="#37582A"/>
<path d="M141.445 11.4235L137.485 13.0052C135.736 13.704 134.876 15.7071 135.575 17.4563C136.274 19.2056 138.277 20.0652 140.026 19.3664L143.986 17.7847L141.445 11.4235Z" fill="white"/>
<path d="M137.298 19.5814C136.387 19.1907 135.685 18.4721 135.32 17.5578C134.955 16.6437 134.969 15.6392 135.359 14.7287C135.75 13.8182 136.469 13.1154 137.383 12.7506L141.342 11.169C141.483 11.1129 141.642 11.1814 141.698 11.3219L144.24 17.6833C144.267 17.751 144.266 17.8262 144.237 17.8931C144.209 17.9599 144.155 18.0125 144.087 18.0395L140.128 19.6208C139.213 19.9862 138.208 19.9721 137.298 19.5814ZM141.291 11.7797L137.586 13.2596C136.808 13.5704 136.196 14.1692 135.863 14.9449C135.53 15.7206 135.518 16.5763 135.829 17.3545C136.14 18.1326 136.738 18.7448 137.514 19.0776C138.29 19.4105 139.146 19.4228 139.924 19.1117L143.629 17.6321L141.291 11.7797Z" fill="#241726"/>
<path d="M107.858 58.6162C110.494 55.0548 109.744 50.0306 106.183 47.3943C102.622 44.7579 97.5974 45.5078 94.961 49.0692C92.3247 52.6305 93.0746 57.6548 96.6359 60.2911C100.197 62.9275 105.222 62.1776 107.858 58.6162Z" fill="#E75634"/>
<path d="M103.784 61.3225C103.67 61.2734 103.574 61.1809 103.525 61.056L97.9676 47.1468C97.868 46.8975 97.9893 46.6148 98.2388 46.5149C98.488 46.4153 98.7708 46.5366 98.8707 46.786L104.428 60.6952C104.527 60.9445 104.406 61.2272 104.156 61.3272C104.032 61.3771 103.898 61.3715 103.784 61.3225Z" fill="white"/>
<path d="M119.517 47.043C120.923 45.1436 120.523 42.4639 118.624 41.0578C116.725 39.6517 114.045 40.0516 112.639 41.9511C111.233 43.8506 111.633 46.5303 113.532 47.9364C115.432 49.3425 118.111 48.9425 119.517 47.043Z" fill="#37582A"/>
<path d="M117.344 48.4864C117.283 48.4602 117.232 48.4109 117.206 48.3443L114.242 40.9258C114.189 40.7928 114.253 40.642 114.387 40.5887C114.519 40.5356 114.67 40.6003 114.724 40.7334L117.687 48.1519C117.741 48.2848 117.676 48.4356 117.543 48.4889C117.476 48.5155 117.405 48.5126 117.344 48.4864Z" fill="white"/>
<path d="M244.598 84.5215L228.438 84.7964C227.038 84.8185 225.883 83.7033 225.858 82.3023L225.825 80.3698L221.606 66.1504C221.467 65.7462 221.085 65.4772 220.657 65.4844L217.568 65.5335C217.272 65.5385 217.028 65.3026 217.023 65.0068C217.018 64.711 217.254 64.4669 217.549 64.4618L220.638 64.4093C221.537 64.3922 222.342 64.9615 222.626 65.8142C226.95 80.3905 226.851 80.052 226.851 80.0538C226.926 80.2271 226.88 80.1738 226.93 82.2805C226.945 83.089 227.611 83.7341 228.42 83.7204L244.579 83.4455C244.875 83.4405 245.119 83.6764 245.124 83.9722C245.129 84.268 244.893 84.5121 244.598 84.5171L244.598 84.5215Z" fill="black"/>
<path d="M242.67 80.7201L226.372 80.9974C226.076 81.0024 225.832 80.7665 225.827 80.4707C225.822 80.1749 226.058 79.9308 226.354 79.9258L242.652 79.6485C243.006 79.6416 243.301 79.3735 243.341 79.0211L244.402 69.4461C244.445 69.0591 244.166 68.7104 243.779 68.6674C243.692 68.6582 244.666 68.6487 222.866 69.0178C222.57 69.0229 222.326 68.7869 222.321 68.4911C222.316 68.1953 222.552 67.9512 222.847 67.9462L243.667 67.592C244.74 67.5738 245.583 68.5065 245.463 69.5645L244.403 79.1386C244.303 80.0253 243.562 80.7023 242.67 80.7201Z" fill="black"/>
<path d="M239.263 80.7117L239.233 80.7122C238.974 80.6997 238.775 80.4808 238.786 80.2219L239.352 68.1722C239.365 67.9133 239.584 67.7129 239.843 67.7244C240.102 67.7368 240.303 67.9567 240.291 68.2156L239.725 80.2653C239.714 80.5126 239.51 80.7083 239.263 80.7117Z" fill="black"/>
<path d="M234.767 80.7882C234.509 80.7926 234.294 80.5863 234.29 80.3268L234.085 68.2902C234.081 68.0316 234.287 67.8172 234.547 67.8128C234.805 67.8084 235.019 68.0147 235.024 68.2742L235.229 80.3117C235.233 80.5703 235.027 80.7838 234.767 80.7882Z" fill="black"/>
<path d="M230.271 80.8647C230.023 80.8698 229.814 80.6811 229.794 80.4342L228.819 68.4107C228.798 68.1524 228.991 67.925 229.25 67.9046C229.508 67.8834 229.736 68.0762 229.756 68.3354L230.731 80.359C230.752 80.6173 230.56 80.8429 230.301 80.8641L230.271 80.8647Z" fill="black"/>
<path d="M244.426 74.6025L224.642 74.9391C224.383 74.9435 224.169 74.7372 224.164 74.4777C224.16 74.2182 224.366 74.0047 224.626 74.0003L244.41 73.6638C244.668 73.6594 244.883 73.8657 244.887 74.1252C244.892 74.3847 244.685 74.5981 244.426 74.6025Z" fill="black"/>
<path d="M242.73 90.8386C241.344 90.8622 240.202 89.7574 240.179 88.3714C240.157 86.9854 241.261 85.8433 242.647 85.8206C244.032 85.797 245.174 86.9018 245.197 88.2869C245.219 89.6721 244.115 90.8142 242.73 90.8386ZM242.663 86.8922C241.87 86.9057 241.238 87.5605 241.251 88.354C241.265 89.1476 241.919 89.7796 242.713 89.7661C243.506 89.7526 244.138 89.0978 244.125 88.3043C244.111 87.5099 243.457 86.877 242.663 86.8896L242.663 86.8922Z" fill="black"/>
<path d="M229.108 91.0703C227.722 91.0939 226.58 89.99 226.556 88.604C226.533 87.218 227.637 86.0759 229.023 86.0523C230.409 86.0287 231.551 87.1326 231.574 88.5186C231.596 89.9038 230.493 91.0449 229.108 91.0703ZM229.041 87.1239C228.247 87.1374 227.614 87.7913 227.628 88.5857C227.641 89.3793 228.295 90.0122 229.09 89.9987C229.883 89.9852 230.516 89.3312 230.503 88.5368C230.489 87.7433 229.835 87.1095 229.041 87.1221L229.041 87.1239Z" fill="black"/>
</svg>
