<svg width="440" height="430" viewBox="0 0 440 430" fill="none" xmlns="http://www.w3.org/2000/svg">
<path d="M211.206 285.741C210.594 285.741 210.015 285.741 208.394 279.283C202.918 278.231 202.441 277.59 202.281 277.374C202.128 277.168 202.062 276.791 202.132 276.544C202.23 276.196 202.459 275.385 208.711 272.864C210.955 267.013 211.712 267.013 212.217 267.013C212.477 267.013 212.837 267.199 212.992 267.408C213.394 267.949 213.757 269.349 214.309 271.592C214.483 272.296 214.691 273.147 214.811 273.519C215.139 273.665 215.865 273.925 216.468 274.141C219.68 275.292 220.509 275.684 220.658 276.447C220.713 276.732 220.568 277.149 220.353 277.342C219.699 277.927 216.589 279.082 214.962 279.663C212.316 285.683 211.753 285.713 211.255 285.739C211.238 285.741 211.22 285.741 211.206 285.741ZM204.369 276.666C205.46 276.982 207.466 277.437 209.215 277.764C209.533 277.821 209.786 278.062 209.864 278.375C210.311 280.188 210.896 282.253 211.316 283.422C211.922 282.333 212.846 280.393 213.594 278.675C213.686 278.466 213.86 278.304 214.076 278.228C215.571 277.702 217.261 277.054 218.305 276.596C217.571 276.285 216.562 275.924 215.911 275.69C214.078 275.033 213.732 274.891 213.497 274.576C213.291 274.3 213.165 273.838 212.709 271.986C212.536 271.28 212.269 270.196 212.033 269.391C211.486 270.43 210.719 272.21 210.121 273.785C210.04 274.002 209.871 274.172 209.657 274.258C207.716 275.036 205.513 276.022 204.369 276.666Z" fill="#241726"/>
<path d="M24.6013 424.595C23.989 424.595 23.41 424.595 21.7898 418.139C16.3146 417.086 15.8372 416.445 15.6766 416.229C15.5235 416.023 15.4576 415.645 15.5273 415.399C15.6258 415.051 15.8546 414.24 22.1074 411.72C24.3512 405.867 25.1083 405.867 25.6122 405.867C25.8729 405.867 26.2314 406.054 26.3867 406.263C26.7876 406.802 27.1521 408.202 27.7038 410.445C27.8773 411.149 28.0865 412.002 28.207 412.373C28.5344 412.52 29.2604 412.78 29.8621 412.995C33.0744 414.147 33.9027 414.539 34.052 415.301C34.1073 415.586 33.9618 416.004 33.7466 416.197C33.0949 416.782 29.9841 417.937 28.3555 418.518C25.71 424.538 25.1469 424.568 24.6491 424.594C24.6347 424.595 24.6165 424.595 24.6013 424.595ZM17.7651 415.52C18.8563 415.837 20.863 416.294 22.6128 416.62C22.9303 416.68 23.1835 416.918 23.2608 417.231C23.7079 419.043 24.2929 421.108 24.712 422.276C25.3182 421.19 26.242 419.247 26.9907 417.53C27.0824 417.321 27.2567 417.159 27.4719 417.083C28.9671 416.557 30.6578 415.909 31.7013 415.451C30.967 415.14 29.9591 414.779 29.3073 414.545C27.4742 413.887 27.1294 413.746 26.8945 413.431C26.6891 413.156 26.5618 412.695 26.1048 410.839C25.932 410.135 25.6653 409.052 25.4296 408.248C24.8832 409.287 24.1148 411.066 23.5184 412.642C23.4366 412.859 23.2676 413.03 23.0539 413.117C21.1124 413.89 18.9086 414.879 17.7651 415.52Z" fill="#241726"/>
<path d="M194.817 421.545C194.815 421.545 194.793 421.545 194.793 421.545C193.272 421.538 191.845 420.94 190.775 419.86C189.704 418.781 189.117 417.348 189.124 415.827C189.138 412.701 191.692 410.159 194.817 410.159C196.362 410.165 197.788 410.764 198.859 411.844C199.93 412.923 200.516 414.356 200.509 415.875C200.496 419.002 197.941 421.545 194.817 421.545ZM194.834 411.806C192.595 411.806 190.78 413.614 190.77 415.834C190.766 416.916 191.182 417.934 191.943 418.701C192.705 419.469 193.718 419.894 194.799 419.899L194.816 420.722V419.899C197.037 419.899 198.853 418.092 198.862 415.87C198.867 414.789 198.45 413.771 197.689 413.005C196.928 412.235 195.915 411.811 194.834 411.806Z" fill="#241726"/>
<path d="M16.4641 279.994C16.4187 279.994 16.3709 279.991 16.3239 279.983C15.8753 279.905 15.5745 279.479 15.6518 279.031L19.6901 255.523C19.7667 255.076 20.1948 254.772 20.6404 254.85C21.0891 254.928 21.3899 255.354 21.3126 255.802L17.2742 279.31C17.206 279.711 16.8582 279.994 16.4641 279.994Z" fill="#241726"/>
<path d="M4.57907 270.496C4.21381 270.496 3.87961 270.252 3.78337 269.88C3.66818 269.441 3.9319 268.991 4.37143 268.877L31.1495 261.891C31.5875 261.77 32.0407 262.037 32.1544 262.479C32.2696 262.918 32.0058 263.368 31.5655 263.483L4.78747 270.469C4.71851 270.488 4.64804 270.496 4.57907 270.496Z" fill="#241726"/>
<path d="M26.603 276.608C26.3832 276.608 26.1642 276.521 26.0013 276.347L8.92622 258.108C8.61552 257.775 8.63295 257.254 8.96487 256.944C9.29755 256.637 9.81892 256.65 10.1289 256.982L27.2039 275.222C27.5146 275.555 27.4972 276.076 27.1653 276.386C27.0069 276.534 26.8045 276.608 26.603 276.608Z" fill="#241726"/>
<path d="M21.644 256.919C20.2421 257.672 18.4953 257.146 17.742 255.745C16.9888 254.343 17.5155 252.596 18.9167 251.843C20.3186 251.089 22.0654 251.616 22.8186 253.017C23.5719 254.419 23.046 256.166 21.644 256.919Z" fill="white"/>
<path d="M20.2829 258.086C18.915 258.086 17.6639 257.338 17.0167 256.136C16.5484 255.263 16.4476 254.261 16.7325 253.312C17.0182 252.365 17.6555 251.585 18.5278 251.117C20.2745 250.177 22.6094 250.891 23.5437 252.629C24.0113 253.498 24.1121 254.5 23.8264 255.449C23.5407 256.396 22.9042 257.176 22.0319 257.644C21.4954 257.933 20.8899 258.086 20.2829 258.086ZM20.2776 252.323C19.9366 252.323 19.6092 252.405 19.3061 252.567C18.8218 252.828 18.4672 253.261 18.3088 253.787C18.1504 254.313 18.2057 254.869 18.4664 255.355C18.9878 256.324 20.2738 256.724 21.2529 256.193C21.7379 255.932 22.0918 255.499 22.2502 254.972C22.4093 254.447 22.3532 253.89 22.0933 253.406C21.7341 252.738 21.0384 252.323 20.2776 252.323Z" fill="#241726"/>
<path d="M18.2819 282.555C16.8799 283.309 15.1332 282.782 14.3799 281.381C13.6266 279.979 14.1525 278.232 15.5545 277.479C16.9565 276.725 18.7032 277.251 19.4565 278.653C20.2097 280.055 19.6838 281.802 18.2819 282.555Z" fill="white"/>
<path d="M16.9207 283.721C15.5521 283.721 14.3017 282.973 13.6553 281.769C12.6891 279.971 13.3658 277.72 15.1648 276.752C16.9161 275.812 19.2479 276.524 20.1816 278.264C21.1478 280.061 20.471 282.313 18.672 283.281C18.1332 283.57 17.5285 283.721 16.9207 283.721ZM16.9154 277.958C16.5736 277.958 16.247 278.04 15.9431 278.203C14.9436 278.741 14.5677 279.991 15.105 280.991C15.6263 281.96 16.9124 282.355 17.8922 281.831C18.8918 281.294 19.2676 280.043 18.7311 279.043C18.3719 278.373 17.6762 277.958 16.9154 277.958Z" fill="#241726"/>
<path d="M6.71418 271.613C5.58883 272.739 3.76478 272.739 2.63942 271.613C1.51407 270.488 1.51407 268.664 2.63942 267.538C3.76478 266.413 5.58883 266.413 6.71418 267.538C7.83954 268.664 7.83954 270.488 6.71418 271.613Z" fill="white"/>
<path d="M4.67661 273.281C3.6869 273.281 2.75555 272.895 2.05685 272.196C0.613213 270.75 0.613213 268.402 2.05685 266.956C3.45653 265.557 5.89517 265.557 7.29636 266.956C7.99658 267.655 8.38155 268.586 8.38155 269.575C8.38155 270.565 7.99658 271.496 7.29636 272.195C6.5969 272.895 5.66555 273.281 4.67661 273.281ZM4.67661 267.518C4.12568 267.518 3.60885 267.732 3.22085 268.12C2.41832 268.922 2.41832 270.229 3.22085 271.031C3.99836 271.809 5.35409 271.809 6.13236 271.031C6.52188 270.642 6.73558 270.126 6.73558 269.575C6.73558 269.025 6.52188 268.508 6.13236 268.12C5.74361 267.732 5.22678 267.518 4.67661 267.518Z" fill="#241726"/>
<path d="M33.2977 263.852C32.1723 264.977 30.3483 264.977 29.2229 263.852C28.0976 262.726 28.0976 260.902 29.2229 259.777C30.3483 258.652 32.1723 258.652 33.2977 259.777C34.423 260.902 34.423 262.726 33.2977 263.852Z" fill="white"/>
<path d="M31.2608 265.518C30.2711 265.518 29.3413 265.134 28.6418 264.434C27.9416 263.735 27.5566 262.804 27.5566 261.815C27.5566 260.825 27.9416 259.894 28.6418 259.195C30.0408 257.796 32.4817 257.796 33.8806 259.195C34.5808 259.894 34.9658 260.826 34.9658 261.815C34.9658 262.804 34.5808 263.735 33.8806 264.434C33.1804 265.134 32.2505 265.518 31.2608 265.518ZM31.2608 259.755C30.7107 259.755 30.1946 259.969 29.8058 260.358C29.4163 260.748 29.2026 261.264 29.2026 261.815C29.2026 262.365 29.4163 262.881 29.8058 263.27C30.5826 264.045 31.9398 264.045 32.7158 263.27C33.1053 262.88 33.3191 262.364 33.3191 261.815C33.3191 261.263 33.1053 260.747 32.7158 260.358C32.3271 259.969 31.811 259.755 31.2608 259.755Z" fill="#241726"/>
<path d="M10.4012 258.612C9.27584 259.738 7.45179 259.738 6.32644 258.612C5.20108 257.487 5.20108 255.663 6.32644 254.537C7.45179 253.412 9.27584 253.412 10.4012 254.537C11.5265 255.663 11.5265 257.487 10.4012 258.612Z" fill="white"/>
<path d="M8.36402 260.279C7.37432 260.279 6.44373 259.894 5.74427 259.194C4.30139 257.751 4.30139 255.4 5.74427 253.955C7.14319 252.558 9.58486 252.555 10.9838 253.955C12.4267 255.399 12.4267 257.75 10.9838 259.194C10.2836 259.894 9.35297 260.279 8.36402 260.279ZM8.36402 254.517C7.81385 254.517 7.29702 254.731 6.90827 255.12C6.1065 255.923 6.1065 257.228 6.90827 258.03C7.68578 258.808 9.03999 258.808 9.81903 258.03C10.6208 257.228 10.6208 255.922 9.81903 255.12C9.42951 254.731 8.91268 254.517 8.36402 254.517Z" fill="#241726"/>
<path d="M29.7078 277.92C28.5825 279.045 26.7584 279.045 25.6331 277.92C24.5077 276.794 24.5077 274.97 25.6331 273.845C26.7584 272.72 28.5825 272.72 29.7078 273.845C30.8332 274.97 30.8332 276.794 29.7078 277.92Z" fill="white"/>
<path d="M27.671 279.587C26.6813 279.587 25.7514 279.201 25.052 278.502C24.3518 277.802 23.9668 276.872 23.9668 275.883C23.9668 274.892 24.3525 273.962 25.052 273.264C26.4509 271.866 28.8911 271.863 30.2907 273.264C30.9902 273.963 31.3759 274.892 31.3759 275.883C31.3759 276.872 30.991 277.802 30.2907 278.502C29.5905 279.201 28.6599 279.587 27.671 279.587ZM27.671 273.825C27.1208 273.825 26.6047 274.038 26.216 274.428C25.8265 274.817 25.6128 275.333 25.6128 275.883C25.6128 276.433 25.8265 276.949 26.216 277.338C26.9943 278.116 28.3477 278.116 29.126 277.338C29.5155 276.949 29.7292 276.432 29.7292 275.883C29.7292 275.333 29.5155 274.817 29.126 274.428C28.7372 274.038 28.2204 273.825 27.671 273.825Z" fill="#241726"/>
<path d="M50.9587 176.321C50.9352 176.321 50.9106 176.319 50.8864 176.315C50.6552 176.275 50.5001 176.056 50.5399 175.825L52.6215 163.707C52.661 163.477 52.8817 163.32 53.1113 163.361C53.3426 163.401 53.4977 163.62 53.4578 163.852L51.3762 175.969C51.3411 176.175 51.1618 176.321 50.9587 176.321Z" fill="#241726"/>
<path d="M44.8323 171.425C44.644 171.425 44.4717 171.3 44.4221 171.108C44.3628 170.882 44.4987 170.65 44.7252 170.591L58.5279 166.99C58.7537 166.928 58.9873 167.065 59.0459 167.293C59.1053 167.519 58.9693 167.751 58.7424 167.81L44.9397 171.411C44.9041 171.421 44.8678 171.425 44.8323 171.425Z" fill="#241726"/>
<path d="M56.1844 174.576C56.0711 174.576 55.9583 174.531 55.8743 174.441L47.073 165.04C46.9128 164.868 46.9218 164.6 47.0929 164.44C47.2644 164.282 47.5331 164.288 47.6929 164.46L56.4942 173.861C56.6543 174.033 56.6453 174.302 56.4743 174.461C56.3926 174.538 56.2883 174.576 56.1844 174.576Z" fill="#241726"/>
<path d="M53.6288 164.427C52.9062 164.816 52.0058 164.544 51.6175 163.822C51.2293 163.099 51.5007 162.199 52.223 161.811C52.9456 161.422 53.846 161.694 54.2343 162.416C54.6225 163.139 54.3514 164.039 53.6288 164.427Z" fill="white"/>
<path d="M52.927 165.029C52.2219 165.029 51.577 164.643 51.2435 164.023C51.0021 163.573 50.9501 163.057 51.097 162.568C51.2442 162.08 51.5728 161.678 52.0223 161.437C52.9227 160.952 54.1262 161.32 54.6078 162.216C54.8488 162.664 54.9008 163.18 54.7535 163.669C54.6062 164.158 54.2781 164.56 53.8285 164.801C53.552 164.95 53.2399 165.029 52.927 165.029ZM52.9243 162.058C52.7485 162.058 52.5798 162.1 52.4235 162.184C52.1739 162.318 51.9911 162.541 51.9095 162.813C51.8278 163.084 51.8563 163.371 51.9907 163.621C52.2594 164.121 52.9223 164.326 53.427 164.053C53.677 163.918 53.8594 163.695 53.941 163.424C54.0231 163.153 53.9942 162.866 53.8602 162.616C53.675 162.272 53.3164 162.058 52.9243 162.058Z" fill="#241726"/>
<path d="M51.8955 177.641C51.1729 178.03 50.2725 177.758 49.8842 177.036C49.496 176.313 49.767 175.413 50.4897 175.025C51.2123 174.636 52.1127 174.907 52.5009 175.63C52.8892 176.353 52.6181 177.253 51.8955 177.641Z" fill="white"/>
<path d="M51.1939 178.242C50.4884 178.242 49.8439 177.857 49.5107 177.236C49.0127 176.309 49.3615 175.149 50.2888 174.65C51.1915 174.165 52.3934 174.532 52.8747 175.429C53.3727 176.356 53.0239 177.516 52.0966 178.015C51.8188 178.164 51.5071 178.242 51.1939 178.242ZM51.1911 175.272C51.015 175.272 50.8466 175.314 50.69 175.398C50.1748 175.675 49.981 176.319 50.258 176.835C50.5267 177.335 51.1896 177.538 51.6946 177.268C52.2098 176.991 52.4036 176.346 52.127 175.831C51.9419 175.486 51.5833 175.272 51.1911 175.272Z" fill="#241726"/>
<path d="M45.9328 172.001C45.3528 172.581 44.4126 172.581 43.8325 172.001C43.2524 171.421 43.2524 170.481 43.8325 169.901C44.4126 169.321 45.3528 169.321 45.9328 169.901C46.5129 170.481 46.5129 171.421 45.9328 172.001Z" fill="white"/>
<path d="M44.8826 172.861C44.3724 172.861 43.8924 172.662 43.5322 172.302C42.7881 171.556 42.7881 170.346 43.5322 169.6C44.2537 168.879 45.5107 168.879 46.2329 169.6C46.5938 169.961 46.7923 170.441 46.7923 170.95C46.7923 171.461 46.5938 171.941 46.2329 172.301C45.8724 172.662 45.3923 172.861 44.8826 172.861ZM44.8826 169.89C44.5986 169.89 44.3322 170 44.1322 170.2C43.7185 170.614 43.7185 171.288 44.1322 171.701C44.533 172.102 45.2318 172.102 45.6329 171.701C45.8337 171.501 45.9439 171.234 45.9439 170.95C45.9439 170.667 45.8337 170.401 45.6329 170.2C45.4325 170 45.1661 169.89 44.8826 169.89Z" fill="#241726"/>
<path d="M59.635 168.001C59.0549 168.581 58.1147 168.581 57.5347 168.001C56.9546 167.421 56.9546 166.48 57.5347 165.9C58.1147 165.32 59.0549 165.32 59.635 165.9C60.215 166.48 60.215 167.421 59.635 168.001Z" fill="white"/>
<path d="M58.5851 168.86C58.075 168.86 57.5957 168.661 57.2351 168.301C56.8742 167.94 56.6758 167.46 56.6758 166.951C56.6758 166.44 56.8742 165.96 57.2351 165.6C57.9562 164.879 59.2144 164.879 59.9354 165.6C60.2964 165.961 60.4948 166.441 60.4948 166.951C60.4948 167.461 60.2964 167.94 59.9354 168.301C59.5745 168.661 59.0952 168.86 58.5851 168.86ZM58.5851 165.889C58.3015 165.889 58.0355 165.999 57.8351 166.2C57.6343 166.401 57.5242 166.667 57.5242 166.951C57.5242 167.234 57.6343 167.5 57.8351 167.701C58.2355 168.1 58.9351 168.1 59.3351 167.701C59.5358 167.5 59.646 167.234 59.646 166.951C59.646 166.666 59.5358 166.4 59.3351 166.2C59.1347 165.999 58.8687 165.889 58.5851 165.889Z" fill="#241726"/>
<path d="M47.8332 165.3C47.2532 165.88 46.313 165.88 45.7329 165.3C45.1528 164.72 45.1528 163.78 45.7329 163.2C46.313 162.62 47.2532 162.62 47.8332 163.2C48.4133 163.78 48.4133 164.72 47.8332 165.3Z" fill="white"/>
<path d="M46.7831 166.159C46.273 166.159 45.7933 165.96 45.4328 165.6C44.6891 164.856 44.6891 163.644 45.4328 162.9C46.1539 162.179 47.4124 162.178 48.1335 162.9C48.8772 163.644 48.8772 164.855 48.1335 165.6C47.7726 165.96 47.2929 166.159 46.7831 166.159ZM46.7831 163.189C46.4996 163.189 46.2332 163.299 46.0328 163.5C45.6195 163.914 45.6195 164.587 46.0328 165C46.4335 165.401 47.1316 165.401 47.5331 165C47.9464 164.586 47.9464 163.913 47.5331 163.5C47.3323 163.299 47.0659 163.189 46.7831 163.189Z" fill="#241726"/>
<path d="M57.7849 175.252C57.2048 175.832 56.2646 175.832 55.6846 175.252C55.1045 174.672 55.1045 173.732 55.6846 173.152C56.2646 172.572 57.2048 172.572 57.7849 173.152C58.3649 173.731 58.3649 174.672 57.7849 175.252Z" fill="white"/>
<path d="M56.735 176.111C56.2249 176.111 55.7456 175.912 55.385 175.552C55.0241 175.191 54.8257 174.712 54.8257 174.202C54.8257 173.691 55.0245 173.212 55.385 172.852C56.1061 172.132 57.3639 172.13 58.0853 172.852C58.4459 173.212 58.6447 173.691 58.6447 174.202C58.6447 174.712 58.4463 175.191 58.0853 175.552C57.7244 175.912 57.2447 176.111 56.735 176.111ZM56.735 173.141C56.4514 173.141 56.1854 173.251 55.985 173.452C55.7842 173.652 55.6741 173.919 55.6741 174.202C55.6741 174.485 55.7842 174.752 55.985 174.952C56.3862 175.353 57.0838 175.353 57.485 174.952C57.6857 174.752 57.7959 174.485 57.7959 174.202C57.7959 173.918 57.6857 173.652 57.485 173.452C57.2846 173.251 57.0182 173.141 56.735 173.141Z" fill="#241726"/>
<path d="M120.105 395.563C120.105 395.563 82.305 372.673 81.8503 364.585C81.3949 356.497 79.2336 318.079 86.2009 321.743C93.1682 325.408 110.815 338.614 118.798 348.307C126.781 358 120.105 395.563 120.105 395.563Z" fill="#FF8C71"/>
<path d="M135.838 350.729C135.838 350.729 159.008 389.994 157.175 393.477C155.343 396.961 117.54 422.077 113.715 414.178C109.889 406.28 92.4067 359.933 91.6186 357.949C90.8312 355.966 128.605 342.347 135.838 350.729Z" fill="#FF8C71"/>
<path d="M42.8644 264.643C42.8644 264.643 105.376 221.733 110.585 226.388C115.794 231.042 182.023 323.658 184.13 331.784C186.237 339.911 120.027 375.739 120.027 375.739C120.027 375.739 39.8544 269.76 42.8644 264.643Z" fill="#FDFFFF"/>
<path d="M120.029 376.562C119.778 376.562 119.532 376.448 119.371 376.236C119.171 375.97 99.0972 349.423 79.651 322.592C40.0007 267.888 41.4557 265.414 42.1552 264.225C42.2166 264.122 42.2999 264.031 42.3984 263.964C44.7045 262.382 98.9722 225.21 109.342 225.21C110.113 225.21 110.716 225.4 111.134 225.773C113.985 228.322 132.724 253.978 149.194 277.308C157.226 288.688 183.541 326.23 184.926 331.578C187.085 339.906 131.57 370.429 120.419 376.462C120.296 376.53 120.161 376.562 120.029 376.562ZM43.5639 265.163C43.3154 270.743 88.9994 333.339 120.258 374.678C145.659 360.895 184.739 337.414 183.333 331.991C181.223 323.849 114.719 231.186 110.038 227.002C109.96 226.933 109.736 226.858 109.343 226.858C101.481 226.858 63.02 251.819 43.5639 265.163Z" fill="#241726"/>
<path d="M62.6322 272.326C62.6322 272.326 109.397 240.225 113.293 243.707C117.191 247.189 166.737 316.474 168.312 322.554C169.888 328.633 120.357 355.436 120.357 355.436C120.357 355.436 60.3807 276.153 62.6322 272.326Z" fill="#CFE298"/>
<path d="M72.2979 254.912C72.2979 254.912 83.9371 245.467 94.5692 242.164L72.2979 254.912Z" fill="#FDFFFF"/>
<path d="M72.2987 255.736C72.0593 255.736 71.8213 255.631 71.6591 255.432C71.3727 255.078 71.4265 254.56 71.7796 254.272C72.2593 253.884 83.6637 244.691 94.3253 241.378C94.7641 241.239 95.2218 241.487 95.3559 241.92C95.4908 242.354 95.2483 242.816 94.8141 242.951C84.4594 246.167 72.933 255.457 72.8171 255.552C72.664 255.676 72.4806 255.736 72.2987 255.736Z" fill="#241726"/>
<path d="M129.418 380.841C129.418 380.841 139.3 380.318 126.781 358C123.94 352.936 110.188 351.497 110.188 351.497C110.188 351.497 109.377 327.495 104.104 327.498C98.0735 327.501 95.8902 361.767 97.5415 367.083C99.1935 372.399 128.298 384.961 129.418 380.841Z" fill="#FF8C71"/>
<path d="M132.807 375.872C132.799 375.872 132.792 375.872 132.784 375.872C132.33 375.86 131.971 375.481 131.982 375.027C132.004 374.236 132.226 355.587 110.066 352.31C109.617 352.244 109.306 351.826 109.372 351.375C109.438 350.925 109.853 350.607 110.307 350.682C133.938 354.176 133.634 374.864 133.628 375.071C133.616 375.519 133.251 375.872 132.807 375.872Z" fill="#241726"/>
<path d="M100.418 341.028C100.017 341.028 99.5929 340.978 99.1496 340.876C98.7063 340.776 98.4281 340.336 98.5282 339.892C98.629 339.448 99.0677 339.166 99.5133 339.272C100.557 339.504 101.365 339.36 101.982 338.82C103.622 337.391 103.677 333.531 103.56 332.165C103.521 331.712 103.856 331.312 104.31 331.274C104.766 331.233 105.161 331.57 105.201 332.024C105.22 332.259 105.665 337.796 103.065 340.062C102.326 340.704 101.44 341.028 100.418 341.028Z" fill="#241726"/>
<path d="M96.015 364.995C95.7718 364.995 95.53 364.887 95.3671 364.681C93.1664 361.885 96.0302 347.987 96.6274 345.229C96.7244 344.785 97.1662 344.505 97.6057 344.598C98.0505 344.693 98.3324 345.132 98.2369 345.576C96.8221 352.12 95.3982 362.057 96.6622 363.662C96.9426 364.019 96.882 364.536 96.5243 364.818C96.3727 364.937 96.1931 364.995 96.015 364.995Z" fill="#241726"/>
<path d="M207.346 303.287C207.346 303.287 194.782 281.157 186.207 278.241C177.632 275.325 174.928 280.465 174.928 280.465C174.928 280.465 170.276 276.567 166.537 279.123C162.798 281.678 158.572 285.426 158.572 285.426C158.572 285.426 139.24 269.307 135.826 273.546C128.272 282.925 166.007 303.889 166.971 311.256C167.951 318.739 141.611 308.283 141.004 313.817C140.398 319.35 146.2 319.631 156.478 325.039C166.756 330.448 171.668 333.49 177.871 334.005C184.074 334.519 198.825 370.544 203.415 369.234C208.006 367.925 239.134 351.406 240.775 348.456C242.416 345.506 207.346 303.287 207.346 303.287Z" fill="#FF8C71"/>
<path d="M175.055 299.691C174.728 299.691 174.419 299.495 174.29 299.172C172.05 293.533 160.239 286.001 160.12 285.928C159.736 285.684 159.622 285.175 159.866 284.791C160.108 284.407 160.617 284.294 161.002 284.536C161.506 284.855 173.387 292.433 175.821 298.565C175.988 298.988 175.782 299.467 175.359 299.634C175.259 299.672 175.156 299.691 175.055 299.691Z" fill="#241726"/>
<path d="M186.619 288.898C186.35 288.898 186.085 288.766 185.928 288.523C183.153 284.243 174.743 281.273 174.659 281.243C174.229 281.094 174.003 280.624 174.153 280.195C174.302 279.765 174.775 279.539 175.201 279.69C175.568 279.817 184.23 282.881 187.309 287.627C187.557 288.009 187.448 288.519 187.067 288.766C186.927 288.854 186.772 288.898 186.619 288.898Z" fill="#241726"/>
<path d="M152.586 321.353C151.426 321.353 149.977 321.276 148.161 321.101C147.709 321.056 147.377 320.654 147.421 320.202C147.465 319.749 147.855 319.431 148.32 319.461C154.7 320.083 155.566 319.359 155.643 319.275C155.47 318.654 152.224 316.565 148.657 314.941C148.243 314.753 148.06 314.265 148.248 313.851C148.436 313.436 148.923 313.256 149.339 313.442C153.225 315.21 157.744 317.744 157.2 319.769C156.973 320.614 156.174 321.353 152.586 321.353Z" fill="#241726"/>
<path d="M146.256 281.745C143.099 281.745 139.239 277.058 138.784 276.492C138.501 276.137 138.557 275.619 138.911 275.334C139.265 275.048 139.784 275.106 140.069 275.459C141.655 277.433 144.805 280.41 146.518 280.072C147.105 279.95 147.551 279.341 147.844 278.265C147.963 277.826 148.418 277.574 148.855 277.686C149.293 277.805 149.553 278.258 149.433 278.695C148.965 280.419 148.097 281.424 146.854 281.682C146.658 281.726 146.458 281.745 146.256 281.745Z" fill="#241726"/>
<path d="M321.217 352.444C321.217 352.444 324.476 252.895 308.978 244.69C293.48 236.485 256.102 253.806 246.986 267.481C237.869 281.156 231.488 312.152 231.488 312.152C231.488 312.152 250.632 307.594 250.632 311.24C250.632 314.887 251.544 337.678 254.279 338.59C257.014 339.501 276.159 330.385 276.159 334.031C276.159 337.678 278.894 354.999 276.159 357.734C273.424 360.469 246.004 365.573 239.19 372.6C224.191 388.067 226.535 417.597 226.535 417.597C226.535 417.597 376.504 417.961 376.995 411.035C380.006 368.493 358.246 362.756 358.246 362.756L321.217 352.444Z" fill="#FF8C71"/>
<path d="M260.308 326.836C256.218 326.836 253.19 319.384 252.853 318.52C252.688 318.097 252.897 317.619 253.319 317.453C253.742 317.284 254.22 317.498 254.386 317.921C255.142 319.852 257.884 325.293 260.408 325.185C261.51 325.121 263.674 323.801 265.789 315.697C265.904 315.255 266.36 314.986 266.793 315.108C267.234 315.222 267.497 315.673 267.383 316.111C265.544 323.161 263.294 326.665 260.504 326.828C260.438 326.834 260.373 326.836 260.308 326.836Z" fill="#241726"/>
<path d="M318.553 238.962C318.553 238.962 259.823 233.453 260.312 214.17C260.312 214.17 242.693 230.698 259.333 244.931C259.333 244.931 247.587 244.931 245.14 226.567C245.14 226.567 234.373 229.781 238.288 249.981C242.203 270.181 281.846 278.904 307.295 259.622C307.295 259.622 308.764 287.168 321.978 297.728C321.978 297.728 349.386 259.163 318.553 238.962Z" fill="#241726"/>
<path d="M314.044 297.428C314.044 297.428 326.091 276.346 335.126 291.404C344.162 306.463 330.608 325.288 317.808 313.24L314.044 297.428Z" fill="#FF8C71"/>
<path d="M124.413 429.778C123.97 429.778 123.604 429.424 123.591 428.978C123.578 428.524 123.936 428.144 124.391 428.131C125.438 428.101 126.519 428.038 127.63 427.942C128.09 427.903 128.483 428.237 128.521 428.691C128.561 429.143 128.226 429.544 127.773 429.582C126.627 429.682 125.516 429.748 124.437 429.778C124.429 429.778 124.422 429.778 124.413 429.778ZM121.123 429.768C121.112 429.768 121.102 429.768 121.092 429.768C119.957 429.726 118.834 429.645 117.751 429.526C117.299 429.476 116.972 429.069 117.022 428.617C117.072 428.165 117.469 427.834 117.931 427.889C118.974 428.003 120.058 428.082 121.153 428.122C121.607 428.14 121.962 428.521 121.945 428.976C121.928 429.419 121.563 429.768 121.123 429.768ZM130.972 429.209C130.567 429.209 130.216 428.911 130.158 428.499C130.094 428.049 130.408 427.633 130.858 427.57C131.891 427.426 132.949 427.252 134.032 427.05C134.466 426.966 134.912 427.245 135.007 427.68C135.102 428.115 134.853 428.543 134.421 428.652C133.228 428.877 132.144 429.053 131.087 429.202C131.049 429.205 131.01 429.209 130.972 429.209ZM114.588 429.033C114.536 429.033 114.483 429.028 114.429 429.017C113.319 428.8 112.218 428.531 111.158 428.216C110.722 428.086 110.473 427.627 110.603 427.192C110.733 426.757 111.186 426.513 111.627 426.637C112.636 426.938 113.686 427.195 114.746 427.402C115.192 427.489 115.483 427.921 115.395 428.367C115.318 428.762 114.974 429.033 114.588 429.033ZM137.428 427.959C137.062 427.959 136.729 427.713 136.632 427.343C136.518 426.903 136.782 426.452 137.223 426.338C138.266 426.068 139.307 425.758 140.315 425.418C140.747 425.277 141.213 425.505 141.358 425.934C141.503 426.366 141.272 426.833 140.841 426.978C139.796 427.33 138.717 427.652 137.636 427.933C137.566 427.951 137.496 427.959 137.428 427.959ZM108.292 427.151C108.185 427.151 108.077 427.13 107.973 427.086C106.912 426.641 105.889 426.14 104.931 425.597C104.536 425.374 104.396 424.872 104.621 424.476C104.846 424.079 105.346 423.939 105.743 424.166C106.643 424.676 107.608 425.148 108.61 425.568C109.03 425.743 109.227 426.226 109.05 426.646C108.919 426.96 108.614 427.151 108.292 427.151ZM143.65 425.855C143.329 425.855 143.024 425.665 142.891 425.352C142.715 424.932 142.911 424.45 143.33 424.272C144.321 423.854 145.305 423.398 146.254 422.911C146.659 422.704 147.154 422.864 147.362 423.269C147.57 423.673 147.41 424.169 147.005 424.377C146.019 424.882 144.999 425.356 143.97 425.79C143.866 425.834 143.756 425.855 143.65 425.855ZM102.59 423.897C102.416 423.897 102.242 423.843 102.092 423.73C101.176 423.032 100.315 422.272 99.5343 421.469C99.2175 421.143 99.2259 420.622 99.5517 420.305C99.8776 419.989 100.398 419.997 100.716 420.321C101.439 421.065 102.237 421.772 103.088 422.418C103.45 422.693 103.52 423.211 103.245 423.572C103.085 423.785 102.838 423.897 102.59 423.897ZM149.502 422.867C149.223 422.867 148.951 422.725 148.797 422.47C148.562 422.081 148.687 421.574 149.076 421.339C150.01 420.774 150.912 420.185 151.786 419.573C152.159 419.316 152.674 419.404 152.933 419.778C153.193 420.151 153.102 420.664 152.728 420.924C151.824 421.555 150.892 422.164 149.927 422.748C149.795 422.828 149.647 422.867 149.502 422.867ZM90.2337 421.171C89.2402 421.171 88.1838 421.099 87.0956 420.955C86.6447 420.896 86.3279 420.481 86.387 420.031C86.4461 419.579 86.8485 419.257 87.3108 419.322C88.3391 419.458 89.366 419.572 90.2663 419.524L90.4678 419.522C90.4739 419.522 90.4807 419.522 90.486 419.522C90.9324 419.522 91.2991 419.879 91.309 420.328C91.3189 420.781 90.9581 421.159 90.5042 421.169L90.267 421.171C90.2572 421.171 90.2458 421.171 90.2337 421.171ZM93.7552 420.84C93.3718 420.84 93.0285 420.57 92.9489 420.179C92.8587 419.733 93.1475 419.299 93.593 419.209C94.6441 418.997 95.6285 418.674 96.522 418.251C96.6539 418.188 96.7971 418.158 96.9327 418.172C96.447 417.398 96.0287 416.604 95.6869 415.807C95.5073 415.389 95.7013 414.905 96.1188 414.725C96.5356 414.544 97.0206 414.739 97.2002 415.157C97.5973 416.082 98.1081 417.002 98.7174 417.891C98.9743 418.265 98.8795 418.778 98.5044 419.036C98.2566 419.208 97.9482 419.224 97.6913 419.103C97.6549 419.37 97.4897 419.613 97.2283 419.737C96.2151 420.22 95.1019 420.584 93.9197 420.824C93.8636 420.834 93.809 420.84 93.7552 420.84ZM83.9711 420.348C83.9059 420.348 83.8408 420.339 83.7748 420.323L83.3989 420.23C82.4032 419.975 81.4582 419.691 80.5443 419.376C80.1138 419.228 79.8865 418.759 80.0343 418.33C80.182 417.901 80.6496 417.672 81.0808 417.82C81.9523 418.12 82.8533 418.39 83.7589 418.622L84.1659 418.725C84.6069 418.833 84.8782 419.278 84.7706 419.719C84.6789 420.095 84.3417 420.348 83.9711 420.348ZM154.896 419.106C154.654 419.106 154.412 419 154.25 418.794C153.968 418.437 154.028 417.92 154.384 417.638C155.24 416.96 156.069 416.263 156.877 415.552C157.219 415.253 157.739 415.287 158.039 415.628C158.34 415.971 158.306 416.49 157.964 416.791C157.135 417.517 156.285 418.233 155.406 418.928C155.256 419.048 155.075 419.106 154.896 419.106ZM77.7578 418.205C77.6441 418.205 77.5282 418.181 77.4175 418.131C76.3975 417.667 75.3889 417.15 74.4219 416.596C74.0271 416.371 73.8907 415.868 74.1173 415.472C74.3423 415.076 74.847 414.941 75.2403 415.168C76.1641 415.697 77.1258 416.189 78.0988 416.633C78.5126 416.821 78.6952 417.31 78.5073 417.723C78.3693 418.027 78.07 418.205 77.7578 418.205ZM99.5987 417.99C99.3767 417.99 99.1546 417.9 98.9925 417.723C98.6848 417.389 98.7068 416.868 99.0417 416.561C99.7935 415.87 100.42 415.073 100.905 414.194C101.125 413.797 101.624 413.648 102.024 413.871C102.422 414.09 102.567 414.59 102.348 414.988C101.777 416.024 101.04 416.961 100.156 417.773C99.9973 417.918 99.798 417.99 99.5987 417.99ZM72.0545 414.937C71.8908 414.937 71.7256 414.888 71.5816 414.788C70.6738 414.15 69.778 413.456 68.9194 412.729C68.5731 412.435 68.5299 411.916 68.8239 411.568C69.1172 411.224 69.634 411.18 69.9841 411.472C70.8056 412.169 71.6619 412.831 72.5289 413.44C72.901 413.702 72.9904 414.215 72.7282 414.588C72.5675 414.814 72.3129 414.937 72.0545 414.937ZM159.844 414.766C159.627 414.766 159.411 414.681 159.249 414.513C158.935 414.184 158.946 413.664 159.275 413.349C160.067 412.591 160.838 411.824 161.595 411.049C161.913 410.727 162.434 410.717 162.759 411.036C163.084 411.353 163.091 411.874 162.773 412.2C162.004 412.989 161.218 413.768 160.413 414.538C160.253 414.691 160.049 414.766 159.844 414.766ZM95.5171 413.154C95.1185 413.154 94.7677 412.863 94.704 412.457C94.6176 411.9 94.5737 411.349 94.5737 410.82C94.5737 410.128 94.6487 409.47 94.7957 408.865C94.9025 408.425 95.3527 408.151 95.7899 408.261C96.2317 408.367 96.503 408.812 96.3954 409.254C96.2787 409.731 96.2204 410.259 96.2204 410.82C96.2204 411.266 96.2575 411.731 96.331 412.203C96.4007 412.654 96.0931 413.075 95.6437 413.144C95.6013 413.15 95.5588 413.154 95.5171 413.154ZM102.699 412.319C102.656 412.319 102.614 412.316 102.569 412.309C102.121 412.238 101.814 411.817 101.885 411.367C101.949 410.961 101.98 410.564 101.98 410.182C101.98 409.564 101.899 408.99 101.742 408.476C101.608 408.042 101.852 407.58 102.287 407.448C102.722 407.307 103.182 407.559 103.316 407.993C103.522 408.664 103.626 409.4 103.626 410.182C103.626 410.653 103.588 411.138 103.511 411.624C103.447 412.03 103.097 412.319 102.699 412.319ZM67.0325 410.692C66.821 410.692 66.6104 410.611 66.449 410.449C65.6684 409.664 64.903 408.835 64.1748 407.979C63.8807 407.634 63.9216 407.115 64.268 406.818C64.6143 406.524 65.1334 406.565 65.4289 406.912C66.1292 407.733 66.865 408.534 67.6167 409.288C67.9373 409.61 67.9358 410.131 67.6145 410.452C67.4531 410.611 67.2424 410.692 67.0325 410.692ZM164.464 410.073C164.261 410.073 164.058 409.998 163.899 409.849C163.568 409.537 163.553 409.016 163.864 408.685C164.62 407.881 165.366 407.077 166.105 406.28C166.414 405.943 166.934 405.926 167.268 406.235C167.602 406.546 167.621 407.066 167.312 407.399C166.57 408.2 165.822 409.007 165.063 409.814C164.901 409.986 164.682 410.073 164.464 410.073ZM97.3321 407.174C97.0706 407.174 96.8145 407.05 96.6546 406.818C96.3954 406.446 96.4894 405.933 96.8638 405.673C97.1805 405.453 97.5322 405.275 97.9058 405.143C98.4628 404.944 98.9462 404.82 99.5366 404.846C99.9503 404.846 100.357 404.913 100.739 405.045C101.168 405.194 101.397 405.663 101.248 406.092C101.099 406.523 100.629 406.748 100.201 406.602C99.989 406.53 99.795 406.449 99.5237 406.493C99.1903 406.493 98.8333 406.56 98.4582 406.693C98.2195 406.778 97.9982 406.891 97.7997 407.028C97.6572 407.127 97.4935 407.174 97.3321 407.174ZM62.763 405.682C62.5091 405.682 62.259 405.564 62.0983 405.344C61.4481 404.456 60.8146 403.523 60.2144 402.57C59.9719 402.186 60.0871 401.678 60.4713 401.435C60.8586 401.19 61.3655 401.31 61.6065 401.692C62.187 402.613 62.7986 403.514 63.426 404.372C63.6943 404.739 63.6147 405.254 63.2487 405.522C63.1009 405.63 62.9319 405.682 62.763 405.682ZM168.95 405.249C168.748 405.249 168.545 405.175 168.387 405.027C168.055 404.715 168.038 404.194 168.349 403.863C169.111 403.049 169.87 402.249 170.632 401.468C170.951 401.145 171.473 401.135 171.796 401.455C172.122 401.771 172.128 402.292 171.811 402.619C171.057 403.391 170.304 404.185 169.55 404.989C169.389 405.162 169.17 405.249 168.95 405.249ZM173.561 400.546C173.345 400.546 173.127 400.461 172.966 400.291C172.652 399.963 172.664 399.44 172.994 399.127C173.808 398.351 174.632 397.602 175.472 396.89C175.82 396.595 176.339 396.636 176.632 396.985C176.927 397.331 176.884 397.851 176.538 398.145C175.723 398.837 174.922 399.565 174.13 400.32C173.97 400.47 173.765 400.546 173.561 400.546ZM59.2482 400.11C58.9557 400.11 58.673 399.954 58.5237 399.679C57.9531 398.627 57.4545 397.621 57.0218 396.685C56.8308 396.272 57.0111 395.783 57.4249 395.591C57.8394 395.4 58.3275 395.58 58.5177 395.993C58.936 396.9 59.418 397.875 59.9712 398.894C60.1879 399.293 60.0394 399.793 59.64 400.01C59.515 400.078 59.3808 400.11 59.2482 400.11ZM178.588 396.306C178.333 396.306 178.082 396.189 177.919 395.965C177.653 395.597 177.736 395.082 178.104 394.815C179.04 394.139 179.99 393.518 180.927 392.972C181.319 392.743 181.824 392.876 182.053 393.272C182.281 393.664 182.148 394.168 181.755 394.397C180.865 394.915 179.961 395.504 179.069 396.15C178.924 396.255 178.755 396.306 178.588 396.306ZM56.483 394.125C56.1525 394.125 55.8396 393.924 55.7145 393.596C54.9651 391.646 54.6437 390.425 54.6301 390.375C54.5149 389.935 54.7779 389.487 55.2174 389.371C55.6569 389.25 56.1071 389.518 56.223 389.958C56.2253 389.969 56.5383 391.149 57.2514 393.008C57.4143 393.432 57.2021 393.908 56.7777 394.071C56.6807 394.108 56.5815 394.125 56.483 394.125ZM206.766 393.058C206.682 393.058 206.597 393.045 206.514 393.018C205.445 392.675 204.407 392.376 203.4 392.121C202.96 392.01 202.692 391.563 202.804 391.12C202.916 390.68 203.36 390.408 203.804 390.525C204.844 390.788 205.915 391.096 207.017 391.452C207.451 391.589 207.689 392.053 207.549 392.487C207.436 392.836 207.113 393.058 206.766 393.058ZM184.271 393.024C183.952 393.024 183.648 392.839 183.514 392.527C183.334 392.11 183.526 391.625 183.944 391.445C184.988 390.993 186.06 390.609 187.131 390.303C187.567 390.176 188.024 390.431 188.148 390.868C188.273 391.305 188.02 391.761 187.584 391.886C186.58 392.174 185.576 392.534 184.597 392.957C184.49 393.003 184.379 393.024 184.271 393.024ZM200.385 391.453C200.338 391.453 200.291 391.45 200.242 391.44C199.162 391.252 198.089 391.115 197.052 391.03C196.6 390.993 196.262 390.596 196.298 390.144C196.335 389.691 196.737 389.36 197.185 389.39C198.271 389.477 199.394 389.621 200.525 389.819C200.973 389.897 201.273 390.322 201.195 390.771C201.125 391.172 200.778 391.453 200.385 391.453ZM190.56 391.225C190.159 391.225 189.808 390.932 189.746 390.524C189.678 390.074 189.988 389.656 190.438 389.588C191.533 389.422 192.666 389.324 193.807 389.296C194.239 389.276 194.639 389.644 194.651 390.098C194.663 390.553 194.304 390.931 193.849 390.942C192.776 390.97 191.71 391.061 190.682 391.216C190.642 391.222 190.6 391.225 190.56 391.225Z" fill="#241726"/>
<path d="M137.052 250.261C137.052 264.089 119.742 298.175 112.013 298.175C104.285 298.175 86.9745 264.089 86.9745 250.261C86.9745 236.432 98.1848 225.222 112.013 225.222C125.842 225.222 137.052 236.432 137.052 250.261Z" fill="#E75634"/>
<path d="M112.013 267.263C103.647 267.263 96.8658 260.481 96.8658 252.116C96.8658 243.75 103.647 236.969 112.013 236.969C120.379 236.969 127.16 243.75 127.16 252.116C127.16 260.481 120.379 267.263 112.013 267.263Z" fill="white"/>
<path d="M112.012 268.086C120.819 268.086 127.983 260.923 127.983 252.116C127.983 243.309 120.819 236.144 112.012 236.144C103.207 236.144 96.0423 243.309 96.0423 252.116C96.0423 260.923 103.207 268.086 112.012 268.086ZM112.012 237.792C119.91 237.792 126.337 244.219 126.337 252.117C126.337 260.015 119.91 266.44 112.012 266.44C104.115 266.44 97.6891 260.015 97.6891 252.117C97.6891 244.218 104.115 237.792 112.012 237.792Z" fill="#241726"/>
<path d="M115.103 243.315C115.103 243.315 109.685 242.176 108.963 243.294C108.493 244.022 108.563 261.408 109.885 261.99C111.206 262.571 115.524 261.864 115.524 261.864C115.524 261.864 115.928 243.524 115.103 243.315Z" fill="#FF8C71"/>
<path d="M102.099 249.702C102.099 249.702 101.613 255.879 102.944 255.897C114.189 256.041 121.738 256.107 121.623 255.544C121.419 254.549 121.015 248.867 121.015 248.867C121.015 248.867 102.309 248.877 102.099 249.702Z" fill="#FF8C71"/>
<path d="M327.982 25.25C327.608 11.8916 316.185 1.53334 302.854 2.46468L85.3365 17.6609C73.0233 18.5211 63.4742 28.7606 63.4742 41.1037V138.841C63.4742 150.981 72.7201 161.122 84.8076 162.241L306.059 182.728C320.096 184.027 332.111 172.762 331.717 158.67L327.982 25.25Z" fill="#CFE298" stroke="black"/>
<path d="M138.452 167.273L136.584 221.77L183.899 171.624L138.452 167.273Z" fill="#CFE298" stroke="black"/>
<path d="M104.625 56V38.5H106.675L114.525 51.725H113.425L121.175 38.5H123.225L123.25 56H120.85L120.825 42.275H121.4L114.5 53.875H113.35L106.4 42.275H107.025V56H104.625ZM136.377 56V53.2L136.252 52.675V47.9C136.252 46.8833 135.952 46.1 135.352 45.55C134.769 44.9833 133.885 44.7 132.702 44.7C131.919 44.7 131.152 44.8333 130.402 45.1C129.652 45.35 129.019 45.6917 128.502 46.125L127.502 44.325C128.185 43.775 129.002 43.3583 129.952 43.075C130.919 42.775 131.927 42.625 132.977 42.625C134.794 42.625 136.194 43.0667 137.177 43.95C138.16 44.8333 138.652 46.1833 138.652 48V56H136.377ZM132.027 56.15C131.044 56.15 130.177 55.9833 129.427 55.65C128.694 55.3167 128.127 54.8583 127.727 54.275C127.327 53.675 127.127 53 127.127 52.25C127.127 51.5333 127.294 50.8833 127.627 50.3C127.977 49.7167 128.535 49.25 129.302 48.9C130.085 48.55 131.135 48.375 132.452 48.375H136.652V50.1H132.552C131.352 50.1 130.544 50.3 130.127 50.7C129.71 51.1 129.502 51.5833 129.502 52.15C129.502 52.8 129.76 53.325 130.277 53.725C130.794 54.1083 131.51 54.3 132.427 54.3C133.327 54.3 134.11 54.1 134.777 53.7C135.46 53.3 135.952 52.7167 136.252 51.95L136.727 53.6C136.41 54.3833 135.852 55.0083 135.052 55.475C134.252 55.925 133.244 56.15 132.027 56.15ZM141.168 56L146.868 48.6L146.843 49.825L141.418 42.75H144.093L148.243 48.2H147.218L151.368 42.75H153.993L148.493 49.875L148.518 48.6L154.268 56H151.543L147.168 50.2L148.143 50.35L143.843 56H141.168ZM156.887 56V42.75H159.287V56H156.887ZM158.087 40.2C157.621 40.2 157.229 40.05 156.912 39.75C156.612 39.45 156.462 39.0833 156.462 38.65C156.462 38.2 156.612 37.825 156.912 37.525C157.229 37.225 157.621 37.075 158.087 37.075C158.554 37.075 158.937 37.225 159.237 37.525C159.554 37.8083 159.712 38.1667 159.712 38.6C159.712 39.05 159.562 39.4333 159.262 39.75C158.962 40.05 158.571 40.2 158.087 40.2ZM180.445 42.625C181.511 42.625 182.453 42.8333 183.27 43.25C184.086 43.6667 184.72 44.3 185.17 45.15C185.636 46 185.87 47.075 185.87 48.375V56H183.47V48.65C183.47 47.3667 183.17 46.4 182.57 45.75C181.97 45.1 181.128 44.775 180.045 44.775C179.245 44.775 178.545 44.9417 177.945 45.275C177.345 45.6083 176.878 46.1 176.545 46.75C176.228 47.4 176.07 48.2083 176.07 49.175V56H173.67V48.65C173.67 47.3667 173.37 46.4 172.77 45.75C172.186 45.1 171.345 44.775 170.245 44.775C169.461 44.775 168.77 44.9417 168.17 45.275C167.57 45.6083 167.103 46.1 166.77 46.75C166.436 47.4 166.27 48.2083 166.27 49.175V56H163.87V42.75H166.17V46.275L165.795 45.375C166.211 44.5083 166.853 43.8333 167.72 43.35C168.586 42.8667 169.595 42.625 170.745 42.625C172.011 42.625 173.103 42.9417 174.02 43.575C174.936 44.1917 175.536 45.1333 175.82 46.4L174.845 46C175.245 44.9833 175.945 44.1667 176.945 43.55C177.945 42.9333 179.111 42.625 180.445 42.625ZM195.861 56.15C194.727 56.15 193.727 55.9417 192.861 55.525C192.011 55.1083 191.344 54.475 190.861 53.625C190.394 52.7583 190.161 51.675 190.161 50.375V42.75H192.561V50.1C192.561 51.4 192.869 52.375 193.486 53.025C194.119 53.675 195.002 54 196.136 54C196.969 54 197.694 53.8333 198.311 53.5C198.927 53.15 199.402 52.65 199.736 52C200.069 51.3333 200.236 50.5333 200.236 49.6V42.75H202.636V56H200.361V52.425L200.736 53.375C200.302 54.2583 199.652 54.9417 198.786 55.425C197.919 55.9083 196.944 56.15 195.861 56.15ZM223.78 42.625C224.846 42.625 225.788 42.8333 226.605 43.25C227.421 43.6667 228.055 44.3 228.505 45.15C228.971 46 229.205 47.075 229.205 48.375V56H226.805V48.65C226.805 47.3667 226.505 46.4 225.905 45.75C225.305 45.1 224.463 44.775 223.38 44.775C222.58 44.775 221.88 44.9417 221.28 45.275C220.68 45.6083 220.213 46.1 219.88 46.75C219.563 47.4 219.405 48.2083 219.405 49.175V56H217.005V48.65C217.005 47.3667 216.705 46.4 216.105 45.75C215.521 45.1 214.68 44.775 213.58 44.775C212.796 44.775 212.105 44.9417 211.505 45.275C210.905 45.6083 210.438 46.1 210.105 46.75C209.771 47.4 209.605 48.2083 209.605 49.175V56H207.205V42.75H209.505V46.275L209.13 45.375C209.546 44.5083 210.188 43.8333 211.055 43.35C211.921 42.8667 212.93 42.625 214.08 42.625C215.346 42.625 216.438 42.9417 217.355 43.575C218.271 44.1917 218.871 45.1333 219.155 46.4L218.18 46C218.58 44.9833 219.28 44.1667 220.28 43.55C221.28 42.9333 222.446 42.625 223.78 42.625ZM108.075 94.15C106.975 94.15 105.925 94 104.925 93.7C103.942 93.4 103.167 93.0333 102.6 92.6L103.6 90.7C104.167 91.0833 104.867 91.4083 105.7 91.675C106.533 91.9417 107.383 92.075 108.25 92.075C109.367 92.075 110.167 91.9167 110.65 91.6C111.15 91.2833 111.4 90.8417 111.4 90.275C111.4 89.8583 111.25 89.5333 110.95 89.3C110.65 89.0667 110.25 88.8917 109.75 88.775C109.267 88.6583 108.725 88.5583 108.125 88.475C107.525 88.375 106.925 88.2583 106.325 88.125C105.725 87.975 105.175 87.775 104.675 87.525C104.175 87.2583 103.775 86.9 103.475 86.45C103.175 85.9833 103.025 85.3667 103.025 84.6C103.025 83.8 103.25 83.1 103.7 82.5C104.15 81.9 104.783 81.4417 105.6 81.125C106.433 80.7917 107.417 80.625 108.55 80.625C109.417 80.625 110.292 80.7333 111.175 80.95C112.075 81.15 112.808 81.4417 113.375 81.825L112.35 83.725C111.75 83.325 111.125 83.05 110.475 82.9C109.825 82.75 109.175 82.675 108.525 82.675C107.475 82.675 106.692 82.85 106.175 83.2C105.658 83.5333 105.4 83.9667 105.4 84.5C105.4 84.95 105.55 85.3 105.85 85.55C106.167 85.7833 106.567 85.9667 107.05 86.1C107.55 86.2333 108.1 86.35 108.7 86.45C109.3 86.5333 109.9 86.65 110.5 86.8C111.1 86.9333 111.642 87.125 112.125 87.375C112.625 87.625 113.025 87.975 113.325 88.425C113.642 88.875 113.8 89.475 113.8 90.225C113.8 91.025 113.567 91.7167 113.1 92.3C112.633 92.8833 111.975 93.3417 111.125 93.675C110.275 93.9917 109.258 94.15 108.075 94.15ZM125.024 94V91.2L124.899 90.675V85.9C124.899 84.8833 124.599 84.1 123.999 83.55C123.416 82.9833 122.533 82.7 121.349 82.7C120.566 82.7 119.799 82.8333 119.049 83.1C118.299 83.35 117.666 83.6917 117.149 84.125L116.149 82.325C116.833 81.775 117.649 81.3583 118.599 81.075C119.566 80.775 120.574 80.625 121.624 80.625C123.441 80.625 124.841 81.0667 125.824 81.95C126.808 82.8333 127.299 84.1833 127.299 86V94H125.024ZM120.674 94.15C119.691 94.15 118.824 93.9833 118.074 93.65C117.341 93.3167 116.774 92.8583 116.374 92.275C115.974 91.675 115.774 91 115.774 90.25C115.774 89.5333 115.941 88.8833 116.274 88.3C116.624 87.7167 117.183 87.25 117.949 86.9C118.733 86.55 119.783 86.375 121.099 86.375H125.299V88.1H121.199C119.999 88.1 119.191 88.3 118.774 88.7C118.358 89.1 118.149 89.5833 118.149 90.15C118.149 90.8 118.408 91.325 118.924 91.725C119.441 92.1083 120.158 92.3 121.074 92.3C121.974 92.3 122.758 92.1 123.424 91.7C124.108 91.3 124.599 90.7167 124.899 89.95L125.374 91.6C125.058 92.3833 124.499 93.0083 123.699 93.475C122.899 93.925 121.891 94.15 120.674 94.15ZM134.972 94L129.172 80.75H131.672L136.822 92.75H135.622L140.872 80.75H143.222L137.422 94H134.972ZM145.462 94V80.75H147.862V94H145.462ZM146.662 78.2C146.195 78.2 145.803 78.05 145.487 77.75C145.187 77.45 145.037 77.0833 145.037 76.65C145.037 76.2 145.187 75.825 145.487 75.525C145.803 75.225 146.195 75.075 146.662 75.075C147.128 75.075 147.512 75.225 147.812 75.525C148.128 75.8083 148.287 76.1667 148.287 76.6C148.287 77.05 148.137 77.4333 147.837 77.75C147.537 78.05 147.145 78.2 146.662 78.2ZM159.519 80.625C160.602 80.625 161.552 80.8333 162.369 81.25C163.202 81.6667 163.852 82.3 164.319 83.15C164.786 84 165.019 85.075 165.019 86.375V94H162.619V86.65C162.619 85.3667 162.302 84.4 161.669 83.75C161.052 83.1 160.177 82.775 159.044 82.775C158.194 82.775 157.452 82.9417 156.819 83.275C156.186 83.6083 155.694 84.1 155.344 84.75C155.011 85.4 154.844 86.2083 154.844 87.175V94H152.444V80.75H154.744V84.325L154.369 83.375C154.802 82.5083 155.469 81.8333 156.369 81.35C157.269 80.8667 158.319 80.625 159.519 80.625ZM175.261 99C174.044 99 172.861 98.825 171.711 98.475C170.577 98.1417 169.652 97.6583 168.936 97.025L170.086 95.175C170.702 95.7083 171.461 96.125 172.361 96.425C173.261 96.7417 174.202 96.9 175.186 96.9C176.752 96.9 177.902 96.5333 178.636 95.8C179.369 95.0667 179.736 93.95 179.736 92.45V89.65L179.986 87.025L179.861 84.375V80.75H182.136V92.2C182.136 94.5333 181.552 96.25 180.386 97.35C179.219 98.45 177.511 99 175.261 99ZM174.961 93.45C173.677 93.45 172.527 93.1833 171.511 92.65C170.511 92.1 169.711 91.3417 169.111 90.375C168.527 89.4083 168.236 88.2917 168.236 87.025C168.236 85.7417 168.527 84.625 169.111 83.675C169.711 82.7083 170.511 81.9583 171.511 81.425C172.527 80.8917 173.677 80.625 174.961 80.625C176.094 80.625 177.127 80.8583 178.061 81.325C178.994 81.775 179.736 82.475 180.286 83.425C180.852 84.375 181.136 85.575 181.136 87.025C181.136 88.4583 180.852 89.65 180.286 90.6C179.736 91.55 178.994 92.2667 178.061 92.75C177.127 93.2167 176.094 93.45 174.961 93.45ZM175.236 91.35C176.119 91.35 176.902 91.1667 177.586 90.8C178.269 90.4333 178.802 89.925 179.186 89.275C179.586 88.625 179.786 87.875 179.786 87.025C179.786 86.175 179.586 85.425 179.186 84.775C178.802 84.125 178.269 83.625 177.586 83.275C176.902 82.9083 176.119 82.725 175.236 82.725C174.352 82.725 173.561 82.9083 172.861 83.275C172.177 83.625 171.636 84.125 171.236 84.775C170.852 85.425 170.661 86.175 170.661 87.025C170.661 87.875 170.852 88.625 171.236 89.275C171.636 89.925 172.177 90.4333 172.861 90.8C173.561 91.1667 174.352 91.35 175.236 91.35ZM190.521 94.15C189.421 94.15 188.371 94 187.371 93.7C186.388 93.4 185.613 93.0333 185.046 92.6L186.046 90.7C186.613 91.0833 187.313 91.4083 188.146 91.675C188.98 91.9417 189.83 92.075 190.696 92.075C191.813 92.075 192.613 91.9167 193.096 91.6C193.596 91.2833 193.846 90.8417 193.846 90.275C193.846 89.8583 193.696 89.5333 193.396 89.3C193.096 89.0667 192.696 88.8917 192.196 88.775C191.713 88.6583 191.171 88.5583 190.571 88.475C189.971 88.375 189.371 88.2583 188.771 88.125C188.171 87.975 187.621 87.775 187.121 87.525C186.621 87.2583 186.221 86.9 185.921 86.45C185.621 85.9833 185.471 85.3667 185.471 84.6C185.471 83.8 185.696 83.1 186.146 82.5C186.596 81.9 187.23 81.4417 188.046 81.125C188.88 80.7917 189.863 80.625 190.996 80.625C191.863 80.625 192.738 80.7333 193.621 80.95C194.521 81.15 195.255 81.4417 195.821 81.825L194.796 83.725C194.196 83.325 193.571 83.05 192.921 82.9C192.271 82.75 191.621 82.675 190.971 82.675C189.921 82.675 189.138 82.85 188.621 83.2C188.105 83.5333 187.846 83.9667 187.846 84.5C187.846 84.95 187.996 85.3 188.296 85.55C188.613 85.7833 189.013 85.9667 189.496 86.1C189.996 86.2333 190.546 86.35 191.146 86.45C191.746 86.5333 192.346 86.65 192.946 86.8C193.546 86.9333 194.088 87.125 194.571 87.375C195.071 87.625 195.471 87.975 195.771 88.425C196.088 88.875 196.246 89.475 196.246 90.225C196.246 91.025 196.013 91.7167 195.546 92.3C195.08 92.8833 194.421 93.3417 193.571 93.675C192.721 93.9917 191.705 94.15 190.521 94.15ZM211.635 94.15C210.301 94.15 209.118 93.8583 208.085 93.275C207.051 92.6917 206.235 91.8917 205.635 90.875C205.035 89.8417 204.735 88.675 204.735 87.375C204.735 86.0583 205.035 84.8917 205.635 83.875C206.235 82.8583 207.051 82.0667 208.085 81.5C209.118 80.9167 210.301 80.625 211.635 80.625C212.951 80.625 214.126 80.9167 215.16 81.5C216.21 82.0667 217.026 82.8583 217.61 83.875C218.21 84.875 218.51 86.0417 218.51 87.375C218.51 88.6917 218.21 89.8583 217.61 90.875C217.026 91.8917 216.21 92.6917 215.16 93.275C214.126 93.8583 212.951 94.15 211.635 94.15ZM211.635 92.05C212.485 92.05 213.243 91.8583 213.91 91.475C214.593 91.0917 215.126 90.55 215.51 89.85C215.893 89.1333 216.085 88.3083 216.085 87.375C216.085 86.425 215.893 85.6083 215.51 84.925C215.126 84.225 214.593 83.6833 213.91 83.3C213.243 82.9167 212.485 82.725 211.635 82.725C210.785 82.725 210.026 82.9167 209.36 83.3C208.693 83.6833 208.16 84.225 207.76 84.925C207.36 85.6083 207.16 86.425 207.16 87.375C207.16 88.3083 207.36 89.1333 207.76 89.85C208.16 90.55 208.693 91.0917 209.36 91.475C210.026 91.8583 210.785 92.05 211.635 92.05ZM228.904 80.625C229.987 80.625 230.937 80.8333 231.754 81.25C232.587 81.6667 233.237 82.3 233.704 83.15C234.17 84 234.404 85.075 234.404 86.375V94H232.004V86.65C232.004 85.3667 231.687 84.4 231.054 83.75C230.437 83.1 229.562 82.775 228.429 82.775C227.579 82.775 226.837 82.9417 226.204 83.275C225.57 83.6083 225.079 84.1 224.729 84.75C224.395 85.4 224.229 86.2083 224.229 87.175V94H221.829V80.75H224.129V84.325L223.754 83.375C224.187 82.5083 224.854 81.8333 225.754 81.35C226.654 80.8667 227.704 80.625 228.904 80.625ZM246.134 99C245.501 99 244.884 98.8917 244.284 98.675C243.684 98.475 243.168 98.175 242.734 97.775L243.759 95.975C244.093 96.2917 244.459 96.5333 244.859 96.7C245.259 96.8667 245.684 96.95 246.134 96.95C246.718 96.95 247.201 96.8 247.584 96.5C247.968 96.2 248.326 95.6667 248.659 94.9L249.484 93.075L249.734 92.775L254.934 80.75H257.284L250.859 95.325C250.476 96.2583 250.043 96.9917 249.559 97.525C249.093 98.0583 248.576 98.4333 248.009 98.65C247.443 98.8833 246.818 99 246.134 99ZM249.284 94.425L243.234 80.75H245.734L250.884 92.55L249.284 94.425ZM264.833 94.15C263.499 94.15 262.316 93.8583 261.283 93.275C260.249 92.6917 259.433 91.8917 258.833 90.875C258.233 89.8417 257.933 88.675 257.933 87.375C257.933 86.0583 258.233 84.8917 258.833 83.875C259.433 82.8583 260.249 82.0667 261.283 81.5C262.316 80.9167 263.499 80.625 264.833 80.625C266.149 80.625 267.324 80.9167 268.358 81.5C269.408 82.0667 270.224 82.8583 270.808 83.875C271.408 84.875 271.708 86.0417 271.708 87.375C271.708 88.6917 271.408 89.8583 270.808 90.875C270.224 91.8917 269.408 92.6917 268.358 93.275C267.324 93.8583 266.149 94.15 264.833 94.15ZM264.833 92.05C265.683 92.05 266.441 91.8583 267.108 91.475C267.791 91.0917 268.324 90.55 268.708 89.85C269.091 89.1333 269.283 88.3083 269.283 87.375C269.283 86.425 269.091 85.6083 268.708 84.925C268.324 84.225 267.791 83.6833 267.108 83.3C266.441 82.9167 265.683 82.725 264.833 82.725C263.983 82.725 263.224 82.9167 262.558 83.3C261.891 83.6833 261.358 84.225 260.958 84.925C260.558 85.6083 260.358 86.425 260.358 87.375C260.358 88.3083 260.558 89.1333 260.958 89.85C261.358 90.55 261.891 91.0917 262.558 91.475C263.224 91.8583 263.983 92.05 264.833 92.05ZM280.602 94.15C279.469 94.15 278.469 93.9417 277.602 93.525C276.752 93.1083 276.085 92.475 275.602 91.625C275.135 90.7583 274.902 89.675 274.902 88.375V80.75H277.302V88.1C277.302 89.4 277.61 90.375 278.227 91.025C278.86 91.675 279.744 92 280.877 92C281.71 92 282.435 91.8333 283.052 91.5C283.669 91.15 284.144 90.65 284.477 90C284.81 89.3333 284.977 88.5333 284.977 87.6V80.75H287.377V94H285.102V90.425L285.477 91.375C285.044 92.2583 284.394 92.9417 283.527 93.425C282.66 93.9083 281.685 94.15 280.602 94.15ZM291.946 94V80.75H294.246V84.35L294.021 83.45C294.388 82.5333 295.004 81.8333 295.871 81.35C296.738 80.8667 297.804 80.625 299.071 80.625V82.95C298.971 82.9333 298.871 82.925 298.771 82.925C298.688 82.925 298.604 82.925 298.521 82.925C297.238 82.925 296.221 83.3083 295.471 84.075C294.721 84.8417 294.346 85.95 294.346 87.4V94H291.946ZM120.85 118.625C121.917 118.625 122.858 118.833 123.675 119.25C124.492 119.667 125.125 120.3 125.575 121.15C126.042 122 126.275 123.075 126.275 124.375V132H123.875V124.65C123.875 123.367 123.575 122.4 122.975 121.75C122.375 121.1 121.533 120.775 120.45 120.775C119.65 120.775 118.95 120.942 118.35 121.275C117.75 121.608 117.283 122.1 116.95 122.75C116.633 123.4 116.475 124.208 116.475 125.175V132H114.075V124.65C114.075 123.367 113.775 122.4 113.175 121.75C112.592 121.1 111.75 120.775 110.65 120.775C109.867 120.775 109.175 120.942 108.575 121.275C107.975 121.608 107.508 122.1 107.175 122.75C106.842 123.4 106.675 124.208 106.675 125.175V132H104.275V118.75H106.575V122.275L106.2 121.375C106.617 120.508 107.258 119.833 108.125 119.35C108.992 118.867 110 118.625 111.15 118.625C112.417 118.625 113.508 118.942 114.425 119.575C115.342 120.192 115.942 121.133 116.225 122.4L115.25 122C115.65 120.983 116.35 120.167 117.35 119.55C118.35 118.933 119.517 118.625 120.85 118.625ZM136.591 132.15C135.174 132.15 133.924 131.858 132.841 131.275C131.774 130.692 130.941 129.892 130.341 128.875C129.758 127.858 129.466 126.692 129.466 125.375C129.466 124.058 129.749 122.892 130.316 121.875C130.899 120.858 131.691 120.067 132.691 119.5C133.708 118.917 134.849 118.625 136.116 118.625C137.399 118.625 138.533 118.908 139.516 119.475C140.499 120.042 141.266 120.842 141.816 121.875C142.383 122.892 142.666 124.083 142.666 125.45C142.666 125.55 142.658 125.667 142.641 125.8C142.641 125.933 142.633 126.058 142.616 126.175H131.341V124.45H141.366L140.391 125.05C140.408 124.2 140.233 123.442 139.866 122.775C139.499 122.108 138.991 121.592 138.341 121.225C137.708 120.842 136.966 120.65 136.116 120.65C135.283 120.65 134.541 120.842 133.891 121.225C133.241 121.592 132.733 122.117 132.366 122.8C131.999 123.467 131.816 124.233 131.816 125.1V125.5C131.816 126.383 132.016 127.175 132.416 127.875C132.833 128.558 133.408 129.092 134.141 129.475C134.874 129.858 135.716 130.05 136.666 130.05C137.449 130.05 138.158 129.917 138.791 129.65C139.441 129.383 140.008 128.983 140.491 128.45L141.816 130C141.216 130.7 140.466 131.233 139.566 131.6C138.683 131.967 137.691 132.15 136.591 132.15ZM151.474 132.15C150.19 132.15 149.04 131.867 148.024 131.3C147.024 130.733 146.232 129.942 145.649 128.925C145.065 127.908 144.774 126.725 144.774 125.375C144.774 124.025 145.065 122.85 145.649 121.85C146.232 120.833 147.024 120.042 148.024 119.475C149.04 118.908 150.19 118.625 151.474 118.625C152.59 118.625 153.599 118.875 154.499 119.375C155.399 119.875 156.115 120.625 156.649 121.625C157.199 122.625 157.474 123.875 157.474 125.375C157.474 126.875 157.207 128.125 156.674 129.125C156.157 130.125 155.449 130.883 154.549 131.4C153.649 131.9 152.624 132.15 151.474 132.15ZM151.674 130.05C152.507 130.05 153.257 129.858 153.924 129.475C154.607 129.092 155.14 128.55 155.524 127.85C155.924 127.133 156.124 126.308 156.124 125.375C156.124 124.425 155.924 123.608 155.524 122.925C155.14 122.225 154.607 121.683 153.924 121.3C153.257 120.917 152.507 120.725 151.674 120.725C150.824 120.725 150.065 120.917 149.399 121.3C148.732 121.683 148.199 122.225 147.799 122.925C147.399 123.608 147.199 124.425 147.199 125.375C147.199 126.308 147.399 127.133 147.799 127.85C148.199 128.55 148.732 129.092 149.399 129.475C150.065 129.858 150.824 130.05 151.674 130.05ZM156.199 132V128.425L156.349 125.35L156.099 122.275V113.45H158.499V132H156.199ZM163.04 132V118.75H165.44V132H163.04ZM164.24 116.2C163.773 116.2 163.381 116.05 163.065 115.75C162.765 115.45 162.615 115.083 162.615 114.65C162.615 114.2 162.765 113.825 163.065 113.525C163.381 113.225 163.773 113.075 164.24 113.075C164.706 113.075 165.09 113.225 165.39 113.525C165.706 113.808 165.865 114.167 165.865 114.6C165.865 115.05 165.715 115.433 165.415 115.75C165.115 116.05 164.723 116.2 164.24 116.2ZM175.797 132.15C174.447 132.15 173.239 131.858 172.172 131.275C171.122 130.692 170.297 129.892 169.697 128.875C169.097 127.858 168.797 126.692 168.797 125.375C168.797 124.058 169.097 122.892 169.697 121.875C170.297 120.858 171.122 120.067 172.172 119.5C173.239 118.917 174.447 118.625 175.797 118.625C176.997 118.625 178.064 118.867 178.997 119.35C179.947 119.817 180.68 120.517 181.197 121.45L179.372 122.625C178.939 121.975 178.405 121.5 177.772 121.2C177.155 120.883 176.489 120.725 175.772 120.725C174.905 120.725 174.13 120.917 173.447 121.3C172.764 121.683 172.222 122.225 171.822 122.925C171.422 123.608 171.222 124.425 171.222 125.375C171.222 126.325 171.422 127.15 171.822 127.85C172.222 128.55 172.764 129.092 173.447 129.475C174.13 129.858 174.905 130.05 175.772 130.05C176.489 130.05 177.155 129.9 177.772 129.6C178.405 129.283 178.939 128.8 179.372 128.15L181.197 129.3C180.68 130.217 179.947 130.925 178.997 131.425C178.064 131.908 176.997 132.15 175.797 132.15ZM184.133 132V118.75H186.533V132H184.133ZM185.333 116.2C184.867 116.2 184.475 116.05 184.158 115.75C183.858 115.45 183.708 115.083 183.708 114.65C183.708 114.2 183.858 113.825 184.158 113.525C184.475 113.225 184.867 113.075 185.333 113.075C185.8 113.075 186.183 113.225 186.483 113.525C186.8 113.808 186.958 114.167 186.958 114.6C186.958 115.05 186.808 115.433 186.508 115.75C186.208 116.05 185.817 116.2 185.333 116.2ZM198.191 118.625C199.274 118.625 200.224 118.833 201.041 119.25C201.874 119.667 202.524 120.3 202.991 121.15C203.457 122 203.691 123.075 203.691 124.375V132H201.291V124.65C201.291 123.367 200.974 122.4 200.341 121.75C199.724 121.1 198.849 120.775 197.716 120.775C196.866 120.775 196.124 120.942 195.491 121.275C194.857 121.608 194.366 122.1 194.016 122.75C193.682 123.4 193.516 124.208 193.516 125.175V132H191.116V118.75H193.416V122.325L193.041 121.375C193.474 120.508 194.141 119.833 195.041 119.35C195.941 118.867 196.991 118.625 198.191 118.625ZM214.032 132.15C212.616 132.15 211.366 131.858 210.282 131.275C209.216 130.692 208.382 129.892 207.782 128.875C207.199 127.858 206.907 126.692 206.907 125.375C206.907 124.058 207.191 122.892 207.757 121.875C208.341 120.858 209.132 120.067 210.132 119.5C211.149 118.917 212.291 118.625 213.557 118.625C214.841 118.625 215.974 118.908 216.957 119.475C217.941 120.042 218.707 120.842 219.257 121.875C219.824 122.892 220.107 124.083 220.107 125.45C220.107 125.55 220.099 125.667 220.082 125.8C220.082 125.933 220.074 126.058 220.057 126.175H208.782V124.45H218.807L217.832 125.05C217.849 124.2 217.674 123.442 217.307 122.775C216.941 122.108 216.432 121.592 215.782 121.225C215.149 120.842 214.407 120.65 213.557 120.65C212.724 120.65 211.982 120.842 211.332 121.225C210.682 121.592 210.174 122.117 209.807 122.8C209.441 123.467 209.257 124.233 209.257 125.1V125.5C209.257 126.383 209.457 127.175 209.857 127.875C210.274 128.558 210.849 129.092 211.582 129.475C212.316 129.858 213.157 130.05 214.107 130.05C214.891 130.05 215.599 129.917 216.232 129.65C216.882 129.383 217.449 128.983 217.932 128.45L219.257 130C218.657 130.7 217.907 131.233 217.007 131.6C216.124 131.967 215.132 132.15 214.032 132.15ZM237.179 132.15C236.046 132.15 235.021 131.9 234.104 131.4C233.204 130.883 232.487 130.125 231.954 129.125C231.437 128.125 231.179 126.875 231.179 125.375C231.179 123.875 231.446 122.625 231.979 121.625C232.529 120.625 233.254 119.875 234.154 119.375C235.071 118.875 236.079 118.625 237.179 118.625C238.479 118.625 239.629 118.908 240.629 119.475C241.629 120.042 242.421 120.833 243.004 121.85C243.587 122.85 243.879 124.025 243.879 125.375C243.879 126.725 243.587 127.908 243.004 128.925C242.421 129.942 241.629 130.733 240.629 131.3C239.629 131.867 238.479 132.15 237.179 132.15ZM230.154 132V113.45H232.554V122.275L232.304 125.35L232.454 128.425V132H230.154ZM236.979 130.05C237.829 130.05 238.587 129.858 239.254 129.475C239.937 129.092 240.471 128.55 240.854 127.85C241.254 127.133 241.454 126.308 241.454 125.375C241.454 124.425 241.254 123.608 240.854 122.925C240.471 122.225 239.937 121.683 239.254 121.3C238.587 120.917 237.829 120.725 236.979 120.725C236.146 120.725 235.387 120.917 234.704 121.3C234.037 121.683 233.504 122.225 233.104 122.925C232.721 123.608 232.529 124.425 232.529 125.375C232.529 126.308 232.721 127.133 233.104 127.85C233.504 128.55 234.037 129.092 234.704 129.475C235.387 129.858 236.146 130.05 236.979 130.05ZM247.195 132V118.75H249.595V132H247.195ZM248.395 116.2C247.928 116.2 247.537 116.05 247.22 115.75C246.92 115.45 246.77 115.083 246.77 114.65C246.77 114.2 246.92 113.825 247.22 113.525C247.537 113.225 247.928 113.075 248.395 113.075C248.862 113.075 249.245 113.225 249.545 113.525C249.862 113.808 250.02 114.167 250.02 114.6C250.02 115.05 249.87 115.433 249.57 115.75C249.27 116.05 248.878 116.2 248.395 116.2ZM254.177 132V113.45H256.577V132H254.177ZM261.16 132V113.45H263.56V132H261.16ZM271.942 132.15C270.842 132.15 269.792 132 268.792 131.7C267.809 131.4 267.034 131.033 266.467 130.6L267.467 128.7C268.034 129.083 268.734 129.408 269.567 129.675C270.401 129.942 271.251 130.075 272.117 130.075C273.234 130.075 274.034 129.917 274.517 129.6C275.017 129.283 275.267 128.842 275.267 128.275C275.267 127.858 275.117 127.533 274.817 127.3C274.517 127.067 274.117 126.892 273.617 126.775C273.134 126.658 272.592 126.558 271.992 126.475C271.392 126.375 270.792 126.258 270.192 126.125C269.592 125.975 269.042 125.775 268.542 125.525C268.042 125.258 267.642 124.9 267.342 124.45C267.042 123.983 266.892 123.367 266.892 122.6C266.892 121.8 267.117 121.1 267.567 120.5C268.017 119.9 268.651 119.442 269.467 119.125C270.301 118.792 271.284 118.625 272.417 118.625C273.284 118.625 274.159 118.733 275.042 118.95C275.942 119.15 276.676 119.442 277.242 119.825L276.217 121.725C275.617 121.325 274.992 121.05 274.342 120.9C273.692 120.75 273.042 120.675 272.392 120.675C271.342 120.675 270.559 120.85 270.042 121.2C269.526 121.533 269.267 121.967 269.267 122.5C269.267 122.95 269.417 123.3 269.717 123.55C270.034 123.783 270.434 123.967 270.917 124.1C271.417 124.233 271.967 124.35 272.567 124.45C273.167 124.533 273.767 124.65 274.367 124.8C274.967 124.933 275.509 125.125 275.992 125.375C276.492 125.625 276.892 125.975 277.192 126.425C277.509 126.875 277.667 127.475 277.667 128.225C277.667 129.025 277.434 129.717 276.967 130.3C276.501 130.883 275.842 131.342 274.992 131.675C274.142 131.992 273.126 132.15 271.942 132.15ZM287.505 126.475L287.055 114.5H289.88L289.405 126.475H287.505ZM288.48 132.15C288.014 132.15 287.622 131.992 287.305 131.675C286.989 131.358 286.83 130.983 286.83 130.55C286.83 130.083 286.989 129.7 287.305 129.4C287.622 129.1 288.014 128.95 288.48 128.95C288.947 128.95 289.33 129.1 289.63 129.4C289.93 129.7 290.08 130.083 290.08 130.55C290.08 130.983 289.93 131.358 289.63 131.675C289.33 131.992 288.947 132.15 288.48 132.15Z" fill="#37582A"/>
<path d="M349.917 188.801C353.299 192.182 358.832 192.182 362.214 188.801C365.595 185.419 365.595 179.886 362.214 176.504L356.819 171.109L344.522 183.406L349.917 188.801Z" fill="#E75634"/>
<path d="M356.819 171.108L349.165 163.454C345.783 160.073 340.25 160.073 336.868 163.454C333.487 166.836 333.487 172.369 336.868 175.751L344.522 183.405L356.819 171.108Z" fill="white"/>
<path d="M344.523 184.101C344.338 184.101 344.161 184.028 344.031 183.898L336.376 176.243C332.715 172.581 332.715 166.624 336.376 162.963C338.143 161.195 340.502 160.222 343.017 160.222C345.532 160.222 347.891 161.195 349.658 162.963L357.311 170.616C357.582 170.887 357.582 171.328 357.311 171.6L345.015 183.898C344.884 184.028 344.707 184.101 344.523 184.101ZM343.017 161.614C340.874 161.614 338.864 162.443 337.36 163.947C334.241 167.066 334.241 172.14 337.36 175.26L344.523 182.422L355.835 171.108L348.674 163.947C347.169 162.443 345.16 161.614 343.017 161.614Z" fill="#241726"/>
<path d="M29.5103 355.34C24.9762 355.34 21.2666 359.05 21.2666 363.584C21.2666 368.118 24.9762 371.828 29.5103 371.828H36.7443V355.34H29.5103Z" fill="#37582A"/>
<path d="M36.7441 371.827H47.0063C51.5404 371.827 55.25 368.118 55.25 363.583C55.25 359.05 51.5404 355.34 47.0063 355.34H36.7441V371.827Z" fill="white"/>
<path d="M47.0063 372.487H36.7436C36.3789 372.487 36.084 372.192 36.084 371.827V355.339C36.084 354.974 36.3789 354.68 36.7436 354.68H47.0063C51.9158 354.68 55.9096 358.673 55.9096 363.583C55.9101 368.493 51.9163 372.487 47.0063 372.487ZM37.4033 371.168H47.0063C51.1883 371.168 54.5903 367.765 54.5903 363.584C54.5903 359.402 51.1878 356 47.0063 356H37.4033V371.168Z" fill="#241726"/>
<path d="M5.15918 339.24C5.15918 341.836 7.28274 343.959 9.87832 343.959C12.4739 343.959 14.5975 341.836 14.5975 339.24V335.099H5.15918V339.24Z" fill="#E75634"/>
<path d="M14.597 335.099V329.225C14.597 326.629 12.4734 324.505 9.87783 324.505C7.28225 324.505 5.15869 326.629 5.15869 329.225V335.099H14.597Z" fill="white"/>
<path d="M14.597 335.477H5.15839C4.94959 335.477 4.78076 335.308 4.78076 335.099V329.224C4.78076 326.414 7.06707 324.128 9.87753 324.128C12.688 324.128 14.9743 326.414 14.9743 329.224V335.099C14.9746 335.308 14.8058 335.477 14.597 335.477ZM5.53601 334.721H14.2193V329.224C14.2193 326.83 12.2716 324.883 9.87782 324.883C7.48379 324.883 5.5363 326.831 5.5363 329.224L5.53601 334.721Z" fill="#241726"/>
<path d="M87.1438 186.776C84.0134 190.056 84.1358 195.301 87.4159 198.431C90.696 201.561 95.9406 201.439 99.0711 198.159L104.065 192.926L92.1382 181.543L87.1438 186.776Z" fill="#E75634"/>
<path d="M104.065 192.925L111.15 185.502C114.28 182.222 114.158 176.977 110.878 173.846C107.598 170.716 102.353 170.838 99.2225 174.119L92.1375 181.542L104.065 192.925Z" fill="white"/>
<path d="M103.609 193.403L91.6818 182.019C91.418 181.767 91.4082 181.35 91.66 181.087L98.7451 173.663C102.135 170.111 107.781 169.979 111.333 173.369C114.885 176.758 115.016 182.405 111.627 185.957L104.541 193.381C104.29 193.645 103.873 193.654 103.609 193.403ZM93.0699 181.52L104.043 191.993L110.673 185.046C113.56 182.021 113.447 177.211 110.422 174.324C107.397 171.436 102.587 171.549 99.6999 174.574L93.0699 181.52Z" fill="#241726"/>
<path d="M351.338 350.02C350.776 349.778 350.244 349.55 351.3 342.978C346.684 339.851 346.499 339.074 346.436 338.812C346.377 338.562 346.465 338.19 346.626 337.991C346.855 337.71 347.384 337.054 354.123 337.204C358.493 332.712 359.188 333.011 359.652 333.21C359.891 333.312 360.147 333.627 360.208 333.879C360.364 334.531 360.146 335.961 359.77 338.236C359.651 338.953 359.508 339.821 359.471 340.209C359.714 340.473 360.279 340.999 360.748 341.434C363.246 343.759 363.852 344.446 363.688 345.207C363.627 345.488 363.329 345.815 363.055 345.908C362.225 346.189 358.911 346.023 357.185 345.915C352.38 350.404 351.851 350.209 351.383 350.037C351.368 350.033 351.352 350.026 351.338 350.02ZM348.634 338.984C349.512 339.705 351.175 340.916 352.655 341.906C352.923 342.086 353.062 342.404 353.01 342.722C352.706 344.564 352.429 346.694 352.354 347.932C353.34 347.172 354.955 345.751 356.32 344.468C356.487 344.312 356.711 344.232 356.939 344.247C358.52 344.353 360.329 344.424 361.469 344.415C360.917 343.84 360.133 343.11 359.627 342.639C358.201 341.311 357.939 341.045 357.847 340.663C357.768 340.329 357.834 339.854 358.145 337.966C358.264 337.253 358.447 336.152 358.546 335.321C357.635 336.059 356.226 337.393 355.056 338.606C354.896 338.773 354.673 338.863 354.442 338.859C352.353 338.806 349.939 338.846 348.634 338.984Z" fill="#241726"/>
<path d="M379.083 351.162C378.774 351.03 378.483 350.905 379.061 347.304C376.533 345.591 376.431 345.165 376.397 345.021C376.364 344.884 376.412 344.68 376.501 344.571C376.626 344.417 376.916 344.058 380.608 344.14C383.002 341.679 383.384 341.843 383.638 341.952C383.769 342.008 383.909 342.18 383.942 342.318C384.028 342.675 383.908 343.459 383.702 344.706C383.637 345.099 383.558 345.574 383.539 345.787C383.672 345.931 383.981 346.219 384.238 346.458C385.606 347.731 385.939 348.108 385.849 348.525C385.816 348.679 385.652 348.858 385.502 348.909C385.047 349.063 383.232 348.972 382.286 348.913C379.653 351.372 379.363 351.266 379.107 351.171C379.099 351.169 379.09 351.165 379.083 351.162ZM377.601 345.115C378.082 345.511 378.993 346.174 379.804 346.716C379.951 346.815 380.027 346.989 379.998 347.164C379.832 348.173 379.68 349.34 379.639 350.018C380.179 349.602 381.064 348.823 381.812 348.12C381.903 348.035 382.026 347.991 382.151 347.999C383.017 348.057 384.008 348.096 384.633 348.091C384.331 347.776 383.901 347.376 383.624 347.118C382.843 346.39 382.699 346.244 382.649 346.035C382.605 345.853 382.641 345.592 382.812 344.558C382.877 344.167 382.977 343.564 383.031 343.109C382.533 343.513 381.76 344.244 381.12 344.908C381.032 345 380.91 345.049 380.783 345.047C379.639 345.018 378.316 345.04 377.601 345.115Z" fill="#241726"/>
<path d="M375.822 277.244C375.37 277.239 375.006 276.868 375.008 276.415C375.011 275.962 375.383 275.594 375.837 275.597C377.787 275.609 379.018 275.475 379.03 275.473C379.487 275.414 379.889 275.748 379.941 276.199C379.991 276.651 379.667 277.057 379.215 277.109C379.162 277.115 377.884 277.257 375.827 277.244C375.824 277.244 375.824 277.244 375.822 277.244ZM372.529 277.093C372.508 277.093 372.489 277.093 372.468 277.091C371.343 276.997 370.221 276.857 369.13 276.676C368.682 276.602 368.379 276.177 368.453 275.73C368.527 275.28 368.951 274.982 369.399 275.052C370.445 275.226 371.524 275.36 372.605 275.449C373.058 275.488 373.395 275.885 373.357 276.338C373.321 276.771 372.957 277.098 372.529 277.093ZM366.031 276.015C365.966 276.014 365.9 276.005 365.835 275.989C364.727 275.707 363.64 275.374 362.61 275.004C362.182 274.85 361.96 274.378 362.115 273.951C362.269 273.521 362.745 273.307 363.168 273.454C364.15 273.809 365.184 274.124 366.242 274.395C366.683 274.506 366.949 274.954 366.837 275.395C366.741 275.771 366.401 276.019 366.031 276.015ZM359.845 273.773C359.727 273.772 359.608 273.745 359.494 273.689C358.465 273.188 357.471 272.626 356.541 272.024C356.16 271.778 356.05 271.266 356.299 270.885C356.545 270.502 357.056 270.396 357.437 270.642C358.312 271.209 359.247 271.737 360.216 272.209C360.625 272.41 360.795 272.902 360.595 273.312C360.45 273.606 360.153 273.777 359.845 273.773ZM354.341 270.193C354.155 270.19 353.969 270.126 353.817 269.995C352.954 269.259 352.137 268.457 351.388 267.613C351.086 267.271 351.118 266.751 351.458 266.451C351.797 266.149 352.318 266.181 352.62 266.52C353.318 267.307 354.08 268.056 354.884 268.743C355.23 269.037 355.271 269.557 354.976 269.903C354.811 270.096 354.577 270.195 354.341 270.193ZM349.991 265.284C349.728 265.281 349.47 265.153 349.314 264.916C348.696 263.988 348.129 262.998 347.626 261.971C347.426 261.563 347.596 261.07 348.004 260.87C348.409 260.665 348.904 260.838 349.106 261.247C349.576 262.208 350.107 263.136 350.685 264.005C350.937 264.382 350.834 264.894 350.457 265.146C350.313 265.24 350.15 265.285 349.991 265.284ZM347.096 259.4C346.759 259.397 346.445 259.184 346.327 258.849C345.967 257.814 345.653 256.724 345.392 255.607C345.29 255.164 345.564 254.722 346.007 254.619C346.449 254.513 346.893 254.79 346.996 255.233C347.244 256.294 347.542 257.328 347.882 258.306C348.032 258.735 347.805 259.206 347.375 259.356C347.283 259.386 347.188 259.401 347.096 259.4ZM345.59 253.011C345.189 253.007 344.841 252.71 344.784 252.301C344.674 251.504 344.586 250.683 344.52 249.834L344.461 248.961C344.433 248.507 344.778 248.117 345.233 248.089C345.694 248.059 346.077 248.409 346.104 248.863L346.162 249.708C346.224 250.521 346.31 251.309 346.416 252.074C346.477 252.525 346.164 252.941 345.713 253.002C345.671 253.009 345.63 253.011 345.59 253.011ZM345.214 246.443C345.21 246.443 345.206 246.443 345.202 246.443C344.748 246.432 344.388 246.054 344.399 245.6C344.428 244.442 344.512 243.311 344.648 242.237C344.706 241.786 345.114 241.475 345.569 241.523C346.02 241.581 346.339 241.993 346.282 242.444C346.152 243.462 346.073 244.537 346.045 245.64C346.034 246.091 345.663 246.448 345.214 246.443ZM346.069 239.932C346.004 239.931 345.938 239.922 345.872 239.905C345.432 239.793 345.167 239.344 345.28 238.904C345.572 237.766 345.941 236.676 346.375 235.669C346.556 235.251 347.041 235.059 347.457 235.241C347.875 235.42 348.068 235.905 347.887 236.323C347.486 237.252 347.145 238.257 346.875 239.314C346.779 239.689 346.439 239.936 346.069 239.932ZM359.659 238.163C359.267 238.159 358.871 238.133 358.472 238.087C358.02 238.035 357.696 237.627 357.749 237.176C357.8 236.725 358.198 236.393 358.66 236.452C359.697 236.57 360.719 236.525 361.661 236.317C362.107 236.207 362.544 236.495 362.644 236.94C362.743 237.383 362.463 237.824 362.02 237.922C361.264 238.091 360.47 238.172 359.659 238.163ZM355.376 237.283C355.279 237.282 355.18 237.264 355.084 237.227C354.044 236.818 353.013 236.28 352.018 235.625C351.639 235.375 351.534 234.864 351.783 234.484C352.032 234.104 352.543 233.999 352.923 234.249C353.822 234.841 354.751 235.327 355.685 235.693C356.108 235.86 356.316 236.336 356.15 236.761C356.023 237.087 355.708 237.287 355.376 237.283ZM364.827 236.631C364.571 236.628 364.32 236.506 364.161 236.28C363.9 235.908 363.991 235.395 364.363 235.134C365.156 234.578 365.855 233.86 366.442 233.001C366.697 232.625 367.209 232.527 367.586 232.785C367.961 233.042 368.058 233.554 367.801 233.929C367.103 234.954 366.264 235.813 365.307 236.483C365.161 236.585 364.993 236.633 364.827 236.631ZM348.685 233.929C348.531 233.927 348.374 233.882 348.237 233.789C347.859 233.535 347.758 233.025 348.011 232.647C348.079 232.547 348.147 232.449 348.216 232.35C347.809 231.901 347.417 231.434 347.043 230.949C346.767 230.587 346.833 230.072 347.194 229.794C347.553 229.517 348.071 229.583 348.349 229.943C348.636 230.318 348.935 230.68 349.245 231.029C349.559 230.666 349.886 230.321 350.226 229.992C350.553 229.674 351.075 229.686 351.39 230.011C351.706 230.337 351.697 230.859 351.371 231.175C351.03 231.504 350.703 231.854 350.392 232.222C350.416 232.246 350.441 232.269 350.465 232.292C350.795 232.604 350.81 233.125 350.496 233.456C350.203 233.768 349.725 233.8 349.395 233.54C349.39 233.549 349.385 233.556 349.38 233.564C349.219 233.804 348.954 233.932 348.685 233.929ZM367.924 231.192C367.547 231.188 367.209 230.923 367.128 230.538C366.929 229.587 366.15 228.928 365.533 228.541C365.147 228.3 365.029 227.793 365.271 227.406C365.512 227.021 366.022 226.904 366.405 227.145C367.679 227.942 368.487 228.998 368.74 230.198C368.833 230.643 368.548 231.081 368.104 231.173C368.043 231.186 367.984 231.193 367.924 231.192ZM353.393 229.405C353.117 229.402 352.849 229.261 352.696 229.006C352.462 228.616 352.587 228.111 352.976 227.875C353.963 227.281 355.026 226.797 356.134 226.434C356.569 226.298 357.032 226.529 357.173 226.961C357.314 227.392 357.078 227.858 356.646 227.999C355.656 228.322 354.707 228.756 353.825 229.287C353.69 229.368 353.54 229.406 353.393 229.405ZM345.875 228.525C345.591 228.522 345.316 228.371 345.166 228.106C344.618 227.134 344.124 226.102 343.699 225.04C343.531 224.618 343.737 224.138 344.159 223.971C344.58 223.799 345.061 224.006 345.229 224.43C345.626 225.423 346.087 226.388 346.599 227.299C346.823 227.694 346.682 228.197 346.287 228.419C346.156 228.494 346.015 228.527 345.875 228.525ZM362.887 227.541C362.84 227.541 362.795 227.537 362.749 227.528C361.784 227.354 360.749 227.304 359.68 227.393C359.218 227.426 358.829 227.091 358.792 226.639C358.756 226.185 359.093 225.788 359.546 225.751C360.761 225.654 361.935 225.707 363.041 225.907C363.488 225.988 363.786 226.417 363.705 226.864C363.632 227.264 363.281 227.545 362.887 227.541ZM343.427 222.432C343.066 222.428 342.737 222.185 342.64 221.817C342.473 221.181 342.327 220.527 342.201 219.857L341.953 218.534C341.869 218.087 342.164 217.656 342.61 217.573C343.061 217.483 343.486 217.782 343.571 218.23L343.818 219.553C343.936 220.185 344.076 220.8 344.233 221.401C344.348 221.839 344.085 222.29 343.645 222.406C343.573 222.424 343.499 222.433 343.427 222.432ZM342.141 215.961C341.759 215.957 341.418 215.685 341.343 215.295C341.147 214.281 340.934 213.202 340.7 212.07C340.607 211.623 340.893 211.188 341.338 211.096C341.779 211.001 342.218 211.289 342.311 211.734C342.547 212.875 342.762 213.961 342.959 214.981C343.046 215.427 342.753 215.86 342.307 215.947C342.251 215.958 342.196 215.962 342.141 215.961ZM340.8 209.499C340.427 209.495 340.092 209.236 340.007 208.856C339.772 207.82 339.523 206.754 339.252 205.661C339.143 205.221 339.412 204.774 339.853 204.665C340.295 204.557 340.741 204.826 340.85 205.267C341.124 206.37 341.377 207.449 341.612 208.495C341.712 208.938 341.433 209.379 340.99 209.479C340.926 209.493 340.862 209.499 340.8 209.499ZM339.212 203.094C338.854 203.09 338.526 202.85 338.427 202.487C338.144 201.451 337.843 200.398 337.523 199.338C337.393 198.904 337.639 198.444 338.074 198.314C338.512 198.174 338.968 198.428 339.1 198.864C339.424 199.937 339.728 201.001 340.016 202.055C340.135 202.493 339.876 202.946 339.438 203.065C339.363 203.086 339.286 203.095 339.212 203.094ZM337.305 196.781C336.964 196.777 336.647 196.56 336.532 196.219C336.189 195.19 335.827 194.162 335.444 193.135C335.285 192.711 335.502 192.235 335.927 192.076C336.351 191.92 336.827 192.133 336.986 192.56C337.377 193.604 337.746 194.651 338.096 195.695C338.239 196.128 338.007 196.593 337.575 196.737C337.485 196.768 337.394 196.781 337.305 196.781ZM335 190.608C334.681 190.605 334.379 190.415 334.249 190.103C333.829 189.098 333.389 188.102 332.928 187.117C332.735 186.706 332.912 186.216 333.324 186.023C333.738 185.83 334.227 186.007 334.418 186.419C334.891 187.425 335.34 188.442 335.768 189.467C335.944 189.887 335.745 190.369 335.325 190.544C335.218 190.589 335.108 190.609 335 190.608ZM332.19 184.645C331.899 184.642 331.619 184.485 331.472 184.21C330.96 183.251 330.424 182.308 329.864 181.388C329.628 181.001 329.751 180.494 330.138 180.258C330.526 180.019 331.033 180.142 331.27 180.532C331.847 181.478 332.398 182.447 332.925 183.435C333.139 183.836 332.987 184.334 332.586 184.549C332.459 184.616 332.323 184.647 332.19 184.645ZM328.752 179.027C328.498 179.025 328.247 178.904 328.088 178.679C327.453 177.783 326.792 176.922 326.125 176.12C325.834 175.771 325.881 175.253 326.23 174.96C326.577 174.672 327.098 174.717 327.389 175.066C328.085 175.901 328.772 176.796 329.432 177.729C329.694 178.1 329.607 178.614 329.236 178.877C329.088 178.98 328.92 179.029 328.752 179.027ZM324.533 173.983C324.326 173.981 324.119 173.899 323.96 173.742C323.186 172.969 322.387 172.248 321.583 171.601C321.228 171.317 321.172 170.799 321.458 170.443C321.743 170.091 322.262 170.032 322.615 170.319C323.465 171.003 324.31 171.763 325.125 172.577C325.446 172.899 325.447 173.421 325.125 173.742C324.962 173.906 324.747 173.985 324.533 173.983ZM287.959 170.94C287.653 170.936 287.362 170.762 287.223 170.467C287.029 170.056 287.204 169.566 287.616 169.372C288.023 169.181 288.546 169.329 288.746 169.733C288.944 170.135 288.825 170.602 288.426 170.807C288.417 170.811 288.328 170.857 288.319 170.862C288.201 170.917 288.079 170.941 287.959 170.94ZM319.415 169.871C319.269 169.87 319.122 169.829 318.988 169.746C318.086 169.181 317.146 168.672 316.194 168.236C315.78 168.045 315.599 167.557 315.79 167.142C315.979 166.73 316.468 166.55 316.881 166.738C317.897 167.206 318.901 167.748 319.862 168.351C320.246 168.591 320.364 169.1 320.123 169.486C319.966 169.738 319.693 169.874 319.415 169.871ZM291.029 169.521C290.712 169.518 290.413 169.331 290.281 169.023C290.102 168.605 290.295 168.121 290.714 167.942C291.774 167.488 292.813 167.082 293.83 166.722C294.258 166.574 294.729 166.797 294.881 167.224C295.032 167.652 294.807 168.124 294.379 168.275C293.394 168.623 292.388 169.016 291.361 169.454C291.253 169.502 291.14 169.523 291.029 169.521ZM297.236 167.337C296.878 167.333 296.551 167.095 296.451 166.732C296.331 166.294 296.59 165.84 297.028 165.721C298.137 165.418 299.24 165.165 300.308 164.97C300.75 164.89 301.183 165.186 301.264 165.633C301.347 166.081 301.049 166.509 300.602 166.591C299.581 166.776 298.525 167.017 297.463 167.307C297.387 167.329 297.312 167.338 297.236 167.337ZM313.462 167.149C313.386 167.148 313.308 167.136 313.231 167.115C312.228 166.81 311.19 166.57 310.145 166.401C309.696 166.329 309.39 165.907 309.463 165.458C309.536 165.01 309.955 164.706 310.408 164.777C311.525 164.957 312.636 165.213 313.711 165.539C314.146 165.672 314.391 166.131 314.259 166.565C314.15 166.923 313.819 167.153 313.462 167.149ZM303.707 166.173C303.286 166.169 302.93 165.843 302.896 165.415C302.86 164.963 303.198 164.566 303.652 164.529C304.613 164.452 305.558 164.423 306.495 164.434C306.673 164.436 306.853 164.441 307.033 164.447C307.488 164.464 307.844 164.843 307.829 165.299C307.813 165.752 307.516 166.12 306.978 166.093C306.775 166.085 306.57 166.083 306.37 166.081C305.522 166.071 304.654 166.102 303.781 166.171C303.757 166.172 303.732 166.174 303.707 166.173Z" fill="#241726"/>
<path d="M414.591 237.202C417.651 235.98 419.154 232.477 417.932 229.417C416.71 226.357 413.206 224.854 410.146 226.076L405.264 228.026L409.709 239.152L414.591 237.202Z" fill="#37582A"/>
<path d="M405.264 228.027L398.339 230.793C395.28 232.015 393.776 235.519 394.998 238.578C396.22 241.637 399.724 243.141 402.783 241.919L409.709 239.152L405.264 228.027Z" fill="white"/>
<path d="M398.013 242.295C396.42 241.611 395.192 240.354 394.554 238.755C393.915 237.157 393.939 235.4 394.622 233.807C395.306 232.215 396.562 230.986 398.162 230.348L405.086 227.582C405.332 227.483 405.611 227.603 405.709 227.849L410.155 238.975C410.202 239.093 410.2 239.225 410.15 239.342C410.1 239.459 410.005 239.551 409.887 239.598L402.962 242.364C401.363 243.003 399.605 242.978 398.013 242.295ZM404.997 228.65L398.517 231.238C397.156 231.781 396.085 232.829 395.503 234.185C394.921 235.542 394.9 237.039 395.444 238.4C395.988 239.761 397.034 240.831 398.391 241.414C399.747 241.996 401.245 242.017 402.606 241.473L409.086 238.885L404.997 228.65Z" fill="#241726"/>
<path d="M193.423 242.741C198.034 236.512 196.722 227.725 190.494 223.114C184.265 218.503 175.477 219.815 170.866 226.044C166.255 232.272 167.567 241.06 173.796 245.671C180.025 250.282 188.812 248.97 193.423 242.741Z" fill="#E75634"/>
<path d="M186.3 247.475C186.099 247.389 185.932 247.227 185.845 247.009L176.126 222.682C175.952 222.246 176.164 221.751 176.6 221.576C177.036 221.402 177.531 221.614 177.706 222.051L187.425 246.378C187.599 246.814 187.387 247.308 186.95 247.483C186.732 247.57 186.499 247.56 186.3 247.475Z" fill="white"/>
<path d="M213.815 222.5C216.274 219.177 215.574 214.491 212.252 212.031C208.93 209.572 204.243 210.272 201.784 213.594C199.325 216.916 200.024 221.603 203.346 224.062C206.668 226.521 211.355 225.822 213.815 222.5Z" fill="#37582A"/>
<path d="M210.015 225.024C209.908 224.978 209.819 224.892 209.773 224.776L204.589 211.801C204.496 211.568 204.609 211.304 204.842 211.211C205.075 211.118 205.338 211.231 205.432 211.464L210.615 224.439C210.708 224.672 210.595 224.935 210.362 225.029C210.246 225.075 210.122 225.07 210.015 225.024Z" fill="white"/>
<g clip-path="url(#clip0_227_6553)">
<path d="M425.855 298.402L397.879 294.358C395.455 294.005 393.774 291.756 394.121 289.33L394.605 285.985L391.297 260.256C391.171 259.519 390.585 258.947 389.844 258.84L384.497 258.061C383.985 257.987 383.63 257.511 383.704 256.999C383.778 256.487 384.253 256.132 384.766 256.206L390.112 256.979C391.669 257.201 392.9 258.408 393.151 259.96C396.542 286.335 396.465 285.723 396.464 285.726C396.546 286.046 396.482 285.942 395.979 289.593C395.778 290.993 396.748 292.293 398.148 292.495L426.124 296.539C426.636 296.613 426.991 297.089 426.917 297.601C426.843 298.113 426.368 298.469 425.856 298.394L425.855 298.402Z" fill="black"/>
<path d="M423.591 291.3L395.375 287.222C394.862 287.148 394.507 286.672 394.581 286.16C394.655 285.648 395.131 285.292 395.643 285.366L423.859 289.445C424.473 289.532 425.057 289.152 425.224 288.555L429.733 272.32C429.915 271.664 429.532 270.984 428.876 270.801C428.728 270.761 430.413 271.017 392.671 265.558C392.159 265.484 391.803 265.009 391.877 264.497C391.951 263.985 392.427 263.629 392.939 263.703L428.982 268.913C430.841 269.182 432.036 271.028 431.533 272.821L427.024 289.054C426.605 290.557 425.136 291.519 423.591 291.3Z" fill="black"/>
<path d="M417.711 290.333L417.659 290.325C417.215 290.232 416.932 289.798 417.024 289.354L421.37 268.708C421.464 268.265 421.9 267.98 422.344 268.073C422.787 268.167 423.072 268.602 422.979 269.046L418.633 289.691C418.544 290.115 418.138 290.396 417.711 290.333Z" fill="black"/>
<path d="M409.927 289.208C409.479 289.143 409.167 288.727 409.232 288.277L412.244 267.439C412.309 266.991 412.725 266.679 413.174 266.744C413.622 266.809 413.934 267.225 413.869 267.674L410.857 288.514C410.792 288.962 410.376 289.273 409.927 289.208Z" fill="black"/>
<path d="M402.144 288.083C401.714 288.022 401.407 287.638 401.441 287.206L403.119 266.175C403.155 265.723 403.551 265.384 404.005 265.422C404.457 265.457 404.795 265.854 404.758 266.307L403.08 287.338C403.044 287.79 402.648 288.126 402.196 288.09L402.144 288.083Z" fill="black"/>
<path d="M428.332 281.229L394.081 276.278C393.633 276.213 393.321 275.797 393.386 275.348C393.451 274.899 393.867 274.588 394.316 274.653L428.567 279.604C429.015 279.669 429.327 280.085 429.262 280.534C429.198 280.983 428.782 281.294 428.332 281.229Z" fill="black"/>
<path d="M420.865 308.787C418.465 308.44 416.802 306.213 417.151 303.814C417.499 301.414 419.724 299.751 422.124 300.1C424.522 300.446 426.184 302.673 425.838 305.071C425.488 307.468 423.263 309.132 420.865 308.787ZM421.852 301.954C420.479 301.756 419.204 302.71 419.006 304.083C418.807 305.457 419.761 306.731 421.135 306.93C422.508 307.129 423.783 306.175 423.981 304.801C424.18 303.426 423.227 302.15 421.853 301.95L421.852 301.954Z" fill="black"/>
<path d="M397.282 305.377C394.882 305.031 393.219 302.805 393.566 300.406C393.913 298.006 396.138 296.343 398.538 296.69C400.937 297.037 402.6 299.262 402.253 301.662C401.904 304.059 399.68 305.721 397.282 305.377ZM398.269 298.545C396.896 298.347 395.62 299.299 395.421 300.674C395.223 302.048 396.175 303.323 397.55 303.522C398.924 303.721 400.199 302.769 400.398 301.393C400.597 300.02 399.645 298.743 398.27 298.542L398.269 298.545Z" fill="black"/>
</g>
<defs>
<clipPath id="clip0_227_6553">
<rect width="60" height="60" fill="white" transform="translate(379.644 248.835) rotate(8.22538)"/>
</clipPath>
</defs>
</svg>
