<svg width="48" height="48" viewBox="0 0 48 48" fill="none" xmlns="http://www.w3.org/2000/svg">
<path d="M40.3359 37.3L38.1759 15.7C38.104 14.959 37.7581 14.2716 37.206 13.7723C36.6539 13.2729 35.9354 12.9975 35.1909 13H8.81095C8.06652 12.9975 7.34796 13.2729 6.79588 13.7723C6.24379 14.2716 5.89792 14.959 5.82595 15.7L3.66595 37.3C3.56812 38.2734 3.67541 39.2565 3.9809 40.1858C4.28638 41.1152 4.78329 41.9702 5.43955 42.6958C6.09582 43.4213 6.89687 44.0012 7.79104 44.3981C8.68522 44.795 9.65265 45 10.6309 45H33.3709C34.3492 45 35.3167 44.795 36.2109 44.3981C37.105 44.0012 37.9061 43.4213 38.5623 42.6958C39.2186 41.9702 39.7155 41.1152 40.021 40.1858C40.3265 39.2565 40.4338 38.2734 40.3359 37.3Z" fill="#E75634"/>
<path d="M14 19C15.1046 19 16 18.1046 16 17C16 15.8954 15.1046 15 14 15C12.8954 15 12 15.8954 12 17C12 18.1046 12.8954 19 14 19Z" fill="#EE4D2D"/>
<path d="M30 19C31.1046 19 32 18.1046 32 17C32 15.8954 31.1046 15 30 15C28.8954 15 28 15.8954 28 17C28 18.1046 28.8954 19 30 19Z" fill="#EE4D2D"/>
<path d="M30 18C29.7348 18 29.4804 17.8946 29.2929 17.7071C29.1054 17.5196 29 17.2652 29 17V12C29 10.1435 28.2625 8.36301 26.9497 7.05025C25.637 5.7375 23.8565 5 22 5C20.1435 5 18.363 5.7375 17.0503 7.05025C15.7375 8.36301 15 10.1435 15 12V17C15 17.2652 14.8946 17.5196 14.7071 17.7071C14.5196 17.8946 14.2652 18 14 18C13.7348 18 13.4804 17.8946 13.2929 17.7071C13.1054 17.5196 13 17.2652 13 17V12C13 9.61305 13.9482 7.32387 15.636 5.63604C17.3239 3.94821 19.6131 3 22 3C24.3869 3 26.6761 3.94821 28.364 5.63604C30.0518 7.32387 31 9.61305 31 12V17C31 17.2652 30.8946 17.5196 30.7071 17.7071C30.5196 17.8946 30.2652 18 30 18Z" fill="#241726"/>
<path d="M34 45C40.0751 45 45 40.0751 45 34C45 27.9249 40.0751 23 34 23C27.9249 23 23 27.9249 23 34C23 40.0751 27.9249 45 34 45Z" fill="#37582A"/>
<path d="M32.9994 38C32.7342 38 32.4799 37.8946 32.2924 37.707L29.2924 34.707C29.1103 34.5184 29.0095 34.2658 29.0118 34.0036C29.014 33.7414 29.1192 33.4906 29.3046 33.3052C29.49 33.1198 29.7408 33.0146 30.003 33.0123C30.2652 33.0101 30.5178 33.1109 30.7064 33.293L32.9994 35.586L38.2924 30.293C38.481 30.1109 38.7336 30.0101 38.9958 30.0123C39.258 30.0146 39.5088 30.1198 39.6943 30.3052C39.8797 30.4906 39.9848 30.7414 39.9871 31.0036C39.9894 31.2658 39.8886 31.5184 39.7064 31.707L33.7064 37.707C33.5189 37.8946 33.2646 38 32.9994 38Z" fill="white"/>
</svg>
