<svg width="29" height="36" viewBox="0 0 29 36" fill="none" xmlns="http://www.w3.org/2000/svg">
    <path d="M9 20.25H18M9 24.75H13.5M13.5 33.75C19.7134 33.75 24.75 28.7134 24.75 22.5C24.75 16.2866 19.7134 11.25 13.5 11.25C7.28662 11.25 2.25 16.2866 2.25 22.5C2.25 24.5486 2.79787 26.4712 3.75525 28.125L2.8125 33.1875L7.875 32.2448C9.58459 33.2334 11.5251 33.7527 13.5 33.75Z" stroke="#008080" stroke-linecap="round" stroke-linejoin="round"/>
    <path fill-rule="evenodd" clip-rule="evenodd" d="M24.6682 0.421399C24.441 -0.139815 23.5596 -0.139815 23.3325 0.421399L22.3017 2.97161L19.4682 3.89926C18.8446 4.10369 18.8446 4.89697 19.4682 5.1014L22.3017 6.02904L23.3325 8.57926C23.5596 9.14047 24.441 9.14047 24.6682 8.57926L25.6989 6.02904L28.5325 5.1014C29.156 4.89697 29.156 4.10369 28.5325 3.89926L25.6989 2.97161L24.6682 0.421399Z" fill="#008080"/>
</svg>
