<svg width="40" height="40" viewBox="0 0 40 40" fill="none" xmlns="http://www.w3.org/2000/svg">
<g clip-path="url(#clip0_2294_16188)">
<path d="M33.9245 13.873H3.9689C3.22935 13.873 2.62988 14.4825 2.62988 15.2344V18.8912H35.2635V15.2344C35.2635 14.4825 34.664 13.873 33.9245 13.873Z" fill="#FFB125"/>
<path d="M23.0492 6.31324L20.3365 34.2334C20.2683 34.9348 19.6539 35.4472 18.964 35.3779L5.21878 33.9975C4.52895 33.9282 4.02493 33.3035 4.09309 32.6022L6.80585 4.68198C6.87401 3.98065 7.48846 3.46823 8.17829 3.53753L21.9235 4.91792C22.6134 4.98722 23.1174 5.61191 23.0492 6.31324Z" fill="#B6FA4C"/>
<path d="M21.9235 4.91792L8.17831 3.53753C7.48848 3.46823 6.87395 3.98065 6.80587 4.68198L6.5625 7.18691C6.76867 7.08042 7.00566 7.02949 7.25295 7.05433L20.9982 8.43472C21.688 8.50402 22.192 9.12871 22.1239 9.83004L19.6545 35.2453C20.0236 35.0546 20.2928 34.6834 20.3366 34.2334L23.0493 6.31331C23.1174 5.61191 22.6134 4.98722 21.9235 4.91792Z" fill="#A8E83A"/>
<path d="M8.26207 8.64114L6.28302 29.0096C6.25467 29.3012 6.38976 29.5853 6.63428 29.7402C7.3082 30.1674 7.82998 30.8082 8.11676 31.5606C8.21981 31.8309 8.4661 32.0174 8.74988 32.0459L15.8754 32.7616C16.1592 32.7901 16.4366 32.6562 16.5897 32.4115C17.0157 31.7307 17.6508 31.2061 18.3939 30.9213C18.6635 30.8179 18.8506 30.5661 18.8789 30.2746L20.8579 9.90614C20.8863 9.61458 20.7512 9.33044 20.5067 9.17551C19.8328 8.7484 19.311 8.10754 19.0242 7.3552C18.9212 7.08481 18.6749 6.89832 18.3911 6.86981L11.2656 6.15418C10.9818 6.12567 10.7044 6.25957 10.5513 6.50426C10.1252 7.18504 9.4902 7.70965 8.74712 7.9945C8.47747 8.09786 8.29035 8.34958 8.26207 8.64114Z" fill="#77DD00"/>
<path d="M20.5064 9.17552C19.8325 8.7484 19.3108 8.10754 19.024 7.3552C18.9209 7.08481 18.6746 6.89832 18.3908 6.86981L11.2654 6.15418C10.9815 6.12567 10.7042 6.25957 10.551 6.50426C10.125 7.18504 9.48996 7.70965 8.74687 7.9945C8.47723 8.09786 8.29019 8.34965 8.26183 8.64114L8.18652 9.41653L17.4191 10.3148C17.703 10.3433 17.9492 10.5298 18.0523 10.8002C18.3391 11.5526 18.8608 12.1933 19.5348 12.6205C19.7793 12.7755 19.9143 13.0597 19.886 13.3511L18.1696 31.0167C18.2432 30.9826 18.3177 30.9504 18.3937 30.9213C18.6633 30.8179 18.8505 30.5661 18.8787 30.2746L20.8578 9.90614C20.886 9.61466 20.751 9.33052 20.5064 9.17552Z" fill="#73CC00"/>
<path d="M34.7029 10.473L19.1623 33.6574C18.772 34.2398 17.9911 34.3901 17.4183 33.9933L6.00449 26.0854C5.43162 25.6886 5.28377 24.8947 5.67414 24.3123L21.2147 1.12789C21.6051 0.545469 22.3859 0.395156 22.9588 0.792032L34.3725 8.69986C34.9453 9.09674 35.0933 9.89056 34.7029 10.473Z" fill="#B6FA4C"/>
<path d="M34.3727 8.69992L22.9588 0.792011C22.3859 0.395135 21.6051 0.545526 21.2147 1.12787L19.8855 3.11108C20.0008 3.1478 20.1129 3.20178 20.2181 3.27452L31.6318 11.1823C32.2047 11.5792 32.3526 12.373 31.9622 12.9555L17.751 34.1568C18.2646 34.3201 18.8437 34.1329 19.1625 33.6574L34.703 10.473C35.0934 9.89062 34.9454 9.09679 34.3727 8.69992Z" fill="#A8E83A"/>
<path d="M20.6283 5.31289L9.29102 22.2265C9.12872 22.4686 9.11336 22.7838 9.2549 23.0389C9.64512 23.7421 9.80104 24.5589 9.69814 25.3589C9.66118 25.6464 9.78936 25.93 10.025 26.0934L15.9419 30.1928C16.1776 30.3561 16.4842 30.3736 16.7339 30.2335C17.4286 29.8435 18.2333 29.6924 19.0198 29.8044C19.3052 29.845 19.588 29.7152 19.7503 29.4731L31.0876 12.5595C31.2498 12.3174 31.2652 12.0022 31.1237 11.747C30.7335 11.0438 30.5775 10.2271 30.6804 9.42711C30.7174 9.13961 30.5892 8.85594 30.3535 8.69258L24.4367 4.5932C24.201 4.42992 23.8944 4.41234 23.6447 4.55249C22.95 4.94249 22.1452 5.09359 21.3588 4.98156C21.0734 4.94093 20.7905 5.07078 20.6283 5.31289Z" fill="#77DD00"/>
<path d="M31.1228 11.747C30.7326 11.0438 30.5767 10.2272 30.6796 9.42711C30.7166 9.13961 30.5884 8.85594 30.3527 8.69258L24.4358 4.5932C24.2002 4.42992 23.8936 4.41234 23.6439 4.55249C22.9491 4.94249 22.1445 5.09359 21.358 4.98156C21.0726 4.94093 20.7897 5.07078 20.6274 5.31289L20.1549 6.01781L27.5497 11.0855C27.7853 11.2488 27.9136 11.5324 27.8765 11.82C27.7737 12.6201 27.9296 13.4367 28.3198 14.1399C28.4613 14.3951 28.446 14.7102 28.2837 14.9524L18.3496 29.7727C18.5723 29.7628 18.7964 29.7726 19.019 29.8043C19.3044 29.845 19.5873 29.7151 19.7496 29.4731L31.0868 12.5595C31.249 12.3174 31.2645 12.0022 31.1228 11.747Z" fill="#73CC00"/>
<path d="M21.9256 19.9544C24.1681 19.9544 25.986 18.1062 25.986 15.8263C25.986 13.5464 24.1681 11.6982 21.9256 11.6982C19.6831 11.6982 17.8652 13.5464 17.8652 15.8263C17.8652 18.1062 19.6831 19.9544 21.9256 19.9544Z" fill="#B6FA4C"/>
<path d="M34.3877 39.4301H3.10688C2.04036 39.4301 1.17578 38.5511 1.17578 37.4668V18.0375C1.17578 16.9532 2.04036 16.0742 3.10688 16.0742H34.3877C35.4542 16.0742 36.3188 16.9532 36.3188 18.0375V37.4668C36.3189 38.5511 35.4542 39.4301 34.3877 39.4301Z" fill="#FFB125"/>
<path d="M34.3882 16.0742H30.875C31.9415 16.0742 32.8061 16.9532 32.8061 18.0376V37.4669C32.8061 38.5512 31.9415 39.4302 30.875 39.4302H34.3882C35.4547 39.4302 36.3193 38.5512 36.3193 37.4669V18.0376C36.3193 16.9532 35.4547 16.0742 34.3882 16.0742Z" fill="#FF901D"/>
<path d="M37.4682 23.999H30.4277C28.389 23.999 26.7363 25.6793 26.7363 27.7519C26.7363 29.8246 28.389 31.5048 30.4277 31.5048H37.4682C37.8546 31.5048 38.1679 31.1863 38.1679 30.7935V24.7103C38.1679 24.3175 37.8546 23.999 37.4682 23.999Z" fill="#FF6D3A"/>
<path d="M37.4681 23.999H33.9425C34.3289 23.999 34.6422 24.3175 34.6422 24.7104V29.8343C34.6422 30.2533 34.308 30.5929 33.896 30.5929H30.4277C28.5409 30.5929 26.9858 29.1535 26.7644 27.296C26.7466 27.4455 26.7363 27.5975 26.7363 27.7519C26.7363 29.8246 28.389 31.5049 30.4278 31.5049H33.9426H37.4682C37.8546 31.5049 38.1679 31.1865 38.1679 30.7936V29.8816V24.7104C38.1679 24.3175 37.8546 23.999 37.4681 23.999Z" fill="#ED5729"/>
<path d="M34.3877 16.0742H3.10688C2.04036 16.0742 1.17578 16.9532 1.17578 18.0375V20.189H36.3189V18.0375C36.3189 16.9532 35.4542 16.0742 34.3877 16.0742Z" fill="#FF6D3A"/>
<path d="M35.9895 16.9399C35.9201 16.8355 35.841 16.7382 35.7536 16.6494C35.7526 16.6484 35.7515 16.6473 35.7505 16.6463C35.6639 16.5588 35.5693 16.4794 35.4678 16.4096C35.4421 16.392 35.416 16.3749 35.3894 16.3585C35.3499 16.3341 35.3092 16.3116 35.2679 16.2901C35.2411 16.2761 35.214 16.2628 35.1866 16.2501C34.9431 16.1375 34.673 16.0742 34.388 16.0742H30.875C31.9414 16.0743 32.8059 16.9533 32.8059 18.0376V20.1891H36.3191V18.0377C36.3191 17.6988 36.2347 17.38 36.086 17.1018C36.0565 17.0462 36.0241 16.9921 35.9895 16.9399Z" fill="#ED5729"/>
<path d="M3.10696 39.4302H34.3878C35.4543 39.4302 36.3189 38.5512 36.3189 37.4669V35.3154H1.17578V37.4669C1.17578 38.5511 2.04043 39.4302 3.10696 39.4302Z" fill="#FF6D3A"/>
<path d="M32.8057 35.3154V37.4669C32.8057 37.468 32.8057 37.4692 32.8057 37.4703C32.8054 37.6515 32.6561 37.7964 32.4778 37.7964H3.10688C2.04036 37.7964 1.17578 36.9174 1.17578 35.8331V37.467C1.17578 38.5513 2.04036 39.4303 3.10688 39.4303H30.8746H34.3878C34.4259 39.4303 34.4637 39.4289 34.5013 39.4266C34.513 39.4259 34.5246 39.4248 34.5363 39.4239C34.5625 39.4218 34.5886 39.4194 34.6145 39.4163C34.6273 39.4148 34.6401 39.4131 34.653 39.4113C34.6787 39.4077 34.7042 39.4035 34.7297 39.3989C34.741 39.3968 34.7523 39.395 34.7635 39.3927C34.7994 39.3855 34.8351 39.3775 34.8702 39.3684C34.8702 39.3684 34.8703 39.3684 34.8704 39.3684C34.8858 39.3643 34.9009 39.3596 34.9162 39.3552C34.9925 39.3332 35.0672 39.307 35.1394 39.276C35.1683 39.2636 35.1968 39.2504 35.2249 39.2367C35.2531 39.2229 35.2808 39.2084 35.3082 39.1933L35.3083 39.1932C35.3629 39.1631 35.416 39.1303 35.4674 39.095L35.4674 39.095L35.4675 39.0949C35.5112 39.0649 35.5534 39.0327 35.5944 38.9993C35.5963 38.9977 35.5983 38.9961 35.6002 38.9946C35.6418 38.9604 35.6818 38.9244 35.7205 38.8869C35.766 38.8428 35.8093 38.7965 35.8504 38.748C35.9147 38.6722 35.9734 38.5915 36.0258 38.5064C36.0273 38.5041 36.0287 38.5018 36.0301 38.4995C36.0494 38.4679 36.0681 38.4358 36.0856 38.403C36.0856 38.4029 36.0857 38.4029 36.0857 38.4028V38.4027C36.1324 38.3153 36.1725 38.2238 36.2059 38.129C36.2098 38.1182 36.2131 38.1072 36.2168 38.0964C36.2249 38.0722 36.2326 38.0478 36.2397 38.0231C36.2433 38.0106 36.2469 37.998 36.2503 37.9854C36.2569 37.9607 36.263 37.9357 36.2687 37.9106C36.2713 37.8991 36.2742 37.8877 36.2765 37.8761C36.2841 37.8399 36.2909 37.8035 36.2965 37.7665C36.2965 37.7663 36.2966 37.7661 36.2966 37.7659C36.2966 37.7658 36.2966 37.7657 36.2966 37.7656C36.3031 37.7225 36.3077 37.6787 36.3113 37.6347C36.3122 37.6236 36.313 37.6125 36.3138 37.6013C36.3167 37.5568 36.3188 37.5122 36.3188 37.467V35.8332V35.3155H32.8057V35.3154Z" fill="#ED5729"/>
<path d="M30.5596 29.4948C31.5062 29.4948 32.2736 28.7146 32.2736 27.7523C32.2736 26.7899 31.5062 26.0098 30.5596 26.0098C29.6131 26.0098 28.8457 26.7899 28.8457 27.7523C28.8457 28.7146 29.6131 29.4948 30.5596 29.4948Z" fill="#F2F2F2"/>
<path d="M37.4684 23.4292H36.8797V20.189V18.0375C36.8797 17.1839 36.4618 16.4281 35.8236 15.9689V15.2348C35.8236 14.1699 34.9714 13.3035 33.924 13.3035H33.4844L35.1664 10.7941C35.7302 9.95305 35.5158 8.80234 34.6885 8.22906L23.2747 0.321153C22.874 0.0434177 22.3909 -0.0590825 21.9142 0.0328708C21.4377 0.124668 21.0248 0.39959 20.7517 0.807091L10.9002 15.5042H8.15874L8.82014 8.69719C8.8276 8.62047 8.87662 8.55398 8.94501 8.52781C9.79714 8.20117 10.5356 7.59117 11.0243 6.81023C11.0628 6.74874 11.1355 6.71359 11.2106 6.72132L15.5104 7.1532C15.8187 7.18359 16.093 6.95531 16.1234 6.64202C16.1539 6.32874 15.9288 6.04976 15.6206 6.01882L11.3208 5.58694C10.8217 5.53726 10.3457 5.77109 10.0783 6.19827C9.71899 6.77249 9.17601 7.22093 8.5495 7.46109C8.0779 7.64187 7.75408 8.0725 7.70428 8.58508L7.03205 15.5042H6.31717L7.36317 4.73819C7.40083 4.35069 7.74102 4.066 8.12263 4.10483L16.8117 4.97749C17.1199 5.00772 17.3943 4.7796 17.4247 4.46632C17.4551 4.15304 17.2301 3.87405 16.9219 3.84311L8.23282 2.97045C7.23661 2.87053 6.34575 3.61311 6.24731 4.62608L5.40418 13.3034H3.96834C2.92095 13.3034 2.06875 14.1698 2.06875 15.2347V15.7355C1.21185 16.1366 0.615234 17.0172 0.615234 18.0374V20.1889V35.3152V37.4667C0.615234 38.8636 1.73301 40 3.10707 40H34.3879C35.7619 40 36.8797 38.8636 36.8797 37.4667V35.3152V32.075H37.4684C38.1634 32.075 38.7288 31.5003 38.7288 30.7938V24.7106C38.7288 24.004 38.1634 23.4292 37.4684 23.4292ZM33.924 14.4434C34.3532 14.4434 34.7023 14.7984 34.7023 15.2348V15.5252C34.5992 15.5119 34.4945 15.5043 34.3879 15.5043H32.0092L32.7202 14.4434H33.924V14.4434ZM21.6782 1.44897C21.7827 1.29311 21.9406 1.18795 22.1229 1.15279C22.1665 1.14444 22.2102 1.14022 22.2536 1.14022C22.3917 1.14022 22.5266 1.18225 22.6433 1.26303L34.0571 9.17086C34.3735 9.39016 34.4556 9.83031 34.24 10.152L30.6524 15.5041H29.7914L31.5503 12.8801C31.8356 12.4545 31.8591 11.913 31.6115 11.4666C31.2825 10.8737 31.1491 10.1755 31.2359 9.50055C31.3004 8.99844 31.0831 8.50828 30.6688 8.22125L24.7519 4.12186C24.3375 3.83475 23.8093 3.80843 23.3732 4.05319C22.7873 4.3821 22.0993 4.51124 21.4362 4.41686C20.9443 4.34671 20.4455 4.57249 20.1645 4.99163L13.118 15.5042H12.257L21.6782 1.44897ZM21.9251 11.128C19.4837 11.128 17.4796 13.0634 17.3163 15.5042H14.4747L21.0909 5.63359C21.091 5.63359 21.091 5.63359 21.091 5.63359C21.1285 5.57741 21.1909 5.54398 21.2549 5.54398C21.2634 5.54398 21.2719 5.5446 21.2805 5.54577C22.1825 5.67405 23.118 5.49859 23.9151 5.05116C23.9778 5.01585 24.0583 5.02093 24.1204 5.0639L30.0373 9.16336C30.0993 9.20633 30.1333 9.2807 30.1241 9.35289C30.006 10.2708 30.1875 11.2203 30.635 12.0267C30.6709 12.0915 30.6665 12.1745 30.6239 12.2381L28.4348 15.5041H26.5342C26.3707 13.0634 24.3667 11.128 21.9251 11.128ZM25.4099 15.5042H18.4404C18.6011 13.6926 20.1021 12.268 21.9251 12.268C23.7482 12.2679 25.2493 13.6926 25.4099 15.5042ZM3.18998 15.2347C3.18998 14.7983 3.53909 14.4433 3.96834 14.4433H5.29345L5.1904 15.5042H3.18998V15.2347ZM1.73647 18.0374C1.73647 17.2692 2.3513 16.6441 3.10707 16.6441H34.3879C35.1437 16.6441 35.7584 17.2692 35.7584 18.0374V19.619H1.73647V18.0374ZM35.7584 34.7454H8.34939C8.03971 34.7454 7.78881 35.0005 7.78881 35.3153C7.78881 35.6301 8.03979 35.8852 8.34939 35.8852H35.7584V37.4668C35.7584 38.2351 35.1437 38.8601 34.3879 38.8601H3.10707C2.3513 38.8601 1.73647 38.2351 1.73647 37.4668V35.8852H4.75968C5.06937 35.8852 5.32026 35.6301 5.32026 35.3153C5.32026 35.0005 5.06929 34.7454 4.75968 34.7454H1.73647V20.7589H35.7584V23.4292H30.428H30.4279C28.7484 23.4292 27.2936 24.4246 26.6032 25.8653C26.6009 25.8701 26.5982 25.8748 26.5959 25.8796C26.59 25.8919 26.585 25.9046 26.5793 25.917C26.497 26.0946 26.4256 26.2784 26.3674 26.4681C26.3673 26.4686 26.3671 26.4691 26.3669 26.4696C26.2428 26.875 26.1759 27.3057 26.1759 27.7521C26.1759 30.1358 28.0833 32.075 30.4279 32.075H30.4279H35.7583V34.7454H35.7584ZM37.6076 30.7937C37.6076 30.8717 37.5452 30.9351 37.4684 30.9351H36.319H30.428C29.2412 30.9351 28.2064 30.2602 27.6756 29.2681C27.6515 29.223 27.6284 29.1772 27.6064 29.1309C27.5623 29.0382 27.5226 28.9429 27.4875 28.8454C27.3644 28.5043 27.2972 28.1361 27.2972 27.7521C27.2972 27.3682 27.3645 27 27.4875 26.6589C27.5227 26.5614 27.5624 26.4662 27.6064 26.3734C27.6284 26.3271 27.6515 26.2813 27.6756 26.2362C28.2064 25.2441 29.2412 24.5692 30.428 24.5692H36.319H37.4684C37.5451 24.5692 37.6076 24.6326 37.6076 24.7106V30.7937Z" fill="black"/>
<path d="M30.5598 25.4395C29.3055 25.4395 28.2852 26.4769 28.2852 27.752C28.2852 29.027 29.3055 30.0644 30.5598 30.0644C31.814 30.0644 32.8343 29.027 32.8343 27.752C32.8343 26.4769 31.814 25.4395 30.5598 25.4395ZM30.5598 28.9245C29.9238 28.9245 29.4064 28.3984 29.4064 27.752C29.4064 27.1055 29.9238 26.5794 30.5598 26.5794C31.1957 26.5794 31.7131 27.1054 31.7131 27.752C31.7131 28.3985 31.1957 28.9245 30.5598 28.9245Z" fill="black"/>
</g>
<defs>
<clipPath id="clip0_2294_16188">
<rect width="39.3443" height="40" fill="white"/>
</clipPath>
</defs>
</svg>
