<svg width="55" height="55" viewBox="0 0 55 55" fill="none" xmlns="http://www.w3.org/2000/svg">
<g clip-path="url(#clip0_5404_33415)">
<path d="M23.5817 25.5781C22.5352 25.5781 21.6868 24.7298 21.6868 23.6833C21.6868 22.6368 22.5352 21.7885 23.5817 21.7885C24.6281 21.7885 25.4765 22.6368 25.4765 23.6833C25.4765 24.7298 24.6281 25.5781 23.5817 25.5781Z" fill="#6B8DF2"/>
<path d="M42.1729 34.4065L54.8525 47.0851C55.4471 47.6795 54.19 49.9004 52.0449 52.0453C49.8997 54.1903 47.6787 55.4471 47.0842 54.8526L43.5281 51.2965L42.1729 34.4065Z" fill="#F2A7D0"/>
<path d="M38.7654 42.174L50.2322 53.6398C48.7662 54.7557 47.5093 55.2776 47.0842 54.8525L43.5281 51.2964L38.7654 42.174Z" fill="#F294C7"/>
<path d="M37.8424 30.0764L51.2964 43.529C51.891 44.1234 50.6339 46.3443 48.4888 48.4892C46.3436 50.6342 44.1226 51.891 43.5281 51.2965L41.8299 49.5986L40.7589 47.4778L39.0174 46.7864L30.074 37.844L37.8424 30.0764Z" fill="#FFCA21"/>
<path d="M32.2546 35.6636L46.6761 50.0838C45.2101 51.1997 43.9532 51.7216 43.5281 51.2965L41.8299 49.5986L41.0091 47.4595L39.0174 46.7863L30.074 37.8439L32.2546 35.6636Z" fill="#F2BB0C"/>
<path d="M30.1688 37.9319C29.5743 37.3374 30.8311 35.1169 32.9758 32.9721C35.1206 30.8274 37.3411 29.5706 37.9356 30.165C38.53 30.7595 37.2732 32.98 35.1285 35.1248C32.9837 37.2695 30.7632 38.5263 30.1688 37.9319Z" fill="#EB67A5"/>
<path d="M27.3009 35.9863C27.5935 35.9863 27.8766 35.8288 28.0235 35.5523C28.2355 35.1537 28.0842 34.6586 27.6855 34.4465C24.184 32.5846 16.9241 29.9643 7.64326 33.3339C7.21883 33.488 6.99969 33.957 7.15373 34.3814C7.30788 34.8059 7.77678 35.025 8.20131 34.871C16.8872 31.7172 23.6559 34.1559 26.9176 35.8904C27.0401 35.9554 27.1715 35.9863 27.3009 35.9863Z" fill="#B5C8FF"/>
<path d="M28.903 29.7199C29.1123 29.7199 29.3215 29.6401 29.4813 29.4803C29.8005 29.161 29.8005 28.6433 29.4812 28.324L27.9464 26.7895C27.6273 26.4701 27.1095 26.4703 26.7901 26.7896C26.4709 27.109 26.4709 27.6267 26.7902 27.9459L28.325 29.4804C28.4846 29.6401 28.6939 29.7199 28.903 29.7199Z" fill="#B5C8FF"/>
<path d="M20.2984 21.1155C20.5078 21.1155 20.7171 21.0356 20.8769 20.8758C21.196 20.5564 21.1958 20.0387 20.8763 19.7194L9.52915 8.38159C9.20979 8.06244 8.69201 8.06266 8.37286 8.38202C8.05371 8.7015 8.05393 9.21916 8.3734 9.53842L19.7206 20.8763C19.8801 21.0358 20.0894 21.1155 20.2984 21.1155Z" fill="#B5C8FF"/>
<path d="M13.8081 5.58841C12.7616 5.58841 11.9133 4.74007 11.9133 3.6936C11.9133 2.64712 12.7616 1.79878 13.8081 1.79878C14.8546 1.79878 15.7029 2.64712 15.7029 3.6936C15.7029 4.74007 14.8546 5.58841 13.8081 5.58841Z" fill="#6B8DF2"/>
<path d="M3.80282 15.6751C2.75634 15.6751 1.908 14.8268 1.908 13.7803C1.908 12.7338 2.75634 11.8855 3.80282 11.8855C4.84929 11.8855 5.69763 12.7338 5.69763 13.7803C5.69763 14.8268 4.84929 15.6751 3.80282 15.6751Z" fill="#6B8DF2"/>
<path d="M20.9824 41.8967C19.9359 41.8967 19.0875 41.0483 19.0875 40.0019C19.0875 38.9554 19.9359 38.1071 20.9824 38.1071C22.0288 38.1071 22.8772 38.9554 22.8772 40.0019C22.8772 41.0483 22.0288 41.8967 20.9824 41.8967Z" fill="#6B8DF2"/>
<path d="M4.04386 27.2786L6.04395 26.1867L8.07906 27.212L7.65657 24.9761L9.26263 23.3613L7.00141 23.0713L5.95887 21.0479L4.98381 23.1046L2.73343 23.4689L4.39202 25.0299L4.04386 27.2786Z" fill="#FFCA21"/>
<path d="M4.438 7.27783L5.08017 5.09148L7.24429 4.37744L5.36451 3.09515L5.35829 0.817589L3.55435 2.21149L1.38636 1.51798L2.15121 3.66169L0.817669 5.51053L3.09426 5.44156L4.438 7.27783Z" fill="#FFCA21"/>
<path d="M13.3725 50.6002L15.3726 49.5083L17.4077 50.5337L16.9853 48.2977L18.5913 46.6829L16.3301 46.3929L15.2875 44.3695L14.3125 46.4262L12.0622 46.7906L13.7208 48.3516L13.3725 50.6002Z" fill="#FFCA21"/>
<path d="M10.3188 18.7845C9.26661 18.7845 9.26489 17.1493 10.3188 17.1493C11.3711 17.1493 11.3728 18.7845 10.3188 18.7845Z" fill="#EB67A5"/>
<path d="M0.789851 31.3557C-0.262347 31.3557 -0.264173 29.7204 0.789851 29.7204C1.84205 29.7204 1.84377 31.3557 0.789851 31.3557Z" fill="#EB67A5"/>
<path d="M30.5254 1.63528C29.4732 1.63528 29.4715 0 30.5254 0C31.5776 0 31.5794 1.63528 30.5254 1.63528Z" fill="#EB67A5"/>
<path d="M3.8417 36.3734C2.78951 36.3734 2.78779 34.7381 3.8417 34.7381C4.89401 34.7381 4.89573 36.3734 3.8417 36.3734Z" fill="#EB67A5"/>
<path d="M35.1215 27.9433C35.2491 27.9433 35.3785 27.9134 35.4996 27.8502C35.8997 27.6411 36.0546 27.147 35.8454 26.7468C34.1523 23.5076 31.7786 16.7935 34.9036 8.22068C35.0582 7.79647 34.8396 7.32714 34.4154 7.17245C33.9912 7.01766 33.5218 7.23648 33.3671 7.66058C30.0272 16.8232 32.5782 24.0262 34.3962 27.5042C34.5422 27.7836 34.8269 27.9433 35.1215 27.9433Z" fill="#B5C8FF"/>
<path d="M40.0464 22.8665C38.9979 22.8665 38.148 22.0197 38.148 20.9752C38.148 19.9307 38.9979 19.0839 40.0464 19.0839C41.0949 19.0839 41.9449 19.9307 41.9449 20.9752C41.9449 22.0197 41.0949 22.8665 40.0464 22.8665Z" fill="#6B8DF2"/>
<path d="M6.60137 40.7562C6.86649 40.688 6.94576 40.5712 7.15652 40.2124C7.40413 39.791 7.77828 39.1541 8.71425 38.9133C9.64979 38.6724 10.2853 39.0493 10.706 39.2985C11.0647 39.5112 11.1909 39.5751 11.4566 39.5069C11.7218 39.4387 11.8011 39.3219 12.0118 38.9632C12.2593 38.5418 12.6334 37.9049 13.5694 37.664C14.0072 37.5513 14.4525 37.8149 14.5651 38.2521C14.6777 38.6894 14.4143 39.1352 13.977 39.2477C13.7117 39.3159 13.6325 39.4326 13.4218 39.7914C13.1743 40.2128 12.8001 40.8496 11.8642 41.0905C10.9284 41.3313 10.2928 40.9546 9.87226 40.7053C9.51358 40.4927 9.38746 40.4284 9.12181 40.497C8.85658 40.5652 8.77731 40.682 8.56655 41.0407C8.31894 41.4622 7.94479 42.099 7.00882 42.3398C6.9405 42.3574 6.87186 42.3658 6.8045 42.3658C6.44024 42.3658 6.10809 42.1207 6.01312 41.7517C5.90076 41.3145 6.16405 40.8687 6.60137 40.7562Z" fill="#F2A7D0"/>
<path d="M12.6835 26.8549C12.2872 26.6384 12.1417 26.1415 12.3582 25.7453C12.575 25.349 13.0718 25.2033 13.4679 25.4201C13.7084 25.5515 13.8464 25.5205 14.2468 25.4026C14.716 25.2644 15.4249 25.0555 16.2722 25.5188C17.1203 25.9824 17.3259 26.692 17.4619 27.1613C17.5775 27.5606 17.6255 27.693 17.8654 27.8242C18.1059 27.9557 18.244 27.9246 18.6442 27.8066C19.1133 27.6684 19.8221 27.4595 20.6697 27.9228C21.0659 28.1394 21.2115 28.6362 20.9949 29.0325C20.7782 29.4288 20.2813 29.5743 19.8853 29.3576C19.6445 29.2263 19.5066 29.2573 19.1065 29.3753C18.8546 29.4495 18.5337 29.544 18.1592 29.544C17.8363 29.544 17.4733 29.4736 17.0809 29.259C16.2327 28.7953 16.0271 28.0859 15.8911 27.6164C15.7755 27.2173 15.7275 27.0847 15.4877 26.9537C15.2474 26.8223 15.1093 26.8532 14.7088 26.9712C14.2398 27.1093 13.5308 27.3182 12.6835 26.8549Z" fill="#F2A7D0"/>
<path d="M39.0077 12.0202C39.3671 11.8099 39.484 11.7308 39.5521 11.467C39.6201 11.2037 39.5561 11.0781 39.3437 10.721C39.0936 10.3007 38.7157 9.6655 38.9573 8.72996C39.1989 7.79486 39.8369 7.42146 40.2592 7.17428C40.6187 6.96395 40.7356 6.88478 40.8037 6.62106C40.9168 6.18396 41.362 5.92088 41.8 6.03389C42.2372 6.1469 42.5 6.59291 42.3871 7.03012C42.1456 7.96523 41.5075 8.33863 41.0852 8.5857C40.7256 8.79603 40.6088 8.87509 40.5407 9.13892C40.4727 9.40221 40.5366 9.52779 40.7491 9.88486C40.9991 10.3052 41.3771 10.9404 41.1355 11.8759C40.8939 12.811 40.2558 13.1844 39.8335 13.4315C39.474 13.6418 39.3571 13.721 39.289 13.9847C39.1937 14.3534 38.8618 14.598 38.4978 14.598C38.4302 14.598 38.3613 14.5895 38.2928 14.5718C37.8556 14.4588 37.5927 14.0128 37.7056 13.5755C37.9473 12.6407 38.5853 12.2673 39.0077 12.0202Z" fill="#F2A7D0"/>
<path d="M25.438 13.4775C25.2208 13.0816 25.3656 12.5846 25.7615 12.3674C26.1573 12.15 26.6542 12.2949 26.8717 12.6907C27.3366 13.538 27.127 14.2465 26.9883 14.7154C26.8706 15.1136 26.8394 15.2509 26.9705 15.4895C27.1018 15.7287 27.2347 15.7767 27.6353 15.8924C28.1055 16.0281 28.8158 16.2331 29.2805 17.0797C29.7454 17.9269 29.5358 18.6354 29.3972 19.1043C29.2794 19.5026 29.2483 19.6398 29.3792 19.8784C29.5965 20.2743 29.4518 20.7713 29.0559 20.9886C28.931 21.0572 28.7962 21.0897 28.6632 21.0897C28.3744 21.0897 28.0946 20.9363 27.9458 20.6654C27.4806 19.8181 27.6902 19.1095 27.829 18.6406C27.9467 18.2424 27.9778 18.1051 27.8468 17.8665C27.7156 17.6273 27.5826 17.5793 27.182 17.4636C26.7118 17.3279 26.0015 17.1229 25.5369 16.2764C25.0718 15.429 25.2814 14.7205 25.4202 14.2516C25.5379 13.8533 25.569 13.7161 25.438 13.4775Z" fill="#F2A7D0"/>
<path d="M27.2981 4.06979L26.204 6.06601L27.2314 8.09714L24.9912 7.67551L23.3731 9.27835L23.0827 7.02163L21.0552 5.98114L23.116 5.00801L23.481 2.76203L25.0452 4.4174L27.2981 4.06979Z" fill="#FFCA21"/>
<path d="M50.6655 13.3803L49.5715 15.3764L50.5989 17.4075L48.3586 16.986L46.7405 18.5888L46.4501 16.332L44.4227 15.2915L46.4834 14.3184L46.8484 12.0724L48.4125 13.7278L50.6655 13.3803Z" fill="#FFCA21"/>
<path d="M17.9391 11.1745C16.8869 11.1745 16.8852 9.53917 17.9391 9.53917C18.9913 9.53917 18.993 11.1745 17.9391 11.1745Z" fill="#EB67A5"/>
<path d="M35.6688 4.60808C34.6166 4.60808 34.6149 2.97279 35.6688 2.97279C36.721 2.97279 36.7228 4.60808 35.6688 4.60808Z" fill="#EB67A5"/>
<path d="M40.9931 39.5808L40.4789 37.2226L38.2446 36.3093L40.3286 35.0916L40.5033 32.7329L43.6739 35.9073L43.6834 35.9259L44.9542 37.9779L42.5523 37.7383L40.9931 39.5808Z" fill="white"/>
<path d="M44.9542 47.6816L42.5698 48.0556L41.8299 49.5987L39.0174 46.7864L39.7505 46.0554L39.3156 43.6812L41.4645 44.7801L43.5879 43.6328L43.2069 46.0163L44.9542 47.6816Z" fill="white"/>
</g>
<defs>
<clipPath id="clip0_5404_33415">
<rect width="55" height="55" fill="white" transform="matrix(-1 0 0 1 55 0)"/>
</clipPath>
</defs>
</svg>
