<svg width="55" height="55" viewBox="0 0 55 55" fill="none" xmlns="http://www.w3.org/2000/svg">
<g clip-path="url(#clip0_5404_33367)">
<path d="M31.4183 25.5781C32.4648 25.5781 33.3132 24.7298 33.3132 23.6833C33.3132 22.6368 32.4648 21.7885 31.4183 21.7885C30.3719 21.7885 29.5235 22.6368 29.5235 23.6833C29.5235 24.7298 30.3719 25.5781 31.4183 25.5781Z" fill="#6B8DF2"/>
<path d="M12.8271 34.4065L0.147517 47.0851C-0.447063 47.6795 0.809988 49.9004 2.9551 52.0453C5.10031 54.1903 7.32126 55.4471 7.91584 54.8526L11.4719 51.2965L12.8271 34.4065Z" fill="#F2A7D0"/>
<path d="M16.2346 42.174L4.76785 53.6398C6.23384 54.7557 7.49068 55.2776 7.91585 54.8525L11.4719 51.2964L16.2346 42.174Z" fill="#F294C7"/>
<path d="M17.1576 30.0764L3.70361 43.529C3.10903 44.1234 4.36608 46.3443 6.51119 48.4892C8.6564 50.6342 10.8773 51.891 11.4719 51.2965L13.1701 49.5986L14.241 47.4778L15.9826 46.7864L24.926 37.844L17.1576 30.0764Z" fill="#FFCA21"/>
<path d="M22.7454 35.6636L8.32394 50.0838C9.78993 51.1997 11.0468 51.7216 11.4719 51.2965L13.1701 49.5986L13.9909 47.4595L15.9826 46.7863L24.926 37.8439L22.7454 35.6636Z" fill="#F2BB0C"/>
<path d="M24.8312 37.9319C25.4257 37.3374 24.1689 35.1169 22.0242 32.9721C19.8794 30.8274 17.6589 29.5706 17.0644 30.165C16.47 30.7595 17.7268 32.98 19.8715 35.1248C22.0163 37.2695 24.2368 38.5263 24.8312 37.9319Z" fill="#EB67A5"/>
<path d="M27.6991 35.9863C27.4065 35.9863 27.1234 35.8288 26.9765 35.5523C26.7645 35.1537 26.9158 34.6586 27.3145 34.4465C30.816 32.5846 38.0759 29.9643 47.3567 33.3339C47.7812 33.488 48.0003 33.957 47.8463 34.3814C47.6921 34.8059 47.2232 35.025 46.7987 34.871C38.1128 31.7172 31.3441 34.1559 28.0824 35.8904C27.9599 35.9554 27.8285 35.9863 27.6991 35.9863Z" fill="#B5C8FF"/>
<path d="M26.097 29.7199C25.8877 29.7199 25.6785 29.6401 25.5187 29.4803C25.1995 29.161 25.1995 28.6433 25.5188 28.324L27.0536 26.7895C27.3727 26.4701 27.8905 26.4703 28.2099 26.7896C28.5291 27.109 28.5291 27.6267 28.2098 27.9459L26.675 29.4804C26.5154 29.6401 26.3061 29.7199 26.097 29.7199Z" fill="#B5C8FF"/>
<path d="M34.7016 21.1155C34.4922 21.1155 34.2829 21.0356 34.1231 20.8758C33.804 20.5564 33.8042 20.0387 34.1237 19.7194L45.4708 8.38159C45.7902 8.06244 46.308 8.06266 46.6271 8.38202C46.9463 8.7015 46.9461 9.21916 46.6266 9.53842L35.2794 20.8763C35.1199 21.0358 34.9106 21.1155 34.7016 21.1155Z" fill="#B5C8FF"/>
<path d="M41.1919 5.58841C42.2384 5.58841 43.0867 4.74007 43.0867 3.6936C43.0867 2.64712 42.2384 1.79878 41.1919 1.79878C40.1454 1.79878 39.2971 2.64712 39.2971 3.6936C39.2971 4.74007 40.1454 5.58841 41.1919 5.58841Z" fill="#6B8DF2"/>
<path d="M51.1972 15.6751C52.2437 15.6751 53.092 14.8268 53.092 13.7803C53.092 12.7338 52.2437 11.8855 51.1972 11.8855C50.1507 11.8855 49.3024 12.7338 49.3024 13.7803C49.3024 14.8268 50.1507 15.6751 51.1972 15.6751Z" fill="#6B8DF2"/>
<path d="M34.0176 41.8967C35.0641 41.8967 35.9124 41.0483 35.9124 40.0019C35.9124 38.9554 35.0641 38.1071 34.0176 38.1071C32.9712 38.1071 32.1228 38.9554 32.1228 40.0019C32.1228 41.0483 32.9712 41.8967 34.0176 41.8967Z" fill="#6B8DF2"/>
<path d="M50.9561 27.2786L48.956 26.1867L46.9209 27.212L47.3434 24.9761L45.7374 23.3613L47.9986 23.0713L49.0411 21.0479L50.0162 23.1046L52.2666 23.4689L50.608 25.0299L50.9561 27.2786Z" fill="#FFCA21"/>
<path d="M50.562 7.27783L49.9198 5.09148L47.7557 4.37744L49.6355 3.09515L49.6417 0.817589L51.4456 2.21149L53.6136 1.51798L52.8488 3.66169L54.1823 5.51053L51.9057 5.44156L50.562 7.27783Z" fill="#FFCA21"/>
<path d="M41.6275 50.6002L39.6274 49.5083L37.5923 50.5337L38.0147 48.2977L36.4087 46.6829L38.6699 46.3929L39.7125 44.3695L40.6875 46.4262L42.9378 46.7906L41.2792 48.3516L41.6275 50.6002Z" fill="#FFCA21"/>
<path d="M44.6812 18.7845C45.7334 18.7845 45.7351 17.1493 44.6812 17.1493C43.6289 17.1493 43.6272 18.7845 44.6812 18.7845Z" fill="#EB67A5"/>
<path d="M54.2102 31.3557C55.2624 31.3557 55.2642 29.7204 54.2102 29.7204C53.158 29.7204 53.1562 31.3557 54.2102 31.3557Z" fill="#EB67A5"/>
<path d="M24.4746 1.63528C25.5268 1.63528 25.5285 0 24.4746 0C23.4224 0 23.4206 1.63528 24.4746 1.63528Z" fill="#EB67A5"/>
<path d="M51.1583 36.3734C52.2105 36.3734 52.2122 34.7381 51.1583 34.7381C50.106 34.7381 50.1043 36.3734 51.1583 36.3734Z" fill="#EB67A5"/>
<path d="M19.8785 27.9433C19.7509 27.9433 19.6215 27.9134 19.5004 27.8502C19.1003 27.6411 18.9454 27.147 19.1546 26.7468C20.8477 23.5076 23.2214 16.7935 20.0964 8.22068C19.9418 7.79647 20.1604 7.32714 20.5846 7.17245C21.0088 7.01766 21.4782 7.23648 21.6328 7.66058C24.9728 16.8232 22.4218 24.0262 20.6037 27.5042C20.4578 27.7836 20.1731 27.9433 19.8785 27.9433Z" fill="#B5C8FF"/>
<path d="M14.9536 22.8665C16.0021 22.8665 16.852 22.0197 16.852 20.9752C16.852 19.9307 16.0021 19.0839 14.9536 19.0839C13.9051 19.0839 13.0551 19.9307 13.0551 20.9752C13.0551 22.0197 13.9051 22.8665 14.9536 22.8665Z" fill="#6B8DF2"/>
<path d="M48.3986 40.7562C48.1335 40.688 48.0543 40.5712 47.8435 40.2124C47.5959 39.791 47.2217 39.1541 46.2858 38.9133C45.3502 38.6724 44.7147 39.0493 44.2941 39.2985C43.9353 39.5112 43.8092 39.5751 43.5434 39.5069C43.2782 39.4387 43.1989 39.3219 42.9882 38.9632C42.7407 38.5418 42.3666 37.9049 41.4306 37.664C40.9928 37.5513 40.5475 37.8149 40.4349 38.2521C40.3223 38.6894 40.5857 39.1352 41.0231 39.2477C41.2883 39.3159 41.3676 39.4326 41.5782 39.7914C41.8257 40.2128 42.1999 40.8496 43.1358 41.0905C44.0716 41.3313 44.7072 40.9546 45.1278 40.7053C45.4864 40.4927 45.6126 40.4284 45.8782 40.497C46.1434 40.5652 46.2227 40.682 46.4335 41.0407C46.6811 41.4622 47.0552 42.099 47.9912 42.3398C48.0595 42.3574 48.1282 42.3658 48.1955 42.3658C48.5598 42.3658 48.8919 42.1207 48.9869 41.7517C49.0993 41.3145 48.836 40.8687 48.3986 40.7562Z" fill="#F2A7D0"/>
<path d="M42.3165 26.8549C42.7128 26.6384 42.8584 26.1415 42.6418 25.7453C42.425 25.349 41.9282 25.2033 41.5321 25.4201C41.2916 25.5515 41.1536 25.5205 40.7532 25.4026C40.284 25.2644 39.5751 25.0555 38.7278 25.5188C37.8797 25.9824 37.6741 26.692 37.5381 27.1613C37.4225 27.5606 37.3745 27.693 37.1346 27.8242C36.8941 27.9557 36.756 27.9246 36.3558 27.8066C35.8867 27.6684 35.1779 27.4595 34.3304 27.9228C33.9341 28.1394 33.7885 28.6362 34.0051 29.0325C34.2219 29.4288 34.7187 29.5743 35.1147 29.3576C35.3555 29.2263 35.4934 29.2573 35.8936 29.3753C36.1455 29.4495 36.4663 29.544 36.8408 29.544C37.1637 29.544 37.5267 29.4736 37.9191 29.259C38.7673 28.7953 38.9729 28.0859 39.1089 27.6164C39.2245 27.2173 39.2725 27.0847 39.5123 26.9537C39.7526 26.8223 39.8907 26.8532 40.2912 26.9712C40.7602 27.1093 41.4692 27.3182 42.3165 26.8549Z" fill="#F2A7D0"/>
<path d="M15.9924 12.0202C15.6329 11.8099 15.5161 11.7308 15.4479 11.467C15.3799 11.2037 15.4439 11.0781 15.6563 10.721C15.9064 10.3007 16.2843 9.6655 16.0427 8.72996C15.8012 7.79486 15.1631 7.42146 14.7408 7.17428C14.3814 6.96395 14.2644 6.88478 14.1963 6.62106C14.0833 6.18396 13.638 5.92088 13.2 6.03389C12.7628 6.1469 12.5 6.59291 12.6129 7.03012C12.8545 7.96523 13.4925 8.33863 13.9148 8.5857C14.2744 8.79603 14.3912 8.87509 14.4593 9.13892C14.5273 9.40221 14.4634 9.52779 14.2509 9.88486C14.0009 10.3052 13.623 10.9404 13.8645 11.8759C14.1061 12.811 14.7442 13.1844 15.1665 13.4315C15.526 13.6418 15.6429 13.721 15.711 13.9847C15.8063 14.3534 16.1382 14.598 16.5022 14.598C16.5699 14.598 16.6387 14.5895 16.7073 14.5718C17.1445 14.4588 17.4073 14.0128 17.2944 13.5755C17.0527 12.6407 16.4147 12.2673 15.9924 12.0202Z" fill="#F2A7D0"/>
<path d="M29.562 13.4775C29.7792 13.0816 29.6344 12.5846 29.2385 12.3674C28.8427 12.15 28.3458 12.2949 28.1283 12.6907C27.6634 13.538 27.873 14.2465 28.0117 14.7154C28.1294 15.1136 28.1606 15.2509 28.0295 15.4895C27.8982 15.7287 27.7653 15.7767 27.3647 15.8924C26.8945 16.0281 26.1842 16.2331 25.7195 17.0797C25.2546 17.9269 25.4642 18.6354 25.6029 19.1043C25.7206 19.5026 25.7517 19.6398 25.6208 19.8784C25.4035 20.2743 25.5482 20.7713 25.9441 20.9886C26.069 21.0572 26.2038 21.0897 26.3368 21.0897C26.6256 21.0897 26.9055 20.9363 27.0542 20.6654C27.5194 19.8181 27.3098 19.1095 27.171 18.6406C27.0533 18.2424 27.0222 18.1051 27.1532 17.8665C27.2844 17.6273 27.4174 17.5793 27.818 17.4636C28.2882 17.3279 28.9985 17.1229 29.4631 16.2764C29.9282 15.429 29.7186 14.7205 29.5798 14.2516C29.4621 13.8533 29.431 13.7161 29.562 13.4775Z" fill="#F2A7D0"/>
<path d="M27.7019 4.06979L28.796 6.06601L27.7686 8.09714L30.0088 7.67551L31.6269 9.27835L31.9173 7.02163L33.9448 5.98114L31.884 5.00801L31.519 2.76203L29.9548 4.4174L27.7019 4.06979Z" fill="#FFCA21"/>
<path d="M4.3345 13.3803L5.42849 15.3764L4.40111 17.4075L6.64139 16.986L8.25948 18.5888L8.54995 16.332L10.5773 15.2915L8.51665 14.3184L8.15163 12.0724L6.58746 13.7278L4.3345 13.3803Z" fill="#FFCA21"/>
<path d="M37.0609 11.1745C38.1131 11.1745 38.1148 9.53917 37.0609 9.53917C36.0087 9.53917 36.007 11.1745 37.0609 11.1745Z" fill="#EB67A5"/>
<path d="M19.3312 4.60808C20.3834 4.60808 20.3852 2.97279 19.3312 2.97279C18.279 2.97279 18.2772 4.60808 19.3312 4.60808Z" fill="#EB67A5"/>
<path d="M14.0069 39.5808L14.5211 37.2226L16.7554 36.3093L14.6714 35.0916L14.4967 32.7329L11.3261 35.9073L11.3166 35.9259L10.0458 37.9779L12.4478 37.7383L14.0069 39.5808Z" fill="white"/>
<path d="M10.0458 47.6816L12.4302 48.0556L13.1701 49.5987L15.9826 46.7864L15.2495 46.0554L15.6844 43.6812L13.5355 44.7801L11.4121 43.6328L11.7931 46.0163L10.0458 47.6816Z" fill="white"/>
</g>
<defs>
<clipPath id="clip0_5404_33367">
<rect width="55" height="55" fill="white"/>
</clipPath>
</defs>
</svg>
