
<svg width="87" height="101" viewBox="0 0 87 101" fill="none" xmlns="http://www.w3.org/2000/svg">
<path d="M24.0298 67.4371C23.8457 67.918 24.0225 68.4622 24.4543 68.7434L30.0945 72.4145C30.3202 72.5614 30.4837 72.7863 30.5536 73.0463L31.5178 76.6298H62.0782L63.0424 73.0463C63.1124 72.7863 63.2758 72.5614 63.5015 72.4145L69.1417 68.7434C69.5733 68.4624 69.7502 67.9182 69.5662 67.4371L67.1609 61.1518C67.0647 60.9003 67.0647 60.6221 67.1609 60.3708L69.5662 54.0855C69.7502 53.6046 69.5735 53.0601 69.1417 52.7792L63.5015 49.1081C63.2758 48.9614 63.1123 48.7363 63.0424 48.4763L61.2939 41.9776C61.1601 41.4803 60.6971 41.1439 60.1827 41.1704L53.4618 41.5156C53.193 41.5294 52.9284 41.4434 52.7191 41.2743L47.4847 37.0445C47.084 36.7208 46.5118 36.7208 46.1111 37.0445L40.8769 41.2743C40.6674 41.4436 40.403 41.5294 40.1342 41.5156L33.4133 41.1704C32.8991 41.1439 32.4361 41.4803 32.3021 41.9776L30.5536 48.4763C30.4835 48.7363 30.3202 48.9612 30.0945 49.1081L24.4543 52.7792C24.0227 53.0601 23.8457 53.6044 24.0298 54.0855L26.4351 60.3708C26.5313 60.6223 26.5313 60.9005 26.4351 61.1518L24.0298 67.4371Z" fill="#FF9A82"/>
<path d="M24.03 67.4371C23.8459 67.9182 24.0227 68.4624 24.4545 68.7434L30.0947 72.4145C30.3204 72.5612 30.4839 72.7863 30.5537 73.0463L31.518 76.6298H36.0363C35.079 73.7152 34.5586 70.6024 34.5586 67.3674C34.5586 55.4536 41.5817 45.1818 51.7126 40.4612L47.4848 37.0445C47.0842 36.7208 46.5119 36.7208 46.1113 37.0445L40.8768 41.2743C40.6675 41.4436 40.403 41.5294 40.1341 41.5156L33.4133 41.1704C32.899 41.1439 32.436 41.4803 32.3021 41.9778L30.5535 48.4763C30.4835 48.7363 30.3202 48.9612 30.0945 49.1081L24.4543 52.7792C24.0227 53.0601 23.8457 53.6046 24.0298 54.0855L26.435 60.3708C26.5313 60.6223 26.5313 60.9005 26.435 61.1518L24.03 67.4371Z" fill="#E75634"/>
<path d="M74.5157 101H19.0811C18.5013 101 18.0312 100.53 18.0312 99.9502V77.4825C18.0312 76.9027 18.5013 76.4326 19.0811 76.4326H74.5157C75.0955 76.4326 75.5655 76.9027 75.5655 77.4825V99.9502C75.5655 100.53 75.0955 101 74.5157 101Z" fill="#1AC479"/>
<path d="M28.2589 99.9502V77.4825C28.2589 76.9027 28.729 76.4326 29.3087 76.4326H19.0811C18.5013 76.4326 18.0312 76.9027 18.0312 77.4825V99.9502C18.0312 100.53 18.5013 101 19.0811 101H29.3087C28.729 101 28.2589 100.53 28.2589 99.9502Z" fill="#107649"/>
<path d="M41.5112 76.4324H52.0851V101H41.5112V76.4324Z" fill="#8AC9FE"/>
<path d="M41.5112 76.4324H46.7453V101H41.5112V76.4324Z" fill="#60B7FF"/>
<path d="M30.4327 14.617L30.9048 15.4349L46.5306 6.41333L43.8176 1.71387C42.5711 -0.445004 39.5101 -0.593544 38.0606 1.43454L29.4829 13.435C29.8524 13.7755 30.1753 14.171 30.4327 14.617Z" fill="#60B7FF"/>
<path d="M6.52958 29.5078L22.1554 20.4862L21.6833 19.6684C21.4221 19.2163 21.2393 18.7399 21.1302 18.2554L6.45304 19.6832C3.97183 19.9246 2.57006 22.6497 3.81639 24.8085L6.52958 29.5078Z" fill="#60B7FF"/>
<path d="M21.9848 20.5849L31.076 15.3362L30.6039 14.5184C29.1544 12.0079 25.9445 11.1477 23.4339 12.5972C20.9235 14.0465 20.0632 17.2566 21.5127 19.7672L21.9848 20.5849Z" fill="#8AC9FE"/>
<path d="M28.0741 33.8868L20.7918 21.2736L20.5223 21.2014L1.52546 32.1694C0.971146 32.4894 0.78118 33.1981 1.10134 33.7524L7.42193 44.7001C7.74189 45.2544 8.45067 45.4444 9.00499 45.1242L28.0019 34.1564L28.0741 33.8868Z" fill="#1AC479"/>
<path d="M59.2418 14.7817L52.9212 3.83406C52.6012 3.27974 51.8924 3.08977 51.3381 3.40994L32.3412 14.3779L32.269 14.6474L39.5513 27.2603L39.8208 27.3327L58.8176 16.3648C59.3718 16.0448 59.5617 15.336 59.2418 14.7817Z" fill="#1AC479"/>
<path d="M35.071 19.1067L55.0715 7.55933L52.9208 3.83397C52.6008 3.27965 51.892 3.08988 51.3377 3.40985L32.3408 14.3778L35.071 19.1067Z" fill="#107649"/>
<path d="M9.8118 33.6901L23.2527 25.93L20.5223 21.2012L1.52546 32.1689C0.971146 32.4889 0.78118 33.1977 1.10134 33.752L7.42193 44.6997C7.7419 45.254 8.45067 45.4439 9.00499 45.1238L13.5575 42.4954L9.38768 35.2731C9.06752 34.7188 9.25749 34.0102 9.8118 33.6901Z" fill="#107649"/>
<path d="M20.5215 21.2009L32.3396 14.3775L39.8192 27.332L28.001 34.1555L20.5215 21.2009Z" fill="#8AC9FE"/>
<path d="M20.5215 21.2007L32.3396 14.3773L35.0699 19.1061L23.2517 25.9295L20.5215 21.2007Z" fill="#60B7FF"/>
<path d="M56.7983 35.1267L65.5642 26.8634C65.769 26.6705 65.7297 26.3348 65.4861 26.1941L59.4936 22.7343C59.25 22.5936 58.9397 22.7276 58.875 23.0014L56.1016 34.7245C56.0057 35.1299 56.4951 35.4125 56.7983 35.1267Z" fill="#FE7D43"/>
<path d="M73.9747 61.1636L85.5138 64.6235C85.7833 64.7044 86.0543 64.5026 86.0543 64.2213V57.3016C86.0543 57.0203 85.7833 56.8185 85.5138 56.8993L73.9747 60.3592C73.5755 60.4787 73.5755 61.0439 73.9747 61.1636Z" fill="#00F2A6"/>
<path d="M19.6216 60.3589L8.0825 56.8991C7.81303 56.8182 7.54199 57.02 7.54199 57.3013V64.221C7.54199 64.5023 7.81303 64.7041 8.0825 64.6232L19.6216 61.1634C20.0206 61.0439 20.0206 60.4787 19.6216 60.3589Z" fill="#FE7D43"/>
<path d="M71.6138 39.0084L68.3788 42.2434C68.2149 42.4073 68.2149 42.6732 68.3788 42.8374L71.6138 46.0723C71.7777 46.2363 72.0436 46.2363 72.2077 46.0723L75.4427 42.8374C75.6066 42.6734 75.6066 42.4075 75.4427 42.2434L72.2077 39.0084C72.0436 38.8445 71.7777 38.8445 71.6138 39.0084Z" fill="#8AC9FE"/>
<path d="M9.67529 71.7261L6.44033 74.9611C6.2764 75.125 6.2764 75.3909 6.44033 75.555L9.67529 78.79C9.83922 78.9539 10.1051 78.9539 10.2693 78.79L13.5042 75.555C13.6681 75.3911 13.6681 75.1252 13.5042 74.9611L10.2693 71.7261C10.1051 71.562 9.83922 71.562 9.67529 71.7261Z" fill="#00F2A6"/>
</svg>
