<svg width="48" height="48" viewBox="0 0 48 48" fill="none" xmlns="http://www.w3.org/2000/svg">
<path d="M3.28058 21.7312C2.64308 22.1062 2.43683 22.9312 2.81183 23.5687L10.3868 36.2812C10.7618 36.9187 11.5868 37.125 12.2243 36.75L32.2118 24.8437L23.2681 9.82495L3.28058 21.7312Z" fill="white"/>
<path d="M32.1561 4.53759L23.2686 9.82509L32.2123 24.8438L41.0998 19.5563C41.7373 19.1813 41.9436 18.3563 41.5686 17.7188L33.9936 5.00634C33.5998 4.35009 32.7748 4.14384 32.1561 4.53759Z" fill="#E75634"/>
<path d="M30.0398 15.8624C29.7585 15.8624 29.496 15.7687 29.271 15.5999C29.046 15.4312 28.821 15.1874 28.6335 14.8874C28.446 14.5874 28.3523 14.2874 28.3148 13.9874C28.2773 13.6874 28.3335 13.4249 28.446 13.1812C28.5773 12.9374 28.7648 12.7312 29.046 12.5624C29.3273 12.3937 29.6273 12.2999 29.9085 12.3187C30.1898 12.3187 30.4523 12.4124 30.696 12.5812C30.9398 12.7499 31.146 12.9937 31.3335 13.2937C31.521 13.5937 31.6148 13.9124 31.6523 14.1937C31.6898 14.4937 31.6335 14.7562 31.5023 14.9999C31.371 15.2437 31.1648 15.4499 30.8835 15.6187C30.6023 15.7874 30.321 15.8812 30.0398 15.8624ZM29.9648 14.8124C30.1148 14.9062 30.2648 14.9062 30.4148 14.8312C30.5648 14.7374 30.6398 14.6062 30.6398 14.4374C30.6398 14.2687 30.5648 14.0624 30.4335 13.8374C30.3023 13.6124 30.1523 13.4437 30.0023 13.3687C29.8523 13.2749 29.7023 13.2749 29.5335 13.3687C29.4023 13.4437 29.3273 13.5749 29.3273 13.7624C29.3273 13.9499 29.4023 14.1374 29.5335 14.3624C29.6648 14.5687 29.8148 14.7187 29.9648 14.8124ZM32.496 10.8562L33.4898 10.2749L33.0023 17.8499L32.0085 18.4312L32.496 10.8562ZM33.8648 14.4937C33.8273 14.1937 33.8835 13.9312 34.0148 13.6687C34.146 13.4249 34.3335 13.2187 34.6148 13.0499C34.896 12.8812 35.196 12.7874 35.4585 12.8062C35.7398 12.8062 36.0023 12.8999 36.246 13.0687C36.4898 13.2374 36.696 13.4812 36.8835 13.7812C37.071 14.0812 37.1648 14.3812 37.2023 14.6812C37.2398 14.9812 37.1835 15.2437 37.0523 15.4874C36.921 15.7312 36.7148 15.9374 36.4335 16.1062C36.1523 16.2749 35.871 16.3499 35.5898 16.3499C35.3085 16.3499 35.046 16.2562 34.8023 16.0874C34.5585 15.9187 34.3523 15.6749 34.1648 15.3749C33.996 15.0937 33.8835 14.7937 33.8648 14.4937ZM35.5148 15.3187C35.6648 15.4124 35.8148 15.4124 35.946 15.3374C36.096 15.2437 36.171 15.1124 36.171 14.9437C36.171 14.7749 36.096 14.5687 35.9648 14.3437C35.8335 14.1187 35.6835 13.9499 35.5335 13.8749C35.3835 13.7812 35.2335 13.7999 35.0835 13.8749C34.9523 13.9499 34.8773 14.0812 34.8773 14.2687C34.8773 14.4562 34.9523 14.6437 35.0835 14.8687C35.2148 15.0937 35.3648 15.2437 35.5148 15.3187Z" fill="white"/>
<path d="M15.5824 19.7438L7.35112 24.6563C6.88237 24.9375 6.26362 24.7875 6.00112 24.3188C5.71987 23.85 5.86987 23.2313 6.33862 22.9688L14.5699 18.0563C15.0386 17.775 15.6574 17.925 15.9199 18.3938C16.2011 18.8438 16.0511 19.4625 15.5824 19.7438Z" fill="#E75634"/>
<path d="M11.8509 25.4437L8.86967 27.225C8.40092 27.5062 7.78217 27.3562 7.51967 26.8875C7.23842 26.4187 7.38842 25.8 7.85717 25.5375L10.8384 23.7562C11.3072 23.475 11.9259 23.625 12.1884 24.0937C12.4884 24.5625 12.3197 25.1812 11.8509 25.4437Z" fill="#E75634"/>
<path d="M17.3792 28.5938L11.4167 32.1376C11.0979 32.3251 10.6854 32.2126 10.4979 31.9126C10.3104 31.5938 10.4229 31.1813 10.7229 30.9938L16.6854 27.4501C17.0042 27.2626 17.4167 27.3751 17.6042 27.6751C17.7917 27.9938 17.6979 28.4063 17.3792 28.5938Z" fill="#F49A6C"/>
<path d="M23.004 27.8438L12.5602 34.0688C12.2415 34.2563 11.829 34.1438 11.6415 33.8438C11.454 33.5251 11.5665 33.1126 11.8665 32.9251L22.3102 26.7001C22.629 26.5126 23.0415 26.6251 23.229 26.9251C23.4165 27.2438 23.3227 27.6563 23.004 27.8438Z" fill="#F49A6C"/>
<path opacity="0.05" d="M32.1556 4.53734L23.2681 9.82484L3.28058 21.7311C2.64308 22.1061 2.43683 22.9311 2.81183 23.5686L10.3868 36.2811C10.7618 36.9186 11.5868 37.1248 12.2243 36.7498L32.2118 24.8436L41.0993 19.5561C41.7368 19.1811 41.9431 18.3561 41.5681 17.7186L33.9931 5.00609C33.5993 4.34984 32.7743 4.14359 32.1556 4.53734Z" fill="black"/>
<path d="M4.61202 24.3187C3.80577 24.4125 3.20577 25.1625 3.31827 25.9688L5.24952 42.3562C5.34327 43.1625 6.09327 43.7625 6.89952 43.65L32.6245 40.6125L30.337 21.2812L4.61202 24.3187Z" fill="white"/>
<path d="M41.7749 19.9313L30.3374 21.2813L32.6249 40.6126L44.0624 39.2626C44.8687 39.1688 45.4687 38.4188 45.3562 37.6126L43.4249 21.2438C43.3312 20.4188 42.5999 19.8376 41.7749 19.9313Z" fill="#E75634"/>
<path d="M34.4992 30.5063C34.2179 30.375 33.9929 30.1688 33.8242 29.8875C33.6554 29.6063 33.5429 29.2688 33.5054 28.875C33.4679 28.4813 33.4867 28.125 33.5804 27.8063C33.6742 27.4875 33.8617 27.2438 34.0867 27.0375C34.3304 26.85 34.6304 26.7188 34.9867 26.6813C35.3617 26.6438 35.6804 26.6813 35.9617 26.8125C36.2429 26.9438 36.4679 27.15 36.6367 27.4313C36.8054 27.7125 36.9179 28.05 36.9742 28.4438C37.0117 28.8375 36.9929 29.1938 36.8804 29.5125C36.7867 29.8313 36.5992 30.075 36.3554 30.2813C36.1117 30.4688 35.8117 30.6 35.4367 30.6375C35.0992 30.6938 34.7804 30.6375 34.4992 30.5063ZM34.8929 29.4C35.0054 29.5688 35.1554 29.6438 35.3242 29.625C35.5117 29.6063 35.6429 29.4938 35.7179 29.3063C35.7929 29.1188 35.8304 28.8938 35.7929 28.5938C35.7554 28.2938 35.6804 28.0688 35.5679 27.9188C35.4554 27.75 35.2867 27.6938 35.0992 27.7125C34.9304 27.7313 34.7992 27.8438 34.7242 28.0125C34.6492 28.1813 34.6304 28.425 34.6492 28.7063C34.7054 29.0063 34.7804 29.2313 34.8929 29.4ZM39.2617 26.5125L40.5367 26.3625L36.5992 33.8438L35.3242 33.9938L39.2617 26.5125ZM38.9992 30.8438C39.0929 30.525 39.2804 30.2813 39.5054 30.075C39.7492 29.8875 40.0492 29.7563 40.4054 29.7188C40.7804 29.6813 41.0992 29.7188 41.3804 29.85C41.6617 29.9813 41.8867 30.1875 42.0554 30.4688C42.2242 30.75 42.3367 31.0875 42.3742 31.4813C42.4117 31.875 42.3929 32.2313 42.2992 32.55C42.2054 32.8688 42.0367 33.1125 41.7929 33.3C41.5492 33.4875 41.2492 33.6188 40.8742 33.6563C40.4992 33.6938 40.1804 33.6563 39.8992 33.525C39.6179 33.3938 39.3929 33.1875 39.2242 32.9063C39.0554 32.625 38.9429 32.2875 38.9054 31.8938C38.8679 31.5188 38.8867 31.1625 38.9992 30.8438ZM40.3117 32.4375C40.4242 32.5875 40.5742 32.6625 40.7429 32.6438C40.9304 32.625 41.0617 32.5125 41.1367 32.3438C41.2117 32.175 41.2304 31.9313 41.2117 31.6313C41.1742 31.3313 41.0992 31.1063 40.9867 30.9563C40.8742 30.8063 40.7242 30.7313 40.5179 30.75C40.3304 30.7688 40.2179 30.8625 40.1429 31.05C40.0679 31.2375 40.0492 31.4813 40.0679 31.7625C40.1054 32.0625 40.1804 32.2875 40.3117 32.4375Z" fill="white"/>
<path d="M18.0177 27.8812L7.424 29.1374C6.824 29.2124 6.26149 28.7812 6.20524 28.1624C6.13024 27.5624 6.5615 26.9999 7.18025 26.9437L17.774 25.6874C18.374 25.6124 18.9365 26.0437 18.9927 26.6624C19.0677 27.2624 18.6365 27.8249 18.0177 27.8812Z" fill="#E75634"/>
<path d="M11.643 32.0062L7.81804 32.4562C7.21804 32.5312 6.65554 32.0999 6.59929 31.4812C6.52429 30.8812 6.95554 30.3187 7.57429 30.2624L11.3993 29.8124C11.9993 29.7374 12.5618 30.1687 12.618 30.7874C12.693 31.3874 12.2618 31.9312 11.643 32.0062Z" fill="#E75634"/>
<path d="M15.8458 37.7062L8.17701 38.6249C7.76451 38.6812 7.40826 38.3812 7.35201 37.9874C7.29576 37.5749 7.59576 37.2187 7.98951 37.1624L15.6583 36.2624C16.0708 36.2062 16.427 36.5062 16.4833 36.8999C16.5395 37.2937 16.2583 37.6687 15.8458 37.7062Z" fill="#F49A6C"/>
<path d="M21.902 39.4874L8.45826 41.0811C8.04576 41.1374 7.68951 40.8374 7.63326 40.4436C7.57701 40.0311 7.87701 39.6749 8.27076 39.6186L21.7145 38.0249C22.127 37.9686 22.4833 38.2686 22.5395 38.6624C22.6145 39.0749 22.3145 39.4499 21.902 39.4874Z" fill="#F49A6C"/>
</svg>
