<svg width="360" height="80" viewBox="0 0 360 80" fill="none" xmlns="http://www.w3.org/2000/svg">
<g clip-path="url(#clip0_4283_46942)">
<g opacity="0.47">
<path d="M17.7243 6.96097H10.147L6.3584 13.502L10.147 20.085H17.7243L21.555 13.502L17.7243 6.96097Z" fill="url(#paint0_linear_4283_46942)"/>
<path d="M17.7243 6.96097H10.147L6.3584 13.502L10.147 20.085H17.7243L21.555 13.502L17.7243 6.96097Z" fill="white"/>
<g opacity="0.49">
<path d="M42.5232 -7.28122H34.9039L31.1152 -0.740189L34.9039 5.84277H42.5232L46.3119 -0.740189L42.5232 -7.28122Z" fill="url(#paint1_linear_4283_46942)"/>
<path d="M42.5232 -7.28122H34.9039L31.1152 -0.740189L34.9039 5.84277H42.5232L46.3119 -0.740189L42.5232 -7.28122Z" fill="white"/>
</g>
<g opacity="0.49">
<path d="M30.1258 0.158237H22.5064L18.7178 6.69926L22.5064 13.2822H30.1258L33.9144 6.69926L30.1258 0.158237Z" fill="url(#paint2_linear_4283_46942)"/>
<path d="M30.1258 0.158237H22.5064L18.7178 6.69926L22.5064 13.2822H30.1258L33.9144 6.69926L30.1258 0.158237Z" fill="white"/>
</g>
<path d="M54.8161 -0.0702791H47.2388L43.4502 6.47075L47.2388 13.0537H54.8161L58.6468 6.47075L54.8161 -0.0702791Z" fill="url(#paint3_linear_4283_46942)"/>
<path d="M54.8161 -0.0702791H47.2388L43.4502 6.47075L47.2388 13.0537H54.8161L58.6468 6.47075L54.8161 -0.0702791Z" fill="white"/>
<path d="M91.9861 7.14163H84.4088L80.5781 13.6827L84.4088 20.2656H91.9861L95.7747 13.6827L91.9861 7.14163Z" fill="white"/>
<path d="M67.2771 -7.28122H59.6578L55.8691 -0.740189L59.6578 5.84277H67.2771L71.0658 -0.740189L67.2771 -7.28122Z" fill="url(#paint4_linear_4283_46942)"/>
<path d="M67.2771 -7.28122H59.6578L55.8691 -0.740189L59.6578 5.84277H67.2771L71.0658 -0.740189L67.2771 -7.28122Z" fill="white"/>
<path d="M91.9861 7.14163H84.4088L80.5781 13.6827L84.4088 20.2656H91.9861L95.7747 13.6827L91.9861 7.14163Z" fill="white"/>
<g opacity="0.49">
<path d="M79.6111 -0.0702791H71.9918L68.2031 6.47075L71.9918 13.0537H79.6111L83.3998 6.47075L79.6111 -0.0702791Z" fill="url(#paint5_linear_4283_46942)"/>
<path d="M79.6111 -0.0702791H71.9918L68.2031 6.47075L71.9918 13.0537H79.6111L83.3998 6.47075L79.6111 -0.0702791Z" fill="white"/>
</g>
<g opacity="0.49">
<path d="M54.8161 14.3535H47.2388L43.4502 20.8946L47.2388 27.4775H54.8161L58.6468 20.8946L54.8161 14.3535Z" fill="url(#paint6_linear_4283_46942)"/>
<path d="M54.8161 14.3535H47.2388L43.4502 20.8946L47.2388 27.4775H54.8161L58.6468 20.8946L54.8161 14.3535Z" fill="white"/>
</g>
<path d="M67.2771 21.5645H59.6578L55.8691 28.1055L59.6578 34.6885H67.2771L71.0658 28.1055L67.2771 21.5645Z" fill="url(#paint7_linear_4283_46942)"/>
<path d="M67.2771 21.5645H59.6578L55.8691 28.1055L59.6578 34.6885H67.2771L71.0658 28.1055L67.2771 21.5645Z" fill="white"/>
<path d="M67.2771 7.14163H59.6578L55.8691 13.6827L59.6578 20.2656H67.2771L71.0658 13.6827L67.2771 7.14163Z" fill="url(#paint8_linear_4283_46942)"/>
<path d="M67.2771 7.14163H59.6578L55.8691 13.6827L59.6578 20.2656H67.2771L71.0658 13.6827L67.2771 7.14163Z" fill="white"/>
<path d="M79.6111 14.3535H71.9918L68.2031 20.8946L71.9918 27.4775H79.6111L83.3998 20.8946L79.6111 14.3535Z" fill="white"/>
<path d="M91.9861 21.565H84.4088L80.5781 28.106L84.4088 34.689H91.9861L95.7747 28.106L91.9861 21.565Z" fill="url(#paint9_linear_4283_46942)"/>
<path d="M91.9861 21.565H84.4088L80.5781 28.106L84.4088 34.689H91.9861L95.7747 28.106L91.9861 21.565Z" fill="white"/>
<path d="M91.9861 7.14163H84.4088L80.5781 13.6827L84.4088 20.2656H91.9861L95.7747 13.6827L91.9861 7.14163Z" fill="white"/>
</g>
</g>
<g clip-path="url(#clip1_4283_46942)">
<g opacity="0.47">
<path d="M235.276 6.96097H242.853L246.642 13.502L242.853 20.085H235.276L231.445 13.502L235.276 6.96097Z" fill="url(#paint10_linear_4283_46942)"/>
<path d="M235.276 6.96097H242.853L246.642 13.502L242.853 20.085H235.276L231.445 13.502L235.276 6.96097Z" fill="white"/>
<g opacity="0.49">
<path d="M210.477 -7.28122H218.096L221.885 -0.740189L218.096 5.84277H210.477L206.688 -0.740189L210.477 -7.28122Z" fill="url(#paint11_linear_4283_46942)"/>
<path d="M210.477 -7.28122H218.096L221.885 -0.740189L218.096 5.84277H210.477L206.688 -0.740189L210.477 -7.28122Z" fill="white"/>
</g>
<g opacity="0.49">
<path d="M222.874 0.158237H230.494L234.282 6.69926L230.494 13.2822H222.874L219.086 6.69926L222.874 0.158237Z" fill="url(#paint12_linear_4283_46942)"/>
<path d="M222.874 0.158237H230.494L234.282 6.69926L230.494 13.2822H222.874L219.086 6.69926L222.874 0.158237Z" fill="white"/>
</g>
<path d="M198.184 -0.0702791H205.761L209.55 6.47075L205.761 13.0537H198.184L194.353 6.47075L198.184 -0.0702791Z" fill="url(#paint13_linear_4283_46942)"/>
<path d="M198.184 -0.0702791H205.761L209.55 6.47075L205.761 13.0537H198.184L194.353 6.47075L198.184 -0.0702791Z" fill="white"/>
<path d="M161.014 7.14163H168.591L172.422 13.6827L168.591 20.2656H161.014L157.225 13.6827L161.014 7.14163Z" fill="white"/>
<path d="M185.723 -7.28122H193.342L197.131 -0.740189L193.342 5.84277H185.723L181.934 -0.740189L185.723 -7.28122Z" fill="url(#paint14_linear_4283_46942)"/>
<path d="M185.723 -7.28122H193.342L197.131 -0.740189L193.342 5.84277H185.723L181.934 -0.740189L185.723 -7.28122Z" fill="white"/>
<path d="M161.014 7.14163H168.591L172.422 13.6827L168.591 20.2656H161.014L157.225 13.6827L161.014 7.14163Z" fill="white"/>
<g opacity="0.49">
<path d="M173.389 -0.0702791H181.008L184.797 6.47075L181.008 13.0537H173.389L169.6 6.47075L173.389 -0.0702791Z" fill="url(#paint15_linear_4283_46942)"/>
<path d="M173.389 -0.0702791H181.008L184.797 6.47075L181.008 13.0537H173.389L169.6 6.47075L173.389 -0.0702791Z" fill="white"/>
</g>
<g opacity="0.49">
<path d="M198.184 14.3535H205.761L209.55 20.8946L205.761 27.4775H198.184L194.353 20.8946L198.184 14.3535Z" fill="url(#paint16_linear_4283_46942)"/>
<path d="M198.184 14.3535H205.761L209.55 20.8946L205.761 27.4775H198.184L194.353 20.8946L198.184 14.3535Z" fill="white"/>
</g>
<path d="M185.723 21.5645H193.342L197.131 28.1055L193.342 34.6885H185.723L181.934 28.1055L185.723 21.5645Z" fill="url(#paint17_linear_4283_46942)"/>
<path d="M185.723 21.5645H193.342L197.131 28.1055L193.342 34.6885H185.723L181.934 28.1055L185.723 21.5645Z" fill="white"/>
<path d="M185.723 7.14163H193.342L197.131 13.6827L193.342 20.2656H185.723L181.934 13.6827L185.723 7.14163Z" fill="url(#paint18_linear_4283_46942)"/>
<path d="M185.723 7.14163H193.342L197.131 13.6827L193.342 20.2656H185.723L181.934 13.6827L185.723 7.14163Z" fill="white"/>
<path d="M173.389 14.3535H181.008L184.797 20.8946L181.008 27.4775H173.389L169.6 20.8946L173.389 14.3535Z" fill="white"/>
<path d="M161.014 21.565H168.591L172.422 28.106L168.591 34.689H161.014L157.225 28.106L161.014 21.565Z" fill="url(#paint19_linear_4283_46942)"/>
<path d="M161.014 21.565H168.591L172.422 28.106L168.591 34.689H161.014L157.225 28.106L161.014 21.565Z" fill="white"/>
<path d="M161.014 7.14163H168.591L172.422 13.6827L168.591 20.2656H161.014L157.225 13.6827L161.014 7.14163Z" fill="white"/>
</g>
</g>
<g opacity="0.5" clip-path="url(#clip2_4283_46942)">
<g opacity="0.47">
<path d="M194.698 73.7747H202.14L205.861 67.3245L202.14 60.833H194.698L190.935 67.3245L194.698 73.7747Z" fill="url(#paint20_linear_4283_46942)"/>
<path d="M194.698 73.7747H202.14L205.861 67.3245L202.14 60.833H194.698L190.935 67.3245L194.698 73.7747Z" fill="white"/>
<g opacity="0.49">
<path d="M170.34 87.8192H177.824L181.545 81.369L177.824 74.8774H170.34L166.619 81.369L170.34 87.8192Z" fill="url(#paint21_linear_4283_46942)"/>
<path d="M170.34 87.8192H177.824L181.545 81.369L177.824 74.8774H170.34L166.619 81.369L170.34 87.8192Z" fill="white"/>
</g>
<g opacity="0.49">
<path d="M182.518 80.4832H190.001L193.723 74.033L190.001 67.5415H182.518L178.796 74.033L182.518 80.4832Z" fill="url(#paint22_linear_4283_46942)"/>
<path d="M182.518 80.4832H190.001L193.723 74.033L190.001 67.5415H182.518L178.796 74.033L182.518 80.4832Z" fill="white"/>
</g>
<path d="M158.266 80.7078H165.708L169.43 74.2576L165.708 67.7661H158.266L154.503 74.2576L158.266 80.7078Z" fill="url(#paint23_linear_4283_46942)"/>
<path d="M158.266 80.7078H165.708L169.43 74.2576L165.708 67.7661H158.266L154.503 74.2576L158.266 80.7078Z" fill="white"/>
<path d="M121.757 73.5965H129.199L132.962 67.1463L129.199 60.6548H121.757L118.036 67.1463L121.757 73.5965Z" fill="white"/>
<path d="M146.025 87.8192H153.509L157.23 81.369L153.509 74.8774H146.025L142.304 81.369L146.025 87.8192Z" fill="url(#paint24_linear_4283_46942)"/>
<path d="M146.025 87.8192H153.509L157.23 81.369L153.509 74.8774H146.025L142.304 81.369L146.025 87.8192Z" fill="white"/>
<path d="M121.757 73.5965H129.199L132.962 67.1463L129.199 60.6548H121.757L118.036 67.1463L121.757 73.5965Z" fill="white"/>
<g opacity="0.49">
<path d="M133.912 80.7078H141.396L145.117 74.2576L141.396 67.7661H133.912L130.191 74.2576L133.912 80.7078Z" fill="url(#paint25_linear_4283_46942)"/>
<path d="M133.912 80.7078H141.396L145.117 74.2576L141.396 67.7661H133.912L130.191 74.2576L133.912 80.7078Z" fill="white"/>
</g>
<g opacity="0.49">
<path d="M158.266 66.4847H165.708L169.43 60.0345L165.708 53.543H158.266L154.503 60.0345L158.266 66.4847Z" fill="url(#paint26_linear_4283_46942)"/>
<path d="M158.266 66.4847H165.708L169.43 60.0345L165.708 53.543H158.266L154.503 60.0345L158.266 66.4847Z" fill="white"/>
</g>
<path d="M146.025 59.3734H153.509L157.23 52.9232L153.509 46.4316H146.025L142.304 52.9232L146.025 59.3734Z" fill="url(#paint27_linear_4283_46942)"/>
<path d="M146.025 59.3734H153.509L157.23 52.9232L153.509 46.4316H146.025L142.304 52.9232L146.025 59.3734Z" fill="white"/>
<path d="M146.025 73.596H153.509L157.23 67.1458L153.509 60.6543H146.025L142.304 67.1458L146.025 73.596Z" fill="url(#paint28_linear_4283_46942)"/>
<path d="M146.025 73.596H153.509L157.23 67.1458L153.509 60.6543H146.025L142.304 67.1458L146.025 73.596Z" fill="white"/>
<path d="M133.912 66.4847H141.396L145.117 60.0345L141.396 53.543H133.912L130.191 60.0345L133.912 66.4847Z" fill="white"/>
<path d="M121.757 59.3734H129.199L132.962 52.9232L129.199 46.4316H121.757L118.036 52.9232L121.757 59.3734Z" fill="url(#paint29_linear_4283_46942)"/>
<path d="M121.757 59.3734H129.199L132.962 52.9232L129.199 46.4316H121.757L118.036 52.9232L121.757 59.3734Z" fill="white"/>
<path d="M121.757 73.5965H129.199L132.962 67.1463L129.199 60.6548H121.757L118.036 67.1463L121.757 73.5965Z" fill="white"/>
</g>
</g>
<g opacity="0.5" clip-path="url(#clip3_4283_46942)">
<g opacity="0.47">
<path d="M287.302 72.7747H279.86L276.139 66.3245L279.86 59.833H287.302L291.065 66.3245L287.302 72.7747Z" fill="url(#paint30_linear_4283_46942)"/>
<path d="M287.302 72.7747H279.86L276.139 66.3245L279.86 59.833H287.302L291.065 66.3245L287.302 72.7747Z" fill="white"/>
<g opacity="0.49">
<path d="M311.66 86.8192H304.176L300.455 80.369L304.176 73.8774H311.66L315.381 80.369L311.66 86.8192Z" fill="url(#paint31_linear_4283_46942)"/>
<path d="M311.66 86.8192H304.176L300.455 80.369L304.176 73.8774H311.66L315.381 80.369L311.66 86.8192Z" fill="white"/>
</g>
<g opacity="0.49">
<path d="M299.482 79.4832H291.999L288.277 73.033L291.999 66.5415H299.482L303.204 73.033L299.482 79.4832Z" fill="url(#paint32_linear_4283_46942)"/>
<path d="M299.482 79.4832H291.999L288.277 73.033L291.999 66.5415H299.482L303.204 73.033L299.482 79.4832Z" fill="white"/>
</g>
<path d="M323.734 79.7078H316.292L312.57 73.2576L316.292 66.7661H323.734L327.497 73.2576L323.734 79.7078Z" fill="url(#paint33_linear_4283_46942)"/>
<path d="M323.734 79.7078H316.292L312.57 73.2576L316.292 66.7661H323.734L327.497 73.2576L323.734 79.7078Z" fill="white"/>
<path d="M360.243 72.5965H352.801L349.038 66.1463L352.801 59.6548H360.243L363.964 66.1463L360.243 72.5965Z" fill="white"/>
<path d="M335.975 86.8192H328.491L324.77 80.369L328.491 73.8774H335.975L339.696 80.369L335.975 86.8192Z" fill="url(#paint34_linear_4283_46942)"/>
<path d="M335.975 86.8192H328.491L324.77 80.369L328.491 73.8774H335.975L339.696 80.369L335.975 86.8192Z" fill="white"/>
<path d="M360.243 72.5965H352.801L349.038 66.1463L352.801 59.6548H360.243L363.964 66.1463L360.243 72.5965Z" fill="white"/>
<g opacity="0.49">
<path d="M348.088 79.7078H340.604L336.883 73.2576L340.604 66.7661H348.088L351.809 73.2576L348.088 79.7078Z" fill="url(#paint35_linear_4283_46942)"/>
<path d="M348.088 79.7078H340.604L336.883 73.2576L340.604 66.7661H348.088L351.809 73.2576L348.088 79.7078Z" fill="white"/>
</g>
<g opacity="0.49">
<path d="M323.734 65.4847H316.292L312.57 59.0345L316.292 52.543H323.734L327.497 59.0345L323.734 65.4847Z" fill="url(#paint36_linear_4283_46942)"/>
<path d="M323.734 65.4847H316.292L312.57 59.0345L316.292 52.543H323.734L327.497 59.0345L323.734 65.4847Z" fill="white"/>
</g>
<path d="M335.975 58.3734H328.491L324.77 51.9232L328.491 45.4316H335.975L339.696 51.9232L335.975 58.3734Z" fill="url(#paint37_linear_4283_46942)"/>
<path d="M335.975 58.3734H328.491L324.77 51.9232L328.491 45.4316H335.975L339.696 51.9232L335.975 58.3734Z" fill="white"/>
<path d="M335.975 72.596H328.491L324.77 66.1458L328.491 59.6543H335.975L339.696 66.1458L335.975 72.596Z" fill="url(#paint38_linear_4283_46942)"/>
<path d="M335.975 72.596H328.491L324.77 66.1458L328.491 59.6543H335.975L339.696 66.1458L335.975 72.596Z" fill="white"/>
<path d="M348.088 65.4847H340.604L336.883 59.0345L340.604 52.543H348.088L351.809 59.0345L348.088 65.4847Z" fill="white"/>
<path d="M360.243 58.3734H352.801L349.038 51.9232L352.801 45.4316H360.243L363.964 51.9232L360.243 58.3734Z" fill="url(#paint39_linear_4283_46942)"/>
<path d="M360.243 58.3734H352.801L349.038 51.9232L352.801 45.4316H360.243L363.964 51.9232L360.243 58.3734Z" fill="white"/>
<path d="M360.243 72.5965H352.801L349.038 66.1463L352.801 59.6548H360.243L363.964 66.1463L360.243 72.5965Z" fill="white"/>
</g>
</g>
<defs>
<linearGradient id="paint0_linear_4283_46942" x1="6.33765" y1="13.5171" x2="21.5349" y2="13.5171" gradientUnits="userSpaceOnUse">
<stop offset="0.373" stop-color="#2185FF"/>
<stop offset="0.6993" stop-color="#1278FF"/>
<stop offset="1" stop-color="#0068FF"/>
</linearGradient>
<linearGradient id="paint1_linear_4283_46942" x1="31.1116" y1="-0.729075" x2="46.3089" y2="-0.729075" gradientUnits="userSpaceOnUse">
<stop offset="0.373" stop-color="#2185FF"/>
<stop offset="0.6993" stop-color="#1278FF"/>
<stop offset="1" stop-color="#0068FF"/>
</linearGradient>
<linearGradient id="paint2_linear_4283_46942" x1="18.7142" y1="6.71038" x2="33.9114" y2="6.71038" gradientUnits="userSpaceOnUse">
<stop offset="0.373" stop-color="#2185FF"/>
<stop offset="0.6993" stop-color="#1278FF"/>
<stop offset="1" stop-color="#0068FF"/>
</linearGradient>
<linearGradient id="paint3_linear_4283_46942" x1="43.4363" y1="6.48358" x2="58.6336" y2="6.48358" gradientUnits="userSpaceOnUse">
<stop offset="0.373" stop-color="#2185FF"/>
<stop offset="0.6993" stop-color="#1278FF"/>
<stop offset="1" stop-color="#0068FF"/>
</linearGradient>
<linearGradient id="paint4_linear_4283_46942" x1="55.8712" y1="-0.729075" x2="71.0684" y2="-0.729075" gradientUnits="userSpaceOnUse">
<stop offset="0.373" stop-color="#2185FF"/>
<stop offset="0.6993" stop-color="#1278FF"/>
<stop offset="1" stop-color="#0068FF"/>
</linearGradient>
<linearGradient id="paint5_linear_4283_46942" x1="68.1949" y1="6.48358" x2="83.3921" y2="6.48358" gradientUnits="userSpaceOnUse">
<stop offset="0.373" stop-color="#2185FF"/>
<stop offset="0.6993" stop-color="#1278FF"/>
<stop offset="1" stop-color="#0068FF"/>
</linearGradient>
<linearGradient id="paint6_linear_4283_46942" x1="43.4363" y1="20.9108" x2="58.6336" y2="20.9108" gradientUnits="userSpaceOnUse">
<stop offset="0.373" stop-color="#2185FF"/>
<stop offset="0.6993" stop-color="#1278FF"/>
<stop offset="1" stop-color="#0068FF"/>
</linearGradient>
<linearGradient id="paint7_linear_4283_46942" x1="55.8712" y1="28.1235" x2="71.0684" y2="28.1235" gradientUnits="userSpaceOnUse">
<stop offset="0.373" stop-color="#2185FF"/>
<stop offset="0.6993" stop-color="#1278FF"/>
<stop offset="1" stop-color="#0068FF"/>
</linearGradient>
<linearGradient id="paint8_linear_4283_46942" x1="55.8712" y1="13.6973" x2="71.0684" y2="13.6973" gradientUnits="userSpaceOnUse">
<stop offset="0.373" stop-color="#2185FF"/>
<stop offset="0.6993" stop-color="#1278FF"/>
<stop offset="1" stop-color="#0068FF"/>
</linearGradient>
<linearGradient id="paint9_linear_4283_46942" x1="80.595" y1="28.124" x2="95.7923" y2="28.124" gradientUnits="userSpaceOnUse">
<stop offset="0.373" stop-color="#2185FF"/>
<stop offset="0.6993" stop-color="#1278FF"/>
<stop offset="1" stop-color="#0068FF"/>
</linearGradient>
<linearGradient id="paint10_linear_4283_46942" x1="246.662" y1="13.5171" x2="231.465" y2="13.5171" gradientUnits="userSpaceOnUse">
<stop offset="0.373" stop-color="#2185FF"/>
<stop offset="0.6993" stop-color="#1278FF"/>
<stop offset="1" stop-color="#0068FF"/>
</linearGradient>
<linearGradient id="paint11_linear_4283_46942" x1="221.888" y1="-0.729075" x2="206.691" y2="-0.729075" gradientUnits="userSpaceOnUse">
<stop offset="0.373" stop-color="#2185FF"/>
<stop offset="0.6993" stop-color="#1278FF"/>
<stop offset="1" stop-color="#0068FF"/>
</linearGradient>
<linearGradient id="paint12_linear_4283_46942" x1="234.286" y1="6.71038" x2="219.089" y2="6.71038" gradientUnits="userSpaceOnUse">
<stop offset="0.373" stop-color="#2185FF"/>
<stop offset="0.6993" stop-color="#1278FF"/>
<stop offset="1" stop-color="#0068FF"/>
</linearGradient>
<linearGradient id="paint13_linear_4283_46942" x1="209.564" y1="6.48358" x2="194.366" y2="6.48358" gradientUnits="userSpaceOnUse">
<stop offset="0.373" stop-color="#2185FF"/>
<stop offset="0.6993" stop-color="#1278FF"/>
<stop offset="1" stop-color="#0068FF"/>
</linearGradient>
<linearGradient id="paint14_linear_4283_46942" x1="197.129" y1="-0.729075" x2="181.932" y2="-0.729075" gradientUnits="userSpaceOnUse">
<stop offset="0.373" stop-color="#2185FF"/>
<stop offset="0.6993" stop-color="#1278FF"/>
<stop offset="1" stop-color="#0068FF"/>
</linearGradient>
<linearGradient id="paint15_linear_4283_46942" x1="184.805" y1="6.48358" x2="169.608" y2="6.48358" gradientUnits="userSpaceOnUse">
<stop offset="0.373" stop-color="#2185FF"/>
<stop offset="0.6993" stop-color="#1278FF"/>
<stop offset="1" stop-color="#0068FF"/>
</linearGradient>
<linearGradient id="paint16_linear_4283_46942" x1="209.564" y1="20.9108" x2="194.366" y2="20.9108" gradientUnits="userSpaceOnUse">
<stop offset="0.373" stop-color="#2185FF"/>
<stop offset="0.6993" stop-color="#1278FF"/>
<stop offset="1" stop-color="#0068FF"/>
</linearGradient>
<linearGradient id="paint17_linear_4283_46942" x1="197.129" y1="28.1235" x2="181.932" y2="28.1235" gradientUnits="userSpaceOnUse">
<stop offset="0.373" stop-color="#2185FF"/>
<stop offset="0.6993" stop-color="#1278FF"/>
<stop offset="1" stop-color="#0068FF"/>
</linearGradient>
<linearGradient id="paint18_linear_4283_46942" x1="197.129" y1="13.6973" x2="181.932" y2="13.6973" gradientUnits="userSpaceOnUse">
<stop offset="0.373" stop-color="#2185FF"/>
<stop offset="0.6993" stop-color="#1278FF"/>
<stop offset="1" stop-color="#0068FF"/>
</linearGradient>
<linearGradient id="paint19_linear_4283_46942" x1="172.405" y1="28.124" x2="157.208" y2="28.124" gradientUnits="userSpaceOnUse">
<stop offset="0.373" stop-color="#2185FF"/>
<stop offset="0.6993" stop-color="#1278FF"/>
<stop offset="1" stop-color="#0068FF"/>
</linearGradient>
<linearGradient id="paint20_linear_4283_46942" x1="205.882" y1="67.3097" x2="190.955" y2="67.3097" gradientUnits="userSpaceOnUse">
<stop offset="0.373" stop-color="#2185FF"/>
<stop offset="0.6993" stop-color="#1278FF"/>
<stop offset="1" stop-color="#0068FF"/>
</linearGradient>
<linearGradient id="paint21_linear_4283_46942" x1="181.548" y1="81.358" x2="166.621" y2="81.358" gradientUnits="userSpaceOnUse">
<stop offset="0.373" stop-color="#2185FF"/>
<stop offset="0.6993" stop-color="#1278FF"/>
<stop offset="1" stop-color="#0068FF"/>
</linearGradient>
<linearGradient id="paint22_linear_4283_46942" x1="193.726" y1="74.0221" x2="178.799" y2="74.0221" gradientUnits="userSpaceOnUse">
<stop offset="0.373" stop-color="#2185FF"/>
<stop offset="0.6993" stop-color="#1278FF"/>
<stop offset="1" stop-color="#0068FF"/>
</linearGradient>
<linearGradient id="paint23_linear_4283_46942" x1="169.443" y1="74.245" x2="154.516" y2="74.245" gradientUnits="userSpaceOnUse">
<stop offset="0.373" stop-color="#2185FF"/>
<stop offset="0.6993" stop-color="#1278FF"/>
<stop offset="1" stop-color="#0068FF"/>
</linearGradient>
<linearGradient id="paint24_linear_4283_46942" x1="157.228" y1="81.358" x2="142.301" y2="81.358" gradientUnits="userSpaceOnUse">
<stop offset="0.373" stop-color="#2185FF"/>
<stop offset="0.6993" stop-color="#1278FF"/>
<stop offset="1" stop-color="#0068FF"/>
</linearGradient>
<linearGradient id="paint25_linear_4283_46942" x1="145.125" y1="74.245" x2="130.198" y2="74.245" gradientUnits="userSpaceOnUse">
<stop offset="0.373" stop-color="#2185FF"/>
<stop offset="0.6993" stop-color="#1278FF"/>
<stop offset="1" stop-color="#0068FF"/>
</linearGradient>
<linearGradient id="paint26_linear_4283_46942" x1="169.443" y1="60.0185" x2="154.516" y2="60.0185" gradientUnits="userSpaceOnUse">
<stop offset="0.373" stop-color="#2185FF"/>
<stop offset="0.6993" stop-color="#1278FF"/>
<stop offset="1" stop-color="#0068FF"/>
</linearGradient>
<linearGradient id="paint27_linear_4283_46942" x1="157.228" y1="52.9054" x2="142.301" y2="52.9054" gradientUnits="userSpaceOnUse">
<stop offset="0.373" stop-color="#2185FF"/>
<stop offset="0.6993" stop-color="#1278FF"/>
<stop offset="1" stop-color="#0068FF"/>
</linearGradient>
<linearGradient id="paint28_linear_4283_46942" x1="157.228" y1="67.1314" x2="142.301" y2="67.1314" gradientUnits="userSpaceOnUse">
<stop offset="0.373" stop-color="#2185FF"/>
<stop offset="0.6993" stop-color="#1278FF"/>
<stop offset="1" stop-color="#0068FF"/>
</linearGradient>
<linearGradient id="paint29_linear_4283_46942" x1="132.945" y1="52.9054" x2="118.018" y2="52.9054" gradientUnits="userSpaceOnUse">
<stop offset="0.373" stop-color="#2185FF"/>
<stop offset="0.6993" stop-color="#1278FF"/>
<stop offset="1" stop-color="#0068FF"/>
</linearGradient>
<linearGradient id="paint30_linear_4283_46942" x1="276.118" y1="66.3097" x2="291.045" y2="66.3097" gradientUnits="userSpaceOnUse">
<stop offset="0.373" stop-color="#2185FF"/>
<stop offset="0.6993" stop-color="#1278FF"/>
<stop offset="1" stop-color="#0068FF"/>
</linearGradient>
<linearGradient id="paint31_linear_4283_46942" x1="300.452" y1="80.358" x2="315.379" y2="80.358" gradientUnits="userSpaceOnUse">
<stop offset="0.373" stop-color="#2185FF"/>
<stop offset="0.6993" stop-color="#1278FF"/>
<stop offset="1" stop-color="#0068FF"/>
</linearGradient>
<linearGradient id="paint32_linear_4283_46942" x1="288.274" y1="73.0221" x2="303.201" y2="73.0221" gradientUnits="userSpaceOnUse">
<stop offset="0.373" stop-color="#2185FF"/>
<stop offset="0.6993" stop-color="#1278FF"/>
<stop offset="1" stop-color="#0068FF"/>
</linearGradient>
<linearGradient id="paint33_linear_4283_46942" x1="312.557" y1="73.245" x2="327.484" y2="73.245" gradientUnits="userSpaceOnUse">
<stop offset="0.373" stop-color="#2185FF"/>
<stop offset="0.6993" stop-color="#1278FF"/>
<stop offset="1" stop-color="#0068FF"/>
</linearGradient>
<linearGradient id="paint34_linear_4283_46942" x1="324.772" y1="80.358" x2="339.699" y2="80.358" gradientUnits="userSpaceOnUse">
<stop offset="0.373" stop-color="#2185FF"/>
<stop offset="0.6993" stop-color="#1278FF"/>
<stop offset="1" stop-color="#0068FF"/>
</linearGradient>
<linearGradient id="paint35_linear_4283_46942" x1="336.875" y1="73.245" x2="351.802" y2="73.245" gradientUnits="userSpaceOnUse">
<stop offset="0.373" stop-color="#2185FF"/>
<stop offset="0.6993" stop-color="#1278FF"/>
<stop offset="1" stop-color="#0068FF"/>
</linearGradient>
<linearGradient id="paint36_linear_4283_46942" x1="312.557" y1="59.0185" x2="327.484" y2="59.0185" gradientUnits="userSpaceOnUse">
<stop offset="0.373" stop-color="#2185FF"/>
<stop offset="0.6993" stop-color="#1278FF"/>
<stop offset="1" stop-color="#0068FF"/>
</linearGradient>
<linearGradient id="paint37_linear_4283_46942" x1="324.772" y1="51.9054" x2="339.699" y2="51.9054" gradientUnits="userSpaceOnUse">
<stop offset="0.373" stop-color="#2185FF"/>
<stop offset="0.6993" stop-color="#1278FF"/>
<stop offset="1" stop-color="#0068FF"/>
</linearGradient>
<linearGradient id="paint38_linear_4283_46942" x1="324.772" y1="66.1314" x2="339.699" y2="66.1314" gradientUnits="userSpaceOnUse">
<stop offset="0.373" stop-color="#2185FF"/>
<stop offset="0.6993" stop-color="#1278FF"/>
<stop offset="1" stop-color="#0068FF"/>
</linearGradient>
<linearGradient id="paint39_linear_4283_46942" x1="349.055" y1="51.9054" x2="363.982" y2="51.9054" gradientUnits="userSpaceOnUse">
<stop offset="0.373" stop-color="#2185FF"/>
<stop offset="0.6993" stop-color="#1278FF"/>
<stop offset="1" stop-color="#0068FF"/>
</linearGradient>
<clipPath id="clip0_4283_46942">
<rect width="101" height="79" fill="white" transform="matrix(1 0 0 -1 0 79)"/>
</clipPath>
<clipPath id="clip1_4283_46942">
<rect width="101" height="79" fill="white" transform="matrix(-1 0 0 -1 253 79)"/>
</clipPath>
<clipPath id="clip2_4283_46942">
<rect width="109" height="79" fill="white" transform="matrix(-1 0 0 1 218 1)"/>
</clipPath>
<clipPath id="clip3_4283_46942">
<rect width="96" height="79" fill="white" transform="translate(264)"/>
</clipPath>
</defs>
</svg>
