<svg width="25" height="25" viewBox="0 0 25 25" fill="none" xmlns="http://www.w3.org/2000/svg">
<g clip-path="url(#clip0_7441_73016)">
<path d="M12.5 25C19.4036 25 25 19.4036 25 12.5C25 5.59644 19.4036 0 12.5 0C5.59644 0 0 5.59644 0 12.5C0 19.4036 5.59644 25 12.5 25Z" fill="#FFCE33"/>
<path d="M12.5002 22.5015C17.9282 22.5015 22.3284 18.1013 22.3284 12.6733C22.3284 7.24542 17.9282 2.84521 12.5002 2.84521C7.07232 2.84521 2.67212 7.24542 2.67212 12.6733C2.67212 18.1013 7.07232 22.5015 12.5002 22.5015Z" fill="#F28A00"/>
<path d="M16.6519 14.5278C16.6519 15.3441 16.4647 16.064 16.0913 16.687C15.7263 17.3101 15.2124 17.798 14.5503 18.1489C13.8882 18.4998 13.103 18.6753 12.1948 18.6753C11.295 18.6753 10.509 18.4999 9.83838 18.1489C9.17632 17.798 8.65913 17.31 8.28564 16.687C7.92068 16.064 7.73779 15.3442 7.73779 14.5278V11.1118H12.6147L11.7163 12.8521H9.43115V14.4419C9.43115 14.9431 9.54164 15.3765 9.76221 15.7417C9.99135 16.114 10.3142 16.4005 10.73 16.6011C11.1459 16.8088 11.6345 16.9126 12.1948 16.9126C12.7635 16.9126 13.2513 16.8087 13.6587 16.6011C14.0747 16.4005 14.3931 16.1141 14.6138 15.7417C14.8429 15.3765 14.9575 14.9432 14.9575 14.4419V12.8569L15.8589 11.1118H16.6519V14.5278Z" fill="#FFCE33"/>
<path d="M11.9697 15.7374C11.5716 15.533 11.4145 15.0445 11.6189 14.6464L14.6587 8.72509C14.863 8.32696 15.3515 8.16989 15.7496 8.37428C16.1477 8.57866 16.3048 9.0671 16.1004 9.46524L13.0607 15.3866C12.8563 15.7847 12.3679 15.9418 11.9697 15.7374Z" fill="#FFCE33"/>
<path d="M17.1251 7.06033C17.1251 7.50786 16.7623 7.87066 16.3147 7.87066C15.8672 7.87066 15.5044 7.50786 15.5044 7.06033C15.5044 6.6128 15.8672 6.25 16.3147 6.25C16.7623 6.25 17.1251 6.6128 17.1251 7.06033Z" fill="#FFCE33"/>
</g>
<defs>
<clipPath id="clip0_7441_73016">
<rect width="25" height="25" fill="white"/>
</clipPath>
</defs>
</svg>
