<svg width="80" height="56" viewBox="0 0 80 56" fill="none" xmlns="http://www.w3.org/2000/svg">
<path fill-rule="evenodd" clip-rule="evenodd" d="M10.0664 34.6468C10.0664 30.9556 18.4565 27.9658 28.8092 27.9658C39.1619 27.9658 47.5548 30.9555 47.5548 34.6468V40.7849C47.5548 44.476 39.1619 47.4658 28.8092 47.4658C18.4565 47.4658 10.0664 44.4761 10.0664 40.7849C10.0664 38.7388 10.0664 36.6928 10.0664 34.6468Z" fill="#FE9923"/>
<path fill-rule="evenodd" clip-rule="evenodd" d="M28.8092 27.9658C39.1618 27.9658 47.5548 30.9555 47.5548 34.6468C47.5548 38.3352 39.1619 41.3277 28.8092 41.3277C18.4565 41.3277 10.0664 38.3353 10.0664 34.6468C10.0664 30.9556 18.4565 27.9658 28.8092 27.9658Z" fill="#FECD3D"/>
<path fill-rule="evenodd" clip-rule="evenodd" d="M28.8091 27.9658C31.9602 27.9658 34.9305 28.2414 37.5361 28.7313V29.174C37.5361 32.8651 29.1432 35.8549 18.7933 35.8549C15.6588 35.8549 12.7053 35.5822 10.1081 35.0977C10.0803 34.9475 10.0664 34.7971 10.0664 34.6468C10.0663 30.9556 18.4564 27.9658 28.8091 27.9658Z" fill="#CEA732"/>
<path fill-rule="evenodd" clip-rule="evenodd" d="M28.8093 31.0864C37.0463 31.0864 43.7217 32.6815 43.7217 34.6468C43.7217 36.6121 37.0463 38.2043 28.8093 38.2043C20.5751 38.2043 13.897 36.612 13.897 34.6468C13.897 32.6815 20.575 31.0864 28.8093 31.0864Z" fill="#FEA832"/>
<path fill-rule="evenodd" clip-rule="evenodd" d="M28.8093 31.0864C31.5374 31.0864 34.0956 31.2618 36.2975 31.568C33.5946 34.0761 26.7773 35.8549 18.7935 35.8549C17.3293 35.8549 15.9068 35.7965 14.54 35.6824C14.1225 35.3539 13.897 35.0059 13.897 34.6469C13.897 32.6815 20.575 31.0864 28.8093 31.0864Z" fill="#CE8829"/>
<path d="M42.4855 42.0848V45.3529C43.0617 45.133 43.599 44.9019 44.0889 44.6541V42.082L42.4855 42.0848ZM38.296 46.5472C37.7783 46.6557 37.2438 46.756 36.6954 46.8479V43.7329L38.296 43.7357V46.5472ZM32.5059 47.3349C31.9798 47.3738 31.4453 47.4017 30.9053 47.424V44.451L32.5059 44.4565V47.3349ZM26.7158 47.424C26.1729 47.4017 25.6384 47.3738 25.1123 47.3349V44.4537H26.7158V47.424ZM20.9228 46.8478C20.3745 46.7559 19.84 46.6557 19.3222 46.5471V43.7327L20.9228 43.7355V46.8478ZM15.1327 45.353C14.5565 45.133 14.0192 44.902 13.5293 44.6542V42.0849L15.1327 42.0821V45.353Z" fill="#C85929"/>
<path fill-rule="evenodd" clip-rule="evenodd" d="M0.0478516 21.4325C0.0478516 17.7413 8.44073 14.7488 18.7934 14.7488C29.1432 14.7488 37.5362 17.7413 37.5362 21.4325V27.5706C37.5362 31.259 29.1433 34.2515 18.7934 34.2515C8.44073 34.2515 0.0478516 31.259 0.0478516 27.5706C0.0478516 25.5246 0.0478516 23.4785 0.0478516 21.4325Z" fill="#FE9923"/>
<path fill-rule="evenodd" clip-rule="evenodd" d="M18.7934 14.7488C29.1432 14.7488 37.5362 17.7413 37.5362 21.4325C37.5362 25.1209 29.1433 28.1133 18.7934 28.1133C8.44073 28.1134 0.0478516 25.121 0.0478516 21.4325C0.0478516 17.7413 8.44073 14.7488 18.7934 14.7488Z" fill="#FECD3D"/>
<path fill-rule="evenodd" clip-rule="evenodd" d="M18.7936 14.7488C29.1434 14.7488 37.5364 17.7413 37.5364 21.4325C37.5364 21.7943 37.4556 22.1507 37.297 22.4986C35.3178 22.7241 33.2077 22.8438 31.017 22.8438C19.5898 22.8438 10.3257 19.5424 10.3257 15.4698C12.8671 15.0104 15.7454 14.7488 18.7936 14.7488Z" fill="#CEA732"/>
<path fill-rule="evenodd" clip-rule="evenodd" d="M18.7932 17.8721C27.0274 17.8721 33.7056 19.4672 33.7056 21.4324C33.7056 23.3977 27.0274 24.99 18.7932 24.99C10.5562 24.99 3.88086 23.3977 3.88086 21.4324C3.88086 19.4672 10.5562 17.8721 18.7932 17.8721Z" fill="#FEA832"/>
<path fill-rule="evenodd" clip-rule="evenodd" d="M18.7936 17.8721C27.0278 17.8721 33.706 19.4672 33.706 21.4324C33.706 21.9251 33.2829 22.3983 32.5174 22.8242C32.0219 22.8382 31.5208 22.8438 31.0169 22.8438C22.3791 22.8438 14.98 20.9592 11.8789 18.2784C13.9471 18.0195 16.2967 17.8721 18.7936 17.8721Z" fill="#CE8829"/>
<path d="M32.4697 28.8707V32.1388C33.046 31.9188 33.5833 31.685 34.0732 31.44V28.8679L32.4697 28.8707ZM28.2802 33.3329C27.7625 33.4415 27.228 33.5418 26.6796 33.6336V30.5186L28.2802 30.5214V33.3329ZM22.4873 34.1208C21.9613 34.1597 21.4295 34.1876 20.8867 34.2099V31.2369L22.4873 31.2396V34.1208ZM16.6972 34.2098C16.1571 34.1875 15.6226 34.1596 15.0938 34.1207V31.2396L16.6972 31.2369V34.2098ZM10.9043 33.6336C10.3559 33.5417 9.82418 33.4415 9.30365 33.3329V30.5186L10.9043 30.5214V33.6336ZM5.11693 32.1388C4.53792 31.9188 4.00342 31.685 3.51074 31.44V28.8707L5.11693 28.8679V32.1388Z" fill="#C85929"/>
<path d="M47.5157 22.4819V23.9211H48.9521V25.2963H47.5157V26.7327H46.1405V25.2963H44.7041V23.9211H46.1405V22.4819H47.5157Z" fill="#FEA832"/>
<path d="M4.41004 37.0796V38.516H5.84645V39.8912H4.41004V41.3276H3.03489V39.8912H1.5957V38.516H3.03489V37.0796H4.41004Z" fill="#FEA832"/>
<path d="M4.41004 7.02954V8.46595H5.84645V9.84111H4.41004V11.2803H3.03489V9.84111H1.5957V8.46595H3.03489V7.02954H4.41004Z" fill="#FEA832"/>
<path fill-rule="evenodd" clip-rule="evenodd" d="M10.0664 8.21536C10.0664 4.52697 18.4565 1.53442 28.8092 1.53442C39.1619 1.53442 47.5548 4.52687 47.5548 8.21536V14.3563C47.5548 18.0446 39.1619 21.0372 28.8092 21.0372C18.4565 21.0372 10.0664 18.0447 10.0664 14.3563C10.0664 12.3102 10.0664 10.2614 10.0664 8.21536Z" fill="#FE9923"/>
<path fill-rule="evenodd" clip-rule="evenodd" d="M28.8092 1.53442C39.1618 1.53442 47.5548 4.52687 47.5548 8.21536C47.5548 11.9065 39.1619 14.8991 28.8092 14.8991C18.4565 14.8991 10.0664 11.9065 10.0664 8.21536C10.0664 4.52697 18.4565 1.53442 28.8092 1.53442Z" fill="#FECD3D"/>
<path fill-rule="evenodd" clip-rule="evenodd" d="M28.8093 4.65771C37.0463 4.65771 43.7217 6.25002 43.7217 8.21529C43.7217 10.1834 37.0463 11.7756 28.8093 11.7756C20.5751 11.7756 13.897 10.1833 13.897 8.21529C13.897 6.25002 20.575 4.65771 28.8093 4.65771Z" fill="#FEA832"/>
<path d="M42.4855 15.6563V18.9244C43.0617 18.7045 43.599 18.4707 44.0889 18.2257V15.6536L42.4855 15.6563ZM38.296 20.1186C37.7783 20.2271 37.2438 20.3274 36.6954 20.4164V17.3043L38.296 17.307V20.1186ZM32.5059 20.9064C31.9798 20.9426 31.4453 20.9732 30.9053 20.9955V18.0225L32.5059 18.0253V20.9064ZM26.7158 20.9955C26.1729 20.9732 25.6384 20.9426 25.1123 20.9064V18.0253L26.7158 18.0225V20.9955ZM20.9228 20.4164C20.3745 20.3273 19.84 20.2271 19.3222 20.1186V17.3043L20.9228 17.307V20.4164ZM15.1327 18.9244C14.5565 18.7045 14.0192 18.4707 13.5293 18.2257V15.6563L15.1327 15.6536V18.9244Z" fill="#C85929"/>
<g clip-path="url(#clip0_5341_46459)">
<path d="M59 56C70.598 56 80 46.598 80 35C80 23.402 70.598 14 59 14C47.402 14 38 23.402 38 35C38 46.598 47.402 56 59 56Z" fill="#FFCE33"/>
<path d="M59 51.8025C68.1189 51.8025 75.5113 44.4102 75.5113 35.2913C75.5113 26.1724 68.1189 18.78 59 18.78C49.8811 18.78 42.4888 26.1724 42.4888 35.2913C42.4888 44.4102 49.8811 51.8025 59 51.8025Z" fill="#F28A00"/>
<path fill-rule="evenodd" clip-rule="evenodd" d="M59.1939 32.6682H51V38.4076C51 39.7792 51.3066 40.9884 51.9199 42.0352C52.5474 43.082 53.4174 43.9002 54.5298 44.4898C55.6565 45.0794 56.9757 45.3742 58.4874 45.3742C60.0134 45.3742 61.3327 45.0794 62.4451 44.4898C63.5575 43.9002 64.4203 43.082 65.0336 42.0352C65.6611 40.9884 65.9749 39.7792 65.9749 38.4076V32.6682H64.6435L63.1297 35.6001V38.2632C63.1297 39.1054 62.9371 39.8334 62.552 40.447C62.1812 41.0727 61.6464 41.554 60.9476 41.8909C60.263 42.2398 59.443 42.4143 58.4874 42.4143C57.5462 42.4143 56.7261 42.2398 56.0273 41.8909C55.3285 41.554 54.7865 41.0727 54.4014 40.447C54.0306 39.8334 53.8452 39.1054 53.8452 38.2632V35.592L57.6843 35.592L59.1939 32.6682Z" fill="#FFCE33"/>
<path d="M58.11 40.4385C57.4412 40.0951 57.1773 39.2746 57.5207 38.6057L62.6274 28.6579C62.9708 27.989 63.7914 27.7251 64.4602 28.0685C65.1291 28.4119 65.393 29.2325 65.0496 29.9013L59.9428 39.8491C59.5995 40.518 58.7789 40.7819 58.11 40.4385Z" fill="#FFCE33"/>
<path d="M66.7706 25.8614C66.7706 26.6132 66.1611 27.2227 65.4092 27.2227C64.6573 27.2227 64.0479 26.6132 64.0479 25.8614C64.0479 25.1095 64.6573 24.5 65.4092 24.5C66.1611 24.5 66.7706 25.1095 66.7706 25.8614Z" fill="#FFCE33"/>
</g>
<defs>
<clipPath id="clip0_5341_46459">
<rect width="42" height="42" fill="white" transform="translate(38 14)"/>
</clipPath>
</defs>
</svg>
