<svg width="28" height="28" viewBox="0 0 28 28" fill="none" xmlns="http://www.w3.org/2000/svg">
<circle cx="14" cy="12" r="12" fill="white"/>
<g filter="url(#filter0_d_7527_108174)">
<path fill-rule="evenodd" clip-rule="evenodd" d="M19.1477 12.827C19.8934 11.5353 17.561 8.7919 13.938 6.70006C10.3139 4.60826 6.77247 3.95981 6.02675 5.25149C5.61258 5.9669 5.19944 6.68334 4.78631 7.39979C4.0406 8.6915 6.37296 11.4338 9.99701 13.5257C13.62 15.6175 17.1625 16.267 17.9083 14.9753C18.3214 14.2588 18.7345 13.5434 19.1477 12.827Z" fill="#FE9923"/>
<path fill-rule="evenodd" clip-rule="evenodd" d="M19.1492 12.8272C19.7181 11.843 18.4975 10.0147 16.2813 8.27539C15.682 8.55465 15.0701 8.8726 14.4562 9.22715C12.3016 10.4708 10.5497 11.9172 9.49023 13.2236C9.65654 13.3261 9.82598 13.4265 9.99855 13.5258C12.0025 14.6826 13.9814 15.398 15.476 15.5884C16.1453 15.285 16.8314 14.9336 17.5207 14.5362C17.8616 14.3385 18.1921 14.1366 18.5122 13.9306L19.1492 12.8272Z" fill="#CE7C1D"/>
<path fill-rule="evenodd" clip-rule="evenodd" d="M13.9388 6.7001C10.3147 4.60826 6.77324 3.95981 6.02752 5.25149C5.28181 6.54213 7.61417 9.28554 11.2382 11.3774C14.8613 13.4692 18.4037 14.1187 19.1484 12.827C19.8941 11.5353 17.5618 8.7919 13.9388 6.7001Z" fill="#FECD3D"/>
<path fill-rule="evenodd" clip-rule="evenodd" d="M11.3027 11.4152C14.9038 13.4767 18.4076 14.1105 19.1481 12.8272C19.717 11.843 18.4965 10.0147 16.2802 8.27539C15.6809 8.55465 15.069 8.8726 14.4551 9.22715C13.2648 9.91328 12.198 10.6622 11.3027 11.4152Z" fill="#CEA732"/>
<path fill-rule="evenodd" clip-rule="evenodd" d="M13.3068 7.79419C10.4243 6.13012 7.76559 5.33837 7.36814 6.02659C6.97173 6.71481 8.98615 8.62149 11.8687 10.2855C14.7512 11.9496 17.4099 12.7413 17.8073 12.0531C18.2048 11.366 16.1893 9.45927 13.3068 7.79419Z" fill="#FEA832"/>
<path fill-rule="evenodd" clip-rule="evenodd" d="M12.3818 10.573C15.0604 12.0383 17.4346 12.7004 17.808 12.053C18.1186 11.5143 16.9514 10.2289 15.0468 8.89746C14.8502 9.00415 14.6525 9.11397 14.4559 9.22796C13.7122 9.65681 13.0178 10.1097 12.3818 10.573Z" fill="#CE8829"/>
<path d="M16.4331 14.7317L15.9133 15.6312C15.6926 15.6176 15.4573 15.5915 15.2115 15.5517L15.8725 14.4065L16.4331 14.7317ZM8.72998 12.7351C8.90676 12.8544 9.0877 12.9725 9.27282 13.0886L9.87319 12.049L9.31259 11.7268L8.72998 12.7351ZM5.2168 9.45514C5.33917 9.64029 5.47933 9.83062 5.63726 10.0241L6.2983 8.87991L5.73665 8.55566L5.2168 9.45514ZM6.86202 11.2886C7.02204 11.4309 7.18835 11.5742 7.36196 11.7164L7.9916 10.6265L7.431 10.3044L6.86202 11.2886ZM10.7381 13.9358C10.9327 14.0373 11.1262 14.1356 11.3176 14.2286L11.9002 13.2204L11.3396 12.8951L10.7381 13.9358ZM12.8833 14.9043C13.0935 14.9838 13.3006 15.056 13.5035 15.1229L14.0725 14.1377L13.5119 13.8155L12.8833 14.9043Z" fill="#C85929"/>
<path d="M6.38429 13.3857V14.0405H7.03903V14.5572H6.38429V15.2119H5.86763V14.5572H5.21289V14.0405H5.86763V13.3857H6.38429Z" fill="#FEA832"/>
<path d="M17.9214 5.5791V6.2328H18.5762V6.74949H17.9214V7.4042H17.4047V6.74949H16.75V6.2328H17.4047V5.5791H17.9214Z" fill="#FEA832"/>
<path fill-rule="evenodd" clip-rule="evenodd" d="M8.52163 16.2703C7.77588 14.9786 10.1093 12.2363 13.7323 10.1444C17.3554 8.05159 20.8978 7.40311 21.6436 8.69482C22.0567 9.41127 22.4698 10.1267 22.884 10.8431C23.6298 12.1348 21.2963 14.8772 17.6733 16.97C14.0492 19.0618 10.5078 19.7103 9.76207 18.4186C9.34894 17.7032 8.93476 16.9868 8.52163 16.2703Z" fill="#FE9923"/>
<path fill-rule="evenodd" clip-rule="evenodd" d="M13.7323 10.1444C17.3554 8.05159 20.8978 7.40311 21.6436 8.69482C22.3893 9.9865 20.0559 12.7289 16.4329 14.8207C12.8088 16.9136 9.26738 17.562 8.52163 16.2703C7.77588 14.9786 10.1093 12.2363 13.7323 10.1444Z" fill="#FECD3D"/>
<path fill-rule="evenodd" clip-rule="evenodd" d="M14.363 11.2371C17.2455 9.57206 19.9053 8.78136 20.3016 9.4685C20.6991 10.1567 18.6847 12.0634 15.8011 13.7274C12.9186 15.3925 10.2599 16.1832 9.8635 15.4961C9.46604 14.8079 11.4805 12.9012 14.363 11.2371Z" fill="#FEA832"/>
<path d="M14.1595 17.2579L14.7881 18.3467C14.5779 18.4262 14.3708 18.4994 14.1668 18.5653L13.5979 17.58L14.1595 17.2579ZM15.7713 16.6628L16.3528 17.671C16.5452 17.5779 16.7387 17.4807 16.9322 17.3782L16.3319 16.3385L15.7713 16.6628ZM11.2383 18.1741L11.757 19.0736C11.9788 19.0611 12.2131 19.0338 12.4599 18.9941L11.7988 17.8499L11.2383 18.1741ZM21.9337 11.998L21.3731 12.3223L22.0331 13.4665C22.191 13.273 22.3322 13.0837 22.4535 12.8986L21.9337 11.998ZM17.7982 15.4914L18.3986 16.5321C18.5837 16.4149 18.7646 16.2968 18.9414 16.1775L18.3588 15.1693L17.7982 15.4914ZM19.6798 14.0689L20.3095 15.1598C20.4831 15.0165 20.6494 14.8743 20.8083 14.731L20.2404 13.7468L19.6798 14.0689Z" fill="#C85929"/>
</g>
<defs>
<filter id="filter0_d_7527_108174" x="0.647461" y="4.58691" width="26.375" height="22.4961" filterUnits="userSpaceOnUse" color-interpolation-filters="sRGB">
<feFlood flood-opacity="0" result="BackgroundImageFix"/>
<feColorMatrix in="SourceAlpha" type="matrix" values="0 0 0 0 0 0 0 0 0 0 0 0 0 0 0 0 0 0 127 0" result="hardAlpha"/>
<feOffset dy="4"/>
<feGaussianBlur stdDeviation="2"/>
<feComposite in2="hardAlpha" operator="out"/>
<feColorMatrix type="matrix" values="0 0 0 0 0 0 0 0 0 0 0 0 0 0 0 0 0 0 0.25 0"/>
<feBlend mode="normal" in2="BackgroundImageFix" result="effect1_dropShadow_7527_108174"/>
<feBlend mode="normal" in="SourceGraphic" in2="effect1_dropShadow_7527_108174" result="shape"/>
</filter>
</defs>
</svg>
