<svg width="26" height="29" viewBox="0 0 26 29" fill="none" xmlns="http://www.w3.org/2000/svg">
<circle cx="13" cy="12" r="12" fill="white"/>
<g filter="url(#filter0_d_7527_108203)">
<path d="M12.836 2.62988C12.6886 2.62988 12.542 2.63366 12.3963 2.64112L4.74696 8.5243C4.48358 9.34404 4.34082 10.2178 4.34082 11.1251C4.34082 15.8169 8.14428 19.6204 12.8361 19.6204C17.5279 19.6204 21.3313 15.8169 21.3313 11.1251C21.3313 6.43335 17.5278 2.62988 12.836 2.62988Z" fill="#FFDD40"/>
<path d="M20.544 14.6175L15.4785 5.84375C15.7138 6.46054 15.8431 7.12924 15.8431 7.8277V18.5787C15.8431 18.9572 15.7258 19.3087 15.5259 19.5992L19.8832 17.0835C20.7453 16.5858 21.0418 15.4796 20.544 14.6175Z" fill="#5C5C87"/>
<path d="M19.4557 17.246C19.2255 17.173 19.1965 16.9752 19.2045 16.8454C19.2084 16.7812 19.1686 16.7209 19.1076 16.7003C18.9263 16.6392 18.8846 16.4948 18.8799 16.3906C18.8768 16.3211 18.8277 16.2627 18.7594 16.2496C16.6004 15.8363 16.0433 13.9389 15.9345 13.4498C15.9235 13.4006 15.8885 13.3621 15.8436 13.3447V18.5779C15.8436 18.9564 15.7262 19.3079 15.5264 19.5984L19.524 17.2904C19.506 17.2703 19.4828 17.2546 19.4557 17.246Z" fill="#41416B"/>
<path d="M19.7463 15.0778L15.8438 8.31836V18.3511L19.423 16.2847C19.8448 16.0411 19.9899 15.4997 19.7463 15.0778Z" fill="#41416B"/>
<path d="M18.8801 16.3906C18.877 16.3211 18.8279 16.2627 18.7596 16.2496C16.6006 15.8363 16.0434 13.9389 15.9346 13.4498C15.9237 13.4006 15.8887 13.3621 15.8438 13.3447V18.3509L18.9318 16.568C18.8951 16.5095 18.8825 16.4447 18.8801 16.3906Z" fill="#35355E"/>
<path d="M15.5467 18.8325C15.4506 18.8325 15.357 18.783 15.305 18.694C15.2269 18.5606 15.2718 18.3892 15.4051 18.3112L19.2812 16.0431C19.5708 15.8758 19.6699 15.5059 19.5035 15.2177L15.3044 7.97689C15.2269 7.84322 15.2724 7.672 15.4061 7.59446C15.5397 7.5169 15.711 7.56246 15.7885 7.69613L19.9879 14.9374C20.3089 15.4933 20.1179 16.2062 19.5625 16.5269L15.6878 18.7942C15.6434 18.8202 15.5947 18.8325 15.5467 18.8325Z" fill="#35355E"/>
<path d="M19.1073 16.7012C18.9259 16.6401 18.8843 16.4957 18.8796 16.3915C18.878 16.3567 18.865 16.3247 18.8437 16.2998L15.4051 18.3119C15.2718 18.39 15.2269 18.5614 15.305 18.6947C15.357 18.7837 15.4506 18.8333 15.5467 18.8333C15.5947 18.8333 15.6433 18.8209 15.6878 18.795L19.1768 16.7533C19.1598 16.7296 19.1361 16.7109 19.1073 16.7012Z" fill="#28284C"/>
<path d="M12.3955 2.6416C12.2675 2.64812 12.1404 2.65779 12.0141 2.66993L12.0142 2.67003L11.3823 2.75464V2.75433C8.24751 3.29463 5.70086 5.55292 4.74609 8.52478V18.5785C4.74609 19.574 5.55592 20.3838 6.55136 20.3838H14.1062C15.1016 20.3838 15.9114 19.574 15.9114 18.5785V7.82751C15.9114 5.47899 14.4536 3.46471 12.3955 2.6416ZM10.3287 7.01338C9.73959 7.01338 9.26198 6.53577 9.26198 5.94665C9.26198 5.35749 9.73959 4.87989 10.3287 4.87989C10.9179 4.87989 11.3955 5.35749 11.3955 5.94665C11.3955 6.53577 10.9179 7.01338 10.3287 7.01338Z" fill="#FF7186"/>
<path d="M14.2213 20.3797C14.2094 20.3544 14.1914 20.3317 14.1667 20.315C13.9804 20.1879 13.9957 20.0072 14.0379 19.8829C14.0626 19.8099 14.0357 19.7275 13.9696 19.6879C13.8062 19.59 13.7881 19.4167 13.7974 19.3007C13.8032 19.2286 13.7594 19.1626 13.6923 19.1354C12.7431 18.7494 12.6525 17.915 12.6645 17.5326C12.6677 17.4307 12.5795 17.3511 12.4781 17.361C10.7389 17.5316 10.8165 15.8886 10.8839 15.368C10.8938 15.2909 10.8495 15.2187 10.7775 15.1894C10.6354 15.1316 10.6015 14.9819 10.5935 14.9093C10.5904 14.8812 10.5806 14.8541 10.564 14.8311L10.1256 14.2199C10.0993 14.1834 10.0594 14.1594 10.015 14.152C9.91466 14.1351 9.86692 14.0792 9.84466 14.0233C9.81473 13.9482 9.73283 13.9074 9.65332 13.9223L8.89138 14.0656C8.86048 14.0714 8.82831 14.0688 8.79915 14.057C7.68699 13.6087 8.16436 12.4774 8.32591 12.1593C8.35323 12.1055 8.34903 12.041 8.31561 11.9907L8.18187 11.7896C8.15371 11.7473 8.10787 11.7206 8.05728 11.7153C6.54914 11.5569 6.10177 10.4237 5.98488 9.98964C5.96238 9.906 5.87982 9.85493 5.79424 9.86831C5.58879 9.90042 5.48293 9.77531 5.43158 9.67268C5.39919 9.60794 5.32949 9.56938 5.25796 9.58058C4.92099 9.63346 4.80043 9.43616 4.76208 9.33897C4.75785 9.32822 4.75227 9.3182 4.74609 9.30859V18.5786C4.7462 19.574 5.55602 20.3838 6.55146 20.3838H14.1063C14.1449 20.3838 14.1832 20.3822 14.2213 20.3797Z" fill="#FF4155"/>
<path d="M9.77086 5.60305C9.86049 5.83644 10.0799 5.98724 10.3299 5.98724H10.33C10.4845 5.98721 10.6098 5.86193 10.6097 5.70742C10.6097 5.55291 10.4845 5.42767 10.33 5.42767H10.3299C10.3029 5.42767 10.2964 5.41064 10.2932 5.40246L9.49149 3.31445C9.31915 3.38834 9.14966 3.46758 8.9834 3.55232L9.77086 5.60305Z" fill="#C8CEFC"/>
<path d="M14.9897 7.82782C14.9897 5.25784 12.8988 3.16699 10.3288 3.16699C10.1402 3.16699 9.95435 3.17857 9.77154 3.20045C8.26572 3.78292 6.96737 4.78183 6.01804 6.05633C5.79266 6.60277 5.66797 7.20097 5.66797 7.82786V18.5788C5.66797 19.066 6.0643 19.4623 6.55141 19.4623H14.1062C14.5933 19.4623 14.9897 19.066 14.9897 18.5788V7.82782ZM10.3288 7.01369C9.73964 7.01369 9.26203 6.53609 9.26203 5.94696C9.26203 5.35781 9.73964 4.8802 10.3288 4.8802C10.918 4.8802 11.3956 5.35781 11.3956 5.94696C11.3956 6.53609 10.918 7.01369 10.3288 7.01369Z" fill="#FF4155"/>
<path d="M13.7974 19.2997C13.8032 19.2276 13.7594 19.1617 13.6923 19.1344C12.7431 18.7484 12.6526 17.914 12.6646 17.5316C12.6677 17.4297 12.5796 17.3501 12.4781 17.3601C10.7389 17.5307 10.8165 15.8876 10.8839 15.367C10.8938 15.29 10.8495 15.2177 10.7775 15.1885C10.6354 15.1307 10.6015 14.981 10.5935 14.9084C10.5904 14.8802 10.5806 14.8532 10.5641 14.8302L10.1256 14.219C10.0994 14.1824 10.0594 14.1584 10.015 14.151C9.91468 14.1342 9.86693 14.0782 9.84467 14.0224C9.81475 13.9472 9.73284 13.9064 9.65334 13.9214L8.89139 14.0646C8.8605 14.0704 8.82832 14.0678 8.79916 14.0561C7.687 13.6077 8.16437 12.4765 8.32592 12.1583C8.35324 12.1045 8.34905 12.0401 8.31562 11.9898L8.18188 11.7886C8.15373 11.7463 8.10789 11.7196 8.0573 11.7143C6.54916 11.5559 6.10178 10.4227 5.9849 9.98868C5.96239 9.90505 5.87983 9.85397 5.79425 9.86736C5.74699 9.87474 5.70524 9.87353 5.66797 9.86645V18.5777C5.66797 19.0648 6.0643 19.4611 6.55141 19.4611H13.8078C13.7946 19.4038 13.7936 19.347 13.7974 19.2997Z" fill="#E80054"/>
<path d="M9.10184 17.4517C8.91186 17.372 8.82247 17.1533 8.90222 16.9633L11.0056 11.9514C11.0853 11.7615 11.304 11.6721 11.4939 11.7518C11.6839 11.8315 11.7733 12.0502 11.6936 12.2402L9.5902 17.2521C9.51086 17.4411 9.29276 17.5318 9.10184 17.4517Z" fill="#E3E7FC"/>
<path d="M8.84444 14.3944C8.12626 14.3944 7.54199 13.7425 7.54199 12.9413C7.54199 12.1401 8.12626 11.4883 8.84444 11.4883C9.56262 11.4883 10.1469 12.1401 10.1469 12.9413C10.1469 13.7426 9.56259 14.3944 8.84444 14.3944ZM8.84444 12.2344C8.53767 12.2344 8.28812 12.5515 8.28812 12.9413C8.28812 13.3311 8.53771 13.6482 8.84444 13.6482C9.15121 13.6482 9.40076 13.3311 9.40076 12.9413C9.40076 12.5515 9.15117 12.2344 8.84444 12.2344Z" fill="#E3E7FC"/>
<path d="M11.6853 17.8211C10.9671 17.8211 10.3828 17.1693 10.3828 16.3681C10.3828 15.5669 10.9671 14.915 11.6853 14.915C12.4034 14.915 12.9877 15.5669 12.9877 16.3681C12.9877 17.1693 12.4034 17.8211 11.6853 17.8211ZM11.6853 15.6611C11.3785 15.6611 11.1289 15.9783 11.1289 16.368C11.1289 16.7578 11.3785 17.075 11.6853 17.075C11.992 17.075 12.2416 16.7578 12.2416 16.368C12.2416 15.9783 11.992 15.6611 11.6853 15.6611Z" fill="#E3E7FC"/>
<path d="M10.8047 8.48536H9.79151C9.637 8.48536 9.51172 8.36008 9.51172 8.20557C9.51172 8.05106 9.637 7.92578 9.79151 7.92578H10.8047C10.9592 7.92578 11.0845 8.05106 11.0845 8.20557C11.0845 8.36012 10.9592 8.48536 10.8047 8.48536Z" fill="#FF7186"/>
<path d="M11.6192 9.49708H8.97901C8.8245 9.49708 8.69922 9.3718 8.69922 9.21729C8.69922 9.06278 8.8245 8.9375 8.97901 8.9375H11.6192C11.7737 8.9375 11.899 9.06278 11.899 9.21729C11.899 9.3718 11.7737 9.49708 11.6192 9.49708Z" fill="#FF7186"/>
<path d="M11.6192 10.5068H8.97901C8.8245 10.5068 8.69922 10.3816 8.69922 10.2271C8.69922 10.0725 8.8245 9.94727 8.97901 9.94727H11.6192C11.7737 9.94727 11.899 10.0725 11.899 10.2271C11.899 10.3816 11.7737 10.5068 11.6192 10.5068Z" fill="#FF7186"/>
<path d="M15.27 18.5791V7.82805C15.27 5.22897 13.2526 3.09225 10.7015 2.90137C9.82408 3.12838 9.0017 3.49198 8.25845 3.96827C8.87549 3.63588 9.58073 3.44701 10.3294 3.44701C12.7451 3.44701 14.7104 5.41233 14.7104 7.82805V18.5791C14.7104 18.9119 14.4396 19.1827 14.1067 19.1827H6.5519C6.21903 19.1827 5.94825 18.9119 5.94825 18.5791V7.82805C5.94825 6.65514 6.41164 5.58845 7.16488 4.8013C6.50145 5.39652 5.93216 6.09442 5.48219 6.87026C5.42102 7.18025 5.38867 7.50044 5.38867 7.82808V18.5791C5.38867 19.2205 5.91049 19.7423 6.5519 19.7423H14.1067C14.7481 19.7423 15.27 19.2205 15.27 18.5791Z" fill="#E80054"/>
<path d="M13.9701 19.687C13.8068 19.5891 13.7886 19.4158 13.7979 19.2998C13.8015 19.2554 13.7861 19.2134 13.7583 19.1813H6.55194C6.21906 19.1813 5.94829 18.9105 5.94829 18.5777V9.9216C5.91084 9.87999 5.85376 9.85807 5.79478 9.8673C5.58933 9.8994 5.48347 9.7743 5.43212 9.67166C5.4214 9.65023 5.40629 9.63203 5.38867 9.61719V18.5776C5.38867 19.2191 5.91049 19.7409 6.5519 19.7409H14.0233C14.0104 19.7194 13.9927 19.7006 13.9701 19.687Z" fill="#CC0053"/>
<path d="M11.3821 2.75453L10.3653 5.40253C10.3622 5.41071 10.3557 5.42774 10.3286 5.42774C10.1741 5.42774 10.0488 5.55302 10.0488 5.70753C10.0488 5.86204 10.1741 5.98732 10.3286 5.98732C10.5786 5.98732 10.7981 5.83652 10.8877 5.60312L12.014 2.66992C11.8009 2.69035 11.5902 2.71867 11.3821 2.75453Z" fill="#E3E7FC"/>
</g>
<defs>
<filter id="filter0_d_7527_108203" x="0.34082" y="2.62988" width="24.9902" height="25.7539" filterUnits="userSpaceOnUse" color-interpolation-filters="sRGB">
<feFlood flood-opacity="0" result="BackgroundImageFix"/>
<feColorMatrix in="SourceAlpha" type="matrix" values="0 0 0 0 0 0 0 0 0 0 0 0 0 0 0 0 0 0 127 0" result="hardAlpha"/>
<feOffset dy="4"/>
<feGaussianBlur stdDeviation="2"/>
<feComposite in2="hardAlpha" operator="out"/>
<feColorMatrix type="matrix" values="0 0 0 0 0 0 0 0 0 0 0 0 0 0 0 0 0 0 0.25 0"/>
<feBlend mode="normal" in2="BackgroundImageFix" result="effect1_dropShadow_7527_108203"/>
<feBlend mode="normal" in="SourceGraphic" in2="effect1_dropShadow_7527_108203" result="shape"/>
</filter>
</defs>
</svg>
