<svg width="231" height="231" viewBox="0 0 231 231" fill="none" xmlns="http://www.w3.org/2000/svg">
<path d="M208.439 76.2849C205.183 114.103 203.994 166.662 187.875 181.263C182.538 186.095 174.304 189.545 164.455 191.948C158.897 193.303 152.827 194.33 146.475 195.083C114.683 198.858 75.8419 195.837 58.9951 193.743C44.0706 191.895 34.0221 171.17 27.993 144.989C26.2961 137.608 24.917 129.802 23.8401 121.861C19.0824 86.9483 20.1182 49.4866 25.2857 35.038C28.941 22.9867 46.0392 15.1447 68.3362 11.2187C73.0736 10.381 78.0415 9.72131 83.1683 9.23991C92.1662 8.39167 101.635 8.07798 111.161 8.28172C114.724 8.36534 118.287 8.51179 121.84 8.73171C121.871 8.73171 121.901 8.7317 121.927 8.73679C153.017 10.6735 182.922 18.1025 196.687 30.4619C197.328 31.0375 197.938 31.6293 198.502 32.2313C201.204 35.0583 203.075 38.1209 203.973 41.4187C208.311 52.2456 209.49 64.1029 208.439 76.2849Z" fill="#FFB198"/>
<path d="M208.439 76.2849C205.183 114.103 203.994 166.662 187.875 181.263C182.538 186.095 174.304 189.545 164.455 191.948C158.897 193.303 152.827 194.33 146.475 195.083C114.683 198.858 75.8419 195.837 58.9951 193.743C44.0706 191.895 34.0221 171.17 27.993 144.989C26.2961 137.608 24.917 129.802 23.8401 121.861C19.0824 86.9483 20.1182 49.4866 25.2857 35.038C28.941 22.9867 46.0392 15.1447 68.3362 11.2187C73.0736 10.381 78.0415 9.72131 83.1683 9.23991C92.1662 8.39167 101.635 8.07798 111.161 8.28172C114.724 8.36534 118.287 8.51179 121.84 8.73171C121.871 8.73171 121.901 8.7317 121.927 8.73679C153.017 10.6735 182.922 18.1025 196.687 30.4619C197.328 31.0375 197.938 31.6293 198.502 32.2313C201.204 35.0583 203.075 38.1209 203.973 41.4187C208.311 52.2456 209.49 64.1029 208.439 76.2849Z" fill="url(#paint0_linear_7199_47155)"/>
<path d="M94.8763 167C94.8763 167 97.1627 168.788 99.3711 166.473C101.579 164.159 107.159 157.355 107.184 155.848C107.209 154.341 103.699 151.088 101.539 152.865C99.3794 154.641 93.6173 162.183 93.1456 163.43C92.9063 164.063 93.1844 166.078 94.8763 167Z" fill="white"/>
<path d="M102.559 162.022C100.239 162.026 98.0676 160.564 97.1649 158.433C97.0203 158.092 96.5227 158.386 96.6664 158.725C97.6454 161.035 100.056 162.604 102.56 162.6C102.931 162.599 102.931 162.021 102.559 162.022Z" fill="#FFE6DE"/>
<path d="M59.8866 38.3158C59.8866 38.3158 57.5969 30.3805 51.11 33.9919C51.11 33.9919 54.7496 31.2204 53.8348 27.9628C52.9205 24.7053 50.6738 22.5888 50.6738 22.5888C50.6738 22.5888 55.6805 24.2978 58.2229 21.669C61.717 18.0566 61.5368 15.4468 61.5368 15.4468C61.5368 15.4468 63.4532 18.8462 66.2737 19.6718C69.0942 20.4974 71.3428 18.247 71.3428 18.247C71.3428 18.247 67.5401 22.5556 68.6586 26.0058C69.7775 29.4555 72.5116 31.3271 72.5116 31.3271C72.5116 31.3271 67.8417 29.4639 63.6329 33.249C59.4236 37.0342 59.8866 38.3158 59.8866 38.3158Z" fill="white"/>
<path d="M121.648 170.26C121.648 170.26 127.42 164.354 121.078 160.493C121.078 160.493 125.285 162.291 127.667 159.888C130.049 157.485 130.782 154.487 130.782 154.487C130.782 154.487 131.766 159.685 135.306 160.6C140.173 161.856 142.354 160.412 142.354 160.412C142.354 160.412 140.342 163.756 141.016 166.617C141.689 169.477 144.756 170.323 144.756 170.323C144.756 170.323 139.132 169.141 136.683 171.816C134.235 174.492 133.955 177.793 133.955 177.793C133.955 177.793 133.272 172.812 127.903 171.019C122.534 169.225 121.648 170.26 121.648 170.26Z" fill="white"/>
<path d="M50.881 66.3699C47.7537 63.9426 42.9304 66.2826 41.3023 68.546C40.5317 66.2036 35.5791 62.765 32.3155 64.7622C27.1568 67.9195 30.3553 74.6471 32.9642 77.7929C34.5881 79.7513 38.9087 83.87 39.8798 84.7695C39.9625 84.8462 40.0767 84.8569 40.1723 84.7977C41.3125 84.0904 46.3192 80.7423 48.0808 78.91C50.741 76.1435 55.3227 69.8174 50.881 66.3699Z" fill="white"/>
<path d="M28.5145 75.5761C31.2172 75.7452 33.9199 75.9142 36.623 76.0833C36.7445 76.0907 36.8739 75.9886 36.9016 75.8713C37.1016 75.0157 37.341 74.166 37.6135 73.3303C37.7175 73.0124 38.4438 70.5842 38.9566 70.7477C39.0665 70.7828 39.1566 71.3478 39.1825 71.4998C39.2707 72.0173 39.3008 72.5458 39.3289 73.0693C39.4038 74.4539 39.4112 75.8408 39.4662 77.2259C39.4948 77.954 39.4213 82.5236 41.1899 81.4661C41.7216 81.1482 42.0122 80.4844 42.2405 79.9397C42.5731 79.1455 42.8087 78.3139 43.0485 77.4878C43.2883 76.6627 43.4444 75.541 44.3661 75.2129C44.6808 75.1011 44.9681 75.1441 45.2901 75.1644C47.6011 75.31 49.912 75.4555 52.2229 75.6006C52.5939 75.6241 52.5925 75.0462 52.2229 75.0231C50.0815 74.8881 47.9402 74.7537 45.7983 74.6188C44.8 74.556 43.8404 74.4733 43.1769 75.4319C42.7293 76.0792 42.5907 76.9967 42.3726 77.7405C42.1291 78.5694 41.8912 79.4254 41.4897 80.1942C41.3599 80.4428 40.9136 81.2102 40.6267 81.0078C40.3818 80.8355 40.3278 80.2663 40.2797 80.0053C40.0497 78.7565 40.045 77.4569 40.0085 76.1915C39.9702 74.8521 39.967 73.5058 39.8422 72.1711C39.7914 71.6269 39.7863 70.3984 39.1132 70.1882C38.0899 69.8685 37.48 71.9651 37.2546 72.5943C36.8891 73.6135 36.5902 74.6632 36.344 75.7174C36.4368 75.6468 36.5297 75.5761 36.6226 75.5054C33.9199 75.3363 31.2167 75.1672 28.514 74.9981C28.143 74.975 28.1444 75.553 28.5145 75.5761Z" fill="#FFE6DE"/>
<path d="M58.2477 90.2282C59.3616 90.8196 88.8691 155.05 87.4604 157.759C86.0518 160.468 50.2958 178.078 46.5046 174.427C42.7139 170.777 15.4411 109.483 16.3268 106.805C17.2129 104.128 50.9814 86.37 58.2477 90.2282Z" fill="white"/>
<path d="M44.2814 101.299C42.8584 104.64 44.4135 108.502 47.7542 109.925C51.0954 111.348 54.9573 109.793 56.3803 106.452C57.8032 103.111 56.2481 99.2493 52.9074 97.8264C49.5662 96.4034 45.7044 97.958 44.2814 101.299Z" fill="#FFE6DE"/>
<path d="M45.3165 100.883C43.8936 104.224 45.4487 108.086 48.7894 109.509C52.1306 110.932 55.9924 109.377 57.4154 106.036C58.8384 102.695 57.2833 98.8328 53.9426 97.4099C50.6018 95.9869 46.7395 97.5415 45.3165 100.883Z" fill="#FFE6DE"/>
<path d="M50.7918 109.588C48.4486 109.285 46.3201 107.613 45.5306 105.374C44.7073 103.04 45.3781 100.352 47.1254 98.6211C47.3896 98.3592 46.9812 97.9508 46.717 98.2127C44.7951 100.117 44.0535 103.13 45.0302 105.682C45.9602 108.112 48.2268 109.834 50.7918 110.166C51.1596 110.213 51.1559 109.635 50.7918 109.588Z" fill="white"/>
<path d="M57.659 103.452C54.4722 103.041 51.271 102.756 48.0614 102.598C47.69 102.58 47.6909 103.158 48.0614 103.176C51.271 103.333 54.4722 103.618 57.659 104.029C58.0263 104.076 58.0231 103.499 57.659 103.452Z" fill="white"/>
<path d="M60.5778 125.017C63.574 122.965 64.3397 118.873 62.288 115.877C60.2363 112.88 56.1441 112.115 53.1478 114.166C50.1516 116.218 49.3859 120.31 51.4376 123.307C53.4894 126.303 57.5816 127.068 60.5778 125.017Z" fill="#FFE6DE"/>
<path d="M60.0972 125.373C63.5194 124.158 65.309 120.399 64.0943 116.977C62.8796 113.555 59.1206 111.765 55.6984 112.98C52.2762 114.194 50.4867 117.953 51.7014 121.376C52.916 124.798 56.675 126.587 60.0972 125.373Z" fill="#FFE6DE"/>
<path d="M57.3211 125.307C54.9779 125.004 52.8494 123.332 52.0599 121.093C51.2366 118.759 51.9074 116.071 53.6547 114.34C53.9189 114.078 53.5105 113.67 53.2463 113.932C51.3244 115.836 50.5828 118.85 51.5595 121.401C52.4895 123.83 54.7561 125.553 57.3211 125.885C57.6889 125.932 57.6852 125.354 57.3211 125.307Z" fill="white"/>
<path d="M64.1883 119.171C61.0014 118.759 57.8003 118.474 54.5907 118.317C54.2193 118.298 54.2202 118.876 54.5907 118.894C57.8003 119.052 61.0014 119.337 64.1883 119.748C64.5556 119.796 64.5524 119.218 64.1883 119.171Z" fill="white"/>
<path d="M66.6091 140.838C69.9394 139.39 71.4655 135.516 70.0177 132.186C68.5698 128.856 64.6964 127.33 61.366 128.777C58.0357 130.225 56.5096 134.099 57.9575 137.429C59.4053 140.759 63.2788 142.285 66.6091 140.838Z" fill="#FFE6DE"/>
<path d="M69.5686 139.143C72.1927 136.633 72.2848 132.47 69.7744 129.846C67.2641 127.222 63.1018 127.13 60.4778 129.641C57.8538 132.151 57.7616 136.313 60.272 138.937C62.7824 141.561 66.9446 141.653 69.5686 139.143Z" fill="#FFE6DE"/>
<path d="M64.4461 140.519C62.1029 140.216 59.9744 138.544 59.1849 136.305C58.3616 133.97 59.0324 131.283 60.7797 129.552C61.0439 129.29 60.6355 128.881 60.3713 129.143C58.4494 131.047 57.7078 134.061 58.6845 136.613C59.6145 139.042 61.8811 140.765 64.4461 141.097C64.8139 141.144 64.8102 140.566 64.4461 140.519Z" fill="white"/>
<path d="M71.3133 134.383C68.1265 133.971 64.9253 133.686 61.7157 133.529C61.3443 133.511 61.3452 134.088 61.7157 134.106C64.9253 134.264 68.1265 134.549 71.3133 134.96C71.6806 135.007 71.6774 134.429 71.3133 134.383Z" fill="white"/>
<path d="M77.1784 155.701C79.7462 153.133 79.7462 148.97 77.1784 146.402C74.6107 143.835 70.4475 143.835 67.8798 146.402C65.312 148.97 65.312 153.133 67.8798 155.701C70.4475 158.269 74.6107 158.269 77.1784 155.701Z" fill="#FFE6DE"/>
<path d="M67.5167 148.059C66.0938 151.4 67.6489 155.262 70.9896 156.685C74.3308 158.108 78.1926 156.553 79.6156 153.212C81.0386 149.872 79.4835 146.009 76.1427 144.586C72.8016 143.163 68.9397 144.718 67.5167 148.059Z" fill="#FFE6DE"/>
<path d="M72.992 156.764C70.6488 156.461 68.5203 154.789 67.7308 152.55C66.9075 150.216 67.5783 147.529 69.3256 145.797C69.5898 145.535 69.1819 145.127 68.9172 145.389C66.9953 147.293 66.2537 150.307 67.2304 152.858C68.1609 155.288 70.427 157.01 72.992 157.342C73.3598 157.389 73.3561 156.811 72.992 156.764Z" fill="white"/>
<path d="M79.8592 150.628C76.6724 150.216 73.4712 149.931 70.2616 149.774C69.8902 149.755 69.8911 150.333 70.2616 150.351C73.4712 150.509 76.6724 150.794 79.8592 151.205C80.2265 151.253 80.2233 150.675 79.8592 150.628Z" fill="white"/>
<path d="M47.0734 156.619C45.6504 159.96 47.2055 163.822 50.5462 165.245C53.887 166.668 57.7493 165.113 59.1722 161.772C60.5952 158.431 59.0401 154.569 55.6994 153.146C52.3582 151.723 48.4963 153.278 47.0734 156.619Z" fill="#FFE6DE"/>
<path d="M59.4539 162.675C61.6033 159.748 60.9731 155.633 58.0462 153.484C55.1193 151.334 51.0042 151.964 48.8547 154.891C46.7053 157.818 47.3356 161.933 50.2625 164.083C53.1894 166.232 57.3045 165.602 59.4539 162.675Z" fill="#FFE6DE"/>
<path d="M53.5838 164.908C51.2401 164.605 49.1121 162.933 48.3226 160.694C47.4993 158.36 48.1701 155.672 49.9174 153.941C50.1816 153.679 49.7732 153.271 49.509 153.533C47.587 155.436 46.8455 158.45 47.8222 161.002C48.7522 163.431 51.0188 165.154 53.5838 165.485C53.9511 165.533 53.9479 164.955 53.5838 164.908Z" fill="white"/>
<path d="M60.45 158.771C57.2632 158.36 54.062 158.075 50.8525 157.917C50.481 157.899 50.4819 158.477 50.8525 158.495C54.062 158.652 57.2632 158.938 60.45 159.349C60.8178 159.396 60.8141 158.818 60.45 158.771Z" fill="white"/>
<path d="M46.9771 150.18C50.5464 149.512 52.8982 146.077 52.2301 142.507C51.5619 138.938 48.1268 136.586 44.5575 137.255C40.9882 137.923 38.6364 141.358 39.3046 144.927C39.9727 148.496 43.4079 150.848 46.9771 150.18Z" fill="#FFE6DE"/>
<path d="M40.7531 140.729C39.3301 144.07 40.8852 147.932 44.2259 149.355C47.5671 150.778 51.429 149.223 52.8519 145.882C54.2749 142.541 52.7198 138.679 49.3791 137.256C46.0379 135.833 42.176 137.388 40.7531 140.729Z" fill="#FFE6DE"/>
<path d="M46.2283 149.435C43.8846 149.132 41.7566 147.46 40.9671 145.221C40.1438 142.886 40.8146 140.199 42.5619 138.468C42.8262 138.206 42.4178 137.797 42.1535 138.059C40.2316 139.963 39.4901 142.977 40.4667 145.529C41.3967 147.958 43.6633 149.681 46.2283 150.013C46.5961 150.06 46.5924 149.482 46.2283 149.435Z" fill="white"/>
<path d="M53.0956 143.298C49.9087 142.887 46.7075 142.602 43.498 142.444C43.1265 142.426 43.1274 143.004 43.498 143.022C46.7075 143.179 49.9087 143.464 53.0956 143.876C53.4628 143.923 53.4596 143.345 53.0956 143.298Z" fill="white"/>
<path d="M40.2115 134.794C43.7808 134.126 46.1326 130.691 45.4644 127.122C44.7963 123.552 41.3611 121.201 37.7919 121.869C34.2226 122.537 31.8708 125.972 32.5389 129.541C33.2071 133.111 36.6422 135.462 40.2115 134.794Z" fill="#FFE6DE"/>
<path d="M41.4924 134.328C45.0326 133.52 47.2475 129.995 46.4395 126.454C45.6315 122.914 42.1066 120.699 38.5664 121.507C35.0262 122.315 32.8112 125.84 33.6192 129.38C34.4272 132.921 37.9521 135.136 41.4924 134.328Z" fill="#FFE6DE"/>
<path d="M39.4627 134.048C37.1195 133.745 34.991 132.073 34.2015 129.834C33.3782 127.5 34.049 124.812 35.7963 123.081C36.0605 122.819 35.6521 122.411 35.3879 122.673C33.466 124.577 32.7244 127.59 33.7011 130.142C34.6311 132.572 36.8977 134.294 39.4627 134.626C39.83 134.673 39.8268 134.095 39.4627 134.048Z" fill="white"/>
<path d="M46.329 127.912C43.1421 127.501 39.9409 127.216 36.7314 127.058C36.3599 127.04 36.3608 127.618 36.7314 127.636C39.9409 127.794 43.1421 128.078 46.329 128.489C46.6967 128.536 46.693 127.958 46.329 127.912Z" fill="white"/>
<path d="M38.7798 113.562C39.115 109.946 36.4556 106.743 32.8398 106.408C29.224 106.073 26.0212 108.732 25.686 112.348C25.3508 115.964 28.0103 119.167 31.626 119.502C35.2418 119.837 38.4446 117.178 38.7798 113.562Z" fill="#FFE6DE"/>
<path d="M39.8309 112.944C40.0601 109.319 37.3079 106.196 33.6838 105.967C30.0597 105.737 26.936 108.49 26.7069 112.114C26.4777 115.738 29.2299 118.862 32.854 119.091C36.4781 119.32 39.6018 116.568 39.8309 112.944Z" fill="#FFE6DE"/>
<path d="M32.6971 118.662C30.3538 118.359 28.2254 116.687 27.4358 114.448C26.6126 112.113 27.2834 109.426 29.0307 107.695C29.2949 107.433 28.8865 107.025 28.6223 107.286C26.7003 109.19 25.9588 112.204 26.9355 114.756C27.8655 117.185 30.1321 118.908 32.6971 119.24C33.0648 119.287 33.0611 118.709 32.6971 118.662Z" fill="white"/>
<path d="M39.5643 112.525C36.3774 112.114 33.1762 111.829 29.9667 111.671C29.5953 111.653 29.5962 112.231 29.9667 112.249C33.1762 112.407 36.3774 112.691 39.5643 113.103C39.9316 113.15 39.9284 112.572 39.5643 112.525Z" fill="white"/>
<path d="M65.5887 159.316C61.7748 152.638 58.2345 145.806 54.9848 138.836C51.7153 131.824 48.7395 124.676 46.0673 117.416C44.5598 113.321 43.1507 109.191 41.8363 105.03C41.725 104.677 41.1669 104.827 41.2796 105.183C43.6173 112.584 46.26 119.888 49.2061 127.069C52.1343 134.206 55.3558 141.223 58.8647 148.094C60.8495 151.98 62.9266 155.819 65.0906 159.607C65.2745 159.93 65.7735 159.64 65.5887 159.316Z" fill="#FFE6DE"/>
<path d="M200.193 106.295C200.193 106.295 201.146 103.553 198.242 102.212C195.337 100.87 187.095 97.7902 185.661 98.2536C184.227 98.7165 182.283 103.09 184.663 104.56C187.043 106.03 196.041 109.044 197.375 109.087C198.05 109.108 199.867 108.194 200.193 106.295Z" fill="white"/>
<path d="M192.993 100.617C193.744 102.811 193.087 105.335 191.361 106.883C191.084 107.132 191.493 107.539 191.769 107.292C193.638 105.616 194.363 102.839 193.55 100.464C193.43 100.114 192.872 100.264 192.993 100.617Z" fill="#FFE6DE"/>
<path d="M49.1829 53.3392C49.1829 53.3392 51.3349 51.3914 49.4305 48.8203C47.5261 46.2493 41.7747 39.5919 40.294 39.3096C38.8133 39.0273 35.0087 41.931 36.391 44.3625C37.7733 46.794 44.221 53.7577 45.37 54.4355C45.9526 54.7788 47.9854 54.849 49.1829 53.3392Z" fill="white"/>
<path d="M45.5948 44.8926C45.2062 47.1754 43.4151 49.0908 41.1568 49.6152C40.7951 49.6993 40.948 50.256 41.3102 50.1719C43.7454 49.6064 45.7315 47.5131 46.1515 45.0455C46.2134 44.6824 45.6571 44.5263 45.5948 44.8926Z" fill="#FFE6DE"/>
<path d="M127.539 29.4133C127.539 29.4133 129.635 31.4221 132.064 29.3407C134.494 27.2594 140.728 21.0506 140.905 19.5537C141.081 18.0569 137.915 14.4671 135.588 16.0181C133.26 17.569 126.77 24.4934 126.176 25.6877C125.874 26.2929 125.949 28.3257 127.539 29.4133Z" fill="white"/>
<path d="M135.655 25.2304C133.388 25.0068 131.363 23.3343 130.692 21.1629C130.583 20.809 130.025 20.9601 130.135 21.3163C130.887 23.751 133.124 25.5584 135.655 25.8074C136.024 25.8444 136.021 25.2664 135.655 25.2304Z" fill="#FFE6DE"/>
<path d="M202.155 57.5074C202.155 57.5074 199.695 57.5892 196.68 57.7005C196.568 54.8325 196.457 52.5243 196.389 52.3423C196.212 51.8687 190.67 52.2124 190.674 52.7802C190.674 52.7802 190.68 55.0593 190.759 57.9343C188.063 58.0507 185.907 58.1639 185.735 58.2346C185.282 58.4203 185.611 64.2147 186.154 64.2106C186.154 64.2106 188.315 64.205 191.049 64.1223C191.258 66.965 191.585 69.2783 192.092 69.4829C192.692 69.7246 197.084 69.512 197.084 69.512C197.084 69.512 197.007 66.9618 196.901 63.8262C199.665 63.6077 201.928 63.2649 202.127 62.7276C202.358 62.1006 202.155 57.5074 202.155 57.5074Z" fill="white"/>
<path d="M164.192 23.1418L164.794 21.3086L165.478 23.1418C165.478 23.1418 166.844 23.3742 166.86 23.5012C166.875 23.626 165.552 24.0159 165.552 24.0159C165.552 24.0159 164.997 25.7932 164.794 25.3908C164.591 24.9884 164.394 24.0972 164.394 24.0972C164.394 24.0972 162.674 23.7401 162.674 23.5645C162.674 23.3742 164.192 23.1418 164.192 23.1418Z" fill="white"/>
<path d="M197.317 83.4392L197.919 81.606L198.603 83.4392C198.603 83.4392 199.969 83.6716 199.985 83.7991C200 83.9238 198.677 84.3137 198.677 84.3137C198.677 84.3137 198.122 86.0911 197.919 85.6887C197.716 85.2863 197.519 84.3951 197.519 84.3951C197.519 84.3951 195.799 84.0379 195.799 83.8624C195.799 83.672 197.317 83.4392 197.317 83.4392Z" fill="white"/>
<path d="M139.45 182.868L140.052 181.035L140.736 182.868C140.736 182.868 142.102 183.1 142.117 183.228C142.133 183.353 140.81 183.742 140.81 183.742C140.81 183.742 140.255 185.52 140.052 185.117C139.849 184.715 139.652 183.824 139.652 183.824C139.652 183.824 137.932 183.467 137.932 183.291C137.932 183.101 139.45 182.868 139.45 182.868Z" fill="white"/>
<path d="M29.1441 51.1589L29.7461 49.3257L30.4299 51.1589C30.4299 51.1589 31.7955 51.3913 31.8117 51.5183C31.8274 51.6431 30.5042 52.033 30.5042 52.033C30.5042 52.033 29.9489 53.8103 29.7461 53.4079C29.5433 53.0055 29.346 52.1143 29.346 52.1143C29.346 52.1143 27.626 51.7572 27.626 51.5816C27.6264 51.3917 29.1441 51.1589 29.1441 51.1589Z" fill="white"/>
<path d="M198.056 34.3431C195.419 31.8852 190.84 31.0827 187.329 31.8977C183.817 32.7127 180.784 35.3581 179.499 38.7265C178.96 40.1412 178.716 41.7018 179.035 43.182C179.355 44.6623 180.289 46.0464 181.653 46.7029C180.886 47.5147 179.965 48.1809 178.957 48.6609C178.514 48.872 178.502 49.6163 178.986 49.6944C181.277 50.0631 183.147 49.8233 184.627 48.8462C187.033 50.0857 190.594 49.9148 193.283 49.602C195.972 49.2888 198.597 47.7993 199.874 45.4126C201.528 42.319 201.456 37.2648 198.056 34.3431Z" fill="#107649"/>
<path d="M182.434 43.0947C184.189 42.5325 185.615 41.152 186.151 39.3742C186.351 38.709 186.445 37.8076 185.799 37.3502C185.158 36.8961 184.347 37.2971 183.981 37.9018C182.962 39.5886 184.037 42.3518 185.389 43.5544C186.849 44.8536 188.951 44.7732 190.184 43.2171C191.092 42.0714 191.954 38.7491 190.056 38.0497C188.125 37.3377 187.958 40.332 188.322 41.45C188.915 43.2754 190.637 44.5034 192.571 44.3047C194.392 44.1176 195.783 42.714 195.935 40.8882C196.005 40.0354 195.78 38.8914 195.071 38.331C194.34 37.7535 193.638 38.3509 193.499 39.1261C193.097 41.3701 195.078 43.2726 197.211 43.3373C197.665 43.3511 197.664 42.6457 197.211 42.6323C195.807 42.5898 194.571 41.6745 194.249 40.2802C194.181 39.9864 194.149 39.6755 194.18 39.3747C194.212 39.0605 194.156 39.0675 194.532 39.0924C194.925 39.1187 194.774 39.067 194.93 39.2814C195.29 39.7743 195.296 40.611 195.188 41.1802C194.676 43.8866 191.051 44.4114 189.514 42.2682C188.93 41.4542 188.404 39.8348 189.146 38.9543C189.467 38.574 190.012 38.6923 190.248 39.1197C190.448 39.4842 190.44 39.9707 190.422 40.3745C190.392 41.091 190.234 41.8381 189.856 42.4567C189.115 43.669 187.706 44.1485 186.432 43.4412C185.263 42.7926 184.61 41.4001 184.385 40.1291C184.305 39.6768 184.27 39.1959 184.392 38.7468C184.427 38.6202 184.468 38.5029 184.527 38.3856C184.636 38.1712 184.99 37.7651 185.291 37.8718C186.009 38.1264 185.366 39.5512 185.171 39.936C184.569 41.122 183.51 42.009 182.247 42.4133C181.816 42.5528 182 43.2338 182.434 43.0947Z" fill="white"/>
<path d="M79.5936 210.67C79.5936 210.67 79.3515 207.777 76.1526 207.731C72.9537 207.684 65.5844 208.381 64.4617 209.386C63.3391 210.391 63.3377 215.178 66.1092 215.555C68.8808 215.932 76.9154 214.868 78.1512 214.366C78.7773 214.111 80.0667 212.538 79.5936 210.67Z" fill="#107649"/>
<path d="M70.7278 208.425C72.2741 210.094 72.7135 212.671 71.7807 214.751C71.6301 215.088 72.1272 215.382 72.2792 215.043C73.3224 212.716 72.8729 209.891 71.1358 208.017C70.883 207.744 70.4756 208.153 70.7278 208.425Z" fill="#421B36"/>
<path d="M131.678 170.54H106.474C106.474 170.54 107.443 205.652 108.497 206.605C109.315 208.302 114.266 209.607 119.978 209.607C126.233 209.607 131.305 208.042 131.305 206.111C131.305 206.085 131.3 206.059 131.298 206.032C131.983 201.672 131.678 170.54 131.678 170.54Z" fill="white"/>
<path d="M119.942 206.955C115.22 206.955 112.027 206.278 111.214 205.879C110.662 203.9 109.867 194.538 109.504 186.228H128.796C128.887 194.236 128.695 203.767 128.293 205.955C127.369 206.356 124.408 206.955 119.942 206.955Z" fill="#421B36"/>
<path d="M133.495 174.959C133.495 177.638 127.11 179.811 119.232 179.811C111.355 179.811 104.624 177.638 104.624 174.959C104.624 172.279 111.355 170.107 119.232 170.107C127.11 170.107 133.495 172.279 133.495 174.959Z" fill="#107649"/>
<path d="M104.624 169.478C104.624 169.478 104.167 174.49 104.624 174.959C105.08 175.429 133.495 174.959 133.495 174.959C133.495 174.959 133.671 169.449 133.395 168.911C133.119 168.373 104.624 169.478 104.624 169.478Z" fill="#107649"/>
<path d="M133.495 169.389C133.495 171.737 127.11 173.641 119.232 173.641C111.355 173.641 104.624 171.737 104.624 169.389C104.624 167.041 111.355 165.137 119.232 165.137C127.11 165.138 133.495 167.041 133.495 169.389Z" fill="#107649"/>
<path d="M119.232 173.872C112.096 173.872 104.393 172.158 104.393 169.39C104.393 166.621 112.095 164.907 119.232 164.907C127.36 164.907 133.726 166.876 133.726 169.39C133.726 171.903 127.36 173.872 119.232 173.872ZM119.232 165.369C111.573 165.369 104.855 167.247 104.855 169.39C104.855 171.531 111.573 173.41 119.232 173.41C127.626 173.41 133.264 171.331 133.264 169.39C133.264 167.448 127.626 165.369 119.232 165.369Z" fill="#421B36"/>
<path d="M128.797 186.228C128.797 187.848 124.478 189.16 119.151 189.16C113.824 189.16 109.505 187.848 109.505 186.228C109.505 184.609 113.824 183.296 119.151 183.296C124.478 183.296 128.797 184.609 128.797 186.228Z" fill="#421B36"/>
<path d="M119.15 189.391C114.295 189.391 109.273 188.208 109.273 186.228C109.273 184.248 114.295 183.065 119.15 183.065C124.005 183.065 129.027 184.248 129.027 186.228C129.027 188.207 124.005 189.391 119.15 189.391ZM119.15 183.527C113.518 183.527 109.735 184.924 109.735 186.228C109.735 187.532 113.519 188.929 119.15 188.929C124.782 188.929 128.565 187.532 128.565 186.228C128.565 184.924 124.782 183.527 119.15 183.527Z" fill="white"/>
<path d="M117.929 197.534C122.368 196.556 126.553 194.613 130.162 191.85C130.453 191.627 130.166 191.125 129.871 191.351C126.297 194.087 122.171 196.009 117.776 196.977C117.413 197.057 117.566 197.614 117.929 197.534Z" fill="white"/>
<path d="M124.341 197.945C125.737 197.264 127.132 196.584 128.528 195.903C128.862 195.74 128.569 195.242 128.236 195.405C126.841 196.085 125.445 196.766 124.05 197.446C123.716 197.609 124.008 198.107 124.341 197.945Z" fill="white"/>
<path d="M105.777 171.589C105.036 173.397 105.088 175.443 105.866 177.228C106.014 177.568 106.512 177.274 106.365 176.936C105.647 175.29 105.656 173.398 106.334 171.742C106.475 171.399 105.917 171.249 105.777 171.589Z" fill="#421B36"/>
<path d="M109.244 172.548C108.924 174.615 109.097 176.725 109.777 178.705C109.897 179.054 110.454 178.904 110.333 178.551C109.689 176.674 109.497 174.665 109.801 172.702C109.857 172.338 109.301 172.181 109.244 172.548Z" fill="#421B36"/>
<path d="M114.435 173.646C114.438 175.413 114.518 177.178 114.675 178.938C114.708 179.306 115.285 179.309 115.252 178.938C115.096 177.178 115.015 175.413 115.012 173.646C115.011 173.274 114.434 173.273 114.435 173.646Z" fill="#421B36"/>
<path d="M119.413 173.998C119.802 175.91 119.901 177.866 119.721 179.809C119.687 180.179 120.264 180.177 120.298 179.809C120.484 177.815 120.369 175.807 119.97 173.844C119.896 173.48 119.339 173.634 119.413 173.998Z" fill="#421B36"/>
<path d="M123.938 173.693C124.602 175.476 124.856 177.373 124.684 179.268C124.65 179.638 125.228 179.636 125.261 179.268C125.438 177.328 125.175 175.365 124.495 173.54C124.366 173.195 123.807 173.344 123.938 173.693Z" fill="#421B36"/>
<path d="M128.875 172.854C129.507 174.479 129.595 176.201 129.596 177.926C129.597 178.298 130.174 178.298 130.174 177.926C130.172 176.155 130.081 174.369 129.432 172.7C129.299 172.358 128.74 172.507 128.875 172.854Z" fill="#421B36"/>
<path d="M108.421 187.383C108.177 187.257 108.846 200.874 108.846 200.874C108.846 200.874 111.695 203.774 115.948 203.926L115.438 190.301C115.438 190.301 111.076 188.756 108.421 187.383Z" fill="white"/>
<path d="M105.922 177.994H76.6992C76.6992 177.994 77.8228 218.705 79.0453 219.809C79.9933 221.776 85.7336 223.29 92.3564 223.29C99.6093 223.29 105.489 221.475 105.489 219.237C105.489 219.206 105.484 219.176 105.482 219.145C106.276 214.09 105.922 177.994 105.922 177.994Z" fill="white"/>
<path d="M92.3561 223.521C85.6543 223.521 79.8521 221.975 78.8431 219.922C77.6317 217.998 76.6541 184.728 76.4684 178.001L76.4619 177.763H106.151L106.153 177.992C106.168 179.463 106.497 214.029 105.714 219.151C105.718 219.19 105.72 219.213 105.72 219.237C105.72 221.639 99.8502 223.521 92.3561 223.521ZM76.9369 178.225C77.3859 194.388 78.3547 218.586 79.2062 219.644L79.2533 219.71C80.1588 221.588 85.914 223.059 92.3561 223.059C100.074 223.059 105.258 221.083 105.258 219.237L105.249 219.136L105.253 219.109C106.003 214.34 105.721 181.311 105.693 178.225H76.9369Z" fill="#421B36"/>
<path d="M92.3154 220.216C86.8403 220.216 83.1378 219.431 82.1953 218.968C81.5555 216.673 80.6333 205.818 80.2129 196.184H102.581C102.687 205.469 102.464 216.519 101.997 219.056C100.927 219.521 97.4926 220.216 92.3154 220.216Z" fill="#107649"/>
<path d="M108.028 183.118C108.028 186.225 100.624 188.744 91.4911 188.744C82.3583 188.744 74.5537 186.225 74.5537 183.118C74.5537 180.012 82.3583 177.493 91.4911 177.493C100.624 177.493 108.028 180.012 108.028 183.118Z" fill="#421B36"/>
<path d="M74.5537 176.763C74.5537 176.763 74.0242 182.575 74.5537 183.118C75.0831 183.662 108.028 183.118 108.028 183.118C108.028 183.118 108.232 176.73 107.912 176.106C107.592 175.482 74.5537 176.763 74.5537 176.763Z" fill="#421B36"/>
<path d="M108.028 176.66C108.028 179.383 100.624 181.59 91.4911 181.59C82.3583 181.59 74.5537 179.383 74.5537 176.66C74.5537 173.938 82.3583 171.731 91.4911 171.731C100.624 171.731 108.028 173.938 108.028 176.66Z" fill="#421B36"/>
<path d="M91.4916 181.821C82.0248 181.821 74.3232 179.506 74.3232 176.661C74.3232 173.815 82.0252 171.5 91.4916 171.5C100.894 171.5 108.259 173.767 108.259 176.661C108.259 179.555 100.894 181.821 91.4916 181.821ZM91.4916 171.962C82.5921 171.962 74.7852 174.157 74.7852 176.661C74.7852 179.164 82.5921 181.359 91.4916 181.359C100.33 181.359 107.797 179.208 107.797 176.661C107.797 174.114 100.33 171.962 91.4916 171.962Z" fill="#107649"/>
<path d="M91.3965 199.583C97.5731 199.583 102.58 198.061 102.58 196.184C102.58 194.307 97.5731 192.785 91.3965 192.785C85.22 192.785 80.2129 194.307 80.2129 196.184C80.2129 198.061 85.22 199.583 91.3965 199.583Z" fill="#107649"/>
<path d="M91.3971 199.814C84.996 199.814 79.9824 198.22 79.9824 196.184C79.9824 194.148 84.996 192.554 91.3971 192.554C97.7976 192.554 102.812 194.148 102.812 196.184C102.812 198.22 97.7976 199.814 91.3971 199.814ZM91.3971 193.016C84.8454 193.016 80.4444 194.654 80.4444 196.184C80.4444 197.714 84.8454 199.353 91.3971 199.353C97.9487 199.353 102.35 197.714 102.35 196.184C102.35 194.654 97.9487 193.016 91.3971 193.016Z" fill="white"/>
<path d="M89.9679 209.248C95.1086 208.118 99.9624 205.864 104.14 202.662C104.431 202.439 104.144 201.937 103.849 202.164C99.706 205.339 94.9123 207.571 89.8146 208.691C89.4519 208.771 89.6053 209.328 89.9679 209.248Z" fill="white"/>
<path d="M97.3923 209.729C99.0102 208.94 100.628 208.151 102.246 207.362C102.58 207.199 102.287 206.701 101.954 206.863C100.336 207.652 98.7182 208.441 97.1003 209.231C96.7667 209.393 97.0592 209.892 97.3923 209.729Z" fill="white"/>
<path d="M75.936 179.224C75.0818 181.308 75.1372 183.667 76.0344 185.726C76.1827 186.066 76.6803 185.772 76.5329 185.434C75.6962 183.515 75.7008 181.309 76.4927 179.377C76.6336 179.033 76.0751 178.884 75.936 179.224Z" fill="#107649"/>
<path d="M79.9551 180.335C79.5855 182.723 79.7879 185.161 80.5728 187.449C80.6929 187.798 81.2506 187.648 81.1295 187.295C80.3797 185.111 80.1584 182.773 80.5118 180.489C80.5682 180.126 80.012 179.969 79.9551 180.335Z" fill="#107649"/>
<path d="M85.9756 181.595C85.9797 183.644 86.0726 185.691 86.2542 187.731C86.287 188.099 86.8649 188.102 86.8317 187.731C86.6501 185.691 86.5572 183.644 86.5531 181.595C86.5522 181.224 85.9747 181.223 85.9756 181.595Z" fill="#107649"/>
<path d="M91.746 181.991C92.1978 184.212 92.3143 186.485 92.1045 188.741C92.0703 189.111 92.6478 189.109 92.682 188.741C92.8968 186.433 92.7652 184.109 92.3032 181.838C92.2288 181.474 91.6721 181.628 91.746 181.991Z" fill="#107649"/>
<path d="M96.9912 181.639C97.7628 183.71 98.058 185.914 97.858 188.115C97.8242 188.485 98.4022 188.482 98.4355 188.115C98.6397 185.87 98.3357 183.598 97.5484 181.486C97.4191 181.141 96.861 181.29 96.9912 181.639Z" fill="#107649"/>
<path d="M101.869 180.665C102.628 182.596 103.195 184.594 103.564 186.635C103.631 187 104.187 186.846 104.121 186.482C103.752 184.441 103.184 182.443 102.426 180.512C102.291 180.17 101.733 180.319 101.869 180.665Z" fill="#107649"/>
<path d="M78.8768 197.107C78.6328 196.981 79.3018 210.598 79.3018 210.598C79.3018 210.598 82.1514 213.498 86.4037 213.65L85.8945 200.025C85.8945 200.025 81.5319 198.48 78.8768 197.107Z" fill="white"/>
<path d="M56.7622 178.063C56.7622 178.063 54.5136 179.899 56.284 182.564C58.0544 185.228 63.4598 192.171 64.9238 192.528C66.3879 192.885 70.3357 190.179 69.0791 187.681C67.8224 185.182 61.7384 177.898 60.6254 177.163C60.0613 176.791 58.035 176.617 56.7622 178.063Z" fill="#107649"/>
<path d="M59.9192 186.668C60.4242 184.407 62.3225 182.596 64.602 182.188C64.9675 182.123 64.8127 181.567 64.4487 181.632C61.9853 182.073 59.9067 184.075 59.3625 186.515C59.2816 186.877 59.8379 187.032 59.9192 186.668Z" fill="#421B36"/>
<path d="M46.9045 201.977C46.9045 201.977 46.6994 204.872 49.853 205.41C53.0066 205.947 61.7661 206.771 63.0301 205.95C64.2942 205.129 65.0301 200.4 62.3496 199.602C59.6691 198.804 50.1953 198.24 48.8971 198.547C48.2397 198.702 46.7238 200.059 46.9045 201.977Z" fill="white"/>
<path d="M55.3361 205.581C54.0402 203.658 54.0143 201.054 55.2761 199.107C55.4789 198.795 54.979 198.505 54.7776 198.816C53.4114 200.924 53.4336 203.789 54.8376 205.873C55.0441 206.18 55.5445 205.891 55.3361 205.581Z" fill="#421B36"/>
<path d="M48.1959 13.364C48.1959 13.364 43.3879 166.958 49.0607 168.473C58.6349 171.028 155.733 173.985 159.686 167.895C163.64 161.805 165.173 19.4566 162.76 13.5831C160.747 8.68475 48.2234 10.1496 48.1959 13.364Z" fill="#421B36"/>
<path d="M53.7448 16.6321C53.7448 16.6321 49.3561 157.438 54.5347 158.826C63.2738 161.169 151.904 163.879 155.513 158.296C159.121 152.714 160.521 22.2173 158.318 16.8328C156.481 12.3423 53.77 13.6853 53.7448 16.6321Z" fill="white"/>
<path d="M84.0452 33.1635C84.0452 33.1635 81.0006 33.2647 77.2674 33.4026C77.1278 29.8518 76.9911 26.9937 76.907 26.7689C76.6868 26.1826 69.8266 26.6082 69.8318 27.3117C69.8318 27.3117 69.8386 30.1332 69.937 33.692C66.5984 33.8361 63.9291 33.9763 63.7163 34.0638C63.1558 34.2937 63.5624 41.4673 64.2351 41.4622C64.2351 41.4622 66.9119 41.4553 70.2956 41.353C70.5548 44.8723 70.9586 47.7361 71.5866 47.9895C72.3296 48.2886 77.7673 48.0255 77.7673 48.0255C77.7673 48.0255 77.6712 44.8683 77.5402 40.9863C80.9617 40.7158 83.7644 40.2914 84.0097 39.6262C84.2969 38.85 84.0452 33.1635 84.0452 33.1635Z" fill="#E75634"/>
<path d="M99.5986 31.0231C99.5986 31.0231 99.6513 35.5091 100.152 35.584C102.412 35.9232 152.296 36.0588 152.632 34.8896C152.812 34.2622 152.925 30.2962 152.13 30.271C149.892 30.2001 99.7096 29.9095 99.5986 31.0231Z" fill="white"/>
<path d="M127.685 40.234C135.412 40.234 143.138 40.234 150.865 40.234C151.325 40.234 151.326 39.519 150.865 39.519C143.138 39.519 135.412 39.519 127.685 39.519C127.225 39.519 127.224 40.234 127.685 40.234Z" fill="#421B36"/>
<path d="M112.189 44.1407C122.27 44.1407 132.352 44.1407 142.433 44.1407C145.32 44.1407 148.207 44.1407 151.094 44.1407C151.554 44.1407 151.555 43.4258 151.094 43.4258C141.013 43.4258 130.932 43.4258 120.85 43.4258C117.963 43.4258 115.076 43.4258 112.189 43.4258C111.729 43.4258 111.728 44.1407 112.189 44.1407Z" fill="#421B36"/>
<path d="M158.706 24.9523C158.538 20.6214 158.314 17.8353 158.029 17.1398C156.895 14.3657 117.255 13.8178 87.1162 14.4996C87.1694 14.634 90.8168 23.7918 95.2588 24.7573C99.7333 25.7296 158.381 26.1472 158.381 26.1472L158.706 24.9523Z" fill="#FFD5CC"/>
<path d="M150.188 160.327C149.873 158.79 147.34 147.751 139.274 145.763C130.904 143.698 57.2935 143.924 52.1807 143.942C52.5633 153.054 53.2148 158.856 54.2455 159.132C61.8904 161.181 130.662 163.512 150.188 160.327Z" fill="#FFD5CC"/>
<path d="M52.8179 16.6376C52.7905 17.5127 52.7647 18.3884 52.7384 19.2635C52.6669 21.6778 52.5983 24.0927 52.5314 26.507C52.4301 30.1658 52.3335 33.8253 52.2408 37.4848C52.1241 42.0943 52.0138 46.7037 51.9102 51.3132C51.7924 56.5782 51.6832 61.8438 51.5842 67.1093C51.4784 72.7598 51.3846 78.4103 51.3062 84.0613C51.2273 89.7547 51.1638 95.4475 51.1226 101.141C51.0832 106.606 51.0631 112.071 51.0763 117.535C51.0877 122.496 51.1249 127.457 51.2124 132.417C51.2845 136.538 51.388 140.659 51.5739 144.776C51.7095 147.785 51.8736 150.8 52.2054 153.795C52.3827 155.397 52.4822 157.258 53.1851 158.742C53.3973 159.189 53.649 159.422 54.1335 159.535C55.0927 159.759 56.0805 159.876 57.0568 159.994C60.5269 160.413 64.0217 160.646 67.5095 160.864C72.5263 161.179 77.5487 161.41 82.5718 161.602C88.4647 161.826 94.3595 161.99 100.256 162.1C106.284 162.212 112.314 162.268 118.344 162.246C123.844 162.225 129.345 162.145 134.842 161.934C139.128 161.77 143.424 161.55 147.686 161.057C149.178 160.884 150.672 160.682 152.143 160.369C153.092 160.167 154.082 159.936 154.948 159.481C156.121 158.864 156.262 157.579 156.466 156.381C156.888 153.902 157.095 151.382 157.295 148.877C157.602 145.039 157.82 141.194 158.012 137.348C158.253 132.512 158.443 127.672 158.609 122.833C158.798 117.317 158.953 111.799 159.085 106.281C159.226 100.392 159.341 94.5015 159.435 88.6108C159.529 82.7286 159.601 76.8459 159.651 70.9627C159.699 65.394 159.727 59.8253 159.729 54.2566C159.731 49.3319 159.714 44.4079 159.663 39.4832C159.623 35.5332 159.563 31.5826 159.449 27.6337C159.372 24.9804 159.289 22.3224 159.078 19.6759C159.018 18.9232 158.954 18.1659 158.824 17.4218C158.746 16.9751 158.662 16.5661 158.281 16.2807C157.768 15.8975 157.059 15.7408 156.448 15.5972C155.349 15.3381 154.226 15.1808 153.107 15.039C149.604 14.5951 146.068 14.3852 142.543 14.2056C137.757 13.962 132.965 13.8235 128.174 13.7286C122.652 13.6194 117.128 13.5736 111.605 13.5696C105.873 13.5656 100.14 13.6085 94.4081 13.696C89.0619 13.7772 83.7157 13.8973 78.3718 14.0724C73.9345 14.2176 69.4971 14.3967 65.0649 14.6649C62.069 14.8462 59.061 15.0367 56.0856 15.4451C55.4479 15.5326 52.8591 15.6247 52.8179 16.6376C52.7991 17.0975 53.514 17.0969 53.5329 16.6376C53.5277 16.7606 53.4671 16.7417 53.514 16.7446C53.5163 16.7446 53.4391 16.7761 53.5329 16.7366C53.5752 16.7189 53.6135 16.6914 53.6564 16.6731C53.5901 16.7011 53.816 16.6148 53.8995 16.5884C54.0402 16.5438 54.1838 16.5078 54.3268 16.4735C55.1887 16.267 56.0747 16.1543 56.9533 16.0485C60.098 15.6699 63.2672 15.4783 66.4285 15.3004C70.9534 15.0464 75.4828 14.8743 80.0122 14.7353C85.375 14.5711 90.74 14.4596 96.1045 14.3864C101.771 14.3091 107.439 14.2748 113.106 14.2868C118.543 14.2983 123.981 14.3515 129.417 14.4693C134.092 14.5705 138.768 14.7152 143.437 14.9675C146.807 15.1499 150.19 15.357 153.536 15.81C154.566 15.9496 155.602 16.1074 156.608 16.3734C156.896 16.4495 157.344 16.5907 157.511 16.6674C157.761 16.7818 157.87 16.8487 157.982 16.9682C157.978 16.9642 157.977 16.9345 158 17.026C158.022 17.1141 158.049 17.2004 158.07 17.2885C158.125 17.523 158.172 17.8393 158.196 18.0252C158.299 18.7888 158.368 19.7045 158.424 20.5259C158.613 23.3222 158.696 26.126 158.768 28.927C158.873 32.9776 158.927 37.03 158.963 41.0819C159.007 46.0534 159.018 51.0261 159.011 55.9977C159.003 61.5681 158.971 67.1385 158.919 72.7083C158.865 78.555 158.789 84.4011 158.692 90.2472C158.596 96.0475 158.478 101.848 158.335 107.648C158.201 113.08 158.045 118.512 157.854 123.944C157.688 128.686 157.496 133.429 157.254 138.168C157.063 141.9 156.847 145.631 156.54 149.356C156.345 151.734 156.152 154.133 155.724 156.484C155.623 157.038 155.484 157.774 155.29 158.212C155.224 158.36 155.163 158.473 154.998 158.605C154.87 158.709 154.445 158.941 154.225 159.032C151.809 160.031 148.96 160.222 146.389 160.482C141.981 160.929 137.548 161.134 133.121 161.281C127.579 161.465 122.034 161.53 116.489 161.535C110.494 161.541 104.499 161.474 98.5057 161.351C92.7534 161.233 87.0017 161.064 81.2522 160.836C76.3619 160.641 71.4721 160.408 66.5881 160.09C63.2558 159.873 59.9138 159.648 56.6004 159.221C55.7504 159.112 54.8873 159.002 54.058 158.779C54.0814 158.786 54.0471 158.772 54.0454 158.77C53.935 158.641 54.0088 158.75 53.943 158.647C53.7863 158.404 53.7783 158.347 53.6953 158.104C53.1159 156.406 52.981 154.52 52.8105 152.748C52.5074 149.605 52.3512 146.448 52.2242 143.294C52.0549 139.088 51.9611 134.88 51.8976 130.672C51.8221 125.696 51.7924 120.719 51.7873 115.743C51.7815 110.286 51.8061 104.827 51.8502 99.3695C51.8959 93.7167 51.9623 88.0645 52.0435 82.4118C52.1236 76.8517 52.2179 71.2915 52.3243 65.7314C52.4233 60.5505 52.532 55.3702 52.6492 50.1899C52.7516 45.6759 52.8603 41.1619 52.9752 36.6485C53.0662 33.0886 53.1605 29.5287 53.2595 25.9687C53.3241 23.6494 53.3905 21.3306 53.4591 19.0119C53.4826 18.2197 53.506 17.427 53.5312 16.6348C53.5472 16.1772 52.8322 16.1778 52.8179 16.6376Z" fill="#421B36"/>
<path d="M62.2804 57.6072C62.2804 57.6072 61.0123 61.8849 62.2804 62.3945C63.5484 62.9042 127.492 63.2016 128.398 62.0428C129.303 60.884 128.398 59.0725 128.398 58.2952C128.398 57.5174 62.2804 57.6072 62.2804 57.6072Z" fill="white"/>
<path d="M66.6162 72.9313C66.6162 72.9313 66.2405 77.2091 66.6162 77.7187C66.992 78.2283 85.9356 78.5258 86.2039 77.367C86.4721 76.2081 86.2039 74.3967 86.2039 73.6194C86.2039 72.8421 66.6162 72.9313 66.6162 72.9313Z" fill="white"/>
<path d="M66.6162 83.0193C66.6162 83.0193 66.2405 87.297 66.6162 87.8066C66.992 88.3163 85.9356 88.6137 86.2039 87.4549C86.4721 86.2961 86.2039 84.4847 86.2039 83.7074C86.2039 82.9295 66.6162 83.0193 66.6162 83.0193Z" fill="white"/>
<path d="M61.3465 134.703C61.3465 134.703 59.6638 138.981 61.3465 139.491C63.0292 140 147.89 140.298 149.092 139.139C150.293 137.98 149.092 136.169 149.092 135.391C149.092 134.614 61.3465 134.703 61.3465 134.703Z" fill="white"/>
<path d="M121.315 129.239C115.32 129.239 109.044 129.198 103.039 129.13C88.5682 128.966 60.8998 128.429 59.7615 127.57L59.6494 127.485L59.6477 127.345C59.4184 107.295 59.3114 84.552 60.2557 67.8865L60.2654 67.7138L60.4227 67.6423C62.1232 66.8701 90.331 66.9531 106.732 67.1241C123.125 67.2945 151.295 67.7944 152.89 68.5872C153.128 68.7056 153.306 69.0087 153.469 69.5704C155.508 76.6354 154.355 125.695 153.007 127.904C152.906 128.068 152.689 128.206 151.955 128.346C148.498 129.003 135.721 129.239 121.315 129.239ZM60.218 127.154C62.1913 127.716 82.912 128.369 106.313 128.592C132.951 128.845 151.528 128.439 152.538 127.581C153.123 126.616 153.797 112.808 153.96 98.0584C154.175 78.7408 153.449 69.5933 152.635 69.0979C150.153 67.8654 65.6688 66.9885 60.8162 68.1142C59.8874 84.6944 59.9909 107.238 60.218 127.154Z" fill="#421B36"/>
<path d="M121.608 110.854C121.026 110.893 120.683 111.354 120.677 111.926C120.669 112.633 121.214 113.097 121.882 113.192C123.566 113.429 125.507 112.083 126.573 110.908C127.629 109.744 128.831 107.588 127.239 106.332C125.712 105.127 123.455 106.295 121.968 107.012C120.106 107.911 118.385 109.105 116.878 110.521C115.389 111.918 114.003 113.567 113.356 115.534C112.774 117.301 112.994 119.212 114.19 120.672C115.474 122.24 117.449 122.925 119.425 123.017C123.587 123.213 127.89 121.559 131.151 119.041C132.421 118.061 134.41 116.348 133.321 114.553C132.272 112.823 129.977 113.424 128.542 114.236C127.043 115.084 125.743 116.803 126.422 118.597C127.146 120.511 129.41 120.67 131.146 120.545C135.227 120.254 139.64 119.02 141.899 115.305C142.683 114.016 143.341 111.437 141.343 110.814C140.472 110.542 139.628 111.11 138.936 111.575C138.2 112.068 137.489 112.665 137.055 113.451C136.204 114.99 136.683 116.927 137.918 118.115C139.344 119.485 141.476 119.662 143.325 119.272C144.511 119.022 145.635 118.552 146.749 118.087C147.168 117.913 146.985 117.221 146.56 117.398C143.905 118.505 139.488 120.052 137.722 116.672C136.94 115.175 137.446 113.672 138.693 112.637C139.23 112.192 140.12 111.476 140.832 111.481C141.98 111.489 142.102 112.888 141.855 113.728C140.967 116.749 137.631 118.584 134.796 119.289C133.2 119.686 131.446 119.947 129.796 119.872C128.081 119.793 126.419 118.616 127.133 116.716C127.679 115.259 129.733 114.047 131.273 114.134C132.157 114.183 132.977 114.822 132.89 115.77C132.815 116.593 132.155 117.258 131.568 117.78C129.266 119.827 126.371 121.252 123.369 121.915C120.405 122.57 116.437 122.733 114.503 119.904C112.551 117.05 114.742 113.691 116.79 111.604C118.036 110.335 119.448 109.235 120.986 108.342C121.66 107.95 122.357 107.597 123.073 107.288C123.923 106.923 124.94 106.448 125.885 106.542C127.031 106.656 127.511 107.643 127.16 108.678C126.883 109.493 126.297 110.215 125.679 110.799C125.032 111.41 124.259 111.903 123.423 112.211C123.071 112.341 122.692 112.469 122.316 112.492C122.088 112.505 121.871 112.499 121.675 112.37C121.529 112.275 121.112 111.602 121.609 111.568C122.065 111.538 122.068 110.823 121.608 110.854Z" fill="#E75634"/>
<path d="M68.4502 153.396C68.4502 155.341 66.943 156.916 65.083 156.916C63.2235 156.916 61.7158 155.34 61.7158 153.396C61.7158 151.451 63.223 149.875 65.083 149.875C66.943 149.875 68.4502 151.452 68.4502 153.396Z" fill="white"/>
<path d="M72.185 153.025C74.0336 153.025 75.8822 153.025 77.7302 153.025C78.1901 153.025 78.1912 152.31 77.7302 152.31C75.8816 152.31 74.033 152.31 72.185 152.31C71.7251 152.31 71.7245 153.025 72.185 153.025Z" fill="#421B36"/>
<path d="M79.5834 153.025C81.432 153.025 83.2806 153.025 85.1286 153.025C85.5885 153.025 85.5896 152.31 85.1286 152.31C83.28 152.31 81.4314 152.31 79.5834 152.31C79.1235 152.31 79.123 153.025 79.5834 153.025Z" fill="#421B36"/>
<path d="M86.6771 153.025C88.5257 153.025 90.3744 153.025 92.2224 153.025C92.6822 153.025 92.6834 152.31 92.2224 152.31C90.3738 152.31 88.5252 152.31 86.6771 152.31C86.2173 152.31 86.2167 153.025 86.6771 153.025Z" fill="#421B36"/>
<path d="M72.185 155.43C78.6745 155.43 85.1646 155.43 91.6542 155.43C92.1141 155.43 92.1152 154.715 91.6542 154.715C85.1646 154.715 78.6745 154.715 72.185 154.715C71.7251 154.715 71.7245 155.43 72.185 155.43Z" fill="#421B36"/>
<path d="M112.459 153.396C112.459 155.341 110.951 156.916 109.092 156.916C107.232 156.916 105.725 155.34 105.725 153.396C105.725 151.451 107.232 149.875 109.092 149.875C110.951 149.875 112.459 151.452 112.459 153.396Z" fill="white"/>
<path d="M116.193 153.025C118.042 153.025 119.89 153.025 121.738 153.025C122.198 153.025 122.199 152.31 121.738 152.31C119.89 152.31 118.041 152.31 116.193 152.31C115.733 152.31 115.732 153.025 116.193 153.025Z" fill="#421B36"/>
<path d="M123.592 153.025C125.44 153.025 127.289 153.025 129.137 153.025C129.597 153.025 129.598 152.31 129.137 152.31C127.288 152.31 125.44 152.31 123.592 152.31C123.131 152.31 123.131 153.025 123.592 153.025Z" fill="#421B36"/>
<path d="M130.686 153.025C132.535 153.025 134.384 153.025 136.232 153.025C136.691 153.025 136.693 152.31 136.232 152.31C134.383 152.31 132.534 152.31 130.686 152.31C130.226 152.31 130.225 153.025 130.686 153.025Z" fill="#421B36"/>
<path d="M116.193 155.43C122.683 155.43 129.173 155.43 135.662 155.43C136.122 155.43 136.123 154.715 135.662 154.715C129.173 154.715 122.683 154.715 116.193 154.715C115.733 154.715 115.732 155.43 116.193 155.43Z" fill="#421B36"/>
<path d="M91.4926 75.4786C101.452 75.4786 111.412 75.4786 121.372 75.4786C124.217 75.4786 127.063 75.4786 129.908 75.4786C130.368 75.4786 130.369 74.7637 129.908 74.7637C119.949 74.7637 109.989 74.7637 100.029 74.7637C97.1837 74.7637 94.3381 74.7637 91.4926 74.7637C91.0327 74.7637 91.0321 75.4786 91.4926 75.4786Z" fill="#421B36"/>
<path d="M107.726 94.2052C112.126 94.2052 116.526 94.2052 120.926 94.2052C121.386 94.2052 121.387 93.4902 120.926 93.4902C116.526 93.4902 112.126 93.4902 107.726 93.4902C107.266 93.4902 107.266 94.2052 107.726 94.2052Z" fill="#421B36"/>
<path d="M124.887 94.2052C131.589 94.2052 138.29 94.2052 144.992 94.2052C145.452 94.2052 145.453 93.4902 144.992 93.4902C138.29 93.4902 131.589 93.4902 124.887 93.4902C124.427 93.4902 124.427 94.2052 124.887 94.2052Z" fill="#421B36"/>
<path d="M93.2645 85.6735C101.413 85.6735 109.562 85.6735 117.71 85.6735C118.17 85.6735 118.171 84.9585 117.71 84.9585C109.562 84.9585 101.413 84.9585 93.2645 84.9585C92.8041 84.9585 92.8035 85.6735 93.2645 85.6735Z" fill="#421B36"/>
<path d="M66.3895 94.2037C76.3492 94.2037 86.3089 94.2037 96.2686 94.2037C99.1141 94.2037 101.96 94.2037 104.805 94.2037C105.265 94.2037 105.266 93.4888 104.805 93.4888C94.8455 93.4888 84.8858 93.4888 74.9261 93.4888C72.0806 93.4888 69.235 93.4888 66.3895 93.4888C65.9291 93.4888 65.9285 94.2037 66.3895 94.2037Z" fill="#421B36"/>
<path d="M66.3895 103.314C76.3492 103.314 86.3089 103.314 96.2686 103.314C99.1141 103.314 101.96 103.314 104.805 103.314C105.265 103.314 105.266 102.599 104.805 102.599C94.8455 102.599 84.8858 102.599 74.9261 102.599C72.0806 102.599 69.235 102.599 66.3895 102.599C65.9291 102.599 65.9285 103.314 66.3895 103.314Z" fill="#421B36"/>
<path d="M107.726 103.316C112.126 103.316 116.526 103.316 120.926 103.316C121.386 103.316 121.387 102.601 120.926 102.601C116.526 102.601 112.126 102.601 107.726 102.601C107.266 102.601 107.266 103.316 107.726 103.316Z" fill="#421B36"/>
<path d="M124.887 102.892C131.589 102.892 138.29 102.892 144.992 102.892C145.452 102.892 145.453 102.177 144.992 102.177C138.29 102.177 131.589 102.177 124.887 102.177C124.427 102.177 124.427 102.892 124.887 102.892Z" fill="#421B36"/>
<path d="M131.885 98.5655C136.254 98.5655 140.623 98.5655 144.992 98.5655C145.452 98.5655 145.453 97.8506 144.992 97.8506C140.623 97.8506 136.254 97.8506 131.885 97.8506C131.425 97.8506 131.425 98.5655 131.885 98.5655Z" fill="#421B36"/>
<path d="M66.3895 98.5655C71.3302 98.5655 76.2702 98.5655 81.2109 98.5655C81.6708 98.5655 81.6719 97.8506 81.2109 97.8506C76.2702 97.8506 71.3302 97.8506 66.3895 97.8506C65.9291 97.8506 65.9285 98.5655 66.3895 98.5655Z" fill="#421B36"/>
<path d="M84.7396 98.5655C96.2048 98.5655 107.67 98.5655 119.136 98.5655C122.357 98.5655 125.579 98.5655 128.801 98.5655C129.261 98.5655 129.262 97.8506 128.801 97.8506C117.336 97.8506 105.87 97.8506 94.4048 97.8506C91.1829 97.8506 87.9615 97.8506 84.7396 97.8506C84.2798 97.8506 84.2792 98.5655 84.7396 98.5655Z" fill="#421B36"/>
<path d="M66.3895 107.79C74.5378 107.79 82.6866 107.79 90.8349 107.79C91.2947 107.79 91.2959 107.075 90.8349 107.075C82.6866 107.075 74.5378 107.075 66.3895 107.075C65.9291 107.075 65.9285 107.79 66.3895 107.79Z" fill="#421B36"/>
<path d="M87.7168 4.84165C87.655 5.62811 85.8144 17.6086 89.0357 17.8534C92.2571 18.0982 124.971 18.8932 125.575 17.8534C126.179 16.8135 127.738 5.10132 124.943 4.84165C122.149 4.58197 87.8552 3.08513 87.7168 4.84165Z" fill="#421B36"/>
<path d="M141.818 92.1621C141.818 92.1621 149.021 65.756 156.591 64.2383C164.16 62.7207 151.964 97.7592 151.964 97.7592L141.818 92.1621Z" fill="white"/>
<path d="M161.986 61.4944C158.856 61.954 155.933 64.2627 155.001 66.4378C155.001 66.4378 151.525 89.6306 151.331 92.4645C151.137 95.2984 145.492 146.86 148.596 150.643C151.701 154.427 157.698 150.65 157.698 150.65L164.49 61.4209" fill="white"/>
<path d="M189.81 193.645C189.695 193.996 189.592 198.585 191.211 201.968C192.83 205.351 183.474 206.725 183.474 206.725C183.474 206.725 181.44 197.422 180.514 194.617C179.589 191.812 189.81 193.645 189.81 193.645Z" fill="#421B36"/>
<path d="M201.376 212.866C201.376 212.866 201.396 213.966 201.177 214.958C200.958 215.951 197.23 216.546 192.331 216.372C187.432 216.198 184.627 214.155 184.429 213.93C184.23 213.706 183.749 210.318 183.749 210.318L201.376 212.866Z" fill="url(#paint1_linear_7199_47155)"/>
<path d="M190.985 201.71C191.165 201.838 195.975 208.019 197.533 208.949C199.091 209.878 201.554 211.239 201.37 213.214C201.185 215.19 191.962 214.937 188.376 214.138C184.789 213.339 184.867 213.741 184.255 212.605C183.643 211.468 183.477 206.784 183.454 206.147C183.431 205.51 185.64 197.904 190.985 201.71Z" fill="#421B36"/>
<path d="M152.175 206.511C152.55 206.27 153.016 206.137 153.399 205.834C155.14 204.454 156.777 202.344 157.617 200.358C158.64 197.936 156.236 188.311 156.016 188.064L166.368 190.839C166.368 190.839 165.156 199.375 165.376 202.147C165.596 204.92 167.551 211.811 166.617 213.443C165.684 215.076 153.427 216.615 148.844 216.757C141.723 216.976 139.368 213.82 139.375 212.908C139.38 212.282 150.089 207.845 152.175 206.511Z" fill="#421B36"/>
<path d="M152.873 125.467C153.158 119.28 152.292 111.82 153.564 106.727C154.389 103.422 155.885 96.4691 155.885 96.4691L177.769 96.1831C177.769 96.1831 182.732 102.764 184.897 110.418C187.096 118.191 187.326 125.232 188.928 135.836C190.413 145.672 191.226 155.731 191.501 159.266C191.791 162.989 194.952 193.684 194.885 196.383C194.82 198.981 177.314 198.751 175.605 196.383C174.062 194.245 167.977 133.786 167.014 124.366L167.408 124.299C167.623 124.18 169.181 159.206 169.181 159.206L170.724 197.017C169.727 198.85 151.915 198.594 151.417 196.913C150.918 195.232 152.589 131.654 152.873 125.467Z" fill="url(#paint2_linear_7199_47155)"/>
<g opacity="0.2">
<path d="M190.979 153.187H190.985L191.011 153.498C190.987 153.407 190.977 153.302 190.979 153.187ZM190.035 153.982C189.522 154.363 189.625 154.459 189.813 154.924C190.297 155.488 190.9 154.956 190.776 154.338C190.567 154.14 190.334 153.988 190.035 153.982ZM191.386 158.873C191.416 158.86 191.436 158.844 191.464 158.83L191.368 157.693C191.305 157.684 191.248 157.671 191.177 157.669C191.045 157.951 190.919 158.218 190.785 158.504C190.992 158.631 191.178 158.745 191.386 158.873ZM175.682 159.988C175.866 159.88 175.835 159.577 175.893 159.38C175.749 159.245 175.544 158.744 175.317 158.953C175.045 159.16 174.841 159.179 174.782 159.58C174.851 160.086 175.283 160.05 175.682 159.988ZM187.047 158.535C187.222 158.088 186.782 157.747 186.35 157.658C185.36 158.208 186.441 159.11 187.047 158.535ZM185.603 154.118C185.204 153.734 184.876 154.153 184.606 154.419C184.695 154.789 184.811 154.923 185.109 155.181C185.312 155.047 185.5 154.944 185.725 154.85C185.651 154.594 185.612 154.347 185.603 154.118ZM189.035 155.202C188.798 155.349 188.572 155.488 188.293 155.661C188.766 157.233 190.104 155.861 189.035 155.202ZM174.263 157.734C174.312 158.03 174.366 158.322 174.425 158.601C174.747 158.407 174.775 157.986 174.263 157.734ZM184.005 155.205C183.769 155.268 183.583 155.373 183.448 155.653C183.563 156.163 183.898 156.561 184.413 156.148C184.459 156.003 184.505 155.861 184.557 155.695C184.362 155.552 184.23 155.324 184.005 155.205ZM185.711 159.214C185.579 158.922 184.882 159.052 184.731 159.302C184.605 159.567 184.968 159.686 184.94 159.94C184.973 159.99 185.007 160.026 185.044 160.051C185.19 160.035 185.335 160.018 185.479 160.002C185.616 159.922 185.754 159.812 185.881 159.736C185.799 159.54 185.571 159.426 185.711 159.214ZM177.284 156.826C177.271 157.066 177.473 157.259 177.491 157.525C178.053 157.694 178.147 157.41 178.366 156.99C178.254 156.467 177.498 156.319 177.284 156.826ZM176.053 155.548C176.076 155.734 176.093 155.881 176.11 156.022C176.467 156.31 176.776 156.414 177.157 156.087C177.109 155.445 176.498 154.921 176.053 155.548ZM175.882 154.493C175.523 153.985 175.053 153.859 174.775 154.521C175.047 155.416 175.568 155.316 175.882 154.493ZM183.35 154.561C183.151 153.996 182.603 153.873 182.278 154.382C182.104 155.135 183.194 155.326 183.35 154.561ZM187.993 154.072C187.649 154.169 187.375 154.317 187.075 154.549C187.332 155.728 189.028 154.626 187.993 154.072ZM188.207 159.667C188.232 159.205 188.128 158.907 187.618 159.007C187.248 159.016 187.298 159.361 187.112 159.651C187.157 159.704 187.205 159.752 187.253 159.795C187.581 159.755 187.895 159.717 188.197 159.681C188.2 159.675 188.203 159.673 188.207 159.667ZM174.718 157.089C174.801 157.211 174.876 157.322 174.943 157.421C175.096 157.455 175.229 157.485 175.403 157.525C175.575 157.393 175.812 157.383 175.895 157.181C175.657 156.453 174.939 156.216 174.718 157.089ZM190.606 159.18C190.273 158.662 189.944 159.081 189.649 159.401C189.66 159.436 189.675 159.465 189.688 159.496C190.079 159.447 190.413 159.405 190.69 159.369C190.669 159.309 190.644 159.247 190.606 159.18ZM177.139 158.432C177.095 158.252 177.057 158.09 177.015 157.917C175.691 157.172 175.995 159.79 177.139 158.432ZM183.753 158.668C184.209 158.852 184.801 158.328 184.436 157.912C183.739 157.305 183.238 158.022 183.753 158.668ZM188.213 157.27C188.316 156.68 188.066 156.426 187.467 156.533C187.354 156.706 187.264 156.846 187.163 157C187.284 157.509 187.841 157.602 188.213 157.27ZM189.728 157.317C189.962 157.618 190.749 157.681 190.695 157.053C190.507 156.153 189.54 156.432 189.728 157.317ZM179.913 159.945C180.384 160.239 180.757 159.773 180.733 159.285C180.176 158.666 179.35 159.327 179.913 159.945ZM176.049 160.515C176.036 160.617 176.042 160.708 176.06 160.792C176.339 160.798 176.686 160.792 177.084 160.776C176.878 160.319 176.388 159.984 176.049 160.515ZM191.249 156.302L191.179 155.471C191.034 155.564 190.924 155.696 190.906 155.941C191.01 156.051 191.128 156.175 191.249 156.302ZM181.338 160.329C181.338 160.367 181.338 160.408 181.338 160.446C181.547 160.426 181.758 160.405 181.972 160.383C181.966 160.348 181.961 160.318 181.954 160.28C181.766 160.244 181.496 160.186 181.338 160.329ZM184.455 153.522C184.453 153.512 184.451 153.506 184.449 153.497L183.476 153.543C183.695 153.986 184.182 153.851 184.455 153.522ZM179.046 153.752L178.858 153.761C178.881 153.779 178.904 153.797 178.928 153.814C178.97 153.792 179.007 153.773 179.046 153.752ZM181.007 158.42C181.289 159.614 182.662 158.197 181.532 157.829C181.308 157.964 181.062 158.072 181.007 158.42ZM180.356 157.533C180.526 157.469 180.738 157.493 180.852 157.3C180.825 156.332 179.979 156.462 179.762 157.266C179.89 157.539 180.178 157.408 180.356 157.533ZM177.328 159.145C177.328 159.427 177.328 159.639 177.328 159.887C177.592 159.948 177.836 159.954 178.082 159.903C178.153 159.717 178.217 159.551 178.268 159.416C178.186 159.227 178.118 159.07 178.05 158.913C177.891 159.035 177.525 159.03 177.328 159.145ZM184.614 157C184.818 157.849 185.953 157.501 185.608 156.6C185.314 156.457 184.712 156.707 184.614 157ZM189.422 153.558C189.437 153.446 189.436 153.347 189.423 153.261L188.515 153.304C188.505 153.341 188.495 153.38 188.489 153.421C188.513 154.052 189.104 153.81 189.422 153.558ZM179.251 158.691C179.811 158.606 179.415 157.914 179.151 157.671C178.295 157.845 178.397 158.738 179.251 158.691ZM173.995 155.234C173.981 155.242 173.97 155.253 173.958 155.261C173.985 155.563 174.02 155.907 174.062 156.273C174.728 156.116 174.648 155.441 173.995 155.234ZM186.745 153.572C186.917 153.553 186.973 153.476 186.974 153.377L185.994 153.423C186.359 153.701 186.117 154.071 186.745 153.572ZM177.841 153.992C177.491 154.084 177.356 154.331 177.251 154.645C177.776 155.674 178.676 154.446 177.841 153.992ZM189.126 158.768C189.69 158.384 189.424 157.831 188.817 157.796C188.246 158.085 188.572 158.741 189.126 158.768ZM182.234 159.512C182.35 159.903 182.997 160.149 183.199 159.714C183.162 159.523 183.13 159.361 183.087 159.143C182.797 158.837 182.192 159.157 182.234 159.512ZM179.53 160.604C179.365 160.502 179.211 160.406 179.024 160.288C178.85 160.398 178.684 160.503 178.528 160.601C178.529 160.633 178.533 160.661 178.535 160.69C178.852 160.667 179.183 160.641 179.528 160.612C179.528 160.609 179.529 160.607 179.53 160.604ZM186.73 156.191C187.326 155.51 186.741 155.27 186.183 155.476C186.053 155.703 185.856 155.904 186.122 156.191C186.343 156.191 186.544 156.191 186.73 156.191ZM178.716 155.353C178.26 155.699 178.572 156.154 179.058 156.217C179.695 155.898 179.377 155.03 178.716 155.353ZM182.722 157.427C182.726 157.425 182.729 157.424 182.733 157.422C182.73 157.424 182.726 157.425 182.722 157.427ZM182.733 157.416C182.733 157.418 182.733 157.42 182.733 157.422C182.803 157.386 182.875 157.351 182.946 157.316C183.014 157.23 183.083 157.144 183.158 157.049C183.036 156.874 182.922 156.711 182.814 156.556C182.349 156.703 182.349 156.703 182.174 157.397C182.479 157.516 182.479 157.516 182.733 157.416ZM181.545 155.271C181.34 155.445 180.814 155.58 181.052 155.906C181.256 156.083 181.441 156.421 181.749 156.278C181.911 155.917 181.98 155.573 181.545 155.271ZM180.124 154.154C179.752 154.234 180.098 154.717 180.305 154.76C180.923 154.707 180.477 154.137 180.124 154.154ZM182.733 157.416L182.722 157.427C182.726 157.425 182.729 157.424 182.733 157.422C182.733 157.42 182.733 157.418 182.733 157.416ZM182.733 157.422C182.733 157.484 182.733 157.546 182.733 157.623C182.917 157.666 183.072 157.692 183.226 157.595C183.122 157.337 183.122 157.337 182.935 157.329L182.949 157.315C182.948 157.315 182.947 157.315 182.946 157.316C182.875 157.351 182.803 157.386 182.733 157.422ZM180.069 155.141C180.187 155.141 180.286 155.141 180.423 155.141C180.211 154.957 180.211 154.957 180.069 155.141Z" fill="#421B36"/>
</g>
<path d="M184.024 68.2535C182.779 64.3732 179.354 61.6035 175.297 61.2168C168.773 60.5954 161.841 60.6698 160.386 62.3543C156.66 66.6661 154.214 82.327 153.961 87.5772C153.669 93.6423 151.505 106.045 152.054 106.186C156.957 107.445 188.913 106.4 186.936 106.186L183.928 84.4004C183.995 79.9606 185.593 73.1401 184.024 68.2535Z" fill="url(#paint3_linear_7199_47155)"/>
<path d="M177.195 61.4216C177.195 61.4216 183.344 63.0247 184.361 63.9242C184.86 64.3664 184.17 82.2185 187.023 99.9099C190.579 121.958 197.757 145.719 197.893 149.798C197.893 149.798 192.888 155.964 173.412 154.536L168.381 96.1834C168.381 96.1834 169.731 72.0919 170.552 68.7323C171.287 65.7214 170.898 59.4244 171.469 58.6459C172.295 57.52 177.195 61.4216 177.195 61.4216Z" fill="white"/>
<path d="M162.566 116.06C163.154 117.149 163.74 118.238 164.327 119.327C164.758 120.124 165.188 120.922 165.618 121.721C165.889 122.223 166.128 122.78 166.446 123.255C166.568 123.438 166.476 123.258 166.479 123.284C166.487 123.361 166.496 123.438 166.504 123.516C166.538 123.826 166.57 124.137 166.603 124.448C166.726 125.619 166.847 126.791 166.968 127.962C167.337 131.531 167.703 135.1 168.069 138.669C168.426 142.152 168.783 145.634 169.139 149.117C169.278 150.476 169.42 151.836 169.556 153.196C169.708 154.716 169.861 156.236 170.017 157.756C170.35 160.99 170.694 164.223 171.05 167.455C171.477 171.335 171.922 175.213 172.399 179.088C172.832 182.604 173.285 186.119 173.827 189.62C174.15 191.703 174.382 193.932 175.089 195.931C175.16 196.132 175.234 196.351 175.364 196.524C175.576 196.809 176.062 196.53 175.847 196.242C175.545 195.837 175.438 195.179 175.312 194.65C175.056 193.574 174.862 192.482 174.676 191.391C174.118 188.1 173.679 184.787 173.257 181.476C172.76 177.577 172.304 173.673 171.866 169.767C171.479 166.317 171.107 162.864 170.747 159.41C170.544 157.458 170.344 155.506 170.15 153.553C170.054 152.584 169.953 151.615 169.854 150.646C169.526 147.435 169.197 144.224 168.868 141.013C168.489 137.309 168.109 133.605 167.727 129.902C167.505 127.74 167.299 125.576 167.053 123.417C166.972 122.711 166.408 122.007 166.079 121.397C165.243 119.846 164.406 118.295 163.57 116.744C163.397 116.422 163.223 116.1 163.05 115.779C162.879 115.461 162.395 115.743 162.566 116.06Z" fill="#421B36"/>
<path d="M152.094 106.494C157.417 107.496 162.876 107.52 168.208 106.565C168.562 106.502 168.412 105.963 168.059 106.026C162.831 106.962 157.461 106.938 152.242 105.955C151.89 105.889 151.74 106.428 152.094 106.494Z" fill="#421B36"/>
<path d="M152.129 73.1556C152.316 73.5151 152.504 73.8741 152.691 74.2335C152.741 74.3296 152.785 74.4395 152.845 74.5301C152.874 74.5731 152.911 74.7154 152.887 74.5763C152.861 74.4252 152.874 74.5698 152.864 74.5999C152.805 74.78 152.835 75.0411 152.822 75.2286C152.796 75.6149 152.769 76.0011 152.741 76.3869C152.541 79.1593 152.304 81.9295 152.026 84.6955C151.502 89.9059 150.647 95.0665 150.021 100.263C149.385 105.548 148.868 110.847 148.425 116.152C147.942 121.926 147.546 127.711 147.334 133.503C147.172 137.912 147.014 142.392 147.468 146.79C147.506 147.164 147.552 147.536 147.605 147.908C147.656 148.263 148.195 148.112 148.145 147.759C147.554 143.618 147.715 139.332 147.838 135.165C148.006 129.429 148.378 123.699 148.835 117.979C149.269 112.543 149.783 107.112 150.411 101.695C150.985 96.7352 151.815 91.8117 152.359 86.8493C152.695 83.7849 152.971 80.714 153.207 77.6403C153.273 76.7796 153.335 75.9189 153.393 75.0577C153.426 74.5707 153.407 74.3989 153.173 73.9507C152.986 73.5913 152.799 73.2323 152.612 72.8729C152.445 72.5541 151.963 72.8364 152.129 73.1556Z" fill="#421B36"/>
<path d="M171.858 96.4845C171.858 96.4845 170.809 88.1574 171.233 87.6728C171.657 87.1881 172.081 87.6658 172.081 87.6658C172.081 87.6658 172.465 95.6418 172.698 96.3912C172.93 97.141 175.55 99.0689 177.69 99.3295L177.741 100.046C177.741 100.046 172.247 98.8305 171.858 96.4845Z" fill="#421B36"/>
<path d="M179.849 99.6294C179.89 100.202 179.374 100.704 178.698 100.753C178.022 100.801 177.44 100.376 177.4 99.8031C177.359 99.2307 177.875 98.728 178.551 98.68C179.227 98.6319 179.809 99.057 179.849 99.6294Z" fill="#421B36"/>
<path d="M173.403 100.594C173.444 101.166 172.928 101.669 172.252 101.717C171.575 101.765 170.994 101.34 170.953 100.767C170.913 100.195 171.428 99.6923 172.105 99.6443C172.781 99.5967 173.362 100.022 173.403 100.594Z" fill="#421B36"/>
<path d="M173.186 100.103C173.303 100.164 176.542 98.4078 177.166 97.2325C177.789 96.0576 178.963 88.3778 178.963 88.3778L179.964 88.3066C179.964 88.3066 178.785 96.156 178.019 97.3129C177.253 98.4697 175.373 100.158 173.382 100.836L173.186 100.103Z" fill="#421B36"/>
<path d="M177.702 61.2467C177.702 61.2467 178.142 64.155 177.65 66.155C177.158 68.1549 175.319 79.7581 175.319 79.7581L176.581 79.6685C176.581 79.6685 178.609 67.164 179.007 64.7274C179.404 62.2903 178.898 61.7429 178.898 61.7429C178.898 61.7429 178.04 60.6461 177.702 61.2467Z" fill="url(#paint4_linear_7199_47155)"/>
<path d="M171.078 88.3538C170.999 88.3062 171.009 87.9144 171.015 87.8225C171.022 87.7005 171.035 87.5199 171.057 87.2935C171.25 85.3115 172.13 79.8119 175.987 79.3305C180.699 78.7423 180.816 87.536 180.102 88.1935C179.531 88.7188 179.067 88.4614 178.903 88.3371C178.863 88.3062 178.843 88.2609 178.848 88.2101C178.932 87.4095 179.577 80.2766 175.941 80.4748C172.089 80.6846 172.709 88.0549 172.228 88.364C171.843 88.612 171.377 88.5349 171.078 88.3538Z" fill="url(#paint5_linear_7199_47155)"/>
<path d="M168.894 87.66C168.894 87.66 176.086 71.9784 176.568 70.5245C177.05 69.0705 171.508 66.8035 171.35 66.8298C171.193 66.8562 175.991 67.8555 176.569 67.7081C177.958 67.3547 177.606 61.8818 177.356 61.3579" fill="white"/>
<path d="M169.135 87.8014C170.53 84.7591 171.918 81.7132 173.297 78.663C174.191 76.6838 175.085 74.7037 175.954 72.7134C176.212 72.123 176.473 71.533 176.711 70.9347C176.946 70.3429 176.867 69.8892 176.434 69.3939C175.647 68.4958 174.452 67.9067 173.398 67.3916C172.916 67.1565 172.427 66.9352 171.929 66.736C171.724 66.6538 171.426 66.4801 171.205 66.5905C171.036 66.6746 171.035 66.9051 171.148 67.0299C171.276 67.1703 171.586 67.1893 171.757 67.2276C172.204 67.3283 172.654 67.4193 173.105 67.5076C174.098 67.7016 175.108 67.9137 176.119 67.9899C177.989 68.1308 177.874 65.0715 177.867 63.8435C177.862 63.0303 177.923 61.9839 177.596 61.217C177.455 60.8871 176.974 61.1717 177.114 61.4993C177.315 61.9714 177.283 62.8386 177.299 63.3939C177.327 64.3369 177.315 65.3085 177.122 66.2348C177 66.8164 176.848 67.4748 176.188 67.4355C175.336 67.3842 174.481 67.2017 173.644 67.0433C173.153 66.9504 172.662 66.8525 172.173 66.7471C172.012 66.712 171.85 66.6778 171.689 66.6386C171.543 66.603 171.427 66.506 171.544 66.6344C171.525 66.7809 171.506 66.9273 171.487 67.0738C171.297 67.1685 171.276 67.0654 171.469 67.1565C171.611 67.2234 171.766 67.2692 171.911 67.3292C172.352 67.5113 172.786 67.7118 173.213 67.9229C174.145 68.3835 175.151 68.8936 175.893 69.6365C176.345 70.0883 176.343 70.365 176.125 70.9033C175.88 71.5048 175.618 72.0994 175.358 72.694C173.651 76.5859 171.881 80.4505 170.118 84.317C169.63 85.3851 169.142 86.4528 168.653 87.52C168.503 87.8439 168.985 88.1285 169.135 87.8014Z" fill="#421B36"/>
<path d="M163.048 61.2433C162.965 61.2604 163.996 68.5258 164.99 68.1424C165.984 67.7589 171.106 61.4212 171.106 61.4212C171.106 61.4212 165.259 60.7846 163.048 61.2433Z" fill="#FFAE7A"/>
<path d="M171.839 58.4507C171.839 58.4507 161.424 59.9596 159.746 61.0739C158.069 62.1883 156.146 65.4255 155.828 66.8055C155.509 68.1855 153.921 87.7138 153.962 87.577C155.247 83.2947 159.609 64.8665 161.295 63.0901C163.048 61.243 171.839 61.0481 171.839 61.0481V58.4507Z" fill="white"/>
<path d="M154.103 86.8537C154.251 84.5215 154.404 82.1893 154.562 79.8576C154.681 78.1066 154.802 76.3556 154.934 74.6051C155.012 73.567 155.029 72.4901 155.206 71.4626C155.338 70.6952 156.282 70.0128 156.918 69.5624C157.332 69.269 157.762 68.9983 158.203 68.7474C158.353 68.662 158.504 68.5779 158.658 68.5003C158.721 68.4684 158.923 68.4088 158.803 68.4111C158.709 68.3178 158.616 68.2244 158.523 68.1316C158.523 68.133 158.523 68.1339 158.523 68.1353C158.569 68.0549 158.616 67.9745 158.662 67.8937C158.393 68.0641 157.752 68.1662 157.381 68.2572C157.075 68.3326 156.767 68.4051 156.457 68.4554C156.363 68.4707 156.19 68.5247 156.098 68.4966C155.936 68.4471 156.075 68.5649 156.011 68.3672C155.77 67.6229 156.013 66.7391 156.278 66.0369C156.697 64.9308 157.388 63.9412 158.181 63.0727C158.423 62.8075 158.029 62.4106 157.785 62.6772C156.842 63.7102 156.034 64.9059 155.613 66.2508C155.46 66.741 155.355 67.2658 155.366 67.7819C155.374 68.1103 155.405 68.6841 155.659 68.9308C156.043 69.3041 157.106 68.9004 157.529 68.7964C157.816 68.7262 159.087 68.5793 159.082 68.1311C159.08 67.9824 158.956 67.8484 158.803 67.8516C158.634 67.8553 158.461 67.9727 158.317 68.0475C157.947 68.2392 157.588 68.4527 157.238 68.6758C156.465 69.1674 155.66 69.7236 155.091 70.4536C154.465 71.2575 154.544 72.4453 154.466 73.4159C154.186 76.9267 153.96 80.442 153.731 83.9565C153.667 84.922 153.605 85.8876 153.544 86.8532C153.521 87.2131 154.08 87.2117 154.103 86.8537Z" fill="#421B36"/>
<path d="M174.396 190.765C180.932 191.777 187.603 191.612 194.079 190.269C194.431 190.196 194.282 189.657 193.93 189.73C187.559 191.051 180.975 191.222 174.544 190.226C174.192 190.172 174.041 190.71 174.396 190.765Z" fill="#421B36"/>
<path d="M151.555 189.689C157.668 190.711 163.893 190.908 170.056 190.258C170.41 190.221 170.414 189.661 170.056 189.699C163.945 190.343 157.765 190.163 151.703 189.149C151.352 189.09 151.2 189.629 151.555 189.689Z" fill="#421B36"/>
<path d="M139.537 213.462C139.681 213.258 138.276 211.082 143.79 208.522C147.162 206.956 150.202 204.712 152.676 205.455C155.15 206.198 161.833 213.948 161.833 213.948C161.833 213.948 152.146 217.506 146.786 215.975C141.427 214.444 139.537 213.462 139.537 213.462Z" fill="url(#paint6_linear_7199_47155)"/>
<path d="M156.461 210.655C156.513 210.5 165.103 204.063 165.98 204.786C166.858 205.509 166.125 207.447 166.125 207.447L157.056 212.439L156.461 210.655Z" fill="url(#paint7_linear_7199_47155)"/>
<path d="M139.519 212.704C139.744 212.537 139.964 212.412 140.369 212.189C140.514 212.289 144.683 214.382 152.48 214.406C160.409 214.43 166.892 210.06 166.892 210.06C166.979 211.115 166.888 213.038 166.63 213.488C166.601 213.539 166.56 213.589 166.511 213.639C166.41 213.742 166.266 213.844 166.085 213.944C163.465 215.394 153.009 216.674 148.856 216.802C143.381 216.972 140.782 215.163 139.815 213.897C139.332 213.23 139.286 212.876 139.519 212.704Z" fill="url(#paint8_linear_7199_47155)"/>
<path d="M184.557 213.36C184.557 213.36 186.728 205.582 193.75 205.04C200.773 204.497 203.633 213.85 201.177 214.958C198.72 216.067 187.844 217.621 184.557 213.36Z" fill="url(#paint9_linear_7199_47155)"/>
<path d="M139.255 212.317C140.564 213.623 142.391 214.255 144.149 214.692C146.092 215.176 148.103 215.364 150.102 215.344C154.228 215.301 158.068 214.126 161.906 212.709C162.241 212.586 162.096 212.045 161.758 212.17C158.106 213.518 154.442 214.68 150.519 214.777C148.568 214.825 146.607 214.681 144.702 214.249C142.908 213.843 140.984 213.252 139.651 211.922C139.395 211.667 139 212.062 139.255 212.317Z" fill="#421B36"/>
<path d="M158.448 208.46C157.975 208.79 157.502 209.119 157.03 209.449C156.606 209.744 156.152 210.019 155.762 210.359C155.457 210.626 155.191 210.986 155.206 211.41C155.219 211.816 155.505 212.166 155.86 212.338C156.66 212.726 157.73 212.519 158.524 212.218C159.422 211.877 160.228 211.347 161.06 210.877C161.373 210.7 161.092 210.216 160.778 210.394C159.485 211.124 158.071 212.177 156.496 211.949C156.177 211.903 155.737 211.728 155.765 211.334C155.789 210.993 156.174 210.727 156.426 210.549C157.19 210.008 157.962 209.478 158.73 208.943C159.024 208.739 158.744 208.254 158.448 208.46Z" fill="#421B36"/>
<path d="M158.609 210.906C158.609 211.143 158.336 211.335 158.001 211.335C157.665 211.335 157.393 211.143 157.393 210.906C157.393 210.669 157.665 210.478 158.001 210.478C158.336 210.478 158.609 210.67 158.609 210.906Z" fill="#421B36"/>
<path d="M184.667 213.163C190.211 215.217 196.372 215.361 202.007 213.576C202.349 213.467 202.203 212.927 201.858 213.036C196.308 214.795 190.275 214.646 184.816 212.624C184.478 212.498 184.332 213.039 184.667 213.163Z" fill="#421B36"/>
<path d="M161.861 38.0631C163.2 37.0153 164.405 36.2188 166.005 35.6057C166.128 35.5586 166.082 35.3807 165.951 35.4075C164.385 35.7277 162.72 36.6845 161.779 37.9993C161.741 38.052 161.818 38.0964 161.861 38.0631Z" fill="#421B36"/>
<path d="M173.174 72.1814C173.174 72.1814 168.269 71.4801 168.102 72.0844C167.876 72.9026 167.952 74.5787 168.377 74.6915C169.126 74.8906 172.899 75.0213 173.231 74.5931C173.697 73.9906 173.174 72.1814 173.174 72.1814Z" fill="white"/>
<path d="M156.36 40.0581C155.711 40.6901 155.204 41.5116 155.126 42.4139C155.055 43.233 155.343 44.053 155.791 44.7423C156.239 45.4316 156.84 46.0073 157.454 46.5552L158.574 38.4961C157.795 38.9581 157.008 39.4261 156.36 40.0581Z" fill="#421B36"/>
<path d="M158.246 40.3006C158.045 39.4662 158.288 37.4556 158.743 36.7284C159.199 36.0012 159.882 35.4371 160.631 35.018C162.606 33.9125 165.107 33.8039 167.171 34.7335C168.272 35.2301 169.235 35.9929 170.32 36.526C171.405 37.0587 172.636 37.5558 173.73 37.0398L172.906 39.1982L171.076 40.8734" fill="#421B36"/>
<path d="M176.755 40.2638C176.163 39.8711 175.436 39.7427 174.729 39.6748C175.298 39.6752 175.844 39.2668 176.004 38.7203C176.164 38.1737 175.924 37.5352 175.444 37.2294C174.752 36.7882 173.802 36.9277 173.059 37.2765C171.465 38.025 170.761 38.0846 169.241 37.4544L173.744 46.0776C174.584 45.9358 175.481 45.7653 176.086 45.1647C176.691 44.5641 176.774 43.3782 176.032 42.9577C176.66 43.2922 177.502 42.7674 177.638 42.0698C177.775 41.3721 177.347 40.6565 176.755 40.2638Z" fill="#421B36"/>
<path d="M170.314 39.8142C165.878 35.4127 158.175 37.3998 156.404 43.3928C155.844 45.2884 155.864 47.6733 156.458 50.7613C158.114 59.3776 164.49 58.1958 164.49 58.1958L163.993 62.2937L165.168 67.1882L171.106 61.421L172.095 54.5719C173.092 52.9604 174.054 46.376 171.75 42.1062C171.31 41.2894 170.964 40.4587 170.314 39.8142Z" fill="#FFAE7A"/>
<path d="M163.692 36.7568C168.322 35.7317 173.881 38.8816 174.822 41.6383C177.503 49.4965 172.095 54.5716 172.095 54.5716C173.261 51.3288 173.603 49.0419 172.531 45.6744C172.531 45.6744 169.387 47.9104 169.372 44.6404C169.364 42.9398 169.335 42.0712 168.937 40.6972C167.651 36.2657 160.336 38.3614 160.336 38.3614C160.336 38.3614 160.152 37.5408 163.692 36.7568Z" fill="#421B36"/>
<path d="M158.626 45.9901C158.675 46.3079 158.946 46.5306 159.232 46.4876C159.519 46.4442 159.712 46.1518 159.664 45.8334C159.616 45.5156 159.345 45.2929 159.058 45.3359C158.772 45.3788 158.578 45.6717 158.626 45.9901Z" fill="#421B36"/>
<path d="M164.289 45.1053C164.337 45.4232 164.608 45.6458 164.894 45.6029C165.181 45.5594 165.374 45.267 165.327 44.9487C165.279 44.6308 165.007 44.4081 164.721 44.4511C164.434 44.4945 164.241 44.787 164.289 45.1053Z" fill="#421B36"/>
<path d="M167.458 41.6537C166.867 41.4167 166.097 41.3696 165.47 41.4264C164.886 41.4791 164.39 41.73 163.834 41.8741C163.513 41.9573 163.36 41.498 163.586 41.3105C164.728 40.368 166.411 40.7039 167.586 41.3299C167.78 41.4324 167.671 41.7397 167.458 41.6537Z" fill="#421B36"/>
<g opacity="0.2">
<path d="M165.464 47.0701C165.535 47.5413 166.331 47.8125 167.241 47.6753C168.152 47.5381 168.833 47.0442 168.761 46.573C168.69 46.1017 167.895 45.8305 166.984 45.9678C166.073 46.1054 165.393 46.5989 165.464 47.0701Z" fill="#421B36"/>
</g>
<g opacity="0.2">
<path d="M157.125 48.4539C157.196 48.9252 157.992 49.1964 158.903 49.0591C159.813 48.9219 160.494 48.428 160.423 47.9568C160.351 47.4851 159.556 47.2144 158.645 47.3516C157.735 47.4888 157.054 47.9822 157.125 48.4539Z" fill="#421B36"/>
</g>
<path d="M172.522 45.6097C173.489 44.8483 174.234 45.0257 174.72 45.2845C175.205 45.5432 175.555 46.0117 175.765 46.5203C176.114 47.3658 176.093 48.39 175.582 49.1491C175.072 49.9082 174.036 50.3175 173.183 49.9881L172.522 45.6097Z" fill="#FFAE7A"/>
<path d="M174.604 47.6575C174.439 47.5831 174.078 47.5864 173.905 47.6127C173.616 47.6561 173.458 47.8275 173.287 48.0451C173.087 48.3002 172.655 48.0779 172.783 47.7647C172.938 47.3859 173.328 47.1174 173.73 47.0676C173.921 47.044 174.144 47.0685 174.318 47.1549C174.525 47.2584 174.55 47.3956 174.666 47.5734C174.692 47.615 174.657 47.682 174.604 47.6575Z" fill="#421B36"/>
<path d="M158.14 42.1172C158.941 40.8725 160.665 40.8116 161.567 41.9453C162.835 43.5383 162.437 46.4909 161.617 48.192C161.429 48.5829 160.877 48.356 160.997 47.9448C161.385 46.6175 161.781 45.274 161.601 43.8709C161.476 42.8956 161.064 41.7961 159.891 41.7531C159.401 41.7351 158.728 42.0155 158.331 42.3001C158.207 42.3902 158.057 42.2461 158.14 42.1172Z" fill="#421B36"/>
<path d="M169.208 56.2808C168.016 57.6446 166.297 58.4194 164.496 58.5492C164.141 58.5746 164.051 58.0526 164.412 57.9953C166.145 57.7199 167.66 57.1147 169.177 56.2415C169.199 56.2291 169.224 56.2619 169.208 56.2808Z" fill="#421B36"/>
<path d="M169.373 44.6411C169.357 45.6607 169.71 47.4658 170.059 48.4235C170.178 48.7497 170.353 49.0777 170.653 49.2519C170.954 49.426 171.402 49.3785 171.571 49.0754C171.629 48.971 171.833 48.6956 171.883 48.5871C172.518 47.202 172.484 46.3912 172.699 45.0467" fill="#421B36"/>
<path d="M158.703 38.8712C158.213 37.4108 158.055 35.9629 159.024 34.6642C159.476 34.059 158.446 33.2551 157.97 33.8511C156.708 35.4311 156.441 37.9624 158.395 39.1087C158.546 39.1969 158.762 39.0486 158.703 38.8712Z" fill="#421B36"/>
<path d="M158.906 38.8852C158.61 38.5669 158.117 38.4523 157.727 38.2846C157.263 38.085 156.816 37.8309 156.393 37.5556C155.698 37.1028 155.021 38.2513 155.742 38.6694C156.507 39.1125 158.035 39.7561 158.869 39.1735C158.967 39.1046 158.991 38.9771 158.906 38.8852Z" fill="#421B36"/>
<path d="M183.707 63.5648C183.707 63.5648 186.494 63.9903 188.261 67.4876C189.96 70.8501 195.142 92.2554 194.997 96.4573C194.884 99.7168 192.854 102.471 186.323 102.855C180.942 103.172 171.779 103.56 170.613 101.704C168.892 98.9646 168.997 91.7228 171.287 91.1808C173.577 90.6389 184.085 91.5883 184.22 91.1808C184.354 90.7734 182.174 82.6703 181.636 79.3024C181.097 75.9348 180.069 63.2954 183.707 63.5648Z" fill="white"/>
<path d="M188.02 67.6284C188.412 68.4124 188.672 69.2694 188.939 70.101C189.374 71.4561 189.763 72.825 190.14 74.1971C191.077 77.6201 191.921 81.0694 192.698 84.5321C193.386 87.6011 194.052 90.6887 194.493 93.8044C194.824 96.1311 194.938 98.6023 193.068 100.358C191.586 101.751 189.435 102.259 187.473 102.478C185.354 102.716 183.19 102.756 181.059 102.81C178.967 102.863 176.863 102.878 174.776 102.696C173.954 102.624 173.127 102.525 172.328 102.317C171.85 102.192 171.24 102.033 170.908 101.635C170.454 101.092 170.248 100.255 170.084 99.5836C169.863 98.6767 169.753 97.7444 169.721 96.812C169.669 95.2921 169.701 93.33 170.611 92.028C171.258 91.1036 172.724 91.2958 173.716 91.2893C175.414 91.2777 177.113 91.3503 178.809 91.42C180.253 91.4792 181.7 91.5637 183.146 91.5651C183.678 91.5656 184.564 91.6963 184.49 90.9433C184.363 89.6621 183.949 88.3699 183.652 87.1225C183.207 85.2565 182.754 83.3919 182.351 81.5166C182.187 80.7571 182.03 79.9952 181.906 79.2279C181.848 78.8735 181.309 79.0237 181.367 79.3766C181.942 82.9252 182.956 86.3939 183.724 89.9028C183.75 90.0193 183.867 91.0976 183.946 91.1322C184.002 91.1567 184.072 90.9751 184.053 90.9617C184.034 90.9488 183.96 90.9825 183.937 90.9811C183.725 90.9691 183.499 91.0042 183.286 91.0056C181.835 91.0153 180.381 90.9252 178.932 90.8656C177.195 90.794 175.455 90.7183 173.716 90.7298C172.724 90.7363 171.266 90.5852 170.479 91.3249C169.425 92.3149 169.245 94.1361 169.173 95.488C169.077 97.3022 169.248 99.2574 169.932 100.956C170.139 101.47 170.371 101.988 170.841 102.309C171.348 102.656 171.982 102.821 172.573 102.948C174.45 103.351 176.414 103.387 178.326 103.399C180.544 103.413 182.762 103.327 184.977 103.21C187.154 103.094 189.367 102.958 191.394 102.079C192.836 101.453 194.091 100.422 194.736 98.9627C195.199 97.9162 195.332 96.764 195.256 95.6298C195.069 92.8495 194.449 90.0728 193.88 87.3521C193.119 83.7037 192.261 80.0742 191.324 76.4669C190.615 73.7398 189.919 70.9696 188.921 68.3302C188.795 67.9971 188.663 67.6645 188.504 67.3457C188.342 67.0241 187.86 67.3073 188.02 67.6284Z" fill="#421B36"/>
<path d="M174.014 92.3587C173.583 91.6707 172.706 91.2942 171.911 91.4564C171.116 91.6185 170.456 92.3083 170.329 93.1099L169.946 97.1265C169.982 98.525 170.366 99.9128 171.055 101.131C171.262 101.497 171.573 101.892 171.994 101.875C172.423 101.859 172.702 101.43 172.888 101.042C173.88 98.974 174.362 96.6779 174.407 94.3845C174.421 93.6869 174.384 92.9505 174.014 92.3587Z" fill="#421B36"/>
<path d="M173.421 91.9705L169.544 90.8506C169.544 90.8506 168.424 86.6293 166.96 85.6818C166.96 85.6818 162.165 85.168 160.876 85.4203C159.588 85.673 159.487 87.5422 159.689 87.9968C159.689 87.9968 158.603 87.5422 158.022 88.3757C157.441 89.2091 158.552 90.9019 158.552 90.9019C158.552 90.9019 157.946 92.2911 158.552 93.15L159.259 93.6046C159.259 93.6046 159.815 95.4484 160.421 96.0042C161.027 96.56 165.322 97.52 166.559 97.4946C167.797 97.4692 169.313 97.1916 169.389 97.217C169.465 97.2424 173.203 98.7328 173.203 98.7328C173.203 98.7328 175.255 93.1407 173.421 91.9705Z" fill="#FFAE7A"/>
<path d="M155.757 95.3097L155.945 92.9142C155.947 92.881 155.957 92.8486 155.973 92.8195C156.494 91.8729 165.239 76.0203 166.032 76.0332C166.695 76.0438 167.516 76.9595 167.802 77.3042C167.865 77.3804 167.874 77.4876 167.823 77.5731C166.896 79.1466 158.456 93.464 157.796 94.182C157.789 94.1903 157.805 94.175 157.796 94.182L156.139 95.512C155.978 95.6414 155.74 95.5157 155.757 95.3097Z" fill="white"/>
<path d="M155.809 95.9505C155.825 95.896 155.845 95.842 155.867 95.7893C155.871 95.7782 155.876 95.7667 155.881 95.7556C155.866 95.7884 155.888 95.7403 155.891 95.7348C155.903 95.7108 155.915 95.6872 155.927 95.6636C155.98 95.5648 156.043 95.471 156.113 95.3837C156.16 95.3254 156.128 95.222 156.067 95.1882C155.993 95.1466 155.922 95.1725 155.871 95.2344C155.72 95.4225 155.607 95.6405 155.536 95.8711C155.514 95.9422 155.558 96.0295 155.632 96.0475C155.708 96.0656 155.785 96.0268 155.809 95.9505Z" fill="#421B36"/>
<path d="M155.976 93.0395C156.65 93.1874 157.264 93.5764 157.669 94.1386C157.715 94.2014 157.789 94.2342 157.862 94.195C157.924 94.1622 157.964 94.0642 157.919 94.0019C157.469 93.3786 156.809 92.9314 156.056 92.7665C155.877 92.7277 155.796 93.0002 155.976 93.0395Z" fill="#421B36"/>
<path d="M156.449 89.3393C156.449 89.3393 156.907 85.4997 158.651 85.283C160.691 85.0298 164.087 84.7295 165.061 85.8725C166.035 87.016 165.061 87.8549 165.061 87.8549C165.061 87.8549 167.92 91.2534 166.977 93.7995C166.035 96.346 161.396 95.7242 160.385 94.735C159.375 93.7464 158.565 92.8325 158.662 91.4465C158.759 90.0605 162.631 88.541 162.631 88.541C162.631 88.541 160.006 87.7048 159.446 87.9423C159.253 88.0236 158.841 89.3971 158.314 89.9654C157.857 90.4597 156.348 91.0986 156.449 89.3393Z" fill="#FFAE7A"/>
<path d="M159.764 88.2671C160.009 88.2274 160.431 88.262 160.732 88.2823C161.233 88.3161 161.733 88.3669 162.232 88.4195C163.051 88.5055 163.883 88.6482 164.708 88.657C164.708 88.4704 164.708 88.2842 164.708 88.0975C163.656 88.2375 162.607 88.4948 161.607 88.8483C160.318 89.3043 158.687 90.0144 158.481 91.5477C158.438 91.8684 158.449 92.2347 158.572 92.5397C158.632 92.6861 158.753 92.7702 158.916 92.7351C161.01 92.2833 163.104 91.8319 165.197 91.38C165.549 91.3043 165.4 90.7647 165.048 90.8409C162.954 91.2927 160.861 91.7441 158.767 92.1955C158.882 92.2606 158.997 92.3258 159.112 92.3909C158.992 92.0975 158.991 91.7446 159.067 91.4419C159.285 90.578 160.108 90.0998 160.861 89.7492C161.685 89.3657 162.566 89.1038 163.45 88.8996C163.753 88.8298 164.058 88.767 164.364 88.7134C164.462 88.6963 164.56 88.6801 164.659 88.6644C164.693 88.6589 164.864 88.6353 164.708 88.6566C165.053 88.6104 165.081 88.1012 164.708 88.0971C163.859 88.0883 163.001 87.94 162.158 87.8517C161.341 87.7667 160.437 87.5944 159.617 87.7275C159.261 87.7848 159.412 88.3239 159.764 88.2671Z" fill="#421B36"/>
<path d="M160.22 94.7228C161.928 94.8392 163.647 94.6401 165.284 94.1384C165.627 94.033 165.481 93.493 165.135 93.5992C163.542 94.0876 161.883 94.277 160.22 94.1633C159.861 94.1388 159.862 94.6983 160.22 94.7228Z" fill="#421B36"/>
<path d="M151.222 82.4681C151.557 82.762 169.582 100.372 168.685 101.42C167.788 102.468 151.54 100.372 149.618 99.1486C147.842 98.0186 133.669 84.6885 131.828 81.8051C131.677 81.5681 132.028 80.8585 132.101 80.8128C132.795 80.3808 150.527 81.8583 151.222 82.4681Z" fill="#421B36"/>
<path d="M152.384 98.7324C152.384 98.7324 154.709 101.108 152.648 103.75C150.587 106.393 146.761 103.984 144.51 102.429C142.503 101.042 140.683 94.622 141.819 92.1614C141.839 92.1175 152.384 98.7324 152.384 98.7324Z" fill="white"/>
<path d="M152.208 99.9451C151.971 99.8925 153.721 104.469 150.614 104.331C147.507 104.194 144.879 96.457 144.879 96.457L152.488 100.005" fill="#421B36"/>
<path d="M184.025 91.3918C186.418 91.2476 188.783 91.9665 190.696 93.4107C190.983 93.6279 191.262 93.1423 190.978 92.9279C188.996 91.4315 186.503 90.6831 184.025 90.8328C183.668 90.854 183.665 91.4135 184.025 91.3918Z" fill="#421B36"/>
<path d="M144.547 96.0529C144.547 96.0529 143.597 93.8921 143.541 92.5962C143.485 91.3003 141.975 89.6791 142.591 88.896C143.205 88.1134 144.547 88.6789 144.939 89.1755C145.776 90.2367 146.225 93.3141 146.225 93.3141C146.225 93.3141 146.225 93.7798 146.896 92.5957C147.567 91.4116 148.804 87.8334 150.002 87.8893C151.201 87.9452 151.089 89.249 150.586 90.4701C150.083 91.6911 148.629 94.1624 149.524 94.6881C150.418 95.2139 153.946 89.5017 155.115 90.8526C156.284 92.2035 152.208 96.0524 152.208 96.0524C152.208 96.0524 156.186 92.6442 157.272 93.3137C158.358 93.9836 157.827 95.1552 157.827 95.1552C157.827 95.1552 159.14 95.996 158.693 96.611C158.246 97.2259 150.754 102.09 149.188 101.867C147.622 101.644 144.408 97.4393 144.547 96.0529Z" fill="#FFAE7A"/>
<path d="M145.847 94.9378C146.485 93.9233 146.787 92.7262 147.425 91.7121C147.617 91.4068 147.133 91.1254 146.942 91.4299C146.304 92.4444 146.003 93.6415 145.365 94.6555C145.172 94.9614 145.656 95.2423 145.847 94.9378Z" fill="#421B36"/>
<path d="M152.511 98.4213C154.369 97.634 156.133 96.6435 157.773 95.4668C158.062 95.2589 157.784 94.7733 157.49 94.984C155.851 96.1607 154.087 97.1512 152.229 97.9385C151.899 98.0785 152.183 98.5603 152.511 98.4213Z" fill="#421B36"/>
<path d="M151.036 97.07C152.526 95.9058 154.049 94.7845 155.601 93.7048C155.895 93.5006 155.616 93.0155 155.319 93.222C153.728 94.3285 152.168 95.4807 150.64 96.6745C150.357 96.8958 150.755 97.2895 151.036 97.07Z" fill="#421B36"/>
<path d="M172.79 100.978C173.535 99.5065 174.022 98.0419 174.168 96.3963C174.253 95.4367 174.343 94.4554 174.219 93.4959C174.123 92.7571 173.882 91.8082 173.161 91.4344C172.842 91.269 172.559 91.7514 172.879 91.9172C173.628 92.3058 173.7 93.5388 173.716 94.2679C173.733 95.0556 173.665 95.853 173.586 96.6365C173.44 98.0891 172.963 99.3979 172.306 100.696C172.144 101.016 172.626 101.3 172.79 100.978Z" fill="#421B36"/>
<path d="M182.018 75.7861C182.397 71.9436 184.08 68.3007 186.748 65.5112C186.997 65.2511 186.602 64.8547 186.352 65.1157C183.576 68.0185 181.853 71.7907 181.459 75.7861C181.424 76.1441 181.983 76.1413 182.018 75.7861Z" fill="#421B36"/>
<path d="M162.762 50.5301C163.198 50.8055 163.84 50.538 164.258 50.3384C164.783 50.088 165.284 49.7008 165.573 49.1899C165.774 48.8369 165.317 48.5052 165.025 48.7667C164.653 49.0989 164.316 49.4375 163.873 49.6791C163.517 49.8732 163.004 49.9489 162.727 50.2534C162.649 50.3393 162.663 50.4678 162.762 50.5301Z" fill="#421B36"/>
<path d="M143.293 91.1014C143.672 90.7438 143.821 90.1441 143.626 89.6558C143.423 89.1472 142.923 88.7997 142.373 88.7983C142.226 88.7979 142.086 88.9272 142.093 89.0779C142.1 89.2299 142.216 89.3569 142.373 89.3574C142.399 89.3574 142.425 89.3588 142.452 89.3597C142.505 89.3615 142.437 89.3551 142.469 89.3606C142.516 89.3689 142.563 89.3795 142.609 89.3939C142.634 89.4017 142.659 89.4105 142.683 89.4202C142.647 89.4054 142.684 89.4216 142.701 89.4294C142.744 89.4512 142.786 89.4752 142.826 89.502C142.831 89.5052 142.886 89.5459 142.862 89.5269C142.838 89.508 142.89 89.5514 142.894 89.5556C142.93 89.5879 142.963 89.623 142.995 89.6595C143.014 89.6817 142.98 89.635 143.007 89.6757C143.022 89.6974 143.037 89.7191 143.05 89.7417C143.061 89.7607 143.072 89.7796 143.082 89.7995C143.088 89.811 143.094 89.8231 143.1 89.8351C143.091 89.8124 143.09 89.8106 143.097 89.8291C143.114 89.8743 143.128 89.9205 143.138 89.9677C143.139 89.9741 143.152 90.043 143.146 90.0079C143.141 89.9728 143.149 90.0425 143.15 90.049C143.153 90.097 143.152 90.1455 143.149 90.1936C143.147 90.2144 143.142 90.2518 143.148 90.2107C143.144 90.2366 143.139 90.2624 143.133 90.2883C143.124 90.3313 143.109 90.3724 143.096 90.4149C143.078 90.4754 143.11 90.3936 143.084 90.4454C143.073 90.4689 143.061 90.4925 143.048 90.5156C143.027 90.5535 143.004 90.5909 142.977 90.6256C143.009 90.584 142.955 90.6477 142.953 90.65C142.935 90.6694 142.916 90.6875 142.897 90.7059C142.787 90.8099 142.792 90.997 142.897 91.1014C143.007 91.2109 143.183 91.2054 143.293 91.1014Z" fill="#421B36"/>
<path d="M162.344 80.7248C162.344 80.7248 165.13 82.9063 165.572 82.3889C166.015 81.8719 168 77.8715 168.257 77.2006C168.726 75.9754 166.872 74.6532 165.314 76.2475C163.757 77.8419 162.344 80.7248 162.344 80.7248Z" fill="#421B36"/>
<path d="M160.746 82.5727C162.004 80.5566 163.315 78.5741 164.678 76.6277C164.573 76.6707 164.468 76.7137 164.362 76.7562C164.553 76.819 164.743 76.8823 164.934 76.9451C165.277 77.0583 165.423 76.5182 165.083 76.406C164.892 76.3431 164.701 76.2798 164.511 76.217C164.386 76.1759 164.264 76.2466 164.195 76.3454C162.832 78.2918 161.52 80.2738 160.262 82.2905C160.072 82.5968 160.555 82.8781 160.746 82.5727Z" fill="#421B36"/>
<path d="M137.558 82.3695C137.558 82.3695 135.426 80.2697 135.62 79.8175C135.814 79.3652 136.621 78.9775 136.718 78.9775C136.816 78.9775 142.598 79.2358 143.212 79.5269C143.826 79.8175 145.312 82.2083 144.666 82.37C144.02 82.5312 137.558 82.3695 137.558 82.3695Z" fill="#421B36"/>
<path d="M167.272 101.109C163.849 97.7728 160.611 94.25 157.418 90.6954C155.827 88.9241 154.249 87.1412 152.673 85.3561C152.304 84.9384 151.936 84.5203 151.567 84.1027C151.335 83.8393 151.11 83.4397 150.767 83.3408C150.665 83.3112 150.536 83.3191 150.431 83.3094C145.966 82.8904 141.502 82.4713 137.038 82.0518C135.458 81.9035 133.878 81.7552 132.298 81.6069C131.94 81.5732 131.942 82.1327 132.298 82.1664C136.13 82.5263 139.962 82.8857 143.794 83.2456C145.856 83.4392 147.919 83.6328 149.981 83.8264C150.184 83.8453 150.427 83.8319 150.623 83.8864C150.659 83.8961 150.718 83.8804 150.751 83.8984C150.853 83.9539 150.37 83.6462 150.69 83.953C150.906 84.1604 151.094 84.4103 151.293 84.6353C152.822 86.3678 154.35 88.1013 155.889 89.825C159.447 93.812 163.048 97.7728 166.876 101.504C167.134 101.756 167.53 101.361 167.272 101.109Z" fill="url(#paint10_linear_7199_47155)"/>
<path d="M176.563 114.828C176.563 114.828 176.502 128.318 180.068 129.354C183.634 130.39 192.255 129.296 192.687 127.249C193.12 125.202 191.081 111.715 189.433 111.715C187.784 111.715 176.563 114.828 176.563 114.828Z" fill="white"/>
<path d="M176.283 114.828C176.269 118.393 176.491 122.119 177.399 125.575C177.801 127.107 178.443 129.221 180.178 129.674C182.773 130.353 185.747 130.084 188.352 129.607C189.521 129.393 190.74 129.112 191.794 128.541C192.425 128.201 192.928 127.753 193.002 127.012C193.079 126.239 193.003 125.441 192.938 124.67C192.841 123.509 192.696 122.353 192.529 121.199C192.176 118.774 191.754 116.32 191.029 113.975C190.81 113.27 190.577 112.484 190.128 111.885C189.78 111.422 189.416 111.413 188.878 111.489C186.759 111.79 184.663 112.395 182.594 112.927C180.664 113.424 178.738 113.939 176.816 114.468C176.707 114.498 176.597 114.528 176.488 114.558C176.142 114.654 176.289 115.194 176.637 115.097C180.156 114.122 183.688 113.154 187.254 112.37C187.917 112.224 188.644 112.001 189.328 111.998C189.491 111.998 189.513 112.01 189.653 112.178C189.839 112.402 189.964 112.695 190.077 112.961C190.896 114.882 191.262 117.044 191.625 119.087C192.014 121.274 192.348 123.495 192.449 125.716C192.472 126.212 192.593 126.96 192.32 127.41C191.872 128.148 190.667 128.456 189.904 128.675C187.346 129.41 184.515 129.644 181.868 129.391C181.029 129.311 180.032 129.247 179.408 128.613C178.82 128.014 178.485 127.173 178.223 126.39C177.514 124.271 177.247 121.998 177.06 119.781C176.929 118.215 176.853 116.643 176.843 115.072C176.842 114.991 176.842 114.909 176.842 114.827C176.844 114.468 176.284 114.468 176.283 114.828Z" fill="#421B36"/>
<defs>
<linearGradient id="paint0_linear_7199_47155" x1="114.791" y1="8.22168" x2="114.791" y2="196.88" gradientUnits="userSpaceOnUse">
<stop stop-color="#FFB198"/>
<stop offset="1" stop-color="#E75634"/>
</linearGradient>
<linearGradient id="paint1_linear_7199_47155" x1="192.563" y1="210.318" x2="192.563" y2="216.402" gradientUnits="userSpaceOnUse">
<stop stop-color="#107649"/>
<stop offset="1" stop-color="#00B867"/>
</linearGradient>
<linearGradient id="paint2_linear_7199_47155" x1="173.105" y1="96.1831" x2="173.105" y2="198.286" gradientUnits="userSpaceOnUse">
<stop stop-color="#107649"/>
<stop offset="1" stop-color="#00B867"/>
</linearGradient>
<linearGradient id="paint3_linear_7199_47155" x1="169.494" y1="60.8589" x2="169.494" y2="106.796" gradientUnits="userSpaceOnUse">
<stop stop-color="#107649"/>
<stop offset="1" stop-color="#00B867"/>
</linearGradient>
<linearGradient id="paint4_linear_7199_47155" x1="177.239" y1="61.0669" x2="177.239" y2="79.7581" gradientUnits="userSpaceOnUse">
<stop stop-color="#107649"/>
<stop offset="1" stop-color="#00B867"/>
</linearGradient>
<linearGradient id="paint5_linear_7199_47155" x1="175.718" y1="79.3022" x2="175.718" y2="88.5215" gradientUnits="userSpaceOnUse">
<stop stop-color="#107649"/>
<stop offset="1" stop-color="#00B867"/>
</linearGradient>
<linearGradient id="paint6_linear_7199_47155" x1="150.655" y1="205.308" x2="150.655" y2="216.358" gradientUnits="userSpaceOnUse">
<stop stop-color="#107649"/>
<stop offset="1" stop-color="#00B867"/>
</linearGradient>
<linearGradient id="paint7_linear_7199_47155" x1="161.436" y1="204.729" x2="161.436" y2="212.439" gradientUnits="userSpaceOnUse">
<stop stop-color="#107649"/>
<stop offset="1" stop-color="#00B867"/>
</linearGradient>
<linearGradient id="paint8_linear_7199_47155" x1="153.153" y1="210.06" x2="153.153" y2="216.813" gradientUnits="userSpaceOnUse">
<stop stop-color="#107649"/>
<stop offset="1" stop-color="#00B867"/>
</linearGradient>
<linearGradient id="paint9_linear_7199_47155" x1="193.3" y1="205.017" x2="193.3" y2="216.173" gradientUnits="userSpaceOnUse">
<stop stop-color="#107649"/>
<stop offset="1" stop-color="#00B867"/>
</linearGradient>
<linearGradient id="paint10_linear_7199_47155" x1="149.693" y1="81.6055" x2="149.693" y2="101.585" gradientUnits="userSpaceOnUse">
<stop stop-color="#107649"/>
<stop offset="1" stop-color="#00B867"/>
</linearGradient>
</defs>
</svg>
