<svg width="52" height="52" viewBox="0 0 52 52" fill="none" xmlns="http://www.w3.org/2000/svg">
<path d="M52 26C52 28.22 49.28 30 48.72 32.1C48.16 34.2 49.6 37.16 48.52 39C47.44 40.84 44.16 41.1 42.64 42.64C41.12 44.18 40.88 47.44 39 48.52C37.12 49.6 34.2 48.16 32.1 48.72C30 49.28 28.22 52 26 52C23.78 52 22 49.28 20 48.72C18 48.16 14.94 49.6 13.1 48.52C11.26 47.44 11 44.16 9.46 42.64C7.92 41.12 4.66 40.88 3.58 39C2.5 37.12 3.94 34.2 3.38 32.1C2.82 30 0 28.22 0 26C0 23.78 2.72 22 3.28 20C3.84 18 2.4 14.94 3.48 13.1C4.56 11.26 7.84 10.9 9.36 9.36C10.88 7.82 11.12 4.56 13 3.48C14.88 2.4 17.8 3.84 19.9 3.28C22 2.72 23.78 0 26 0C28.22 0 30 2.72 32.1 3.28C34.2 3.84 37.16 2.4 39 3.48C40.84 4.56 41.1 7.84 42.64 9.36C44.18 10.88 47.44 11.12 48.52 13C49.6 14.88 48.16 17.8 48.72 19.9C49.28 22 52 23.78 52 26Z" fill="#109138"/>
<path d="M26 43C35.3888 43 43 35.3888 43 26C43 16.6112 35.3888 9 26 9C16.6112 9 9 16.6112 9 26C9 35.3888 16.6112 43 26 43Z" fill="#20BF55"/>
<path d="M24.2602 30.7401C24.0632 30.741 23.8679 30.7025 23.6859 30.627C23.5038 30.5514 23.3387 30.4403 23.2002 30.3L18.5402 25.7201C18.2593 25.4388 18.1016 25.0576 18.1016 24.6601C18.1016 24.2625 18.2593 23.8813 18.5402 23.6001C18.8215 23.3192 19.2027 23.1614 19.6002 23.1614C19.9977 23.1614 20.379 23.3192 20.6602 23.6001L24.2602 27.1601L31.3402 20.1801C31.624 19.8989 32.0079 19.742 32.4073 19.7439C32.8068 19.7458 33.1891 19.9063 33.4702 20.1901C33.7514 20.4738 33.9083 20.8577 33.9064 21.2571C33.9045 21.6566 33.744 22.0389 33.4602 22.3201L25.3002 30.3201C25.1652 30.458 25.0031 30.5665 24.8241 30.6387C24.6452 30.711 24.4532 30.7455 24.2602 30.7401Z" fill="#EDEBEA"/>
</svg>
