<svg width="132" height="131" viewBox="0 0 132 131" fill="none" xmlns="http://www.w3.org/2000/svg">
<g clip-path="url(#clip0_1588_9353)">
<path d="M101.479 65.5C81.8946 65.4759 66.0242 49.6055 66.0001 30.0207C66.0001 29.0984 66.071 28.1978 66.1365 27.2915H25.0626C23.5554 27.2928 22.3347 28.5158 22.3359 30.0233C22.3362 30.1909 22.3518 30.3582 22.3825 30.523L30.57 74.1898C30.8115 75.4801 31.9373 76.4155 33.2501 76.4168H108.215C115.098 76.4175 120.903 71.2927 121.757 64.463L122.499 58.5353C116.423 63.0548 109.052 65.4969 101.479 65.5Z" fill="#E75634"/>
<path d="M101.48 131C109.016 131 115.125 124.891 115.125 117.354C115.125 109.818 109.016 103.709 101.48 103.709C93.9434 103.709 87.834 109.818 87.834 117.354C87.834 124.891 93.9434 131 101.48 131Z" fill="#455A64"/>
<path d="M46.8957 131C54.4321 131 60.5415 124.891 60.5415 117.354C60.5415 109.818 54.4321 103.709 46.8957 103.709C39.3594 103.709 33.25 109.818 33.25 117.354C33.25 124.891 39.3594 131 46.8957 131Z" fill="#455A64"/>
<path d="M112.396 98.25H49.4011C40.3025 98.2311 32.4727 91.8136 30.6681 82.8956L17.3662 16.375H3.22925C1.72198 16.375 0.5 15.153 0.5 13.6457C0.5 12.1385 1.72198 10.9165 3.22925 10.9165H19.6043C20.9015 10.9162 22.0193 11.8289 22.2788 13.0997L36.0228 81.8203C37.311 88.1901 42.9023 92.7754 49.4011 92.7915H112.396C113.903 92.7915 115.125 94.0135 115.125 95.5208C115.125 97.028 113.903 98.25 112.396 98.25Z" fill="#455A64"/>
<path d="M101.48 60.0415C118.06 60.0415 131.5 46.6007 131.5 30.0207C131.5 13.4407 118.06 0 101.48 0C84.8997 0 71.459 13.4407 71.459 30.0207C71.459 46.6007 84.8997 60.0415 101.48 60.0415Z" fill="#37582A"/>
<path d="M112.396 32.75H90.5632C89.056 32.75 87.834 31.528 87.834 30.0207C87.834 28.5135 89.056 27.2915 90.5632 27.2915H112.396C113.904 27.2915 115.126 28.5135 115.126 30.0207C115.126 31.528 113.904 32.75 112.396 32.75Z" fill="#FAFAFA"/>
<path d="M101.479 43.6668C99.972 43.6668 98.75 42.4448 98.75 40.9375V19.1043C98.75 17.597 99.972 16.375 101.479 16.375C102.987 16.375 104.209 17.597 104.209 19.1043V40.9375C104.208 42.4448 102.987 43.6668 101.479 43.6668Z" fill="#FAFAFA"/>
</g>
<defs>
<clipPath id="clip0_1588_9353">
<rect width="131" height="131" fill="white" transform="translate(0.5)"/>
</clipPath>
</defs>
</svg>
