<svg width="191" height="181" viewBox="0 0 191 181" fill="none" xmlns="http://www.w3.org/2000/svg">
<path fill-rule="evenodd" clip-rule="evenodd" d="M66.1935 72.1338L62.873 115.755L73.3314 156.976C74.2514 156.976 75.1608 156.553 76.8209 155.697L140.247 122.989C143.589 121.265 143.875 120.493 143.875 116.58V40.5889C143.875 40.1446 143.822 39.8171 143.653 39.5526L97.8857 51.2062L66.1935 72.1338Z" fill="#F5A96C"/>
<path fill-rule="evenodd" clip-rule="evenodd" d="M124.331 49.5141C126.266 59.1585 127.345 69.7966 127.345 80.9955C127.345 101.743 123.654 120.609 117.627 134.652L140.246 122.988C143.587 121.264 143.873 120.493 143.873 116.58V40.5889C143.873 40.1446 143.82 39.8171 143.651 39.5526L125.188 49.0806L124.331 49.5141Z" fill="#EA9A58"/>
<path fill-rule="evenodd" clip-rule="evenodd" d="M5.99053 122.766L69.8506 155.697C71.5002 156.553 72.4201 156.976 73.3296 156.976V75.8244L55.1943 50.3919L3.51611 39.8171C2.79688 40.9273 2.79688 42.2916 2.79688 44.5862V118.43C2.79688 121.297 3.52656 121.497 5.99053 122.766Z" fill="#FED1A3"/>
<path fill-rule="evenodd" clip-rule="evenodd" d="M6.53142 37.5117C4.95567 38.326 4.04656 39.0028 3.51758 39.8171L28.9493 52.9301L47.1693 62.3312L73.3307 75.8247L143.652 39.553C143.514 39.331 143.303 39.1512 142.975 38.9819L74.8221 3.83078C73.3523 3.06939 73.0878 3.19623 71.5968 3.95762L6.53142 37.5117Z" fill="#FFE5C1"/>
<path fill-rule="evenodd" clip-rule="evenodd" d="M99.4924 16.5521L28.9492 52.9298L47.1692 62.3309L117.712 25.9533L99.4924 16.5521Z" fill="#EFF6FF"/>
<path fill-rule="evenodd" clip-rule="evenodd" d="M71.596 3.95768L48.2578 16.0026C57.3519 14.5537 67.1019 14.6701 76.9362 16.6055C81.9697 17.5996 86.76 19.0165 91.2649 20.7933L99.4921 16.5529L74.8217 3.83122C73.3512 3.06946 73.0867 3.19629 71.596 3.95768Z" fill="#FED1A3"/>
<path fill-rule="evenodd" clip-rule="evenodd" d="M99.4928 16.5521L91.2656 20.7925C97.7477 23.3621 103.627 26.6721 108.767 30.5638L117.713 25.9533L99.4928 16.5521Z" fill="#D9EEFF"/>
<path fill-rule="evenodd" clip-rule="evenodd" d="M108.766 30.5641C115.724 35.8304 121.318 42.1435 125.188 49.0807L143.651 39.5527C143.513 39.3307 143.302 39.1509 142.974 38.9815L117.712 25.9532L108.766 30.5641Z" fill="#FED1A3"/>
<path fill-rule="evenodd" clip-rule="evenodd" d="M28.9492 52.9297V80.3397L47.1692 89.7408V62.3308L28.9492 52.9297Z" fill="#D9EEFF"/>
<path fill-rule="evenodd" clip-rule="evenodd" d="M188.202 131.977C188.202 110.436 173.292 92.3739 153.232 87.5414C149.784 86.7166 146.189 86.2723 142.498 86.2723C140.468 86.2723 138.48 86.41 136.524 86.6637C114.105 89.5928 96.7949 108.765 96.7949 131.977C96.7949 142.911 100.634 152.947 107.042 160.815C115.417 171.104 128.191 177.681 142.498 177.681C167.74 177.681 188.202 157.219 188.202 131.977Z" fill="#EB5468"/>
<path fill-rule="evenodd" clip-rule="evenodd" d="M142.499 118.547L136.186 112.234L135.446 111.494C131.755 107.803 125.707 107.803 122.016 111.494C118.315 115.184 118.315 121.233 122.016 124.924L129.069 131.977L122.016 139.031C118.315 142.721 118.315 148.77 122.016 152.461C122.154 152.609 122.301 152.736 122.449 152.873C126.161 156.152 131.892 156.014 135.446 152.461L142.499 145.407L149.552 152.461C153.243 156.162 159.291 156.162 162.982 152.461C166.672 148.77 166.672 142.721 162.982 139.031L155.929 131.977L162.982 124.924C166.672 121.233 166.672 115.184 162.982 111.494C160.359 108.871 156.542 108.11 153.232 109.22C151.879 109.664 150.62 110.426 149.552 111.494L142.499 118.547Z" fill="#EFF6FF"/>
<path fill-rule="evenodd" clip-rule="evenodd" d="M188.202 131.977C188.202 110.436 173.292 92.3739 153.232 87.5414C149.785 86.7166 146.189 86.2723 142.499 86.2723C141.103 86.2723 139.718 86.3358 138.354 86.4626C140.595 86.6637 142.795 87.0229 144.931 87.5411C147.818 88.239 150.588 89.2015 153.232 90.4068C168.967 97.6294 179.901 113.523 179.901 131.977C179.901 155.823 161.65 175.397 138.354 177.491C139.718 177.618 141.103 177.681 142.499 177.681C167.74 177.682 188.202 157.219 188.202 131.977Z" fill="#E5384F"/>
<path fill-rule="evenodd" clip-rule="evenodd" d="M162.981 124.924C166.672 121.233 166.672 115.184 162.981 111.494C160.358 108.871 156.541 108.11 153.231 109.22C152.777 109.368 152.343 109.548 151.92 109.77C152.375 110.003 152.808 110.267 153.231 110.573C153.601 110.848 153.951 111.155 154.289 111.493C157.98 115.184 157.98 121.233 154.289 124.923L153.231 125.991L148.261 130.951C147.003 132.22 147.066 131.808 148.367 133.108L152.29 137.032L154.289 139.03C157.979 142.721 157.979 148.77 154.289 152.46C153.58 153.18 152.776 153.75 151.92 154.195C155.494 156.024 159.999 155.443 162.981 152.46C166.671 148.77 166.671 142.721 162.981 139.03L155.927 131.977L162.981 124.924Z" fill="#D9EEFF"/>
<path d="M37.9019 122.852C38.3123 123.064 38.7502 123.164 39.1822 123.164C40.1958 123.164 41.1743 122.612 41.6712 121.649C42.3796 120.275 41.8406 118.588 40.467 117.879L19.3917 107.008C18.0189 106.3 16.3309 106.839 15.6225 108.212C14.914 109.586 15.4531 111.273 16.8267 111.982L37.9019 122.852Z" fill="black"/>
<path d="M146.671 83.6557V40.589C146.671 38.7092 145.863 37.3338 144.257 36.4948L76.1083 1.34631C73.6245 0.0596738 72.3827 0.414442 70.3137 1.47091L5.24541 35.0265C0.233527 37.618 0 40.0865 0 44.5862V73.4876C0 75.0331 1.25269 76.2855 2.79785 76.2855C4.34301 76.2855 5.5957 75.0331 5.5957 73.4876V44.5862C5.5957 44.3993 5.5957 44.2161 5.59645 44.037L26.1513 54.6349V80.3397C26.1513 81.3869 26.7359 82.346 27.6663 82.8261L45.8863 92.2269C46.2895 92.435 46.7297 92.5384 47.1688 92.5384C47.6743 92.5384 48.179 92.4015 48.6248 92.1295C49.4582 91.6222 49.967 90.7164 49.967 89.7405V66.922L70.5327 77.5292V152.9L7.27255 120.279L6.8622 120.069C6.42349 119.845 5.89228 119.573 5.65502 119.412C5.63002 119.275 5.5957 118.986 5.5957 118.43V86.41C5.5957 84.8644 4.34301 83.6121 2.79785 83.6121C1.25269 83.6121 0 84.8644 0 86.41V118.43C0 122.549 1.63059 123.68 4.31615 125.052L68.5686 158.183C70.6215 159.242 71.982 159.771 73.341 159.771C74.7 159.771 76.0568 159.242 78.1026 158.183L96.915 148.479C100.164 157.424 106.008 165.369 113.847 171.118C115.093 172.032 116.844 171.763 117.758 170.517C118.671 169.271 118.402 167.52 117.156 166.606C106.159 158.54 99.5934 145.595 99.5934 131.977C99.5934 108.318 118.841 89.0702 142.499 89.0702C166.157 89.0702 185.404 108.318 185.404 131.977C185.404 155.636 166.157 174.884 142.499 174.884C137.179 174.884 131.985 173.922 127.061 172.025C125.62 171.471 124 172.188 123.444 173.631C122.889 175.073 123.608 176.692 125.05 177.247C130.619 179.392 136.489 180.48 142.499 180.48C169.242 180.48 191 158.722 191 131.977C191 106.638 171.468 85.7791 146.671 83.6557ZM73.3302 72.6766L53.273 62.3313L117.713 29.101L137.762 39.4419L73.3302 72.6766ZM111.609 25.9529L47.1692 59.1828L35.0522 52.9305L99.4897 19.7017L111.609 25.9529ZM72.8687 6.44922C73.0135 6.37536 73.1862 6.28695 73.335 6.21383C73.3925 6.24218 73.46 6.27613 73.5391 6.31716L93.3852 16.5532L28.9488 49.782L8.89344 39.4411L72.8687 6.44922ZM31.7467 78.6353V57.5216L44.3709 64.0354V85.1483L31.7467 78.6353ZM93.9977 131.977C93.9977 135.727 94.4413 139.431 95.2874 143.022L76.1281 152.906V77.5292L141.076 44.0296V83.4968C114.988 84.2526 93.9977 105.709 93.9977 131.977Z" fill="black"/>
<path d="M116.441 145.746C116.441 149.04 117.719 152.128 120.034 154.436C122.347 156.756 125.436 158.035 128.73 158.035C132.025 158.035 135.113 156.756 137.424 154.439L142.499 149.364L147.571 154.437C149.884 156.757 152.973 158.035 156.267 158.035C159.562 158.035 162.65 156.757 164.961 154.439C169.754 149.646 169.754 141.846 164.961 137.053L159.886 131.978L164.961 126.903C169.754 122.109 169.754 114.309 164.961 109.516C162.647 107.203 159.56 105.928 156.267 105.928C152.975 105.928 149.887 107.203 147.574 109.516L142.499 114.591L137.424 109.516C135.111 107.203 132.023 105.928 128.73 105.928C125.438 105.928 122.35 107.203 120.037 109.516C117.718 111.829 116.441 114.917 116.441 118.21C116.441 121.504 117.719 124.592 120.037 126.903L125.112 131.978L120.039 137.05C117.719 139.363 116.441 142.452 116.441 145.746ZM123.994 141.009L131.047 133.955C132.14 132.862 132.14 131.091 131.047 129.999L123.991 122.942C122.731 121.686 122.037 120.005 122.037 118.209C122.037 116.413 122.731 114.731 123.991 113.475C123.992 113.474 123.993 113.473 123.994 113.472C125.25 112.216 126.932 111.523 128.73 111.523C130.528 111.523 132.21 112.215 133.466 113.472L140.519 120.525C141.044 121.05 141.756 121.345 142.498 121.345C143.24 121.345 143.951 121.05 144.477 120.525L151.53 113.472C152.786 112.216 154.468 111.523 156.266 111.523C158.064 111.523 159.746 112.215 161.002 113.472C163.614 116.084 163.614 120.334 161.002 122.946L153.949 129.999C152.856 131.092 152.856 132.863 153.949 133.956L161.002 141.009C163.614 143.621 163.614 147.87 160.999 150.485C159.744 151.745 158.062 152.438 156.266 152.438C154.47 152.438 152.788 151.745 151.53 150.482L144.477 143.429C143.93 142.882 143.214 142.609 142.498 142.609C141.782 142.609 141.066 142.882 140.519 143.429L133.463 150.485C132.207 151.745 130.526 152.438 128.73 152.438C126.934 152.438 125.252 151.745 123.991 150.479C122.731 149.223 122.037 147.542 122.037 145.746C122.037 143.949 122.731 142.268 123.994 141.009Z" fill="black"/>
</svg>
