<svg width="24" height="24" viewBox="0 0 24 24" fill="none" xmlns="http://www.w3.org/2000/svg">
<circle cx="12" cy="12" r="12" fill="white"/>
<g clip-path="url(#clip0_7527_108289)">
<path d="M9.8328 13.2598C9.79435 13.2593 9.75761 13.2438 9.73041 13.2166C9.70322 13.1894 9.68773 13.1527 9.68724 13.1142V12.2935C9.68724 12.2549 9.70258 12.2179 9.7299 12.1906C9.75721 12.1633 9.79425 12.1479 9.83287 12.1479C9.8715 12.1479 9.90854 12.1633 9.93585 12.1906C9.96317 12.2179 9.97851 12.2549 9.97851 12.2935V13.1141C9.97806 13.1526 9.96256 13.1894 9.93534 13.2166C9.90811 13.2439 9.87131 13.2594 9.8328 13.2598ZM13.3952 14.89C13.3567 14.8905 13.32 14.906 13.2928 14.9332C13.2656 14.9604 13.2501 14.9971 13.2496 15.0356V15.856C13.2496 15.8947 13.265 15.9317 13.2923 15.959C13.3196 15.9863 13.3566 16.0017 13.3953 16.0017C13.4339 16.0017 13.4709 15.9863 13.4982 15.959C13.5255 15.9317 13.5409 15.8947 13.5409 15.856V15.0355C13.5404 14.997 13.5249 14.9602 13.4977 14.933C13.4705 14.9058 13.4337 14.8903 13.3952 14.8899V14.89ZM18.718 14.3242C18.5986 16.0669 17.8228 17.6996 16.5469 18.8928C15.2711 20.086 13.5903 20.751 11.8434 20.7536C11.6838 20.7536 11.5235 20.7481 11.3627 20.7372C10.213 20.6579 9.1015 20.2922 8.12943 19.6732C7.15736 19.0543 6.35569 18.2019 5.79751 17.1937C5.23932 16.1855 4.94239 15.0536 4.93379 13.9012C4.92518 12.7489 5.20517 11.6127 5.74823 10.5963C5.74924 10.5943 5.75028 10.5924 5.75136 10.5905C6.08189 9.99196 6.32724 8.77044 6.13612 8.15119C6.10673 8.05592 6.10432 7.95436 6.12916 7.8578C6.15401 7.76124 6.20513 7.67345 6.27685 7.60419C6.34858 7.53493 6.43809 7.4869 6.53546 7.46545C6.63283 7.44399 6.73425 7.44994 6.82844 7.48264C7.2913 7.64885 7.70372 7.93115 8.02616 8.30251C8.32551 7.71357 8.65687 7.24294 8.96188 6.80974C9.6935 5.77053 10.1351 5.14345 9.6657 3.61595C9.63651 3.52104 9.63408 3.41993 9.65867 3.32373C9.68327 3.22753 9.73394 3.13999 9.80511 3.07075C9.87627 3.00152 9.96517 2.95326 10.062 2.93131C10.1588 2.90936 10.2599 2.91457 10.3539 2.94636C12.7903 3.7692 14.349 5.46909 15.1106 8.13817C15.1693 7.75794 15.1847 7.37227 15.1564 6.98857C15.1492 6.87219 15.18 6.75664 15.2441 6.65921C15.3081 6.56179 15.402 6.48775 15.5117 6.44818C15.6214 6.4086 15.7409 6.40564 15.8524 6.43972C15.9639 6.4738 16.0614 6.54309 16.1302 6.63721C16.9948 7.82005 17.6586 9.04722 18.1031 10.2846C18.6 11.668 18.8068 13.0271 18.718 14.3242ZM9.83287 14.3386C10.1575 14.3382 10.4687 14.2091 10.6982 13.9796C10.9277 13.75 11.0569 13.4388 11.0572 13.1142V12.2935C11.0572 11.9688 10.9282 11.6574 10.6986 11.4278C10.469 11.1981 10.1576 11.0691 9.83284 11.0691C9.50811 11.0691 9.19668 11.1981 8.96706 11.4278C8.73744 11.6574 8.60844 11.9688 8.60844 12.2935V13.1141C8.60876 13.4387 8.73786 13.75 8.9674 13.9795C9.19694 14.2091 9.50817 14.3382 9.8328 14.3386H9.83287ZM13.8264 11.9661C13.8683 11.9089 13.8985 11.8441 13.9152 11.7753C13.932 11.7065 13.9351 11.635 13.9243 11.565C13.9134 11.495 13.8889 11.4278 13.8521 11.3673C13.8153 11.3067 13.767 11.254 13.7098 11.2122C13.6527 11.1703 13.5878 11.1402 13.519 11.1234C13.4502 11.1066 13.3787 11.1035 13.3087 11.1144C13.2387 11.1252 13.1715 11.1497 13.111 11.1865C13.0504 11.2233 12.9978 11.2716 12.9559 11.3288L9.40166 16.1836C9.35981 16.2407 9.32964 16.3056 9.31286 16.3744C9.29607 16.4432 9.29301 16.5147 9.30384 16.5847C9.31467 16.6547 9.33918 16.7218 9.37597 16.7824C9.41276 16.8429 9.46112 16.8956 9.51827 16.9374C9.57543 16.9793 9.64026 17.0094 9.70908 17.0262C9.77789 17.043 9.84934 17.0461 9.91934 17.0352C9.98934 17.0244 10.0565 16.9999 10.1171 16.9631C10.1776 16.9263 10.2303 16.878 10.2721 16.8208L13.8264 11.9661ZM14.6197 15.0356C14.6197 14.7109 14.4907 14.3994 14.261 14.1698C14.0314 13.9402 13.72 13.8112 13.3953 13.8112C13.0705 13.8112 12.7591 13.9402 12.5295 14.1698C12.2999 14.3994 12.1709 14.7109 12.1709 15.0356V15.856C12.1709 16.1808 12.2999 16.4922 12.5295 16.7218C12.7591 16.9514 13.0705 17.0804 13.3953 17.0804C13.72 17.0804 14.0314 16.9514 14.261 16.7218C14.4907 16.4922 14.6197 16.1808 14.6197 15.856V15.0356Z" fill="url(#paint0_linear_7527_108289)"/>
</g>
<defs>
<linearGradient id="paint0_linear_7527_108289" x1="5.86891" y1="7.00705" x2="17.1539" y2="18.292" gradientUnits="userSpaceOnUse">
<stop stop-color="#FF9B8C"/>
<stop offset="1" stop-color="#FD4D86"/>
</linearGradient>
<clipPath id="clip0_7527_108289">
<rect width="18.411" height="18.411" fill="white" transform="translate(2.62988 2.62988)"/>
</clipPath>
</defs>
</svg>
