<svg width="24" height="24" viewBox="0 0 24 24" fill="none" xmlns="http://www.w3.org/2000/svg">
<circle cx="12" cy="12" r="12" fill="white"/>
<g clip-path="url(#clip0_7527_108295)">
<path d="M11.825 2.62998C9.82575 2.64459 8.22656 4.30165 8.22656 6.30087V7.77182C8.47041 7.57334 8.81469 7.3861 9.22119 7.44271H9.91003C9.99978 7.44271 10.504 7.40169 10.467 7.4045C11.0992 7.35604 11.6553 6.91892 11.8091 6.28402C11.814 6.26407 11.8316 6.24975 11.8522 6.24975C11.8727 6.24975 11.8903 6.26407 11.8952 6.28402C12.0487 6.91625 12.5989 7.34902 13.2227 7.40183C13.6794 7.4406 13.6856 7.44271 13.768 7.44271H14.483C14.8972 7.38371 15.2502 7.56491 15.4777 7.77182C15.4777 7.20125 15.4777 6.45904 15.4777 6.25551C15.4777 4.24406 13.8399 2.61523 11.825 2.62998Z" fill="#685E68"/>
<path d="M9.33763 6.30088C9.33763 4.48075 10.6633 2.94435 12.4096 2.67269C12.2191 2.64334 12.0239 2.62845 11.825 2.62999C9.82575 2.6446 8.22656 4.30166 8.22656 6.30088V7.77183C8.47041 7.57335 8.81469 7.38611 9.22119 7.44272H9.33763V6.30088Z" fill="#554E56"/>
<path d="M13.2024 12.3718C13.2027 12.482 13.2706 12.5806 13.3732 12.6205C13.5646 12.6946 15.1014 13.2467 15.669 13.4666C16.9909 12.936 16.8837 11.0437 16.236 10.7098C16.0286 10.6028 15.8444 10.4807 15.7085 10.3217C15.4468 10.0158 15.3065 9.43902 15.2937 9.03027C15.0701 9.18268 14.6716 9.25656 14.3675 9.20866C14.3384 10.0756 13.8803 10.9566 13.2002 11.413L13.2024 12.3718Z" fill="#685E68"/>
<path d="M7.97596 13.476C9.21682 12.995 9.04489 13.1047 10.2068 12.6543C10.2807 12.6256 10.4672 12.5769 10.4672 12.3702V11.3963C9.77235 10.9275 9.35503 10.0381 9.33495 9.20894C9.03112 9.25642 8.63291 9.18254 8.40957 9.03027C8.39693 9.43902 8.25646 10.0158 7.99492 10.3217C7.85881 10.4807 7.6748 10.6028 7.4672 10.7098C6.81558 11.0458 6.63649 12.9582 7.97596 13.476Z" fill="#685E68"/>
<path d="M8.57827 10.7098C8.78587 10.6028 8.96988 10.4807 9.10599 10.3217C9.23269 10.1737 9.33059 9.96197 9.3997 9.73681C9.36121 9.56123 9.33916 9.38368 9.33495 9.20894C9.03112 9.25656 8.63291 9.18254 8.40957 9.03027C8.39693 9.43902 8.25646 10.0158 7.99492 10.3217C7.85881 10.4807 7.6748 10.6028 7.4672 10.7098C6.81558 11.0458 6.63649 12.9582 7.97596 13.4761C8.26742 13.363 8.48036 13.283 8.65159 13.2202C7.80024 12.5018 8.00868 11.0035 8.57827 10.7098Z" fill="#554E56"/>
<path d="M9.80859 12.6913C9.8822 12.923 10.1068 13.6309 10.3818 14.4973C10.8027 14.59 11.2998 14.6436 11.8327 14.6436C12.382 14.6436 12.8933 14.5865 13.3222 14.4883L13.8888 12.7037L13.484 12.5469C13.3816 12.5073 13.3135 12.4087 13.3132 12.2982L13.3111 11.3026C12.8992 11.579 12.4063 11.7407 11.8776 11.7388C11.2871 11.7369 10.7709 11.5671 10.3543 11.2861L10.3544 12.2966C10.3544 12.5013 10.1718 12.5506 10.094 12.5808L9.80859 12.6913Z" fill="#FFBD86"/>
<path d="M10.9906 13.4275C10.9385 13.2634 11.023 13.0874 11.1835 13.0252C11.2613 12.9952 11.4437 12.9459 11.4437 12.7412V11.706C11.0322 11.6436 10.6656 11.4958 10.3544 11.2861V12.2966C10.3544 12.5013 10.1718 12.5506 10.094 12.5808L9.80859 12.6913C9.8822 12.923 10.1069 13.6309 10.3818 14.4973C10.6786 14.5626 11.0138 14.6081 11.3721 14.6295C11.2148 14.134 11.0802 13.71 10.9906 13.4275Z" fill="#F6A96C"/>
<path d="M11.8335 14.6217C11.2811 14.6217 10.768 14.5623 10.3428 14.4606C10.9567 16.3948 11.7874 19.0118 11.8509 19.2116L13.3622 14.4512C12.9296 14.5585 12.4027 14.6217 11.8335 14.6217Z" fill="#60B8FF"/>
<path d="M11.4717 14.9412C11.4353 14.8264 11.3998 14.7145 11.3654 14.606C10.9919 14.5826 10.6449 14.5323 10.3428 14.46C10.9567 16.3943 11.7874 19.0111 11.8509 19.211L12.3337 17.6901C12.0698 16.8538 11.783 15.9395 11.4717 14.9412Z" fill="#22A7FF"/>
<path d="M11.8511 18.9708L9.85246 12.6748L6.44915 13.9943C5.83083 14.2487 5.00293 15.0494 5.00293 16.2374V20.5593C5.00293 20.8255 5.21868 21.0413 5.48486 21.0413H11.9622L11.8511 18.9708Z" fill="#D9EDFF"/>
<path d="M6.11428 20.5957V15.6068C6.11428 14.8367 6.46235 14.2294 6.87574 13.8281L6.44915 13.9936C5.83083 14.248 5.00293 15.0486 5.00293 16.2367V20.5586C5.00293 20.8248 5.21868 21.0405 5.48486 21.0405H6.41094C6.23677 20.9679 6.11428 20.7961 6.11428 20.5957Z" fill="#B4DBFF"/>
<path d="M7.54982 21.0409V16.6841C7.54982 16.5307 7.42537 16.4062 7.27198 16.4062C7.11845 16.4062 6.99414 16.5307 6.99414 16.6841V21.0409H7.54982Z" fill="#B4DBFF"/>
<path d="M9.51905 18.6653C9.36566 18.6653 9.24121 18.5408 9.24121 18.3875V15.8286C9.24121 15.6752 9.36566 15.5508 9.51905 15.5508C9.67258 15.5508 9.79703 15.6752 9.79703 15.8286V18.3875C9.79689 18.5408 9.67258 18.6653 9.51905 18.6653Z" fill="#685E68"/>
<path d="M10.4335 19.0566C10.4335 19.5624 10.0233 19.9724 9.51753 19.9724C9.01172 19.9724 8.60156 19.5624 8.60156 19.0566C8.60156 18.5506 9.01172 18.1406 9.51753 18.1406C10.0233 18.1406 10.4335 18.5506 10.4335 19.0566Z" fill="#60B8FF"/>
<path d="M9.51807 19.3342C9.363 19.3342 9.24023 19.208 9.24023 19.0563C9.24023 18.8809 9.40177 18.7486 9.57215 18.7841C9.70236 18.8086 9.79591 18.9267 9.79591 19.0563C9.79591 19.2045 9.67567 19.3342 9.51807 19.3342Z" fill="#8BCAFF"/>
<path d="M8.59375 13.1632V13.9637C8.59375 14.0595 8.63884 14.1498 8.71567 14.2073L9.32192 14.6611C9.43611 14.7467 9.47558 14.9 9.41673 15.0301L9.1483 15.6236C9.08973 15.7529 9.1285 15.9058 9.24171 15.9914L11.852 18.9708C11.7615 18.686 9.9894 13.1036 9.85329 12.6748L8.59375 13.1632Z" fill="#B4DBFF"/>
<path d="M11.3046 17.2466L10.2049 15.9914C10.0917 15.9058 10.0529 15.7529 10.1115 15.6236L10.3799 15.0301C10.4387 14.9 10.3993 14.7467 10.2851 14.6611L9.67884 14.2073C9.60214 14.1498 9.55691 14.0595 9.55691 13.9637V13.5941C9.55691 13.3344 9.71662 13.1013 9.95878 13.0074C9.90569 12.8401 9.86874 12.7237 9.85329 12.6748L8.59375 13.1632V13.9637C8.59375 14.0595 8.63884 14.1498 8.71567 14.2073L9.32192 14.6611C9.43611 14.7467 9.47558 14.9 9.41673 15.0301L9.1483 15.6236C9.08973 15.7529 9.1285 15.9058 9.24171 15.9914L11.852 18.9708C11.8211 18.8738 11.5948 18.1609 11.3046 17.2466Z" fill="#8BCAFF"/>
<path d="M9.29562 9.25774L9.2216 7.33155H9.22019C8.81397 7.27495 8.46983 7.46191 8.22613 7.6601C8.06192 7.83765 7.96191 8.06913 7.96191 8.32267C7.96191 8.93931 8.62617 9.42574 9.29717 9.32039C9.29661 9.29946 9.29562 9.27867 9.29562 9.25774Z" fill="#FFBD86"/>
<path d="M9.29309 9.19228C8.95668 9.01586 8.71719 8.69279 8.71719 8.32267C8.71719 8.06913 8.8172 7.83765 8.9814 7.6601C9.05473 7.60054 9.13718 7.54197 9.22764 7.49084L9.2216 7.33155H9.22019C8.81397 7.27495 8.46997 7.46191 8.22613 7.6601C8.06192 7.83765 7.96191 8.06913 7.96191 8.32267C7.96191 8.93931 8.62617 9.42574 9.29717 9.32025C9.29661 9.29946 9.29562 9.27867 9.29562 9.25774L9.29309 9.19228Z" fill="#F6A96C"/>
<path d="M15.4753 7.65949C15.2478 7.45315 14.8954 7.27265 14.482 7.33165H14.4806L14.4065 9.23241C14.4065 9.26177 14.4053 9.29098 14.4043 9.3202C15.0754 9.42611 15.7403 8.93968 15.7403 8.32276C15.7401 8.0688 15.64 7.83704 15.4753 7.65949Z" fill="#FFBD86"/>
<path d="M15.2372 7.48597C15.0296 7.3663 14.7708 7.29045 14.482 7.3316H14.4806L14.4065 9.23237C14.4065 9.26172 14.4053 9.29094 14.4043 9.32016C14.7025 9.36721 14.9993 9.29712 15.2372 9.15076V7.48597Z" fill="#F6A96C"/>
<path d="M13.7671 7.33163C13.6847 7.33163 13.6785 7.32953 13.2218 7.29076C12.608 7.23865 12.0766 6.82119 11.9088 6.22843C11.9036 6.21003 11.8988 6.19149 11.8942 6.17295C11.8894 6.153 11.8718 6.13867 11.8512 6.13867C11.8307 6.13867 11.8131 6.153 11.8082 6.17295C11.8037 6.19177 11.7988 6.21045 11.7934 6.22899C11.6239 6.82667 11.0855 7.24595 10.4661 7.29329C10.5031 7.29048 9.99873 7.33149 9.90911 7.33149H9.22168V9.25782C9.22168 10.6091 10.278 11.8445 11.8781 11.8498C13.3095 11.8546 14.4807 10.6637 14.4807 9.23226V7.33149H13.7671V7.33163Z" fill="#FED2A4"/>
<path d="M10.333 9.25855V7.30469C10.1864 7.31607 9.96558 7.33236 9.90911 7.33236H9.22168V9.25855C9.22168 10.61 10.278 11.8452 11.8781 11.8505C12.0638 11.8512 12.2449 11.8313 12.4199 11.7938C11.1435 11.5367 10.333 10.4422 10.333 9.25855Z" fill="#FFBD86"/>
<path d="M18.6666 20.5587V16.2368C18.6666 15.2136 18.0115 14.3193 17.2204 13.9937L13.8453 12.6865L11.8506 18.9702V21.0406H18.1847C18.4509 21.0406 18.6666 20.8249 18.6666 20.5587Z" fill="#D9EDFF"/>
<path d="M16.7091 21.0409V16.6841C16.7091 16.5307 16.5847 16.4062 16.4313 16.4062C16.2778 16.4062 16.1533 16.5307 16.1533 16.6841V21.0409H16.7091Z" fill="#B4DBFF"/>
<path d="M14.1499 18.3336C13.9965 18.3336 13.8721 18.2092 13.8721 18.0558V15.9547C13.8721 15.8012 13.9965 15.6768 14.1499 15.6768C14.3034 15.6768 14.4277 15.8012 14.4277 15.9547V18.0558C14.4277 18.2092 14.3034 18.3336 14.1499 18.3336Z" fill="#685E68"/>
<path d="M15.5818 21.0403V19.2088C15.5818 18.4195 14.9396 17.7773 14.1502 17.7773C13.361 17.7773 12.7188 18.4195 12.7188 19.2088V21.0403H13.2744V19.2088C13.2744 18.7259 13.6673 18.333 14.1502 18.333C14.6333 18.333 15.0262 18.7259 15.0262 19.2088V21.0403H15.5818Z" fill="#685E68"/>
<path d="M14.3806 14.6605L14.9869 14.2066C15.0636 14.1492 15.1088 14.0589 15.1088 13.9631V13.1759L13.8453 12.6865L11.8506 18.9702L14.4607 15.9908C14.5739 15.9051 14.6128 15.7523 14.5542 15.6229L14.2858 15.0295C14.227 14.8994 14.2664 14.746 14.3806 14.6605Z" fill="#B4DBFF"/>
</g>
<defs>
<clipPath id="clip0_7527_108295">
<rect width="18.411" height="18.411" fill="white" transform="translate(2.62988 2.62988)"/>
</clipPath>
</defs>
</svg>
