<svg width="26" height="28" viewBox="0 0 26 28" fill="none" xmlns="http://www.w3.org/2000/svg">
<circle cx="13" cy="12" r="12" fill="white"/>
<g filter="url(#filter0_d_7527_108132)">
<path d="M19.3289 11.5068H15.8768V17.2603H4.94531V18.4109H20.4796C20.7974 18.4109 21.0549 18.1535 21.0549 17.8356V14.3835L19.3289 11.5068Z" fill="#64C8F0"/>
<path d="M13.0001 9.78071C11.8232 9.78071 10.8104 9.0693 10.3653 8.05469H4.94531V17.2602H15.8768V8.05469H15.6349C15.1899 9.0693 14.177 9.78071 13.0001 9.78071Z" fill="#FA6450"/>
<path d="M4.94531 8.05469H6.096V17.2602H4.94531V8.05469Z" fill="#DC4632"/>
<path d="M7.82173 12.0822V11.5068H6.0957V14.3835H6.67105V13.2329H7.82173V12.6575H6.67105V12.0822H7.82173Z" fill="#F0F0F0"/>
<path d="M12.4252 12.0822V11.5068H10.6992V14.3835H12.4252V13.8082H11.2746V13.2329H12.4252V12.6575H11.2746V12.0822H12.4252Z" fill="#F0F0F0"/>
<path d="M14.726 12.0822V11.5068H13V14.3835H14.726V13.8082H13.5753V13.2329H14.726V12.6575H13.5753V12.0822H14.726Z" fill="#F0F0F0"/>
<path d="M10.1235 12.6328V12.1069C10.1235 11.7755 9.8548 11.5068 9.52341 11.5068H8.4222C8.40868 11.5068 8.39746 11.5178 8.39746 11.5316V14.3588C8.39746 14.3723 8.40868 14.3835 8.4222 14.3835H8.94806C8.96158 14.3835 8.9728 14.3723 8.9728 14.3588V13.2576C8.9728 13.2524 8.97568 13.2481 8.97827 13.2441L9.54815 14.3835H10.1235L9.547 13.2306C9.86717 13.2179 10.1235 12.9561 10.1235 12.6328ZM9.26047 12.6575H8.9728V12.0822H9.26047C9.41927 12.0822 9.54815 12.2111 9.54815 12.3698C9.54815 12.5286 9.41927 12.6575 9.26047 12.6575Z" fill="#F0F0F0"/>
<path d="M4.94531 17.2598H6.096V18.4105H4.94531V17.2598Z" fill="#46AAD2"/>
<path d="M19.329 11.5062H15.877V10.3555H19.329C19.6469 10.3555 19.9044 10.6129 19.9044 10.9308C19.9044 11.2487 19.6469 11.5062 19.329 11.5062Z" fill="#505050"/>
<path d="M21.0546 14.3835H17.6025V11.5068H19.3286L21.0546 14.3835Z" fill="#F0F0F0"/>
<path d="M19.6168 16.6858H21.0551V15.5352H19.6168C19.458 15.5352 19.3291 15.664 19.3291 15.8228V16.3982C19.3291 16.557 19.458 16.6858 19.6168 16.6858Z" fill="#FAB400"/>
<path d="M18.4657 19.5623C17.6714 19.5623 17.0273 18.9182 17.0273 18.1239C17.0273 17.3296 17.6714 16.6855 18.4657 16.6855C19.26 16.6855 19.9041 17.3296 19.9041 18.1239C19.9041 18.9182 19.26 19.5623 18.4657 19.5623Z" fill="#505050"/>
<path d="M7.53406 19.5623C6.7398 19.5623 6.0957 18.9182 6.0957 18.1239C6.0957 17.3296 6.7398 16.6855 7.53406 16.6855C8.32832 16.6855 8.97242 17.3296 8.97242 18.1239C8.97242 18.9182 8.32832 19.5623 7.53406 19.5623Z" fill="#505050"/>
<path d="M18.466 18.6985C18.1481 18.6985 17.8906 18.4411 17.8906 18.1232C17.8906 17.8053 18.1481 17.5479 18.466 17.5479C18.7838 17.5479 19.0413 17.8053 19.0413 18.1232C19.0413 18.4411 18.7838 18.6985 18.466 18.6985Z" fill="#F0F0F0"/>
<path d="M7.53335 18.6985C7.21547 18.6985 6.95801 18.4411 6.95801 18.1232C6.95801 17.8053 7.21547 17.5479 7.53335 17.5479C7.85123 17.5479 8.10869 17.8053 8.10869 18.1232C8.10869 18.4411 7.85123 18.6985 7.53335 18.6985Z" fill="#F0F0F0"/>
<path d="M13.0006 9.20528C14.2716 9.20528 15.302 8.17492 15.302 6.90391C15.302 5.6329 14.2716 4.60254 13.0006 4.60254C11.7296 4.60254 10.6992 5.6329 10.6992 6.90391C10.6992 8.17492 11.7296 9.20528 13.0006 9.20528Z" fill="#3CC8B4"/>
<path d="M11.2697 6.90391C11.2697 5.72964 12.1497 4.76277 13.286 4.6221C13.1922 4.61031 13.0972 4.60254 13.0006 4.60254C11.7297 4.60254 10.6992 5.63298 10.6992 6.90391C10.6992 8.17484 11.7297 9.20528 13.0006 9.20528C13.0972 9.20528 13.1922 9.19751 13.2857 9.18572C12.1497 9.04505 11.2697 8.07818 11.2697 6.90391Z" fill="#1EAA96"/>
<path d="M14.4382 6.32827L12.7122 8.0543L11.5615 6.90361L12.1369 6.32827L12.7122 6.90361L13.8629 5.75293L14.4382 6.32827Z" fill="#F0F0F0"/>
</g>
<defs>
<filter id="filter0_d_7527_108132" x="0.945312" y="4.60254" width="24.1094" height="22.96" filterUnits="userSpaceOnUse" color-interpolation-filters="sRGB">
<feFlood flood-opacity="0" result="BackgroundImageFix"/>
<feColorMatrix in="SourceAlpha" type="matrix" values="0 0 0 0 0 0 0 0 0 0 0 0 0 0 0 0 0 0 127 0" result="hardAlpha"/>
<feOffset dy="4"/>
<feGaussianBlur stdDeviation="2"/>
<feComposite in2="hardAlpha" operator="out"/>
<feColorMatrix type="matrix" values="0 0 0 0 0 0 0 0 0 0 0 0 0 0 0 0 0 0 0.25 0"/>
<feBlend mode="normal" in2="BackgroundImageFix" result="effect1_dropShadow_7527_108132"/>
<feBlend mode="normal" in="SourceGraphic" in2="effect1_dropShadow_7527_108132" result="shape"/>
</filter>
</defs>
</svg>
