<svg width="20" height="20" viewBox="0 0 20 20" fill="none" xmlns="http://www.w3.org/2000/svg">
<path d="M10 13.75C10.1189 13.75 10.2181 13.71 10.2975 13.63C10.3769 13.55 10.4167 13.4511 10.4167 13.3333V9.58333C10.4167 9.465 10.3767 9.36611 10.2967 9.28667C10.2167 9.20722 10.1175 9.16722 9.99917 9.16667C9.88083 9.16611 9.78194 9.20611 9.7025 9.28667C9.62305 9.36722 9.58333 9.46611 9.58333 9.58333V13.3333C9.58333 13.4517 9.62333 13.5506 9.70333 13.63C9.78333 13.7094 9.8825 13.7494 10.0008 13.75M10 7.98083C10.1456 7.98083 10.2675 7.93167 10.3658 7.83333C10.4642 7.735 10.5131 7.61333 10.5125 7.46833C10.5119 7.32333 10.4628 7.20139 10.365 7.1025C10.2672 7.00361 10.1456 6.95444 10 6.955C9.85444 6.95556 9.73278 7.00472 9.635 7.1025C9.53722 7.20028 9.48806 7.32222 9.4875 7.46833C9.48694 7.61444 9.53611 7.73611 9.635 7.83333C9.73389 7.93056 9.85556 7.97972 10 7.98083ZM10.0025 17.5C8.96528 17.5 7.99028 17.3033 7.0775 16.91C6.16472 16.5161 5.37056 15.9817 4.695 15.3067C4.01944 14.6317 3.48472 13.8383 3.09083 12.9267C2.69694 12.015 2.5 11.0403 2.5 10.0025C2.5 8.96472 2.69694 7.98972 3.09083 7.0775C3.48417 6.16472 4.01778 5.37056 4.69167 4.695C5.36556 4.01944 6.15917 3.48472 7.0725 3.09083C7.98583 2.69694 8.96083 2.5 9.9975 2.5C11.0342 2.5 12.0092 2.69694 12.9225 3.09083C13.8353 3.48417 14.6294 4.01806 15.305 4.6925C15.9806 5.36694 16.5153 6.16056 16.9092 7.07333C17.3031 7.98611 17.5 8.96083 17.5 9.9975C17.5 11.0342 17.3033 12.0092 16.91 12.9225C16.5167 13.8358 15.9822 14.63 15.3067 15.305C14.6311 15.98 13.8378 16.5147 12.9267 16.9092C12.0156 17.3036 11.0408 17.5006 10.0025 17.5Z" fill="#FF901D"/>
</svg>
