<svg width="56" height="56" viewBox="0 0 56 56" fill="none" xmlns="http://www.w3.org/2000/svg">
<g clip-path="url(#clip0_1150_9879)">
<path d="M52.2374 47.1819L48.9859 44.3237L41.1737 37.4564L38.1273 34.7785C36.4122 33.2709 35.544 31.0189 35.8031 28.7502L36.5304 22.3832C36.8483 19.6001 36.417 16.7825 35.2813 14.2219L29.6085 1.43072C29.2368 0.592688 27.9844 0.857811 27.9844 1.7747V31.4847C27.9844 34.0254 28.8747 36.486 30.5006 38.4385L34.4569 43.1895L41.1031 51.1705L44.3199 55.0731L52.2374 47.1819Z" fill="#EFBBAB"/>
<path d="M3.7627 47.1835L7.01418 44.3253L14.8264 37.458L17.8728 34.7801C19.5879 33.2725 20.4561 31.0206 20.197 28.7518L19.4698 22.3848C19.1518 19.6018 19.5831 16.7842 20.7188 14.2235L26.3762 1.43258C26.7479 0.594549 27.9848 0.859673 27.9848 1.77656V31.4865C27.9848 34.0273 27.1099 36.4879 25.484 38.4403L21.5354 43.1913L14.8969 51.1724L11.6485 55.0733L3.7627 47.1835Z" fill="#EFBBAB"/>
<path d="M26.3763 1.43236L24.9861 30.8091C24.9861 33.3498 24.1112 35.8104 22.4854 37.7629L18.5367 42.5139L11.8983 50.4949L9.70508 53.1287L11.6487 55.0731L14.8971 51.1723L21.5356 43.1912L25.4842 38.4402C27.1101 36.4878 27.985 34.0273 27.985 31.4864V1.77634C27.9849 0.859673 26.7479 0.59433 26.3763 1.43236Z" fill="#EDA08E"/>
<path d="M29.5931 1.43236L30.9832 30.8091C30.9832 33.3498 31.8581 35.8104 33.4839 37.7629L37.4326 42.5139L44.0711 50.4949L46.2643 53.1287L44.3207 55.0731L41.0722 51.1723L34.4338 43.1912L30.4851 38.4402C28.8593 36.4878 27.9844 34.0273 27.9844 31.4864V1.77634C27.9845 0.859673 29.2214 0.59433 29.5931 1.43236Z" fill="#EDA08E"/>
<path d="M18.0917 48.1948L10.3524 40.4557C9.37211 39.4754 9.37211 37.8856 10.3524 36.9053C11.3328 35.925 12.9225 35.925 13.9028 36.9053L21.6421 44.6445C22.6224 45.6248 22.6224 47.2146 21.6421 48.1949C20.6615 49.1753 19.072 49.1753 18.0917 48.1948Z" fill="#FFDB6C"/>
<path d="M21.6421 44.6444L18.3219 41.3241C19.3022 42.3044 19.3022 43.8942 18.3219 44.8745C17.3416 45.8548 15.7518 45.8548 14.7715 44.8745L18.0917 48.1947C19.072 49.175 20.6617 49.175 21.6421 48.1947C22.6224 47.2145 22.6224 45.6247 21.6421 44.6444Z" fill="#FFB04C"/>
<path d="M14.5409 51.7452L6.80165 44.006C5.82133 43.0257 5.82133 41.4359 6.80165 40.4556C7.78197 39.4753 9.37173 39.4753 10.3521 40.4556L18.0913 48.1948C19.0716 49.1751 19.0716 50.7649 18.0913 51.7452C17.1107 52.7258 15.5212 52.7258 14.5409 51.7452Z" fill="#FFDB6C"/>
<path d="M18.0913 48.1948L14.7711 44.8746C15.7514 45.855 15.7514 47.4447 14.7711 48.425C13.7908 49.4054 12.201 49.4054 11.2207 48.425L14.5409 51.7452C15.5212 52.7255 17.111 52.7255 18.0913 51.7452C19.0716 50.7649 19.0716 49.1752 18.0913 48.1948Z" fill="#FFB04C"/>
<path d="M37.3042 48.1948L45.0434 40.4556C46.0238 39.4752 46.0238 37.8855 45.0434 36.9052C44.0631 35.9248 42.4734 35.9248 41.493 36.9052L33.7538 44.6444C32.7735 45.6247 32.7735 47.2145 33.7538 48.1948C34.7342 49.1752 36.3239 49.1752 37.3042 48.1948Z" fill="#FFDB6C"/>
<path d="M33.7539 44.6444L37.0742 41.3241C36.0939 42.3044 36.0939 43.8942 37.0742 44.8745C38.0546 45.8548 39.6443 45.8548 40.6246 44.8745L37.3045 48.1947C36.3241 49.175 34.7344 49.175 33.7541 48.1947C32.7734 47.2145 32.7734 45.6247 33.7539 44.6444Z" fill="#FFB04C"/>
<path d="M40.855 51.7452L48.5942 44.006C49.5745 43.0257 49.5745 41.4359 48.5942 40.4556C47.6139 39.4753 46.0241 39.4753 45.0438 40.4556L37.3046 48.1948C36.3243 49.1751 36.3243 50.7649 37.3046 51.7452C38.2849 52.7258 39.8746 52.7258 40.855 51.7452Z" fill="#FFDB6C"/>
<path d="M37.3046 48.1948L40.6248 44.8746C39.6444 45.855 39.6444 47.4447 40.6248 48.425C41.6051 49.4054 43.1948 49.4054 44.1752 48.425L40.855 51.7452C39.8747 52.7255 38.2849 52.7255 37.3046 51.7452C36.3243 50.7649 36.3243 49.1752 37.3046 48.1948Z" fill="#FFB04C"/>
<path d="M52.8494 46.4875L49.8513 43.8521C50.1156 43.3594 50.2558 42.806 50.2558 42.231C50.2558 41.3128 49.8982 40.4497 49.249 39.8006C48.5999 39.1513 47.7367 38.7938 46.8186 38.7938C46.7798 38.7938 46.7413 38.7954 46.7027 38.7967C46.7039 38.758 46.7055 38.7195 46.7055 38.6806C46.7055 37.7625 46.3479 36.8995 45.6987 36.2501C45.0495 35.6009 44.1863 35.2434 43.2682 35.2434C42.4314 35.2434 41.6408 35.5413 41.0158 36.0854L38.7394 34.0843C37.2528 32.7776 36.4995 30.8235 36.7241 28.8573L37.4514 22.4902C37.7877 19.5457 37.3304 16.5572 36.1288 13.848L30.4558 1.05666C30.1122 0.282396 29.2937 -0.135852 28.4651 0.0398031C28.2939 0.0760061 28.1341 0.136381 27.9871 0.215131C27.8403 0.136162 27.6807 0.075678 27.5096 0.0392562C26.6863 -0.135196 25.8717 0.283271 25.5284 1.05753L19.8715 13.8477C18.6699 16.5569 18.2126 19.5452 18.5488 22.4899L19.276 28.8569C19.5007 30.8232 18.7473 32.7773 17.2608 34.084L14.6698 36.3613L14.5583 36.2498C13.909 35.6005 13.0458 35.2431 12.1278 35.2431C11.2097 35.2431 10.3464 35.6008 9.69734 36.2498C9.0481 36.8991 8.69055 37.7622 8.69055 38.6803C8.69055 38.7191 8.69219 38.7576 8.69339 38.7964C8.65489 38.7952 8.61628 38.7935 8.57746 38.7935C7.65937 38.7935 6.79607 39.1512 6.14704 39.8002C5.4978 40.4494 5.14025 41.3125 5.14025 42.2307C5.14025 42.9438 5.35703 43.6234 5.75756 44.1957L3.15084 46.4871C2.76639 46.825 2.72876 47.4107 3.06662 47.7949C3.24982 48.0035 3.50576 48.1099 3.76301 48.1099C3.98022 48.1099 4.19843 48.0339 4.37452 47.8793L7.03046 45.5445L13.2196 51.7337L10.9359 54.4802C10.6087 54.8738 10.6625 55.458 11.0559 55.7853C11.229 55.9292 11.439 55.9994 11.648 55.9994C11.9138 55.9994 12.1778 55.8857 12.3612 55.6652L14.6137 52.9561C15.1269 53.2498 15.7097 53.4072 16.3167 53.4072C17.2348 53.4072 18.0981 53.0495 18.7472 52.4004C19.4471 51.7004 19.7807 50.7712 19.7494 49.8523C19.7886 49.8536 19.8277 49.8551 19.8669 49.8551C20.7471 49.8551 21.6274 49.5201 22.2974 48.8501C22.9466 48.2007 23.3042 47.3376 23.3042 46.4195C23.3042 45.5013 22.9465 44.6382 22.2974 43.989L22.1723 43.8639C22.1987 43.8389 22.224 43.8122 22.2479 43.7835L26.1959 39.0334C26.9413 38.1382 27.5426 37.1379 27.9891 36.0716C28.4379 37.1353 29.0412 38.1356 29.7888 39.0334L33.5445 43.5433L33.0986 43.9892C32.4493 44.6385 32.0919 45.5016 32.0919 46.4198C32.0919 47.3379 32.4496 48.2009 33.0986 48.8503C33.7687 49.5204 34.6489 49.8553 35.5291 49.8553C35.5683 49.8553 35.6074 49.8538 35.6466 49.8525C35.6154 50.7716 35.9489 51.7007 36.649 52.4007C37.3191 53.0708 38.1993 53.4057 39.0795 53.4057C39.8154 53.4057 40.5508 53.1707 41.164 52.7022L43.6051 55.6627C43.7883 55.8849 44.0534 55.9999 44.3206 55.9999C44.5282 55.9999 44.737 55.9304 44.9097 55.7881C45.3047 55.4625 45.3608 54.8785 45.0352 54.4835L42.5007 51.4101L48.6485 45.2625L51.626 47.8797C51.8021 48.0346 52.0202 48.1104 52.2375 48.1104C52.4947 48.1104 52.7507 48.0038 52.9339 47.7954C53.2715 47.4109 53.2339 46.8253 52.8494 46.4875ZM17.4364 51.0899C17.1372 51.3891 16.7394 51.5539 16.3165 51.5539C15.8935 51.5539 15.4957 51.3892 15.1966 51.0901V51.0899L7.45735 43.3507C7.15821 43.0516 6.99349 42.6538 6.99349 42.2308C6.99349 41.8078 7.15821 41.41 7.45735 41.1109C7.75649 40.8118 8.15429 40.647 8.57724 40.647C9.00019 40.647 9.39799 40.8117 9.69712 41.1109L14.3406 45.7543L17.4364 48.8501C17.4366 48.8503 17.4369 48.8506 17.4371 48.8508C18.0538 49.4686 18.0536 50.4727 17.4364 51.0899ZM20.9868 47.5394C20.3693 48.1571 19.3647 48.1572 18.747 47.5394L11.0078 39.8002C10.7087 39.5012 10.5439 39.1034 10.5439 38.6803C10.5439 38.2574 10.7086 37.8596 11.0079 37.5604C11.3069 37.2613 11.7047 37.0966 12.1278 37.0966C12.5508 37.0966 12.9486 37.2614 13.2476 37.5605L20.9869 45.2998C21.2859 45.5988 21.4507 45.9966 21.4507 46.4197C21.4507 46.8426 21.2859 47.2403 20.9868 47.5394ZM24.771 37.8479L20.8609 42.5525L15.9832 37.6748L18.4846 35.4761C20.4267 33.7688 21.411 31.2156 21.1177 28.6466L20.3905 22.2797C20.0915 19.6627 20.4981 17.0069 21.5662 14.5983L27.0579 2.18245V9.62517C24.6997 12.2268 23.2771 15.215 22.9419 18.2935C22.8753 18.9052 22.8504 19.5298 22.8677 20.1496C22.8817 20.6524 23.2937 21.0506 23.7935 21.0506C23.8022 21.0506 23.811 21.0504 23.8199 21.0502C24.3316 21.036 24.7348 20.6097 24.7205 20.098C24.7055 19.562 24.7272 19.0223 24.7846 18.4941C25.0404 16.1442 25.9893 14.156 27.0578 12.5997V31.4862C27.0577 33.8177 26.2457 36.0768 24.771 37.8479ZM31.213 37.8472C29.7286 36.0646 28.9113 33.8057 28.9113 31.4863L28.9114 12.5551C29.9925 14.1178 30.9574 16.1217 31.2157 18.494C31.2732 19.0226 31.2949 19.5624 31.2798 20.0978C31.2655 20.6094 31.6685 21.0358 32.1803 21.0501C32.1891 21.0503 32.198 21.0504 32.2067 21.0504C32.7065 21.0504 33.1185 20.6523 33.1326 20.1496C33.15 19.53 33.1249 18.9057 33.0583 18.2934C32.7218 15.2014 31.2881 12.2007 28.9114 9.59116V2.14592L34.4343 14.5991C35.5021 17.0068 35.9085 19.6627 35.6096 22.2795L34.8824 28.6464C34.5889 31.2156 35.5732 33.7686 37.5155 35.4758L39.6953 37.392L34.8604 42.2269L31.213 37.8472ZM34.409 47.5395C34.11 47.2404 33.9451 46.8425 33.9451 46.4197C33.9451 45.9966 34.1099 45.5988 34.409 45.2998L42.1482 37.5604C42.4473 37.2613 42.8451 37.0966 43.2681 37.0966C43.6912 37.0966 44.089 37.2614 44.388 37.5605C44.687 37.8597 44.8519 38.2575 44.8519 38.6804C44.8519 39.1035 44.6871 39.5013 44.388 39.8003L36.6489 47.5395C36.0315 48.1568 35.0266 48.1571 34.409 47.5395ZM40.1797 51.1077C39.6042 51.7279 38.5707 51.7011 37.9596 51.0898C37.3421 50.4724 37.3421 49.4675 37.9596 48.8501L45.6987 41.1109C46.0075 40.8022 46.4131 40.6477 46.8186 40.6477C47.2242 40.6477 47.6298 40.8022 47.9385 41.1109C48.2377 41.41 48.4024 41.8078 48.4024 42.2308C48.4024 42.6538 48.2377 43.0517 47.9385 43.3507C47.9385 43.3507 40.3465 50.9279 40.1797 51.1077Z" fill="black"/>
</g>
<defs>
<clipPath id="clip0_1150_9879">
<rect width="56" height="56" fill="white"/>
</clipPath>
</defs>
</svg>
