<svg width="209" height="36" viewBox="0 0 209 36" fill="none" xmlns="http://www.w3.org/2000/svg">
<path d="M79.88 28V14H82.02L88.14 24.22H87.02L93.04 14H95.18L95.2 28H92.74L92.72 17.86H93.24L88.12 26.4H86.96L81.76 17.86H82.36V28H79.88ZM103.762 28.14C102.575 28.14 101.535 27.9067 100.642 27.44C99.7616 26.96 99.0749 26.3067 98.5816 25.48C98.1016 24.6533 97.8616 23.7133 97.8616 22.66C97.8616 21.5933 98.0949 20.6533 98.5616 19.84C99.0416 19.0133 99.6949 18.3667 100.522 17.9C101.362 17.4333 102.315 17.2 103.382 17.2C104.422 17.2 105.348 17.4267 106.162 17.88C106.975 18.3333 107.615 18.9733 108.082 19.8C108.548 20.6267 108.782 21.6 108.782 22.72C108.782 22.8267 108.775 22.9467 108.762 23.08C108.762 23.2133 108.755 23.34 108.742 23.46H99.8416V21.8H107.422L106.442 22.32C106.455 21.7067 106.328 21.1667 106.062 20.7C105.795 20.2333 105.428 19.8667 104.962 19.6C104.508 19.3333 103.982 19.2 103.382 19.2C102.768 19.2 102.228 19.3333 101.762 19.6C101.308 19.8667 100.948 20.24 100.682 20.72C100.428 21.1867 100.302 21.74 100.302 22.38V22.78C100.302 23.42 100.448 23.9867 100.742 24.48C101.035 24.9733 101.448 25.3533 101.982 25.62C102.515 25.8867 103.128 26.02 103.822 26.02C104.422 26.02 104.962 25.9267 105.442 25.74C105.922 25.5533 106.348 25.26 106.722 24.86L108.062 26.4C107.582 26.96 106.975 27.3933 106.242 27.7C105.522 27.9933 104.695 28.14 103.762 28.14ZM124.663 17.2C125.516 17.2 126.27 17.3667 126.923 17.7C127.59 18.0333 128.11 18.5467 128.483 19.24C128.856 19.92 129.043 20.8 129.043 21.88V28H126.543V22.2C126.543 21.2533 126.336 20.5467 125.923 20.08C125.51 19.6133 124.916 19.38 124.143 19.38C123.596 19.38 123.11 19.5 122.683 19.74C122.27 19.98 121.943 20.3333 121.703 20.8C121.476 21.2667 121.363 21.86 121.363 22.58V28H118.863V22.2C118.863 21.2533 118.656 20.5467 118.243 20.08C117.83 19.6133 117.236 19.38 116.463 19.38C115.916 19.38 115.43 19.5 115.003 19.74C114.59 19.98 114.263 20.3333 114.023 20.8C113.796 21.2667 113.683 21.86 113.683 22.58V28H111.183V17.32H113.563V20.16L113.143 19.32C113.503 18.6267 114.023 18.1 114.703 17.74C115.396 17.38 116.183 17.2 117.063 17.2C118.063 17.2 118.93 17.4467 119.663 17.94C120.41 18.4333 120.903 19.18 121.143 20.18L120.163 19.84C120.51 19.04 121.083 18.4 121.883 17.92C122.683 17.44 123.61 17.2 124.663 17.2ZM138.158 28.14C137.251 28.14 136.444 27.94 135.738 27.54C135.031 27.14 134.471 26.54 134.058 25.74C133.658 24.9267 133.458 23.9 133.458 22.66C133.458 21.4067 133.664 20.38 134.078 19.58C134.504 18.78 135.071 18.1867 135.778 17.8C136.498 17.4 137.291 17.2 138.158 17.2C139.211 17.2 140.138 17.4267 140.938 17.88C141.751 18.3333 142.391 18.9667 142.858 19.78C143.338 20.5933 143.578 21.5533 143.578 22.66C143.578 23.7667 143.338 24.7267 142.858 25.54C142.391 26.3533 141.751 26.9933 140.938 27.46C140.138 27.9133 139.211 28.14 138.158 28.14ZM132.238 28V13.16H134.738V19.8L134.538 22.64L134.618 25.48V28H132.238ZM137.878 26C138.478 26 139.011 25.8667 139.478 25.6C139.958 25.3333 140.338 24.9467 140.618 24.44C140.898 23.9333 141.038 23.34 141.038 22.66C141.038 21.9667 140.898 21.3733 140.618 20.88C140.338 20.3733 139.958 19.9867 139.478 19.72C139.011 19.4533 138.478 19.32 137.878 19.32C137.278 19.32 136.738 19.4533 136.258 19.72C135.778 19.9867 135.398 20.3733 135.118 20.88C134.838 21.3733 134.698 21.9667 134.698 22.66C134.698 23.34 134.838 23.9333 135.118 24.44C135.398 24.9467 135.778 25.3333 136.258 25.6C136.738 25.8667 137.278 26 137.878 26ZM150.969 28.14C149.782 28.14 148.742 27.9067 147.849 27.44C146.969 26.96 146.282 26.3067 145.789 25.48C145.309 24.6533 145.069 23.7133 145.069 22.66C145.069 21.5933 145.302 20.6533 145.769 19.84C146.249 19.0133 146.902 18.3667 147.729 17.9C148.569 17.4333 149.522 17.2 150.589 17.2C151.629 17.2 152.555 17.4267 153.369 17.88C154.182 18.3333 154.822 18.9733 155.289 19.8C155.755 20.6267 155.989 21.6 155.989 22.72C155.989 22.8267 155.982 22.9467 155.969 23.08C155.969 23.2133 155.962 23.34 155.949 23.46H147.049V21.8H154.629L153.649 22.32C153.662 21.7067 153.535 21.1667 153.269 20.7C153.002 20.2333 152.635 19.8667 152.169 19.6C151.715 19.3333 151.189 19.2 150.589 19.2C149.975 19.2 149.435 19.3333 148.969 19.6C148.515 19.8667 148.155 20.24 147.889 20.72C147.635 21.1867 147.509 21.74 147.509 22.38V22.78C147.509 23.42 147.655 23.9867 147.949 24.48C148.242 24.9733 148.655 25.3533 149.189 25.62C149.722 25.8867 150.335 26.02 151.029 26.02C151.629 26.02 152.169 25.9267 152.649 25.74C153.129 25.5533 153.555 25.26 153.929 24.86L155.269 26.4C154.789 26.96 154.182 27.3933 153.449 27.7C152.729 27.9933 151.902 28.14 150.969 28.14ZM158.39 28V17.32H160.77V20.26L160.49 19.4C160.81 18.68 161.31 18.1333 161.99 17.76C162.683 17.3867 163.543 17.2 164.57 17.2V19.58C164.463 19.5533 164.363 19.54 164.27 19.54C164.177 19.5267 164.083 19.52 163.99 19.52C163.043 19.52 162.29 19.8 161.73 20.36C161.17 20.9067 160.89 21.7267 160.89 22.82V28H158.39ZM170.088 28.14C169.195 28.14 168.335 28.0267 167.508 27.8C166.695 27.56 166.048 27.2733 165.568 26.94L166.528 25.04C167.008 25.3467 167.582 25.6 168.248 25.8C168.915 26 169.582 26.1 170.248 26.1C171.035 26.1 171.602 25.9933 171.948 25.78C172.308 25.5667 172.488 25.28 172.488 24.92C172.488 24.6267 172.368 24.4067 172.128 24.26C171.888 24.1 171.575 23.98 171.188 23.9C170.802 23.82 170.368 23.7467 169.888 23.68C169.422 23.6133 168.948 23.5267 168.468 23.42C168.002 23.3 167.575 23.1333 167.188 22.92C166.802 22.6933 166.488 22.3933 166.248 22.02C166.008 21.6467 165.888 21.1533 165.888 20.54C165.888 19.86 166.082 19.2733 166.468 18.78C166.855 18.2733 167.395 17.8867 168.088 17.62C168.795 17.34 169.628 17.2 170.588 17.2C171.308 17.2 172.035 17.28 172.768 17.44C173.502 17.6 174.108 17.8267 174.588 18.12L173.628 20.02C173.122 19.7133 172.608 19.5067 172.088 19.4C171.582 19.28 171.075 19.22 170.568 19.22C169.808 19.22 169.242 19.3333 168.868 19.56C168.508 19.7867 168.328 20.0733 168.328 20.42C168.328 20.74 168.448 20.98 168.688 21.14C168.928 21.3 169.242 21.4267 169.628 21.52C170.015 21.6133 170.442 21.6933 170.908 21.76C171.388 21.8133 171.862 21.9 172.328 22.02C172.795 22.14 173.222 22.3067 173.608 22.52C174.008 22.72 174.328 23.0067 174.568 23.38C174.808 23.7533 174.928 24.24 174.928 24.84C174.928 25.5067 174.728 26.0867 174.328 26.58C173.942 27.0733 173.388 27.46 172.668 27.74C171.948 28.0067 171.088 28.14 170.088 28.14ZM183.141 17.2C183.995 17.2 184.755 17.3667 185.421 17.7C186.101 18.0333 186.635 18.5467 187.021 19.24C187.408 19.92 187.601 20.8 187.601 21.88V28H185.101V22.2C185.101 21.2533 184.875 20.5467 184.421 20.08C183.981 19.6133 183.361 19.38 182.561 19.38C181.975 19.38 181.455 19.5 181.001 19.74C180.548 19.98 180.195 20.34 179.941 20.82C179.701 21.2867 179.581 21.88 179.581 22.6V28H177.081V13.16H179.581V20.2L179.041 19.32C179.415 18.64 179.955 18.12 180.661 17.76C181.381 17.3867 182.208 17.2 183.141 17.2ZM190.773 28V17.32H193.273V28H190.773ZM192.033 15.56C191.566 15.56 191.179 15.4133 190.873 15.12C190.579 14.8267 190.433 14.4733 190.433 14.06C190.433 13.6333 190.579 13.28 190.873 13C191.179 12.7067 191.566 12.56 192.033 12.56C192.499 12.56 192.879 12.7 193.173 12.98C193.479 13.2467 193.633 13.5867 193.633 14C193.633 14.44 193.486 14.8133 193.193 15.12C192.899 15.4133 192.513 15.56 192.033 15.56ZM202.474 28.14C201.607 28.14 200.814 27.94 200.094 27.54C199.387 27.14 198.821 26.54 198.394 25.74C197.981 24.9267 197.774 23.9 197.774 22.66C197.774 21.4067 197.974 20.38 198.374 19.58C198.787 18.78 199.347 18.1867 200.054 17.8C200.761 17.4 201.567 17.2 202.474 17.2C203.527 17.2 204.454 17.4267 205.254 17.88C206.067 18.3333 206.707 18.9667 207.174 19.78C207.654 20.5933 207.894 21.5533 207.894 22.66C207.894 23.7667 207.654 24.7333 207.174 25.56C206.707 26.3733 206.067 27.0067 205.254 27.46C204.454 27.9133 203.527 28.14 202.474 28.14ZM196.554 31.88V17.32H198.934V19.84L198.854 22.68L199.054 25.52V31.88H196.554ZM202.194 26C202.794 26 203.327 25.8667 203.794 25.6C204.274 25.3333 204.654 24.9467 204.934 24.44C205.214 23.9333 205.354 23.34 205.354 22.66C205.354 21.9667 205.214 21.3733 204.934 20.88C204.654 20.3733 204.274 19.9867 203.794 19.72C203.327 19.4533 202.794 19.32 202.194 19.32C201.594 19.32 201.054 19.4533 200.574 19.72C200.094 19.9867 199.714 20.3733 199.434 20.88C199.154 21.3733 199.014 21.9667 199.014 22.66C199.014 23.34 199.154 23.9333 199.434 24.44C199.714 24.9467 200.094 25.3333 200.574 25.6C201.054 25.8667 201.594 26 202.194 26Z" fill="white"/>
<path d="M12.4694 12.4297H0V21.1638C0 23.2512 0.466626 25.0914 1.39988 26.6844C2.35484 28.2774 3.67875 29.5225 5.37163 30.4198C7.08621 31.317 9.09379 31.7656 11.3944 31.7656C13.7166 31.7656 15.7242 31.317 17.4171 30.4198C19.11 29.5225 20.423 28.2774 21.3563 26.6844C22.3113 25.0914 22.7887 23.2512 22.7887 21.1638V12.4297H20.7625L18.4589 16.8914V20.9441C18.4589 22.2258 18.1659 23.3336 17.5799 24.2674C17.0156 25.2196 16.2017 25.952 15.1382 26.4647C14.0965 26.9957 12.8485 27.2612 11.3944 27.2612C9.96193 27.2612 8.71398 26.9957 7.6505 26.4647C6.58703 25.952 5.76229 25.2196 5.1763 24.2674C4.61201 23.3336 4.32986 22.2258 4.32986 20.9441V16.8791L10.1721 16.8791L12.4694 12.4297Z" fill="white"/>
<path d="M12.4694 12.4297H0V21.1638C0 23.2512 0.466626 25.0914 1.39988 26.6844C2.35484 28.2774 3.67875 29.5225 5.37163 30.4198C7.08621 31.317 9.09379 31.7656 11.3944 31.7656C13.7166 31.7656 15.7242 31.317 17.4171 30.4198C19.11 29.5225 20.423 28.2774 21.3563 26.6844C22.3113 25.0914 22.7887 23.2512 22.7887 21.1638V12.4297H20.7625L18.4589 16.8914V20.9441C18.4589 22.2258 18.1659 23.3336 17.5799 24.2674C17.0156 25.2196 16.2017 25.952 15.1382 26.4647C14.0965 26.9957 12.8485 27.2612 11.3944 27.2612C9.96193 27.2612 8.71398 26.9957 7.6505 26.4647C6.58703 25.952 5.76229 25.2196 5.1763 24.2674C4.61201 23.3336 4.32986 22.2258 4.32986 20.9441V16.8791L10.1721 16.8791L12.4694 12.4297Z" fill="white"/>
<path d="M10.8203 24.2569C9.80246 23.7343 9.4009 22.4856 9.92344 21.4677L17.6949 6.32913C18.2174 5.31125 19.4662 4.90969 20.4841 5.43223C21.502 5.95476 21.9035 7.20352 21.381 8.2214L13.6095 23.36C13.087 24.3778 11.8382 24.7794 10.8203 24.2569Z" fill="white"/>
<path d="M10.8203 24.2569C9.80246 23.7343 9.4009 22.4856 9.92344 21.4677L17.6949 6.32913C18.2174 5.31125 19.4662 4.90969 20.4841 5.43223C21.502 5.95476 21.9035 7.20352 21.381 8.2214L13.6095 23.36C13.087 24.3778 11.8382 24.7794 10.8203 24.2569Z" fill="white"/>
<path d="M24 2.0717C24 3.21587 23.0725 4.14341 21.9283 4.14341C20.7842 4.14341 19.8566 3.21587 19.8566 2.0717C19.8566 0.927533 20.7842 0 21.9283 0C23.0725 0 24 0.927533 24 2.0717Z" fill="white"/>
<path d="M24 2.0717C24 3.21587 23.0725 4.14341 21.9283 4.14341C20.7842 4.14341 19.8566 3.21587 19.8566 2.0717C19.8566 0.927533 20.7842 0 21.9283 0C23.0725 0 24 0.927533 24 2.0717Z" fill="white"/>
<path d="M56.4601 13.98C56.4601 13.34 56.8534 13.02 57.6401 13.02C58.4268 13.02 58.8201 13.34 58.8201 13.98V27.78C58.8201 28.2467 58.5734 28.5867 58.0801 28.8H58.1001C57.8868 28.8934 57.6601 28.9667 57.4201 29.02C57.1801 29.0734 56.9468 29.1 56.7201 29.1C56.5468 29.1 56.3668 29.08 56.1801 29.04C55.9934 29.0134 55.8134 28.9667 55.6401 28.9C55.4801 28.82 55.3268 28.72 55.1801 28.6C55.0468 28.4667 54.9401 28.3067 54.8601 28.12L50.5201 17.3L49.9801 17.36V28.16C49.9801 28.8 49.5801 29.12 48.7801 29.12C47.9934 29.12 47.6001 28.8 47.6001 28.16V14.38C47.6001 13.8334 47.8401 13.4667 48.3201 13.28C48.7601 13.1067 49.2268 13.02 49.7201 13.02C50.0668 13.02 50.4134 13.0934 50.7601 13.24C51.1201 13.3734 51.3934 13.6334 51.5801 14.02L55.9001 24.86L56.4601 24.8V13.98Z" fill="white"/>
<path d="M63.0793 29.02C62.586 29.02 62.2526 28.8934 62.0793 28.64C61.906 28.3867 61.8193 28.1067 61.8193 27.8V14.32C61.8193 14.0134 61.906 13.74 62.0793 13.5C62.2526 13.2467 62.586 13.12 63.0793 13.12H70.0393C70.5326 13.12 70.7927 13.4534 70.8193 14.12C70.846 14.8 70.586 15.14 70.0393 15.14H64.1793V27H70.3993C70.8927 27 71.146 27.3267 71.1593 27.98C71.186 28.6734 70.9326 29.02 70.3993 29.02H63.0793ZM69.2993 20.74C69.2993 21.2067 69.1327 21.6 68.7993 21.92C68.4793 22.24 68.086 22.4 67.6193 22.4C67.166 22.4 66.7793 22.24 66.4593 21.92C66.1393 21.6 65.9793 21.2067 65.9793 20.74C65.9793 20.2734 66.1393 19.88 66.4593 19.56C66.7793 19.24 67.166 19.08 67.6193 19.08C68.086 19.08 68.4793 19.24 68.7993 19.56C69.1327 19.88 69.2993 20.2734 69.2993 20.74Z" fill="white"/>
<path d="M37 14C40.866 14 44 17.134 44 21C44 24.866 40.866 28 37 28C33.134 28 30 24.866 30 21C30 17.134 33.134 14 37 14Z" stroke="white" stroke-width="2"/>
<path d="M41 21C41 23.2091 39.2091 25 37 25C34.7909 25 33 23.2091 33 21C33 18.7909 34.7909 17 37 17C39.2091 17 41 18.7909 41 21Z" fill="white"/>
</svg>
