<svg width="412" height="146" viewBox="0 0 412 146" fill="none" xmlns="http://www.w3.org/2000/svg">
<path opacity="0.7" d="M207.399 137.053C206.662 137.053 205.963 137.053 204.01 129.271C197.412 128.003 196.836 127.231 196.644 126.971C196.459 126.722 196.38 126.267 196.464 125.971C196.582 125.55 196.858 124.573 204.392 121.535C207.096 114.484 208.009 114.484 208.618 114.484C208.931 114.484 209.364 114.709 209.551 114.961C210.035 115.612 210.474 117.299 211.138 120.003C211.348 120.851 211.599 121.877 211.744 122.324C212.138 122.5 213.013 122.814 213.74 123.074C217.611 124.461 218.61 124.934 218.789 125.853C218.856 126.196 218.681 126.699 218.421 126.932C217.633 127.637 213.886 129.029 211.925 129.729C208.737 136.983 208.058 137.02 207.458 137.051C207.438 137.053 207.416 137.053 207.399 137.053ZM199.159 126.117C200.475 126.498 202.892 127.046 205 127.44C205.382 127.509 205.688 127.799 205.781 128.176C206.32 130.361 207.025 132.85 207.531 134.258C208.262 132.947 209.375 130.608 210.277 128.539C210.388 128.287 210.598 128.091 210.857 128C212.659 127.366 214.695 126.585 215.954 126.033C215.069 125.658 213.853 125.223 213.069 124.941C210.86 124.149 210.443 123.978 210.16 123.599C209.912 123.266 209.759 122.709 209.21 120.477C209.001 119.626 208.68 118.32 208.395 117.35C207.737 118.602 206.811 120.747 206.092 122.645C205.993 122.907 205.79 123.112 205.532 123.215C203.193 124.152 200.538 125.341 199.159 126.117Z" fill="white"/>
<path d="M36.7438 79.8894C36.689 79.8894 36.6315 79.8858 36.5749 79.8757C36.0342 79.7826 35.6717 79.2693 35.7648 78.7287L40.6315 50.3993C40.7237 49.8604 41.2397 49.4942 41.7767 49.5892C42.3173 49.6824 42.6799 50.1956 42.5867 50.7362L37.7201 79.0657C37.6379 79.5488 37.2187 79.8894 36.7438 79.8894Z" fill="#F1F3F6"/>
<path d="M22.4204 68.4437C21.9802 68.4437 21.5775 68.1496 21.4615 67.7012C21.3227 67.1725 21.6405 66.63 22.1702 66.4921L54.4403 58.073C54.9681 57.9278 55.5142 58.2492 55.6512 58.7826C55.79 59.3113 55.4722 59.8538 54.9416 59.9917L22.6716 68.4108C22.5885 68.4336 22.5035 68.4437 22.4204 68.4437Z" fill="#F1F3F6"/>
<path d="M48.9619 75.809C48.697 75.809 48.4331 75.704 48.2368 75.4948L27.6598 53.5142C27.2853 53.1133 27.3063 52.4849 27.7063 52.1114C28.1072 51.7416 28.7356 51.7571 29.1091 52.158L49.6861 74.1387C50.0605 74.5396 50.0395 75.1679 49.6395 75.5414C49.4486 75.7195 49.2048 75.809 48.9619 75.809Z" fill="#F1F3F6"/>
<path d="M42.9855 52.0821C41.296 52.9899 39.191 52.3552 38.2832 50.6666C37.3755 48.9771 38.0102 46.8721 39.6987 45.9644C41.3882 45.0566 43.4932 45.6913 44.401 47.3799C45.3087 49.0694 44.675 51.1744 42.9855 52.0821Z" fill="white"/>
<path d="M41.3454 53.4887C39.697 53.4887 38.1892 52.5874 37.4093 51.1381C36.8449 50.086 36.7235 48.8787 37.0668 47.7354C37.4111 46.5938 38.1792 45.6541 39.2303 45.0906C41.3353 43.9573 44.149 44.8176 45.275 46.9116C45.8385 47.96 45.9599 49.1673 45.6156 50.3107C45.2713 51.4522 44.5042 52.3919 43.4531 52.9554C42.8065 53.3043 42.0769 53.4887 41.3454 53.4887ZM41.339 46.5436C40.928 46.5436 40.5335 46.6422 40.1682 46.8376C39.5846 47.1518 39.1572 47.6733 38.9664 48.308C38.7755 48.9417 38.8422 49.6121 39.1563 50.1974C39.7846 51.3655 41.3344 51.8467 42.5143 51.2066C43.0988 50.8924 43.5252 50.3709 43.7161 49.7362C43.9079 49.1025 43.8403 48.4321 43.5271 47.8486C43.0942 47.044 42.2558 46.5436 41.339 46.5436Z" fill="#F1F3F6"/>
<path d="M38.9334 82.9759C37.2439 83.8836 35.1389 83.2489 34.2312 81.5604C33.3234 79.8709 33.9572 77.7659 35.6467 76.8581C37.3362 75.9503 39.4412 76.5842 40.3489 78.2736C41.2567 79.9631 40.6229 82.0681 38.9334 82.9759Z" fill="white"/>
<path d="M37.2933 84.3811C35.644 84.3811 34.1371 83.4798 33.3582 82.0287C32.1938 79.8625 33.0093 77.1492 35.1773 75.983C37.2878 74.8497 40.0978 75.7082 41.2229 77.8049C42.3873 79.9711 41.5718 82.6844 39.4038 83.8506C38.7545 84.1994 38.0257 84.3811 37.2933 84.3811ZM37.2869 77.4369C36.875 77.4369 36.4814 77.5356 36.1152 77.7319C34.9107 78.3794 34.4577 79.8862 35.1052 81.0917C35.7335 82.2597 37.2832 82.7346 38.4641 82.1035C39.6686 81.4561 40.1216 79.9492 39.475 78.7438C39.0421 77.9365 38.2038 77.4369 37.2869 77.4369Z" fill="#F1F3F6"/>
<path d="M24.994 69.7904C23.6378 71.1465 21.4397 71.1465 20.0835 69.7904C18.7274 68.4342 18.7274 66.2361 20.0835 64.8799C21.4397 63.5238 23.6378 63.5238 24.994 64.8799C26.3501 66.2361 26.3501 68.4342 24.994 69.7904Z" fill="white"/>
<path d="M22.5383 71.8002C21.3456 71.8002 20.2232 71.3354 19.3812 70.4925C17.6415 68.75 17.6415 65.9199 19.3812 64.1775C21.0679 62.4916 24.0067 62.4916 25.6953 64.1775C26.5391 65.0204 27.0031 66.1418 27.0031 67.3336C27.0031 68.5272 26.5391 69.6487 25.6953 70.4916C24.8524 71.3354 23.73 71.8002 22.5383 71.8002ZM22.5383 64.8551C21.8743 64.8551 21.2515 65.1126 20.7839 65.5802C19.8168 66.5473 19.8168 68.1226 20.7839 69.0888C21.7209 70.0267 23.3547 70.0267 24.2926 69.0888C24.762 68.6203 25.0195 67.9975 25.0195 67.3336C25.0195 66.6706 24.762 66.0487 24.2926 65.5802C23.8241 65.1126 23.2013 64.8551 22.5383 64.8551Z" fill="#F1F3F6"/>
<path d="M57.0291 60.4368C55.673 61.793 53.4748 61.793 52.1187 60.4368C50.7625 59.0807 50.7625 56.8825 52.1187 55.5264C53.4748 54.1702 55.673 54.1702 57.0291 55.5264C58.3853 56.8816 58.3853 59.0807 57.0291 60.4368Z" fill="white"/>
<path d="M54.5745 62.4449C53.3818 62.4449 52.2613 61.9819 51.4183 61.139C50.5745 60.2961 50.1106 59.1738 50.1106 57.9829C50.1106 56.7893 50.5745 55.6669 51.4183 54.8249C53.1042 53.1391 56.0457 53.1391 57.7315 54.8249C58.5754 55.6678 59.0393 56.7902 59.0393 57.9829C59.0393 59.1747 58.5754 60.2961 57.7315 61.139C56.8877 61.9819 55.7672 62.4449 54.5745 62.4449ZM54.5745 55.4998C53.9115 55.4998 53.2896 55.7573 52.8211 56.2267C52.3517 56.6961 52.0941 57.3181 52.0941 57.982C52.0941 58.645 52.3517 59.2669 52.8211 59.7354C53.7571 60.6696 55.3927 60.6696 56.3279 59.7354C56.7973 59.266 57.0548 58.6441 57.0548 57.982C57.0548 57.3171 56.7973 56.6952 56.3279 56.2267C55.8594 55.7583 55.2375 55.4998 54.5745 55.4998Z" fill="#F1F3F6"/>
<path d="M29.4369 54.1224C28.0807 55.4786 25.8825 55.4786 24.5264 54.1224C23.1702 52.7662 23.1702 50.5681 24.5264 49.2119C25.8825 47.8558 28.0807 47.8558 29.4369 49.2119C30.793 50.5681 30.793 52.7662 29.4369 54.1224Z" fill="white"/>
<path d="M26.9821 56.1319C25.7895 56.1319 24.668 55.6671 23.8251 54.8241C22.0863 53.0844 22.0863 50.2516 23.8251 48.511C25.5109 46.827 28.4534 46.8233 30.1392 48.511C31.878 50.2507 31.878 53.0835 30.1392 54.8241C29.2954 55.6671 28.1739 56.1319 26.9821 56.1319ZM26.9821 49.1877C26.3191 49.1877 25.6963 49.4452 25.2278 49.9146C24.2616 50.8817 24.2616 52.4552 25.2278 53.4214C26.1648 54.3593 27.7968 54.3593 28.7356 53.4214C29.7018 52.4543 29.7018 50.8808 28.7356 49.9146C28.2662 49.4452 27.6433 49.1877 26.9821 49.1877Z" fill="#F1F3F6"/>
<path d="M52.7035 77.39C51.3473 78.7461 49.1491 78.7461 47.793 77.39C46.4368 76.0338 46.4368 73.8357 47.793 72.4795C49.1491 71.1234 51.3473 71.1234 52.7035 72.4795C54.0596 73.8348 54.0596 76.0338 52.7035 77.39Z" fill="white"/>
<path d="M50.2486 79.3986C49.0559 79.3986 47.9353 78.9337 47.0924 78.0908C46.2486 77.2479 45.7847 76.1264 45.7847 74.9347C45.7847 73.7411 46.2495 72.6205 47.0924 71.7785C48.7783 70.0945 51.7189 70.0909 53.4056 71.7785C54.2485 72.6215 54.7134 73.7411 54.7134 74.9347C54.7134 76.1264 54.2494 77.2479 53.4056 78.0908C52.5618 78.9337 51.4403 79.3986 50.2486 79.3986ZM50.2486 72.4543C49.5856 72.4543 48.9636 72.7119 48.4951 73.1813C48.0257 73.6498 47.7682 74.2726 47.7682 74.9347C47.7682 75.5977 48.0257 76.2196 48.4951 76.6881C49.433 77.626 51.0641 77.626 52.002 76.6881C52.4714 76.2196 52.7289 75.5968 52.7289 74.9347C52.7289 74.2717 52.4714 73.6498 52.002 73.1813C51.5335 72.7119 50.9107 72.4543 50.2486 72.4543Z" fill="#F1F3F6"/>
<g opacity="0.7">
<path d="M89.1579 31.4521C89.1296 31.4521 89.1 31.4502 89.0708 31.445C88.7921 31.397 88.6053 31.1324 88.6533 30.8538L91.1618 16.2514C91.2093 15.9737 91.4753 15.7849 91.7521 15.8339C92.0307 15.8819 92.2176 16.1465 92.1696 16.4251L89.6611 31.0275C89.6187 31.2765 89.4027 31.4521 89.1579 31.4521Z" fill="white"/>
<path d="M81.7755 25.5525C81.5486 25.5525 81.341 25.4009 81.2812 25.1698C81.2096 24.8973 81.3735 24.6176 81.6465 24.5466L98.28 20.207C98.5521 20.1321 98.8336 20.2978 98.9042 20.5727C98.9757 20.8453 98.8119 21.1249 98.5384 21.1959L81.9049 25.5356C81.8621 25.5473 81.8183 25.5525 81.7755 25.5525Z" fill="white"/>
<path d="M95.4562 29.3486C95.3197 29.3486 95.1837 29.2945 95.0825 29.1867L84.4761 17.8568C84.2831 17.6502 84.2939 17.3263 84.5001 17.1338C84.7068 16.9432 85.0306 16.9512 85.2231 17.1578L95.8295 28.4877C96.0225 28.6943 96.0117 29.0182 95.8055 29.2107C95.7071 29.3025 95.5814 29.3486 95.4562 29.3486Z" fill="white"/>
<path d="M92.3755 17.1188C91.5046 17.5867 90.4196 17.2595 89.9517 16.3891C89.4838 15.5183 89.811 14.4333 90.6813 13.9654C91.5522 13.4975 92.6372 13.8246 93.1051 14.695C93.573 15.5658 93.2463 16.6509 92.3755 17.1188Z" fill="white"/>
<path d="M91.5301 17.8435C90.6804 17.8435 89.9032 17.3789 89.5012 16.6319C89.2103 16.0896 89.1477 15.4673 89.3247 14.878C89.5022 14.2896 89.8981 13.8052 90.4399 13.5147C91.5249 12.9306 92.9752 13.374 93.5556 14.4534C93.846 14.9938 93.9086 15.6161 93.7312 16.2054C93.5537 16.7938 93.1583 17.2782 92.6165 17.5686C92.2832 17.7484 91.9071 17.8435 91.5301 17.8435ZM91.5268 14.2637C91.3149 14.2637 91.1116 14.3145 90.9233 14.4152C90.6225 14.5772 90.4022 14.846 90.3038 15.1731C90.2054 15.4998 90.2398 15.8453 90.4017 16.147C90.7256 16.7491 91.5244 16.9972 92.1326 16.6672C92.4338 16.5053 92.6537 16.2365 92.7521 15.9093C92.8509 15.5826 92.8161 15.2371 92.6546 14.9363C92.4315 14.5216 91.9994 14.2637 91.5268 14.2637Z" fill="white"/>
<path d="M90.2869 33.0427C89.4161 33.5106 88.3311 33.1834 87.8632 32.3131C87.3953 31.4422 87.722 30.3572 88.5928 29.8893C89.4637 29.4214 90.5487 29.7481 91.0166 30.6189C91.4845 31.4898 91.1578 32.5748 90.2869 33.0427Z" fill="white"/>
<path d="M89.4413 33.7665C88.5912 33.7665 87.8145 33.3019 87.413 32.554C86.8128 31.4374 87.2332 30.0389 88.3507 29.4378C89.4385 28.8536 90.8869 29.2961 91.4669 30.3769C92.067 31.4934 91.6467 32.8919 90.5292 33.493C90.1945 33.6729 89.8189 33.7665 89.4413 33.7665ZM89.438 30.1872C89.2257 30.1872 89.0229 30.238 88.8341 30.3392C88.2132 30.6729 87.9797 31.4496 88.3135 32.071C88.6373 32.673 89.4362 32.9178 90.0448 32.5926C90.6657 32.2588 90.8992 31.4821 90.5659 30.8608C90.3428 30.4446 89.9106 30.1872 89.438 30.1872Z" fill="white"/>
<path d="M83.1017 26.2463C82.4027 26.9453 81.2697 26.9453 80.5707 26.2463C79.8716 25.5472 79.8716 24.4142 80.5707 23.7152C81.2697 23.0162 82.4027 23.0162 83.1017 23.7152C83.8008 24.4142 83.8008 25.5472 83.1017 26.2463Z" fill="white"/>
<path d="M81.836 27.282C81.2212 27.282 80.6427 27.0424 80.2087 26.608C79.312 25.7098 79.312 24.251 80.2087 23.3529C81.0781 22.4839 82.5929 22.4839 83.4633 23.3529C83.8982 23.7874 84.1373 24.3654 84.1373 24.9797C84.1373 25.5949 83.8982 26.173 83.4633 26.6075C83.0288 27.0424 82.4503 27.282 81.836 27.282ZM81.836 23.7022C81.4938 23.7022 81.1727 23.8349 80.9317 24.0759C80.4332 24.5744 80.4332 25.3864 80.9317 25.8844C81.4147 26.3679 82.2568 26.3679 82.7402 25.8844C82.9822 25.643 83.1149 25.3219 83.1149 24.9797C83.1149 24.638 82.9822 24.3174 82.7402 24.0759C82.4988 23.8349 82.1777 23.7022 81.836 23.7022Z" fill="white"/>
<path d="M99.6142 21.425C98.9152 22.124 97.7821 22.124 97.0831 21.425C96.3841 20.726 96.3841 19.5929 97.0831 18.8939C97.7821 18.1949 98.9152 18.1949 99.6142 18.8939C100.313 19.5925 100.313 20.726 99.6142 21.425Z" fill="white"/>
<path d="M98.3492 22.4598C97.7345 22.4598 97.1569 22.2212 96.7224 21.7867C96.2875 21.3522 96.0483 20.7737 96.0483 20.1599C96.0483 19.5446 96.2875 18.9661 96.7224 18.5321C97.5914 17.6631 99.1076 17.6631 99.9765 18.5321C100.411 18.9666 100.651 19.5451 100.651 20.1599C100.651 20.7742 100.411 21.3522 99.9765 21.7867C99.5416 22.2212 98.964 22.4598 98.3492 22.4598ZM98.3492 18.8799C98.0075 18.8799 97.6869 19.0127 97.4455 19.2547C97.2035 19.4966 97.0708 19.8172 97.0708 20.1594C97.0708 20.5011 97.2035 20.8217 97.4455 21.0632C97.9279 21.5447 98.771 21.5447 99.253 21.0632C99.495 20.8212 99.6277 20.5007 99.6277 20.1594C99.6277 19.8167 99.495 19.4961 99.253 19.2547C99.0116 19.0132 98.691 18.8799 98.3492 18.8799Z" fill="white"/>
<path d="M85.392 18.1701C84.693 18.8691 83.56 18.8691 82.8609 18.1701C82.1619 17.4711 82.1619 16.338 82.8609 15.639C83.56 14.94 84.693 14.94 85.392 15.639C86.0911 16.338 86.0911 17.4711 85.392 18.1701Z" fill="white"/>
<path d="M84.1269 19.2059C83.5121 19.2059 82.9341 18.9663 82.4996 18.5318C81.6033 17.6351 81.6033 16.1749 82.4996 15.2777C83.3685 14.4097 84.8852 14.4078 85.7542 15.2777C86.6504 16.1744 86.6504 17.6346 85.7542 18.5318C85.3192 18.9663 84.7412 19.2059 84.1269 19.2059ZM84.1269 15.6265C83.7851 15.6265 83.4641 15.7592 83.2226 16.0012C82.7246 16.4997 82.7246 17.3108 83.2226 17.8088C83.7056 18.2922 84.5468 18.2922 85.0307 17.8088C85.5287 17.3103 85.5287 16.4992 85.0307 16.0012C84.7887 15.7592 84.4677 15.6265 84.1269 15.6265Z" fill="white"/>
<path d="M97.3845 30.1633C96.6854 30.8623 95.5524 30.8623 94.8534 30.1633C94.1543 29.4642 94.1543 28.3312 94.8534 27.6322C95.5524 26.9332 96.6854 26.9332 97.3845 27.6322C98.0835 28.3307 98.0835 29.4642 97.3845 30.1633Z" fill="white"/>
<path d="M96.1193 31.1991C95.5045 31.1991 94.9269 30.9595 94.4924 30.525C94.0575 30.0905 93.8184 29.5125 93.8184 28.8982C93.8184 28.2829 94.058 27.7054 94.4924 27.2713C95.3614 26.4033 96.8771 26.4014 97.7466 27.2713C98.181 27.7058 98.4206 28.2829 98.4206 28.8982C98.4206 29.5125 98.1815 30.0905 97.7466 30.525C97.3116 30.9595 96.7336 31.1991 96.1193 31.1991ZM96.1193 27.6197C95.7775 27.6197 95.457 27.7524 95.2155 27.9944C94.9735 28.2359 94.8408 28.5569 94.8408 28.8982C94.8408 29.2399 94.9735 29.5605 95.2155 29.802C95.6989 30.2854 96.5396 30.2854 97.0231 29.802C97.265 29.5605 97.3977 29.2394 97.3977 28.8982C97.3977 28.5564 97.265 28.2359 97.0231 27.9944C96.7816 27.7524 96.4605 27.6197 96.1193 27.6197Z" fill="white"/>
</g>
<path d="M386.767 60.7948C389.255 63.2829 393.326 63.2829 395.814 60.7948C398.302 58.3067 398.302 54.2357 395.814 51.748L391.844 47.7783L382.797 56.8255L386.767 60.7948Z" fill="#E75634"/>
<path d="M391.844 47.7773L386.212 42.1459C383.724 39.6578 379.653 39.6578 377.165 42.1459C374.677 44.634 374.677 48.7049 377.165 51.193L382.797 56.8245L391.844 47.7773Z" fill="white"/>
<path d="M382.798 57.3367C382.662 57.3367 382.532 57.2829 382.436 57.1867L376.804 51.5549C374.111 48.8607 374.111 44.4776 376.804 41.7842C378.104 40.4836 379.839 39.7676 381.69 39.7676C383.541 39.7676 385.276 40.4832 386.576 41.7842L392.207 47.4149C392.406 47.6147 392.406 47.9389 392.207 48.1388L383.16 57.1867C383.064 57.2825 382.934 57.3367 382.798 57.3367ZM381.69 40.7918C380.113 40.7918 378.635 41.4018 377.528 42.5085C375.233 44.8031 375.233 48.536 377.528 50.8314L382.798 56.1013L391.121 47.7772L385.852 42.5085C384.745 41.4015 383.267 40.7918 381.69 40.7918Z" fill="#241726"/>
<path d="M0.455811 18.2116C0.455811 21.3395 3.01489 23.8986 6.14282 23.8986C9.27074 23.8986 11.8298 21.3395 11.8298 18.2116V13.2212H0.455811V18.2116Z" fill="#E75634"/>
<path d="M11.8296 13.221V6.14159C11.8296 3.01367 9.2705 0.45459 6.14257 0.45459C3.01465 0.45459 0.455566 3.01367 0.455566 6.14159V13.221H11.8296Z" fill="white"/>
<path d="M11.8294 13.6766H0.455072C0.203457 13.6766 0 13.4731 0 13.2215V6.14208C0 2.75486 2.75521 0 6.14208 0C9.52895 0 12.2842 2.75521 12.2842 6.14208V13.2219C12.2845 13.4731 12.081 13.6766 11.8294 13.6766ZM0.910145 12.7664H11.3744V6.14208C11.3744 3.25705 9.02711 0.910145 6.14243 0.910145C3.2574 0.910145 0.910494 3.2574 0.910494 6.14208L0.910145 12.7664Z" fill="#241726"/>
<path d="M158.842 54.4069C156.209 57.1658 156.312 61.577 159.071 64.21C161.829 66.8429 166.241 66.7399 168.874 63.9811L173.074 59.5795L163.042 50.0054L158.842 54.4069Z" fill="#E75634"/>
<path d="M173.072 59.5798L179.031 53.3357C181.664 50.5769 181.561 46.1656 178.803 43.5327C176.044 40.8997 171.632 41.0027 169 43.7616L163.04 50.0056L173.072 59.5798Z" fill="white"/>
<path d="M172.69 59.9808L162.658 50.4063C162.436 50.1945 162.428 49.8438 162.639 49.6219L168.599 43.3778C171.45 40.3902 176.199 40.2797 179.186 43.1306C182.173 45.9815 182.284 50.7308 179.433 53.7181L173.474 59.9625C173.263 60.1844 172.912 60.1926 172.69 59.9808ZM163.825 49.9866L173.055 58.7949L178.631 52.9522C181.059 50.4076 180.965 46.3618 178.42 43.9336C175.876 41.5051 171.83 41.5999 169.402 44.1442L163.825 49.9866Z" fill="#241726"/>
<path d="M99.2566 132.317C98.5785 132.026 97.9373 131.751 99.2102 123.831C93.6482 120.063 93.4241 119.126 93.3489 118.811C93.2773 118.51 93.3836 118.06 93.5779 117.821C93.8535 117.482 94.4914 116.692 102.613 116.873C107.878 111.46 108.716 111.819 109.275 112.059C109.563 112.183 109.872 112.562 109.945 112.865C110.134 113.651 109.871 115.375 109.418 118.117C109.275 118.981 109.101 120.026 109.057 120.494C109.35 120.812 110.031 121.446 110.596 121.971C113.606 124.772 114.337 125.6 114.139 126.517C114.066 126.856 113.706 127.25 113.376 127.362C112.376 127.7 108.382 127.501 106.303 127.37C100.512 132.779 99.8741 132.545 99.3105 132.337C99.2927 132.332 99.2725 132.324 99.2566 132.317ZM95.998 119.017C97.056 119.887 99.0602 121.346 100.843 122.538C101.166 122.756 101.334 123.139 101.27 123.523C100.904 125.742 100.57 128.308 100.481 129.8C101.668 128.885 103.614 127.173 105.26 125.626C105.461 125.438 105.731 125.342 106.005 125.36C107.911 125.488 110.091 125.574 111.465 125.562C110.799 124.869 109.855 123.99 109.245 123.422C107.527 121.822 107.211 121.501 107.101 121.041C107.005 120.639 107.084 120.066 107.46 117.791C107.602 116.931 107.822 115.605 107.942 114.604C106.845 115.492 105.146 117.101 103.737 118.562C103.543 118.763 103.275 118.872 102.997 118.867C100.48 118.803 97.5699 118.851 95.998 119.017Z" fill="white"/>
<path d="M132.691 133.695C132.32 133.536 131.969 133.385 132.666 129.046C129.619 126.981 129.496 126.468 129.455 126.295C129.415 126.13 129.474 125.884 129.58 125.753C129.731 125.567 130.081 125.134 134.53 125.233C137.415 122.267 137.874 122.465 138.181 122.596C138.338 122.664 138.507 122.871 138.548 123.038C138.651 123.468 138.507 124.413 138.259 125.915C138.18 126.388 138.085 126.961 138.061 127.218C138.222 127.391 138.595 127.739 138.904 128.026C140.553 129.561 140.954 130.015 140.845 130.517C140.805 130.703 140.608 130.919 140.427 130.98C139.88 131.166 137.691 131.056 136.552 130.985C133.379 133.948 133.03 133.82 132.721 133.706C132.711 133.704 132.7 133.699 132.691 133.695ZM130.906 126.408C131.486 126.885 132.584 127.684 133.561 128.338C133.738 128.457 133.829 128.667 133.795 128.877C133.594 130.093 133.411 131.499 133.362 132.316C134.013 131.815 135.079 130.877 135.981 130.029C136.091 129.926 136.239 129.873 136.389 129.883C137.433 129.954 138.627 130 139.38 129.994C139.016 129.614 138.498 129.133 138.164 128.822C137.223 127.945 137.05 127.769 136.989 127.517C136.937 127.297 136.98 126.983 137.186 125.737C137.264 125.265 137.385 124.539 137.45 123.99C136.849 124.477 135.918 125.358 135.146 126.159C135.04 126.269 134.893 126.328 134.741 126.326C133.361 126.291 131.767 126.317 130.906 126.408Z" fill="white"/>
<path d="M120.008 72.7821C119.636 72.6227 119.285 72.4719 119.982 68.1327C116.935 66.0682 116.812 65.5549 116.771 65.382C116.732 65.2171 116.79 64.9709 116.896 64.8396C117.047 64.654 117.397 64.2213 121.846 64.3203C124.731 61.3544 125.191 61.5515 125.497 61.6829C125.655 61.7506 125.824 61.9582 125.864 62.1246C125.967 62.555 125.823 63.4994 125.575 65.0018C125.496 65.4751 125.401 66.0479 125.377 66.3044C125.538 66.4784 125.911 66.8258 126.221 67.1133C127.87 68.6479 128.27 69.1018 128.162 69.6042C128.122 69.7901 127.924 70.006 127.743 70.0672C127.196 70.2525 125.007 70.1433 123.868 70.0714C120.695 73.0354 120.346 72.9071 120.037 72.7931C120.027 72.7906 120.016 72.7858 120.008 72.7821ZM118.222 65.4952C118.802 65.9715 119.9 66.7711 120.877 67.4244C121.054 67.5434 121.146 67.7537 121.111 67.9637C120.91 69.1796 120.727 70.5858 120.678 71.4032C121.329 70.9017 122.395 69.9637 123.297 69.1163C123.407 69.0133 123.555 68.9602 123.705 68.9703C124.749 69.0405 125.943 69.0874 126.696 69.0811C126.332 68.7014 125.814 68.2196 125.48 67.9085C124.539 67.0319 124.366 66.8559 124.305 66.6039C124.253 66.3837 124.296 66.0696 124.502 64.8235C124.58 64.3522 124.701 63.6254 124.766 63.0769C124.165 63.5639 123.235 64.4451 122.462 65.2457C122.356 65.3559 122.209 65.4154 122.057 65.4126C120.678 65.3777 119.083 65.4041 118.222 65.4952Z" fill="white"/>
<path d="M353.834 136.045C353.357 136.04 352.973 135.649 352.975 135.171C352.978 134.694 353.37 134.306 353.849 134.309C355.906 134.321 357.203 134.18 357.216 134.178C357.698 134.116 358.122 134.468 358.176 134.943C358.229 135.42 357.887 135.849 357.411 135.904C357.355 135.909 356.008 136.059 353.838 136.046C353.836 136.046 353.835 136.046 353.834 136.045ZM350.361 135.887C350.339 135.886 350.319 135.886 350.297 135.884C349.111 135.785 347.927 135.638 346.778 135.447C346.305 135.369 345.985 134.921 346.063 134.449C346.141 133.975 346.589 133.661 347.061 133.734C348.164 133.917 349.301 134.059 350.442 134.153C350.919 134.194 351.274 134.612 351.234 135.091C351.197 135.547 350.812 135.892 350.361 135.887ZM343.509 134.75C343.441 134.749 343.372 134.74 343.303 134.722C342.134 134.425 340.989 134.074 339.902 133.684C339.451 133.522 339.217 133.024 339.38 132.573C339.543 132.12 340.044 131.894 340.49 132.049C341.526 132.423 342.616 132.756 343.732 133.041C344.197 133.158 344.478 133.631 344.359 134.096C344.258 134.492 343.9 134.754 343.509 134.75ZM336.987 132.386C336.863 132.385 336.737 132.356 336.617 132.297C335.532 131.768 334.484 131.177 333.503 130.542C333.101 130.282 332.986 129.743 333.247 129.34C333.507 128.936 334.046 128.825 334.447 129.084C335.37 129.683 336.356 130.239 337.379 130.737C337.809 130.949 337.988 131.468 337.778 131.899C337.625 132.209 337.312 132.39 336.987 132.386ZM331.183 128.61C330.988 128.608 330.791 128.54 330.63 128.402C329.721 127.626 328.859 126.78 328.07 125.89C327.752 125.53 327.785 124.982 328.143 124.665C328.501 124.347 329.05 124.38 329.369 124.738C330.104 125.568 330.908 126.357 331.756 127.082C332.12 127.392 332.164 127.94 331.853 128.305C331.679 128.509 331.432 128.613 331.183 128.61ZM326.597 123.434C326.319 123.431 326.048 123.296 325.883 123.047C325.231 122.068 324.633 121.024 324.103 119.941C323.892 119.511 324.071 118.991 324.502 118.78C324.928 118.565 325.45 118.747 325.663 119.178C326.159 120.191 326.719 121.17 327.328 122.086C327.594 122.484 327.486 123.024 327.087 123.289C326.936 123.389 326.764 123.436 326.597 123.434ZM323.544 117.231C323.188 117.227 322.857 117.003 322.733 116.649C322.354 115.558 322.022 114.408 321.747 113.231C321.639 112.764 321.929 112.298 322.396 112.189C322.861 112.078 323.33 112.369 323.439 112.837C323.7 113.955 324.014 115.046 324.373 116.077C324.531 116.53 324.292 117.026 323.838 117.184C323.741 117.215 323.641 117.232 323.544 117.231ZM321.956 110.494C321.533 110.489 321.166 110.176 321.106 109.745C320.99 108.905 320.897 108.039 320.828 107.144L320.765 106.223C320.736 105.745 321.1 105.333 321.579 105.304C322.066 105.272 322.47 105.641 322.498 106.12L322.559 107.01C322.625 107.868 322.716 108.699 322.827 109.506C322.892 109.981 322.561 110.42 322.085 110.485C322.041 110.491 321.998 110.494 321.956 110.494ZM321.559 103.568C321.555 103.568 321.551 103.568 321.547 103.568C321.068 103.556 320.688 103.158 320.7 102.679C320.73 101.458 320.819 100.266 320.963 99.1328C321.023 98.6573 321.454 98.3296 321.933 98.3804C322.409 98.4416 322.745 98.876 322.685 99.3516C322.549 100.425 322.465 101.559 322.436 102.721C322.425 103.196 322.033 103.573 321.559 103.568ZM322.461 96.7025C322.392 96.7017 322.323 96.6922 322.253 96.6746C321.79 96.556 321.51 96.0831 321.629 95.6185C321.937 94.4184 322.326 93.2696 322.784 92.2078C322.975 91.7672 323.486 91.5643 323.925 91.7561C324.366 91.9456 324.569 92.4568 324.378 92.8975C323.955 93.8765 323.596 94.937 323.31 96.051C323.209 96.4462 322.851 96.7068 322.461 96.7025ZM336.791 94.8378C336.377 94.8332 335.96 94.8063 335.539 94.7577C335.063 94.7029 334.721 94.2724 334.777 93.7967C334.831 93.3211 335.25 92.9709 335.738 93.0338C336.831 93.1577 337.909 93.1105 338.901 92.8904C339.372 92.775 339.833 93.0789 339.938 93.5475C340.042 94.0154 339.747 94.4796 339.28 94.5831C338.483 94.7614 337.646 94.8472 336.791 94.8378ZM332.274 93.9098C332.172 93.9087 332.068 93.8892 331.967 93.8505C330.87 93.4197 329.782 92.8515 328.734 92.1615C328.334 91.8974 328.223 91.3592 328.486 90.9585C328.749 90.5579 329.288 90.4471 329.689 90.7105C330.636 91.3346 331.615 91.8473 332.601 92.2329C333.046 92.4088 333.266 92.9115 333.091 93.3594C332.957 93.7032 332.624 93.9137 332.274 93.9098ZM342.24 93.2221C341.97 93.2191 341.705 93.0907 341.538 92.8516C341.263 92.4602 341.358 91.9186 341.75 91.6433C342.587 91.0571 343.324 90.3005 343.943 89.3939C344.212 88.9981 344.752 88.8946 345.149 89.1667C345.545 89.4372 345.647 89.9777 345.376 90.3735C344.64 91.4537 343.755 92.3598 342.746 93.0655C342.593 93.174 342.415 93.224 342.24 93.2221ZM325.22 90.3728C325.057 90.371 324.892 90.3236 324.747 90.2253C324.348 89.958 324.242 89.4198 324.509 89.0208C324.58 88.9161 324.652 88.8122 324.725 88.7076C324.295 88.2345 323.882 87.7417 323.488 87.2308C323.197 86.8496 323.267 86.3061 323.647 86.0131C324.026 85.7208 324.572 85.7907 324.865 86.1703C325.167 86.5652 325.483 86.9467 325.81 87.3155C326.141 86.9323 326.486 86.5686 326.844 86.2217C327.189 85.8867 327.739 85.8991 328.072 86.2416C328.405 86.5857 328.396 87.1354 328.052 87.4688C327.692 87.8157 327.347 88.185 327.019 88.573C327.044 88.5989 327.071 88.6231 327.097 88.6466C327.445 88.9756 327.46 89.5256 327.129 89.8744C326.82 90.2034 326.316 90.237 325.968 89.9631C325.963 89.9718 325.958 89.9797 325.953 89.9885C325.782 90.2415 325.503 90.3759 325.22 90.3728ZM345.506 87.4869C345.108 87.4825 344.752 87.2037 344.666 86.7976C344.456 85.7948 343.635 85.0993 342.984 84.6918C342.578 84.438 342.453 83.9028 342.708 83.4949C342.962 83.0893 343.5 82.9658 343.904 83.2196C345.248 84.0599 346.099 85.1736 346.366 86.4392C346.464 86.9085 346.164 87.3695 345.695 87.4674C345.631 87.4811 345.569 87.4876 345.506 87.4869ZM330.184 85.6024C329.893 85.5992 329.61 85.4506 329.449 85.182C329.202 84.7709 329.334 84.2378 329.744 83.9898C330.785 83.3635 331.906 82.8525 333.074 82.4698C333.533 82.327 334.021 82.5697 334.169 83.026C334.318 83.48 334.069 83.9711 333.614 84.1203C332.569 84.4612 331.57 84.9185 330.64 85.478C330.497 85.5635 330.339 85.6041 330.184 85.6024ZM322.256 84.6752C321.957 84.6719 321.667 84.5129 321.509 84.2331C320.931 83.2078 320.41 82.1201 319.962 80.9996C319.785 80.5549 320.002 80.0491 320.447 79.8726C320.891 79.6913 321.399 79.9103 321.575 80.3565C321.993 81.4039 322.48 82.4218 323.02 83.3819C323.256 83.7984 323.108 84.329 322.691 84.5633C322.553 84.6417 322.404 84.6768 322.256 84.6752ZM340.194 83.6374C340.145 83.6369 340.097 83.6331 340.049 83.6238C339.031 83.44 337.94 83.3872 336.812 83.4811C336.325 83.5165 335.915 83.1627 335.877 82.686C335.839 82.2078 336.194 81.7889 336.672 81.7503C337.953 81.6477 339.191 81.7037 340.357 81.9147C340.828 81.9998 341.142 82.4524 341.057 82.9229C340.98 83.3456 340.61 83.642 340.194 83.6374ZM319.675 78.2499C319.294 78.2457 318.947 77.9894 318.845 77.6015C318.67 76.9315 318.515 76.2409 318.382 75.5347L318.121 74.1397C318.032 73.6689 318.343 73.2144 318.814 73.1269C319.29 73.0323 319.738 73.3472 319.827 73.8197L320.088 75.2146C320.212 75.8809 320.359 76.5298 320.525 77.1629C320.646 77.6253 320.369 78.1001 319.905 78.2229C319.829 78.2412 319.751 78.2507 319.675 78.2499ZM318.319 71.4273C317.916 71.4229 317.557 71.1361 317.478 70.7244C317.271 69.6554 317.047 68.5173 316.799 67.3239C316.702 66.853 317.003 66.3936 317.472 66.2973C317.938 66.1969 318.4 66.5009 318.498 66.9695C318.748 68.1725 318.974 69.3177 319.182 70.3932C319.273 70.8641 318.965 71.3202 318.494 71.4117C318.435 71.4238 318.377 71.428 318.319 71.4273ZM316.905 64.6129C316.512 64.6086 316.159 64.3354 316.069 63.9356C315.822 62.8429 315.558 61.7189 315.273 60.5666C315.158 60.1027 315.442 59.6311 315.907 59.5156C316.373 59.4024 316.843 59.6857 316.958 60.1513C317.247 61.314 317.514 62.4516 317.761 63.5547C317.867 64.0218 317.573 64.4868 317.106 64.592C317.039 64.6072 316.971 64.6136 316.905 64.6129ZM315.231 57.8596C314.853 57.8554 314.507 57.6023 314.403 57.22C314.105 56.1267 313.787 55.0172 313.45 53.8995C313.312 53.4417 313.572 52.9563 314.03 52.8191C314.492 52.6716 314.974 52.9398 315.112 53.3992C315.454 54.5305 315.775 55.6528 316.078 56.7637C316.204 57.2262 315.931 57.7035 315.469 57.8286C315.39 57.8509 315.309 57.8604 315.231 57.8596ZM313.219 51.2024C312.86 51.1984 312.526 50.9694 312.405 50.6101C312.043 49.5257 311.661 48.4419 311.258 47.3586C311.09 46.9109 311.318 46.41 311.767 46.2415C312.214 46.077 312.716 46.3015 312.884 46.7525C313.295 47.8526 313.684 48.9572 314.054 50.0577C314.205 50.514 313.96 51.0044 313.504 51.1568C313.41 51.1893 313.314 51.2034 313.219 51.2024ZM310.789 44.694C310.453 44.6903 310.134 44.4902 309.997 44.1611C309.554 43.1014 309.091 42.0518 308.605 41.0124C308.401 40.5795 308.588 40.0629 309.022 39.8591C309.459 39.6554 309.974 39.8424 310.176 40.277C310.674 41.3373 311.148 42.4101 311.599 43.4907C311.784 43.9339 311.575 44.4414 311.133 44.6267C311.019 44.6742 310.903 44.6953 310.789 44.694ZM307.827 38.4068C307.52 38.4034 307.224 38.2371 307.069 37.9477C306.53 36.9365 305.965 35.9418 305.374 34.9723C305.125 34.5644 305.254 34.0297 305.663 33.7801C306.072 33.5288 306.607 33.6578 306.856 34.0697C307.465 35.0665 308.046 36.0886 308.601 37.1303C308.828 37.5532 308.667 38.0788 308.244 38.3051C308.111 38.3755 307.967 38.4083 307.827 38.4068ZM304.202 32.483C303.933 32.48 303.669 32.3532 303.502 32.1157C302.832 31.1709 302.135 30.2626 301.431 29.4174C301.124 29.0497 301.174 28.5028 301.542 28.1944C301.908 27.89 302.458 27.9384 302.764 28.3062C303.498 29.1861 304.223 30.1298 304.918 31.114C305.195 31.5054 305.103 32.047 304.712 32.324C304.556 32.4325 304.378 32.4849 304.202 32.483ZM299.753 27.1638C299.534 27.1614 299.316 27.0759 299.149 26.9094C298.333 26.095 297.49 25.3345 296.642 24.6523C296.268 24.3533 296.209 23.8069 296.51 23.4314C296.81 23.0599 297.358 22.9981 297.731 23.301C298.627 24.0213 299.518 24.823 300.377 25.682C300.716 26.0213 300.716 26.5711 300.377 26.9094C300.206 27.0825 299.978 27.1663 299.753 27.1638ZM261.187 23.9549C260.865 23.9513 260.558 23.7681 260.411 23.4565C260.207 23.0235 260.392 22.5069 260.826 22.3015C261.256 22.1009 261.807 22.2564 262.018 22.6822C262.227 23.1065 262.102 23.5989 261.68 23.8149C261.671 23.8195 261.577 23.8681 261.567 23.8727C261.443 23.9313 261.315 23.9563 261.187 23.9549ZM294.357 22.8283C294.202 22.8266 294.047 22.7842 293.906 22.6963C292.955 22.1009 291.964 21.5642 290.959 21.104C290.524 20.9026 290.332 20.3883 290.533 19.951C290.733 19.5161 291.249 19.3268 291.684 19.5249C292.756 20.0186 293.814 20.5896 294.827 21.2249C295.233 21.4787 295.357 22.0155 295.103 22.4218C294.937 22.6877 294.649 22.8316 294.357 22.8283ZM264.425 22.4594C264.091 22.4558 263.775 22.2589 263.636 21.9337C263.447 21.4929 263.651 20.9829 264.093 20.7944C265.211 20.3153 266.306 19.8878 267.378 19.5081C267.83 19.3516 268.326 19.5865 268.487 20.0373C268.646 20.4882 268.409 20.9858 267.957 21.1455C266.919 21.512 265.858 21.9262 264.775 22.389C264.661 22.4389 264.542 22.4607 264.425 22.4594ZM270.97 20.1566C270.593 20.1524 270.248 19.9009 270.142 19.5186C270.016 19.0561 270.289 18.5772 270.751 18.4521C271.92 18.1325 273.083 17.8656 274.209 17.6607C274.676 17.5763 275.132 17.8882 275.218 18.3598C275.304 18.8323 274.99 19.2835 274.519 19.3694C273.443 19.5645 272.329 19.8184 271.21 20.1249C271.13 20.148 271.05 20.1575 270.97 20.1566ZM288.079 19.9583C287.999 19.9574 287.917 19.9445 287.836 19.9221C286.778 19.6003 285.683 19.347 284.581 19.1694C284.108 19.0931 283.786 18.6484 283.863 18.1746C283.939 17.7023 284.381 17.382 284.858 17.4568C286.037 17.6463 287.208 17.9166 288.342 18.2599C288.8 18.4008 289.059 18.8847 288.919 19.3427C288.805 19.7202 288.456 19.9624 288.079 19.9583ZM277.793 18.9292C277.349 18.9243 276.974 18.5814 276.938 18.1295C276.9 17.6528 277.257 17.234 277.735 17.1953C278.748 17.1146 279.745 17.0832 280.733 17.0957C280.92 17.0977 281.11 17.103 281.301 17.1091C281.78 17.1264 282.156 17.5269 282.139 18.007C282.123 18.4847 281.809 18.8728 281.242 18.8449C281.028 18.8362 280.812 18.8338 280.601 18.8315C279.707 18.8216 278.791 18.8539 277.872 18.9269C277.846 18.9282 277.82 18.9295 277.793 18.9292Z" fill="white"/>
<path d="M37.9805 132.748C41.6679 131.275 43.4795 127.053 42.0065 123.366C40.534 119.679 36.312 117.867 32.6245 119.34L26.7414 121.69L32.0976 135.098L37.9805 132.748Z" fill="#41C30E"/>
<path d="M26.7417 121.69L18.3959 125.024C14.709 126.496 12.8973 130.718 14.37 134.405C15.8427 138.092 20.0647 139.904 23.7516 138.431L32.0974 135.097L26.7417 121.69Z" fill="white"/>
<path d="M18.0023 138.884C16.0833 138.06 14.603 136.546 13.8342 134.619C13.0639 132.692 13.0932 130.575 13.9167 128.656C14.7402 126.737 16.2547 125.256 18.1822 124.487L26.5269 121.153C26.823 121.035 27.1593 121.179 27.2776 121.475L32.6345 134.883C32.6915 135.026 32.6894 135.185 32.629 135.325C32.5685 135.466 32.4549 135.577 32.3124 135.634L23.9669 138.967C22.0398 139.737 19.9214 139.707 18.0023 138.884ZM26.4191 122.44L18.6108 125.559C16.9707 126.215 15.68 127.477 14.9784 129.112C14.2768 130.746 14.2515 132.55 14.907 134.19C15.5622 135.83 16.823 137.121 18.4579 137.822C20.0928 138.524 21.8977 138.55 23.5379 137.894L31.3474 134.775L26.4191 122.44Z" fill="#241726"/>
<path d="M245.112 33.635C249.829 27.2623 248.487 18.2719 242.115 13.5544C235.742 8.83695 226.752 10.1788 222.034 16.5515C217.317 22.9242 218.658 31.9146 225.031 36.6321C231.404 41.3496 240.394 40.0078 245.112 33.635Z" fill="#E75634"/>
<path d="M237.825 38.4774C237.62 38.3895 237.449 38.224 237.36 38.0005L227.416 13.1114C227.238 12.6653 227.455 12.1594 227.902 11.9806C228.348 11.8024 228.854 12.0195 229.032 12.4658L238.976 37.3549C239.154 37.801 238.937 38.307 238.491 38.4858C238.267 38.5751 238.029 38.565 237.825 38.4774Z" fill="white"/>
<path d="M248.057 91.9218C251.02 87.9183 250.177 82.2703 246.174 79.3067C242.17 76.343 236.522 77.186 233.559 81.1895C230.595 85.193 231.438 90.841 235.442 93.8046C239.445 96.7683 245.093 95.9253 248.057 91.9218Z" fill="#41C30E"/>
<path d="M243.478 94.9646C243.35 94.9093 243.242 94.8054 243.186 94.665L236.939 79.029C236.827 78.7488 236.964 78.4309 237.244 78.3186C237.524 78.2066 237.842 78.343 237.955 78.6234L244.202 94.2594C244.313 94.5397 244.177 94.8575 243.897 94.9698C243.756 95.0259 243.607 95.0196 243.478 94.9646Z" fill="white"/>
<g clip-path="url(#clip0_6997_114858)">
<path d="M400.648 126.161L376.783 122.712C374.715 122.41 373.281 120.492 373.577 118.423L373.99 115.569L371.169 93.6194C371.06 92.9909 370.561 92.5034 369.929 92.4121L365.367 91.7473C364.931 91.6842 364.627 91.2785 364.691 90.8416C364.754 90.4048 365.159 90.1015 365.596 90.1647L370.157 90.824C371.485 91.0133 372.535 92.0437 372.75 93.3673C375.643 115.868 375.576 115.345 375.576 115.348C375.646 115.621 375.591 115.532 375.162 118.646C374.991 119.841 375.819 120.95 377.013 121.122L400.878 124.572C401.315 124.635 401.618 125.041 401.555 125.478C401.492 125.915 401.086 126.218 400.649 126.155L400.648 126.161Z" fill="white"/>
<path d="M398.717 120.103L374.647 116.623C374.21 116.56 373.906 116.154 373.97 115.717C374.033 115.281 374.438 114.977 374.875 115.041L398.946 118.52C399.469 118.594 399.968 118.27 400.111 117.76L403.957 103.911C404.113 103.351 403.785 102.771 403.225 102.615C403.1 102.581 404.537 102.8 372.34 98.1428C371.903 98.0797 371.6 97.674 371.663 97.2371C371.726 96.8003 372.132 96.497 372.569 96.5602L403.317 101.005C404.902 101.234 405.921 102.809 405.492 104.339L401.646 118.187C401.289 119.469 400.035 120.289 398.717 120.103Z" fill="white"/>
<path d="M393.701 119.278L393.657 119.271C393.278 119.191 393.037 118.821 393.115 118.443L396.823 100.83C396.903 100.452 397.275 100.209 397.653 100.288C398.032 100.368 398.274 100.74 398.196 101.118L394.488 118.731C394.412 119.092 394.066 119.332 393.701 119.278Z" fill="white"/>
<path d="M387.06 118.318C386.678 118.262 386.412 117.907 386.467 117.524L389.037 99.7474C389.092 99.3655 389.447 99.099 389.831 99.1544C390.212 99.2096 390.479 99.5646 390.424 99.9478L387.854 117.726C387.798 118.108 387.444 118.373 387.06 118.318Z" fill="white"/>
<path d="M380.421 117.358C380.055 117.307 379.792 116.979 379.821 116.611L381.253 98.6692C381.284 98.2837 381.622 97.9948 382.008 98.0266C382.394 98.057 382.683 98.3952 382.651 98.7818L381.219 116.723C381.189 117.109 380.851 117.395 380.466 117.365L380.421 117.358Z" fill="white"/>
<path d="M402.762 111.511L373.543 107.287C373.161 107.232 372.895 106.877 372.95 106.494C373.005 106.111 373.36 105.846 373.744 105.901L402.963 110.125C403.344 110.18 403.611 110.535 403.556 110.918C403.5 111.301 403.145 111.567 402.762 111.511Z" fill="white"/>
<path d="M396.391 135.02C394.344 134.724 392.926 132.824 393.223 130.777C393.52 128.731 395.419 127.312 397.465 127.609C399.511 127.905 400.93 129.804 400.634 131.85C400.336 133.895 398.437 135.314 396.391 135.02ZM397.234 129.191C396.062 129.022 394.975 129.836 394.806 131.008C394.636 132.179 395.45 133.267 396.622 133.436C397.794 133.605 398.881 132.792 399.05 131.62C399.22 130.447 398.406 129.358 397.235 129.187L397.234 129.191Z" fill="white"/>
<path d="M376.273 132.112C374.226 131.816 372.808 129.918 373.104 127.871C373.399 125.824 375.298 124.405 377.345 124.701C379.392 124.997 380.81 126.895 380.515 128.942C380.216 130.987 378.319 132.405 376.273 132.112ZM377.116 126.283C375.944 126.114 374.856 126.926 374.686 128.099C374.517 129.271 375.329 130.359 376.502 130.529C377.674 130.698 378.762 129.886 378.932 128.713C379.101 127.541 378.289 126.452 377.116 126.281L377.116 126.283Z" fill="white"/>
</g>
<defs>
<clipPath id="clip0_6997_114858">
<rect width="51.1846" height="51.1846" fill="white" transform="translate(361.227 83.8765) rotate(8.22538)"/>
</clipPath>
</defs>
</svg>
