<svg width="61" height="60" viewBox="0 0 61 60" fill="none" xmlns="http://www.w3.org/2000/svg">
<g clip-path="url(#clip0_4443_99522)">
<path d="M30.5 60C47.0685 60 60.5 46.5685 60.5 30C60.5 13.4315 47.0685 0 30.5 0C13.9315 0 0.5 13.4315 0.5 30C0.5 46.5685 13.9315 60 30.5 60Z" fill="url(#paint0_linear_4443_99522)"/>
<path d="M60.5002 30.0004C60.5002 46.5707 47.0705 60.0004 30.5002 60.0004C25.5556 60.0038 20.6869 58.7835 16.3284 56.4485C11.9698 54.1134 8.25687 50.736 5.52051 46.6176C22.6803 46.3574 29.5006 36.0004 29.5006 36.0004C39.2635 21.2348 51.1967 18.0836 57.8107 17.5703C59.5901 21.4723 60.5074 25.7119 60.5002 30.0004Z" fill="url(#paint1_linear_4443_99522)"/>
<path d="M57.1801 43.7369C54.6747 48.5981 50.8886 52.6825 46.2309 55.5486C41.5732 58.4147 36.2208 59.9537 30.7521 59.9993C25.2834 60.0449 19.9061 58.5954 15.2013 55.8073C10.4964 53.0193 6.64276 48.9987 4.05664 44.1798C10.1504 45.7501 20.6035 47.3767 27.6629 42.6669C27.6629 42.6669 45.6969 29.1072 57.1801 43.7369Z" fill="url(#paint2_linear_4443_99522)"/>
<path d="M30.016 27.6844C33.5834 27.6844 36.4754 24.7924 36.4754 21.225C36.4754 17.6576 33.5834 14.7656 30.016 14.7656C26.4486 14.7656 23.5566 17.6576 23.5566 21.225C23.5566 24.7924 26.4486 27.6844 30.016 27.6844Z" fill="white"/>
<path d="M30.4996 30.1621C27.4872 30.1621 24.5982 31.3587 22.468 33.4887C20.3378 35.6186 19.1409 38.5075 19.1406 41.5199C19.1406 42.5052 19.532 43.45 20.2287 44.1467C20.9253 44.8434 21.8702 45.2348 22.8555 45.2348H38.1438C39.129 45.2348 40.0739 44.8434 40.7705 44.1467C41.4672 43.45 41.8586 42.5052 41.8586 41.5199C41.8583 38.5075 40.6614 35.6186 38.5312 33.4887C36.401 31.3587 33.512 30.1621 30.4996 30.1621Z" fill="white"/>
</g>
<defs>
<linearGradient id="paint0_linear_4443_99522" x1="16.1141" y1="5.16562" x2="44.709" y2="54.5273" gradientUnits="userSpaceOnUse">
<stop stop-color="#FAAD5F"/>
<stop offset="0.09" stop-color="#FBA659"/>
<stop offset="0.69" stop-color="#FE7E35"/>
<stop offset="1" stop-color="#FF6F27"/>
</linearGradient>
<linearGradient id="paint1_linear_4443_99522" x1="20.9412" y1="57.3719" x2="49.7635" y2="25.7113" gradientUnits="userSpaceOnUse">
<stop stop-color="#FF6F27"/>
<stop offset="1" stop-color="#FF5E1F"/>
</linearGradient>
<linearGradient id="paint2_linear_4443_99522" x1="17.6926" y1="56.522" x2="41.4371" y2="36.0962" gradientUnits="userSpaceOnUse">
<stop stop-color="#FF6B2C"/>
<stop offset="1" stop-color="#FF2D0F"/>
</linearGradient>
<clipPath id="clip0_4443_99522">
<rect width="60" height="60" fill="white" transform="translate(0.5)"/>
</clipPath>
</defs>
</svg>
