<svg width="205" height="205" viewBox="0 0 205 205" fill="none" xmlns="http://www.w3.org/2000/svg">
<path d="M51.25 83.2812C51.25 122.199 82.8008 153.75 121.719 153.75C128.862 153.75 135.748 152.693 142.251 150.707C144.589 152.597 147.376 154.391 150.611 155.832C162.463 161.149 173.161 158.875 176.364 158.074C172.841 154.455 167.812 148.337 164.224 139.496C181.201 126.652 192.188 106.248 192.188 83.2812C192.188 44.3633 160.637 12.8125 121.719 12.8125C82.8008 12.8125 51.25 44.3633 51.25 83.2812Z" fill="#37582A"/>
<path d="M160.156 76.875H83.2812C81.5195 76.875 80.0781 75.4336 80.0781 73.6719C80.0781 71.9102 81.5195 70.4688 83.2812 70.4688H160.156C161.918 70.4688 163.359 71.9102 163.359 73.6719C163.359 75.4336 161.918 76.875 160.156 76.875Z" fill="white"/>
<path d="M160.156 57.6562H83.2812C81.5195 57.6562 80.0781 56.2148 80.0781 54.4531C80.0781 52.6914 81.5195 51.25 83.2812 51.25H160.156C161.918 51.25 163.359 52.6914 163.359 54.4531C163.359 56.2148 161.918 57.6562 160.156 57.6562Z" fill="white"/>
<path d="M160.156 96.0938H83.2812C81.5195 96.0938 80.0781 94.6523 80.0781 92.8906C80.0781 91.1289 81.5195 89.6875 83.2812 89.6875H160.156C161.918 89.6875 163.359 91.1289 163.359 92.8906C163.359 94.6523 161.918 96.0938 160.156 96.0938Z" fill="white"/>
<path d="M160.156 115.312H83.2812C81.5195 115.312 80.0781 113.871 80.0781 112.109C80.0781 110.348 81.5195 108.906 83.2812 108.906H160.156C161.918 108.906 163.359 110.348 163.359 112.109C163.359 113.871 161.918 115.312 160.156 115.312Z" fill="white"/>
<path d="M153.75 108.906C153.75 147.824 122.199 179.375 83.2812 179.375C76.1383 179.375 69.2516 178.318 62.7492 176.332C60.4109 178.222 57.6242 180.016 54.3891 181.457C42.5375 186.774 31.8391 184.5 28.6359 183.699C32.1594 180.08 37.1883 173.962 40.7758 165.121C23.7992 152.277 12.8125 131.873 12.8125 108.906C12.8125 69.9883 44.3633 38.4375 83.2812 38.4375C122.199 38.4375 153.75 69.9883 153.75 108.906Z" fill="#FF7F02"/>
<path d="M60.8596 104.998C60.0268 104.998 59.226 104.678 58.5854 104.07C57.3361 102.82 57.3361 100.802 58.5854 99.5532L70.3088 87.8297C71.558 86.5805 73.576 86.5805 74.8252 87.8297C76.0744 89.079 76.0744 91.0969 74.8252 92.3461L63.1018 104.07C62.4611 104.71 61.6603 104.998 60.8275 104.998H60.8596Z" fill="white"/>
<path d="M72.583 104.998C71.7502 104.998 70.9494 104.678 70.3088 104.07L58.5854 92.3461C57.3361 91.0969 57.3361 89.079 58.5854 87.8297C59.8346 86.5805 61.8525 86.5805 63.1018 87.8297L74.8252 99.5532C76.0744 100.802 76.0744 102.82 74.8252 104.07C74.1846 104.71 73.3838 104.998 72.551 104.998H72.583Z" fill="white"/>
<path d="M93.9807 104.998C93.1479 104.998 92.3471 104.678 91.7064 104.07C90.4572 102.82 90.4572 100.802 91.7064 99.5532L103.43 87.8297C104.679 86.5805 106.697 86.5805 107.946 87.8297C109.196 89.079 109.196 91.0969 107.946 92.3461L96.2229 104.07C95.5822 104.71 94.7814 104.998 93.9486 104.998H93.9807Z" fill="white"/>
<path d="M105.704 104.998C104.871 104.998 104.071 104.678 103.43 104.07L91.7064 92.3461C90.4572 91.0969 90.4572 89.079 91.7064 87.8297C92.9557 86.5805 94.9736 86.5805 96.2229 87.8297L107.946 99.5532C109.196 100.802 109.196 102.82 107.946 104.07C107.306 104.71 106.505 104.998 105.672 104.998H105.704Z" fill="white"/>
<path d="M104.006 136.422C102.852 136.422 101.763 135.813 101.187 134.724C97.6634 128.093 90.8087 123.993 83.3134 123.993C75.8181 123.993 68.9634 128.093 65.44 134.724C64.6072 136.293 62.6533 136.87 61.1158 136.037C59.5462 135.204 58.9697 133.25 59.8025 131.713C64.447 123 73.4798 117.587 83.3454 117.587C93.2111 117.587 102.244 123 106.888 131.713C107.721 133.282 107.145 135.204 105.575 136.037C105.095 136.293 104.582 136.422 104.07 136.422H104.006Z" fill="white"/>
</svg>
