<svg width="69" height="69" viewBox="0 0 69 69" fill="none" xmlns="http://www.w3.org/2000/svg">
<g clip-path="url(#clip0_2273_8908)">
<path d="M62.6064 63.9298H37.001V50.7231L49.8037 39.1179L62.6064 50.7231V63.9298Z" fill="#F8F7F7"/>
<path d="M58.5635 47.0583V63.9298H62.6064V50.7232L58.5635 47.0583Z" fill="#EFEFEF"/>
<path d="M65.9756 67.9893H33.6318C32.5154 67.9893 31.6104 67.0842 31.6104 65.9678C31.6104 64.8514 32.5154 63.9463 33.6318 63.9463H65.9756C67.092 63.9463 67.9971 64.8514 67.9971 65.9678C67.9971 67.0842 67.092 67.9893 65.9756 67.9893Z" fill="#E07F5D"/>
<path d="M65.9756 63.9463H61.9326C63.049 63.9463 63.9541 64.8514 63.9541 65.9678C63.9541 67.0842 63.049 67.9893 61.9326 67.9893H65.9756C67.092 67.9893 67.9971 67.0842 67.9971 65.9678C67.9971 64.8514 67.092 63.9463 65.9756 63.9463Z" fill="#D06D4A"/>
<path d="M54.79 63.9463H44.8174V55.4561C44.8174 52.7021 47.0498 50.4697 49.8037 50.4697C52.5576 50.4697 54.79 52.7021 54.79 55.4561V63.9463Z" fill="#686169"/>
<path d="M31.6168 16.343C31.6168 30.0596 17.8742 42.6746 16.3177 42.6746C14.7611 42.6746 1.01855 30.0596 1.01855 16.343C1.01855 7.8753 7.86815 1.01074 16.3177 1.01074C24.7672 1.01074 31.6168 7.8753 31.6168 16.343Z" fill="#FF6167"/>
<path d="M16.3174 1.01074C15.632 1.01074 14.9575 1.0567 14.2959 1.14416C21.7898 2.13563 27.5735 8.56206 27.5735 16.343C27.5735 27.4607 18.546 37.8538 14.2959 41.3934C15.2894 42.2209 16.0225 42.6746 16.3174 42.6746C17.8739 42.6746 31.6165 30.0596 31.6165 16.343C31.6165 7.8753 24.7669 1.01074 16.3174 1.01074Z" fill="#FE454A"/>
<path d="M16.3174 26.7202C22.0484 26.7202 26.6943 22.0743 26.6943 16.3433C26.6943 10.6122 22.0484 5.96631 16.3174 5.96631C10.5863 5.96631 5.94043 10.6122 5.94043 16.3433C5.94043 22.0743 10.5863 26.7202 16.3174 26.7202Z" fill="#F8F7F7"/>
<path d="M16.3174 5.96631C15.6256 5.96631 14.9501 6.03571 14.2959 6.16549C19.0533 7.10885 22.6514 11.3131 22.6514 16.3433C22.6514 21.3734 19.0533 25.5777 14.2959 26.521C14.9501 26.6507 15.6256 26.7202 16.3174 26.7202C22.0393 26.7202 26.6943 22.0651 26.6943 16.3433C26.6943 10.6214 22.0393 5.96631 16.3174 5.96631Z" fill="#EFEFEF"/>
<path d="M67.0708 51.5391L51.1685 36.9844C50.3962 36.2773 49.2113 36.2773 48.4389 36.9844L32.5366 51.5391C31.713 52.2929 31.6564 53.5715 32.4102 54.3951C33.164 55.2186 34.4428 55.2751 35.2661 54.5215L49.8037 41.2159L64.3413 54.5215C64.7291 54.8766 65.218 55.0519 65.7055 55.0518C66.2529 55.0518 66.7984 54.8308 67.1972 54.3951C67.9509 53.5715 67.8943 52.2929 67.0708 51.5391Z" fill="#FF6167"/>
<path d="M20.0519 41.2305C26.2991 35.0705 32.3452 26.8219 32.6277 16.3432C32.6276 7.33152 25.311 0 16.3177 0C7.32437 0 0.0078125 7.33152 0.0078125 16.3432C0.290012 26.8224 6.33479 35.0678 12.5835 41.2306C15.232 43.6855 16.0492 43.6855 16.3177 43.6855C16.5861 43.6855 17.4034 43.6854 20.0519 41.2305ZM8.5878 33.632C5.59587 29.5232 2.0293 23.1886 2.0293 16.343C2.0293 8.44617 8.43915 2.02148 16.3177 2.02148C24.1962 2.02148 30.6059 8.44617 30.6059 16.3432C30.8956 26.0347 21.7644 38.0935 16.3177 41.6168C15.4017 41.1344 12.0374 38.3689 8.5878 33.632Z" fill="black"/>
<path d="M27.7051 16.3432C27.7051 10.0641 22.5967 4.95549 16.3174 4.95549C6.96966 4.87679 1.51489 15.9664 7.30765 23.301C7.64942 23.7425 8.28443 23.8234 8.72552 23.4817C9.16701 23.1401 9.24801 22.5052 8.90638 22.0639C4.14268 16.0313 8.63065 6.91175 16.3175 6.97711C21.4819 6.97698 25.6836 11.1787 25.6836 16.3432C25.7676 23.1759 18.2684 27.8456 12.1833 24.7468C11.6828 24.4993 11.0766 24.7049 10.8295 25.2052C10.5822 25.7056 10.7874 26.3118 11.2878 26.5591C18.6883 30.329 27.8074 24.6518 27.7051 16.3432Z" fill="black"/>
<path d="M65.9752 62.9355H63.6168V55.2288L63.6584 55.2668C64.2189 55.78 64.9459 56.0624 65.7053 56.0623C66.5541 56.0623 67.3696 55.7033 67.9428 55.0773C69.0714 53.8439 68.9864 51.922 67.753 50.7932L64.7405 48.0359C64.3286 47.659 63.6892 47.6874 63.3125 48.0991C62.9356 48.5109 62.9639 49.1502 63.3757 49.5271L66.3882 52.2844C66.7994 52.6607 66.8277 53.3012 66.4516 53.7124C66.2578 53.9241 65.9928 54.0408 65.7053 54.0408C65.4524 54.0408 65.2104 53.9468 65.0235 53.7756L50.4859 40.4701C50.0998 40.1166 49.5072 40.1166 49.1211 40.4701L34.5834 53.7756C34.3844 53.9579 34.1276 54.0534 33.8565 54.0396C33.5867 54.0278 33.3377 53.9115 33.1556 53.7124C32.7793 53.3012 32.8076 52.6607 33.2188 52.2844L49.1213 37.7296C49.5102 37.3736 50.0967 37.3734 50.4859 37.7297L59.8989 46.3449C60.3106 46.7217 60.9501 46.6934 61.3269 46.2817C61.7038 45.87 61.6755 45.2307 61.2636 44.8537L51.8508 36.2387C50.6836 35.17 48.9233 35.1703 47.7564 36.2386L31.854 50.7932C30.6206 51.922 30.5356 53.8438 31.6644 55.0773C32.2113 55.6747 32.9582 56.0235 33.7673 56.0592C33.8132 56.0612 33.8589 56.0623 33.9046 56.0623C34.6637 56.0623 35.385 55.7825 35.9485 55.2668L35.9902 55.2286V62.9355H33.6318C29.6081 63.1026 29.6112 68.8345 33.6318 68.9999H40.0125C41.3508 68.9536 41.3497 67.0243 40.0125 66.9785H33.6318C32.2938 66.9309 32.2947 65.0041 33.6318 64.957H65.9756C67.3137 65.0045 67.3127 66.9313 65.9756 66.9785H44.8174C43.479 67.0248 43.4801 68.9541 44.8174 68.9999H65.9756C69.9989 68.8328 69.9958 63.101 65.9752 62.9355ZM53.7789 62.9193H45.8277V55.456C46.0467 50.1806 53.5618 50.1846 53.7789 55.456V62.9193ZM49.8033 42.586L61.5953 53.3786V62.9192H55.8004V55.456C55.4701 47.4981 44.1336 47.5043 43.8062 55.456V62.9193H38.0113V53.3787L49.8033 42.586Z" fill="black"/>
<path d="M28.3633 59.2192H24.621C23.2827 59.2656 23.2838 61.1949 24.621 61.2407H28.3633C29.7017 61.1944 29.7008 59.2651 28.3633 59.2192Z" fill="black"/>
<path d="M21.1795 59.2192H18.8658C18.0179 59.2192 17.3281 58.5294 17.3281 57.6814V54.4799C17.2818 53.1416 15.3525 53.1426 15.3066 54.4799V57.6814C15.3066 59.644 16.9033 61.2407 18.8658 61.2407H21.1795C22.5177 61.1944 22.5167 59.265 21.1795 59.2192Z" fill="black"/>
<path d="M15.3066 47.5607V51.0242C15.353 52.3626 17.2823 52.3615 17.3281 51.0242V47.5607C17.2819 46.2224 15.3526 46.2235 15.3066 47.5607Z" fill="black"/>
</g>
<defs>
<clipPath id="clip0_2273_8908">
<rect width="69" height="69" fill="white"/>
</clipPath>
</defs>
</svg>
