<svg width="56" height="56" viewBox="0 0 56 56" fill="none" xmlns="http://www.w3.org/2000/svg">
<g clip-path="url(#clip0_6472_60300)">
<path fill-rule="evenodd" clip-rule="evenodd" d="M13.1299 14.9492H40.9571L37.8655 36.4653H10.0352L13.1299 14.9492Z" fill="#CD353E"/>
<path fill-rule="evenodd" clip-rule="evenodd" d="M13.1306 14.9492H40.9578L37.8662 36.4653H36.4133L36.618 35.0283L39.3 16.3862H12.9258L13.1306 14.9492Z" fill="#B41C25"/>
<path fill-rule="evenodd" clip-rule="evenodd" d="M10.8545 30.7783H38.6817L37.8655 36.4654H10.0352L10.8545 30.7783Z" fill="#FFC06C"/>
<path fill-rule="evenodd" clip-rule="evenodd" d="M37.867 36.4654H36.4141L36.6188 35.0284L37.2301 30.7783H38.6832L37.867 36.4654Z" fill="#EDA558"/>
<path fill-rule="evenodd" clip-rule="evenodd" d="M13.7921 34.5449H52.8621C53.3358 34.5449 53.6654 34.9321 53.5982 35.4058L53.2941 37.5244C53.227 37.9981 52.7853 38.3853 52.3116 38.3853H13.2384C12.768 38.3853 12.4352 37.9981 12.5055 37.5244L12.8095 35.4058C12.8768 34.9321 13.3185 34.5449 13.7921 34.5449Z" fill="#CD353E"/>
<path fill-rule="evenodd" clip-rule="evenodd" d="M39.6406 38.3854H54.1062L56.0009 25.2031L52.1349 18.7703C51.7733 18.1718 51.1779 17.8486 50.429 17.8486H44.2107C43.3211 17.8486 42.489 18.5751 42.3609 19.4649L39.6406 38.3854Z" fill="#FF4C4C"/>
<path fill-rule="evenodd" clip-rule="evenodd" d="M44.7382 20.1436C44.4949 21.8301 44.255 23.5168 44.0117 25.2034H53.1295L50.1276 20.2075C50.0924 20.1532 50.0796 20.1436 50.0125 20.1436H44.7382Z" fill="#E1EFFF"/>
<path d="M10.0523 23.561C10.0523 23.9975 9.69839 24.3514 9.26188 24.3514H0.790453C0.353938 24.3514 0 23.9975 0 23.561C0 23.1244 0.353938 22.7705 0.790453 22.7705H9.26188C9.69839 22.7705 10.0523 23.1243 10.0523 23.561ZM8.58025 25.9549H3.26441C2.82789 25.9549 2.47395 26.3088 2.47395 26.7453C2.47395 27.1818 2.82789 27.5358 3.26441 27.5358H8.58025C9.01677 27.5358 9.3707 27.1818 9.3707 26.7453C9.3707 26.3087 9.01677 25.9549 8.58025 25.9549ZM7.89852 29.1392H5.23906C4.80255 29.1392 4.44861 29.4931 4.44861 29.9297C4.44861 30.3662 4.80255 30.7201 5.23906 30.7201H7.89852C8.33503 30.7201 8.68897 30.3662 8.68897 29.9297C8.68897 29.4931 8.33503 29.1392 7.89852 29.1392Z" fill="#363D52"/>
<path d="M17.3923 21.0079L17.2772 21.7824H18.4934C18.9299 21.7824 19.2839 22.1363 19.2839 22.5728C19.2839 23.0093 18.9299 23.3633 18.4934 23.3633H17.042L16.7054 25.627C16.6471 26.0194 16.3096 26.3013 15.9244 26.3013C15.8857 26.3013 15.8465 26.2985 15.8072 26.2926C15.3752 26.2284 15.0773 25.8262 15.1415 25.3944L15.9288 20.1009C15.9864 19.7135 16.319 19.4268 16.7107 19.4268H19.8919C20.3284 19.4268 20.6823 19.7807 20.6823 20.2172C20.6823 20.6537 20.3284 21.0077 19.8919 21.0077H17.3923V21.0079ZM24.8238 25.4413C24.8622 25.8762 24.5408 26.2599 24.1059 26.2982C23.671 26.3375 23.2874 26.0152 23.2489 25.5803L23.2016 25.0435H21.8832L21.5926 25.7957C21.4714 26.1092 21.1721 26.3014 20.855 26.3014C20.7603 26.3014 20.664 26.2842 20.5703 26.2481C20.1631 26.0909 19.9605 25.6331 20.1179 25.2258L22.1628 19.9324C22.2806 19.6277 22.5735 19.4269 22.9002 19.4269H23.5691C23.9787 19.4269 24.3205 19.7398 24.3566 20.1479L24.8238 25.4413ZM23.062 23.4626L22.9564 22.2657L22.4939 23.4626H23.062ZM29.589 19.4269H28.8017C27.6784 19.4269 26.6673 20.3032 26.4995 21.4233C26.4068 22.0495 26.5323 22.5669 26.8725 22.9612C27.4027 23.5757 28.2572 23.6544 28.9425 23.6544C29.0605 23.6544 29.1553 23.6921 29.2167 23.7633C29.2808 23.8376 29.3058 23.9473 29.2868 24.0751C29.2377 24.4126 28.886 24.7201 28.5489 24.7201H27.7616C27.7266 24.7201 27.6797 24.7138 27.654 24.6842C27.6314 24.6579 27.6234 24.6126 27.6316 24.5563C27.695 24.1244 27.3962 23.7229 26.9642 23.6596C26.5319 23.5958 26.1306 23.8949 26.0674 24.327C25.9926 24.8372 26.1348 25.3442 26.4577 25.7179C26.7779 26.0886 27.2533 26.3012 27.7616 26.3012H28.5489C29.677 26.3012 30.6884 25.4234 30.8509 24.3055C30.9372 23.7271 30.7781 23.1533 30.4143 22.7312C30.054 22.3133 29.5177 22.0735 28.9427 22.0735C28.2034 22.0735 28.0749 21.9344 28.0697 21.9284C28.0632 21.9208 28.0358 21.8427 28.0634 21.6561C28.1143 21.3169 28.4662 21.0078 28.8018 21.0078H29.5891C29.6241 21.0078 29.6711 21.014 29.6967 21.0436C29.7193 21.0699 29.7272 21.1153 29.719 21.1714C29.6556 21.6034 29.9544 22.0049 30.3863 22.0684C30.8186 22.132 31.2199 21.833 31.2833 21.4011C31.3582 20.8909 31.216 20.3839 30.893 20.0102C30.5728 19.6395 30.0975 19.4269 29.589 19.4269ZM36.0185 19.4269H32.8373C32.4008 19.4269 32.0468 19.7808 32.0468 20.2173C32.0468 20.6538 32.4008 21.0078 32.8373 21.0078H33.5112L32.8587 25.3944C32.7945 25.8262 33.0925 26.2282 33.5244 26.2926C33.5638 26.2985 33.6029 26.3013 33.6416 26.3013C34.0268 26.3013 34.3642 26.0193 34.4226 25.627L35.1096 21.0079H36.0185C36.455 21.0079 36.8089 20.6539 36.8089 20.2174C36.8089 19.7808 36.4551 19.4269 36.0185 19.4269Z" fill="white"/>
<path fill-rule="evenodd" clip-rule="evenodd" d="M48.9961 20.1436L52.0364 25.2034H53.1309L50.129 20.2075C50.0938 20.1532 50.081 20.1436 50.0138 20.1436H48.9961Z" fill="#D7D7E3"/>
<path fill-rule="evenodd" clip-rule="evenodd" d="M39.643 38.3853L40.1967 34.5449H39.2014L38.6445 38.3853H39.643Z" fill="#B41C25"/>
<path fill-rule="evenodd" clip-rule="evenodd" d="M51.3194 19.2633L55.0094 25.4016L53.598 35.1595L53.2203 37.7774L53.1308 38.3854H54.1068L56.0015 25.2031L52.1355 18.7703C51.7739 18.1718 51.1785 17.8486 50.4296 17.8486H44.2113C43.5585 17.8486 42.9344 18.2423 42.6016 18.8024H50.4296C50.8138 18.8024 51.1178 18.9305 51.3194 19.2633Z" fill="#D11E1E"/>
<path fill-rule="evenodd" clip-rule="evenodd" d="M23.7739 31.8691C26.3054 31.8691 28.0624 33.9206 27.6975 36.4552C27.3359 38.9867 24.9868 41.0382 22.4553 41.0382C19.9206 41.0382 18.1636 38.9867 18.5284 36.4552C18.8901 33.9206 21.2393 31.8691 23.7739 31.8691Z" fill="#363D52"/>
<path fill-rule="evenodd" clip-rule="evenodd" d="M23.7744 31.8691C26.3059 31.8691 28.0629 33.9206 27.698 36.4552C27.3459 38.9196 25.1122 40.9293 22.6575 41.035C24.6961 40.5134 26.3987 38.7275 26.706 36.6025C27.0676 34.0678 25.3106 32.0164 22.7791 32.0164C22.7086 32.0164 22.6415 32.0195 22.5742 32.0195C22.9647 31.9203 23.3648 31.8691 23.7744 31.8691Z" fill="#2A3146"/>
<path fill-rule="evenodd" clip-rule="evenodd" d="M23.4081 34.3945C24.5442 34.3945 25.3347 35.3162 25.1715 36.4556C25.0084 37.5917 23.9522 38.5135 22.816 38.5135C21.68 38.5135 20.8894 37.5918 21.0526 36.4556C21.2159 35.3162 22.272 34.3945 23.4081 34.3945Z" fill="#E1EFFF"/>
<path fill-rule="evenodd" clip-rule="evenodd" d="M23.4091 34.3945C24.5452 34.3945 25.3358 35.3162 25.1726 36.4556C25.0189 37.5277 24.0716 38.4078 23.0091 38.5039C23.8124 38.1998 24.4557 37.4574 24.5805 36.5932C24.7437 35.4538 23.9533 34.5321 22.8171 34.5321C22.7531 34.5321 22.6891 34.5353 22.625 34.5418C22.8747 34.449 23.1403 34.3945 23.4091 34.3945Z" fill="#D7D7E3"/>
<path fill-rule="evenodd" clip-rule="evenodd" d="M47.8089 31.8789C50.3404 31.8789 52.1005 33.9335 51.7358 36.465C51.3709 38.9965 49.0219 41.0511 46.4904 41.0511C43.9589 41.0511 42.1987 38.9965 42.5635 36.465C42.9284 33.9335 45.2774 31.8789 47.8089 31.8789Z" fill="#363D52"/>
<path fill-rule="evenodd" clip-rule="evenodd" d="M47.8095 31.8789C50.341 31.8789 52.1012 33.9335 51.7364 36.465C51.3812 38.9293 49.1506 40.9391 46.6959 41.0448C48.7314 40.5263 50.4372 38.7373 50.7411 36.6122C51.106 34.0807 49.349 32.0261 46.8142 32.0261C46.7471 32.0261 46.6798 32.0293 46.6094 32.0326C46.9998 31.9333 47.4031 31.8789 47.8095 31.8789Z" fill="#2A3146"/>
<path fill-rule="evenodd" clip-rule="evenodd" d="M47.4472 34.4072C48.5833 34.4072 49.3707 35.3289 49.2074 36.465C49.0442 37.6011 47.9913 38.5229 46.8552 38.5229C45.7158 38.5229 44.9285 37.6012 45.0917 36.465C45.2549 35.329 46.3079 34.4072 47.4472 34.4072Z" fill="#E1EFFF"/>
<path fill-rule="evenodd" clip-rule="evenodd" d="M47.4475 34.4072C48.5836 34.4072 49.371 35.3289 49.2077 36.465C49.054 37.5371 48.1067 38.4172 47.0475 38.5133C47.8475 38.2125 48.4908 37.4699 48.6157 36.6026C48.7789 35.4665 47.9916 34.5448 46.8522 34.5448C46.7882 34.5448 46.7243 34.548 46.6602 34.5513C46.9099 34.4585 47.1755 34.4072 47.4475 34.4072Z" fill="#D7D7E3"/>
</g>
<defs>
<clipPath id="clip0_6472_60300">
<rect width="56" height="56" fill="white"/>
</clipPath>
</defs>
</svg>
