<svg width="153" height="153" viewBox="0 0 153 153" fill="none" xmlns="http://www.w3.org/2000/svg">
<path fill-rule="evenodd" clip-rule="evenodd" d="M64.3555 25.4023L114.833 45.0289V103.315L64.3555 122.942L13.8784 103.315V45.0289L64.3555 25.4023Z" fill="#BD6428"/>
<path fill-rule="evenodd" clip-rule="evenodd" d="M64.3555 52.186L114.833 45.0273V103.313L64.3555 122.94V52.186Z" fill="#D96A20"/>
<path fill-rule="evenodd" clip-rule="evenodd" d="M64.3555 25.4023L114.833 45.029L64.3555 64.6561L13.8784 45.029L64.3555 25.4023Z" fill="#E3732A"/>
<path fill-rule="evenodd" clip-rule="evenodd" d="M30.5886 51.5266L33.1482 50.5312L50.1629 57.1806L47.6461 58.159V72.1742C47.6461 72.7472 46.9769 73.0564 46.5409 72.6847L38.7472 66.0468L31.458 68.3136C31.0243 68.4485 30.5884 68.1274 30.5884 67.6735L30.5886 51.5266Z" fill="#EFF4F7"/>
<path fill-rule="evenodd" clip-rule="evenodd" d="M81.0637 31.8984L98.1224 38.5313C81.2972 45.0741 64.4718 51.6169 47.6458 58.1584L30.5884 51.5261L81.0637 31.8984Z" fill="#E2E3E3"/>
<path fill-rule="evenodd" clip-rule="evenodd" d="M114.833 127.604C128.211 127.604 139.121 116.693 139.121 103.316C139.121 89.938 128.211 79.0273 114.833 79.0273C101.456 79.0273 90.5449 89.9382 90.5449 103.316C90.5449 116.693 101.456 127.604 114.833 127.604Z" fill="#15CF74"/>
<path fill-rule="evenodd" clip-rule="evenodd" d="M124.03 92.2382C125.405 90.8633 127.634 90.8633 129.009 92.2382C130.384 93.6131 130.384 95.8424 129.009 97.2171L111.836 114.391C110.278 115.948 107.706 115.703 106.456 113.913L99.2306 104.82C98.0229 103.301 98.2757 101.09 99.7946 99.8826C101.314 98.675 103.525 98.9272 104.732 100.447L109.642 106.626L124.03 92.2382Z" fill="#EFF4F7"/>
<path fill-rule="evenodd" clip-rule="evenodd" d="M127.57 95.7843L110.402 112.958C110.04 113.32 109.63 113.396 109.349 113.396C108.848 113.396 108.398 113.161 108.115 112.753C108.09 112.719 108.064 112.685 108.039 112.652L100.812 103.559C100.564 103.248 100.453 102.859 100.499 102.463C100.544 102.068 100.741 101.714 101.052 101.466C101.389 101.198 101.741 101.142 101.976 101.142C102.434 101.142 102.862 101.347 103.145 101.704L108.056 107.883C108.412 108.335 108.949 108.612 109.523 108.645C110.103 108.679 110.662 108.463 111.072 108.055L125.462 93.667C125.743 93.3846 126.116 93.229 126.521 93.229C126.916 93.229 127.29 93.3849 127.57 93.667C128.162 94.2512 128.162 95.201 127.57 95.7843ZM130.435 90.8056C129.387 89.7579 127.995 89.182 126.521 89.182C125.037 89.182 123.646 89.7579 122.597 90.8056L109.812 103.589L106.316 99.1863C105.258 97.8565 103.677 97.0944 101.976 97.0944C100.732 97.0944 99.5089 97.5212 98.533 98.2975C97.3734 99.2175 96.6447 100.534 96.4755 102.003C96.3095 103.474 96.7234 104.921 97.6444 106.078L104.835 115.127C105.876 116.58 107.558 117.444 109.349 117.444C110.826 117.444 112.216 116.867 113.264 115.821L130.436 98.6461C132.594 96.4851 132.594 92.9669 130.435 90.8056ZM114.832 125.577C127.113 125.577 137.1 115.589 137.1 103.313C137.1 91.0371 127.113 81.0485 114.832 81.0485C102.555 81.0485 92.5656 91.0374 92.5656 103.313C92.5656 115.589 102.555 125.577 114.832 125.577ZM66.3759 119.982L89.6445 110.934C88.9123 108.521 88.5181 105.962 88.5181 103.313C88.5181 89.4854 99.2407 78.1147 112.808 77.0779V47.9844L66.3759 66.0382V119.982ZM15.8999 47.9844L28.5609 52.9083V67.6714C28.5609 68.5246 28.9705 69.3365 29.658 69.8431C30.3442 70.3476 31.2424 70.4971 32.0571 70.2439L38.2816 68.3078L45.2247 74.2228C45.7198 74.6454 46.3448 74.8652 46.975 74.8652C47.3571 74.8652 47.7422 74.7855 48.1012 74.6193C49.0521 74.1801 49.6676 73.2199 49.6676 72.1714V61.1155L62.3284 66.0382V119.982L15.8999 101.928V47.9844ZM64.3518 27.5709L75.4752 31.8957L30.585 49.3517L19.4616 45.0258L64.3518 27.5709ZM32.6082 54.4821V65.8317L38.1424 64.1115C38.8046 63.905 39.5264 64.0535 40.0547 64.5029L45.6191 69.2409V59.541L32.6082 54.4821ZM36.1712 51.5233L81.0614 34.0673L92.5367 38.5293C77.5705 44.348 62.6067 50.1666 47.6435 55.984L36.1712 51.5233ZM64.3518 62.4818L53.2274 58.1559C68.1926 52.3383 83.1561 46.5196 98.1196 40.701L109.245 45.0258L64.3518 62.4818ZM116.857 77.0776V45.0258C116.857 44.1921 116.343 43.4427 115.566 43.1393L65.0858 23.513C64.6157 23.329 64.0922 23.329 63.6191 23.513L13.1417 43.1393C12.3652 43.4424 11.8511 44.1921 11.8511 45.0258V103.313C11.8511 104.148 12.365 104.897 13.1417 105.2L63.6191 124.827C63.8566 124.918 64.1049 124.965 64.3518 124.965C64.6028 124.965 64.851 124.918 65.0856 124.827L91.1143 114.706C95.3695 123.526 104.4 129.625 114.832 129.625C129.345 129.625 141.148 117.822 141.148 103.313C141.148 89.4851 130.425 78.1145 116.857 77.0776Z" fill="black"/>
</svg>
