<svg width="86" height="70" viewBox="0 0 86 70" fill="none" xmlns="http://www.w3.org/2000/svg">
<path fill-rule="evenodd" clip-rule="evenodd" d="M35.0619 1.60156L68.0534 14.4294V52.5248L35.0619 65.3528L2.07031 52.5248V14.4294L35.0619 1.60156Z" fill="#BD6428"/>
<path fill-rule="evenodd" clip-rule="evenodd" d="M35.0625 19.1085L68.0541 14.4297V52.5251L35.0625 65.3531V19.1085Z" fill="#D96A20"/>
<path fill-rule="evenodd" clip-rule="evenodd" d="M35.0619 1.60156L68.0534 14.4294L35.0619 27.2576L2.07031 14.4294L35.0619 1.60156Z" fill="#E3732A"/>
<path fill-rule="evenodd" clip-rule="evenodd" d="M12.9924 18.674L14.6652 18.0234L25.786 22.3694L24.141 23.0089V32.1691C24.141 32.5437 23.7036 32.7458 23.4187 32.5028L18.3247 28.1643L13.5606 29.6459C13.2771 29.734 12.9922 29.5242 12.9922 29.2275L12.9924 18.674Z" fill="#EFF4F7"/>
<path fill-rule="evenodd" clip-rule="evenodd" d="M45.9826 5.84766L57.1321 10.1829C46.1352 14.4592 35.1382 18.7355 24.1409 23.011L12.9922 18.6762L45.9826 5.84766Z" fill="#E2E3E3"/>
<path fill-rule="evenodd" clip-rule="evenodd" d="M68.0543 68.3977C76.7978 68.3977 83.929 61.2666 83.929 52.5231C83.929 43.7796 76.7978 36.6484 68.0543 36.6484C59.3108 36.6484 52.1797 43.7797 52.1797 52.5231C52.1797 61.2666 59.3108 68.3977 68.0543 68.3977Z" fill="#15CF74"/>
<path fill-rule="evenodd" clip-rule="evenodd" d="M74.067 45.2833C74.9658 44.3847 76.4227 44.3847 77.3213 45.2833C78.2201 46.182 78.2201 47.6391 77.3213 48.5375L66.0969 59.7621C65.079 60.7798 63.3975 60.6199 62.5808 59.4499L57.8583 53.5069C57.069 52.514 57.2342 51.069 58.2269 50.2797C59.2199 49.4904 60.6648 49.6553 61.4541 50.6483L64.6633 54.6869L74.067 45.2833Z" fill="#EFF4F7"/>
<path fill-rule="evenodd" clip-rule="evenodd" d="M76.3793 47.6036L65.1582 58.8282C64.922 59.065 64.654 59.1145 64.4701 59.1145C64.1425 59.1145 63.8486 58.9612 63.6634 58.6944C63.647 58.6719 63.6302 58.6496 63.6138 58.6286L58.8906 52.6855C58.7287 52.4821 58.656 52.2274 58.6857 51.969C58.715 51.7105 58.8438 51.4791 59.0476 51.3169C59.2673 51.1418 59.4974 51.1052 59.6513 51.1052C59.9506 51.1052 60.2301 51.2395 60.4153 51.4728L63.6254 55.5114C63.858 55.8066 64.2088 55.9876 64.584 56.0095C64.9627 56.0318 65.3284 55.8907 65.5964 55.624L75.0019 46.2198C75.185 46.0353 75.4292 45.9336 75.694 45.9336C75.952 45.9336 76.1961 46.0354 76.3793 46.2198C76.7661 46.6017 76.7661 47.2225 76.3793 47.6036ZM78.2521 44.3496C77.5667 43.6648 76.6574 43.2884 75.694 43.2884C74.7238 43.2884 73.8145 43.6648 73.1292 44.3496L64.7729 52.7047L62.4876 49.8272C61.7962 48.958 60.7628 48.4599 59.6515 48.4599C58.838 48.4599 58.0388 48.7389 57.401 49.2463C56.6431 49.8476 56.1668 50.7078 56.0562 51.6685C55.9477 52.6294 56.2182 53.5752 56.8202 54.3316L61.5202 60.2461C62.2 61.1953 63.2999 61.7606 64.4702 61.7606C65.4358 61.7606 66.3442 61.3834 67.029 60.6994L78.2523 49.4742C79.6632 48.0617 79.6632 45.7622 78.2521 44.3496ZM68.054 67.0763C76.0808 67.0763 82.6082 60.5482 82.6082 52.5243C82.6082 44.501 76.0808 37.9724 68.054 37.9724C60.03 37.9724 53.5007 44.5011 53.5007 52.5243C53.5007 60.5482 60.0299 67.0763 68.054 67.0763ZM36.3833 63.4191L51.5915 57.5052C51.1129 55.9283 50.8552 54.2559 50.8552 52.5243C50.8552 43.4867 57.8635 36.055 66.731 35.3773V16.3619L36.3833 28.1618V63.4191ZM3.39236 16.3619L11.6675 19.5802V29.2293C11.6675 29.7869 11.9353 30.3176 12.3846 30.6486C12.8331 30.9784 13.4201 31.0761 13.9526 30.9106L18.0209 29.6452L22.5589 33.5112C22.8825 33.7874 23.291 33.9311 23.7029 33.9311C23.9526 33.9311 24.2043 33.879 24.439 33.7704C25.0605 33.4833 25.4628 32.8557 25.4628 32.1704V24.9443L33.7378 28.1618V63.4189L3.39236 51.6192V16.3619ZM35.0603 3.01974L42.3305 5.84643L12.9905 17.2556L5.72029 14.4282L35.0603 3.01974ZM14.3128 20.6088V28.0268L17.93 26.9025C18.3628 26.7675 18.8346 26.8646 19.1799 27.1583L22.8167 30.2551V23.9152L14.3128 20.6088ZM16.6416 18.6749L45.9816 7.26581L53.4818 10.1821C43.7 13.9852 33.9197 17.7882 24.1398 21.5904L16.6416 18.6749ZM35.0603 25.8373L27.7894 23.01C37.5706 19.2076 47.3507 15.4046 57.1307 11.6015L64.4023 14.4282L35.0603 25.8373ZM69.3771 35.3771V14.4282C69.3771 13.8833 69.0413 13.3935 68.5338 13.1952L35.54 0.367512C35.2328 0.247288 34.8906 0.247288 34.5814 0.367512L1.58965 13.1952C1.08213 13.3933 0.746094 13.8833 0.746094 14.4282V52.5243C0.746094 53.0698 1.08196 53.5598 1.58965 53.7578L34.5814 66.5856C34.7367 66.6453 34.8989 66.6759 35.0603 66.6759C35.2243 66.6759 35.3866 66.6453 35.5399 66.5856L52.5521 59.9709C55.3333 65.7355 61.2357 69.7217 68.0538 69.7217C77.5392 69.7217 85.2539 62.0071 85.2539 52.5243C85.2541 43.4866 78.2452 36.0548 69.3771 35.3771Z" fill="black"/>
</svg>
