<svg width="32" height="32" viewBox="0 0 32 32" fill="none" xmlns="http://www.w3.org/2000/svg">
<path d="M15.9957 0C15.0847 0 14.163 0.359434 13.4685 1.05377L10.8763 3.64553H7.20765C5.24372 3.64553 3.63183 5.25712 3.63183 7.22067V10.8811L1.0417 13.4793C-0.347235 14.8669 -0.347235 17.1472 1.0417 18.5348L3.63183 21.1245V24.7945C3.63183 26.7581 5.24372 28.3697 7.20765 28.3697H10.8763L13.4685 30.9593C14.8575 32.3469 17.1425 32.3469 18.5315 30.9593L21.1237 28.3697H24.7849C26.7488 28.3697 28.3682 26.7581 28.3682 24.7945V21.1245L30.9583 18.5348C32.3472 17.1472 32.3472 14.868 30.9583 13.4793L28.3682 10.8811V7.22067C28.3682 5.25712 26.7477 3.64553 24.7849 3.64553H21.1237L18.5315 1.05377C17.837 0.358367 16.9089 0 15.9957 0ZM12.4999 7.93741C14.2558 7.93741 15.696 9.38687 15.696 11.1414C15.696 12.8959 14.2548 14.3368 12.4999 14.3368C10.7451 14.3368 9.30386 12.8959 9.30386 11.1414C9.30386 9.38687 10.7451 7.93741 12.4999 7.93741ZM23.1815 10.3361C23.189 10.6358 23.0706 10.9249 22.854 11.1328L11.5388 22.4449C11.1302 22.8715 10.4538 22.8864 10.0271 22.479C9.60043 22.0705 9.58549 21.3943 10.0101 20.9506L21.3413 9.61832C21.5355 9.41994 21.7979 9.30581 22.0817 9.29622C22.6769 9.28235 23.1677 9.74737 23.1815 10.3361ZM12.4999 10.0705C11.8983 10.0705 11.4289 10.5398 11.4289 11.1414C11.4289 11.7429 11.8972 12.2037 12.4999 12.2037C13.1026 12.2037 13.5624 11.7429 13.5624 11.1414C13.5624 10.5398 13.1016 10.0705 12.4999 10.0705ZM21.4779 16.9105C23.2338 16.9105 24.6739 18.3535 24.6739 20.108C24.6739 21.8625 23.2327 23.312 21.4779 23.312C19.723 23.312 18.2712 21.8625 18.2712 20.108C18.2712 18.3535 19.723 16.9105 21.4779 16.9105ZM21.4779 19.0468C20.8762 19.0468 20.4068 19.5075 20.4068 20.1091C20.4068 20.7106 20.8752 21.1799 21.4779 21.1799C22.0806 21.1799 22.5404 20.7106 22.5404 20.1091C22.5404 19.5075 22.0795 19.0468 21.4779 19.0468Z" fill="#00BA00"/>
</svg>
