<svg width="178" height="48" viewBox="0 0 178 48" fill="none" xmlns="http://www.w3.org/2000/svg">
<rect width="178" height="48" rx="8" fill="black"/>
<path d="M37.4187 12.8474C37.1535 13.1273 37 13.563 37 14.1273V34.2544C37 34.8187 37.1535 35.2544 37.4187 35.5343L37.4841 35.5957L48.6719 24.3217V24.0555L37.4841 12.7815L37.4187 12.8474Z" fill="url(#paint0_linear_815_43413)"/>
<path d="M52.3972 28.0813L48.6721 24.3214V24.0552L52.4017 20.2953L52.4853 20.3442L56.9021 22.8777C58.1626 23.5967 58.1626 24.7799 56.9021 25.5034L52.4853 28.0324L52.3972 28.0813Z" fill="url(#paint1_linear_815_43413)"/>
<path d="M52.4843 28.0322L48.6712 24.1881L37.418 35.5338C37.8366 35.9775 38.5194 36.031 39.2958 35.5873L52.4843 28.0322Z" fill="url(#paint2_linear_815_43413)"/>
<path d="M52.4843 20.3444L39.2958 12.7893C38.5194 12.3502 37.8366 12.4037 37.418 12.8473L48.6712 24.1885L52.4843 20.3444Z" fill="url(#paint3_linear_815_43413)"/>
<path d="M70.8055 15.3084C70.8055 16.0684 70.5798 16.677 70.1352 17.1309C69.6239 17.669 68.9581 17.9398 68.1423 17.9398C67.3625 17.9398 66.6967 17.6645 66.1505 17.1218C65.6032 16.5712 65.3301 15.8955 65.3301 15.0866C65.3301 14.2777 65.6032 13.602 66.1505 13.0559C66.6967 12.5087 67.3625 12.2334 68.1423 12.2334C68.5305 12.2334 68.9006 12.3142 69.2538 12.4643C69.6059 12.6156 69.8925 12.8204 70.1002 13.073L69.6285 13.5531C69.2662 13.1219 68.7731 12.9092 68.1423 12.9092C67.5735 12.9092 67.0804 13.1094 66.6617 13.5132C66.2475 13.9182 66.0399 14.4427 66.0399 15.0866C66.0399 15.7305 66.2475 16.2595 66.6617 16.6645C67.0804 17.0638 67.5735 17.2686 68.1423 17.2686C68.746 17.2686 69.2538 17.0638 69.6544 16.66C69.9185 16.3926 70.0686 16.024 70.1081 15.553H68.1423V14.8955H70.7648C70.7964 15.0377 70.8055 15.1753 70.8055 15.3084Z" fill="white" stroke="white" stroke-width="0.16" stroke-miterlimit="10"/>
<path d="M74.9656 13.0285H72.5021V14.7577H74.7229V15.4152H72.5021V17.1444H74.9656V17.8145H71.8047V12.3584H74.9656V13.0285Z" fill="white" stroke="white" stroke-width="0.16" stroke-miterlimit="10"/>
<path d="M77.9018 17.8145H77.2044V13.0285H75.6934V12.3584H79.414V13.0285H77.9018V17.8145Z" fill="white" stroke="white" stroke-width="0.16" stroke-miterlimit="10"/>
<path d="M82.1074 17.8135V12.3574H82.8037V17.8135H82.1074Z" fill="white" stroke="white" stroke-width="0.16" stroke-miterlimit="10"/>
<path d="M85.8901 17.8145H85.1983V13.0285H83.6816V12.3584H87.4067V13.0285H85.8901V17.8145Z" fill="white" stroke="white" stroke-width="0.16" stroke-miterlimit="10"/>
<path d="M94.4498 17.1127C93.916 17.6645 93.2547 17.9398 92.4659 17.9398C91.6726 17.9398 91.0113 17.6645 90.4775 17.1127C89.9449 16.5621 89.6797 15.8864 89.6797 15.0866C89.6797 14.2868 89.9449 13.6111 90.4775 13.0605C91.0113 12.5087 91.6726 12.2334 92.4659 12.2334C93.2502 12.2334 93.9115 12.5087 94.4453 13.065C94.9824 13.6202 95.2476 14.2914 95.2476 15.0866C95.2476 15.8864 94.9824 16.5621 94.4498 17.1127ZM90.9932 16.6554C91.395 17.0638 91.8836 17.2686 92.4659 17.2686C93.0437 17.2686 93.5368 17.0638 93.9341 16.6554C94.3347 16.247 94.5378 15.7225 94.5378 15.0866C94.5378 14.4507 94.3347 13.9262 93.9341 13.5178C93.5368 13.1094 93.0437 12.9046 92.4659 12.9046C91.8836 12.9046 91.395 13.1094 90.9932 13.5178C90.5926 13.9262 90.3895 14.4507 90.3895 15.0866C90.3895 15.7225 90.5926 16.247 90.9932 16.6554Z" fill="white" stroke="white" stroke-width="0.16" stroke-miterlimit="10"/>
<path d="M96.2266 17.8135V12.3574H97.0729L99.7045 16.6008H99.735L99.7045 15.5519V12.3574H100.401V17.8135H99.6741L96.9183 13.3608H96.8879L96.9183 14.4143V17.8135H96.2266Z" fill="white" stroke="white" stroke-width="0.16" stroke-miterlimit="10"/>
<path d="M89.5095 25.7829C87.3891 25.7829 85.6569 27.4097 85.6569 29.6543C85.6569 31.8806 87.3891 33.5245 89.5095 33.5245C91.6344 33.5245 93.3667 31.8806 93.3667 29.6543C93.3667 27.4097 91.6344 25.7829 89.5095 25.7829ZM89.5095 32.0001C88.3461 32.0001 87.3451 31.0319 87.3451 29.6543C87.3451 28.2584 88.3461 27.3073 89.5095 27.3073C90.673 27.3073 91.6785 28.2584 91.6785 29.6543C91.6785 31.0319 90.673 32.0001 89.5095 32.0001ZM81.1035 25.7829C78.9785 25.7829 77.2508 27.4097 77.2508 29.6543C77.2508 31.8806 78.9785 33.5245 81.1035 33.5245C83.2273 33.5245 84.9561 31.8806 84.9561 29.6543C84.9561 27.4097 83.2273 25.7829 81.1035 25.7829ZM81.1035 32.0001C79.9389 32.0001 78.9345 31.0319 78.9345 29.6543C78.9345 28.2584 79.9389 27.3073 81.1035 27.3073C82.2669 27.3073 83.2679 28.2584 83.2679 29.6543C83.2679 31.0319 82.2669 32.0001 81.1035 32.0001ZM71.1006 26.9694V28.6145H74.9973C74.8833 29.5337 74.5786 30.2094 74.1114 30.6804C73.5427 31.2492 72.6568 31.8806 71.1006 31.8806C68.7026 31.8806 66.8248 29.9296 66.8248 27.5121C66.8248 25.0946 68.7026 23.1435 71.1006 23.1435C72.3972 23.1435 73.3407 23.6543 74.0369 24.3164L75.1869 23.1572C74.213 22.2198 72.9175 21.4997 71.1006 21.4997C67.8122 21.4997 65.0486 24.197 65.0486 27.5121C65.0486 30.8272 67.8122 33.5245 71.1006 33.5245C72.878 33.5245 74.213 32.9375 75.2625 31.8363C76.3379 30.7521 76.6731 29.2276 76.6731 27.9967C76.6731 27.6145 76.6415 27.2629 76.585 26.9694H71.1006ZM112.004 28.2447C111.686 27.379 110.708 25.7829 108.715 25.7829C106.74 25.7829 105.096 27.3517 105.096 29.6543C105.096 31.8226 106.723 33.5245 108.905 33.5245C110.669 33.5245 111.686 32.4403 112.105 31.8089L110.796 30.9296C110.359 31.5735 109.765 32.0001 108.905 32.0001C108.05 32.0001 107.438 31.6053 107.045 30.8272L112.181 28.685L112.004 28.2447ZM106.767 29.5337C106.723 28.0411 107.917 27.2766 108.773 27.2766C109.443 27.2766 110.012 27.6145 110.201 28.098L106.767 29.5337ZM102.593 33.289H104.281V21.9126H102.593V33.289ZM99.8283 26.6452H99.7719C99.3927 26.1924 98.6694 25.7829 97.7531 25.7829C95.8301 25.7829 94.072 27.4848 94.072 29.6668C94.072 31.8363 95.8301 33.5245 97.7531 33.5245C98.6694 33.5245 99.3927 33.1115 99.7719 32.6451H99.8283V33.2003C99.8283 34.6804 99.0441 35.4756 97.779 35.4756C96.7476 35.4756 96.1077 34.7247 95.8437 34.0933L94.3755 34.7111C94.7987 35.7372 95.9193 37 97.779 37C99.7584 37 101.429 35.826 101.429 32.9693V26.0184H99.8283V26.6452ZM97.8975 32.0001C96.7341 32.0001 95.7602 31.0183 95.7602 29.6668C95.7602 28.3027 96.7341 27.3073 97.8975 27.3073C99.0441 27.3073 99.948 28.3027 99.948 29.6668C99.948 31.0183 99.0441 32.0001 97.8975 32.0001ZM119.907 21.9126H115.87V33.289H117.553V28.9785H119.907C121.777 28.9785 123.611 27.6145 123.611 25.445C123.611 23.2766 121.773 21.9126 119.907 21.9126ZM119.951 27.396H117.553V23.4951H119.951C121.209 23.4951 121.926 24.5474 121.926 25.445C121.926 26.3255 121.209 27.396 119.951 27.396ZM130.359 25.7613C129.143 25.7613 127.878 26.3028 127.358 27.503L128.852 28.1344C129.173 27.503 129.765 27.2982 130.39 27.2982C131.263 27.2982 132.149 27.8272 132.163 28.7612V28.8807C131.858 28.7032 131.206 28.4404 130.403 28.4404C128.794 28.4404 127.154 29.3334 127.154 31.0001C127.154 32.5245 128.473 33.5063 129.954 33.5063C131.087 33.5063 131.712 32.991 132.105 32.3914H132.163V33.2708H133.789V28.9068C133.789 26.8898 132.295 25.7613 130.359 25.7613ZM130.156 31.9955C129.606 31.9955 128.838 31.7202 128.838 31.0319C128.838 30.1514 129.795 29.8135 130.623 29.8135C131.365 29.8135 131.712 29.9785 132.163 30.1958C132.031 31.2492 131.131 31.9955 130.156 31.9955ZM139.713 26.0104L137.778 30.9421H137.72L135.72 26.0104H133.904L136.91 32.9022L135.195 36.7372H136.954L141.587 26.0104H139.713ZM124.536 33.289H126.225V21.9126H124.536V33.289Z" fill="white"/>
<defs>
<linearGradient id="paint0_linear_815_43413" x1="47.6785" y1="34.464" x2="32.4052" y2="19.3136" gradientUnits="userSpaceOnUse">
<stop stop-color="#00A0FF"/>
<stop offset="0.0066" stop-color="#00A1FF"/>
<stop offset="0.2601" stop-color="#00BEFF"/>
<stop offset="0.5122" stop-color="#00D2FF"/>
<stop offset="0.7604" stop-color="#00DFFF"/>
<stop offset="1" stop-color="#00E3FF"/>
</linearGradient>
<linearGradient id="paint1_linear_815_43413" x1="58.5435" y1="24.187" x2="36.6989" y2="24.187" gradientUnits="userSpaceOnUse">
<stop stop-color="#FFE000"/>
<stop offset="0.4087" stop-color="#FFBD00"/>
<stop offset="0.7754" stop-color="#FFA500"/>
<stop offset="1" stop-color="#FF9C00"/>
</linearGradient>
<linearGradient id="paint2_linear_815_43413" x1="50.4108" y1="22.0984" x2="29.6989" y2="1.55327" gradientUnits="userSpaceOnUse">
<stop stop-color="#FF3A44"/>
<stop offset="1" stop-color="#C31162"/>
</linearGradient>
<linearGradient id="paint3_linear_815_43413" x1="34.5853" y1="42.2304" x2="43.8341" y2="33.0561" gradientUnits="userSpaceOnUse">
<stop stop-color="#32A071"/>
<stop offset="0.0685" stop-color="#2DA771"/>
<stop offset="0.4762" stop-color="#15CF74"/>
<stop offset="0.8009" stop-color="#06E775"/>
<stop offset="1" stop-color="#00F076"/>
</linearGradient>
</defs>
</svg>
