<svg width="105" height="25" viewBox="0 0 105 25" fill="none" xmlns="http://www.w3.org/2000/svg">
<path d="M0.41891 0.84744C0.153717 1.1273 0.000244141 1.56302 0.000244141 2.12729V22.2544C0.000244141 22.8187 0.153717 23.2544 0.41891 23.5343L0.484362 23.5957L11.6721 12.3217V12.0555L0.484362 0.781458L0.41891 0.84744Z" fill="url(#paint0_linear_471_27067)"/>
<path d="M15.3972 16.0811L11.6721 12.3212V12.0549L15.4017 8.29504L15.4853 8.34396L19.9021 10.8775C21.1626 11.5965 21.1626 12.7796 19.9021 13.5032L15.4853 16.0321L15.3972 16.0811Z" fill="url(#paint1_linear_471_27067)"/>
<path d="M15.4853 16.0322L11.6722 12.1881L0.418945 23.5338C0.837612 23.9775 1.52034 24.031 2.29674 23.5873L15.4853 16.0322Z" fill="url(#paint2_linear_471_27067)"/>
<path d="M15.4853 8.34439L2.29674 0.789322C1.52034 0.350192 0.837612 0.40366 0.418945 0.84734L11.6722 12.1885L15.4853 8.34439Z" fill="url(#paint3_linear_471_27067)"/>
<path d="M33.806 3.30844C33.806 4.06838 33.5803 4.67702 33.1356 5.13094C32.6244 5.66904 31.9586 5.9398 31.1427 5.9398C30.363 5.9398 29.6972 5.66449 29.151 5.12184C28.6037 4.57122 28.3306 3.89546 28.3306 3.0866C28.3306 2.27774 28.6037 1.60198 29.151 1.05591C29.6972 0.508708 30.363 0.233398 31.1427 0.233398C31.5309 0.233398 31.9011 0.314171 32.2543 0.464339C32.6064 0.615646 32.893 0.820421 33.1007 1.07298L32.6289 1.55306C32.2667 1.1219 31.7736 0.909158 31.1427 0.909158C30.574 0.909158 30.0808 1.10938 29.6622 1.51324C29.248 1.91824 29.0404 2.4427 29.0404 3.0866C29.0404 3.7305 29.248 4.25951 29.6622 4.66451C30.0808 5.06382 30.574 5.26859 31.1427 5.26859C31.7465 5.26859 32.2543 5.06382 32.6549 4.65996C32.919 4.39261 33.0691 4.02402 33.1086 3.55303H31.1427V2.89548H33.7653C33.7969 3.03768 33.806 3.17534 33.806 3.30844Z" fill="white" stroke="white" stroke-width="0.16" stroke-miterlimit="10"/>
<path d="M37.9665 1.02847H35.5031V2.75768H37.7239V3.41524H35.5031V5.14445H37.9665V5.81452H34.8057V0.358398H37.9665V1.02847Z" fill="white" stroke="white" stroke-width="0.16" stroke-miterlimit="10"/>
<path d="M40.9029 5.81452H40.2055V1.02847H38.6945V0.358398H42.4151V1.02847H40.9029V5.81452Z" fill="white" stroke="white" stroke-width="0.16" stroke-miterlimit="10"/>
<path d="M45.1078 5.81452V0.358398H45.8041V5.81452H45.1078Z" fill="white" stroke="white" stroke-width="0.16" stroke-miterlimit="10"/>
<path d="M48.8902 5.81452H48.1984V1.02847H46.6818V0.358398H50.4069V1.02847H48.8902V5.81452Z" fill="white" stroke="white" stroke-width="0.16" stroke-miterlimit="10"/>
<path d="M57.4508 5.11274C56.917 5.66449 56.2557 5.9398 55.4669 5.9398C54.6736 5.9398 54.0123 5.66449 53.4785 5.11274C52.9459 4.56212 52.6807 3.88636 52.6807 3.0866C52.6807 2.28684 52.9459 1.61108 53.4785 1.06046C54.0123 0.508708 54.6736 0.233398 55.4669 0.233398C56.2512 0.233398 56.9125 0.508707 57.4462 1.06501C57.9834 1.62018 58.2486 2.29139 58.2486 3.0866C58.2486 3.88636 57.9834 4.56212 57.4508 5.11274ZM53.9942 4.65541C54.396 5.06382 54.8846 5.26859 55.4669 5.26859C56.0447 5.26859 56.5378 5.06382 56.935 4.65541C57.3356 4.24699 57.5388 3.72254 57.5388 3.0866C57.5388 2.45066 57.3356 1.92621 56.935 1.51779C56.5378 1.10938 56.0447 0.904606 55.4669 0.904606C54.8846 0.904606 54.396 1.10938 53.9942 1.51779C53.5936 1.92621 53.3905 2.45066 53.3905 3.0866C53.3905 3.72254 53.5936 4.24699 53.9942 4.65541Z" fill="white" stroke="white" stroke-width="0.16" stroke-miterlimit="10"/>
<path d="M59.2273 5.81452V0.358398H60.0737L62.7053 4.6018H62.7357L62.7053 3.55289V0.358398H63.4016V5.81452H62.6748L59.9191 1.3618H59.8886L59.9191 2.41525V5.81452H59.2273Z" fill="white" stroke="white" stroke-width="0.16" stroke-miterlimit="10"/>
<path d="M52.5095 13.7829C50.3891 13.7829 48.6569 15.4097 48.6569 17.6543C48.6569 19.8806 50.3891 21.5245 52.5095 21.5245C54.6344 21.5245 56.3667 19.8806 56.3667 17.6543C56.3667 15.4097 54.6344 13.7829 52.5095 13.7829ZM52.5095 20.0001C51.3461 20.0001 50.3451 19.0319 50.3451 17.6543C50.3451 16.2584 51.3461 15.3073 52.5095 15.3073C53.673 15.3073 54.6785 16.2584 54.6785 17.6543C54.6785 19.0319 53.673 20.0001 52.5095 20.0001ZM44.1035 13.7829C41.9785 13.7829 40.2508 15.4097 40.2508 17.6543C40.2508 19.8806 41.9785 21.5245 44.1035 21.5245C46.2273 21.5245 47.9561 19.8806 47.9561 17.6543C47.9561 15.4097 46.2273 13.7829 44.1035 13.7829ZM44.1035 20.0001C42.9389 20.0001 41.9345 19.0319 41.9345 17.6543C41.9345 16.2584 42.9389 15.3073 44.1035 15.3073C45.2669 15.3073 46.2679 16.2584 46.2679 17.6543C46.2679 19.0319 45.2669 20.0001 44.1035 20.0001ZM34.1006 14.9694V16.6145H37.9973C37.8833 17.5337 37.5786 18.2094 37.1114 18.6804C36.5427 19.2492 35.6568 19.8806 34.1006 19.8806C31.7026 19.8806 29.8248 17.9296 29.8248 15.5121C29.8248 13.0946 31.7026 11.1435 34.1006 11.1435C35.3972 11.1435 36.3407 11.6543 37.0369 12.3164L38.1869 11.1572C37.213 10.2198 35.9175 9.49965 34.1006 9.49965C30.8122 9.49965 28.0486 12.197 28.0486 15.5121C28.0486 18.8272 30.8122 21.5245 34.1006 21.5245C35.878 21.5245 37.213 20.9375 38.2625 19.8363C39.3379 18.7521 39.6731 17.2276 39.6731 15.9967C39.6731 15.6145 39.6415 15.2629 39.585 14.9694H34.1006ZM75.0035 16.2447C74.6864 15.379 73.708 13.7829 71.7151 13.7829C69.7403 13.7829 68.0961 15.3517 68.0961 17.6543C68.0961 19.8226 69.7234 21.5245 71.9047 21.5245C73.6685 21.5245 74.6864 20.4403 75.1051 19.8089L73.7961 18.9296C73.3593 19.5735 72.7646 20.0001 71.9047 20.0001C71.0505 20.0001 70.4377 19.6053 70.045 18.8272L75.1807 16.685L75.0035 16.2447ZM69.7674 17.5337C69.7234 16.0411 70.9173 15.2766 71.7727 15.2766C72.443 15.2766 73.0118 15.6145 73.2013 16.098L69.7674 17.5337ZM65.5931 21.289H67.2813V9.91261H65.5931V21.289ZM62.8283 14.6452H62.7719C62.3927 14.1924 61.6694 13.7829 60.7531 13.7829C58.8301 13.7829 57.072 15.4848 57.072 17.6668C57.072 19.8363 58.8301 21.5245 60.7531 21.5245C61.6694 21.5245 62.3927 21.1115 62.7719 20.6451H62.8283V21.2003C62.8283 22.6804 62.0441 23.4756 60.779 23.4756C59.7476 23.4756 59.1077 22.7247 58.8437 22.0933L57.3755 22.7111C57.7987 23.7372 58.9193 25 60.779 25C62.7584 25 64.4285 23.826 64.4285 20.9693V14.0184H62.8283V14.6452ZM60.8975 20.0001C59.7341 20.0001 58.7602 19.0183 58.7602 17.6668C58.7602 16.3027 59.7341 15.3073 60.8975 15.3073C62.0441 15.3073 62.948 16.3027 62.948 17.6668C62.948 19.0183 62.0441 20.0001 60.8975 20.0001ZM82.9074 9.91261H78.8697V21.289H80.5534V16.9785H82.9074C84.7773 16.9785 86.6111 15.6145 86.6111 13.445C86.6111 11.2766 84.7728 9.91261 82.9074 9.91261ZM82.9514 15.396H80.5534V11.4951H82.9514C84.2085 11.4951 84.9262 12.5474 84.9262 13.445C84.9262 14.3255 84.2085 15.396 82.9514 15.396ZM93.3594 13.7613C92.1429 13.7613 90.8778 14.3028 90.3576 15.503L91.8517 16.1344C92.1733 15.503 92.7647 15.2982 93.3899 15.2982C94.2633 15.2982 95.1492 15.8272 95.1627 16.7612V16.8807C94.858 16.7032 94.2057 16.4404 93.4034 16.4404C91.7942 16.4404 90.1545 17.3334 90.1545 19.0001C90.1545 20.5245 91.4726 21.5063 92.9543 21.5063C94.0872 21.5063 94.7124 20.991 95.1051 20.3914H95.1627V21.2708H96.7888V16.9068C96.7888 14.8898 95.2947 13.7613 93.3594 13.7613ZM93.1563 19.9955C92.6056 19.9955 91.8382 19.7202 91.8382 19.0319C91.8382 18.1514 92.7951 17.8135 93.6234 17.8135C94.3649 17.8135 94.7124 17.9785 95.1627 18.1958C95.0307 19.2492 94.1313 19.9955 93.1563 19.9955ZM102.713 14.0104L100.778 18.9421H100.72L98.7197 14.0104H96.9039L99.9102 20.9022L98.1949 24.7372H99.9542L104.587 14.0104H102.713ZM87.5364 21.289H89.2246V9.91261H87.5364V21.289Z" fill="white"/>
<defs>
<linearGradient id="paint0_linear_471_27067" x1="10.6788" y1="22.464" x2="-4.59459" y2="7.31363" gradientUnits="userSpaceOnUse">
<stop stop-color="#00A0FF"/>
<stop offset="0.0066" stop-color="#00A1FF"/>
<stop offset="0.2601" stop-color="#00BEFF"/>
<stop offset="0.5122" stop-color="#00D2FF"/>
<stop offset="0.7604" stop-color="#00DFFF"/>
<stop offset="1" stop-color="#00E3FF"/>
</linearGradient>
<linearGradient id="paint1_linear_471_27067" x1="21.5435" y1="12.1868" x2="-0.301059" y2="12.1868" gradientUnits="userSpaceOnUse">
<stop stop-color="#FFE000"/>
<stop offset="0.4087" stop-color="#FFBD00"/>
<stop offset="0.7754" stop-color="#FFA500"/>
<stop offset="1" stop-color="#FF9C00"/>
</linearGradient>
<linearGradient id="paint2_linear_471_27067" x1="13.4118" y1="10.0984" x2="-7.30011" y2="-10.4467" gradientUnits="userSpaceOnUse">
<stop stop-color="#FF3A44"/>
<stop offset="1" stop-color="#C31162"/>
</linearGradient>
<linearGradient id="paint3_linear_471_27067" x1="-2.41372" y1="30.2304" x2="6.83508" y2="21.0561" gradientUnits="userSpaceOnUse">
<stop stop-color="#32A071"/>
<stop offset="0.0685" stop-color="#2DA771"/>
<stop offset="0.4762" stop-color="#15CF74"/>
<stop offset="0.8009" stop-color="#06E775"/>
<stop offset="1" stop-color="#00F076"/>
</linearGradient>
</defs>
</svg>
