<svg width="24" height="24" viewBox="0 0 24 24" fill="none" xmlns="http://www.w3.org/2000/svg">
<circle cx="12" cy="12" r="12" fill="white"/>
<g clip-path="url(#clip0_7527_108239)">
<path d="M19.1012 17.2133C20.0749 15.7961 20.6451 14.0802 20.6451 12.2308C20.6451 7.36523 16.7008 3.4209 11.8352 3.4209C6.96969 3.4209 3.02539 7.36523 3.02539 12.2308C3.02539 14.081 3.59617 15.7976 4.57062 17.2151L19.1012 17.2133Z" fill="#FF4155"/>
<path d="M11.7877 3.29688C9.743 3.29688 8.07951 4.96037 8.07951 7.0051C8.08426 7.0763 8.06635 7.11481 8.10205 7.14056C8.14963 7.17483 8.178 7.2301 8.178 7.28839V7.49853C8.178 7.68922 8.40371 7.78523 8.4337 7.69206C8.50947 7.45674 8.71907 7.43686 8.80696 7.43833C8.80955 7.43837 8.8121 7.43851 8.8148 7.43837C8.88715 7.43866 8.95712 7.46038 9.01728 7.50123C9.0467 7.52136 9.08834 7.50781 9.09948 7.47275C9.13253 7.36789 9.14378 7.26174 9.13645 7.16231C9.09815 6.64073 9.12656 5.7241 9.7471 5.44484C10.301 5.19533 10.8588 5.36825 11.2254 5.43848C11.4325 5.49878 11.7738 5.64388 12.2523 5.48472C12.7023 5.33503 13.35 5.20658 13.8796 5.44481C14.4989 5.72356 14.5282 6.63785 14.4904 7.15811C14.4835 7.25404 14.4933 7.35059 14.5195 7.44502C14.5287 7.47836 14.5663 7.49443 14.5966 7.47879C14.7883 7.38015 15.066 7.45689 15.1418 7.69202C15.1501 7.71788 15.1761 7.73338 15.2028 7.72881C15.3156 7.70885 15.3975 7.61202 15.3975 7.49849V7.28835C15.3975 7.2301 15.4258 7.17483 15.4734 7.14052C15.5092 7.1147 15.4912 7.07558 15.496 7.00507C15.496 4.96037 13.8325 3.29688 11.7877 3.29688Z" fill="#41416B"/>
<path d="M11.6847 3.41871C11.7246 3.39102 11.7364 3.34035 11.7189 3.29785C9.70586 3.33467 8.07951 4.98346 8.07951 7.00518C8.08426 7.07638 8.06635 7.11489 8.10205 7.14064C8.14963 7.1749 8.178 7.23017 8.178 7.28846V7.49861C8.178 7.6893 8.40371 7.78531 8.4337 7.69214C8.50947 7.45682 8.71907 7.43694 8.80696 7.43841C8.80955 7.43845 8.8121 7.43859 8.8148 7.43845C8.88715 7.43874 8.95712 7.46045 9.01728 7.5013C9.0467 7.52148 9.08834 7.50788 9.09948 7.47282C9.13253 7.36797 9.14378 7.26182 9.13645 7.16239C9.09815 6.64081 9.12656 5.72418 9.7471 5.44492C10.2952 5.19803 10.847 5.3647 11.2137 5.43626L11.2381 5.38577C11.2381 5.38577 10.5369 4.21682 11.6847 3.41871Z" fill="#35355E"/>
<path d="M4.5459 17.1789C6.13107 19.5095 8.8044 21.0404 11.8355 21.0404C14.8674 21.0404 17.5413 19.5087 19.1264 17.1771C18.9093 16.4841 18.5088 15.8059 17.78 15.4307L17.7802 15.4302C17.7311 15.4068 17.6657 15.3724 17.552 15.3278C15.2137 14.2884 14.9442 14.335 14.7072 14.2559C14.7144 14.2629 14.7208 14.2707 14.7255 14.2801C14.7171 14.3503 14.7621 14.3387 14.5974 14.7621C14.256 15.6092 13.6353 16.3531 12.9161 16.9219C12.8434 16.9792 12.7428 16.9831 12.6658 16.9316C12.5418 16.8488 12.3234 17.6313 12.3352 17.8533C12.3394 17.9866 12.3363 17.8281 12.3374 19.6384C12.3374 19.7097 12.2783 19.7678 12.2056 19.7678C12.1996 19.7678 11.4444 19.7678 11.4673 19.7678C11.3947 19.7678 11.3356 19.7097 11.3356 19.6384C11.3367 17.8281 11.3336 17.9864 11.3377 17.8533C11.3379 17.8518 11.3378 17.8501 11.3377 17.8486C11.3073 17.4571 11.1193 16.8568 11.0072 16.9316C10.9301 16.9831 10.8296 16.9792 10.7569 16.9219C10.0377 16.353 9.41696 15.6092 9.07561 14.7621C8.91088 14.3387 8.95586 14.3503 8.94748 14.2801C8.95223 14.2707 8.95863 14.2629 8.96575 14.2559C8.72871 14.335 8.45931 14.2884 6.12097 15.3278C6.0073 15.3724 5.94186 15.4068 5.89278 15.4302L5.89303 15.4307C5.16346 15.8062 4.76295 16.4853 4.5459 17.1789Z" fill="#FFDD40"/>
<path d="M8.94738 14.2801C8.95212 14.2707 8.95849 14.2629 8.96564 14.2559C8.7286 14.335 8.4592 14.2884 6.12086 15.3278C6.0072 15.3724 5.94175 15.4068 5.89267 15.4302L5.89292 15.4307C5.16346 15.8062 4.76295 16.4853 4.5459 17.1789C5.13368 18.0431 5.87102 18.7974 6.72087 19.4043L7.00488 18.4672C7.12609 18.0672 7.4102 17.7368 7.78749 17.557L9.88831 16.5558V16.0851C9.55005 15.6856 9.26824 15.2403 9.07553 14.7621C8.91073 14.3387 8.95572 14.3503 8.94738 14.2801Z" fill="#FFC839"/>
<path d="M9.67104 13.6594L9.71023 13.8752L9.71145 13.8803C9.72282 13.93 9.73573 13.9799 9.74986 14.0288L9.75205 14.0362C9.75676 14.0525 9.7618 14.0691 9.76687 14.0854L9.76996 14.0952C9.77539 14.1123 9.781 14.1296 9.78708 14.1477L9.78913 14.1536C9.91825 14.5329 10.2004 15.0857 10.8105 15.5652C10.9686 15.6896 11.1414 15.8039 11.3241 15.9049C11.4062 15.9503 11.466 16.0193 11.4971 16.1045C11.4991 16.1101 11.5022 16.1153 11.5062 16.1199C11.5999 16.2253 11.6894 16.3412 11.7723 16.4643C11.7901 16.4908 11.834 16.4908 11.8518 16.4643C11.9343 16.3416 12.024 16.2255 12.1184 16.1194C12.1225 16.1149 12.1256 16.1097 12.1276 16.104C12.1588 16.019 12.2185 15.9501 12.3003 15.9049C13.6123 15.1792 13.8944 14.1096 13.9545 13.6516C13.7939 13.2839 13.7426 12.8294 13.7306 12.4805C13.5368 12.7062 13.3335 12.8949 13.1392 13.0459C12.7606 13.3399 12.2934 13.4995 11.8122 13.4995C11.3311 13.4995 10.8639 13.3398 10.4853 13.0459C10.291 12.8949 10.0876 12.7062 9.89384 12.4805C9.88183 12.8294 9.83051 13.2839 9.66992 13.6516L9.67104 13.6594Z" fill="#FCA870"/>
<path d="M10.4863 13.0459C10.292 12.8949 10.0886 12.7062 9.89481 12.4805C9.8828 12.8294 9.83149 13.2839 9.6709 13.6516L9.67187 13.6594L9.71106 13.8753L9.71229 13.8804C9.72365 13.93 9.73656 13.98 9.75069 14.0289L9.75288 14.0363C9.7576 14.0526 9.76259 14.0691 9.7677 14.0854L9.77079 14.0953C9.77622 14.1123 9.78183 14.1296 9.78791 14.1477L9.78996 14.1536C9.91909 14.5329 10.2012 15.0857 10.8113 15.5652C10.861 15.6044 10.9127 15.642 10.9652 15.6791C11.5002 14.7782 11.6719 13.9414 11.727 13.4977C11.2765 13.4798 10.8422 13.3222 10.4863 13.0459Z" fill="#F9955F"/>
<path d="M14.7958 7.90384C14.7579 7.80492 14.7127 7.71405 14.6615 7.63372C14.574 7.49639 14.5325 7.32857 14.5446 7.16115C14.5833 6.62676 14.5513 5.68676 13.9018 5.39452C13.3564 5.14917 12.6944 5.27967 12.2351 5.43242C11.9631 5.52297 11.6635 5.52293 11.3915 5.43242C10.9322 5.27967 10.2702 5.14903 9.72479 5.39452C9.44549 5.5202 8.99069 5.9174 9.08235 7.16543C9.09443 7.32983 9.05279 7.49618 8.96512 7.63379C8.91539 7.71179 8.8713 7.79981 8.83412 7.89532C8.7252 8.17515 8.68996 8.48569 8.73218 8.79343L8.8845 9.90118C8.8845 11.7358 9.99448 12.7957 10.4717 13.1663C10.8526 13.4621 11.3291 13.625 11.8133 13.625C12.2975 13.625 12.774 13.4622 13.1549 13.1663C13.6321 12.7957 14.7421 11.7357 14.7418 9.90449L14.8944 8.79368C14.9362 8.489 14.9022 8.1813 14.7958 7.90384Z" fill="#F9BD91"/>
<path d="M11.7532 13.1663C11.4137 12.7958 10.6241 11.7358 10.6241 9.90121L10.5158 8.79346C10.4857 8.48573 10.5108 8.17519 10.5883 7.89535C10.6147 7.79981 10.6461 7.71178 10.6815 7.63379C10.7439 7.49617 10.7735 7.32986 10.7649 7.16542C10.6997 5.9174 11.0232 5.5202 11.2219 5.39452C11.2272 5.39114 11.2327 5.38808 11.238 5.38481C10.7923 5.25611 10.2121 5.17517 9.72475 5.39452C9.44549 5.5202 8.99069 5.9174 9.08235 7.16542C9.09443 7.32983 9.05279 7.49617 8.96512 7.63379C8.91539 7.71178 8.8713 7.79981 8.83412 7.89535C8.7252 8.17519 8.68996 8.48573 8.73218 8.79346L8.8845 9.90121C8.8845 11.7358 9.99448 12.7957 10.4717 13.1663C10.8526 13.4622 11.3291 13.6251 11.8133 13.6251C11.99 13.6251 12.1655 13.6031 12.3359 13.5613C12.1249 13.4883 11.9253 13.3542 11.7532 13.1663Z" fill="#FCA870"/>
<path d="M11.8466 16.4894C11.5851 16.0853 11.3273 15.873 11.3273 15.873L10.6611 16.9429C11.141 17.2518 11.2267 18.0064 11.242 18.2495C11.2818 17.4682 11.5777 16.8744 11.8466 16.4894Z" fill="#FF9100"/>
<path d="M12.3807 19.8081V18.3267C12.3807 18.3267 12.389 17.3136 12.9649 16.9429L12.2988 15.873C12.2988 15.873 11.2373 16.7452 11.2373 18.3268V19.8082H12.3807V19.8081Z" fill="#FFB332"/>
<path d="M11.3472 15.8627C10.0187 15.128 9.76267 14.0341 9.71355 13.6151C9.70485 13.5409 9.61895 13.5042 9.55871 13.5484L8.65945 14.2077C8.61145 14.2429 8.58844 14.3037 8.60293 14.3613C8.96072 15.7854 10.1109 16.8253 10.6179 17.2261C10.747 17.3282 10.9352 17.2986 11.027 17.1621C11.1569 16.9691 11.3406 16.6961 11.4923 16.4708C11.6338 16.2604 11.5691 15.9855 11.3472 15.8627Z" fill="#FFC839"/>
<path d="M10.84 15.5273C9.95024 14.8279 9.75563 13.9739 9.71355 13.6151C9.70485 13.5409 9.61895 13.5042 9.55871 13.5484L8.65945 14.2077C8.61145 14.2429 8.58844 14.3037 8.60293 14.3614C8.83188 15.2727 9.38521 16.0263 9.88695 16.5561C10.2853 15.2485 10.7295 15.451 10.84 15.5273Z" fill="#FFB332"/>
<path d="M14.9664 14.2077L14.0671 13.5484C14.0069 13.5042 13.921 13.5409 13.9123 13.6151C13.8632 14.0341 13.6071 15.128 12.2786 15.8627C12.0567 15.9854 11.992 16.2604 12.1336 16.4708C12.2852 16.6961 12.4689 16.9691 12.5988 17.1621C12.6907 17.2986 12.8789 17.3282 13.008 17.2261C13.515 16.8253 14.6652 15.7854 15.0229 14.3613C15.0374 14.3036 15.0144 14.2429 14.9664 14.2077Z" fill="#FFC839"/>
<path d="M12.0879 17.8946C12.0879 18.0186 11.9874 18.1192 11.8633 18.1192C11.7392 18.1192 11.6387 18.0186 11.6387 17.8946C11.6387 17.7705 11.7392 17.6699 11.8633 17.6699C11.9874 17.6699 12.0879 17.7705 12.0879 17.8946Z" fill="#FFC839"/>
<path d="M12.0381 19.0078C12.0381 19.1319 11.9376 19.2325 11.8135 19.2325C11.6894 19.2325 11.5889 19.1319 11.5889 19.0078C11.5889 18.8838 11.6894 18.7832 11.8135 18.7832C11.9376 18.7832 12.0381 18.8838 12.0381 19.0078Z" fill="#FFC839"/>
<path d="M11.2373 19.7568V20.1765C11.2373 20.2816 11.3236 20.3668 11.43 20.3668H12.188C12.2944 20.3668 12.3807 20.2816 12.3807 20.1765V19.7568H11.2373Z" fill="#FF9100"/>
<path d="M11.7874 2.62988C9.4136 2.62988 7.48926 4.55419 7.48926 6.92794V7.43888H8.13335V7.0045C8.13335 4.98649 9.7693 3.35054 11.7873 3.35054C13.8054 3.35054 15.4413 4.98649 15.4413 7.0045V7.43888H16.0854V6.92794C16.0854 4.55419 14.1611 2.62988 11.7874 2.62988Z" fill="#E3E7FC"/>
<path d="M7.48926 6.92794V7.43888H8.13335V7.0045C8.13335 5.0072 9.73593 3.38441 11.7254 3.35133C11.7296 3.32324 11.7224 3.29336 11.7025 3.26966C11.6054 3.15391 11.4949 2.92234 11.7873 2.62988C9.41356 2.62988 7.48926 4.55419 7.48926 6.92794Z" fill="#C8CEFC"/>
<path d="M15.9181 7.05176H15.5801C15.4495 7.05176 15.3436 7.15766 15.3436 7.28826V7.4984C15.3436 7.60538 15.2512 7.68719 15.1446 7.67759L15.1426 7.67741C15.1558 7.71707 15.163 7.75918 15.163 7.8028V10.6204C15.163 10.664 15.1558 10.7061 15.1426 10.7457C15.3724 10.7253 15.5882 10.6595 15.7801 10.5579C16.0109 10.4356 16.1546 10.195 16.1546 9.93383V8.31956V8.13804V7.28826C16.1546 7.15762 16.0487 7.05176 15.9181 7.05176Z" fill="#C8CEFC"/>
<path d="M15.78 8.80473C15.5939 8.90337 15.385 8.96784 15.163 8.99028V10.6202C15.163 10.6638 15.1558 10.7059 15.1426 10.7456C15.3724 10.7252 15.5882 10.6594 15.7801 10.5577C16.0109 10.4355 16.1546 10.1949 16.1546 9.93366V8.31939V8.18066C16.1546 8.44191 16.0108 8.68247 15.78 8.80473Z" fill="#B8C0F4"/>
<path d="M14.7952 11.0389H14.7625C14.5322 11.0389 14.3438 10.8504 14.3438 10.6201V7.80257C14.3438 7.57225 14.5322 7.38379 14.7625 7.38379H14.7952C15.0255 7.38379 15.214 7.57225 15.214 7.80257V10.6201C15.214 10.8504 15.0255 11.0389 14.7952 11.0389Z" fill="#E3E7FC"/>
<path d="M7.65736 7.05176H7.99534C8.12594 7.05176 8.23184 7.15766 8.23184 7.28826V7.4984C8.23184 7.60538 8.32429 7.68719 8.43084 7.67759L8.43289 7.67741C8.41969 7.71707 8.4125 7.75918 8.4125 7.8028V10.6204C8.4125 10.664 8.41969 10.7061 8.43289 10.7457C8.20311 10.7253 7.98729 10.6595 7.79541 10.5579C7.56459 10.4356 7.4209 10.195 7.4209 9.93383V8.31956V8.13804V7.28826C7.4209 7.15762 7.52676 7.05176 7.65736 7.05176Z" fill="#B8C0F4"/>
<path d="M8.41247 8.95415C8.19038 8.93171 7.98153 8.86723 7.79541 8.7686C7.56459 8.64634 7.4209 8.40577 7.4209 8.14453V8.31922V9.93349C7.4209 10.1947 7.56463 10.4353 7.79541 10.5576C7.98729 10.6592 8.20311 10.725 8.43289 10.7454C8.41969 10.7058 8.4125 10.6637 8.4125 10.6201V8.95415H8.41247Z" fill="#A4B0EA"/>
<path d="M8.78007 11.0389H8.81279C9.04311 11.0389 9.23157 10.8504 9.23157 10.6201V7.80257C9.23157 7.57225 9.04315 7.38379 8.81279 7.38379H8.78007C8.54975 7.38379 8.36133 7.57225 8.36133 7.80257V10.6201C8.36133 10.8504 8.54975 11.0389 8.78007 11.0389Z" fill="#E3E7FC"/>
<path d="M14.7952 9.26054H14.7625C14.5322 9.26054 14.3438 9.07208 14.3438 8.8418V10.6202C14.3438 10.8505 14.5322 11.039 14.7625 11.039H14.7952C15.0255 11.039 15.214 10.8506 15.214 10.6202V8.8418C15.214 9.07208 15.0255 9.26054 14.7952 9.26054Z" fill="#C8CEFC"/>
<path d="M8.81279 9.26054H8.78007C8.54975 9.26054 8.36133 9.07208 8.36133 8.8418V10.6202C8.36133 10.8505 8.54975 11.039 8.78007 11.039H8.81279C9.04311 11.039 9.23157 10.8506 9.23157 10.6202V8.8418C9.23153 9.07208 9.04311 9.26054 8.81279 9.26054Z" fill="#C8CEFC"/>
<path d="M13.3548 13.7062C13.3108 13.5631 13.3912 13.4113 13.5344 13.3673C14.0756 13.201 14.5614 12.9929 14.8736 12.8475C14.989 12.7938 15.0778 12.6932 15.1171 12.5716L15.5446 11.2485C15.6282 10.9898 15.4744 10.8147 15.4423 10.7242C15.376 10.5899 15.4312 10.4273 15.5655 10.361C15.6999 10.2948 15.8624 10.35 15.9287 10.4843C15.9535 10.5615 16.2224 10.9147 16.0607 11.4152L15.6332 12.7383C15.5477 13.003 15.3542 13.222 15.1025 13.3392C14.7748 13.4917 14.2644 13.7104 13.6937 13.8858C13.5499 13.93 13.3986 13.8488 13.3548 13.7062Z" fill="#E3E7FC"/>
<path d="M12.0848 14.3842C11.8152 14.3842 11.5967 14.1657 11.5967 13.8961C11.5967 13.6265 11.8152 13.4079 12.0848 13.4079C12.393 13.4079 12.7594 13.3527 13.1737 13.2438C13.4345 13.1751 13.7013 13.3309 13.7699 13.5917C13.8385 13.8524 13.6827 14.1193 13.422 14.1879C12.9267 14.3181 12.4768 14.3842 12.0848 14.3842Z" fill="#FF4155"/>
<path d="M12.5773 13.7398C12.5773 13.5816 12.6443 13.4393 12.7511 13.3389C12.5068 13.3844 12.2835 13.4077 12.0848 13.4077C11.8152 13.4077 11.5967 13.6263 11.5967 13.8958C11.5967 14.1655 11.8152 14.384 12.0848 14.384C12.3685 14.384 12.6829 14.3488 13.0224 14.2804C12.7688 14.231 12.5773 14.0078 12.5773 13.7398Z" fill="#E80054"/>
<path d="M17.8258 3.29688H15.3472C14.0262 3.29688 12.9453 4.37769 12.9453 5.69871C12.9453 7.01974 14.0261 8.10055 15.3472 8.10055H17.0362C17.1164 8.10055 17.1815 8.1656 17.1815 8.24583V9.08816C17.1815 9.18335 17.2848 9.24297 17.3671 9.19503C17.8309 8.92462 18.0605 8.54835 18.1741 8.23177C18.2094 8.1332 18.2902 8.05729 18.392 8.03248C19.4422 7.77628 20.2277 6.82484 20.2277 5.69868C20.2277 4.37773 19.1469 3.29688 17.8258 3.29688Z" fill="#49DAFC"/>
<path d="M12.9453 5.69871C12.9453 7.01974 14.0261 8.10055 15.3471 8.10055H16.1156C15.1532 7.15732 16.0469 5.99667 16.0469 5.99667L15.8682 5.40471C14.9494 4.32638 15.8682 3.29806 15.8682 3.29806L15.8664 3.29688H15.3472C14.0261 3.29688 12.9453 4.37773 12.9453 5.69871Z" fill="#26C6F7"/>
<path d="M14.898 5.72728C14.898 5.90567 14.7534 6.05026 14.575 6.05026C14.3966 6.05026 14.252 5.90567 14.252 5.72728C14.252 5.54889 14.3966 5.4043 14.575 5.4043C14.7534 5.4043 14.898 5.54889 14.898 5.72728Z" fill="black"/>
<path d="M16.1899 5.72728C16.1899 5.90567 16.0453 6.05026 15.8669 6.05026C15.6885 6.05026 15.5439 5.90567 15.5439 5.72728C15.5439 5.54889 15.6885 5.4043 15.8669 5.4043C16.0453 5.4043 16.1899 5.54889 16.1899 5.72728Z" fill="black"/>
<path d="M17.4819 5.72728C17.4819 5.90567 17.3373 6.05026 17.1589 6.05026C16.9805 6.05026 16.8359 5.90567 16.8359 5.72728C16.8359 5.54889 16.9805 5.4043 17.1589 5.4043C17.3373 5.4043 17.4819 5.54889 17.4819 5.72728Z" fill="black"/>
<path d="M18.7739 5.72728C18.7739 5.90567 18.6293 6.05026 18.4509 6.05026C18.2725 6.05026 18.1279 5.90567 18.1279 5.72728C18.1279 5.54889 18.2725 5.4043 18.4509 5.4043C18.6293 5.4043 18.7739 5.54889 18.7739 5.72728Z" fill="black"/>
</g>
<defs>
<clipPath id="clip0_7527_108239">
<rect width="18.411" height="18.411" fill="white" transform="translate(2.62988 2.62988)"/>
</clipPath>
</defs>
</svg>
