<svg width="60" height="60" viewBox="0 0 60 60" fill="none" xmlns="http://www.w3.org/2000/svg">
<g clip-path="url(#clip0_2522_111773)">
<path d="M30 60C46.5685 60 60 46.5685 60 30C60 13.4315 46.5685 0 30 0C13.4315 0 0 13.4315 0 30C0 46.5685 13.4315 60 30 60Z" fill="url(#paint0_linear_2522_111773)"/>
<path d="M60 29.9999C60 46.5702 46.5703 59.9999 30 59.9999C25.0553 60.0033 20.1867 58.783 15.8281 56.448C11.4696 54.1129 7.75663 50.7356 5.02026 46.6171C22.18 46.3569 29.0003 35.9999 29.0003 35.9999C38.7632 21.2343 50.6964 18.0831 57.3105 17.5698C59.0898 21.4718 60.0071 25.7114 60 29.9999Z" fill="url(#paint1_linear_2522_111773)"/>
<path d="M56.6801 43.7366C54.1747 48.5979 50.3886 52.6822 45.7309 55.5483C41.0732 58.4145 35.7208 59.9534 30.2521 59.9991C24.7834 60.0447 19.4061 58.5951 14.7013 55.8071C9.99641 53.019 6.14276 48.9984 3.55664 44.1796C9.65039 45.7499 20.1035 47.3765 27.1629 42.6667C27.1629 42.6667 45.1969 29.1069 56.6801 43.7366Z" fill="url(#paint2_linear_2522_111773)"/>
<path d="M29.516 27.6844C33.0834 27.6844 35.9754 24.7924 35.9754 21.225C35.9754 17.6576 33.0834 14.7656 29.516 14.7656C25.9486 14.7656 23.0566 17.6576 23.0566 21.225C23.0566 24.7924 25.9486 27.6844 29.516 27.6844Z" fill="white"/>
<path d="M30.0001 30.1616C26.9877 30.1616 24.0987 31.3582 21.9685 33.4882C19.8383 35.6181 18.6414 38.507 18.6411 41.5194C18.6411 42.5047 19.0325 43.4496 19.7292 44.1462C20.4258 44.8429 21.3707 45.2343 22.356 45.2343H37.6442C38.6295 45.2343 39.5744 44.8429 40.271 44.1462C40.9677 43.4496 41.3591 42.5047 41.3591 41.5194C41.3588 38.507 40.1619 35.6181 38.0317 33.4882C35.9015 31.3582 33.0125 30.1616 30.0001 30.1616Z" fill="white"/>
</g>
<defs>
<linearGradient id="paint0_linear_2522_111773" x1="15.6141" y1="5.16562" x2="44.209" y2="54.5273" gradientUnits="userSpaceOnUse">
<stop stop-color="#FAAD5F"/>
<stop offset="0.09" stop-color="#FBA659"/>
<stop offset="0.69" stop-color="#FE7E35"/>
<stop offset="1" stop-color="#FF6F27"/>
</linearGradient>
<linearGradient id="paint1_linear_2522_111773" x1="20.441" y1="57.3714" x2="49.2632" y2="25.7108" gradientUnits="userSpaceOnUse">
<stop stop-color="#FF6F27"/>
<stop offset="1" stop-color="#FF5E1F"/>
</linearGradient>
<linearGradient id="paint2_linear_2522_111773" x1="17.1926" y1="56.5218" x2="40.9371" y2="36.096" gradientUnits="userSpaceOnUse">
<stop stop-color="#FF6B2C"/>
<stop offset="1" stop-color="#FF2D0F"/>
</linearGradient>
<clipPath id="clip0_2522_111773">
<rect width="60" height="60" fill="white"/>
</clipPath>
</defs>
</svg>
