<svg width="56" height="57" viewBox="0 0 56 57" fill="none" xmlns="http://www.w3.org/2000/svg">
<g clip-path="url(#clip0_3933_47732)">
<path d="M25.8984 38.6679C14.5538 58.7412 25.6818 39.0507 16.1234 55.9602C15.6919 56.7241 14.5721 56.6652 14.2222 55.8607L11.4673 49.5246C11.2781 49.0897 10.8226 48.8325 10.3522 48.8949L3.50307 49.8002C2.63277 49.916 2.00515 48.9867 2.43667 48.2228C8.78168 36.9991 5.60639 42.6165 12.2116 30.9314L19.0552 34.8001L25.8984 38.6679Z" fill="#169B62"/>
<path d="M52.4867 49.8002L45.6375 48.8949C45.1676 48.8325 44.7117 49.0897 44.5224 49.5246L41.768 55.8607C41.4176 56.6652 40.2978 56.7241 39.8663 55.9602L34.8188 47.0329L33.2893 44.3259L30.0914 38.6679L36.9345 34.8001L43.7782 30.9314C44.2242 31.7205 53.2079 47.6123 53.5531 48.2228C53.9846 48.9867 53.357 49.916 52.4867 49.8002Z" fill="#169B62"/>
<path d="M19.0552 34.8001L25.8984 38.6679C25.7681 38.8982 26.3085 37.942 21.1662 47.0411C17.3125 47.188 13.5126 44.1388 13.7463 39.5741C13.8253 38.0886 12.6017 36.8068 11.058 36.8863C10.3274 36.9213 9.6225 36.85 8.95856 36.6868C13.4322 28.7729 11.8702 31.5359 12.2116 30.9314L19.0552 34.8001Z" fill="#127D4F"/>
<path d="M47.0325 36.6889C46.3638 36.8534 45.658 36.9235 44.9317 36.8863C43.4278 36.8068 42.1666 38.0476 42.2439 39.5741C42.3413 41.5561 41.6637 43.4125 40.3354 44.8074C38.8768 46.3395 36.8431 47.1214 34.8188 47.0329L33.2893 44.3255L30.0914 38.6675L36.9345 34.8001L43.7782 30.9314C44.1187 31.5342 42.5592 28.7751 47.0325 36.6889Z" fill="#127D4F"/>
<path d="M45.0475 34.6223C42.217 34.4719 39.8343 36.8136 39.9804 39.6894C40.2042 44.2541 34.6065 46.5249 31.5782 43.1702C30.6194 42.1089 29.3069 41.5774 27.9949 41.5774C26.6832 41.5774 25.3703 42.1089 24.412 43.1702C21.3692 46.5407 15.7778 44.2255 16.0098 39.6894C16.1606 36.8593 13.8189 34.4762 10.9427 34.6223C6.37843 34.8462 4.10719 29.2488 7.46192 26.2201C9.58618 24.3026 9.5849 20.971 7.46192 19.0544C4.0901 16.0094 6.40791 10.4189 10.9427 10.6517C13.7732 10.8021 16.1559 8.46082 16.0098 5.58461C15.7868 1.03189 21.3756 -1.259 24.412 2.10427C26.3299 4.22811 29.6611 4.22725 31.5782 2.10427C34.6231 -1.26754 40.2132 1.04983 39.9804 5.58461C39.83 8.41511 42.1713 10.7978 45.0475 10.6517C49.6117 10.4283 51.883 16.0256 48.5283 19.0544C46.404 20.9718 46.4048 24.3035 48.5283 26.2201C51.9001 29.2651 49.5823 34.8556 45.0475 34.6223Z" fill="#1ED688"/>
<path d="M45.0475 34.6224C42.217 34.472 39.8343 36.8137 39.9804 39.6895C40.2043 44.2542 34.6065 46.525 31.5782 43.1702C30.6194 42.109 29.307 41.5775 27.9949 41.5775C26.6832 41.5775 25.3703 42.109 24.412 43.1702C23.8874 43.7517 23.2866 44.1636 22.6535 44.4238C20.8697 43.7167 19.4914 41.9885 19.6089 39.6895C19.7593 36.8594 17.418 34.4762 14.5418 34.6224C9.97755 34.8462 7.70631 29.2489 11.061 26.2202C12.1227 25.2619 12.653 23.9489 12.653 22.6373C12.653 21.3252 12.1227 20.0127 11.061 19.0544C7.68922 16.0094 10.007 10.4189 14.5418 10.6518C17.3723 10.8022 19.755 8.46088 19.6089 5.58467C19.5175 3.92696 20.3173 1.95992 21.1602 0.508999C22.3232 0.57864 23.4853 1.07766 24.412 2.10433C26.3299 4.22816 29.6611 4.22731 31.5782 2.10433C34.6232 -1.26748 40.2132 1.04989 39.9804 5.58467C39.83 8.41516 42.1713 10.7979 45.0475 10.6518C49.6118 10.4283 51.883 16.0257 48.5283 19.0544C46.404 20.9719 46.4049 24.3035 48.5283 26.2202C51.9001 29.2651 49.5823 34.8556 45.0475 34.6224Z" fill="#35E298"/>
<path d="M43.494 22.6373C43.494 30.3593 37.8459 36.7637 30.4554 37.9416C29.6543 38.0702 28.8323 38.1364 27.9949 38.1364C19.4359 38.1364 12.4957 31.1967 12.4957 22.6373C12.4957 14.0779 19.4359 7.13812 27.9949 7.13812C28.8323 7.13812 29.6543 7.20477 30.4554 7.33295C37.8459 8.51086 43.494 14.9153 43.494 22.6373Z" fill="#169B62"/>
<path d="M43.494 22.6373C43.494 30.3593 37.8458 36.7637 30.4554 37.9416C23.0645 36.7637 17.4167 30.3597 17.4167 22.6373C17.4167 14.9153 23.0645 8.51086 30.4554 7.33295C37.8458 8.51086 43.494 14.9153 43.494 22.6373Z" fill="#1AB975"/>
<path d="M38.3333 22.6753V28.2461C38.3333 30.6417 36.3736 32.6014 33.978 32.6014H25.3951C24.2671 32.6014 23.3443 31.6786 23.3443 30.5507V21.1094C23.3443 19.9815 24.2671 19.0586 25.3951 19.0586H27.2643C27.445 19.0586 27.6163 18.9779 27.7312 18.8382L32.131 13.5275C32.886 12.6098 34.2284 12.3898 35.202 13.0704C36.2915 13.8313 36.4842 15.357 35.6558 16.3636L34.2442 18.0764C33.9276 18.472 34.2096 19.0586 34.7163 19.0586C36.7141 19.0586 38.3333 20.6779 38.3333 22.6753Z" fill="#FFD993"/>
<path d="M17.6568 30.8468V20.5305C17.6568 19.8196 18.2332 19.2437 18.9437 19.2437H21.8216C22.6594 19.2437 23.3443 19.929 23.3443 20.7664V30.6109C23.3443 31.4488 22.659 32.1336 21.8216 32.1336H18.9437C18.2332 32.1336 17.6568 31.5573 17.6568 30.8468Z" fill="#FFA90B"/>
</g>
<defs>
<clipPath id="clip0_3933_47732">
<rect width="56" height="56" fill="white" transform="translate(0 0.5)"/>
</clipPath>
</defs>
</svg>
