<svg width="96" height="96" viewBox="0 0 96 96" fill="none" xmlns="http://www.w3.org/2000/svg">
<path d="M53.4213 38.5251V46.4871C50.8979 46.6197 48.9218 48.7083 48.9288 51.2354V87.12C48.9246 88.3193 49.3825 89.4744 50.2076 90.3448C48.8209 91.4015 47.1248 91.972 45.3815 91.9684H9.98614C5.54698 91.9659 1.94879 88.3677 1.94629 83.9285V38.5251C1.94518 32.612 6.73739 27.8175 12.6505 27.8164H12.655H42.7127C48.6258 27.8189 53.4188 32.612 53.4213 38.5251Z" fill="#E63946"/>
<path d="M53.4213 41.3164V46.4873C50.8979 46.6199 48.9218 48.7085 48.9288 51.2356V78.4687H1.94629V41.3164H53.4213Z" fill="#FCF7ED"/>
<path d="M39.94 56.429H33.2512V49.7402H26.3245V56.429H19.6357V63.3557H26.3245V70.0445H33.2512V63.3557H39.94V56.429Z" fill="#D12A46"/>
<path d="M15.5791 19.125H39.782V27.7186H15.5791V19.125Z" fill="#D12A46"/>
<path d="M12.8834 4.03125H42.4807C44.2985 4.03125 45.7722 5.50494 45.7722 7.32281V15.8341C45.7722 17.652 44.2985 19.1257 42.4807 19.1257H12.8834C11.0655 19.1257 9.5918 17.652 9.5918 15.8341V7.32281C9.5918 5.50494 11.0655 4.03125 12.8834 4.03125Z" fill="#F7EDDC"/>
<path d="M35.2443 4.03125V9.74143C35.2443 10.8162 36.1156 11.6875 37.1903 11.6875C38.2651 11.6875 39.1364 10.8162 39.1364 9.74143V4.03125H35.2443ZM25.7355 9.74143C25.7355 10.8162 26.6068 11.6875 27.6815 11.6875C28.7563 11.6875 29.6276 10.8162 29.6276 9.74143V4.03125H25.7355V9.74143ZM16.2256 9.74143C16.2256 10.8162 17.0968 11.6875 18.1716 11.6875C19.2464 11.6875 20.1176 10.8162 20.1176 9.74143V4.03125H16.2256V9.74143Z" fill="#D12A46"/>
<path d="M94.3322 51.2365V87.1211C94.3333 89.7485 92.2046 91.8794 89.5772 91.8805C89.5758 91.8805 89.5742 91.8805 89.5728 91.8805H53.6881C51.0677 91.861 48.9482 89.7416 48.9287 87.1211V51.2365C48.9218 48.7094 50.8978 46.6208 53.4213 46.4882C53.5099 46.479 53.5989 46.4751 53.6881 46.4771H89.5728C92.1963 46.472 94.3272 48.5949 94.3322 51.2187V51.2365Z" fill="#F7EDDC"/>
<path d="M65.8873 55.5293L57.8252 63.5914C60.0817 65.7873 63.6913 65.7381 65.8873 63.4816C68.041 61.2684 68.041 57.7425 65.8873 55.5293Z" fill="#E76F51"/>
<path d="M57.8252 55.5293C55.6012 57.7564 55.6012 61.3644 57.8252 63.5914L65.8873 55.5293C63.6602 53.3053 60.0523 53.3053 57.8252 55.5293Z" fill="#F4A261"/>
<path d="M65.8913 82.8238L57.8292 74.7617C55.6332 77.0183 55.6824 80.6279 57.939 82.8238C60.1522 84.9775 63.6781 84.9775 65.8913 82.8238Z" fill="#E76F51"/>
<path d="M65.8912 74.7598C63.6641 72.5358 60.0562 72.5358 57.8291 74.7598L65.8912 82.8219C68.1152 80.5948 68.1152 76.9869 65.8912 74.7598Z" fill="#F4A261"/>
<path d="M85.2101 55.5293L77.1514 63.5914C79.4079 65.7873 83.0175 65.7381 85.2135 63.4816C87.3671 61.2684 87.3671 57.7425 85.2135 55.5293H85.2101Z" fill="#F4A261"/>
<path d="M77.1514 55.5293C74.9274 57.7564 74.9274 61.3644 77.1514 63.5914L85.2135 55.5293C82.9864 53.3053 79.3785 53.3053 77.1514 55.5293Z" fill="#E76F51"/>
<path d="M85.2105 74.7559L77.1484 82.8179C79.405 85.0139 83.0146 84.9647 85.2105 82.7081C87.3642 80.495 87.3642 76.969 85.2105 74.7559Z" fill="#F4A261"/>
<path d="M77.1514 74.7559C74.9274 76.983 74.9274 80.5909 77.1514 82.818L85.2135 74.7559C82.9864 72.5319 79.3785 72.5319 77.1514 74.7559Z" fill="#E76F51"/>
<path d="M86.6316 28.0969C83.746 25.2104 79.0666 25.2098 76.1801 28.0955C76.1795 28.0961 76.1793 28.0963 76.1787 28.0969L86.6316 38.5498C89.5181 35.6641 89.5187 30.9845 86.633 28.0983C86.6325 28.0977 86.6322 28.0972 86.6316 28.0969Z" fill="#F4A261"/>
<path d="M76.1809 38.5486C79.0666 41.4351 83.7459 41.4357 86.6324 38.55C86.633 38.5494 86.6332 38.5492 86.6338 38.5486L76.1809 28.0957C73.2944 30.9814 73.2938 35.661 76.1795 38.5472C76.1801 38.5478 76.1803 38.5481 76.1809 38.5486Z" fill="#E76F51"/>
<path d="M79.6549 11.7432C79.6655 8.43409 76.9917 5.74302 73.6826 5.73245C72.0824 5.72745 70.5467 6.36241 69.4178 7.49638L64.6973 12.2146L73.1919 20.7115L77.9091 15.9944C79.0353 14.8674 79.6638 13.3364 79.6549 11.7432Z" fill="#2A9D8F"/>
<path d="M59.9813 16.9309C57.6358 19.2772 57.6366 23.0806 59.9829 25.4261C62.3293 27.7716 66.1326 27.7708 68.4782 25.4244L73.192 20.7117L64.6973 12.2148L59.9813 16.9309Z" fill="#E9C46A"/>
<path d="M33.2513 48.0684H26.3234C25.4021 48.0684 24.6554 48.8151 24.6554 49.7364V54.7571H19.6358C18.7145 54.7571 17.9678 55.5038 17.9678 56.4251V63.3585C17.9678 64.2798 18.7145 65.0265 19.6358 65.0265H24.6554V70.0462C24.6554 70.9675 25.4021 71.7142 26.3234 71.7142H33.2513C34.1726 71.7142 34.9193 70.9675 34.9193 70.0462V65.0265H39.94C40.8613 65.0265 41.608 64.2798 41.608 63.3585V56.4296C41.608 55.5083 40.8613 54.7616 39.94 54.7616H34.9193V49.7364C34.9193 48.8151 34.1726 48.0684 33.2513 48.0684ZM38.272 58.0932V61.6905H33.2513C32.33 61.6905 31.5832 62.4372 31.5832 63.3585V68.3781H27.9914V63.3585C27.9914 62.4372 27.2447 61.6905 26.3234 61.6905H21.3038V58.0976H26.3234C27.2447 58.0976 27.9914 57.3509 27.9914 56.4296V51.4044H31.5832V56.4251C31.5832 57.3464 32.33 58.0932 33.2513 58.0932H38.272Z" fill="#2C292A"/>
<path d="M1.94602 60.6725C3.02078 60.6725 3.89204 59.8012 3.89204 58.7265V56.2956C3.89204 55.2209 3.02078 54.3496 1.94602 54.3496C0.871261 54.3496 0 55.2209 0 56.2956V58.7265C0.000556006 59.801 0.871539 60.672 1.94602 60.6725Z" fill="#2C292A"/>
<path d="M89.5726 44.8094H55.3671V38.5266C55.359 31.5409 49.698 25.8799 42.7124 25.8719H41.7283V21.0724H42.48C45.3709 21.0688 47.7134 18.7258 47.7164 15.8349V7.32351C47.7134 4.43256 45.3709 2.08955 42.48 2.08594H12.8771C9.98587 2.08955 7.64314 4.43228 7.63952 7.32351V15.8349C7.64314 18.7261 9.98587 21.0688 12.8771 21.0724H13.6288V25.8719H12.6547C5.66904 25.8799 0.00806209 31.5409 0 38.5266V46.4775C0 47.5522 0.871261 48.4235 1.94602 48.4235C3.02078 48.4235 3.89204 47.5522 3.89204 46.4775V43.2637H51.475V44.9062C48.7831 45.8458 46.9808 48.3857 46.9825 51.2369V76.5229H3.89204V68.3429C3.89204 67.2682 3.02078 66.3969 1.94602 66.3969C0.871261 66.3969 0 67.2682 0 68.3429V83.93C0.00611607 89.4425 4.47335 93.9098 9.98587 93.9159H45.3812C47.1198 93.9187 48.8279 93.4605 50.3319 92.5882C51.3396 93.2139 52.5017 93.5467 53.6879 93.5489H69.7009C70.6222 93.5489 71.3689 92.8022 71.3689 91.8809C71.3689 90.9596 70.6222 90.2129 69.7009 90.2129H53.6879C52.1648 90.254 50.8965 89.0528 50.8554 87.5296C50.8518 87.3931 50.8581 87.2569 50.8745 87.1215V51.2369C50.8106 49.7184 51.9146 48.4015 53.4211 48.2C53.7547 48.1822 53.9937 48.1477 54.4219 48.1455H89.5726C91.2792 48.1474 92.662 49.5302 92.664 51.2369V87.1215C92.662 88.8282 91.2792 90.2109 89.5726 90.2129H80.3429C79.4216 90.2129 78.6749 90.9596 78.6749 91.8809C78.6749 92.8022 79.4216 93.5489 80.3429 93.5489H89.5726C93.1207 93.5453 95.9964 90.6696 96 87.1215V51.2369C95.9964 47.6887 93.1207 44.8131 89.5726 44.8094ZM11.536 15.8349V7.32351C11.5371 6.58097 12.139 5.97909 12.8815 5.97798H16.2254V9.74214C16.2254 10.8169 17.0966 11.6882 18.1714 11.6882C19.2461 11.6882 20.1174 10.8169 20.1174 9.74214V5.97798H25.7353V9.74214C25.7353 10.8169 26.6066 11.6882 27.6813 11.6882C28.7561 11.6882 29.6273 10.8169 29.6273 9.74214V5.97798H35.2452V9.74214C35.2452 10.8169 36.1165 11.6882 37.1912 11.6882C38.266 11.6882 39.1373 10.8169 39.1373 9.74214V5.97798H42.48C43.2225 5.97909 43.8238 6.58097 43.8244 7.32351V15.8349C43.8238 16.5774 43.2225 17.1793 42.48 17.1804H12.8771C12.1362 17.1768 11.5371 16.5757 11.536 15.8349ZM37.8362 21.0724V25.774H17.5253V21.0724H37.8362ZM45.3812 90.0238H9.98587C6.62175 90.0202 3.89566 87.2941 3.89204 83.93V80.415H46.9825V87.1215C46.9814 87.9891 47.1504 88.8487 47.4796 89.6513C46.8079 89.899 46.0973 90.0252 45.3812 90.0238ZM3.89204 39.3717V38.5266C3.8976 33.6893 7.81744 29.7695 12.6547 29.7639H42.7124C47.5496 29.7695 51.4695 33.6893 51.475 38.5266V39.3717H3.89204Z" fill="#2C292A"/>
<path d="M67.0678 54.3501C64.1891 51.4731 59.5231 51.4747 56.646 54.3534C53.769 57.2322 53.7706 61.8982 56.6493 64.7752C59.527 67.6509 64.1902 67.6509 67.0678 64.7752C69.9418 61.8943 69.9418 57.2311 67.0678 54.3501ZM59.0024 56.7087C60.1169 55.5853 61.7893 55.2258 63.2669 55.7924L58.085 60.9744C57.5181 59.4962 57.8781 57.8232 59.0024 56.7087ZM64.7092 62.4133C63.5777 63.4925 61.9336 63.84 60.4624 63.3107L65.6255 58.1476C66.1918 59.6255 65.8326 61.2985 64.7092 62.4133Z" fill="#2C292A"/>
<path d="M81.4047 66.93C85.4747 66.9289 88.7729 63.6285 88.7718 59.5585C88.7707 55.4885 85.4702 52.1903 81.4003 52.1914C77.3303 52.1925 74.0321 55.493 74.0332 59.5629C74.0338 61.5179 74.8111 63.3921 76.1938 64.7738C77.575 66.1569 79.4501 66.9328 81.4047 66.93ZM84.2593 62.4119C83.1278 63.4911 81.4837 63.8383 80.0125 63.3093L85.1756 58.1462C85.7419 59.6241 85.3827 61.2971 84.2593 62.4119ZM78.5524 56.7073C79.6669 55.5839 81.3394 55.2244 82.817 55.791L77.635 60.973C77.0682 59.4948 77.4282 57.8218 78.5524 56.7073Z" fill="#2C292A"/>
<path d="M74.8055 26.7162C71.1553 30.3616 71.1517 36.2761 74.7971 39.9263C78.4426 43.5765 84.3571 43.5801 88.0073 39.9347C91.6575 36.2892 91.6611 30.3747 88.0156 26.7245C88.0128 26.7217 88.0101 26.719 88.0073 26.7162C84.3604 23.0738 78.4523 23.0738 74.8055 26.7162ZM77.5566 37.1691C75.9686 35.5742 75.5266 33.1658 76.4446 31.1108L83.6137 38.2811C81.559 39.1985 79.1515 38.7568 77.5566 37.1691ZM86.3659 35.5278L79.1979 28.3619C81.9293 27.1343 85.1388 28.3533 86.3662 31.085C87.0017 32.4989 87.0015 34.1174 86.3659 35.5311V35.5278Z" fill="#2C292A"/>
<path d="M56.6438 73.5797C53.7656 76.4581 53.7659 81.125 56.6444 84.0031C59.5228 86.8813 64.1896 86.881 67.0678 84.0026C69.9457 81.1244 69.9457 76.4582 67.0678 73.58C64.1877 70.7052 59.5239 70.7052 56.6438 73.5797ZM59.0024 75.9383C60.1177 74.8168 61.7891 74.4574 63.2669 75.0209L58.085 80.204C57.5181 78.7264 57.8781 77.0534 59.0024 75.9394V75.9383ZM64.7092 81.6496C63.578 82.7285 61.9345 83.076 60.4636 82.547L65.6255 77.3839C66.1921 78.8618 65.8329 80.5348 64.7092 81.6496Z" fill="#2C292A"/>
<path d="M86.6184 84.0049C89.4957 81.1264 89.4946 76.4604 86.6162 73.5831C83.7377 70.7058 79.0717 70.7069 76.1944 73.5853C73.3171 76.4638 73.3182 81.1298 76.1966 84.0071C77.5786 85.3885 79.4526 86.1644 81.4064 86.1644C83.3613 86.1633 85.2356 85.3868 86.6184 84.0049ZM78.553 75.9394C79.6683 74.818 81.3397 74.4585 82.8176 75.022L77.6356 80.2051C77.0687 78.7275 77.4287 77.0545 78.553 75.9406V75.9394ZM80.0142 82.5403L85.1761 77.3773C85.7427 78.8551 85.3835 80.5282 84.2598 81.643C83.1286 82.7216 81.4851 83.0691 80.0142 82.5403Z" fill="#2C292A"/>
<path d="M64.2372 29.1216C66.3419 29.1252 68.3614 28.2904 69.8495 26.802L79.2838 17.3654C82.3541 14.226 82.2979 9.19215 79.1584 6.12189C76.0684 3.1 71.1305 3.1 68.0403 6.12189L63.3253 10.8368L58.6071 15.5551C55.5051 18.662 55.509 23.6956 58.6162 26.7978C60.1083 28.2873 62.131 29.1233 64.2394 29.1216H64.2372ZM64.2316 25.2296C61.9956 25.2301 60.1822 23.4181 60.1817 21.1819C60.1817 21.1777 60.1817 21.1738 60.1817 21.1696C60.1764 20.0971 60.6009 19.0668 61.3604 18.3095L64.6964 14.9668L70.4389 20.7126L67.1028 24.0553C66.3403 24.8137 65.3069 25.2365 64.2316 25.2307V25.2296ZM70.7925 8.87301C72.3777 7.28756 74.9478 7.28728 76.5333 8.87245C78.1187 10.4576 78.119 13.0278 76.5338 14.6132L73.1922 17.9548L67.452 12.2146L70.7925 8.87301Z" fill="#2C292A"/>
</svg>
