<svg width="113" height="97" viewBox="0 0 113 97" fill="none" xmlns="http://www.w3.org/2000/svg">
<g clip-path="url(#clip0_6290_67229)">
<path d="M42.625 49.1836V75.9376L65.8542 89.3489L66.0433 89.2458V62.3542L42.625 49.1836Z" fill="#F16932"/>
<path d="M66.0469 62.3542V89.2458L89.0869 75.9376V49.1836L66.0469 62.3542Z" fill="#F88D28"/>
<path d="M89.0818 49.1301V49.1989L66.0417 62.3524C59.1297 58.4665 49.5526 53.0676 42.6406 49.1817V49.1301L65.8698 35.7188C72.713 39.6906 82.2214 45.1583 89.0818 49.1301Z" fill="#FEC233"/>
<path d="M57.5321 57.5553L57.4805 57.5897V65.6881L51.1875 62.1633V53.9961L57.5321 57.5553Z" fill="#6A478D"/>
<path d="M80.7441 44.3147L79.1107 45.2088L57.5321 57.5541L51.1875 53.9949V53.9434L74.3995 40.6523L80.7441 44.3147Z" fill="#806CB6"/>
<path d="M105.986 46.8089C101.859 29.718 85.8688 17.1663 68.4684 16.1519V9.13672C63.9635 12.0425 54.9194 17.9057 50.4318 20.8115C54.9366 23.7173 63.9807 29.5805 68.4684 32.4863V26.0729C68.4684 25.3507 78.9739 27.9814 80.1259 28.4628C99.9507 36.4237 106.364 63.0573 93.2622 79.684C84.2869 91.4103 68.1761 95.6745 54.352 90.8085C34.6304 84.1028 24.7954 60.5986 33.8739 41.8226C19.7232 68.1296 42.918 100.111 72.1651 96.5513C96.168 94.0582 112.193 69.8146 105.986 46.8089Z" fill="#E75634"/>
</g>
<g clip-path="url(#clip1_6290_67229)">
<path d="M48.2303 39.0371L29.0438 4.73663C27.0347 1.14489 21.8724 1.14527 19.8635 4.73663L0.676996 39.0371C-1.28316 42.5413 1.24674 46.8642 5.26718 46.8642H43.64C47.6553 46.8642 50.1929 42.5459 48.2303 39.0371Z" fill="#FFB555"/>
<path d="M43.6397 46.8652H24.4531V2.04297C26.2461 2.04297 28.0391 2.9409 29.0432 4.73678L48.2298 39.0381C50.192 42.5467 47.6551 46.8652 43.6397 46.8652Z" fill="#FF9000"/>
<path d="M43.6422 43.9965H5.26931C3.44427 43.9965 2.29073 42.0338 3.18292 40.4387L22.3694 6.13836C23.2822 4.50639 25.6289 4.50553 26.5423 6.13836L45.7287 40.4387C46.6196 42.0316 45.4698 43.9965 43.6422 43.9965Z" fill="#FFDD55"/>
<path d="M43.6397 43.9977H24.4531V4.91406C25.2679 4.91406 26.0836 5.32239 26.5397 6.13904L45.7263 40.4394C46.6165 42.0326 45.4671 43.9977 43.6397 43.9977Z" fill="#FFB555"/>
<path d="M26.4929 28.2769L27.1417 18.188C27.2416 16.6349 26.0088 15.3203 24.4526 15.3203C22.8963 15.3203 21.6636 16.6349 21.7635 18.188L22.4123 28.2769C22.4815 29.3529 23.3744 30.1903 24.4527 30.1903C25.5308 30.1903 26.4237 29.353 26.4929 28.2769Z" fill="#3869AD"/>
<path d="M27.1422 18.1882L26.4938 28.2768C26.4594 28.8152 26.2184 29.2933 25.8521 29.6366C25.4849 29.9809 24.9925 30.1903 24.4531 30.1903V15.3203C26.009 15.3203 27.2426 16.6352 27.1422 18.1882Z" fill="#00457F"/>
<path d="M24.4608 38.7966C26.0399 38.7966 27.32 37.5165 27.32 35.9374C27.32 34.3583 26.0399 33.0781 24.4608 33.0781C22.8817 33.0781 21.6016 34.3583 21.6016 35.9374C21.6016 37.5165 22.8817 38.7966 24.4608 38.7966Z" fill="#3869AD"/>
<path d="M27.3171 35.9374C27.3171 37.5162 26.0367 38.7966 24.4579 38.7966H24.4531V33.0781H24.4579C26.0367 33.0781 27.3171 34.3586 27.3171 35.9374Z" fill="#00457F"/>
</g>
<defs>
<clipPath id="clip0_6290_67229">
<rect width="88.0336" height="88.0336" fill="white" transform="translate(24.4531 8.96484)"/>
</clipPath>
<clipPath id="clip1_6290_67229">
<rect width="48.9076" height="48.9076" fill="white"/>
</clipPath>
</defs>
</svg>
