<svg width="77" height="77" viewBox="0 0 77 77" fill="none" xmlns="http://www.w3.org/2000/svg">
<g clip-path="url(#clip0_8310_97963)">
<path d="M75.7969 75.7969L73.7311 57.2014C73.6296 56.2876 73.2684 55.4221 72.6904 54.7072C72.1124 53.9923 71.3416 53.4579 70.4694 53.1673L48.125 45.7188H28.875L6.53056 53.1673C5.65836 53.4579 4.88765 53.9923 4.30963 54.7072C3.7316 55.4221 3.37045 56.2876 3.26889 57.2014L1.20312 75.7969H75.7969Z" fill="#E75634"/>
<path d="M46.9219 38.5L48.125 45.7188C48.125 45.7188 45.7188 50.5312 38.5 50.5312C31.2812 50.5312 28.875 45.7188 28.875 45.7188L30.0781 38.5H46.9219Z" fill="#F0A47D"/>
<path d="M61.3594 63.7656H15.6406L20.4531 75.7969H56.5469L61.3594 63.7656Z" fill="#014B2A"/>
<path d="M56.5469 54.1406H20.4531L15.6406 63.7656H33.6875C33.6875 65.042 34.1945 66.2661 35.097 67.1686C35.9996 68.0711 37.2236 68.5781 38.5 68.5781C39.7764 68.5781 41.0004 68.0711 41.903 67.1686C42.8055 66.2661 43.3125 65.042 43.3125 63.7656H61.3594L56.5469 54.1406Z" fill="#009045"/>
<path d="M26.4688 68.5781C25.8373 68.5991 25.2373 68.8594 24.7906 69.3062C24.3438 69.753 24.0835 70.3529 24.0625 70.9844C24.0625 70.3462 23.809 69.7342 23.3577 69.2829C22.9065 68.8316 22.2944 68.5781 21.6562 68.5781C21.0181 68.5781 20.406 68.8316 19.9548 69.2829C19.5035 69.7342 19.25 70.3462 19.25 70.9844C19.25 70.3462 18.9965 69.7342 18.5452 69.2829C18.094 68.8316 17.4819 68.5781 16.8438 68.5781C16.2056 68.5781 15.5935 68.8316 15.1423 69.2829C14.691 69.7342 14.4375 70.3462 14.4375 70.9844C14.4165 70.3529 14.1562 69.753 13.7094 69.3062C13.2627 68.8594 12.6627 68.5991 12.0312 68.5781C11.3998 68.5991 10.7998 68.8594 10.3531 69.3062C9.90628 69.753 9.64602 70.3529 9.625 70.9844V73.3906C9.625 74.0288 9.87852 74.6408 10.3298 75.0921C10.781 75.5434 11.3931 75.7969 12.0312 75.7969H28.875V70.9844C28.854 70.3529 28.5937 69.753 28.1469 69.3062C27.7002 68.8594 27.1002 68.5991 26.4688 68.5781Z" fill="#FFC19E"/>
<path d="M64.9688 68.5781C64.3373 68.5991 63.7373 68.8594 63.2906 69.3062C62.8438 69.753 62.5835 70.3529 62.5625 70.9844C62.5625 70.3462 62.309 69.7342 61.8577 69.2829C61.4065 68.8316 60.7944 68.5781 60.1562 68.5781C59.5181 68.5781 58.906 68.8316 58.4548 69.2829C58.0035 69.7342 57.75 70.3462 57.75 70.9844C57.75 70.3462 57.4965 69.7342 57.0452 69.2829C56.594 68.8316 55.9819 68.5781 55.3438 68.5781C54.7056 68.5781 54.0935 68.8316 53.6423 69.2829C53.191 69.7342 52.9375 70.3462 52.9375 70.9844C52.9375 70.3462 52.684 69.7342 52.2327 69.2829C51.7815 68.8316 51.1694 68.5781 50.5312 68.5781C49.8931 68.5781 49.281 68.8316 48.8298 69.2829C48.3785 69.7342 48.125 70.3462 48.125 70.9844V75.7969H64.9688C65.6069 75.7969 66.219 75.5434 66.6702 75.0921C67.1215 74.6408 67.375 74.0288 67.375 73.3906V70.9844C67.354 70.3529 67.0937 69.753 66.6469 69.3062C66.2002 68.8594 65.6002 68.5991 64.9688 68.5781Z" fill="#FFC19E"/>
<path d="M38.5 8.42188C45.7188 8.42188 54.1406 12.0312 54.1406 21.6562C54.1406 31.2812 48.125 39.7031 48.125 39.7031C48.125 39.7031 43.3125 44.5156 38.5 44.5156C33.6875 44.5156 28.875 39.7031 28.875 39.7031C28.875 39.7031 22.8594 31.2812 22.8594 21.6562C22.8594 12.0312 31.2812 8.42188 38.5 8.42188Z" fill="#FFC19E"/>
<path d="M38.5 1.20312C49.3281 1.20312 57.75 7.21875 57.75 21.6562C57.75 36.0938 48.125 39.7031 48.125 39.7031C49.4885 36.2418 50.3005 32.588 50.5312 28.875V18.0469C46.5512 17.385 42.5323 16.9831 38.5 16.8438C34.4677 16.9831 30.4488 17.385 26.4688 18.0469V28.875C26.6995 32.588 27.5115 36.2418 28.875 39.7031C28.875 39.7031 19.25 36.0938 19.25 21.6562C19.25 7.21875 27.6719 1.20312 38.5 1.20312Z" fill="#E75634"/>
<path d="M34.8906 1.45337V17.0086C36.1431 16.9099 37.3859 16.8437 38.5 16.8437C39.6141 16.8437 40.8569 16.9099 42.1094 17.0086V1.45337C39.7147 1.11971 37.2853 1.11971 34.8906 1.45337Z" fill="#F8EAD3"/>
<path d="M74.9259 57.069C74.7978 55.9273 74.346 54.846 73.6238 53.9524C72.9017 53.0589 71.9392 52.3903 70.8497 52.0255L49.1935 44.8068L48.5522 40.9568C48.6521 40.8653 48.7339 40.7896 48.8 40.727C50.3882 40.0316 58.9532 35.6522 58.9532 21.6562C58.9532 7.8937 51.4938 0 38.5001 0C25.5063 0 18.047 7.8937 18.047 21.6562C18.047 35.6522 26.612 40.0316 28.2013 40.7246C28.2675 40.7871 28.3493 40.8629 28.4492 40.9544L27.8079 44.8044L6.15166 52.0231C5.06227 52.3884 4.09989 53.0572 3.37776 53.9509C2.65563 54.8446 2.20381 55.926 2.07547 57.0678L0.00730117 75.6645C-0.0113075 75.8327 0.00575223 76.0028 0.0573667 76.164C0.108981 76.3251 0.19399 76.4735 0.306845 76.5995C0.419699 76.7255 0.557862 76.8263 0.712315 76.8953C0.866767 76.9643 1.03404 77 1.20321 77H6.01571C6.3348 77 6.64082 76.8732 6.86645 76.6476C7.09207 76.422 7.21883 76.116 7.21883 75.7969C7.21883 75.4778 7.09207 75.1718 6.86645 74.9461C6.64082 74.7205 6.3348 74.5938 6.01571 74.5938H2.5471L4.46488 57.3337C4.54249 56.6487 4.81399 56.0001 5.24748 55.4641C5.68097 54.9281 6.25844 54.527 6.91204 54.3079L28.3734 47.1541C29.5236 48.7097 32.5242 51.7344 38.5001 51.7344C44.476 51.7344 47.4766 48.7097 48.6268 47.1541L70.0893 54.3091C70.7427 54.528 71.3199 54.929 71.7532 55.4648C72.1865 56.0006 72.4578 56.649 72.5353 57.3337L74.4531 74.5938H70.9845C70.6654 74.5938 70.3594 74.7205 70.1337 74.9461C69.9081 75.1718 69.7813 75.4778 69.7813 75.7969C69.7813 76.116 69.9081 76.422 70.1337 76.6476C70.3594 76.8732 70.6654 77 70.9845 77H75.797C75.9661 77 76.1334 76.9643 76.2878 76.8953C76.4423 76.8263 76.5805 76.7255 76.6933 76.5995C76.8062 76.4735 76.8912 76.3251 76.9428 76.164C76.9944 76.0028 77.0115 75.8327 76.9929 75.6645L74.9259 57.069ZM56.547 21.6562C56.547 30.3633 52.9376 34.8509 50.3316 36.9576C51.1667 34.3402 51.6388 31.6207 51.7345 28.875V18.0469C51.7344 17.7623 51.6334 17.4869 51.4495 17.2697C51.2655 17.0525 51.0106 16.9076 50.7299 16.8606C50.5217 16.8257 47.0447 16.2518 43.3126 15.8981V2.86945C49.5688 4.13755 56.547 8.50128 56.547 21.6562ZM40.9063 2.51814V15.72C40.0738 15.6719 39.2581 15.6406 38.5001 15.6406C37.7421 15.6406 36.9264 15.6719 36.0938 15.72V2.51814C36.936 2.43994 37.7481 2.40625 38.5001 2.40625C39.252 2.40625 40.0641 2.43994 40.9063 2.51814ZM20.4532 21.6562C20.4532 8.50128 27.4313 4.13755 33.6876 2.86945V15.9029C29.9579 16.2518 26.4785 16.8257 26.2703 16.8654C25.9904 16.9122 25.7361 17.0565 25.5523 17.2727C25.3684 17.4889 25.2669 17.7631 25.2657 18.0469V28.875C25.3614 31.6203 25.8334 34.3395 26.6686 36.9564C24.0626 34.8485 20.4532 30.3621 20.4532 21.6562ZM27.672 19.0755C31.2556 18.5015 34.8724 18.1579 38.5001 18.0469C42.1277 18.1579 45.7445 18.5015 49.3282 19.0755V28.875C49.1145 32.3511 48.3628 35.7729 47.1 39.0185C46.247 39.8138 42.2851 43.3125 38.5001 43.3125C34.715 43.3125 30.7532 39.8138 29.9001 39.0185C28.6374 35.7729 27.8857 32.3511 27.672 28.875V19.0755ZM38.5001 49.3281C33.1185 49.3281 30.7688 46.4406 30.1336 45.4841L30.6004 42.6857C32.8718 44.4626 35.6231 45.519 38.5001 45.7188C41.3771 45.519 44.1284 44.4626 46.3998 42.6857L46.8666 45.4829C46.2253 46.4527 43.8744 49.3281 38.5001 49.3281Z" fill="black"/>
<path d="M64.9688 67.375C64.0737 67.3865 63.2154 67.7324 62.5625 68.3447C62.1555 67.9751 61.6714 67.7006 61.1452 67.541L62.4759 64.212H62.4687C62.5324 64.0554 62.5625 63.8872 62.5569 63.7183C62.5513 63.5493 62.5102 63.3834 62.4362 63.2314L57.6237 53.6064C57.5242 53.4058 57.3708 53.2368 57.1805 53.1186C56.9903 53.0005 56.7708 52.9377 56.5469 52.9375H20.4531C20.2295 52.9374 20.0104 52.9996 19.8202 53.1171C19.63 53.2346 19.4763 53.4028 19.3763 53.6028L14.5638 63.2278C14.4898 63.3798 14.4487 63.5457 14.4431 63.7146C14.4375 63.8836 14.4676 64.0518 14.5313 64.2084H14.5241L15.8548 67.5374C15.3283 67.6981 14.8442 67.9738 14.4375 68.3447C13.7846 67.7324 12.9263 67.3865 12.0312 67.375C11.0816 67.3991 10.1774 67.7871 9.50569 68.4588C8.83394 69.1306 8.44594 70.0347 8.42188 70.9844V73.3906C8.42188 74.3479 8.80215 75.2659 9.47904 75.9428C10.1559 76.6197 11.074 77 12.0312 77H64.9688C65.926 77 66.8441 76.6197 67.521 75.9428C68.1978 75.2659 68.5781 74.3479 68.5781 73.3906V70.9844C68.5541 70.0347 68.1661 69.1306 67.4943 68.4588C66.8226 67.7871 65.9184 67.3991 64.9688 67.375ZM21.1967 55.3438H55.8033L59.4127 62.5625H43.3125C42.9934 62.5625 42.6874 62.6893 42.4618 62.9149C42.2361 63.1405 42.1094 63.4465 42.1094 63.7656C42.1094 64.7229 41.7291 65.6409 41.0522 66.3178C40.3753 66.9947 39.4573 67.375 38.5 67.375C37.5427 67.375 36.6247 66.9947 35.9478 66.3178C35.2709 65.6409 34.8906 64.7229 34.8906 63.7656C34.8906 63.4465 34.7639 63.1405 34.5382 62.9149C34.3126 62.6893 34.0066 62.5625 33.6875 62.5625H17.5873L21.1967 55.3438ZM27.6719 74.5938H12.0312C11.7122 74.5938 11.4061 74.467 11.1805 74.2414C10.9549 74.0157 10.8281 73.7097 10.8281 73.3906V70.9844C10.8477 70.6717 10.9808 70.377 11.2023 70.1554C11.4238 69.9339 11.7186 69.8009 12.0312 69.7812C12.3439 69.8009 12.6387 69.9339 12.8602 70.1554C13.0817 70.377 13.2148 70.6717 13.2344 70.9844C13.2344 71.3035 13.3611 71.6095 13.5868 71.8351C13.8124 72.0607 14.1184 72.1875 14.4375 72.1875C14.7566 72.1875 15.0626 72.0607 15.2882 71.8351C15.5139 71.6095 15.6406 71.3035 15.6406 70.9844C15.6406 70.6653 15.7674 70.3593 15.993 70.1336C16.2186 69.908 16.5247 69.7812 16.8438 69.7812C17.1628 69.7812 17.4689 69.908 17.6945 70.1336C17.9201 70.3593 18.0469 70.6653 18.0469 70.9844C18.0469 71.3035 18.1736 71.6095 18.3993 71.8351C18.6249 72.0607 18.9309 72.1875 19.25 72.1875C19.5691 72.1875 19.8751 72.0607 20.1007 71.8351C20.3264 71.6095 20.4531 71.3035 20.4531 70.9844C20.4531 70.6653 20.5799 70.3593 20.8055 70.1336C21.0311 69.908 21.3372 69.7812 21.6562 69.7812C21.9753 69.7812 22.2814 69.908 22.507 70.1336C22.7326 70.3593 22.8594 70.6653 22.8594 70.9844C22.8594 71.3035 22.9861 71.6095 23.2118 71.8351C23.4374 72.0607 23.7434 72.1875 24.0625 72.1875C24.3816 72.1875 24.6876 72.0607 24.9132 71.8351C25.1389 71.6095 25.2656 71.3035 25.2656 70.9844C25.2656 70.6653 25.3924 70.3593 25.618 70.1336C25.8436 69.908 26.1497 69.7812 26.4688 69.7812C26.7878 69.7812 27.0939 69.908 27.3195 70.1336C27.5451 70.3593 27.6719 70.6653 27.6719 70.9844V74.5938ZM26.4688 67.375C25.5737 67.3865 24.7154 67.7324 24.0625 68.3447C23.416 67.7224 22.5536 67.3748 21.6562 67.3748C20.7589 67.3748 19.8965 67.7224 19.25 68.3447C19.0434 68.16 18.8171 67.9986 18.575 67.8635L17.4176 64.9688H32.6047C32.8808 66.3286 33.6186 67.5512 34.693 68.4294C35.7674 69.3076 37.1124 69.7873 38.5 69.7873C39.8876 69.7873 41.2326 69.3076 42.307 68.4294C43.3814 67.5512 44.1192 66.3286 44.3953 64.9688H59.5824L58.425 67.8623C58.1829 67.9974 57.9566 68.1587 57.75 68.3435C57.1035 67.7212 56.2411 67.3736 55.3438 67.3736C54.4464 67.3736 53.584 67.7212 52.9375 68.3435C52.2844 67.7317 51.4261 67.3862 50.5312 67.375C49.5816 67.3991 48.6774 67.7871 48.0057 68.4588C47.3339 69.1306 46.9459 70.0347 46.9219 70.9844V74.5938H30.0781V70.9844C30.0541 70.0347 29.6661 69.1306 28.9943 68.4588C28.3226 67.7871 27.4184 67.3991 26.4688 67.375ZM66.1719 73.3906C66.1719 73.7097 66.0451 74.0157 65.8195 74.2414C65.5939 74.467 65.2878 74.5938 64.9688 74.5938H49.3281V70.9844C49.3281 70.6653 49.4549 70.3593 49.6805 70.1336C49.9061 69.908 50.2122 69.7812 50.5312 69.7812C50.8503 69.7812 51.1564 69.908 51.382 70.1336C51.6076 70.3593 51.7344 70.6653 51.7344 70.9844C51.7344 71.3035 51.8611 71.6095 52.0868 71.8351C52.3124 72.0607 52.6184 72.1875 52.9375 72.1875C53.2566 72.1875 53.5626 72.0607 53.7882 71.8351C54.0139 71.6095 54.1406 71.3035 54.1406 70.9844C54.1406 70.6653 54.2674 70.3593 54.493 70.1336C54.7186 69.908 55.0247 69.7812 55.3438 69.7812C55.6628 69.7812 55.9689 69.908 56.1945 70.1336C56.4201 70.3593 56.5469 70.6653 56.5469 70.9844C56.5469 71.3035 56.6736 71.6095 56.8993 71.8351C57.1249 72.0607 57.4309 72.1875 57.75 72.1875C58.0691 72.1875 58.3751 72.0607 58.6007 71.8351C58.8264 71.6095 58.9531 71.3035 58.9531 70.9844C58.9531 70.6653 59.0799 70.3593 59.3055 70.1336C59.5311 69.908 59.8372 69.7812 60.1562 69.7812C60.4753 69.7812 60.7814 69.908 61.007 70.1336C61.2326 70.3593 61.3594 70.6653 61.3594 70.9844C61.3594 71.3035 61.4861 71.6095 61.7118 71.8351C61.9374 72.0607 62.2434 72.1875 62.5625 72.1875C62.8816 72.1875 63.1876 72.0607 63.4132 71.8351C63.6389 71.6095 63.7656 71.3035 63.7656 70.9844C63.7656 70.6653 63.8924 70.3593 64.118 70.1336C64.3436 69.908 64.6497 69.7812 64.9688 69.7812C65.2878 69.7812 65.5939 69.908 65.8195 70.1336C66.0451 70.3593 66.1719 70.6653 66.1719 70.9844V73.3906Z" fill="black"/>
<path d="M32.4844 25.2656C32.8035 25.2656 33.1095 25.1389 33.3351 24.9132C33.5607 24.6876 33.6875 24.3816 33.6875 24.0625V21.6562C33.6875 21.3372 33.5607 21.0311 33.3351 20.8055C33.1095 20.5799 32.8035 20.4531 32.4844 20.4531C32.1653 20.4531 31.8593 20.5799 31.6336 20.8055C31.408 21.0311 31.2812 21.3372 31.2812 21.6562V24.0625C31.2812 24.3816 31.408 24.6876 31.6336 24.9132C31.8593 25.1389 32.1653 25.2656 32.4844 25.2656Z" fill="black"/>
<path d="M44.5156 25.2656C44.8347 25.2656 45.1407 25.1389 45.3664 24.9132C45.592 24.6876 45.7188 24.3816 45.7188 24.0625V21.6562C45.7188 21.3372 45.592 21.0311 45.3664 20.8055C45.1407 20.5799 44.8347 20.4531 44.5156 20.4531C44.1965 20.4531 43.8905 20.5799 43.6649 20.8055C43.4393 21.0311 43.3125 21.3372 43.3125 21.6562V24.0625C43.3125 24.3816 43.4393 24.6876 43.6649 24.9132C43.8905 25.1389 44.1965 25.2656 44.5156 25.2656Z" fill="black"/>
<path d="M31.9468 33.8144C31.8053 33.885 31.6792 33.9827 31.5755 34.1021C31.4718 34.2214 31.3927 34.3601 31.3427 34.51C31.2926 34.6599 31.2726 34.8183 31.2838 34.976C31.2949 35.1337 31.3371 35.2876 31.4078 35.429C31.5654 35.7442 33.1006 38.5006 38.5002 38.5006C43.8998 38.5006 45.435 35.7442 45.5986 35.429C45.7367 35.1499 45.7599 34.8277 45.6632 34.5317C45.5665 34.2357 45.3576 33.9894 45.0813 33.8457C44.8012 33.7014 44.4762 33.6709 44.1742 33.7605C43.8722 33.8502 43.6166 34.0532 43.4607 34.3269C43.4125 34.3979 42.3971 36.0943 38.5002 36.0943C34.6502 36.0943 33.6143 34.4412 33.5481 34.3281C33.4012 34.0503 33.1514 33.841 32.8521 33.745C32.5528 33.649 32.2279 33.6739 31.9468 33.8144Z" fill="black"/>
<path d="M38.5 32.4844C38.8191 32.4844 39.1251 32.3576 39.3507 32.132C39.5764 31.9064 39.7031 31.6003 39.7031 31.2812C39.7031 30.9622 39.5764 30.6561 39.3507 30.4305C39.1251 30.2049 38.8191 30.0781 38.5 30.0781C38.1809 30.0781 37.8749 29.9514 37.6493 29.7257C37.4236 29.5001 37.2969 29.1941 37.2969 28.875C37.2969 28.5559 37.4236 28.2499 37.6493 28.0243C37.8749 27.7986 38.1809 27.6719 38.5 27.6719C38.8191 27.6719 39.1251 27.5451 39.3507 27.3195C39.5764 27.0939 39.7031 26.7878 39.7031 26.4688V24.0625C39.7031 23.7434 39.5764 23.4374 39.3507 23.2118C39.1251 22.9861 38.8191 22.8594 38.5 22.8594C38.1809 22.8594 37.8749 22.9861 37.6493 23.2118C37.4236 23.4374 37.2969 23.7434 37.2969 24.0625V25.4714C36.4937 25.7548 35.8166 26.3132 35.3854 27.0478C34.9541 27.7824 34.7966 28.6458 34.9406 29.4853C35.0847 30.3248 35.521 31.0863 36.1723 31.6352C36.8237 32.184 37.6482 32.4848 38.5 32.4844Z" fill="black"/>
<path d="M31.2812 8.42188H28.875V10.8281H31.2812V8.42188Z" fill="black"/>
<path d="M48.125 8.42188H45.7188V10.8281H48.125V8.42188Z" fill="black"/>
<path d="M39.7031 7.21875H37.2969V9.625H39.7031V7.21875Z" fill="black"/>
</g>
<defs>
<clipPath id="clip0_8310_97963">
<rect width="77" height="77" fill="white"/>
</clipPath>
</defs>
</svg>
