<svg width="24" height="24" viewBox="0 0 24 24" fill="none" xmlns="http://www.w3.org/2000/svg">
<path d="M9.62364 21.4621C14.1231 21.4621 17.7707 17.8146 17.7707 13.315C17.7707 8.81554 14.1231 5.16797 9.62364 5.16797C5.12413 5.16797 1.47656 8.81554 1.47656 13.315C1.47656 17.8146 5.12413 21.4621 9.62364 21.4621Z" fill="#B0EF8F"/>
<path d="M9.71556 19.612L9.61222 19.4359C8.03376 16.7465 3.8392 11.0392 3.79684 10.9819L3.73633 10.8997L5.16539 9.48742L9.68902 12.6461C12.5372 8.95019 15.1944 6.41163 16.9277 4.92922C18.8237 3.3076 20.0579 2.56106 20.0704 2.55391L20.0984 2.53711H22.5225L22.291 2.74332C16.3358 8.0476 9.88097 19.3213 9.81668 19.4346L9.71556 19.612Z" fill="#009045"/>
</svg>
