<svg width="32" height="32" viewBox="0 0 32 32" fill="none" xmlns="http://www.w3.org/2000/svg">
<g clip-path="url(#clip0_7519_105094)">
<path d="M23.3906 22.918L25.1629 21.1457L27.6772 23.6601L25.905 25.4323L23.3906 22.918Z" fill="#E6E2E6"/>
<path d="M23.3906 22.918L25.1629 21.1457L27.6772 23.6601L25.905 25.4323L23.3906 22.918Z" fill="#ECDAEC"/>
<path d="M23.3906 22.918L24.2343 22.0743L26.7486 24.5887L25.905 25.4323L23.3906 22.918Z" fill="#E2CBE2"/>
<path d="M0.5 1.4375C0.5 0.91975 0.91975 0.5 1.4375 0.5H17.2153L23.0239 6.30856V30.5625C23.0239 31.0802 22.6041 31.5 22.0864 31.5H1.4375C0.91975 31.5 0.5 31.0802 0.5 30.5625V1.4375Z" fill="#F9F6F6"/>
<path d="M22.0864 30.375H1.4375C0.91975 30.375 0.5 29.9553 0.5 29.4375V30.5625C0.5 31.0803 0.91975 31.5 1.4375 31.5H22.0864C22.6041 31.5 23.0239 31.0803 23.0239 30.5625V29.4375C23.0239 29.9553 22.6041 30.375 22.0864 30.375Z" fill="#ECDAEC"/>
<path d="M18.1562 6.30856H23.0273L17.2188 0.5V5.37106C17.2188 5.88881 17.6385 6.30856 18.1562 6.30856Z" fill="#E2CBE2"/>
<path d="M18.1562 6.30856H23.0273L17.2188 0.5V5.37106C17.2188 5.88881 17.6385 6.30856 18.1562 6.30856Z" fill="#E2CBE2"/>
<path d="M19.624 25.1503C23.9209 25.1503 27.4042 21.667 27.4042 17.3701C27.4042 13.0732 23.9209 9.58984 19.624 9.58984C15.3271 9.58984 11.8438 13.0732 11.8438 17.3701C11.8438 21.667 15.3271 25.1503 19.624 25.1503Z" fill="#E2CBE2"/>
<path d="M25.1254 21.7475C22.087 24.7859 17.1609 24.7859 14.1225 21.7475C12.7465 20.3715 11.9936 18.6083 11.864 16.8086C11.7074 18.9828 12.4602 21.2102 14.1225 22.8725C17.1609 25.9109 22.087 25.9109 25.1254 22.8725C26.7878 21.2102 27.5406 18.9828 27.3839 16.8086C27.2542 18.6083 26.5015 20.3715 25.1254 21.7475Z" fill="#DAB9D8"/>
<path d="M19.6215 23.0048C22.7327 23.0048 25.2548 20.4827 25.2548 17.3715C25.2548 14.2604 22.7327 11.7383 19.6215 11.7383C16.5104 11.7383 13.9883 14.2604 13.9883 17.3715C13.9883 20.4827 16.5104 23.0048 19.6215 23.0048Z" fill="#FFE27A"/>
<path d="M23.6043 20.2294C21.4044 22.4293 17.8376 22.4293 15.6377 20.2294C14.681 19.2727 14.1409 18.0575 14.0163 16.8086C13.8544 18.4315 14.3945 20.1112 15.6377 21.3544C17.8376 23.5543 21.4044 23.5543 23.6043 21.3544C24.8475 20.1112 25.3877 18.4315 25.2257 16.8086C25.1012 18.0575 24.561 19.2727 23.6043 20.2294Z" fill="#F9CF58"/>
<path d="M19.1174 19.6872C18.8699 19.6872 18.6222 19.5945 18.4308 19.4084L17.1382 18.1513C16.7482 17.7721 16.7394 17.1485 17.1187 16.7584C17.4979 16.3684 18.1215 16.3598 18.5115 16.7389L19.099 17.3102L20.864 15.5004C21.2438 15.1109 21.8675 15.1032 22.257 15.4829C22.6464 15.8627 22.6542 16.4864 22.2745 16.8758L19.8227 19.3899C19.6297 19.5878 19.3737 19.6872 19.1174 19.6872Z" fill="#98DB7C"/>
<path d="M22.2738 15.7507L19.822 18.2648C19.629 18.4627 19.373 18.5621 19.1168 18.5621C18.8693 18.5621 18.6216 18.4694 18.4302 18.2833L17.1375 17.0262C17.0918 16.9817 17.0517 16.9336 17.0165 16.8832C16.7455 17.2719 16.7867 17.8101 17.1375 18.1512L18.4302 19.4083C18.6217 19.5945 18.8693 19.6871 19.1168 19.6871C19.373 19.6871 19.629 19.5877 19.822 19.3898L22.2738 16.8758C22.6094 16.5317 22.6418 16.0051 22.3764 15.625C22.3458 15.6688 22.3123 15.7112 22.2738 15.7507Z" fill="#82D361"/>
<path d="M28.0303 23.3086L25.5586 25.7803L28.5159 28.7376C29.1985 29.4201 30.305 29.4201 30.9876 28.7376C31.6701 28.0551 31.6701 26.9485 30.9876 26.2659L28.0303 23.3086Z" fill="#FF4755"/>
<path d="M29.3587 27.8939L26.4023 24.9375L25.5586 25.7812L28.5159 28.7386C29.1984 29.4211 30.305 29.4211 30.9875 28.7386C31.1362 28.5899 31.2525 28.4211 31.3364 28.2409C30.6888 28.5443 29.8936 28.4288 29.3587 27.8939Z" fill="#FC2B3A"/>
<path d="M6.33356 12.3392H4.28287C3.96269 12.3392 3.70312 12.0796 3.70312 11.7594V9.70866C3.70312 9.38847 3.96269 9.12891 4.28287 9.12891H6.33363C6.65381 9.12891 6.91338 9.38847 6.91338 9.70866V11.7594C6.91331 12.0796 6.65375 12.3392 6.33356 12.3392Z" fill="#98DB7C"/>
<path d="M6.33356 18.9134H4.28287C3.96269 18.9134 3.70312 18.6538 3.70312 18.3336V16.2829C3.70312 15.9627 3.96269 15.7031 4.28287 15.7031H6.33363C6.65381 15.7031 6.91338 15.9627 6.91338 16.2829V18.3336C6.91331 18.6538 6.65375 18.9134 6.33356 18.9134Z" fill="#98DB7C"/>
<path d="M6.33356 25.6165H4.28287C3.96269 25.6165 3.70312 25.3569 3.70312 25.0368V22.986C3.70312 22.6658 3.96269 22.4062 4.28287 22.4062H6.33363C6.65381 22.4062 6.91338 22.6658 6.91338 22.986V25.0368C6.91331 25.3569 6.65375 25.6165 6.33356 25.6165Z" fill="#98DB7C"/>
<path d="M6.33356 11.2125H4.28287C3.96269 11.2125 3.70312 10.9529 3.70312 10.6328V11.7578C3.70312 12.078 3.96269 12.3376 4.28287 12.3376H6.33363C6.65381 12.3376 6.91331 12.078 6.91331 11.7578V10.6328C6.91331 10.9529 6.65375 11.2125 6.33356 11.2125Z" fill="#82D361"/>
<path d="M6.33356 17.7868H4.28287C3.96269 17.7868 3.70312 17.5272 3.70312 17.207V18.332C3.70312 18.6522 3.96269 18.9118 4.28287 18.9118H6.33363C6.65381 18.9118 6.91331 18.6522 6.91331 18.332V17.207C6.91331 17.5272 6.65375 17.7868 6.33356 17.7868Z" fill="#82D361"/>
<path d="M6.33356 24.4899H4.28287C3.96269 24.4899 3.70312 24.2303 3.70312 23.9102V25.0352C3.70312 25.3553 3.96269 25.6149 4.28287 25.6149H6.33363C6.65381 25.6149 6.91331 25.3553 6.91331 25.0352V23.9102C6.91331 24.2303 6.65375 24.4899 6.33356 24.4899Z" fill="#82D361"/>
<path d="M17.2148 5.37109V6.49609C17.2148 7.01384 17.6346 7.43359 18.1523 7.43359H23.0234V6.30859H18.1523C17.6346 6.30859 17.2148 5.88884 17.2148 5.37109Z" fill="#ECDAEC"/>
<path d="M19.1264 20.1659C19.5225 20.1659 19.8929 20.0097 20.1695 19.7262L22.6264 17.2072C23.1871 16.6322 23.1755 15.7082 22.6005 15.1474C22.0254 14.5867 21.1012 14.5984 20.5405 15.1733L19.0991 16.6509L18.8466 16.4054C18.2708 15.8457 17.3466 15.8585 16.7866 16.4343C16.2267 17.0101 16.2396 17.9341 16.8155 18.494L18.1109 19.7535C18.3843 20.0194 18.745 20.1659 19.1264 20.1659ZM17.4602 17.0892C17.6592 16.8845 17.9875 16.8803 18.1918 17.079L18.7805 17.6514C18.9663 17.8321 19.2633 17.828 19.4443 17.6426L21.213 15.8292C21.4123 15.6249 21.7405 15.621 21.9446 15.82C22.1488 16.0192 22.1529 16.3473 21.9538 16.5515L19.4969 19.0704C19.307 19.2735 18.9611 19.2778 18.7658 19.0802L17.4705 17.8207C17.266 17.6218 17.2613 17.2936 17.4602 17.0892Z" fill="black"/>
<path d="M15.4971 20.4841C15.3409 20.2771 15.0464 20.2358 14.8392 20.3921C14.6321 20.5483 14.5909 20.8428 14.7471 21.0499C14.9182 21.2766 15.1074 21.4939 15.3094 21.6959C16.4644 22.8507 17.9999 23.4867 19.6332 23.4867C21.2666 23.4867 22.8021 22.8507 23.957 21.6959C25.112 20.5412 25.748 19.0058 25.748 17.3727C25.748 15.7396 25.1119 14.2043 23.957 13.0496C21.5728 10.6657 17.6936 10.6658 15.3094 13.0496C13.684 14.6747 13.1088 17.0456 13.8084 19.2368C13.8872 19.4839 14.1517 19.6202 14.3987 19.5414C14.6458 19.4626 14.7822 19.1982 14.7033 18.9512C14.1111 17.0963 14.5979 15.0894 15.9738 13.7138C17.9916 11.6962 21.2749 11.6962 23.2927 13.7138C24.2702 14.6912 24.8086 15.9906 24.8086 17.3728C24.8086 18.755 24.2702 20.0544 23.2927 21.0318C22.3152 22.0091 21.0156 22.5474 19.6332 22.5474C18.2509 22.5474 16.9512 22.0092 15.9737 21.0318C15.8024 20.8603 15.642 20.6761 15.4971 20.4841Z" fill="black"/>
<path d="M31.3538 25.9544L28.3904 22.9914C28.2069 22.808 27.9095 22.8079 27.726 22.9914L27.7079 23.0095L26.5674 21.8692C27.3341 20.6874 27.7908 19.3218 27.8807 17.8966C27.897 17.6378 27.7003 17.4147 27.4414 17.3983C27.1828 17.3826 26.9595 17.5787 26.9431 17.8375C26.8309 19.6168 26.0739 21.2918 24.8117 22.5539C23.3852 23.9802 21.5119 24.6943 19.638 24.6961C19.6356 24.696 19.6333 24.6957 19.6309 24.6957H19.5936C17.7298 24.6863 15.8689 23.9726 14.4501 22.5539C13.0662 21.1702 12.3041 19.3306 12.3041 17.3738C12.3041 15.4169 13.0662 13.5773 14.4501 12.1936C17.3068 9.33725 21.955 9.33725 24.8117 12.1936C25.8757 13.2575 26.5778 14.5994 26.8423 16.0745C26.8881 16.3298 27.1323 16.4994 27.3875 16.4539C27.6429 16.4082 27.8127 16.1641 27.767 15.9087C27.4685 14.2439 26.6763 12.7296 25.476 11.5294C24.8813 10.9347 24.2175 10.4501 23.5104 10.0749V6.28956C23.5101 6.16594 23.4601 6.04494 23.3729 5.95744L17.5522 0.137562C17.4647 0.0504375 17.3438 0.0003125 17.22 0H1.40925C0.63225 0 6.25e-05 0.632063 6.25e-05 1.409V5.35669C6.25e-05 5.61606 0.210312 5.82638 0.469812 5.82638C0.72925 5.82638 0.939562 5.61613 0.939562 5.35669V1.409C0.939562 1.15 1.15025 0.939313 1.40931 0.939313H16.7504V5.35025C16.7504 6.12719 17.3826 6.75925 18.1596 6.75925H22.5711V9.64956C21.6546 9.30231 20.6884 9.12394 19.7206 9.1135C19.7159 9.11287 19.7114 9.11194 19.7066 9.11194H9.21913C8.95969 9.11194 8.74938 9.32225 8.74938 9.58162C8.74938 9.841 8.95969 10.0513 9.21913 10.0513H15.7958C15.1257 10.4017 14.4941 10.8502 13.9221 11.3966H9.21913C8.95969 11.3966 8.74938 11.6069 8.74938 11.8663C8.74938 12.1257 8.95969 12.336 9.21913 12.336H13.0766C12.3099 13.3292 11.7859 14.4731 11.5351 15.6941H9.21919C8.95975 15.6941 8.74944 15.9044 8.74944 16.1638C8.74944 16.4232 8.95975 16.6335 9.21919 16.6335H11.3979C11.3763 16.8783 11.3648 17.1252 11.3648 17.3739C11.3648 17.5779 11.3723 17.7808 11.3868 17.9822H9.21925C8.95981 17.9822 8.7495 18.1925 8.7495 18.4519C8.7495 18.7113 8.95981 18.9216 9.21925 18.9216H11.5093C11.7488 20.1929 12.2829 21.3841 13.0781 22.4134H9.21925C8.95981 22.4134 8.7495 22.6237 8.7495 22.8831C8.7495 23.1426 8.95981 23.3528 9.21925 23.3528H13.9239C14.4951 23.8982 15.1258 24.346 15.7946 24.6959H9.219C8.95956 24.6959 8.74925 24.9062 8.74925 25.1656C8.74925 25.425 8.95956 25.6353 9.219 25.6353H19.6309C20.6285 25.6352 21.6262 25.456 22.571 25.0981V30.5912C22.571 30.8502 22.3603 31.0609 22.1012 31.0609H1.40925C1.15025 31.0609 0.9395 30.8503 0.9395 30.5912V7.23562C0.9395 6.97625 0.729187 6.76594 0.46975 6.76594C0.210312 6.76594 0 6.97619 0 7.23562V30.5912C6.25e-05 31.3679 0.63225 32 1.40925 32H22.1013C22.8783 32 23.5105 31.3679 23.5105 30.591V24.6724C23.7201 24.5612 23.9259 24.4402 24.1272 24.3097L25.2674 25.4497C25.0701 25.6219 25.0595 25.9502 25.2492 26.1321L28.2127 29.0952C29.0394 29.9568 30.5271 29.9567 31.3538 29.0952C32.2155 28.2686 32.2154 26.781 31.3538 25.9544ZM18.1596 5.81994C17.9006 5.81994 17.6898 5.60925 17.6898 5.35025V1.60356L21.9067 5.81994H18.1596ZM24.8934 23.7474C25.0939 23.5817 25.2885 23.4056 25.476 23.2181C25.6624 23.0317 25.8388 22.8372 26.0053 22.6356L27.0435 23.6737L25.9316 24.7854L24.8934 23.7474ZM30.6895 28.4309C30.2125 28.9281 29.3541 28.928 28.877 28.4309L26.2456 25.7999L28.0582 23.9876L30.6896 26.6186C31.1867 27.0957 31.1868 27.9539 30.6895 28.4309Z" fill="black"/>
<path d="M4.26163 12.8003H6.31662C6.896 12.8003 7.36738 12.3291 7.36738 11.7498V9.69509C7.36738 9.11578 6.89606 8.64453 6.31662 8.64453H4.26163C3.68231 8.64453 3.21094 9.11578 3.21094 9.69509V11.7498C3.21094 12.3291 3.68231 12.8003 4.26163 12.8003ZM4.15044 9.69509C4.15044 9.63378 4.20038 9.58391 4.26163 9.58391H6.31662C6.378 9.58391 6.42787 9.63378 6.42787 9.69509V11.7498C6.42787 11.8112 6.37794 11.861 6.31662 11.861H4.26163C4.20031 11.861 4.15044 11.8112 4.15044 11.7498V9.69509Z" fill="black"/>
<path d="M3.21094 18.3357C3.21094 18.915 3.68225 19.3862 4.26163 19.3862H6.31662C6.896 19.3862 7.36738 18.915 7.36738 18.3357V16.281C7.36738 15.7017 6.89606 15.2305 6.31662 15.2305H4.26163C3.68231 15.2305 3.21094 15.7017 3.21094 16.281V18.3357ZM4.15044 16.281C4.15044 16.2197 4.20038 16.1698 4.26163 16.1698H6.31662C6.378 16.1698 6.42787 16.2197 6.42787 16.281V18.3357C6.42787 18.397 6.37794 18.4469 6.31662 18.4469H4.26163C4.20031 18.4469 4.15044 18.397 4.15044 18.3357V16.281Z" fill="black"/>
<path d="M3.21094 25.0545C3.21094 25.6338 3.68225 26.105 4.26163 26.105H6.31662C6.896 26.105 7.36738 25.6338 7.36738 25.0545V22.9998C7.36738 22.4205 6.89606 21.9492 6.31662 21.9492H4.26163C3.68231 21.9492 3.21094 22.4205 3.21094 22.9998V25.0545ZM4.15044 22.9998C4.15044 22.9385 4.20038 22.8886 4.26163 22.8886H6.31662C6.378 22.8886 6.42787 22.9385 6.42787 22.9998V25.0545C6.42787 25.1158 6.37794 25.1657 6.31662 25.1657H4.26163C4.20031 25.1657 4.15044 25.1158 4.15044 25.0545V22.9998Z" fill="black"/>
</g>
<defs>
<clipPath id="clip0_7519_105094">
<rect width="32" height="32" fill="white"/>
</clipPath>
</defs>
</svg>
