<svg width="56" height="56" viewBox="0 0 56 56" fill="none" xmlns="http://www.w3.org/2000/svg">
<g clip-path="url(#clip0_3933_47747)">
<path d="M51.5102 15.6188C50.8867 22.4908 47.4053 43.0259 28 54.3594C8.59469 43.0259 5.11328 22.4908 4.48984 15.6188C4.36515 14.2472 5.09797 12.9412 6.33281 12.332L28 1.64062L49.6672 12.332C50.902 12.9412 51.6348 14.2472 51.5102 15.6188Z" fill="#EDF5FF"/>
<path d="M51.5102 15.6188C50.8867 22.4908 47.4053 43.0259 28 54.3594V1.64062L49.6672 12.332C50.902 12.9412 51.6348 14.2472 51.5102 15.6188Z" fill="#D5E8FE"/>
<path d="M50.3934 10.8609L28.7263 0.169531C28.4966 0.056875 28.2483 0 28 0C27.7517 0 27.5034 0.056875 27.2738 0.169531L5.60656 10.8609C3.77672 11.7644 2.67094 13.7353 2.85578 15.7675C3.17625 19.2992 4.23391 26.3638 7.70875 33.9959C11.9941 43.4088 18.5434 50.7369 27.1731 55.7758C27.428 55.9256 27.7145 56 28 56C28.2855 56 28.572 55.9256 28.8269 55.7758C37.4566 50.7369 44.0059 43.4088 48.2912 33.9959C51.7661 26.3638 52.8238 19.2992 53.1442 15.7675C53.3291 13.7353 52.2233 11.7644 50.3934 10.8609ZM49.8761 15.47C49.3402 21.3806 46.1792 41.2978 28 52.4475C9.82078 41.2978 6.65984 21.3806 6.12391 15.47C6.06047 14.7798 6.43672 14.1105 7.05906 13.8031L28 3.47047L48.9409 13.8031C49.5633 14.1105 49.9395 14.7798 49.8761 15.47Z" fill="#4A578E"/>
<path d="M41.5986 22.5313V29.0938C41.5986 29.9994 40.8647 30.7344 39.958 30.7344H32.9219V37.7705C32.9219 38.6772 32.1869 39.4111 31.2812 39.4111H24.7187C23.8131 39.4111 23.0781 38.6772 23.0781 37.7705V30.7344H16.042C15.1353 30.7344 14.4014 29.9994 14.4014 29.0938V22.5313C14.4014 21.6256 15.1353 20.8906 16.042 20.8906H23.0781V13.8546C23.0781 12.9478 23.8131 12.2139 24.7187 12.2139H31.2812C32.1869 12.2139 32.9219 12.9478 32.9219 13.8546V20.8906H39.958C40.8647 20.8906 41.5986 21.6256 41.5986 22.5313Z" fill="#FF884D"/>
<path d="M31.2812 39.4111H28V12.2139H31.2812C32.1869 12.2139 32.9219 12.9478 32.9219 13.8546V20.8906H39.958C40.8647 20.8906 41.5986 21.6256 41.5986 22.5313V29.0938C41.5986 29.9994 40.8647 30.7344 39.958 30.7344H32.9219V37.7705C32.9219 38.6772 32.1869 39.4111 31.2812 39.4111Z" fill="#FF4D4D"/>
<path d="M53.1442 15.7675C52.8238 19.2992 51.7661 26.3638 48.2912 33.9959C44.0059 43.4088 37.4566 50.7369 28.8269 55.7758C28.572 55.9256 28.2855 56 28 56V52.4475C46.1792 41.2978 49.3402 21.3806 49.8761 15.47C49.9395 14.7798 49.5633 14.1105 48.9409 13.8031L28 3.47047V0C28.2483 0 28.4966 0.056875 28.7263 0.169531L50.3934 10.8609C52.2233 11.7644 53.3291 13.7353 53.1442 15.7675Z" fill="#174169"/>
</g>
<defs>
<clipPath id="clip0_3933_47747">
<rect width="56" height="56" fill="white"/>
</clipPath>
</defs>
</svg>
