<svg width="56" height="56" viewBox="0 0 56 56" fill="none" xmlns="http://www.w3.org/2000/svg">
<g clip-path="url(#clip0_6472_60328)">
<path d="M43.9688 33.5413L45.3192 21.7773H41.7636L36.8594 42.3277L54.3015 41.3329L55.7306 35.9996L43.9688 33.5413Z" fill="#FFA95F"/>
<path d="M41.5079 36H37.9523L36.0469 43.1111H52.0469C53.0288 43.1111 54.038 42.3152 54.301 41.3333H41.8565C40.8747 41.3333 40.292 40.5374 40.5551 39.5556L41.5079 36Z" fill="#FF8B5A"/>
<path d="M55.482 33.7039L52.4765 31.5551L49.0541 29.3258L52.4467 25.3329L52.436 23.0873C52.4323 22.3139 51.8736 21.7773 51.0719 21.7773H45.3187L41.5078 35.9996H55.7301L55.9367 35.2284C56.1039 34.6039 55.9313 34.0252 55.482 33.7039Z" fill="#FFC269"/>
<path d="M35.4319 20H43.1281C43.619 20 43.9103 20.398 43.7788 20.8889L38.3007 41.3334L12.6502 42.8386C12.1593 42.8386 11.9717 42.6004 12.1033 42.1094L17.007 23.6797L35.4319 20Z" fill="#E5646E"/>
<path d="M14.2997 41.3333C13.8087 41.3333 13.5174 40.9353 13.649 40.4444L14.9475 35.5984C15.083 35.0927 15.6275 34.8037 16.1139 34.9975C17.7288 35.641 19.4866 36 21.3315 36C29.1861 36 35.5537 29.6325 35.5537 21.7778C35.5537 21.1744 35.5039 20.5836 35.4309 20H18.2383C17.7473 20 17.2427 20.3979 17.1111 20.8889L11.3949 42.2223C11.2633 42.7131 11.5547 43.1112 12.0456 43.1112H37.8233L38.2996 41.3334H14.2997V41.3333Z" fill="#DB4655"/>
<path d="M49.6954 45.4466C51.3854 43.9675 51.8375 41.7198 50.7052 40.426C49.573 39.1323 47.2851 39.2824 45.5951 40.7615C43.9052 42.2405 43.453 44.4882 44.5853 45.782C45.7175 47.0758 48.0054 46.9256 49.6954 45.4466Z" fill="#5D5360"/>
<path d="M48.67 44.2761C49.515 43.5366 49.7411 42.4127 49.1749 41.7658C48.6088 41.1189 47.4648 41.194 46.6198 41.9335C45.7748 42.673 45.5488 43.7969 46.1149 44.4438C46.6811 45.0907 47.825 45.0156 48.67 44.2761Z" fill="#DAD8DB"/>
<path d="M22.129 45.4612C23.8189 43.9822 24.2711 41.7344 23.1388 40.4407C22.0066 39.1469 19.7187 39.2971 18.0287 40.7761C16.3388 42.2551 15.8866 44.5029 17.0189 45.7966C18.1511 47.0904 20.439 46.9402 22.129 45.4612Z" fill="#5D5360"/>
<path d="M21.1036 44.2898C21.9486 43.5503 22.1747 42.4264 21.6085 41.7795C21.0424 41.1326 19.8984 41.2076 19.0534 41.9471C18.2084 42.6866 17.9824 43.8105 18.5485 44.4574C19.1147 45.1043 20.2586 45.0293 21.1036 44.2898Z" fill="#DAD8DB"/>
<path d="M52.4473 25.333H47.9221L46.3477 27.1108L46.9629 30.9801L52.477 29.7775L52.4473 25.333Z" fill="#DBEAFF"/>
<path d="M48.5093 29.7775C47.5275 29.7775 46.9448 28.9815 47.2079 27.9997L47.9224 25.333C46.9406 25.333 45.9314 26.1289 45.6683 27.1108L44.9538 29.7775C44.6907 30.7593 45.2734 31.5552 46.2552 31.5552H52.4775L52.4689 29.7775H48.5093Z" fill="#C3DDFF"/>
<path d="M21.3351 34.2219C28.208 34.2219 33.7796 28.6504 33.7796 21.7775C33.7796 14.9046 28.208 9.33301 21.3351 9.33301C14.4622 9.33301 8.89062 14.9046 8.89062 21.7775C8.89062 28.6504 14.4622 34.2219 21.3351 34.2219Z" fill="#ECEAEC"/>
<path d="M21.3347 32.4447C27.2257 32.4447 32.0013 27.6691 32.0013 21.778C32.0013 15.887 27.2257 11.1113 21.3347 11.1113C15.4436 11.1113 10.668 15.887 10.668 21.778C10.668 27.6691 15.4436 32.4447 21.3347 32.4447Z" fill="white"/>
<path d="M21.3342 14.6667C20.8429 14.6667 20.4453 14.2687 20.4453 13.7778V12.8889C20.4453 12.398 20.8429 12 21.3342 12C21.8255 12 22.2231 12.398 22.2231 12.8889V13.7778C22.2231 14.2687 21.8255 14.6667 21.3342 14.6667Z" fill="#C8C5C9"/>
<path d="M21.3342 31.5553C20.8429 31.5553 20.4453 31.1573 20.4453 30.6665V29.7776C20.4453 29.2867 20.8429 28.8887 21.3342 28.8887C21.8255 28.8887 22.2231 29.2867 22.2231 29.7776V30.6665C22.2231 31.1573 21.8255 31.5553 21.3342 31.5553Z" fill="#C8C5C9"/>
<path d="M30.2231 22.6665H29.3342C28.8429 22.6665 28.4453 22.2684 28.4453 21.7776C28.4453 21.2867 28.8429 20.8887 29.3342 20.8887H30.2231C30.7144 20.8887 31.112 21.2867 31.112 21.7776C31.112 22.2684 30.7145 22.6665 30.2231 22.6665Z" fill="#C8C5C9"/>
<path d="M13.3325 22.6665H12.4436C11.9523 22.6665 11.5547 22.2684 11.5547 21.7776C11.5547 21.2867 11.9523 20.8887 12.4436 20.8887H13.3325C13.8238 20.8887 14.2214 21.2867 14.2214 21.7776C14.2214 22.2684 13.8238 22.6665 13.3325 22.6665Z" fill="#C8C5C9"/>
<path d="M9.7778 34.2221H0.888891C0.397578 34.2221 0 33.8241 0 33.3332C0 32.8423 0.397578 32.4443 0.888891 32.4443H9.7778C10.2691 32.4443 10.6667 32.8423 10.6667 33.3332C10.6667 33.8241 10.2691 34.2221 9.7778 34.2221Z" fill="#F9EAC7"/>
<path d="M8.8902 37.7778H3.55686C3.06555 37.7778 2.66797 37.3798 2.66797 36.8889C2.66797 36.398 3.06555 36 3.55686 36H8.8902C9.38152 36 9.77909 36.398 9.77909 36.8889C9.77909 37.3798 9.38152 37.7778 8.8902 37.7778Z" fill="#F9EAC7"/>
<path d="M7.9987 41.3334H6.22092C5.72961 41.3334 5.33203 40.9354 5.33203 40.4446C5.33203 39.9537 5.72961 39.5557 6.22092 39.5557H7.9987C8.49002 39.5557 8.88759 39.9537 8.88759 40.4446C8.88759 40.9354 8.49002 41.3334 7.9987 41.3334Z" fill="#F9EAC7"/>
<path d="M18.6663 25.3335C18.4389 25.3335 18.2114 25.2467 18.0378 25.0731C17.6905 24.7259 17.6905 24.1635 18.0378 23.8162L26.4822 15.3718C26.8295 15.0245 27.3919 15.0245 27.7391 15.3718C28.0864 15.719 28.0864 16.2814 27.7391 16.6287L19.2947 25.0731C19.121 25.2467 18.8937 25.3335 18.6663 25.3335Z" fill="#E5646E"/>
<path d="M21.3325 23.5556C22.3143 23.5556 23.1102 22.7596 23.1102 21.7778C23.1102 20.7959 22.3143 20 21.3325 20C20.3506 20 19.5547 20.7959 19.5547 21.7778C19.5547 22.7596 20.3506 23.5556 21.3325 23.5556Z" fill="#5D5360"/>
</g>
<defs>
<clipPath id="clip0_6472_60328">
<rect width="56" height="56" fill="white"/>
</clipPath>
</defs>
</svg>
