<svg width="47" height="47" viewBox="0 0 47 47" fill="none" xmlns="http://www.w3.org/2000/svg">
<g clip-path="url(#clip0_8340_110710)">
<path d="M35.5166 23.9352H26.252V16.2146C26.252 14.902 25.2484 13.8984 23.9358 13.8984H23.1637C21.8511 13.8984 20.8476 14.902 20.8476 16.2146V26.2513H19.3035C17.9908 26.2513 16.9873 27.2548 16.9873 28.5675V34.2033L21.6196 42.6959V46.3248H35.5166V42.619L37.8328 37.2147V26.2513C37.8328 24.9387 36.8293 23.9352 35.5166 23.9352ZM23.1637 44.7806V43.2365H33.9725V44.7806H23.1637ZM36.2887 36.9055L34.204 41.6924H22.855L18.5314 33.7404V28.5675C18.5314 28.1042 18.8402 27.7954 19.3035 27.7954H20.8476V30.8837H22.3917V16.2146C22.3917 15.7513 22.7004 15.4425 23.1637 15.4425H23.9358C24.3991 15.4425 24.7079 15.7513 24.7079 16.2146V29.3395H26.252V25.4793H28.5681V29.3395H30.1122V25.4793H32.4284V29.3395H33.9725V25.4793H35.5166C35.9799 25.4793 36.2887 25.788 36.2887 26.2513V36.9055Z" fill="white"/>
<path d="M32.4257 37.5989L31.0361 39.6833L32.2711 40.6099L33.9698 38.0619V34.7422H32.4257V37.5989Z" fill="white"/>
<path d="M38.3714 0H7.95209L3.86035 10.6542V39.3748H17.7573V37.8307H5.40446V11.5808H14.6691V10.0367H5.79049L7.79791 4.63233H16.9853V3.08822H8.4154L9.03327 1.54411H37.2902L37.9081 3.08822H29.3382V4.63233H38.5256L40.533 10.0367H31.6543V11.5808H40.919V37.8307H39.3749V39.3748H42.4631V10.6542L38.3714 0Z" fill="white"/>
<path d="M20.6154 9.49585L19.5342 10.577L21.6189 12.6614L26.0197 8.26087L24.9386 7.17969L21.6189 10.4998L20.6154 9.49585Z" fill="white"/>
<path d="M28.4069 14.6696C30.9549 11.8128 30.6461 7.41235 27.7894 4.86434C24.8557 2.31671 20.4548 2.54817 17.9072 5.40493C15.3592 8.26168 15.668 12.6622 18.5247 15.2102L19.5282 14.0521C17.2893 12.0447 17.0579 8.64771 19.0653 6.40845C21.0723 4.16957 24.4697 3.9381 26.7086 5.94552C28.9474 7.95256 29.1789 11.3499 27.1719 13.5888L28.4069 14.6696Z" fill="white"/>
</g>
<defs>
<clipPath id="clip0_8340_110710">
<rect width="46.3233" height="46.3233" fill="white"/>
</clipPath>
</defs>
</svg>
