<svg width="47" height="47" viewBox="0 0 47 47" fill="none" xmlns="http://www.w3.org/2000/svg">
<g clip-path="url(#clip0_8340_110783)">
<path d="M40.0183 2.08744C39.6713 1.94113 39.2716 2.1037 39.1252 2.4497C38.9779 2.79675 39.1404 3.19647 39.4868 3.34279C42.6393 4.67341 44.9757 7.82449 44.9757 11.629C44.9757 19.8729 34.7107 23.8015 29.2447 17.5905C26.1544 14.1079 26.1898 8.69885 29.6197 5.26892C31.6465 3.241 34.3873 2.38149 37.0464 2.69674C37.42 2.7395 37.7589 2.47444 37.8035 2.10017C37.848 1.7266 37.5808 1.38767 37.2072 1.34314C28.2795 0.282178 22.3767 10.3394 27.5084 17.5905C26.9616 17.5905 13.825 17.5905 13.2281 17.5905C12.5913 17.5905 12.0746 18.1083 12.0746 18.7441V27.5598L10.7945 30.0754C10.552 30.5525 10.1477 30.9084 9.66813 31.0904C9.66813 30.039 8.8436 29.3095 7.92188 29.3095H5.29351C4.38699 29.3095 3.54656 30.0128 3.54656 31.1258H1.85686C0.833008 31.1258 0 31.9588 0 32.9833V33.8086C0 34.1846 0.304294 34.4896 0.681392 34.4896C1.05743 34.4896 1.36278 34.1846 1.36278 33.8086V32.9833C1.36278 32.7101 1.58438 32.4885 1.85686 32.4885H3.54656V41.9209H1.85686C1.58438 41.9209 1.36278 41.6993 1.36278 41.4269V36.5338C1.36278 36.1567 1.05743 35.8524 0.681392 35.8524C0.304294 35.8524 0 36.1567 0 36.5338V41.4269C0 42.4507 0.833008 43.2837 1.85686 43.2837H3.54656C3.54656 44.3973 4.3884 45.1006 5.29351 45.1006H7.92188C8.72238 45.1006 9.39812 44.5592 9.60345 43.8234C10.4414 44.0475 8.13323 43.9587 38.6319 43.9587C39.3341 43.9587 39.9056 43.3873 39.9056 42.685V21.2198C48.3795 17.7517 48.5071 5.68242 40.0183 2.08744ZM8.30534 37.1653C8.30534 37.8902 8.30534 38.1266 8.30534 38.1206V43.3537C8.30534 43.5619 8.13005 43.7382 7.92188 43.7382H5.29351C5.0857 43.7382 4.90934 43.5619 4.90934 43.3537C4.90934 42.773 4.90934 31.6294 4.90934 31.0568C4.90934 30.8476 5.0857 30.6723 5.29351 30.6723H7.92188C8.13005 30.6723 8.30534 30.8476 8.30534 31.0568V37.1653ZM20.7563 18.9529H25.9523V24.2995L23.9325 22.7193C23.5921 22.4532 23.1136 22.4546 22.7757 22.7193L20.7563 24.2995V18.9529ZM20.5997 42.5924C9.78157 42.5963 10.3082 42.6642 9.66813 42.4125V32.5101C10.6743 32.2881 11.508 31.6743 12.0746 30.5642C12.2251 30.2684 13.3479 28.062 13.6208 27.5262C13.8466 27.0749 15.1224 28.2157 14.5209 29.3968L13.8632 30.6896C13.42 31.5612 14.0519 32.5921 15.0298 32.5921L23.5656 32.5893C23.988 32.5893 24.3488 32.9356 24.3442 33.3389C24.3396 33.7389 24.0095 34.0658 23.608 34.068H18.2817C17.9053 34.068 17.6003 34.373 17.6003 34.7494C17.6003 35.1257 17.9053 35.4307 18.2817 35.4307C18.2852 35.4307 26.2332 35.43 26.235 35.43C26.5782 35.43 26.9362 35.7453 26.9917 36.0514C27.0906 36.5454 26.8008 36.9073 26.2905 36.9073C26.2884 36.9073 25.2338 36.908 18.2244 36.908C17.848 36.908 17.543 37.213 17.543 37.5894C17.543 37.9655 17.848 38.2705 18.2244 38.2705C18.2283 38.2705 25.0528 38.2705 25.0567 38.2708C25.7109 38.2949 26 39.0855 25.5501 39.5325C25.4108 39.6725 25.2256 39.7488 25.0284 39.7488C19.8052 39.752 21.2543 39.7516 17.5699 39.7516C17.1935 39.7516 16.8885 40.0566 16.8885 40.433C16.8885 40.8094 17.1935 41.1144 17.5699 41.1144C20.8146 41.1144 20.8326 41.042 21.1228 41.3304C21.5844 41.7934 21.2564 42.5924 20.5997 42.5924ZM38.5428 42.596H34.6347V29.4958C34.6347 29.1197 34.3293 28.8144 33.9533 28.8144C33.5762 28.8144 33.2719 29.1197 33.2719 29.4958V42.596H22.563C22.7517 42.1008 22.7489 41.5802 22.5718 41.1134L25.0284 41.1116C26.5414 41.1116 27.5571 39.559 26.9553 38.1719C28.4697 37.7032 28.8379 35.8142 27.7437 34.7158C27.0079 33.98 26.2739 34.0673 25.5716 34.0673C26.0982 32.6801 25.0355 31.2265 23.5656 31.2265L15.1178 31.2293L15.7356 30.0157C16.7718 27.9779 14.9814 25.7308 13.4373 26.098V18.9529H19.3935V25.1696C19.3935 25.6873 19.8151 26.1086 20.3332 26.1086C20.7531 26.1086 20.6679 26.0984 23.3543 23.9973C26.0039 26.0701 25.9459 26.1086 26.3749 26.1086C26.8934 26.1086 27.315 25.6873 27.315 25.1696V18.9529H28.6577C29.9579 20.2532 31.543 21.1653 33.2719 21.6294V26.7706C33.2719 27.1466 33.5762 27.452 33.9533 27.452C34.3293 27.452 34.6347 27.1466 34.6347 26.7706V21.9001C35.9314 22.068 37.268 21.9916 38.5428 21.6686V42.596Z" fill="white"/>
<path d="M31.4775 11.5036C31.228 11.2215 30.7972 11.1957 30.5159 11.4452C30.2338 11.6948 30.208 12.1252 30.4576 12.4069L33.2018 15.5053C33.7306 16.1019 34.6611 16.1008 35.1891 15.5082L41.4913 8.43518C41.7419 8.15456 41.7168 7.72375 41.4358 7.47353C41.1548 7.2233 40.7244 7.24769 40.4738 7.52866L34.1967 14.573L31.4775 11.5036Z" fill="white"/>
</g>
<defs>
<clipPath id="clip0_8340_110783">
<rect width="46.3233" height="46.3233" fill="white"/>
</clipPath>
</defs>
</svg>
