<svg width="47" height="47" viewBox="0 0 47 47" fill="none" xmlns="http://www.w3.org/2000/svg">
<g clip-path="url(#clip0_8340_110760)">
<path d="M42.9393 20.8621L41.7436 16.0795C42.0705 16.01 42.3158 15.72 42.3158 15.3725V14.6014C42.3158 12.9272 40.9536 11.5651 39.2794 11.5651H33.8334V9.97455C33.8334 9.15068 33.1632 8.48047 32.3393 8.48047H4.57855C3.75468 8.48047 3.08447 9.15068 3.08447 9.97455V23.0838C3.08447 23.483 3.40812 23.8068 3.80743 23.8068C4.20665 23.8068 4.53039 23.4831 4.53039 23.0838V9.97455C4.53039 9.94794 4.55194 9.92639 4.57855 9.92639H32.3392C32.3658 9.92639 32.3874 9.94794 32.3874 9.97455V23.084C32.3874 23.4832 32.711 23.807 33.1103 23.807C33.5095 23.807 33.8333 23.4833 33.8333 23.084V22.2644H42.3614C42.3621 22.2644 42.3626 22.2646 42.3633 22.2646C42.364 22.2646 42.3646 22.2645 42.3653 22.2645C43.4147 22.2653 44.3057 22.954 44.6118 23.9032H42.3638C41.9646 23.9032 41.6409 24.2268 41.6409 24.6261V26.1684C41.6409 27.4174 42.657 28.4336 43.9061 28.4336H44.7254V31.6144H42.8351C42.2141 29.8214 40.5097 28.5299 38.5081 28.5299C36.5066 28.5299 34.8021 29.8214 34.1812 31.6144H33.8331V26.1683C33.8331 25.7691 33.5095 25.4453 33.1101 25.4453C32.7109 25.4453 32.3872 25.769 32.3872 26.1683V31.6143H17.388C16.767 29.8212 15.0625 28.5297 13.061 28.5297C11.0595 28.5297 9.35495 29.8212 8.73407 31.6143H4.57855C4.55194 31.6143 4.53039 31.5927 4.53039 31.5661V29.9756H7.66311C8.06233 29.9756 8.38607 29.652 8.38607 29.2527C8.38607 28.8533 8.06242 28.5297 7.66311 28.5297H0.722962C0.323741 28.5297 0 28.8533 0 29.2527C0 29.652 0.323651 29.9756 0.722962 29.9756H3.08456V31.5661C3.08456 32.39 3.75477 33.0602 4.57864 33.0602H8.48373C8.48355 33.0762 8.48247 33.0922 8.48247 33.1083C8.48247 35.633 10.5365 37.6869 13.061 37.6869C15.5856 37.6869 17.6396 35.633 17.6396 33.1083C17.6396 33.0921 17.6385 33.0762 17.6383 33.0602H33.9309C33.9307 33.0762 33.9296 33.0922 33.9296 33.1083C33.9296 35.633 35.9836 37.6869 38.5081 37.6869C41.0327 37.6869 43.0867 35.633 43.0867 33.1083C43.0867 33.0921 43.0856 33.0762 43.0854 33.0602H45.4484C45.8476 33.0602 46.1713 32.7365 46.1713 32.3372V24.626C46.1714 22.7221 44.7667 21.1403 42.9393 20.8621ZM33.8334 13.011H39.2794C40.1564 13.011 40.8699 13.7244 40.8699 14.6014V14.6496H33.8334V13.011ZM33.8334 20.8186V16.0954H40.2573L41.438 20.8186H33.8334ZM13.061 36.2412C11.3336 36.2412 9.9283 34.836 9.9283 33.1085C9.9283 31.3811 11.3336 29.9758 13.061 29.9758C14.7884 29.9758 16.1937 31.3811 16.1937 33.1085C16.1937 34.836 14.7884 36.2412 13.061 36.2412ZM38.5083 36.2412C36.781 36.2412 35.3756 34.836 35.3756 33.1085C35.3756 31.3811 36.781 29.9758 38.5083 29.9758C40.2357 29.9758 41.641 31.3811 41.641 33.1085C41.641 34.836 40.2357 36.2412 38.5083 36.2412ZM44.7256 26.9876H43.9062C43.4544 26.9876 43.0869 26.6201 43.0869 26.1683V25.3489H44.7255V26.9876H44.7256Z" fill="white"/>
<path d="M13.061 31.6172C12.2371 31.6172 11.5669 32.2874 11.5669 33.1113C11.5669 33.9351 12.2371 34.6053 13.061 34.6053C13.8848 34.6053 14.5551 33.9351 14.5551 33.1113C14.5551 32.2874 13.8848 31.6172 13.061 31.6172Z" fill="white"/>
<path d="M38.5082 31.6172C37.6844 31.6172 37.0142 32.2874 37.0142 33.1113C37.0142 33.9351 37.6844 34.6053 38.5082 34.6053C39.3321 34.6053 40.0023 33.9351 40.0023 33.1113C40.0023 32.2874 39.3321 31.6172 38.5082 31.6172Z" fill="white"/>
<path d="M30.0261 28.5312H19.2303C18.8311 28.5312 18.5073 28.8549 18.5073 29.2542C18.5073 29.6535 18.831 29.9772 19.2303 29.9772H30.0261C30.4253 29.9772 30.7491 29.6535 30.7491 29.2542C30.7491 28.8549 30.4254 28.5312 30.0261 28.5312Z" fill="white"/>
<path d="M11.5185 25.4492H2.26495C1.86573 25.4492 1.54199 25.7729 1.54199 26.1722C1.54199 26.5715 1.86564 26.8951 2.26495 26.8951H11.5185C11.9178 26.8951 12.2415 26.5715 12.2415 26.1722C12.2415 25.7729 11.9178 25.4492 11.5185 25.4492Z" fill="white"/>
<path d="M25.1393 15.6336C24.8571 15.3513 24.3992 15.3513 24.117 15.6336L17.6879 22.0626L14.3435 18.7181C14.0611 18.4358 13.6034 18.4358 13.3211 18.7181C13.0388 19.0005 13.0388 19.4581 13.3211 19.7405L17.1768 23.5961C17.3179 23.7374 17.503 23.8079 17.6879 23.8079C17.8729 23.8079 18.058 23.7374 18.1991 23.5961L25.1392 16.656C25.4216 16.3736 25.4216 15.9159 25.1393 15.6336Z" fill="white"/>
</g>
<defs>
<clipPath id="clip0_8340_110760">
<rect width="46.1714" height="46.1714" fill="white"/>
</clipPath>
</defs>
</svg>
