<svg width="100" height="100" viewBox="0 0 100 100" fill="none" xmlns="http://www.w3.org/2000/svg">
<g clip-path="url(#clip0_8065_77517)">
<path fill-rule="evenodd" clip-rule="evenodd" d="M71.6668 23.3327V44.9827C64.3043 44.9864 57.2711 48.0338 52.2334 53.4029C47.1957 58.772 44.602 65.985 45.0668 73.3327H8.33342C4.65152 73.3327 1.66675 70.3479 1.66675 66.666V23.3327C1.66675 19.6508 4.65152 16.666 8.33342 16.666H65.0001C68.682 16.666 71.6668 19.6508 71.6668 23.3327Z" fill="#02A9F4"/>
<path fill-rule="evenodd" clip-rule="evenodd" d="M65 16.666H60C63.6819 16.666 66.6667 19.6508 66.6667 23.3327V44.9827C59.3043 44.9864 52.271 48.0338 47.2333 53.4029C42.1957 58.772 39.6019 65.985 40.0667 73.3327H45.0667C44.6019 65.985 47.1957 58.772 52.2333 53.4029C57.271 48.0338 64.3043 44.9864 71.6667 44.9827V23.3327C71.6667 19.6508 68.6819 16.666 65 16.666Z" fill="#0377BC"/>
<path fill-rule="evenodd" clip-rule="evenodd" d="M52.3334 16.666L47.7667 9.81602C47.1536 8.88674 46.1134 8.32904 45.0001 8.33269H28.3334C27.2201 8.32904 26.1799 8.88674 25.5667 9.81602L21.0001 16.666L12.9834 16.6827L20.0167 6.11602C21.868 3.33266 24.9906 1.66186 28.3334 1.66602H45.0001C48.3429 1.66186 51.4655 3.33266 53.3167 6.11602L60.3501 16.6827L52.3334 16.666Z" fill="#0377BC"/>
<path fill-rule="evenodd" clip-rule="evenodd" d="M45.9667 64.5842C36.9144 68.9061 26.08 66.4695 19.7497 58.688C13.4195 50.9066 13.2387 39.8031 19.3124 31.8198C25.3862 23.8365 36.1355 21.0486 45.3236 25.0736C54.5118 29.0986 59.7504 38.8903 58 48.7675" fill="#F5F5F5"/>
<path fill-rule="evenodd" clip-rule="evenodd" d="M49.9999 44.9993C49.9944 46.838 48.5053 48.3272 46.6666 48.3327H39.9999V54.9993C39.9944 56.838 38.5053 58.3272 36.6666 58.3327C34.8313 58.3191 33.3469 56.8346 33.3333 54.9993V48.3327H26.6666C24.8279 48.3272 23.3387 46.838 23.3333 44.9993C23.3469 43.1641 24.8313 41.6796 26.6666 41.666H33.3333V34.9993C33.3387 33.1607 34.8279 31.6715 36.6666 31.666C38.5019 31.6796 39.9863 33.1641 39.9999 34.9993V41.666H46.6666C48.5053 41.6715 49.9944 43.1607 49.9999 44.9993Z" fill="#F44335"/>
<path fill-rule="evenodd" clip-rule="evenodd" d="M90.5334 90.5163C80.2493 100.812 63.6072 100.953 53.1501 90.833C53.031 90.7361 52.9196 90.6303 52.8168 90.5163C42.4016 80.1012 42.4016 63.2148 52.8168 52.7997C63.2319 42.3845 80.1182 42.3845 90.5334 52.7997V52.8163C95.5355 57.8142 98.346 64.5953 98.346 71.6663C98.346 78.7374 95.5355 85.5185 90.5334 90.5163Z" fill="#60A917"/>
<path fill-rule="evenodd" clip-rule="evenodd" d="M90.5334 52.8158V52.7991C85.5322 47.7913 78.7442 44.9789 71.6667 44.9824C70.8334 44.9824 70.0001 45.0241 69.1667 45.1024C75.3531 45.6804 81.1426 48.403 85.5334 52.7991V52.8158C92.8402 60.1198 95.2678 70.9884 91.7633 80.7072C88.2587 90.426 79.4534 97.2441 69.1667 98.2041C80.3594 99.2667 91.0155 93.1926 95.8041 83.0203C100.593 72.8481 98.4842 60.765 90.5334 52.8158Z" fill="#549414"/>
<path fill-rule="evenodd" clip-rule="evenodd" d="M63.3333 86.6659C62.449 86.6674 61.6006 86.3158 60.9766 85.6893L54.3099 79.0226C53.4434 78.1857 53.0959 76.9463 53.401 75.7809C53.706 74.6155 54.6162 73.7053 55.7816 73.4003C56.947 73.0952 58.1864 73.4427 59.0233 74.3093L63.4183 78.7043L84.4016 59.2209C85.7506 57.9682 87.8597 58.0461 89.1124 59.3951C90.3652 60.7441 90.2872 62.8532 88.9383 64.1059L65.6049 85.7726C64.9879 86.3469 64.1762 86.6661 63.3333 86.6659Z" fill="#F5F5F5"/>
<path fill-rule="evenodd" clip-rule="evenodd" d="M8.33341 31.666C7.41294 31.666 6.66675 30.9198 6.66675 29.9993V23.3327C6.66675 22.4122 7.41294 21.666 8.33341 21.666H15.0001C15.9206 21.666 16.6667 22.4122 16.6667 23.3327C16.6667 24.2532 15.9206 24.9993 15.0001 24.9993H10.0001V29.9993C10.0001 30.9198 9.25389 31.666 8.33341 31.666Z" fill="white"/>
<path d="M8.33333 75H43.5717C44.3004 81.3234 47.1476 87.214 51.65 91.7134C51.7542 91.8239 51.8655 91.9275 51.9833 92.0234C63.1992 102.583 80.7968 102.247 91.6012 91.2666C102.406 80.2863 102.458 62.6856 91.7183 51.6417L91.7033 51.63C86.7983 46.7274 80.2579 43.8055 73.3333 43.4234V23.3334C73.3278 18.7333 69.6001 15.0055 65 15H61.2317L54.705 5.19335C52.5462 1.94358 48.9014 -0.00682139 45 1.79278e-05H28.3333C24.4319 -0.00682139 20.7871 1.94358 18.6283 5.19335L12.1017 15H8.33333C3.73324 15.0055 0.0055102 18.7333 0 23.3334V66.6667C0.0055102 71.2668 3.73324 74.9945 8.33333 75ZM56.4517 47.7834C50.7632 51.3797 46.5578 56.9018 44.6033 63.3417C36.163 67.0634 26.2738 64.602 20.5627 57.358C14.8517 50.1141 14.7662 39.9236 20.355 32.5849C25.9437 25.2461 35.7902 22.6192 44.2918 26.1988C52.7934 29.7784 57.7954 38.6573 56.4517 47.7834ZM89.3467 89.3417C79.625 98.9565 64.0014 99.0379 54.18 89.525C54.1123 89.4675 54.0477 89.4063 53.9867 89.3417C44.2273 79.5741 44.2341 63.7444 54.0017 53.985C63.7693 44.2257 79.599 44.2324 89.3583 54C99.0862 63.7743 99.081 79.5739 89.3467 89.3417ZM21.4033 7.04002C22.9447 4.71959 25.5476 3.32739 28.3333 3.33335H45C47.7857 3.32739 50.3886 4.71959 51.93 7.04002L57.2267 15H53.2267L49.1667 8.89835C48.243 7.49936 46.6764 6.66026 45 6.66669H28.3333C26.6627 6.66237 25.1019 7.4985 24.18 8.89169L20.1083 15H16.1083L21.4033 7.04002ZM49.2183 15H24.115L26.9567 10.735C27.263 10.2743 27.7801 9.99821 28.3333 10H45C45.5557 9.99856 46.0746 10.2775 46.38 10.7417L49.2183 15ZM3.33333 23.3334C3.33333 20.5719 5.57191 18.3334 8.33333 18.3334H60.2167C60.2617 18.3334 60.3067 18.35 60.3517 18.35C60.3967 18.35 60.4267 18.3367 60.4633 18.3334H65C67.7614 18.3334 70 20.5719 70 23.3334V43.4234C66.5299 43.6261 63.1267 44.465 59.96 45.8984C59.9717 45.5984 60 45.3 60 45C60.023 34.8743 53.527 25.8839 43.9061 22.7264C34.2852 19.5688 23.7251 22.9615 17.7435 31.1316C11.7618 39.3018 11.7175 50.3934 17.6337 58.611C23.5499 66.8287 34.0825 70.3056 43.7283 67.225C43.4873 68.6935 43.3614 70.1786 43.3517 71.6667H8.33333C5.57191 71.6667 3.33333 69.4281 3.33333 66.6667V23.3334Z" fill="black"/>
<path d="M83.2666 57.9993L63.4649 76.3876L60.2066 73.1293C58.2276 71.2408 55.1139 71.2408 53.1349 73.1293C52.1971 74.067 51.6702 75.3389 51.6702 76.6651C51.6702 77.9913 52.1971 79.2632 53.1349 80.2009L59.8016 86.8676C61.7029 88.7701 64.7687 88.8275 66.7399 86.9976L90.0733 65.3309C92.0983 63.4518 92.2166 60.2868 90.3374 58.2618C88.4583 56.2367 85.2933 56.1185 83.2683 57.9976L83.2666 57.9993ZM87.8033 62.8843L64.4699 84.5509C63.8056 85.1416 62.7992 85.1235 62.1566 84.5093L55.4899 77.8426C55.0467 77.4264 54.8653 76.8017 55.0166 76.2128C55.168 75.6239 55.6281 75.1641 56.2171 75.0132C56.8062 74.8622 57.4307 75.044 57.8466 75.4876L62.2416 79.8826C62.8755 80.5171 63.8978 80.5363 64.5549 79.9259L85.5366 60.4426C85.9688 60.0146 86.5999 59.856 87.1831 60.0289C87.7663 60.2018 88.209 60.6786 88.3381 61.2731C88.4672 61.8675 88.2622 62.485 87.8033 62.8843Z" fill="black"/>
<path d="M46.6667 40H41.6667V35C41.6667 32.2386 39.4282 30 36.6667 30C33.9053 30 31.6667 32.2386 31.6667 35V40H26.6667C23.9053 40 21.6667 42.2386 21.6667 45C21.6667 47.7614 23.9053 50 26.6667 50H31.6667V55C31.6667 57.7614 33.9053 60 36.6667 60C39.4282 60 41.6667 57.7614 41.6667 55V50H46.6667C49.4282 50 51.6667 47.7614 51.6667 45C51.6667 42.2386 49.4282 40 46.6667 40ZM46.6667 46.6667H40.0001C39.0796 46.6667 38.3334 47.4129 38.3334 48.3333V55C38.3334 55.9205 37.5872 56.6667 36.6667 56.6667C35.7463 56.6667 35.0001 55.9205 35.0001 55V48.3333C35.0001 47.4129 34.2539 46.6667 33.3334 46.6667H26.6667C25.7463 46.6667 25.0001 45.9205 25.0001 45C25.0001 44.0795 25.7463 43.3333 26.6667 43.3333H33.3334C34.2539 43.3333 35.0001 42.5871 35.0001 41.6667V35C35.0001 34.0795 35.7463 33.3333 36.6667 33.3333C37.5872 33.3333 38.3334 34.0795 38.3334 35V41.6667C38.3334 42.5871 39.0796 43.3333 40.0001 43.3333H46.6667C47.5872 43.3333 48.3334 44.0795 48.3334 45C48.3334 45.9205 47.5872 46.6667 46.6667 46.6667Z" fill="black"/>
</g>
<defs>
<clipPath id="clip0_8065_77517">
<rect width="100" height="100" fill="white"/>
</clipPath>
</defs>
</svg>
