<svg width="88" height="88" viewBox="0 0 88 88" fill="none" xmlns="http://www.w3.org/2000/svg">
<g clip-path="url(#clip0_7132_47074)">
<path d="M85.3394 22.318C83.0294 13.8153 74.1864 4.97062 65.682 2.66062C60.4673 1.36125 53.4823 0.0223437 44 0C34.5177 0.0223437 27.5327 1.36125 22.318 2.66062C13.8153 4.97062 4.97062 13.8136 2.66062 22.318C1.36125 27.5327 0.0223437 34.5177 0 44C0.0223437 53.4823 1.36125 60.4673 2.66062 65.682C4.97062 74.1864 13.8153 83.0294 22.318 85.3394C27.5327 86.6387 34.5211 87.9777 44 88C53.4806 87.9777 60.4673 86.6387 65.682 85.3394C74.1864 83.0294 83.0294 74.1864 85.3394 65.682C86.6387 60.4673 87.9777 53.4789 88 44C87.9777 34.5177 86.6387 27.5327 85.3394 22.318Z" fill="#AF004F" fill-opacity="0.2"/>
<path d="M70.6905 38.2045C69.4793 37.0266 68.2653 35.8447 67.0484 34.6588C67.0141 33.0122 66.9711 31.3645 66.9195 29.7156C66.8508 27.5105 65.8986 25.4067 64.2623 23.7705C62.6864 22.1619 60.5568 21.2142 58.3069 21.1202C56.6546 21.0686 55.0034 21.0256 53.3534 20.9913C52.1595 19.7813 50.9776 18.5707 49.8077 17.3595C49.0653 16.5618 48.1666 15.9256 47.1676 15.4906C46.1685 15.0556 45.0905 14.8311 44.0009 14.8311C42.9112 14.8311 41.8332 15.0556 40.8342 15.4906C39.8351 15.9256 38.9364 16.5618 38.1941 17.3595C37.023 18.5718 35.8388 19.7853 34.6414 20.9999C32.9914 21.0319 31.3414 21.0743 29.6914 21.127C25.1453 21.2817 21.2334 25.185 21.0787 29.7208C21.0272 31.3674 20.9842 33.0151 20.9498 34.6639C19.7341 35.8522 18.5201 37.0329 17.3078 38.2063C15.6905 39.7789 14.7812 41.8277 14.7812 44.0002C14.7884 45.0869 15.016 46.1609 15.4503 47.1571C15.8846 48.1532 16.5165 49.0509 17.3078 49.7958C18.5201 50.968 19.7341 52.1476 20.9498 53.3347C20.9842 54.9847 21.0272 56.6341 21.0787 58.283C21.1475 60.4916 22.0997 62.5902 23.7342 64.2281C25.311 65.8365 27.441 66.7842 29.6914 66.8785C31.3437 66.93 32.9948 66.973 34.6448 67.0074C35.8399 68.2197 37.0219 69.4308 38.1906 70.6408C38.9337 71.4382 39.8329 72.0741 40.8324 72.5089C41.8318 72.9437 42.9101 73.1681 44 73.1681C45.0899 73.1681 46.1682 72.9437 47.1676 72.5089C48.1671 72.0741 49.0663 71.4382 49.8094 70.6408C50.985 69.4319 52.1681 68.2202 53.3586 67.0056C55.0086 66.9724 56.6586 66.93 58.3086 66.8785C62.853 66.7238 66.7666 62.817 66.9212 58.2847C66.9728 56.6381 67.0158 54.991 67.0502 53.3433C68.2659 52.1562 69.4799 50.9731 70.6922 49.7941C71.4827 49.0489 72.1141 48.1514 72.5483 47.1556C72.9825 46.1599 73.2106 45.0865 73.2188 44.0002C73.2188 41.8242 72.3095 39.7755 70.6905 38.2045Z" fill="url(#paint0_linear_7132_47074)"/>
<path d="M58.5291 40.303C53.6066 45.418 48.605 50.6481 43.6877 55.8353C43.2878 56.2585 42.8058 56.5958 42.2713 56.8266C41.7367 57.0574 41.1607 57.1768 40.5785 57.1777H40.563C39.9812 57.1735 39.4062 57.0531 38.8716 56.8235C38.3371 56.5938 37.8538 56.2596 37.4503 55.8405C34.8224 53.1266 32.1755 50.4144 29.5441 47.7246C29.1437 47.3222 28.8279 46.8438 28.6151 46.3176C28.4024 45.7914 28.297 45.228 28.3051 44.6605C28.3133 44.0929 28.4349 43.5328 28.6627 43.0129C28.8905 42.493 29.22 42.024 29.6317 41.6333C30.4608 40.8312 31.5733 40.3893 32.7268 40.4038C33.8803 40.4183 34.9813 40.888 35.79 41.7106C37.361 43.3217 38.9353 44.9379 40.5131 46.5592C44.4181 42.4686 48.3403 38.3556 52.2006 34.2994C53.8403 32.5806 56.5749 32.5463 58.3331 34.21C60.0914 35.8738 60.1808 38.5877 58.5291 40.303Z" fill="url(#paint1_linear_7132_47074)"/>
</g>
<defs>
<linearGradient id="paint0_linear_7132_47074" x1="44" y1="14.8311" x2="44" y2="73.168" gradientUnits="userSpaceOnUse">
<stop stop-color="#81013A"/>
<stop offset="1" stop-color="#CA015C"/>
</linearGradient>
<linearGradient id="paint1_linear_7132_47074" x1="51.1917" y1="48.333" x2="37.055" y2="34.1963" gradientUnits="userSpaceOnUse">
<stop stop-color="#BCE4ED"/>
<stop offset="0.57" stop-color="white"/>
<stop offset="1" stop-color="white"/>
</linearGradient>
<clipPath id="clip0_7132_47074">
<rect width="88" height="88" fill="white"/>
</clipPath>
</defs>
</svg>
