<svg width="389" height="230" viewBox="0 0 389 230" fill="none" xmlns="http://www.w3.org/2000/svg">
<g opacity="0.5" clip-path="url(#clip0_3835_74338)">
<g opacity="0.47">
<path d="M111.147 -27.3212H87.7195L76.0703 -7.12937L87.7195 13.0625H111.147L122.796 -7.12937L111.147 -27.3212Z" fill="url(#paint0_linear_3835_74338)"/>
<path d="M111.147 -27.3212H87.7195L76.0703 -7.12937L87.7195 13.0625H111.147L122.796 -7.12937L111.147 -27.3212Z" fill="white"/>
<path d="M149.198 39.5962H125.77L114.121 59.9175L125.77 80.1094H149.198L160.847 59.9175L149.198 39.5962Z" fill="url(#paint1_linear_3835_74338)"/>
<path d="M149.198 39.5962H125.77L114.121 59.9175L125.77 80.1094H149.198L160.847 59.9175L149.198 39.5962Z" fill="white"/>
<path d="M34.9084 17.2061H11.6101L-0.0390625 37.398L11.6101 57.5898H34.9084L46.687 37.398L34.9084 17.2061Z" fill="url(#paint2_linear_3835_74338)"/>
<path d="M34.9084 17.2061H11.6101L-0.0390625 37.398L11.6101 57.5898H34.9084L46.687 37.398L34.9084 17.2061Z" fill="white"/>
<path d="M70.5022 169.936H47.2038L35.5547 190.128L47.2038 210.449H70.5022L82.2808 190.128L70.5022 169.936Z" fill="url(#paint3_linear_3835_74338)"/>
<path d="M70.5022 169.936H47.2038L35.5547 190.128L47.2038 210.449H70.5022L82.2808 190.128L70.5022 169.936Z" fill="white"/>
<path d="M111.147 61.7295H87.7195L76.0703 81.9214L87.7195 102.113H111.147L122.796 81.9214L111.147 61.7295Z" fill="url(#paint4_linear_3835_74338)"/>
<path d="M111.147 61.7295H87.7195L76.0703 81.9214L87.7195 102.113H111.147L122.796 81.9214L111.147 61.7295Z" fill="white"/>
<path d="M149.198 -5.05956H125.77L114.121 15.1323L125.77 35.3242H149.198L160.847 15.1323L149.198 -5.05956Z" fill="url(#paint5_linear_3835_74338)"/>
<path d="M149.198 -5.05956H125.77L114.121 15.1323L125.77 35.3242H149.198L160.847 15.1323L149.198 -5.05956Z" fill="white"/>
<path d="M186.994 61.7295H163.696L152.047 81.9214L163.696 102.113H186.994L198.773 81.9214L186.994 61.7295Z" fill="url(#paint6_linear_3835_74338)"/>
<path d="M186.994 61.7295H163.696L152.047 81.9214L163.696 102.113H186.994L198.773 81.9214L186.994 61.7295Z" fill="white"/>
<path d="M186.994 17.2061H163.696L152.047 37.398L163.696 57.5898H186.994L198.773 37.398L186.994 17.2061Z" fill="url(#paint7_linear_3835_74338)"/>
<path d="M186.994 17.2061H163.696L152.047 37.398L163.696 57.5898H186.994L198.773 37.398L186.994 17.2061Z" fill="white"/>
<g opacity="0.49">
<path d="M149.198 128.522H125.77L114.121 148.714L125.77 169.035H149.198L160.847 148.714L149.198 128.522Z" fill="url(#paint8_linear_3835_74338)"/>
<path d="M149.198 128.522H125.77L114.121 148.714L125.77 169.035H149.198L160.847 148.714L149.198 128.522Z" fill="white"/>
</g>
<path d="M149.198 83.9946H125.77L114.121 104.187L125.77 124.508H149.198L160.847 104.187L149.198 83.9946Z" fill="url(#paint9_linear_3835_74338)"/>
<path d="M149.198 83.9946H125.77L114.121 104.187L125.77 124.508H149.198L160.847 104.187L149.198 83.9946Z" fill="white"/>
<path d="M186.994 150.784H163.696L152.047 170.976L163.696 191.297H186.994L198.773 170.976L186.994 150.784Z" fill="url(#paint10_linear_3835_74338)"/>
<path d="M186.994 150.784H163.696L152.047 170.976L163.696 191.297H186.994L198.773 170.976L186.994 150.784Z" fill="white"/>
<path d="M301.284 173.045H277.986L266.207 193.237L277.986 213.559H301.284L312.933 193.237L301.284 173.045Z" fill="white"/>
<path d="M225.311 128.522H201.884L190.234 148.714L201.884 169.035H225.311L236.96 148.714L225.311 128.522Z" fill="url(#paint11_linear_3835_74338)"/>
<path d="M225.311 128.522H201.884L190.234 148.714L201.884 169.035H225.311L236.96 148.714L225.311 128.522Z" fill="white"/>
<path d="M225.311 83.9946H201.884L190.234 104.187L201.884 124.508H225.311L236.96 104.187L225.311 83.9946Z" fill="url(#paint12_linear_3835_74338)"/>
<path d="M225.311 83.9946H201.884L190.234 104.187L201.884 124.508H225.311L236.96 104.187L225.311 83.9946Z" fill="white"/>
<path d="M301.284 173.045H277.986L266.207 193.237L277.986 213.559H301.284L312.933 193.237L301.284 173.045Z" fill="white"/>
<g opacity="0.49">
<path d="M263.233 150.784H239.805L228.156 170.976L239.805 191.297H263.233L274.882 170.976L263.233 150.784Z" fill="url(#paint13_linear_3835_74338)"/>
<path d="M263.233 150.784H239.805L228.156 170.976L239.805 191.297H263.233L274.882 170.976L263.233 150.784Z" fill="white"/>
</g>
<g opacity="0.49">
<path d="M377.077 168.999H353.649L342 189.19L353.649 209.512H377.077L388.726 189.19L377.077 168.999Z" fill="url(#paint14_linear_3835_74338)"/>
<path d="M377.077 168.999H353.649L342 189.19L353.649 209.512H377.077L388.726 189.19L377.077 168.999Z" fill="white"/>
</g>
<path d="M263.233 106.26H239.805L228.156 126.452L239.805 146.773H263.233L274.882 126.452L263.233 106.26Z" fill="url(#paint15_linear_3835_74338)"/>
<path d="M263.233 106.26H239.805L228.156 126.452L239.805 146.773H263.233L274.882 126.452L263.233 106.26Z" fill="white"/>
<path d="M345.077 12.9985H321.649L310 33.1904L321.649 53.5117H345.077L356.726 33.1904L345.077 12.9985Z" fill="url(#paint16_linear_3835_74338)"/>
<path d="M345.077 12.9985H321.649L310 33.1904L321.649 53.5117H345.077L356.726 33.1904L345.077 12.9985Z" fill="white"/>
<path d="M307.077 35.9985H283.649L272 56.1904L283.649 76.5117H307.077L318.726 56.1904L307.077 35.9985Z" fill="url(#paint17_linear_3835_74338)"/>
<path d="M307.077 35.9985H283.649L272 56.1904L283.649 76.5117H307.077L318.726 56.1904L307.077 35.9985Z" fill="white"/>
<g opacity="0.49">
<path d="M186.994 195.307H163.696L152.047 215.499L163.696 235.82H186.994L198.773 215.499L186.994 195.307Z" fill="url(#paint18_linear_3835_74338)"/>
<path d="M186.994 195.307H163.696L152.047 215.499L163.696 235.82H186.994L198.773 215.499L186.994 195.307Z" fill="white"/>
</g>
<path d="M225.311 217.569H201.884L190.234 237.761L201.884 258.082H225.311L236.96 237.761L225.311 217.569Z" fill="url(#paint19_linear_3835_74338)"/>
<path d="M225.311 217.569H201.884L190.234 237.761L201.884 258.082H225.311L236.96 237.761L225.311 217.569Z" fill="white"/>
<path d="M225.311 173.045H201.884L190.234 193.237L201.884 213.559H225.311L236.96 193.237L225.311 173.045Z" fill="url(#paint20_linear_3835_74338)"/>
<path d="M225.311 173.045H201.884L190.234 193.237L201.884 213.559H225.311L236.96 193.237L225.311 173.045Z" fill="white"/>
<path d="M263.233 195.307H239.805L228.156 215.499L239.805 235.82H263.233L274.882 215.499L263.233 195.307Z" fill="white"/>
<path d="M301.284 217.569H277.986L266.207 237.761L277.986 258.082H301.284L312.933 237.761L301.284 217.569Z" fill="url(#paint21_linear_3835_74338)"/>
<path d="M301.284 217.569H277.986L266.207 237.761L277.986 258.082H301.284L312.933 237.761L301.284 217.569Z" fill="white"/>
<path d="M301.284 173.045H277.986L266.207 193.237L277.986 213.559H301.284L312.933 193.237L301.284 173.045Z" fill="white"/>
</g>
</g>
<path d="M28 87.2077L28.9786 81.5108L38.7297 70.082L40.9666 72.0043L28 87.2077Z" fill="url(#paint22_linear_3835_74338)"/>
<path d="M75.4919 39.8456L64.832 30.7236L73.1851 20.9375L83.88 30.0595L75.4919 39.8456Z" fill="url(#paint23_linear_3835_74338)"/>
<path d="M73.0164 37.7141L71.1641 36.1414L79.5172 26.3203L81.3696 27.928L73.0164 37.7141Z" fill="url(#paint24_linear_3835_74338)"/>
<path d="M71.4767 36.4251L68.8555 34.1882L77.2436 24.3672L79.8648 26.604L71.4767 36.4251Z" fill="url(#paint25_linear_3835_74338)"/>
<path d="M43.5873 75.8806C42.5738 77.0689 33.1721 69.0303 34.1857 67.842L48.5852 50.996C49.3541 50.1222 58.7558 58.1608 57.9869 59.0346L43.5873 75.8806Z" fill="url(#paint26_linear_3835_74338)"/>
<path d="M48.6914 76.3351C47.2235 78.0476 31.4259 64.5917 32.9288 62.8442L54.0039 38.1693C55.1223 36.8761 70.8849 50.3669 69.7665 51.6601L48.6914 76.3351Z" fill="url(#paint27_linear_3835_74338)"/>
<path d="M81.9595 41.4913L53.0205 75.3582C51.6225 76.966 31.8057 60.015 33.1687 58.4073L62.1076 24.5404C63.4707 22.9676 83.3225 39.9186 81.9595 41.4913Z" fill="url(#paint28_linear_3835_74338)"/>
<path d="M80.3552 34.1837L69.6953 25.0616L73.1903 20.9375L83.8852 30.0595L80.3552 34.1837Z" fill="url(#paint29_linear_3835_74338)"/>
<path d="M87.7651 34.712L67.7385 17.5863L69.9754 15L90.0019 32.0907L87.7651 34.712Z" fill="url(#paint30_linear_3835_74338)"/>
<g opacity="0.5">
<path d="M80.5233 43.1691C80.2437 43.4837 80.1039 43.6584 79.8593 43.973C76.3643 40.8624 72.8343 37.8567 69.2344 34.8859C69.514 34.5713 69.6538 34.3966 69.8984 34.082C73.4983 37.0878 77.0283 40.0935 80.5233 43.1691Z" fill="#94B3E4"/>
<path d="M72.1327 52.9933C71.8531 53.3079 71.7133 53.4827 71.4687 53.7972C67.9387 50.7565 64.4087 47.7158 60.8438 44.7101C61.1234 44.3956 61.2632 44.2208 61.5078 43.9062C65.0728 46.912 68.6027 49.9527 72.1327 52.9933Z" fill="#94B3E4"/>
<path d="M78.8414 45.163C78.5618 45.4775 78.422 45.6523 78.1424 45.9668C75.626 43.73 74.3678 42.6466 71.8164 40.4796C72.096 40.1651 72.2358 39.9903 72.5154 39.6758C75.0668 41.8078 76.3599 42.9262 78.8414 45.163Z" fill="#94B3E4"/>
<path d="M77.1619 47.1161C76.8823 47.4307 76.7425 47.6054 76.4979 47.92C73.9815 45.7181 72.7233 44.5997 70.1719 42.4328C70.4515 42.1182 70.5913 41.9435 70.8709 41.6289C73.3873 43.7958 74.6455 44.8793 77.1619 47.1161Z" fill="#94B3E4"/>
<path d="M75.4862 49.0771C75.2066 49.3916 75.0668 49.5664 74.8221 49.8809C72.3057 47.679 71.0475 46.5606 68.4961 44.3937C68.7757 44.0791 68.9155 43.9044 69.1951 43.5898C71.7115 45.7568 72.9697 46.8752 75.4862 49.0771Z" fill="#94B3E4"/>
<path d="M73.8141 51.0343C73.5345 51.3488 73.3947 51.5236 73.1151 51.8381C70.5986 49.6363 69.3404 48.5528 66.7891 46.3859C67.0687 46.0713 67.2085 45.8966 67.4881 45.582C70.0394 47.749 71.2977 48.8324 73.8141 51.0343Z" fill="#94B3E4"/>
<path d="M63.746 62.8137C63.4664 63.1282 63.3266 63.303 63.082 63.6175C59.517 60.6118 55.987 57.5711 52.457 54.5304C52.7366 54.2159 52.8764 54.0411 53.1211 53.7266C56.6511 56.8022 60.181 59.8079 63.746 62.8137Z" fill="#94B3E4"/>
<path d="M70.4508 54.9835C70.1712 55.2981 70.0314 55.4728 69.7867 55.7874C67.2354 53.5855 65.9772 52.502 63.4258 50.3351C63.7054 50.0206 63.8452 49.8458 64.1248 49.5312C66.6412 51.6982 67.8994 52.7816 70.4508 54.9835Z" fill="#94B3E4"/>
<path d="M68.7748 56.9366C68.4952 57.2512 68.3554 57.4259 68.0758 57.7405C65.5244 55.5736 64.2662 54.4901 61.7148 52.2882C61.9944 51.9737 62.1342 51.7989 62.4139 51.4844C64.9652 53.6513 66.2234 54.7348 68.7748 56.9366Z" fill="#94B3E4"/>
<path d="M67.0954 58.8939C66.8158 59.2084 66.676 59.3832 66.4313 59.6977C63.8799 57.5308 62.6217 56.4474 60.0703 54.2804C60.3499 53.9659 60.4897 53.7911 60.7693 53.4766C63.2857 55.6435 64.544 56.7269 67.0954 58.8939Z" fill="#94B3E4"/>
<path d="M65.4195 60.8587C65.1399 61.1733 65.0001 61.348 64.7555 61.6626C62.2041 59.4957 60.911 58.4122 58.3945 56.2453C58.6741 55.9307 58.8139 55.756 59.0935 55.4414C61.575 57.6083 62.8682 58.6918 65.4195 60.8587Z" fill="#94B3E4"/>
<path d="M55.3552 72.634C55.0756 72.9485 54.9358 73.1233 54.6562 73.4378C51.0563 70.467 47.5263 67.4613 44.0312 64.3507C44.3109 64.0362 44.4507 63.8614 44.7303 63.5469C48.2253 66.6575 51.7553 69.6632 55.3552 72.634Z" fill="#94B3E4"/>
<path d="M62.0678 64.8001C61.7882 65.1147 61.6484 65.2894 61.4037 65.604C58.8174 63.472 57.5592 62.3885 55.0078 60.1867C55.2874 59.8721 55.4272 59.6974 55.7068 59.3828C58.2232 61.5497 59.4815 62.6332 62.0678 64.8001Z" fill="#94B3E4"/>
<path d="M60.384 66.7613C60.1044 67.0758 59.9646 67.2506 59.685 67.5651C57.0986 65.4332 55.8404 64.3497 53.2891 62.1828C53.5687 61.8682 53.7085 61.6935 53.9881 61.3789C56.5394 63.5458 57.7977 64.6293 60.384 66.7613Z" fill="#94B3E4"/>
<path d="M58.7084 68.7183C58.4288 69.0328 58.289 69.2076 58.0444 69.5222C55.458 67.3902 54.1649 66.3067 51.6484 64.1398C51.928 63.8252 52.0678 63.6505 52.3474 63.3359C54.8289 65.5029 56.1221 66.5863 58.7084 68.7183Z" fill="#94B3E4"/>
<path d="M57.0287 70.6792C56.7491 70.9938 56.6093 71.1685 56.3647 71.4831C53.7783 69.3511 52.4852 68.3026 49.9688 66.1007C50.2484 65.7862 50.3882 65.6114 50.6678 65.2969C53.1492 67.4987 54.4424 68.5822 57.0287 70.6792Z" fill="#94B3E4"/>
</g>
<path d="M80.3651 132.824C80.4909 133.265 80.5852 133.736 80.6481 134.176C81.2768 138.86 78.3847 143.45 73.6694 144.77C68.9855 146.09 64.1129 143.701 62.1954 139.395C62.0067 138.986 61.8496 138.546 61.7238 138.106C61.5981 137.666 61.5038 137.194 61.4409 136.754C60.8122 132.07 63.7043 127.48 68.4196 126.16C73.1035 124.84 77.976 127.229 79.8936 131.536C80.0822 131.944 80.2394 132.384 80.3651 132.824Z" fill="url(#paint31_linear_3835_74338)"/>
<path opacity="0.5" d="M80.3615 132.82L61.7517 138.07C61.6259 137.63 61.5316 137.158 61.4688 136.718L79.89 131.531C80.0786 131.94 80.2358 132.38 80.3615 132.82Z" fill="#A6D6E6"/>
<path opacity="0.4" d="M80.3638 132.824C80.4895 133.264 80.5838 133.736 80.6467 134.176L62.2254 139.363C62.0368 138.954 61.8796 138.514 61.7539 138.074L80.3638 132.824Z" fill="url(#paint32_linear_3835_74338)"/>
<path d="M21.9027 147.265C21.7456 147.579 21.5884 147.894 21.3998 148.177C19.4822 151.194 15.6156 152.42 12.2834 150.912C8.95127 149.403 7.28518 145.693 8.29112 142.267C8.38543 141.952 8.51116 141.607 8.63691 141.292C8.79408 140.978 8.95127 140.664 9.13989 140.381C11.0575 137.363 14.924 136.137 18.2562 137.646C21.5884 139.155 23.2545 142.864 22.2485 146.291C22.1542 146.605 22.0285 146.951 21.9027 147.265Z" fill="url(#paint33_linear_3835_74338)"/>
<path opacity="0.5" d="M21.9065 147.271L8.64062 141.298C8.7978 140.984 8.95499 140.67 9.14361 140.387L22.2837 146.297C22.1579 146.611 22.0322 146.957 21.9065 147.271Z" fill="#A6D6E6"/>
<path opacity="0.4" d="M21.9048 147.27C21.7476 147.584 21.5904 147.898 21.4018 148.181L8.26172 142.271C8.35603 141.957 8.48176 141.611 8.6075 141.297L21.9048 147.27Z" fill="url(#paint34_linear_3835_74338)"/>
<path d="M82.3889 126.315L57.9951 102.17C55.3489 99.5235 55.3489 95.2235 57.9123 92.5774L79.2466 70.995C81.8927 68.3489 86.1927 68.3489 88.8388 70.9124L113.233 95.0581C115.879 97.7043 115.879 102.004 113.315 104.65L91.9811 126.233C89.335 128.879 85.0351 128.879 82.3889 126.315Z" fill="url(#paint35_linear_3835_74338)"/>
<path d="M88.3424 84.1362C87.0194 85.542 84.704 85.4593 83.1329 83.9708C81.6445 82.4824 81.5618 80.167 82.8849 78.844C84.2079 77.4382 86.5233 77.5209 88.0944 79.0094C89.5828 80.4978 89.6655 82.8131 88.3424 84.1362Z" fill="url(#paint36_linear_3835_74338)"/>
<path d="M88.3424 84.1362C87.0194 85.542 84.704 85.4593 83.1329 83.9708C81.6445 82.4824 81.5618 80.167 82.8849 78.844C84.2079 77.4382 86.5233 77.5209 88.0944 79.0094C89.5828 80.4978 89.6655 82.8131 88.3424 84.1362Z" fill="url(#paint37_linear_3835_74338)"/>
<path d="M96.8623 92.656C95.5392 94.0617 93.2238 93.979 91.6527 92.4906C90.1643 91.0022 90.0816 88.6868 91.4046 87.3638C92.7277 85.958 95.043 86.0407 96.6142 87.5291C98.1026 88.9349 98.268 91.2502 96.8623 92.656Z" fill="url(#paint38_linear_3835_74338)"/>
<path d="M96.8623 92.656C95.5392 94.0617 93.2238 93.979 91.6527 92.4906C90.1643 91.0022 90.0816 88.6868 91.4046 87.3638C92.7277 85.958 95.043 86.0407 96.6142 87.5291C98.1026 88.9349 98.268 91.2502 96.8623 92.656Z" fill="url(#paint39_linear_3835_74338)"/>
<path d="M105.45 101.176C104.127 102.582 101.811 102.499 100.24 101.011C98.7517 99.5222 98.669 97.2068 99.992 95.8838C101.315 94.478 103.63 94.5607 105.202 96.0492C106.69 97.4549 106.855 99.7703 105.45 101.176Z" fill="url(#paint40_linear_3835_74338)"/>
<path d="M105.45 101.176C104.127 102.582 101.811 102.499 100.24 101.011C98.7517 99.5222 98.669 97.2068 99.992 95.8838C101.315 94.478 103.63 94.5607 105.202 96.0492C106.69 97.4549 106.855 99.7703 105.45 101.176Z" fill="url(#paint41_linear_3835_74338)"/>
<path d="M79.7463 92.8225C78.4232 94.2282 76.1079 94.1455 74.5368 92.6571C73.0483 91.1687 72.9656 88.8533 74.2886 87.5303C75.6117 86.1245 77.9271 86.2072 79.4982 87.6956C80.9867 89.1014 81.0693 91.4167 79.7463 92.8225Z" fill="url(#paint42_linear_3835_74338)"/>
<path d="M79.7463 92.8225C78.4232 94.2282 76.1079 94.1455 74.5368 92.6571C73.0483 91.1687 72.9656 88.8533 74.2886 87.5303C75.6117 86.1245 77.9271 86.2072 79.4982 87.6956C80.9867 89.1014 81.0693 91.4167 79.7463 92.8225Z" fill="url(#paint43_linear_3835_74338)"/>
<path d="M88.3337 101.342C87.0106 102.748 84.6953 102.665 83.1241 101.177C81.6357 99.6884 81.553 97.3731 82.8761 96.05C84.1991 94.6443 86.5145 94.727 88.0856 96.2154C89.574 97.6212 89.6567 99.9365 88.3337 101.342Z" fill="url(#paint44_linear_3835_74338)"/>
<path d="M88.3337 101.342C87.0106 102.748 84.6953 102.665 83.1241 101.177C81.6357 99.6884 81.553 97.3731 82.8761 96.05C84.1991 94.6443 86.5145 94.727 88.0856 96.2154C89.574 97.6212 89.6567 99.9365 88.3337 101.342Z" fill="url(#paint45_linear_3835_74338)"/>
<path d="M96.9433 109.776C95.6202 111.182 93.3049 111.099 91.7337 109.611C90.2453 108.123 90.1626 105.807 91.4857 104.484C92.8087 103.078 95.1241 103.161 96.6952 104.649C98.1837 106.138 98.2663 108.453 96.9433 109.776Z" fill="url(#paint46_linear_3835_74338)"/>
<path d="M96.9433 109.776C95.6202 111.182 93.3049 111.099 91.7337 109.611C90.2453 108.123 90.1626 105.807 91.4857 104.484C92.8087 103.078 95.1241 103.161 96.6952 104.649C98.1837 106.138 98.2663 108.453 96.9433 109.776Z" fill="url(#paint47_linear_3835_74338)"/>
<path d="M71.1454 101.518C69.8224 102.924 67.507 102.841 65.9359 101.352C64.4475 99.864 64.3648 97.5486 65.6878 96.2256C67.0109 94.8198 69.3262 94.9025 70.8974 96.391C72.4685 97.7967 72.5512 100.112 71.1454 101.518Z" fill="url(#paint48_linear_3835_74338)"/>
<path d="M71.1454 101.518C69.8224 102.924 67.507 102.841 65.9359 101.352C64.4475 99.864 64.3648 97.5486 65.6878 96.2256C67.0109 94.8198 69.3262 94.9025 70.8974 96.391C72.4685 97.7967 72.5512 100.112 71.1454 101.518Z" fill="url(#paint49_linear_3835_74338)"/>
<path d="M79.7463 109.947C78.4232 111.353 76.1079 111.271 74.5368 109.782C73.0483 108.294 72.9656 105.978 74.2886 104.655C75.6117 103.25 77.9271 103.332 79.4982 104.821C80.9867 106.309 81.152 108.624 79.7463 109.947Z" fill="url(#paint50_linear_3835_74338)"/>
<path d="M79.7463 109.947C78.4232 111.353 76.1079 111.271 74.5368 109.782C73.0483 108.294 72.9656 105.978 74.2886 104.655C75.6117 103.25 77.9271 103.332 79.4982 104.821C80.9867 106.309 81.152 108.624 79.7463 109.947Z" fill="url(#paint51_linear_3835_74338)"/>
<path d="M88.3424 118.472C87.0194 119.877 84.704 119.795 83.1329 118.306C81.6445 116.818 81.5618 114.502 82.8849 113.179C84.2079 111.774 86.5233 111.856 88.0944 113.345C89.5828 114.751 89.6655 117.066 88.3424 118.472Z" fill="url(#paint52_linear_3835_74338)"/>
<path d="M88.3424 118.472C87.0194 119.877 84.704 119.795 83.1329 118.306C81.6445 116.818 81.5618 114.502 82.8849 113.179C84.2079 111.774 86.5233 111.856 88.0944 113.345C89.5828 114.751 89.6655 117.066 88.3424 118.472Z" fill="url(#paint53_linear_3835_74338)"/>
<path d="M45.8046 199.155L32.1193 185.609C30.6347 184.124 30.6347 181.712 32.0729 180.227L44.0417 168.119C45.5263 166.635 47.9386 166.635 49.4231 168.073L63.1085 181.619C64.593 183.104 64.593 185.516 63.1549 187L51.186 199.108C49.7015 200.593 47.2891 200.593 45.8046 199.155Z" fill="url(#paint54_linear_3835_74338)"/>
<path d="M49.1446 175.492C48.4023 176.28 47.1034 176.234 46.222 175.399C45.3869 174.564 45.3405 173.265 46.0828 172.523C46.825 171.734 48.124 171.78 49.0054 172.615C49.8405 173.45 49.8868 174.749 49.1446 175.492Z" fill="url(#paint55_linear_3835_74338)"/>
<path d="M49.1446 175.492C48.4023 176.28 47.1034 176.234 46.222 175.399C45.3869 174.564 45.3405 173.265 46.0828 172.523C46.825 171.734 48.124 171.78 49.0054 172.615C49.8405 173.45 49.8868 174.749 49.1446 175.492Z" fill="url(#paint56_linear_3835_74338)"/>
<path d="M53.9244 180.271C53.1821 181.06 51.8832 181.014 51.0017 180.179C50.1667 179.344 50.1203 178.045 50.8626 177.302C51.6048 176.514 52.9038 176.56 53.7852 177.395C54.6202 178.184 54.713 179.483 53.9244 180.271Z" fill="url(#paint57_linear_3835_74338)"/>
<path d="M53.9244 180.271C53.1821 181.06 51.8832 181.014 51.0017 180.179C50.1667 179.344 50.1203 178.045 50.8626 177.302C51.6048 176.514 52.9038 176.56 53.7852 177.395C54.6202 178.184 54.713 179.483 53.9244 180.271Z" fill="url(#paint58_linear_3835_74338)"/>
<path d="M58.742 185.051C57.9997 185.84 56.7008 185.793 55.8194 184.958C54.9843 184.123 54.9379 182.824 55.6802 182.082C56.4225 181.294 57.7214 181.34 58.6028 182.175C59.4379 182.964 59.5306 184.263 58.742 185.051Z" fill="url(#paint59_linear_3835_74338)"/>
<path d="M58.742 185.051C57.9997 185.84 56.7008 185.793 55.8194 184.958C54.9843 184.123 54.9379 182.824 55.6802 182.082C56.4225 181.294 57.7214 181.34 58.6028 182.175C59.4379 182.964 59.5306 184.263 58.742 185.051Z" fill="url(#paint60_linear_3835_74338)"/>
<path d="M44.3221 180.365C43.5798 181.154 42.2809 181.107 41.3995 180.272C40.5644 179.437 40.518 178.138 41.2603 177.396C42.0025 176.607 43.3015 176.654 44.1829 177.489C45.018 178.277 45.0643 179.576 44.3221 180.365Z" fill="url(#paint61_linear_3835_74338)"/>
<path d="M44.3221 180.365C43.5798 181.154 42.2809 181.107 41.3995 180.272C40.5644 179.437 40.518 178.138 41.2603 177.396C42.0025 176.607 43.3015 176.654 44.1829 177.489C45.018 178.277 45.0643 179.576 44.3221 180.365Z" fill="url(#paint62_linear_3835_74338)"/>
<path d="M49.1397 185.144C48.3974 185.933 47.0985 185.887 46.2171 185.052C45.382 184.217 45.3356 182.918 46.0779 182.175C46.8202 181.387 48.1191 181.433 49.0005 182.268C49.8356 183.057 49.882 184.356 49.1397 185.144Z" fill="url(#paint63_linear_3835_74338)"/>
<path d="M49.1397 185.144C48.3974 185.933 47.0985 185.887 46.2171 185.052C45.382 184.217 45.3356 182.918 46.0779 182.175C46.8202 181.387 48.1191 181.433 49.0005 182.268C49.8356 183.057 49.882 184.356 49.1397 185.144Z" fill="url(#paint64_linear_3835_74338)"/>
<path d="M53.97 189.876C53.2278 190.665 51.9288 190.618 51.0474 189.783C50.2124 188.948 50.166 187.649 50.9082 186.907C51.6505 186.118 52.9494 186.165 53.8309 187C54.6659 187.835 54.7123 189.134 53.97 189.876Z" fill="url(#paint65_linear_3835_74338)"/>
<path d="M53.97 189.876C53.2278 190.665 51.9288 190.618 51.0474 189.783C50.2124 188.948 50.166 187.649 50.9082 186.907C51.6505 186.118 52.9494 186.165 53.8309 187C54.6659 187.835 54.7123 189.134 53.97 189.876Z" fill="url(#paint66_linear_3835_74338)"/>
<path d="M39.4969 185.243C38.7546 186.032 37.4557 185.985 36.5742 185.15C35.7392 184.315 35.6928 183.016 36.4351 182.274C37.1773 181.485 38.4763 181.532 39.3577 182.367C40.2391 183.155 40.2855 184.454 39.4969 185.243Z" fill="url(#paint67_linear_3835_74338)"/>
<path d="M39.4969 185.243C38.7546 186.032 37.4557 185.985 36.5742 185.15C35.7392 184.315 35.6928 183.016 36.4351 182.274C37.1773 181.485 38.4763 181.532 39.3577 182.367C40.2391 183.155 40.2855 184.454 39.4969 185.243Z" fill="url(#paint68_linear_3835_74338)"/>
<path d="M44.3221 189.972C43.5798 190.761 42.2809 190.715 41.3995 189.88C40.5644 189.045 40.518 187.746 41.2603 187.003C42.0025 186.215 43.3015 186.261 44.1829 187.096C45.018 187.931 45.1107 189.23 44.3221 189.972Z" fill="url(#paint69_linear_3835_74338)"/>
<path d="M44.3221 189.972C43.5798 190.761 42.2809 190.715 41.3995 189.88C40.5644 189.045 40.518 187.746 41.2603 187.003C42.0025 186.215 43.3015 186.261 44.1829 187.096C45.018 187.931 45.1107 189.23 44.3221 189.972Z" fill="url(#paint70_linear_3835_74338)"/>
<path d="M49.1448 194.754C48.4026 195.543 47.1036 195.497 46.2222 194.662C45.3872 193.826 45.3408 192.528 46.083 191.785C46.8253 190.997 48.1242 191.043 49.0057 191.878C49.8407 192.667 49.8871 193.966 49.1448 194.754Z" fill="url(#paint71_linear_3835_74338)"/>
<path d="M49.1448 194.754C48.4026 195.543 47.1036 195.497 46.2222 194.662C45.3872 193.826 45.3408 192.528 46.083 191.785C46.8253 190.997 48.1242 191.043 49.0057 191.878C49.8407 192.667 49.8871 193.966 49.1448 194.754Z" fill="url(#paint72_linear_3835_74338)"/>
<path d="M97.519 207.636C95.0485 206.146 94.2642 202.97 95.7543 200.499L99.0484 195.009L102.342 189.519C103.833 187.048 107.009 186.264 109.479 187.754C111.95 189.245 112.734 192.421 111.244 194.891L107.95 200.381L104.656 205.871C103.166 208.342 99.9895 209.126 97.519 207.636Z" fill="white"/>
<path d="M104.656 205.874C103.166 208.345 99.9895 209.129 97.519 207.639C95.0485 206.149 94.2642 202.972 95.7543 200.502L99.0484 195.012L107.95 200.384L104.656 205.874Z" fill="url(#paint73_linear_3835_74338)"/>
<path d="M99.0508 195.009L102.345 189.519C103.835 187.048 107.011 186.264 109.482 187.754C111.952 189.245 112.737 192.421 111.247 194.891L107.953 200.381L99.0508 195.009Z" fill="url(#paint74_linear_3835_74338)"/>
<path d="M135.201 42.8354C131.454 43.0572 128.273 40.2283 128.051 36.4808L127.539 28.166L127.027 19.8511C126.806 16.1036 129.635 12.9224 133.382 12.7006C137.13 12.4787 140.311 15.3077 140.533 19.0551L141.044 27.37L141.556 35.6849C141.778 39.4324 138.949 42.6136 135.201 42.8354Z" fill="white"/>
<path d="M141.554 35.6851C141.776 39.4326 138.947 42.6138 135.199 42.8357C131.452 43.0575 128.271 40.2286 128.049 36.4811L127.537 28.1662L141.042 27.3703L141.554 35.6851Z" fill="url(#paint75_linear_3835_74338)"/>
<path d="M127.537 28.1682L127.025 19.8533C126.804 16.1058 129.632 12.9246 133.38 12.7028C137.127 12.481 140.309 15.3099 140.53 19.0574L141.042 27.3722L127.537 28.1682Z" fill="url(#paint76_linear_3835_74338)"/>
<path d="M126.301 165.812C126.144 166.158 125.987 166.472 125.767 166.786C123.755 169.961 119.668 171.25 116.148 169.647C112.627 168.075 110.898 164.146 111.935 160.562C112.03 160.216 112.155 159.871 112.312 159.525C112.47 159.179 112.627 158.865 112.847 158.55C114.859 155.375 118.945 154.086 122.466 155.69C125.987 157.261 127.716 161.191 126.679 164.775C126.584 165.152 126.458 165.466 126.301 165.812Z" fill="url(#paint77_linear_3835_74338)"/>
<path opacity="0.5" d="M126.297 165.809L112.34 159.521C112.497 159.176 112.654 158.861 112.874 158.547L126.706 164.771C126.58 165.148 126.454 165.463 126.297 165.809Z" fill="#A6D6E6"/>
<path opacity="0.4" d="M126.296 165.811C126.139 166.156 125.981 166.471 125.761 166.785L111.93 160.561C112.024 160.215 112.15 159.869 112.307 159.523L126.296 165.811Z" fill="url(#paint78_linear_3835_74338)"/>
<path d="M107.712 170.489C107.586 170.771 107.429 171.054 107.272 171.337C105.512 174.104 101.991 175.204 98.9102 173.821C95.861 172.438 94.3521 169.043 95.2637 165.899C95.358 165.585 95.4523 165.302 95.5781 165.019C95.7038 164.736 95.861 164.453 96.0182 164.17C97.7785 161.404 101.299 160.303 104.38 161.687C107.429 163.07 108.938 166.465 108.027 169.608C107.964 169.891 107.838 170.206 107.712 170.489Z" fill="url(#paint79_linear_3835_74338)"/>
<path opacity="0.5" d="M107.716 170.487L95.582 165.017C95.7078 164.734 95.8649 164.451 96.0221 164.168L108.031 169.575C107.968 169.889 107.842 170.204 107.716 170.487Z" fill="#A6D6E6"/>
<path opacity="0.4" d="M107.71 170.489C107.584 170.772 107.427 171.055 107.27 171.338L95.2617 165.931C95.356 165.617 95.4503 165.334 95.5761 165.051L107.71 170.489Z" fill="url(#paint80_linear_3835_74338)"/>
<defs>
<linearGradient id="paint0_linear_3835_74338" x1="76.039" y1="-7.13196" x2="122.767" y2="-7.13196" gradientUnits="userSpaceOnUse">
<stop offset="0.373" stop-color="#2185FF"/>
<stop offset="0.6993" stop-color="#1278FF"/>
<stop offset="1" stop-color="#0068FF"/>
</linearGradient>
<linearGradient id="paint1_linear_3835_74338" x1="114.11" y1="59.8837" x2="160.838" y2="59.8837" gradientUnits="userSpaceOnUse">
<stop offset="0.373" stop-color="#2185FF"/>
<stop offset="0.6993" stop-color="#1278FF"/>
<stop offset="1" stop-color="#0068FF"/>
</linearGradient>
<linearGradient id="paint2_linear_3835_74338" x1="-0.0878596" y1="37.406" x2="46.6402" y2="37.406" gradientUnits="userSpaceOnUse">
<stop offset="0.373" stop-color="#2185FF"/>
<stop offset="0.6993" stop-color="#1278FF"/>
<stop offset="1" stop-color="#0068FF"/>
</linearGradient>
<linearGradient id="paint3_linear_3835_74338" x1="35.4909" y1="190.174" x2="82.219" y2="190.174" gradientUnits="userSpaceOnUse">
<stop offset="0.373" stop-color="#2185FF"/>
<stop offset="0.6993" stop-color="#1278FF"/>
<stop offset="1" stop-color="#0068FF"/>
</linearGradient>
<linearGradient id="paint4_linear_3835_74338" x1="76.039" y1="81.9399" x2="122.767" y2="81.9399" gradientUnits="userSpaceOnUse">
<stop offset="0.373" stop-color="#2185FF"/>
<stop offset="0.6993" stop-color="#1278FF"/>
<stop offset="1" stop-color="#0068FF"/>
</linearGradient>
<linearGradient id="paint5_linear_3835_74338" x1="114.11" y1="15.1351" x2="160.838" y2="15.1351" gradientUnits="userSpaceOnUse">
<stop offset="0.373" stop-color="#2185FF"/>
<stop offset="0.6993" stop-color="#1278FF"/>
<stop offset="1" stop-color="#0068FF"/>
</linearGradient>
<linearGradient id="paint6_linear_3835_74338" x1="152.004" y1="81.9399" x2="198.732" y2="81.9399" gradientUnits="userSpaceOnUse">
<stop offset="0.373" stop-color="#2185FF"/>
<stop offset="0.6993" stop-color="#1278FF"/>
<stop offset="1" stop-color="#0068FF"/>
</linearGradient>
<linearGradient id="paint7_linear_3835_74338" x1="152.004" y1="37.406" x2="198.732" y2="37.406" gradientUnits="userSpaceOnUse">
<stop offset="0.373" stop-color="#2185FF"/>
<stop offset="0.6993" stop-color="#1278FF"/>
<stop offset="1" stop-color="#0068FF"/>
</linearGradient>
<linearGradient id="paint8_linear_3835_74338" x1="114.11" y1="148.748" x2="160.838" y2="148.748" gradientUnits="userSpaceOnUse">
<stop offset="0.373" stop-color="#2185FF"/>
<stop offset="0.6993" stop-color="#1278FF"/>
<stop offset="1" stop-color="#0068FF"/>
</linearGradient>
<linearGradient id="paint9_linear_3835_74338" x1="114.11" y1="104.21" x2="160.838" y2="104.21" gradientUnits="userSpaceOnUse">
<stop offset="0.373" stop-color="#2185FF"/>
<stop offset="0.6993" stop-color="#1278FF"/>
<stop offset="1" stop-color="#0068FF"/>
</linearGradient>
<linearGradient id="paint10_linear_3835_74338" x1="152.004" y1="171.015" x2="198.732" y2="171.015" gradientUnits="userSpaceOnUse">
<stop offset="0.373" stop-color="#2185FF"/>
<stop offset="0.6993" stop-color="#1278FF"/>
<stop offset="1" stop-color="#0068FF"/>
</linearGradient>
<linearGradient id="paint11_linear_3835_74338" x1="190.241" y1="148.748" x2="236.969" y2="148.748" gradientUnits="userSpaceOnUse">
<stop offset="0.373" stop-color="#2185FF"/>
<stop offset="0.6993" stop-color="#1278FF"/>
<stop offset="1" stop-color="#0068FF"/>
</linearGradient>
<linearGradient id="paint12_linear_3835_74338" x1="190.241" y1="104.21" x2="236.969" y2="104.21" gradientUnits="userSpaceOnUse">
<stop offset="0.373" stop-color="#2185FF"/>
<stop offset="0.6993" stop-color="#1278FF"/>
<stop offset="1" stop-color="#0068FF"/>
</linearGradient>
<linearGradient id="paint13_linear_3835_74338" x1="228.131" y1="171.015" x2="274.859" y2="171.015" gradientUnits="userSpaceOnUse">
<stop offset="0.373" stop-color="#2185FF"/>
<stop offset="0.6993" stop-color="#1278FF"/>
<stop offset="1" stop-color="#0068FF"/>
</linearGradient>
<linearGradient id="paint14_linear_3835_74338" x1="341.975" y1="189.23" x2="388.703" y2="189.23" gradientUnits="userSpaceOnUse">
<stop offset="0.373" stop-color="#2185FF"/>
<stop offset="0.6993" stop-color="#1278FF"/>
<stop offset="1" stop-color="#0068FF"/>
</linearGradient>
<linearGradient id="paint15_linear_3835_74338" x1="228.131" y1="126.481" x2="274.859" y2="126.481" gradientUnits="userSpaceOnUse">
<stop offset="0.373" stop-color="#2185FF"/>
<stop offset="0.6993" stop-color="#1278FF"/>
<stop offset="1" stop-color="#0068FF"/>
</linearGradient>
<linearGradient id="paint16_linear_3835_74338" x1="309.975" y1="33.2195" x2="356.703" y2="33.2195" gradientUnits="userSpaceOnUse">
<stop offset="0.373" stop-color="#2185FF"/>
<stop offset="0.6993" stop-color="#1278FF"/>
<stop offset="1" stop-color="#0068FF"/>
</linearGradient>
<linearGradient id="paint17_linear_3835_74338" x1="271.975" y1="56.2195" x2="318.703" y2="56.2195" gradientUnits="userSpaceOnUse">
<stop offset="0.373" stop-color="#2185FF"/>
<stop offset="0.6993" stop-color="#1278FF"/>
<stop offset="1" stop-color="#0068FF"/>
</linearGradient>
<linearGradient id="paint18_linear_3835_74338" x1="152.004" y1="215.549" x2="198.732" y2="215.549" gradientUnits="userSpaceOnUse">
<stop offset="0.373" stop-color="#2185FF"/>
<stop offset="0.6993" stop-color="#1278FF"/>
<stop offset="1" stop-color="#0068FF"/>
</linearGradient>
<linearGradient id="paint19_linear_3835_74338" x1="190.241" y1="237.816" x2="236.969" y2="237.816" gradientUnits="userSpaceOnUse">
<stop offset="0.373" stop-color="#2185FF"/>
<stop offset="0.6993" stop-color="#1278FF"/>
<stop offset="1" stop-color="#0068FF"/>
</linearGradient>
<linearGradient id="paint20_linear_3835_74338" x1="190.241" y1="193.282" x2="236.969" y2="193.282" gradientUnits="userSpaceOnUse">
<stop offset="0.373" stop-color="#2185FF"/>
<stop offset="0.6993" stop-color="#1278FF"/>
<stop offset="1" stop-color="#0068FF"/>
</linearGradient>
<linearGradient id="paint21_linear_3835_74338" x1="266.259" y1="237.816" x2="312.987" y2="237.816" gradientUnits="userSpaceOnUse">
<stop offset="0.373" stop-color="#2185FF"/>
<stop offset="0.6993" stop-color="#1278FF"/>
<stop offset="1" stop-color="#0068FF"/>
</linearGradient>
<linearGradient id="paint22_linear_3835_74338" x1="32.2289" y1="77.6779" x2="34.4801" y2="79.601" gradientUnits="userSpaceOnUse">
<stop stop-color="#FCFCFC"/>
<stop offset="0.0319516" stop-color="#F5F5F5"/>
<stop offset="0.070103" stop-color="#CACACA"/>
<stop offset="0.1071" stop-color="#A7A7A7"/>
<stop offset="0.1269" stop-color="#9A9A9A"/>
<stop offset="0.1727" stop-color="#AAAAAA"/>
<stop offset="0.2619" stop-color="#D4D4D4"/>
<stop offset="0.3238" stop-color="#F5F5F5"/>
<stop offset="0.4404" stop-color="#FCFCFC"/>
<stop offset="0.6883" stop-color="#F5F5F5"/>
<stop offset="0.724" stop-color="#D9D9D9"/>
<stop offset="0.7761" stop-color="#B7B7B7"/>
<stop offset="0.819" stop-color="#A2A2A2"/>
<stop offset="0.8471" stop-color="#9A9A9A"/>
<stop offset="0.872" stop-color="#9E9E9E"/>
<stop offset="0.8952" stop-color="#A9A9A9"/>
<stop offset="0.9176" stop-color="#BCBCBC"/>
<stop offset="0.9395" stop-color="#D6D6D6"/>
<stop offset="0.9594" stop-color="#F5F5F5"/>
<stop offset="1" stop-color="#FCFCFC"/>
</linearGradient>
<linearGradient id="paint23_linear_3835_74338" x1="69.0136" y1="25.8333" x2="79.6916" y2="34.9552" gradientUnits="userSpaceOnUse">
<stop stop-color="#B7E1ED"/>
<stop offset="0.2889" stop-color="#DDFAFD"/>
<stop offset="0.5431" stop-color="#C1E8F1"/>
<stop offset="0.7613" stop-color="#A6D6E6"/>
</linearGradient>
<linearGradient id="paint24_linear_3835_74338" x1="75.3348" y1="31.2286" x2="77.1875" y2="32.8113" gradientUnits="userSpaceOnUse">
<stop offset="0.299" stop-color="#A6D6E6"/>
<stop offset="0.6228" stop-color="#C1E8F1" stop-opacity="0.5381"/>
<stop offset="1" stop-color="#DDFAFD" stop-opacity="0"/>
</linearGradient>
<linearGradient id="paint25_linear_3835_74338" x1="73.042" y1="29.2756" x2="75.6716" y2="31.522" gradientUnits="userSpaceOnUse">
<stop stop-color="#B7E1ED"/>
<stop offset="0.2889" stop-color="#DDFAFD"/>
<stop offset="0.5431" stop-color="#C1E8F1"/>
<stop offset="0.7613" stop-color="#A6D6E6"/>
</linearGradient>
<linearGradient id="paint26_linear_3835_74338" x1="41.2739" y1="59.5226" x2="50.6769" y2="67.5553" gradientUnits="userSpaceOnUse">
<stop stop-color="#99CAD8"/>
<stop offset="0.2889" stop-color="#BCE4E8"/>
<stop offset="0.5661" stop-color="#A0CFDB"/>
<stop offset="0.7613" stop-color="#8ABFD1"/>
</linearGradient>
<linearGradient id="paint27_linear_3835_74338" x1="43.3107" y1="50.6857" x2="59.0887" y2="64.1644" gradientUnits="userSpaceOnUse">
<stop stop-color="#99CAD8"/>
<stop offset="0.2889" stop-color="#BCE4E8"/>
<stop offset="0.5661" stop-color="#A0CFDB"/>
<stop offset="0.7613" stop-color="#8ABFD1"/>
</linearGradient>
<linearGradient id="paint28_linear_3835_74338" x1="47.6452" y1="41.4941" x2="67.4878" y2="58.445" gradientUnits="userSpaceOnUse">
<stop stop-color="#B7E1ED"/>
<stop offset="0.2889" stop-color="#DDFAFD"/>
<stop offset="0.5431" stop-color="#C1E8F1"/>
<stop offset="0.7613" stop-color="#A6D6E6"/>
</linearGradient>
<linearGradient id="paint29_linear_3835_74338" x1="78.299" y1="25.7143" x2="75.3008" y2="29.3557" gradientUnits="userSpaceOnUse">
<stop stop-color="#A6D6E6"/>
<stop offset="0.4619" stop-color="#C1E8F1" stop-opacity="0.5381"/>
<stop offset="1" stop-color="#DDFAFD" stop-opacity="0"/>
</linearGradient>
<linearGradient id="paint30_linear_3835_74338" x1="68.8599" y1="16.3023" x2="88.8812" y2="33.4058" gradientUnits="userSpaceOnUse">
<stop stop-color="#B7E1ED"/>
<stop offset="0.2889" stop-color="#DDFAFD"/>
<stop offset="0.5431" stop-color="#C1E8F1"/>
<stop offset="0.7613" stop-color="#A6D6E6"/>
</linearGradient>
<linearGradient id="paint31_linear_3835_74338" x1="73.6752" y1="144.764" x2="68.4254" y2="126.139" gradientUnits="userSpaceOnUse">
<stop stop-color="#A6D6E6"/>
<stop offset="1" stop-color="#DDFAFD"/>
</linearGradient>
<linearGradient id="paint32_linear_3835_74338" x1="71.42" y1="136.786" x2="71.0458" y2="135.459" gradientUnits="userSpaceOnUse">
<stop stop-color="#A6D6E6"/>
<stop offset="0.3284" stop-color="#C1E8F1"/>
<stop offset="0.7111" stop-color="#DDFAFD"/>
<stop offset="1" stop-color="#B7E1ED"/>
</linearGradient>
<linearGradient id="paint33_linear_3835_74338" x1="12.2762" y1="150.912" x2="18.2536" y2="137.65" gradientUnits="userSpaceOnUse">
<stop stop-color="#A6D6E6"/>
<stop offset="1" stop-color="#DDFAFD"/>
</linearGradient>
<linearGradient id="paint34_linear_3835_74338" x1="14.8383" y1="145.227" x2="15.2641" y2="144.282" gradientUnits="userSpaceOnUse">
<stop stop-color="#A6D6E6"/>
<stop offset="0.3284" stop-color="#C1E8F1"/>
<stop offset="0.7111" stop-color="#DDFAFD"/>
<stop offset="1" stop-color="#B7E1ED"/>
</linearGradient>
<linearGradient id="paint35_linear_3835_74338" x1="70.1865" y1="114.223" x2="101.039" y2="83.0418" gradientUnits="userSpaceOnUse">
<stop stop-color="#A6D6E6"/>
<stop offset="1" stop-color="#DDFAFD"/>
</linearGradient>
<linearGradient id="paint36_linear_3835_74338" x1="83.1316" y1="83.9693" x2="88.0508" y2="78.9979" gradientUnits="userSpaceOnUse">
<stop stop-color="#A6D6E6"/>
<stop offset="1" stop-color="#DDFAFD"/>
</linearGradient>
<linearGradient id="paint37_linear_3835_74338" x1="82.6815" y1="79.0819" x2="89.5472" y2="83.1706" gradientUnits="userSpaceOnUse">
<stop stop-color="#206F77"/>
<stop offset="0.3216" stop-color="#52ACB3"/>
<stop offset="0.5153" stop-color="#3E949B"/>
<stop offset="0.9233" stop-color="#0A555D"/>
<stop offset="1" stop-color="#004951"/>
</linearGradient>
<linearGradient id="paint38_linear_3835_74338" x1="91.7163" y1="92.4648" x2="96.6355" y2="87.4933" gradientUnits="userSpaceOnUse">
<stop stop-color="#A6D6E6"/>
<stop offset="1" stop-color="#DDFAFD"/>
</linearGradient>
<linearGradient id="paint39_linear_3835_74338" x1="91.2046" y1="87.6016" x2="98.0848" y2="91.7175" gradientUnits="userSpaceOnUse">
<stop stop-color="#206F77"/>
<stop offset="0.3216" stop-color="#52ACB3"/>
<stop offset="0.5153" stop-color="#3E949B"/>
<stop offset="0.9233" stop-color="#0A555D"/>
<stop offset="1" stop-color="#004951"/>
</linearGradient>
<linearGradient id="paint40_linear_3835_74338" x1="100.286" y1="100.96" x2="105.205" y2="95.9891" gradientUnits="userSpaceOnUse">
<stop stop-color="#A6D6E6"/>
<stop offset="1" stop-color="#DDFAFD"/>
</linearGradient>
<linearGradient id="paint41_linear_3835_74338" x1="99.792" y1="96.1217" x2="106.672" y2="100.238" gradientUnits="userSpaceOnUse">
<stop stop-color="#206F77"/>
<stop offset="0.3216" stop-color="#52ACB3"/>
<stop offset="0.5153" stop-color="#3E949B"/>
<stop offset="0.9233" stop-color="#0A555D"/>
<stop offset="1" stop-color="#004951"/>
</linearGradient>
<linearGradient id="paint42_linear_3835_74338" x1="74.5754" y1="92.6229" x2="79.4946" y2="87.6514" gradientUnits="userSpaceOnUse">
<stop stop-color="#A6D6E6"/>
<stop offset="1" stop-color="#DDFAFD"/>
</linearGradient>
<linearGradient id="paint43_linear_3835_74338" x1="74.0853" y1="87.7681" x2="80.951" y2="91.8569" gradientUnits="userSpaceOnUse">
<stop stop-color="#206F77"/>
<stop offset="0.3216" stop-color="#52ACB3"/>
<stop offset="0.5153" stop-color="#3E949B"/>
<stop offset="0.9233" stop-color="#0A555D"/>
<stop offset="1" stop-color="#004951"/>
</linearGradient>
<linearGradient id="paint44_linear_3835_74338" x1="83.1451" y1="101.118" x2="88.0643" y2="96.1468" gradientUnits="userSpaceOnUse">
<stop stop-color="#A6D6E6"/>
<stop offset="1" stop-color="#DDFAFD"/>
</linearGradient>
<linearGradient id="paint45_linear_3835_74338" x1="82.6727" y1="96.2879" x2="89.5384" y2="100.377" gradientUnits="userSpaceOnUse">
<stop stop-color="#206F77"/>
<stop offset="0.3216" stop-color="#52ACB3"/>
<stop offset="0.5153" stop-color="#3E949B"/>
<stop offset="0.9233" stop-color="#0A555D"/>
<stop offset="1" stop-color="#004951"/>
</linearGradient>
<linearGradient id="paint46_linear_3835_74338" x1="91.7371" y1="109.611" x2="96.6561" y2="104.639" gradientUnits="userSpaceOnUse">
<stop stop-color="#A6D6E6"/>
<stop offset="1" stop-color="#DDFAFD"/>
</linearGradient>
<linearGradient id="paint47_linear_3835_74338" x1="91.2823" y1="104.722" x2="98.148" y2="108.811" gradientUnits="userSpaceOnUse">
<stop stop-color="#206F77"/>
<stop offset="0.3216" stop-color="#52ACB3"/>
<stop offset="0.5153" stop-color="#3E949B"/>
<stop offset="0.9233" stop-color="#0A555D"/>
<stop offset="1" stop-color="#004951"/>
</linearGradient>
<linearGradient id="paint48_linear_3835_74338" x1="66.0147" y1="101.285" x2="70.9338" y2="96.314" gradientUnits="userSpaceOnUse">
<stop stop-color="#A6D6E6"/>
<stop offset="1" stop-color="#DDFAFD"/>
</linearGradient>
<linearGradient id="paint49_linear_3835_74338" x1="65.4906" y1="96.4635" x2="72.3837" y2="100.603" gradientUnits="userSpaceOnUse">
<stop stop-color="#206F77"/>
<stop offset="0.3216" stop-color="#52ACB3"/>
<stop offset="0.5153" stop-color="#3E949B"/>
<stop offset="0.9233" stop-color="#0A555D"/>
<stop offset="1" stop-color="#004951"/>
</linearGradient>
<linearGradient id="paint50_linear_3835_74338" x1="74.5977" y1="109.774" x2="79.5169" y2="104.802" gradientUnits="userSpaceOnUse">
<stop stop-color="#A6D6E6"/>
<stop offset="1" stop-color="#DDFAFD"/>
</linearGradient>
<linearGradient id="paint51_linear_3835_74338" x1="74.0886" y1="104.893" x2="80.9689" y2="109.009" gradientUnits="userSpaceOnUse">
<stop stop-color="#206F77"/>
<stop offset="0.3216" stop-color="#52ACB3"/>
<stop offset="0.5153" stop-color="#3E949B"/>
<stop offset="0.9233" stop-color="#0A555D"/>
<stop offset="1" stop-color="#004951"/>
</linearGradient>
<linearGradient id="paint52_linear_3835_74338" x1="83.1762" y1="118.273" x2="88.0952" y2="113.302" gradientUnits="userSpaceOnUse">
<stop stop-color="#A6D6E6"/>
<stop offset="1" stop-color="#DDFAFD"/>
</linearGradient>
<linearGradient id="paint53_linear_3835_74338" x1="82.6815" y1="113.417" x2="89.5472" y2="117.506" gradientUnits="userSpaceOnUse">
<stop stop-color="#206F77"/>
<stop offset="0.3216" stop-color="#52ACB3"/>
<stop offset="0.5153" stop-color="#3E949B"/>
<stop offset="0.9233" stop-color="#0A555D"/>
<stop offset="1" stop-color="#004951"/>
</linearGradient>
<linearGradient id="paint54_linear_3835_74338" x1="38.9589" y1="192.371" x2="56.2677" y2="174.878" gradientUnits="userSpaceOnUse">
<stop stop-color="#A6D6E6"/>
<stop offset="1" stop-color="#DDFAFD"/>
</linearGradient>
<linearGradient id="paint55_linear_3835_74338" x1="46.2212" y1="175.398" x2="48.9809" y2="172.609" gradientUnits="userSpaceOnUse">
<stop stop-color="#A6D6E6"/>
<stop offset="1" stop-color="#DDFAFD"/>
</linearGradient>
<linearGradient id="paint56_linear_3835_74338" x1="45.9687" y1="172.656" x2="49.8204" y2="174.95" gradientUnits="userSpaceOnUse">
<stop stop-color="#206F77"/>
<stop offset="0.3216" stop-color="#52ACB3"/>
<stop offset="0.5153" stop-color="#3E949B"/>
<stop offset="0.9233" stop-color="#0A555D"/>
<stop offset="1" stop-color="#004951"/>
</linearGradient>
<linearGradient id="paint57_linear_3835_74338" x1="51.0374" y1="180.164" x2="53.7972" y2="177.375" gradientUnits="userSpaceOnUse">
<stop stop-color="#A6D6E6"/>
<stop offset="1" stop-color="#DDFAFD"/>
</linearGradient>
<linearGradient id="paint58_linear_3835_74338" x1="50.7503" y1="177.436" x2="54.6103" y2="179.745" gradientUnits="userSpaceOnUse">
<stop stop-color="#206F77"/>
<stop offset="0.3216" stop-color="#52ACB3"/>
<stop offset="0.5153" stop-color="#3E949B"/>
<stop offset="0.9233" stop-color="#0A555D"/>
<stop offset="1" stop-color="#004951"/>
</linearGradient>
<linearGradient id="paint59_linear_3835_74338" x1="55.8452" y1="184.93" x2="58.6049" y2="182.141" gradientUnits="userSpaceOnUse">
<stop stop-color="#A6D6E6"/>
<stop offset="1" stop-color="#DDFAFD"/>
</linearGradient>
<linearGradient id="paint60_linear_3835_74338" x1="55.5679" y1="182.216" x2="59.4279" y2="184.525" gradientUnits="userSpaceOnUse">
<stop stop-color="#206F77"/>
<stop offset="0.3216" stop-color="#52ACB3"/>
<stop offset="0.5153" stop-color="#3E949B"/>
<stop offset="0.9233" stop-color="#0A555D"/>
<stop offset="1" stop-color="#004951"/>
</linearGradient>
<linearGradient id="paint61_linear_3835_74338" x1="41.4212" y1="180.253" x2="44.1809" y2="177.464" gradientUnits="userSpaceOnUse">
<stop stop-color="#A6D6E6"/>
<stop offset="1" stop-color="#DDFAFD"/>
</linearGradient>
<linearGradient id="paint62_linear_3835_74338" x1="41.1462" y1="177.529" x2="44.9979" y2="179.823" gradientUnits="userSpaceOnUse">
<stop stop-color="#206F77"/>
<stop offset="0.3216" stop-color="#52ACB3"/>
<stop offset="0.5153" stop-color="#3E949B"/>
<stop offset="0.9233" stop-color="#0A555D"/>
<stop offset="1" stop-color="#004951"/>
</linearGradient>
<linearGradient id="paint63_linear_3835_74338" x1="46.2288" y1="185.019" x2="48.9886" y2="182.23" gradientUnits="userSpaceOnUse">
<stop stop-color="#A6D6E6"/>
<stop offset="1" stop-color="#DDFAFD"/>
</linearGradient>
<linearGradient id="paint64_linear_3835_74338" x1="45.9638" y1="182.309" x2="49.8156" y2="184.603" gradientUnits="userSpaceOnUse">
<stop stop-color="#206F77"/>
<stop offset="0.3216" stop-color="#52ACB3"/>
<stop offset="0.5153" stop-color="#3E949B"/>
<stop offset="0.9233" stop-color="#0A555D"/>
<stop offset="1" stop-color="#004951"/>
</linearGradient>
<linearGradient id="paint65_linear_3835_74338" x1="51.0492" y1="189.783" x2="53.8089" y2="186.994" gradientUnits="userSpaceOnUse">
<stop stop-color="#A6D6E6"/>
<stop offset="1" stop-color="#DDFAFD"/>
</linearGradient>
<linearGradient id="paint66_linear_3835_74338" x1="50.7941" y1="187.041" x2="54.6459" y2="189.334" gradientUnits="userSpaceOnUse">
<stop stop-color="#206F77"/>
<stop offset="0.3216" stop-color="#52ACB3"/>
<stop offset="0.5153" stop-color="#3E949B"/>
<stop offset="0.9233" stop-color="#0A555D"/>
<stop offset="1" stop-color="#004951"/>
</linearGradient>
<linearGradient id="paint67_linear_3835_74338" x1="36.6184" y1="185.113" x2="39.3782" y2="182.324" gradientUnits="userSpaceOnUse">
<stop stop-color="#A6D6E6"/>
<stop offset="1" stop-color="#DDFAFD"/>
</linearGradient>
<linearGradient id="paint68_linear_3835_74338" x1="36.3245" y1="182.408" x2="40.1915" y2="184.73" gradientUnits="userSpaceOnUse">
<stop stop-color="#206F77"/>
<stop offset="0.3216" stop-color="#52ACB3"/>
<stop offset="0.5153" stop-color="#3E949B"/>
<stop offset="0.9233" stop-color="#0A555D"/>
<stop offset="1" stop-color="#004951"/>
</linearGradient>
<linearGradient id="paint69_linear_3835_74338" x1="41.4337" y1="189.875" x2="44.1934" y2="187.086" gradientUnits="userSpaceOnUse">
<stop stop-color="#A6D6E6"/>
<stop offset="1" stop-color="#DDFAFD"/>
</linearGradient>
<linearGradient id="paint70_linear_3835_74338" x1="41.148" y1="187.137" x2="45.008" y2="189.446" gradientUnits="userSpaceOnUse">
<stop stop-color="#206F77"/>
<stop offset="0.3216" stop-color="#52ACB3"/>
<stop offset="0.5153" stop-color="#3E949B"/>
<stop offset="0.9233" stop-color="#0A555D"/>
<stop offset="1" stop-color="#004951"/>
</linearGradient>
<linearGradient id="paint71_linear_3835_74338" x1="46.2465" y1="194.643" x2="49.0061" y2="191.854" gradientUnits="userSpaceOnUse">
<stop stop-color="#A6D6E6"/>
<stop offset="1" stop-color="#DDFAFD"/>
</linearGradient>
<linearGradient id="paint72_linear_3835_74338" x1="45.9689" y1="191.919" x2="49.8207" y2="194.213" gradientUnits="userSpaceOnUse">
<stop stop-color="#206F77"/>
<stop offset="0.3216" stop-color="#52ACB3"/>
<stop offset="0.5153" stop-color="#3E949B"/>
<stop offset="0.9233" stop-color="#0A555D"/>
<stop offset="1" stop-color="#004951"/>
</linearGradient>
<linearGradient id="paint73_linear_3835_74338" x1="95.3055" y1="199.233" x2="105.195" y2="205.607" gradientUnits="userSpaceOnUse">
<stop stop-color="#C5D3E3"/>
<stop offset="0.1172" stop-color="#D8E1EC"/>
<stop offset="0.3299" stop-color="#F4F7FA"/>
<stop offset="0.4523" stop-color="white"/>
<stop offset="0.8514" stop-color="#BBCCDF"/>
<stop offset="1" stop-color="#A1B8D2"/>
</linearGradient>
<linearGradient id="paint74_linear_3835_74338" x1="100.342" y1="189.277" x2="112.705" y2="196.379" gradientUnits="userSpaceOnUse">
<stop stop-color="#206F77"/>
<stop offset="0.3216" stop-color="#52ACB3"/>
<stop offset="0.5153" stop-color="#3E949B"/>
<stop offset="0.9233" stop-color="#0A555D"/>
<stop offset="1" stop-color="#004951"/>
</linearGradient>
<linearGradient id="paint75_linear_3835_74338" x1="126.633" y1="35.4508" x2="141.935" y2="35.0011" gradientUnits="userSpaceOnUse">
<stop stop-color="#C5D3E3"/>
<stop offset="0.1172" stop-color="#D8E1EC"/>
<stop offset="0.3299" stop-color="#F4F7FA"/>
<stop offset="0.4523" stop-color="white"/>
<stop offset="0.8514" stop-color="#BBCCDF"/>
<stop offset="1" stop-color="#A1B8D2"/>
</linearGradient>
<linearGradient id="paint76_linear_3835_74338" x1="124.699" y1="21.0692" x2="143.19" y2="19.5783" gradientUnits="userSpaceOnUse">
<stop stop-color="#206F77"/>
<stop offset="0.3216" stop-color="#52ACB3"/>
<stop offset="0.5153" stop-color="#3E949B"/>
<stop offset="0.9233" stop-color="#0A555D"/>
<stop offset="1" stop-color="#004951"/>
</linearGradient>
<linearGradient id="paint77_linear_3835_74338" x1="116.179" y1="169.655" x2="122.47" y2="155.695" gradientUnits="userSpaceOnUse">
<stop stop-color="#A6D6E6"/>
<stop offset="1" stop-color="#DDFAFD"/>
</linearGradient>
<linearGradient id="paint78_linear_3835_74338" x1="118.865" y1="163.665" x2="119.313" y2="162.67" gradientUnits="userSpaceOnUse">
<stop stop-color="#A6D6E6"/>
<stop offset="0.3284" stop-color="#C1E8F1"/>
<stop offset="0.7111" stop-color="#DDFAFD"/>
<stop offset="1" stop-color="#B7E1ED"/>
</linearGradient>
<linearGradient id="paint79_linear_3835_74338" x1="98.9196" y1="173.831" x2="104.391" y2="161.692" gradientUnits="userSpaceOnUse">
<stop stop-color="#A6D6E6"/>
<stop offset="1" stop-color="#DDFAFD"/>
</linearGradient>
<linearGradient id="paint80_linear_3835_74338" x1="101.258" y1="168.623" x2="101.648" y2="167.758" gradientUnits="userSpaceOnUse">
<stop stop-color="#A6D6E6"/>
<stop offset="0.3284" stop-color="#C1E8F1"/>
<stop offset="0.7111" stop-color="#DDFAFD"/>
<stop offset="1" stop-color="#B7E1ED"/>
</linearGradient>
<clipPath id="clip0_3835_74338">
<rect width="389" height="230" fill="white" transform="matrix(1 0 0 -1 0 230)"/>
</clipPath>
</defs>
</svg>
