<svg width="389" height="230" viewBox="0 0 389 230" fill="none" xmlns="http://www.w3.org/2000/svg">
<g opacity="0.5" clip-path="url(#clip0_3835_74587)">
<g opacity="0.47">
<path d="M111.147 257.321H87.7195L76.0703 237.129L87.7195 216.938H111.147L122.796 237.129L111.147 257.321Z" fill="url(#paint0_linear_3835_74587)"/>
<path d="M111.147 257.321H87.7195L76.0703 237.129L87.7195 216.938H111.147L122.796 237.129L111.147 257.321Z" fill="white"/>
<path d="M149.198 190.404H125.77L114.121 170.082L125.77 149.891H149.198L160.847 170.082L149.198 190.404Z" fill="url(#paint1_linear_3835_74587)"/>
<path d="M149.198 190.404H125.77L114.121 170.082L125.77 149.891H149.198L160.847 170.082L149.198 190.404Z" fill="white"/>
<path d="M34.9084 212.794H11.6101L-0.0390625 192.602L11.6101 172.41H34.9084L46.687 192.602L34.9084 212.794Z" fill="url(#paint2_linear_3835_74587)"/>
<path d="M34.9084 212.794H11.6101L-0.0390625 192.602L11.6101 172.41H34.9084L46.687 192.602L34.9084 212.794Z" fill="white"/>
<path d="M72.9475 57.5132H49.6492L38 37.3213L49.6492 17H72.9475L84.7261 37.3213L72.9475 57.5132Z" fill="url(#paint3_linear_3835_74587)"/>
<path d="M72.9475 57.5132H49.6492L38 37.3213L49.6492 17H72.9475L84.7261 37.3213L72.9475 57.5132Z" fill="white"/>
<path d="M111.147 168.27H87.7195L76.0703 148.079L87.7195 127.887H111.147L122.796 148.079L111.147 168.27Z" fill="url(#paint4_linear_3835_74587)"/>
<path d="M111.147 168.27H87.7195L76.0703 148.079L87.7195 127.887H111.147L122.796 148.079L111.147 168.27Z" fill="white"/>
<path d="M149.198 235.06H125.77L114.121 214.868L125.77 194.676H149.198L160.847 214.868L149.198 235.06Z" fill="url(#paint5_linear_3835_74587)"/>
<path d="M149.198 235.06H125.77L114.121 214.868L125.77 194.676H149.198L160.847 214.868L149.198 235.06Z" fill="white"/>
<path d="M186.994 168.27H163.696L152.047 148.079L163.696 127.887H186.994L198.773 148.079L186.994 168.27Z" fill="url(#paint6_linear_3835_74587)"/>
<path d="M186.994 168.27H163.696L152.047 148.079L163.696 127.887H186.994L198.773 148.079L186.994 168.27Z" fill="white"/>
<path d="M186.994 212.794H163.696L152.047 192.602L163.696 172.41H186.994L198.773 192.602L186.994 212.794Z" fill="url(#paint7_linear_3835_74587)"/>
<path d="M186.994 212.794H163.696L152.047 192.602L163.696 172.41H186.994L198.773 192.602L186.994 212.794Z" fill="white"/>
<g opacity="0.49">
<path d="M149.198 101.478H125.77L114.121 81.2862L125.77 60.9648H149.198L160.847 81.2862L149.198 101.478Z" fill="url(#paint8_linear_3835_74587)"/>
<path d="M149.198 101.478H125.77L114.121 81.2862L125.77 60.9648H149.198L160.847 81.2862L149.198 101.478Z" fill="white"/>
</g>
<g opacity="0.49">
<path d="M111.077 78.5132H87.6492L76 58.3213L87.6492 38H111.077L122.726 58.3213L111.077 78.5132Z" fill="url(#paint9_linear_3835_74587)"/>
<path d="M111.077 78.5132H87.6492L76 58.3213L87.6492 38H111.077L122.726 58.3213L111.077 78.5132Z" fill="white"/>
</g>
<path d="M149.198 146.005H125.77L114.121 125.813L125.77 105.492H149.198L160.847 125.813L149.198 146.005Z" fill="url(#paint10_linear_3835_74587)"/>
<path d="M149.198 146.005H125.77L114.121 125.813L125.77 105.492H149.198L160.847 125.813L149.198 146.005Z" fill="white"/>
<path d="M186.994 79.2163H163.696L152.047 59.0244L163.696 38.7031H186.994L198.773 59.0244L186.994 79.2163Z" fill="url(#paint11_linear_3835_74587)"/>
<path d="M186.994 79.2163H163.696L152.047 59.0244L163.696 38.7031H186.994L198.773 59.0244L186.994 79.2163Z" fill="white"/>
<path d="M301.284 56.9546H277.986L266.207 36.7627L277.986 16.4414H301.284L312.933 36.7627L301.284 56.9546Z" fill="white"/>
<path d="M225.311 101.478H201.884L190.234 81.2862L201.884 60.9648H225.311L236.96 81.2862L225.311 101.478Z" fill="url(#paint12_linear_3835_74587)"/>
<path d="M225.311 101.478H201.884L190.234 81.2862L201.884 60.9648H225.311L236.96 81.2862L225.311 101.478Z" fill="white"/>
<path d="M225.311 146.005H201.884L190.234 125.813L201.884 105.492H225.311L236.96 125.813L225.311 146.005Z" fill="url(#paint13_linear_3835_74587)"/>
<path d="M225.311 146.005H201.884L190.234 125.813L201.884 105.492H225.311L236.96 125.813L225.311 146.005Z" fill="white"/>
<path d="M301.284 56.9546H277.986L266.207 36.7627L277.986 16.4414H301.284L312.933 36.7627L301.284 56.9546Z" fill="white"/>
<g opacity="0.49">
<path d="M263.233 79.2163H239.805L228.156 59.0244L239.805 38.7031H263.233L274.882 59.0244L263.233 79.2163Z" fill="url(#paint14_linear_3835_74587)"/>
<path d="M263.233 79.2163H239.805L228.156 59.0244L239.805 38.7031H263.233L274.882 59.0244L263.233 79.2163Z" fill="white"/>
</g>
<path d="M263.233 123.74H239.805L228.156 103.548L239.805 83.2266H263.233L274.882 103.548L263.233 123.74Z" fill="url(#paint15_linear_3835_74587)"/>
<path d="M263.233 123.74H239.805L228.156 103.548L239.805 83.2266H263.233L274.882 103.548L263.233 123.74Z" fill="white"/>
<g opacity="0.49">
<path d="M186.994 34.6929H163.696L152.047 14.501L163.696 -5.82031L186.994 -5.82031L198.773 14.501L186.994 34.6929Z" fill="url(#paint16_linear_3835_74587)"/>
<path d="M186.994 34.6929H163.696L152.047 14.501L163.696 -5.82031L186.994 -5.82031L198.773 14.501L186.994 34.6929Z" fill="white"/>
</g>
<path d="M225.311 12.4312H201.884L190.234 -7.76071L201.884 -28.082H225.311L236.96 -7.76071L225.311 12.4312Z" fill="url(#paint17_linear_3835_74587)"/>
<path d="M225.311 12.4312H201.884L190.234 -7.76071L201.884 -28.082H225.311L236.96 -7.76071L225.311 12.4312Z" fill="white"/>
<path d="M225.311 56.9546H201.884L190.234 36.7627L201.884 16.4414H225.311L236.96 36.7627L225.311 56.9546Z" fill="url(#paint18_linear_3835_74587)"/>
<path d="M225.311 56.9546H201.884L190.234 36.7627L201.884 16.4414H225.311L236.96 36.7627L225.311 56.9546Z" fill="white"/>
<path d="M263.233 34.6929H239.805L228.156 14.501L239.805 -5.82031L263.233 -5.82031L274.882 14.501L263.233 34.6929Z" fill="white"/>
<path d="M301.284 12.4312H277.986L266.207 -7.76071L277.986 -28.082H301.284L312.933 -7.76071L301.284 12.4312Z" fill="url(#paint19_linear_3835_74587)"/>
<path d="M301.284 12.4312H277.986L266.207 -7.76071L277.986 -28.082H301.284L312.933 -7.76071L301.284 12.4312Z" fill="white"/>
<path d="M301.284 56.9546H277.986L266.207 36.7627L277.986 16.4414H301.284L312.933 36.7627L301.284 56.9546Z" fill="white"/>
</g>
</g>
<path d="M314.808 85.766L289.797 79.201C287.073 78.4713 285.453 75.6658 286.129 72.9737L291.919 50.8556C292.649 48.1323 295.454 46.5125 298.146 47.1883L323.158 53.7533C325.881 54.483 327.501 57.2885 326.825 59.9806L321.035 82.0987C320.306 84.822 317.5 86.4417 314.808 85.766Z" fill="url(#paint20_linear_3835_74587)"/>
<path d="M302.804 56.0033C302.47 57.4188 300.928 58.2371 299.343 57.8578C297.811 57.4473 296.885 55.9678 297.25 54.6062C297.583 53.1906 299.125 52.3723 300.711 52.7517C302.243 53.1621 303.169 54.6416 302.804 56.0033Z" fill="url(#paint21_linear_3835_74587)"/>
<path d="M302.804 56.0033C302.47 57.4188 300.928 58.2371 299.343 57.8578C297.811 57.4473 296.885 55.9678 297.25 54.6062C297.583 53.1906 299.125 52.3723 300.711 52.7517C302.243 53.1621 303.169 54.6416 302.804 56.0033Z" fill="url(#paint22_linear_3835_74587)"/>
<path d="M311.572 58.3528C311.239 59.7684 309.697 60.5867 308.111 60.2074C306.579 59.7969 305.653 58.3174 306.018 56.9558C306.352 55.5402 307.893 54.722 309.479 55.1013C310.98 55.4578 311.96 56.9061 311.572 58.3528Z" fill="url(#paint23_linear_3835_74587)"/>
<path d="M311.572 58.3528C311.239 59.7684 309.697 60.5867 308.111 60.2074C306.579 59.7969 305.653 58.3174 306.018 56.9558C306.352 55.5402 307.893 54.722 309.479 55.1013C310.98 55.4578 311.96 56.9061 311.572 58.3528Z" fill="url(#paint24_linear_3835_74587)"/>
<path d="M320.384 60.6768C320.051 62.0924 318.509 62.9106 316.923 62.5313C315.391 62.1209 314.465 60.6414 314.83 59.2797C315.164 57.8642 316.705 57.0459 318.291 57.4252C319.792 57.7817 320.772 59.2301 320.384 60.6768Z" fill="url(#paint25_linear_3835_74587)"/>
<path d="M320.384 60.6768C320.051 62.0924 318.509 62.9106 316.923 62.5313C315.391 62.1209 314.465 60.6414 314.83 59.2797C315.164 57.8642 316.705 57.0459 318.291 57.4252C319.792 57.7817 320.772 59.2301 320.384 60.6768Z" fill="url(#paint26_linear_3835_74587)"/>
<path d="M300.467 64.9088C300.134 66.3243 298.592 67.1426 297.006 66.7633C295.474 66.3528 294.548 64.8733 294.913 63.5117C295.247 62.0961 296.788 61.2779 298.374 61.6572C299.875 62.0137 300.801 63.4932 300.467 64.9088Z" fill="url(#paint27_linear_3835_74587)"/>
<path d="M300.467 64.9088C300.134 66.3243 298.592 67.1426 297.006 66.7633C295.474 66.3528 294.548 64.8733 294.913 63.5117C295.247 62.0961 296.788 61.2779 298.374 61.6572C299.875 62.0137 300.801 63.4932 300.467 64.9088Z" fill="url(#paint28_linear_3835_74587)"/>
<path d="M309.279 67.2327C308.946 68.6483 307.404 69.4666 305.818 69.0872C304.286 68.6768 303.36 67.1973 303.725 65.8356C304.059 64.4201 305.601 63.6018 307.186 63.9811C308.687 64.3376 309.613 65.8172 309.279 67.2327Z" fill="url(#paint29_linear_3835_74587)"/>
<path d="M309.279 67.2327C308.946 68.6483 307.404 69.4666 305.818 69.0872C304.286 68.6768 303.36 67.1973 303.725 65.8356C304.059 64.4201 305.601 63.6018 307.186 63.9811C308.687 64.3376 309.613 65.8172 309.279 67.2327Z" fill="url(#paint30_linear_3835_74587)"/>
<path d="M318.074 69.4925C317.74 70.9081 316.199 71.7263 314.613 71.347C313.081 70.9366 312.155 69.457 312.52 68.0954C312.853 66.6798 314.395 65.8616 315.981 66.2409C317.513 66.6514 318.439 68.1309 318.074 69.4925Z" fill="url(#paint31_linear_3835_74587)"/>
<path d="M318.074 69.4925C317.74 70.9081 316.199 71.7263 314.613 71.347C313.081 70.9366 312.155 69.457 312.52 68.0954C312.853 66.6798 314.395 65.8616 315.981 66.2409C317.513 66.6514 318.439 68.1309 318.074 69.4925Z" fill="url(#paint32_linear_3835_74587)"/>
<path d="M298.131 73.8221C297.797 75.2377 296.256 76.0559 294.67 75.6766C293.138 75.2662 292.212 73.7866 292.577 72.425C292.91 71.0094 294.452 70.1912 296.038 70.5705C297.593 70.8958 298.519 72.3754 298.131 73.8221Z" fill="url(#paint33_linear_3835_74587)"/>
<path d="M298.131 73.8221C297.797 75.2377 296.256 76.0559 294.67 75.6766C293.138 75.2662 292.212 73.7866 292.577 72.425C292.91 71.0094 294.452 70.1912 296.038 70.5705C297.593 70.8958 298.519 72.3754 298.131 73.8221Z" fill="url(#paint34_linear_3835_74587)"/>
<path d="M306.918 76.0821C306.584 77.4977 305.043 78.3159 303.457 77.9366C301.925 77.5262 300.999 76.0467 301.364 74.685C301.697 73.2694 303.239 72.4512 304.825 72.8305C306.357 73.241 307.337 74.6893 306.918 76.0821Z" fill="url(#paint35_linear_3835_74587)"/>
<path d="M306.918 76.0821C306.584 77.4977 305.043 78.3159 303.457 77.9366C301.925 77.5262 300.999 76.0467 301.364 74.685C301.697 73.2694 303.239 72.4512 304.825 72.8305C306.357 73.241 307.337 74.6893 306.918 76.0821Z" fill="url(#paint36_linear_3835_74587)"/>
<path d="M315.738 78.4056C315.404 79.8212 313.862 80.6394 312.277 80.2601C310.745 79.8496 309.819 78.3701 310.184 77.0085C310.517 75.5929 312.059 74.7747 313.645 75.154C315.146 75.5105 316.072 76.99 315.738 78.4056Z" fill="url(#paint37_linear_3835_74587)"/>
<path d="M315.738 78.4056C315.404 79.8212 313.862 80.6394 312.277 80.2601C310.745 79.8496 309.819 78.3701 310.184 77.0085C310.517 75.5929 312.059 74.7747 313.645 75.154C315.146 75.5105 316.072 76.99 315.738 78.4056Z" fill="url(#paint38_linear_3835_74587)"/>
<path opacity="0.5" d="M306.716 131.487L294.582 126.017C294.708 125.734 294.865 125.451 295.022 125.168L307.031 130.575C306.968 130.889 306.842 131.204 306.716 131.487Z" fill="#A6D6E6"/>
<path opacity="0.4" d="M306.71 131.489C306.584 131.772 306.427 132.055 306.27 132.338L294.262 126.931C294.356 126.617 294.45 126.334 294.576 126.051L306.71 131.489Z" fill="url(#paint39_linear_3835_74587)"/>
<path d="M306.712 131.489C306.586 131.771 306.429 132.054 306.272 132.337C304.512 135.104 300.991 136.204 297.91 134.821C294.861 133.438 293.352 130.043 294.264 126.899C294.358 126.585 294.452 126.302 294.578 126.019C294.704 125.736 294.861 125.453 295.018 125.17C296.779 122.404 300.299 121.303 303.38 122.687C306.429 124.07 307.938 127.465 307.027 130.608C306.964 130.891 306.838 131.206 306.712 131.489Z" fill="url(#paint40_linear_3835_74587)"/>
<path d="M325.301 126.812C325.144 127.158 324.987 127.472 324.767 127.786C322.755 130.961 318.668 132.25 315.148 130.647C311.627 129.075 309.898 125.146 310.935 121.562C311.03 121.216 311.155 120.871 311.312 120.525C311.47 120.179 311.627 119.865 311.847 119.55C313.859 116.375 317.945 115.086 321.466 116.69C324.987 118.261 326.716 122.191 325.679 125.775C325.584 126.152 325.458 126.466 325.301 126.812Z" fill="url(#paint41_linear_3835_74587)"/>
<path opacity="0.5" d="M325.297 126.809L311.34 120.521C311.497 120.176 311.654 119.861 311.874 119.547L325.706 125.771C325.58 126.148 325.454 126.463 325.297 126.809Z" fill="#A6D6E6"/>
<path opacity="0.4" d="M325.296 126.811C325.139 127.156 324.981 127.471 324.761 127.785L310.93 121.561C311.024 121.215 311.15 120.869 311.307 120.523L325.296 126.811Z" fill="url(#paint42_linear_3835_74587)"/>
<path d="M282.296 171.986C283.491 176.89 287.954 180.002 292.324 178.933L311.751 174.218C317.818 172.74 323.571 170.194 328.821 166.705C329.481 166.264 329.795 165.447 329.638 164.598L333.505 163.655C334.165 163.498 334.542 162.775 334.385 162.021L334.259 161.518L341.898 159.663L343.124 159.38C343.533 159.286 343.784 158.814 343.658 158.343L343.092 156.016C342.967 155.545 342.558 155.262 342.149 155.356L340.923 155.639L333.285 157.494L333.159 156.991C332.97 156.237 332.31 155.765 331.65 155.922L327.783 156.865C327.532 156.048 326.872 155.451 326.086 155.356C319.83 154.633 313.543 155.011 307.476 156.488L288.049 161.203C283.679 162.272 281.101 167.082 282.296 171.986Z" fill="white"/>
<path d="M340.921 155.637L341.895 159.66L331.459 162.175L330.484 158.183L340.921 155.637Z" fill="url(#paint43_linear_3835_74587)"/>
<path d="M333.154 156.924L334.412 162.08C334.569 162.771 334.16 163.494 333.437 163.652L323.441 166.072L321.586 158.37L331.582 155.95C332.274 155.793 332.966 156.233 333.154 156.924Z" fill="url(#paint44_linear_3835_74587)"/>
<path d="M327.811 157.05C327.591 156.17 326.899 155.478 326.051 155.384C319.795 154.661 313.508 155.038 307.441 156.515L288.014 161.231C283.675 162.3 281.098 167.109 282.292 172.013C283.487 176.917 287.951 180.029 292.32 178.96L311.747 174.245C317.814 172.768 323.567 170.221 328.817 166.732C329.509 166.26 329.823 165.349 329.603 164.469L327.811 157.05Z" fill="url(#paint45_linear_3835_74587)"/>
<g opacity="0.7">
<path d="M327.811 157.05C327.591 156.17 326.899 155.478 326.051 155.384C319.795 154.661 313.508 155.038 307.441 156.515L288.014 161.231C283.675 162.3 281.098 167.109 282.292 172.013C283.487 176.917 287.951 180.029 292.32 178.96L311.747 174.245C317.814 172.768 323.567 170.221 328.817 166.732C329.509 166.26 329.823 165.349 329.603 164.469L327.811 157.05Z" fill="#6DA09B"/>
</g>
<path d="M320.804 162.426L320.898 162.803C321.338 164.627 320.238 166.45 318.415 166.89L292.606 173.146C290.783 173.586 288.959 172.486 288.519 170.662L288.425 170.285C287.985 168.462 289.085 166.639 290.908 166.198L316.717 159.943C318.509 159.503 320.364 160.634 320.804 162.426Z" fill="url(#paint46_linear_3835_74587)"/>
<path d="M343.091 155.951L343.688 158.371C343.782 158.811 343.531 159.252 343.091 159.346L341.928 159.629L340.953 155.605L342.116 155.322C342.556 155.259 342.996 155.511 343.091 155.951Z" fill="url(#paint47_linear_3835_74587)"/>
<path d="M353.01 33.0276C353.135 33.4677 353.23 33.9392 353.293 34.3793C353.921 39.0632 351.029 43.6528 346.314 44.9731C341.63 46.2934 336.757 43.9043 334.84 39.5976C334.651 39.189 334.494 38.7489 334.368 38.3088C334.243 37.8687 334.148 37.3972 334.085 36.9571C333.457 32.2732 336.349 27.6836 341.064 26.3633C345.748 25.043 350.621 27.4321 352.538 31.7387C352.727 32.1474 352.884 32.5875 353.01 33.0276Z" fill="url(#paint48_linear_3835_74587)"/>
<path opacity="0.5" d="M353.006 33.0232L334.396 38.273C334.27 37.8329 334.176 37.3613 334.113 36.9212L352.535 31.7344C352.723 32.143 352.88 32.5831 353.006 33.0232Z" fill="#A6D6E6"/>
<path opacity="0.4" d="M353.008 33.0273C353.134 33.4674 353.228 33.939 353.291 34.3791L334.87 39.566C334.681 39.1573 334.524 38.7172 334.398 38.2771L353.008 33.0273Z" fill="url(#paint49_linear_3835_74587)"/>
<path d="M360.904 101.8C357.157 102.022 353.976 99.1932 353.754 95.4457L353.242 87.1308L352.731 78.8159C352.509 75.0685 355.338 71.8872 359.085 71.6654C362.833 71.4436 366.014 74.2725 366.236 78.02L366.747 86.3348L367.259 94.6497C367.481 98.3972 364.652 101.578 360.904 101.8Z" fill="white"/>
<path d="M367.257 94.65C367.479 98.3975 364.65 101.579 360.903 101.801C357.155 102.022 353.974 99.1934 353.752 95.4459L353.24 87.1311L366.745 86.3351L367.257 94.65Z" fill="url(#paint50_linear_3835_74587)"/>
<path d="M353.24 87.133L352.728 78.8182C352.507 75.0707 355.336 71.8895 359.083 71.6676C362.831 71.4458 366.012 74.2747 366.234 78.0222L366.745 86.3371L353.24 87.133Z" fill="url(#paint51_linear_3835_74587)"/>
<path d="M285.544 218.022C282.498 217.143 280.762 213.994 281.641 210.948L283.576 204.184L285.511 197.42C286.39 194.374 289.539 192.638 292.585 193.517C295.631 194.396 297.367 197.545 296.488 200.591L294.553 207.355L292.618 214.119C291.739 217.165 288.59 218.901 285.544 218.022Z" fill="white"/>
<path d="M292.616 214.119C291.737 217.165 288.589 218.901 285.543 218.022C282.497 217.143 280.761 213.994 281.64 210.948L283.575 204.184L294.551 207.355L292.616 214.119Z" fill="url(#paint52_linear_3835_74587)"/>
<path d="M283.574 204.185L285.509 197.421C286.388 194.375 289.536 192.639 292.583 193.518C295.629 194.397 297.365 197.546 296.486 200.592L294.551 207.356L283.574 204.185Z" fill="url(#paint53_linear_3835_74587)"/>
<path d="M361.712 202.399C361.586 202.682 361.429 202.965 361.272 203.248C359.512 206.014 355.991 207.114 352.91 205.731C349.861 204.348 348.352 200.953 349.264 197.809C349.358 197.495 349.452 197.212 349.578 196.929C349.704 196.646 349.861 196.363 350.018 196.08C351.779 193.314 355.299 192.214 358.38 193.597C361.429 194.98 362.938 198.375 362.027 201.519C361.964 201.801 361.838 202.116 361.712 202.399Z" fill="url(#paint54_linear_3835_74587)"/>
<path opacity="0.5" d="M361.716 202.397L349.582 196.927C349.708 196.644 349.865 196.361 350.022 196.078L362.031 201.485C361.968 201.799 361.842 202.114 361.716 202.397Z" fill="#A6D6E6"/>
<path opacity="0.4" d="M361.71 202.399C361.584 202.682 361.427 202.965 361.27 203.248L349.262 197.841C349.356 197.527 349.45 197.244 349.576 196.961L361.71 202.399Z" fill="url(#paint55_linear_3835_74587)"/>
<defs>
<linearGradient id="paint0_linear_3835_74587" x1="76.039" y1="237.132" x2="122.767" y2="237.132" gradientUnits="userSpaceOnUse">
<stop offset="0.373" stop-color="#2185FF"/>
<stop offset="0.6993" stop-color="#1278FF"/>
<stop offset="1" stop-color="#0068FF"/>
</linearGradient>
<linearGradient id="paint1_linear_3835_74587" x1="114.11" y1="170.116" x2="160.838" y2="170.116" gradientUnits="userSpaceOnUse">
<stop offset="0.373" stop-color="#2185FF"/>
<stop offset="0.6993" stop-color="#1278FF"/>
<stop offset="1" stop-color="#0068FF"/>
</linearGradient>
<linearGradient id="paint2_linear_3835_74587" x1="-0.0878596" y1="192.594" x2="46.6402" y2="192.594" gradientUnits="userSpaceOnUse">
<stop offset="0.373" stop-color="#2185FF"/>
<stop offset="0.6993" stop-color="#1278FF"/>
<stop offset="1" stop-color="#0068FF"/>
</linearGradient>
<linearGradient id="paint3_linear_3835_74587" x1="37.9362" y1="37.2748" x2="84.6644" y2="37.2748" gradientUnits="userSpaceOnUse">
<stop offset="0.373" stop-color="#2185FF"/>
<stop offset="0.6993" stop-color="#1278FF"/>
<stop offset="1" stop-color="#0068FF"/>
</linearGradient>
<linearGradient id="paint4_linear_3835_74587" x1="76.039" y1="148.06" x2="122.767" y2="148.06" gradientUnits="userSpaceOnUse">
<stop offset="0.373" stop-color="#2185FF"/>
<stop offset="0.6993" stop-color="#1278FF"/>
<stop offset="1" stop-color="#0068FF"/>
</linearGradient>
<linearGradient id="paint5_linear_3835_74587" x1="114.11" y1="214.865" x2="160.838" y2="214.865" gradientUnits="userSpaceOnUse">
<stop offset="0.373" stop-color="#2185FF"/>
<stop offset="0.6993" stop-color="#1278FF"/>
<stop offset="1" stop-color="#0068FF"/>
</linearGradient>
<linearGradient id="paint6_linear_3835_74587" x1="152.004" y1="148.06" x2="198.732" y2="148.06" gradientUnits="userSpaceOnUse">
<stop offset="0.373" stop-color="#2185FF"/>
<stop offset="0.6993" stop-color="#1278FF"/>
<stop offset="1" stop-color="#0068FF"/>
</linearGradient>
<linearGradient id="paint7_linear_3835_74587" x1="152.004" y1="192.594" x2="198.732" y2="192.594" gradientUnits="userSpaceOnUse">
<stop offset="0.373" stop-color="#2185FF"/>
<stop offset="0.6993" stop-color="#1278FF"/>
<stop offset="1" stop-color="#0068FF"/>
</linearGradient>
<linearGradient id="paint8_linear_3835_74587" x1="114.11" y1="81.2519" x2="160.838" y2="81.2519" gradientUnits="userSpaceOnUse">
<stop offset="0.373" stop-color="#2185FF"/>
<stop offset="0.6993" stop-color="#1278FF"/>
<stop offset="1" stop-color="#0068FF"/>
</linearGradient>
<linearGradient id="paint9_linear_3835_74587" x1="75.9889" y1="58.287" x2="122.717" y2="58.287" gradientUnits="userSpaceOnUse">
<stop offset="0.373" stop-color="#2185FF"/>
<stop offset="0.6993" stop-color="#1278FF"/>
<stop offset="1" stop-color="#0068FF"/>
</linearGradient>
<linearGradient id="paint10_linear_3835_74587" x1="114.11" y1="125.79" x2="160.838" y2="125.79" gradientUnits="userSpaceOnUse">
<stop offset="0.373" stop-color="#2185FF"/>
<stop offset="0.6993" stop-color="#1278FF"/>
<stop offset="1" stop-color="#0068FF"/>
</linearGradient>
<linearGradient id="paint11_linear_3835_74587" x1="152.004" y1="58.9848" x2="198.732" y2="58.9848" gradientUnits="userSpaceOnUse">
<stop offset="0.373" stop-color="#2185FF"/>
<stop offset="0.6993" stop-color="#1278FF"/>
<stop offset="1" stop-color="#0068FF"/>
</linearGradient>
<linearGradient id="paint12_linear_3835_74587" x1="190.241" y1="81.2519" x2="236.969" y2="81.2519" gradientUnits="userSpaceOnUse">
<stop offset="0.373" stop-color="#2185FF"/>
<stop offset="0.6993" stop-color="#1278FF"/>
<stop offset="1" stop-color="#0068FF"/>
</linearGradient>
<linearGradient id="paint13_linear_3835_74587" x1="190.241" y1="125.79" x2="236.969" y2="125.79" gradientUnits="userSpaceOnUse">
<stop offset="0.373" stop-color="#2185FF"/>
<stop offset="0.6993" stop-color="#1278FF"/>
<stop offset="1" stop-color="#0068FF"/>
</linearGradient>
<linearGradient id="paint14_linear_3835_74587" x1="228.131" y1="58.9848" x2="274.859" y2="58.9848" gradientUnits="userSpaceOnUse">
<stop offset="0.373" stop-color="#2185FF"/>
<stop offset="0.6993" stop-color="#1278FF"/>
<stop offset="1" stop-color="#0068FF"/>
</linearGradient>
<linearGradient id="paint15_linear_3835_74587" x1="228.131" y1="103.519" x2="274.859" y2="103.519" gradientUnits="userSpaceOnUse">
<stop offset="0.373" stop-color="#2185FF"/>
<stop offset="0.6993" stop-color="#1278FF"/>
<stop offset="1" stop-color="#0068FF"/>
</linearGradient>
<linearGradient id="paint16_linear_3835_74587" x1="152.004" y1="14.4508" x2="198.732" y2="14.4508" gradientUnits="userSpaceOnUse">
<stop offset="0.373" stop-color="#2185FF"/>
<stop offset="0.6993" stop-color="#1278FF"/>
<stop offset="1" stop-color="#0068FF"/>
</linearGradient>
<linearGradient id="paint17_linear_3835_74587" x1="190.241" y1="-7.81624" x2="236.969" y2="-7.81624" gradientUnits="userSpaceOnUse">
<stop offset="0.373" stop-color="#2185FF"/>
<stop offset="0.6993" stop-color="#1278FF"/>
<stop offset="1" stop-color="#0068FF"/>
</linearGradient>
<linearGradient id="paint18_linear_3835_74587" x1="190.241" y1="36.7177" x2="236.969" y2="36.7177" gradientUnits="userSpaceOnUse">
<stop offset="0.373" stop-color="#2185FF"/>
<stop offset="0.6993" stop-color="#1278FF"/>
<stop offset="1" stop-color="#0068FF"/>
</linearGradient>
<linearGradient id="paint19_linear_3835_74587" x1="266.259" y1="-7.81624" x2="312.987" y2="-7.81624" gradientUnits="userSpaceOnUse">
<stop offset="0.373" stop-color="#2185FF"/>
<stop offset="0.6993" stop-color="#1278FF"/>
<stop offset="1" stop-color="#0068FF"/>
</linearGradient>
<linearGradient id="paint20_linear_3835_74587" x1="302.291" y1="82.4725" x2="310.676" y2="50.5064" gradientUnits="userSpaceOnUse">
<stop stop-color="#A6D6E6"/>
<stop offset="1" stop-color="#DDFAFD"/>
</linearGradient>
<linearGradient id="paint21_linear_3835_74587" x1="299.341" y1="57.8573" x2="300.678" y2="52.7606" gradientUnits="userSpaceOnUse">
<stop stop-color="#A6D6E6"/>
<stop offset="1" stop-color="#DDFAFD"/>
</linearGradient>
<linearGradient id="paint22_linear_3835_74587" x1="297.206" y1="54.838" x2="303.226" y2="54.9194" gradientUnits="userSpaceOnUse">
<stop stop-color="#206F77"/>
<stop offset="0.3216" stop-color="#52ACB3"/>
<stop offset="0.5153" stop-color="#3E949B"/>
<stop offset="0.9233" stop-color="#0A555D"/>
<stop offset="1" stop-color="#004951"/>
</linearGradient>
<linearGradient id="paint23_linear_3835_74587" x1="308.143" y1="60.1665" x2="309.48" y2="55.0699" gradientUnits="userSpaceOnUse">
<stop stop-color="#A6D6E6"/>
<stop offset="1" stop-color="#DDFAFD"/>
</linearGradient>
<linearGradient id="paint24_linear_3835_74587" x1="305.977" y1="57.1863" x2="312.016" y2="57.28" gradientUnits="userSpaceOnUse">
<stop stop-color="#206F77"/>
<stop offset="0.3216" stop-color="#52ACB3"/>
<stop offset="0.5153" stop-color="#3E949B"/>
<stop offset="0.9233" stop-color="#0A555D"/>
<stop offset="1" stop-color="#004951"/>
</linearGradient>
<linearGradient id="paint25_linear_3835_74587" x1="316.934" y1="62.4813" x2="318.271" y2="57.3847" gradientUnits="userSpaceOnUse">
<stop stop-color="#A6D6E6"/>
<stop offset="1" stop-color="#DDFAFD"/>
</linearGradient>
<linearGradient id="paint26_linear_3835_74587" x1="314.789" y1="59.5103" x2="320.828" y2="59.604" gradientUnits="userSpaceOnUse">
<stop stop-color="#206F77"/>
<stop offset="0.3216" stop-color="#52ACB3"/>
<stop offset="0.5153" stop-color="#3E949B"/>
<stop offset="0.9233" stop-color="#0A555D"/>
<stop offset="1" stop-color="#004951"/>
</linearGradient>
<linearGradient id="paint27_linear_3835_74587" x1="297.018" y1="66.7263" x2="298.355" y2="61.6297" gradientUnits="userSpaceOnUse">
<stop stop-color="#A6D6E6"/>
<stop offset="1" stop-color="#DDFAFD"/>
</linearGradient>
<linearGradient id="paint28_linear_3835_74587" x1="294.87" y1="63.7435" x2="300.89" y2="63.825" gradientUnits="userSpaceOnUse">
<stop stop-color="#206F77"/>
<stop offset="0.3216" stop-color="#52ACB3"/>
<stop offset="0.5153" stop-color="#3E949B"/>
<stop offset="0.9233" stop-color="#0A555D"/>
<stop offset="1" stop-color="#004951"/>
</linearGradient>
<linearGradient id="paint29_linear_3835_74587" x1="305.81" y1="69.0411" x2="307.147" y2="63.9444" gradientUnits="userSpaceOnUse">
<stop stop-color="#A6D6E6"/>
<stop offset="1" stop-color="#DDFAFD"/>
</linearGradient>
<linearGradient id="paint30_linear_3835_74587" x1="303.682" y1="66.0675" x2="309.702" y2="66.1489" gradientUnits="userSpaceOnUse">
<stop stop-color="#206F77"/>
<stop offset="0.3216" stop-color="#52ACB3"/>
<stop offset="0.5153" stop-color="#3E949B"/>
<stop offset="0.9233" stop-color="#0A555D"/>
<stop offset="1" stop-color="#004951"/>
</linearGradient>
<linearGradient id="paint31_linear_3835_74587" x1="314.615" y1="71.3457" x2="315.952" y2="66.249" gradientUnits="userSpaceOnUse">
<stop stop-color="#A6D6E6"/>
<stop offset="1" stop-color="#DDFAFD"/>
</linearGradient>
<linearGradient id="paint32_linear_3835_74587" x1="312.477" y1="68.3272" x2="318.496" y2="68.4087" gradientUnits="userSpaceOnUse">
<stop stop-color="#206F77"/>
<stop offset="0.3216" stop-color="#52ACB3"/>
<stop offset="0.5153" stop-color="#3E949B"/>
<stop offset="0.9233" stop-color="#0A555D"/>
<stop offset="1" stop-color="#004951"/>
</linearGradient>
<linearGradient id="paint33_linear_3835_74587" x1="294.696" y1="75.6032" x2="296.033" y2="70.5065" gradientUnits="userSpaceOnUse">
<stop stop-color="#A6D6E6"/>
<stop offset="1" stop-color="#DDFAFD"/>
</linearGradient>
<linearGradient id="paint34_linear_3835_74587" x1="292.538" y1="72.6545" x2="298.594" y2="72.7589" gradientUnits="userSpaceOnUse">
<stop stop-color="#206F77"/>
<stop offset="0.3216" stop-color="#52ACB3"/>
<stop offset="0.5153" stop-color="#3E949B"/>
<stop offset="0.9233" stop-color="#0A555D"/>
<stop offset="1" stop-color="#004951"/>
</linearGradient>
<linearGradient id="paint35_linear_3835_74587" x1="303.493" y1="77.9081" x2="304.83" y2="72.8113" gradientUnits="userSpaceOnUse">
<stop stop-color="#A6D6E6"/>
<stop offset="1" stop-color="#DDFAFD"/>
</linearGradient>
<linearGradient id="paint36_linear_3835_74587" x1="301.323" y1="74.9156" x2="307.362" y2="75.0092" gradientUnits="userSpaceOnUse">
<stop stop-color="#206F77"/>
<stop offset="0.3216" stop-color="#52ACB3"/>
<stop offset="0.5153" stop-color="#3E949B"/>
<stop offset="0.9233" stop-color="#0A555D"/>
<stop offset="1" stop-color="#004951"/>
</linearGradient>
<linearGradient id="paint37_linear_3835_74587" x1="312.293" y1="80.2223" x2="313.629" y2="75.1257" gradientUnits="userSpaceOnUse">
<stop stop-color="#A6D6E6"/>
<stop offset="1" stop-color="#DDFAFD"/>
</linearGradient>
<linearGradient id="paint38_linear_3835_74587" x1="310.141" y1="77.2403" x2="316.16" y2="77.3218" gradientUnits="userSpaceOnUse">
<stop stop-color="#206F77"/>
<stop offset="0.3216" stop-color="#52ACB3"/>
<stop offset="0.5153" stop-color="#3E949B"/>
<stop offset="0.9233" stop-color="#0A555D"/>
<stop offset="1" stop-color="#004951"/>
</linearGradient>
<linearGradient id="paint39_linear_3835_74587" x1="300.258" y1="129.623" x2="300.648" y2="128.758" gradientUnits="userSpaceOnUse">
<stop stop-color="#A6D6E6"/>
<stop offset="0.3284" stop-color="#C1E8F1"/>
<stop offset="0.7111" stop-color="#DDFAFD"/>
<stop offset="1" stop-color="#B7E1ED"/>
</linearGradient>
<linearGradient id="paint40_linear_3835_74587" x1="297.92" y1="134.831" x2="303.391" y2="122.692" gradientUnits="userSpaceOnUse">
<stop stop-color="#A6D6E6"/>
<stop offset="1" stop-color="#DDFAFD"/>
</linearGradient>
<linearGradient id="paint41_linear_3835_74587" x1="315.179" y1="130.655" x2="321.47" y2="116.695" gradientUnits="userSpaceOnUse">
<stop stop-color="#A6D6E6"/>
<stop offset="1" stop-color="#DDFAFD"/>
</linearGradient>
<linearGradient id="paint42_linear_3835_74587" x1="317.865" y1="124.665" x2="318.313" y2="123.67" gradientUnits="userSpaceOnUse">
<stop stop-color="#A6D6E6"/>
<stop offset="0.3284" stop-color="#C1E8F1"/>
<stop offset="0.7111" stop-color="#DDFAFD"/>
<stop offset="1" stop-color="#B7E1ED"/>
</linearGradient>
<linearGradient id="paint43_linear_3835_74587" x1="343.998" y1="157.025" x2="330.961" y2="160.181" gradientUnits="userSpaceOnUse">
<stop stop-color="white"/>
<stop offset="0.7437" stop-color="#CCE7F1"/>
<stop offset="0.8719" stop-color="#93CCE1"/>
</linearGradient>
<linearGradient id="paint44_linear_3835_74587" x1="336.549" y1="158.827" x2="322.513" y2="162.225" gradientUnits="userSpaceOnUse">
<stop stop-color="#CCE7F1"/>
<stop offset="1" stop-color="white"/>
</linearGradient>
<linearGradient id="paint45_linear_3835_74587" x1="340.17" y1="157.959" x2="282.294" y2="171.971" gradientUnits="userSpaceOnUse">
<stop stop-color="#CCE7F1"/>
<stop offset="0.3233" stop-color="#D9EDF4"/>
<stop offset="0.9139" stop-color="#FAFCFE"/>
<stop offset="1" stop-color="white"/>
</linearGradient>
<linearGradient id="paint46_linear_3835_74587" x1="287.664" y1="170.714" x2="324.515" y2="161.686" gradientUnits="userSpaceOnUse">
<stop stop-color="#52ACB3"/>
<stop offset="0.2855" stop-color="#3E949B"/>
<stop offset="0.887" stop-color="#0A555D"/>
<stop offset="1" stop-color="#004951"/>
</linearGradient>
<linearGradient id="paint47_linear_3835_74587" x1="341.58" y1="153.749" x2="343.125" y2="160.816" gradientUnits="userSpaceOnUse">
<stop stop-color="#25757D"/>
<stop offset="0.3593" stop-color="#52ACB3"/>
<stop offset="0.5422" stop-color="#3E949B"/>
<stop offset="0.9276" stop-color="#0A555D"/>
<stop offset="1" stop-color="#004951"/>
</linearGradient>
<linearGradient id="paint48_linear_3835_74587" x1="346.32" y1="44.9671" x2="341.07" y2="26.3422" gradientUnits="userSpaceOnUse">
<stop stop-color="#A6D6E6"/>
<stop offset="1" stop-color="#DDFAFD"/>
</linearGradient>
<linearGradient id="paint49_linear_3835_74587" x1="344.065" y1="36.9894" x2="343.69" y2="35.662" gradientUnits="userSpaceOnUse">
<stop stop-color="#A6D6E6"/>
<stop offset="0.3284" stop-color="#C1E8F1"/>
<stop offset="0.7111" stop-color="#DDFAFD"/>
<stop offset="1" stop-color="#B7E1ED"/>
</linearGradient>
<linearGradient id="paint50_linear_3835_74587" x1="352.336" y1="94.4156" x2="367.638" y2="93.966" gradientUnits="userSpaceOnUse">
<stop stop-color="#C5D3E3"/>
<stop offset="0.1172" stop-color="#D8E1EC"/>
<stop offset="0.3299" stop-color="#F4F7FA"/>
<stop offset="0.4523" stop-color="white"/>
<stop offset="0.8514" stop-color="#BBCCDF"/>
<stop offset="1" stop-color="#A1B8D2"/>
</linearGradient>
<linearGradient id="paint51_linear_3835_74587" x1="350.403" y1="80.034" x2="368.893" y2="78.5432" gradientUnits="userSpaceOnUse">
<stop stop-color="#206F77"/>
<stop offset="0.3216" stop-color="#52ACB3"/>
<stop offset="0.5153" stop-color="#3E949B"/>
<stop offset="0.9233" stop-color="#0A555D"/>
<stop offset="1" stop-color="#004951"/>
</linearGradient>
<linearGradient id="paint52_linear_3835_74587" x1="280.802" y1="209.729" x2="293.112" y2="213.681" gradientUnits="userSpaceOnUse">
<stop stop-color="#C5D3E3"/>
<stop offset="0.1172" stop-color="#D8E1EC"/>
<stop offset="0.3299" stop-color="#F4F7FA"/>
<stop offset="0.4523" stop-color="white"/>
<stop offset="0.8514" stop-color="#BBCCDF"/>
<stop offset="1" stop-color="#A1B8D2"/>
</linearGradient>
<linearGradient id="paint53_linear_3835_74587" x1="283.315" y1="197.734" x2="298.456" y2="201.756" gradientUnits="userSpaceOnUse">
<stop stop-color="#206F77"/>
<stop offset="0.3216" stop-color="#52ACB3"/>
<stop offset="0.5153" stop-color="#3E949B"/>
<stop offset="0.9233" stop-color="#0A555D"/>
<stop offset="1" stop-color="#004951"/>
</linearGradient>
<linearGradient id="paint54_linear_3835_74587" x1="352.92" y1="205.741" x2="358.391" y2="193.602" gradientUnits="userSpaceOnUse">
<stop stop-color="#A6D6E6"/>
<stop offset="1" stop-color="#DDFAFD"/>
</linearGradient>
<linearGradient id="paint55_linear_3835_74587" x1="355.258" y1="200.533" x2="355.648" y2="199.669" gradientUnits="userSpaceOnUse">
<stop stop-color="#A6D6E6"/>
<stop offset="0.3284" stop-color="#C1E8F1"/>
<stop offset="0.7111" stop-color="#DDFAFD"/>
<stop offset="1" stop-color="#B7E1ED"/>
</linearGradient>
<clipPath id="clip0_3835_74587">
<rect width="389" height="230" fill="white"/>
</clipPath>
</defs>
</svg>
