<svg width="56" height="56" viewBox="0 0 56 56" fill="none" xmlns="http://www.w3.org/2000/svg">
<path fill-rule="evenodd" clip-rule="evenodd" d="M44.1594 31.0167C46.4276 27.0878 39.3334 18.7433 28.3134 12.3806C17.2902 6.01805 6.51825 4.04569 4.25003 7.97455C2.99025 10.1506 1.73364 12.3298 0.477028 14.5089C-1.79119 18.4379 5.30309 26.7792 16.3262 33.1419C27.3463 39.5044 38.1213 41.4801 40.3896 37.5511C41.6462 35.3719 42.9028 33.1959 44.1594 31.0167Z" fill="#FE9923"/>
<path fill-rule="evenodd" clip-rule="evenodd" d="M44.1594 31.0166C45.8901 28.0231 42.1774 22.4621 35.4363 17.1716C33.6135 18.021 31.7524 18.9881 29.885 20.0666C23.3316 23.8492 18.0028 28.2489 14.7802 32.2223C15.2861 32.5341 15.8014 32.8395 16.3263 33.1417C22.4217 36.6602 28.4407 38.8362 32.9868 39.4152C35.0228 38.4926 37.1097 37.4237 39.2062 36.2148C40.2433 35.6136 41.2485 34.9995 42.2221 34.3728L44.1594 31.0166Z" fill="#CE7C1D"/>
<path fill-rule="evenodd" clip-rule="evenodd" d="M28.3138 12.3807C17.2906 6.01805 6.51868 4.04569 4.25047 7.97455C1.98225 11.9002 9.07653 20.2448 20.0997 26.6075C31.1197 32.97 41.8947 34.9457 44.1599 31.0167C46.4281 27.0878 39.3338 18.7433 28.3138 12.3807Z" fill="#FECD3D"/>
<path fill-rule="evenodd" clip-rule="evenodd" d="M20.2969 26.7222C31.2501 32.9925 41.9074 34.9204 44.1598 31.0169C45.8904 28.0233 42.1778 22.4623 35.4367 17.1719C33.6138 18.0213 31.7527 18.9884 29.8853 20.0668C26.2649 22.1538 23.02 24.4316 20.2969 26.7222Z" fill="#CEA732"/>
<path fill-rule="evenodd" clip-rule="evenodd" d="M26.3917 15.7058C17.624 10.6443 9.53709 8.23605 8.32817 10.3294C7.12242 12.4227 13.2496 18.2222 22.0173 23.2836C30.785 28.3451 38.8719 30.7533 40.0807 28.6601C41.2896 26.5699 35.1593 20.7704 26.3917 15.7058Z" fill="#FEA832"/>
<path fill-rule="evenodd" clip-rule="evenodd" d="M23.5762 24.157C31.7235 28.614 38.945 30.6277 40.0807 28.6585C41.0256 27.0202 37.4753 23.1104 31.6822 19.0605C31.0841 19.3851 30.4828 19.7191 29.8847 20.0658C27.6228 21.3702 25.5105 22.7477 23.5762 24.157Z" fill="#CE8829"/>
<path d="M35.9004 36.8071L34.3193 39.543C33.6481 39.5016 32.9323 39.4221 32.1846 39.3012L34.1953 35.8177L35.9004 36.8071ZM12.4701 30.734C13.0078 31.0967 13.5582 31.4561 14.1212 31.8093L15.9474 28.647L14.2422 27.6672L12.4701 30.734ZM1.78418 20.7574C2.15638 21.3206 2.58273 21.8995 3.0631 22.488L5.07374 19.0077L3.36541 18.0215L1.78418 20.7574ZM6.78841 26.3342C7.27513 26.7669 7.78099 27.2028 8.30905 27.6353L10.2242 24.3204L8.51905 23.3406L6.78841 26.3342ZM18.5783 34.3861C19.17 34.6947 19.7585 34.9937 20.3407 35.2768L22.1127 32.21L20.4076 31.2206L18.5783 34.3861ZM25.1031 37.332C25.7426 37.5738 26.3724 37.7933 26.9897 37.9969L28.7203 35.0001L27.0151 34.0202L25.1031 37.332Z" fill="#C85929"/>
<path d="M5.33448 32.7148V34.7063H7.32598V36.278H5.33448V38.2695H3.76298V36.278H1.77148V34.7063H3.76298V32.7148H5.33448Z" fill="#FEA832"/>
<path d="M40.4274 8.9668V10.9551H42.4189V12.5267H40.4274V14.5181H38.8558V12.5267H36.8643V10.9551H38.8558V8.9668H40.4274Z" fill="#FEA832"/>
<path fill-rule="evenodd" clip-rule="evenodd" d="M11.8373 41.4893C9.56901 37.5604 16.6666 29.219 27.6865 22.8564C38.7066 16.4906 49.4816 14.5182 51.7499 18.4471C53.0065 20.6263 54.2631 22.8023 55.5229 24.9815C57.7912 28.9104 50.6937 37.2518 39.6737 43.6176C28.6505 49.9802 17.8787 51.9526 15.6103 48.0237C14.3537 45.8476 13.094 43.6685 11.8373 41.4893Z" fill="#FE9923"/>
<path fill-rule="evenodd" clip-rule="evenodd" d="M27.6867 22.8564C38.7067 16.4906 49.4817 14.5182 51.75 18.4471C54.0184 22.376 46.9208 30.7174 35.9008 37.08C24.8776 43.4458 14.1058 45.4182 11.8375 41.4893C9.56914 37.5603 16.6666 29.219 27.6867 22.8564Z" fill="#FECD3D"/>
<path fill-rule="evenodd" clip-rule="evenodd" d="M29.6047 26.1802C38.3723 21.1156 46.4625 18.7106 47.6681 20.8006C48.877 22.8939 42.7499 28.6934 33.979 33.7549C25.2114 38.8195 17.1245 41.2245 15.9188 39.1345C14.7098 37.0413 20.837 31.2418 29.6047 26.1802Z" fill="#FEA832"/>
<path d="M28.985 44.4929L30.897 47.8045C30.2576 48.0463 29.6277 48.269 29.0073 48.4694L27.2767 45.4726L28.985 44.4929ZM33.8874 42.6827L35.6562 45.7495C36.2416 45.4663 36.8302 45.1704 37.4187 44.8587L35.5926 41.6965L33.8874 42.6827ZM20.0996 47.2796L21.6775 50.0156C22.352 49.9775 23.0645 49.8947 23.8153 49.7738L21.8047 46.2935L20.0996 47.2796ZM52.6316 28.4941L50.9264 29.4804L52.9338 32.9607C53.4141 32.3722 53.8437 31.7964 54.2127 31.2332L52.6316 28.4941ZM40.0527 39.1197L41.8788 42.2851C42.442 41.9288 42.9922 41.5694 43.5299 41.2067L41.7579 38.1399L40.0527 39.1197ZM45.7759 34.793L47.6911 38.1112C48.2192 37.6753 48.725 37.2427 49.2086 36.8069L47.4811 33.8133L45.7759 34.793Z" fill="#C85929"/>
</svg>
