<svg width="56" height="56" viewBox="0 0 56 56" fill="none" xmlns="http://www.w3.org/2000/svg">
<path d="M28 0C27.5349 0 27.0724 0.0119219 26.6129 0.0354375L2.48448 18.5929C1.65367 21.1786 1.20337 23.9349 1.20337 26.7968C1.20337 41.5962 13.2007 53.5935 28.0001 53.5935C42.7996 53.5935 54.7969 41.5962 54.7969 26.7968C54.7969 11.9973 42.7994 0 28 0Z" fill="#FFDD40"/>
<path d="M52.3164 37.8099L36.3381 10.1348C37.0804 12.0803 37.4882 14.1896 37.4882 16.3928V50.3048C37.4882 51.4988 37.1181 52.6076 36.4877 53.5239L50.232 45.5886C52.9513 44.0186 53.8864 40.5292 52.3164 37.8099Z" fill="#5C5C87"/>
<path d="M48.8819 46.1046C48.156 45.8745 48.0645 45.2505 48.0896 44.8411C48.1021 44.6385 47.9764 44.4482 47.7841 44.3835C47.212 44.1907 47.0806 43.7351 47.0659 43.4065C47.056 43.1874 46.9012 43.003 46.6857 42.9617C39.8757 41.6582 38.1181 35.6731 37.7749 34.1302C37.7403 33.9749 37.6299 33.8536 37.4882 33.7988V50.3059C37.4882 51.4999 37.1181 52.6087 36.4877 53.525L49.0975 46.2447C49.0407 46.1814 48.9675 46.1317 48.8819 46.1046Z" fill="#41416B"/>
<path d="M49.7985 39.2649L37.4885 17.9434V49.5899L48.7785 43.0716C50.1092 42.3034 50.5668 40.5957 49.7985 39.2649Z" fill="#41416B"/>
<path d="M47.0662 43.4065C47.0563 43.1874 46.9014 43.003 46.686 42.9617C39.876 41.6582 38.1184 35.6731 37.7752 34.1302C37.7406 33.9749 37.6302 33.8536 37.4885 33.7988V49.5898L47.2294 43.966C47.1135 43.7815 47.0738 43.5771 47.0662 43.4065Z" fill="#35355E"/>
<path d="M36.5528 51.1068C36.2496 51.1068 35.9544 50.9505 35.7902 50.6698C35.5441 50.2492 35.6855 49.7086 36.1062 49.4623L48.3324 42.308C49.2462 41.7804 49.5588 40.6137 49.0339 39.7045L35.7884 16.8647C35.5439 16.443 35.6875 15.9029 36.1091 15.6584C36.5307 15.4137 37.0709 15.5574 37.3154 15.9791L50.5617 38.8204C51.5742 40.5739 50.9718 42.8224 49.2197 43.8341L36.9977 50.9859C36.8576 51.0679 36.7041 51.1068 36.5528 51.1068Z" fill="#35355E"/>
<path d="M47.7841 44.3834C47.212 44.1906 47.0806 43.735 47.0659 43.4065C47.0609 43.2968 47.0197 43.1958 46.9527 43.1172L36.1063 49.4641C35.6856 49.7103 35.5441 50.251 35.7903 50.6716C35.9545 50.9523 36.2497 51.1086 36.5529 51.1086C36.7042 51.1086 36.8577 51.0696 36.9978 50.9877L48.0034 44.5476C47.9498 44.473 47.8748 44.4139 47.7841 44.3834Z" fill="#28284C"/>
<path d="M26.6131 0.0351562C26.2096 0.0557187 25.8086 0.0862344 25.41 0.124516L25.4105 0.124844L23.4172 0.391719V0.390734C13.5291 2.09502 5.49614 9.21839 2.4845 18.5926V50.3052C2.4845 53.4453 5.03895 55.9997 8.17889 55.9997H32.0092C35.1491 55.9997 37.7036 53.4453 37.7036 50.3053V16.3932C37.7036 8.9852 33.1051 2.6315 26.6131 0.0351562ZM20.094 13.8252C18.2356 13.8252 16.7291 12.3186 16.7291 10.4603C16.7291 8.60195 18.2356 7.09542 20.094 7.09542C21.9524 7.09542 23.4589 8.60195 23.4589 10.4603C23.4589 12.3186 21.9524 13.8252 20.094 13.8252Z" fill="#FF7186"/>
<path d="M32.3724 55.9864C32.3348 55.9065 32.278 55.835 32.2004 55.7821C31.6127 55.3813 31.6609 54.8113 31.7939 54.4191C31.8719 54.189 31.7869 53.9291 31.5785 53.8042C31.0632 53.4955 31.0059 52.9488 31.0353 52.5827C31.0536 52.3552 30.9153 52.1473 30.7039 52.0613C27.7097 50.8437 27.4241 48.2118 27.4619 47.0055C27.472 46.6841 27.1939 46.433 26.8739 46.4644C21.3878 47.0025 21.6326 41.8198 21.8451 40.1777C21.8765 39.9347 21.7366 39.7068 21.5096 39.6145C21.0613 39.4321 20.9544 38.96 20.9292 38.731C20.9193 38.6421 20.8885 38.5569 20.8363 38.4843L19.4532 36.5563C19.3705 36.4412 19.2444 36.3655 19.1045 36.3421C18.7879 36.2889 18.6373 36.1125 18.5671 35.9362C18.4727 35.6992 18.2144 35.5705 17.9636 35.6177L15.5602 36.0695C15.4627 36.0879 15.3612 36.0797 15.2692 36.0426C11.7612 34.6283 13.2669 31.06 13.7765 30.0565C13.8627 29.8867 13.8494 29.6834 13.744 29.5248L13.3222 28.8903C13.2333 28.7568 13.0887 28.6726 12.9292 28.6558C8.17201 28.1563 6.76085 24.5818 6.39215 23.2127C6.32117 22.9489 6.06074 22.7878 5.79081 22.83C5.14276 22.9313 4.80884 22.5366 4.64685 22.2129C4.5447 22.0087 4.32485 21.8871 4.09921 21.9224C3.03631 22.0892 2.65601 21.4668 2.53504 21.1603C2.5217 21.1264 2.50409 21.0948 2.48462 21.0645V50.3051C2.48495 53.4447 5.0394 55.9992 8.17934 55.9992H32.0096C32.1316 55.9992 32.2523 55.994 32.3724 55.9864Z" fill="#FF4155"/>
<path d="M18.3306 9.37729C18.6133 10.1135 19.3056 10.5892 20.094 10.5892H20.0943C20.5817 10.5891 20.9768 10.1939 20.9767 9.70651C20.9766 9.21914 20.5815 8.82407 20.0941 8.82407H20.094C20.0089 8.82407 19.9882 8.77037 19.9783 8.74456L17.4494 2.15833C16.9058 2.3914 16.3711 2.64133 15.8467 2.90864L18.3306 9.37729Z" fill="#C8CEFC"/>
<path d="M34.7955 16.3932C34.7955 8.28661 28.2003 1.69141 20.0937 1.69141C19.4988 1.69141 18.9125 1.72794 18.3358 1.79695C13.586 3.63423 9.49056 6.78511 6.4961 10.8053C5.78516 12.5289 5.39185 14.4159 5.39185 16.3933V50.3053C5.39185 51.8419 6.642 53.092 8.1785 53.092H32.0088C33.5453 53.092 34.7955 51.8419 34.7955 50.3053V16.3932ZM20.0936 13.8251C18.2352 13.8251 16.7287 12.3186 16.7287 10.4603C16.7287 8.60194 18.2352 7.09541 20.0936 7.09541C21.952 7.09541 23.4585 8.60194 23.4585 10.4603C23.4585 12.3186 21.952 13.8251 20.0936 13.8251Z" fill="#FF4155"/>
<path d="M31.0348 52.5834C31.0531 52.3559 30.9148 52.148 30.7034 52.062C27.7092 50.8443 27.4236 48.2124 27.4614 47.0061C27.4715 46.6848 27.1934 46.4337 26.8734 46.4651C21.3873 47.0032 21.6321 41.8205 21.8446 40.1784C21.876 39.9354 21.7361 39.7074 21.5091 39.6151C21.0608 39.4328 20.954 38.9606 20.9287 38.7317C20.9188 38.6428 20.888 38.5576 20.8358 38.485L19.4527 36.557C19.37 36.4418 19.2439 36.3662 19.104 36.3427C18.7875 36.2896 18.6368 36.1132 18.5666 35.9369C18.4722 35.6998 18.2139 35.5712 17.9631 35.6184L15.5597 36.0702C15.4622 36.0886 15.3607 36.0804 15.2687 36.0433C11.7607 34.6289 13.2664 31.0607 13.776 30.0572C13.8622 29.8874 13.849 29.6841 13.7435 29.5255L13.3217 28.891C13.2328 28.7575 13.0882 28.6733 12.9287 28.6565C8.17151 28.157 6.76036 24.5825 6.39166 23.2134C6.32067 22.9496 6.06025 22.7884 5.79031 22.8307C5.64123 22.854 5.50955 22.8501 5.39197 22.8278V50.3058C5.39197 51.8424 6.64212 53.0924 8.17862 53.0924H31.0676C31.026 52.9115 31.0229 52.7325 31.0348 52.5834Z" fill="#E80054"/>
<path d="M16.2258 46.7509C15.6266 46.4994 15.3446 45.8097 15.5962 45.2104L22.2309 29.4014C22.4823 28.8021 23.1721 28.5201 23.7713 28.7717C24.3706 29.0232 24.6525 29.7129 24.401 30.3121L17.7663 46.1213C17.516 46.7175 16.8281 47.0035 16.2258 46.7509Z" fill="#E3E7FC"/>
<path d="M15.4103 37.1101C13.145 37.1101 11.302 35.0539 11.302 32.5267C11.302 29.9995 13.145 27.9434 15.4103 27.9434C17.6757 27.9434 19.5187 29.9995 19.5187 32.5267C19.5187 35.054 17.6756 37.1101 15.4103 37.1101ZM15.4103 30.2969C14.4427 30.2969 13.6555 31.2972 13.6555 32.5267C13.6555 33.7563 14.4428 34.7565 15.4103 34.7565C16.378 34.7565 17.1652 33.7562 17.1652 32.5267C17.1652 31.2972 16.3779 30.2969 15.4103 30.2969Z" fill="#E3E7FC"/>
<path d="M24.3712 47.9187C22.1058 47.9187 20.2628 45.8625 20.2628 43.3353C20.2628 40.8081 22.1058 38.752 24.3712 38.752C26.6365 38.752 28.4795 40.8081 28.4795 43.3353C28.4796 45.8625 26.6365 47.9187 24.3712 47.9187ZM24.3712 41.1054C23.4035 41.1054 22.6163 42.1057 22.6163 43.3352C22.6163 44.5647 23.4036 45.565 24.3712 45.565C25.3388 45.565 26.126 44.5647 26.126 43.3352C26.1261 42.1058 25.3388 41.1054 24.3712 41.1054Z" fill="#E3E7FC"/>
<path d="M21.5962 18.4721H18.4002C17.9129 18.4721 17.5177 18.077 17.5177 17.5896C17.5177 17.1022 17.9129 16.707 18.4002 16.707H21.5962C22.0836 16.707 22.4787 17.1022 22.4787 17.5896C22.4787 18.0771 22.0836 18.4721 21.5962 18.4721Z" fill="#FF7186"/>
<path d="M24.1619 21.6596H15.834C15.3466 21.6596 14.9514 21.2645 14.9514 20.7771C14.9514 20.2897 15.3466 19.8945 15.834 19.8945H24.1619C24.6493 19.8945 25.0444 20.2897 25.0444 20.7771C25.0444 21.2645 24.6494 21.6596 24.1619 21.6596Z" fill="#FF7186"/>
<path d="M24.1619 24.8471H15.834C15.3466 24.8471 14.9514 24.452 14.9514 23.9646C14.9514 23.4772 15.3466 23.082 15.834 23.082H24.1619C24.6493 23.082 25.0444 23.4772 25.0444 23.9646C25.0444 24.452 24.6494 24.8471 24.1619 24.8471Z" fill="#FF7186"/>
<path d="M35.6788 50.306V16.3938C35.6788 8.19553 29.3153 1.45562 21.2682 0.853516C18.5007 1.56959 15.9067 2.7165 13.5622 4.21888C15.5085 3.17041 17.7331 2.57464 20.0945 2.57464C27.7145 2.57464 33.9137 8.77391 33.9137 16.3938V50.306C33.9137 51.3559 33.0595 52.21 32.0096 52.21H8.17921C7.12921 52.21 6.2751 51.3558 6.2751 50.306V16.3938C6.2751 12.6941 7.73679 9.32942 10.1127 6.8465C8.02007 8.72403 6.22435 10.9254 4.80499 13.3727C4.61206 14.3505 4.51001 15.3605 4.51001 16.394V50.3061C4.51001 52.3293 6.15599 53.9753 8.17921 53.9753H32.0096C34.0327 53.9752 35.6788 52.3292 35.6788 50.306Z" fill="#E80054"/>
<path d="M31.5777 53.8045C31.0624 53.4957 31.0051 52.9491 31.0345 52.583C31.0458 52.443 30.9974 52.3105 30.9095 52.2093H8.17835C7.12835 52.2093 6.27424 51.355 6.27424 50.3053V23.0012C6.15611 22.87 5.97608 22.8008 5.79003 22.8299C5.14199 22.9312 4.80806 22.5366 4.64608 22.2128C4.61228 22.1452 4.5646 22.0878 4.50903 22.041V50.3052C4.50903 52.3284 6.15502 53.9744 8.17824 53.9744H31.7454C31.7047 53.9067 31.649 53.8473 31.5777 53.8045Z" fill="#CC0053"/>
<path d="M23.4168 0.391875L20.2096 8.74452C20.1996 8.77033 20.179 8.82403 20.0937 8.82403C19.6062 8.82403 19.2112 9.2192 19.2112 9.70658C19.2112 10.194 19.6064 10.5891 20.0937 10.5891C20.8823 10.5891 21.5747 10.1135 21.8573 9.37725L25.4099 0.125C24.7379 0.189422 24.0732 0.278781 23.4168 0.391875Z" fill="#E3E7FC"/>
</svg>
