<svg width="56" height="56" viewBox="0 0 56 56" fill="none" xmlns="http://www.w3.org/2000/svg">
<g clip-path="url(#clip0_815_41419)">
<path d="M27.9667 0.000302269C21.8857 0.0447358 17.0215 5.08495 17.0215 11.1659V15.64C17.7632 15.0364 18.8104 14.4668 20.0468 14.639H22.142C22.415 14.639 23.9488 14.5143 23.836 14.5228C25.7591 14.3754 27.4505 13.0458 27.9184 11.1147C27.9333 11.054 27.9867 11.0104 28.0495 11.0104C28.1119 11.0104 28.1653 11.054 28.1803 11.1147C28.6473 13.0377 30.3208 14.354 32.2182 14.5147C33.6072 14.6326 33.6259 14.639 33.8767 14.639H36.0514C37.3114 14.4596 38.385 15.0107 39.0772 15.64C39.0772 13.9046 39.0772 11.647 39.0772 11.0279C39.0772 4.90978 34.0955 -0.0445585 27.9667 0.000302269Z" fill="#685E68"/>
<path d="M20.401 11.166C20.401 5.62972 24.4333 0.956507 29.7449 0.130215C29.1655 0.0409203 28.5716 -0.00436769 27.9667 0.000332013C21.8857 0.0447655 17.0215 5.08498 17.0215 11.166V15.6401C17.7632 15.0364 18.8104 14.4669 20.0468 14.639H20.401V11.166Z" fill="#554E56"/>
<path d="M32.1592 29.6325C32.16 29.9679 32.3664 30.2678 32.6787 30.3891C33.2606 30.6143 37.9351 32.2938 39.6616 32.9624C43.6824 31.3487 43.3564 25.5929 41.3864 24.5773C40.7554 24.2518 40.1952 23.8805 39.7817 23.3968C38.9857 22.4663 38.5589 20.712 38.52 19.4688C37.8398 19.9323 36.6277 20.157 35.7028 20.0114C35.6143 22.6483 34.2211 25.328 32.1523 26.7161L32.1592 29.6325Z" fill="#685E68"/>
<path d="M16.258 32.9911C20.0323 31.5282 19.5093 31.8619 23.0435 30.4917C23.2682 30.4045 23.8356 30.2563 23.8356 29.6278V26.6653C21.722 25.2396 20.4527 22.5342 20.3916 20.0122C19.4675 20.1566 18.2562 19.9319 17.5769 19.4688C17.5385 20.712 17.1112 22.4663 16.3157 23.3968C15.9017 23.8805 15.342 24.2518 14.7105 24.5773C12.7285 25.5993 12.1838 31.4162 16.258 32.9911Z" fill="#685E68"/>
<path d="M18.09 24.5773C18.7215 24.2518 19.2812 23.8805 19.6952 23.3968C20.0806 22.9465 20.3784 22.3027 20.5886 21.6178C20.4715 21.0837 20.4044 20.5437 20.3916 20.0122C19.4675 20.157 18.2562 19.9319 17.5769 19.4688C17.5385 20.712 17.1112 22.4663 16.3157 23.3968C15.9017 23.8805 15.342 24.2518 14.7105 24.5773C12.7285 25.5993 12.1838 31.4162 16.258 32.9915C17.1445 32.6476 17.7922 32.404 18.3131 32.2131C15.7235 30.0281 16.3576 25.4707 18.09 24.5773Z" fill="#554E56"/>
<path d="M21.8379 30.6023C22.0618 31.3068 22.7449 33.4601 23.5815 36.0954C24.8615 36.3774 26.3735 36.5406 27.9945 36.5406C29.6655 36.5406 31.2206 36.3667 32.525 36.068L34.2485 30.6399L33.0172 30.1631C32.7057 30.0426 32.4985 29.7427 32.4977 29.4064L32.4913 26.3781C31.2386 27.2189 29.7394 27.7107 28.1312 27.7051C26.3351 27.6992 24.7649 27.1826 23.4977 26.3281L23.4982 29.4017C23.4982 30.0242 22.9427 30.1742 22.7061 30.266L21.8379 30.6023Z" fill="#FFBD86"/>
<path d="M25.4332 32.8415C25.2747 32.3425 25.5319 31.8071 26.0198 31.6179C26.2565 31.5264 26.8115 31.3765 26.8115 30.754V27.6052C25.5596 27.4155 24.4445 26.966 23.4982 26.3281V29.4017C23.4982 30.0242 22.9427 30.1742 22.7061 30.266L21.8379 30.6023C22.0618 31.3068 22.7454 33.4601 23.5815 36.0954C24.4842 36.2941 25.5037 36.4325 26.5936 36.4974C26.115 34.9905 25.7057 33.7007 25.4332 32.8415Z" fill="#F6A96C"/>
<path d="M27.9953 36.4757C26.3149 36.4757 24.7542 36.295 23.4609 35.9857C25.3284 41.8688 27.8552 49.8288 28.0483 50.4368L32.645 35.957C31.3291 36.2834 29.7265 36.4757 27.9953 36.4757Z" fill="#60B8FF"/>
<path d="M26.8947 37.4481C26.7841 37.0991 26.676 36.7585 26.5713 36.4287C25.4352 36.3574 24.3799 36.2044 23.4609 35.9844C25.3284 41.868 27.8552 49.8276 28.0483 50.4355L29.5167 45.8093C28.7139 43.2655 27.8415 40.4846 26.8947 37.4481Z" fill="#22A7FF"/>
<path d="M28.0487 49.7032L21.9694 30.5527L11.6177 34.5663C9.73693 35.34 7.21875 37.7753 7.21875 41.389V54.5349C7.21875 55.3445 7.875 56.0008 8.68463 56.0008H28.3866L28.0487 49.7032Z" fill="#D9EDFF"/>
<path d="M10.5991 54.6472V39.4727C10.5991 37.1301 11.6578 35.2831 12.9152 34.0625L11.6177 34.5658C9.73693 35.3395 7.21875 37.7748 7.21875 41.3885V54.5344C7.21875 55.344 7.875 56.0003 8.68463 56.0003H11.5015C10.9717 55.7794 10.5991 55.2569 10.5991 54.6472Z" fill="#B4DBFF"/>
<path d="M14.9656 55.9993V42.7474C14.9656 42.2809 14.587 41.9023 14.1205 41.9023C13.6535 41.9023 13.2754 42.2809 13.2754 42.7474V55.9993H14.9656Z" fill="#B4DBFF"/>
<path d="M20.9564 48.7741C20.4899 48.7741 20.1113 48.3956 20.1113 47.929V40.1459C20.1113 39.6793 20.4899 39.3008 20.9564 39.3008C21.4234 39.3008 21.8019 39.6793 21.8019 40.1459V47.929C21.8015 48.3956 21.4234 48.7741 20.9564 48.7741Z" fill="#685E68"/>
<path d="M23.7382 49.9638C23.7382 51.5023 22.4906 52.7494 20.9521 52.7494C19.4136 52.7494 18.166 51.5023 18.166 49.9638C18.166 48.4249 19.4136 47.1777 20.9521 47.1777C22.4906 47.1777 23.7382 48.4249 23.7382 49.9638Z" fill="#60B8FF"/>
<path d="M20.9506 50.8079C20.4789 50.8079 20.1055 50.4243 20.1055 49.9628C20.1055 49.4292 20.5968 49.0267 21.115 49.1348C21.5111 49.2092 21.7957 49.5685 21.7957 49.9628C21.7957 50.4136 21.4299 50.8079 20.9506 50.8079Z" fill="#8BCAFF"/>
<path d="M18.1387 32.0383V34.4731C18.1387 34.7645 18.2758 35.0392 18.5095 35.214L20.3535 36.5944C20.7009 36.8546 20.8209 37.3212 20.6419 37.7168L19.8254 39.5219C19.6473 39.9154 19.7652 40.3802 20.1096 40.6409L28.0491 49.7032C27.7739 48.8367 22.3838 31.8571 21.9698 30.5527L18.1387 32.0383Z" fill="#B4DBFF"/>
<path d="M26.3841 44.4587L23.0392 40.6409C22.6948 40.3802 22.5769 39.9154 22.7551 39.5219L23.5715 37.7168C23.7505 37.3212 23.6305 36.8546 23.2831 36.5944L21.4391 35.214C21.2059 35.0392 21.0683 34.7645 21.0683 34.4731V33.3491C21.0683 32.5591 21.5541 31.8499 22.2906 31.5645C22.1291 31.0556 22.0168 30.7014 21.9698 30.5527L18.1387 32.0383V34.4731C18.1387 34.7645 18.2758 35.0392 18.5095 35.214L20.3535 36.5944C20.7009 36.8546 20.8209 37.3212 20.6419 37.7168L19.8254 39.5219C19.6473 39.9154 19.7652 40.3802 20.1096 40.6409L28.0491 49.7032C27.9551 49.4079 27.2668 47.2397 26.3841 44.4587Z" fill="#8BCAFF"/>
<path d="M20.2754 20.1596L20.0503 14.3008H20.046C18.8104 14.1286 17.7637 14.6972 17.0224 15.3001C16.5229 15.8401 16.2188 16.5442 16.2188 17.3154C16.2188 19.191 18.2392 20.6706 20.2801 20.3501C20.2784 20.2865 20.2754 20.2232 20.2754 20.1596Z" fill="#FFBD86"/>
<path d="M20.2678 19.9605C19.2445 19.4239 18.516 18.4412 18.516 17.3154C18.516 16.5442 18.8202 15.8401 19.3197 15.3001C19.5427 15.1189 19.7935 14.9408 20.0687 14.7853L20.0503 14.3008H20.046C18.8104 14.1286 17.7641 14.6972 17.0224 15.3001C16.5229 15.8401 16.2188 16.5442 16.2188 17.3154C16.2188 19.191 18.2392 20.6706 20.2801 20.3497C20.2784 20.2865 20.2754 20.2232 20.2754 20.1596L20.2678 19.9605Z" fill="#F6A96C"/>
<path d="M39.0722 15.2992C38.3801 14.6716 37.3081 14.1226 36.0507 14.3021H36.0464L35.8213 20.0835C35.8213 20.1728 35.8174 20.2617 35.8145 20.3506C37.8558 20.6727 39.878 19.1932 39.878 17.3167C39.8776 16.5442 39.5729 15.8393 39.0722 15.2992Z" fill="#FFBD86"/>
<path d="M38.348 14.7715C37.7165 14.4075 36.9291 14.1767 36.0507 14.3019H36.0464L35.8213 20.0834C35.8213 20.1727 35.8174 20.2616 35.8145 20.3504C36.7215 20.4936 37.6243 20.2804 38.348 19.8352V14.7715Z" fill="#F6A96C"/>
<path d="M33.8764 14.3005C33.6256 14.3005 33.6069 14.2941 32.2179 14.1761C30.3508 14.0176 28.7345 12.7479 28.224 10.9449C28.2082 10.8889 28.1937 10.8325 28.1796 10.7761C28.165 10.7155 28.1116 10.6719 28.0488 10.6719C27.9864 10.6719 27.933 10.7155 27.9181 10.7761C27.9044 10.8334 27.8895 10.8902 27.8732 10.9466C27.3575 12.7645 25.7199 14.0399 23.8357 14.1838C23.9485 14.1753 22.4143 14.3 22.1417 14.3H20.0508V20.1593C20.0508 24.2694 23.2637 28.027 28.1308 28.0432C32.4845 28.0578 36.0468 24.4356 36.0468 20.0815V14.3H33.8764V14.3005Z" fill="#FED2A4"/>
<path d="M23.431 20.16V14.217C22.985 14.2516 22.3134 14.3012 22.1416 14.3012H20.0507V20.16C20.0507 24.2706 23.2636 28.0277 28.1307 28.044C28.6956 28.0461 29.2463 27.9855 29.7786 27.8714C25.8962 27.0895 23.431 23.7604 23.431 20.16Z" fill="#FFBD86"/>
<path d="M48.7808 54.5344V41.3885C48.7808 38.2764 46.7881 35.5561 44.3819 34.5658L34.116 30.5898L28.0487 49.7027V56.0003H47.3149C48.1245 56.0003 48.7808 55.344 48.7808 54.5344Z" fill="#D9EDFF"/>
<path d="M42.8234 55.9993V42.7474C42.8234 42.2809 42.4449 41.9023 41.9783 41.9023C41.5114 41.9023 41.1328 42.2809 41.1328 42.7474V55.9993H42.8234Z" fill="#B4DBFF"/>
<path d="M35.0423 47.7652C34.5757 47.7652 34.1972 47.3866 34.1972 46.9201V40.5294C34.1972 40.0624 34.5757 39.6838 35.0423 39.6838C35.5093 39.6838 35.8874 40.0624 35.8874 40.5294V46.9201C35.8874 47.3866 35.5093 47.7652 35.0423 47.7652Z" fill="#685E68"/>
<path d="M39.396 55.9991V50.4283C39.396 48.0276 37.4427 46.0742 35.0416 46.0742C32.6409 46.0742 30.6875 48.0276 30.6875 50.4283V55.9991H32.3777V50.4283C32.3777 48.9594 33.5727 47.7644 35.0416 47.7644C36.5109 47.7644 37.7059 48.9594 37.7059 50.4283V55.9991H39.396Z" fill="#685E68"/>
<path d="M35.7443 36.5939L37.5882 35.2135C37.8215 35.0388 37.9591 34.764 37.9591 34.4727V32.0784L34.116 30.5898L28.0487 49.7027L35.9878 40.6404C36.3321 40.3797 36.4505 39.9149 36.2723 39.5214L35.4559 37.7163C35.2768 37.3207 35.3969 36.8541 35.7443 36.5939Z" fill="#B4DBFF"/>
</g>
<defs>
<clipPath id="clip0_815_41419">
<rect width="56" height="56" fill="white"/>
</clipPath>
</defs>
</svg>
