<svg width="56" height="56" viewBox="0 0 56 56" fill="none" xmlns="http://www.w3.org/2000/svg">
<path d="M47.25 24.5H36.75V42H3.5V45.5H50.75C51.7169 45.5 52.5 44.7169 52.5 43.75V33.25L47.25 24.5Z" fill="#64C8F0"/>
<path d="M28 19.25C24.4204 19.25 21.3395 17.0861 19.9859 14H3.5V42H36.75V14H36.0141C34.6605 17.0861 31.5796 19.25 28 19.25Z" fill="#FA6450"/>
<path d="M3.5 14H7V42H3.5V14Z" fill="#DC4632"/>
<path d="M12.25 26.25V24.5H7V33.25H8.75V29.75H12.25V28H8.75V26.25H12.25Z" fill="#F0F0F0"/>
<path d="M26.25 26.25V24.5H21V33.25H26.25V31.5H22.75V29.75H26.25V28H22.75V26.25H26.25Z" fill="#F0F0F0"/>
<path d="M33.25 26.25V24.5H28V33.25H33.25V31.5H29.75V29.75H33.25V28H29.75V26.25H33.25Z" fill="#F0F0F0"/>
<path d="M19.25 27.9247V26.3253C19.25 25.3173 18.4327 24.5 17.4247 24.5H14.0753C14.0341 24.5 14 24.5333 14 24.5753V33.1748C14 33.2159 14.0341 33.25 14.0753 33.25H15.6747C15.7159 33.25 15.75 33.2159 15.75 33.1748V29.8252C15.75 29.8095 15.7587 29.7964 15.7666 29.7841L17.5 33.25H19.25L17.4965 29.743C18.4704 29.7045 19.25 28.9082 19.25 27.9247ZM16.625 28H15.75V26.25H16.625C17.108 26.25 17.5 26.642 17.5 27.125C17.5 27.608 17.108 28 16.625 28Z" fill="#F0F0F0"/>
<path d="M3.5 42H7V45.5H3.5V42Z" fill="#46AAD2"/>
<path d="M47.25 24.5H36.75V21H47.25C48.2169 21 49 21.7831 49 22.75C49 23.7169 48.2169 24.5 47.25 24.5Z" fill="#505050"/>
<path d="M52.5 33.25H42V24.5H47.25L52.5 33.25Z" fill="#F0F0F0"/>
<path d="M48.125 40.25H52.5V36.75H48.125C47.642 36.75 47.25 37.142 47.25 37.625V39.375C47.25 39.858 47.642 40.25 48.125 40.25Z" fill="#FAB400"/>
<path d="M44.625 49C42.2091 49 40.25 47.0409 40.25 44.625C40.25 42.2091 42.2091 40.25 44.625 40.25C47.0409 40.25 49 42.2091 49 44.625C49 47.0409 47.0409 49 44.625 49Z" fill="#505050"/>
<path d="M11.375 49C8.95913 49 7 47.0409 7 44.625C7 42.2091 8.95913 40.25 11.375 40.25C13.7909 40.25 15.75 42.2091 15.75 44.625C15.75 47.0409 13.7909 49 11.375 49Z" fill="#505050"/>
<path d="M44.625 46.375C43.6581 46.375 42.875 45.5919 42.875 44.625C42.875 43.6581 43.6581 42.875 44.625 42.875C45.5919 42.875 46.375 43.6581 46.375 44.625C46.375 45.5919 45.5919 46.375 44.625 46.375Z" fill="#F0F0F0"/>
<path d="M11.375 46.375C10.4081 46.375 9.625 45.5919 9.625 44.625C9.625 43.6581 10.4081 42.875 11.375 42.875C12.3419 42.875 13.125 43.6581 13.125 44.625C13.125 45.5919 12.3419 46.375 11.375 46.375Z" fill="#F0F0F0"/>
<path d="M28 17.5C31.866 17.5 35 14.366 35 10.5C35 6.63401 31.866 3.5 28 3.5C24.134 3.5 21 6.63401 21 10.5C21 14.366 24.134 17.5 28 17.5Z" fill="#3CC8B4"/>
<path d="M22.7351 10.5C22.7351 6.92825 25.4118 3.98737 28.868 3.5595C28.5828 3.52362 28.294 3.5 28 3.5C24.1342 3.5 21 6.63425 21 10.5C21 14.3658 24.1342 17.5 28 17.5C28.294 17.5 28.5828 17.4764 28.8671 17.4405C25.4118 17.0126 22.7351 14.0717 22.7351 10.5Z" fill="#1EAA96"/>
<path d="M32.375 8.75L27.125 14L23.625 10.5L25.375 8.75L27.125 10.5L30.625 7L32.375 8.75Z" fill="#F0F0F0"/>
</svg>
