<svg width="56" height="56" viewBox="0 0 56 56" fill="none" xmlns="http://www.w3.org/2000/svg">
<path d="M21.9087 32.3313C21.7917 32.3298 21.68 32.2827 21.5972 32.2C21.5145 32.1173 21.4674 32.0055 21.4659 31.8885V29.3923C21.4659 29.2748 21.5126 29.1621 21.5957 29.079C21.6788 28.996 21.7914 28.9493 21.9089 28.9493C22.0264 28.9493 22.1391 28.996 22.2221 29.079C22.3052 29.1621 22.3519 29.2748 22.3519 29.3923V31.8881C22.3505 32.0052 22.3034 32.1172 22.2206 32.2C22.1377 32.2828 22.0258 32.3299 21.9087 32.3313ZM32.7444 37.2898C32.6274 37.2912 32.5156 37.3384 32.4328 37.4211C32.3501 37.5039 32.3029 37.6157 32.3015 37.7327V40.2282C32.3015 40.3456 32.3482 40.4583 32.4312 40.5414C32.5143 40.6245 32.627 40.6711 32.7445 40.6711C32.862 40.6711 32.9746 40.6245 33.0577 40.5414C33.1408 40.4583 33.1874 40.3456 33.1874 40.2282V37.7322C33.186 37.6152 33.1388 37.5033 33.0561 37.4206C32.9733 37.3379 32.8614 37.2908 32.7444 37.2894V37.2898ZM48.9344 35.5688C48.5713 40.8697 46.2114 45.8356 42.3309 49.465C38.4503 53.0943 33.3377 55.117 28.0244 55.125C27.5387 55.125 27.0513 55.1083 26.5622 55.0749C23.0653 54.8339 19.6843 53.7214 16.7276 51.8388C13.7709 49.9562 11.3325 47.3634 9.63466 44.2968C7.93686 41.2302 7.03369 37.7874 7.00751 34.2823C6.98133 30.7773 7.83298 27.3214 9.48478 24.2298C9.48785 24.2239 9.49102 24.2181 9.4943 24.2123C10.4997 22.3916 11.2459 18.6761 10.6646 16.7926C10.5752 16.5028 10.5679 16.1939 10.6435 15.9002C10.719 15.6065 10.8745 15.3395 11.0927 15.1288C11.3108 14.9181 11.5831 14.7721 11.8793 14.7068C12.1754 14.6415 12.4839 14.6596 12.7704 14.7591C14.1783 15.2646 15.4327 16.1233 16.4135 17.2528C17.324 15.4615 18.3319 14.03 19.2596 12.7124C21.485 9.55142 22.8281 7.64403 21.4004 2.99789C21.3116 2.70923 21.3042 2.40166 21.379 2.10907C21.4539 1.81647 21.608 1.55021 21.8245 1.3396C22.0409 1.129 22.3113 0.982231 22.6058 0.915468C22.9004 0.848705 23.2076 0.864538 23.4938 0.961222C30.9045 3.46405 35.6453 8.63453 37.9619 16.753C38.1405 15.5965 38.1872 14.4234 38.1012 13.2563C38.0795 12.9023 38.1731 12.5508 38.3679 12.2545C38.5628 11.9582 38.8484 11.733 39.182 11.6126C39.5155 11.4922 39.8792 11.4832 40.2183 11.5869C40.5575 11.6905 40.8539 11.9013 41.0632 12.1876C43.6932 15.7854 45.7122 19.518 47.0642 23.2818C48.5755 27.4896 49.2046 31.6235 48.9344 35.5688ZM21.9089 35.6125C22.8962 35.6114 23.8428 35.2187 24.541 34.5206C25.2391 33.8224 25.6319 32.8759 25.633 31.8885V29.3923C25.633 28.4045 25.2406 27.4573 24.5422 26.7588C23.8438 26.0604 22.8965 25.6681 21.9088 25.6681C20.9211 25.6681 19.9738 26.0604 19.2754 26.7588C18.577 27.4573 18.1846 28.4045 18.1846 29.3923V31.8881C18.1856 32.8755 18.5782 33.8222 19.2764 34.5205C19.9746 35.2187 20.9213 35.6115 21.9087 35.6125H21.9089ZM34.056 28.3963C34.1833 28.2224 34.2751 28.0252 34.3261 27.8159C34.3772 27.6065 34.3865 27.3892 34.3536 27.1763C34.3206 26.9633 34.2461 26.759 34.1342 26.5748C34.0222 26.3907 33.8751 26.2304 33.7013 26.1031C33.5274 25.9759 33.3302 25.8841 33.1209 25.833C32.9115 25.782 32.6942 25.7726 32.4812 25.8056C32.2683 25.8385 32.0639 25.9131 31.8798 26.025C31.6957 26.1369 31.5354 26.284 31.4081 26.4578L20.5973 41.2245C20.47 41.3983 20.3782 41.5955 20.3272 41.8048C20.2761 42.0141 20.2668 42.2315 20.2998 42.4444C20.3327 42.6573 20.4072 42.8617 20.5192 43.0458C20.6311 43.2299 20.7781 43.3901 20.952 43.5174C21.1258 43.6447 21.323 43.7364 21.5324 43.7875C21.7417 43.8385 21.959 43.8479 22.1719 43.8149C22.3848 43.782 22.5892 43.7074 22.7733 43.5955C22.9574 43.4836 23.1177 43.3365 23.2449 43.1627L34.056 28.3963ZM36.4687 37.7327C36.4687 36.7449 36.0763 35.7977 35.3779 35.0992C34.6795 34.4008 33.7322 34.0084 32.7445 34.0084C31.7567 34.0084 30.8095 34.4008 30.1111 35.0992C29.4126 35.7977 29.0203 36.7449 29.0203 37.7327V40.2282C29.0203 41.2159 29.4126 42.1632 30.1111 42.8616C30.8095 43.56 31.7567 43.9524 32.7445 43.9524C33.7322 43.9524 34.6795 43.56 35.3779 42.8616C36.0763 42.1632 36.4687 41.2159 36.4687 40.2282V37.7327Z" fill="url(#paint0_linear_815_41414)"/>
<defs>
<linearGradient id="paint0_linear_815_41414" x1="9.85185" y1="13.3125" x2="44.1769" y2="47.6376" gradientUnits="userSpaceOnUse">
<stop stop-color="#FF9B8C"/>
<stop offset="1" stop-color="#FD4D86"/>
</linearGradient>
</defs>
</svg>
