<svg width="56" height="56" viewBox="0 0 56 56" fill="none" xmlns="http://www.w3.org/2000/svg">
<g clip-path="url(#clip0_815_41365)">
<path d="M50.1005 44.3583C53.0621 40.0477 54.7967 34.8284 54.7967 29.2033C54.7967 14.4038 42.7993 2.40649 27.9999 2.40649C13.2005 2.40649 1.20325 14.4038 1.20325 29.2033C1.20325 34.8308 2.93936 40.0523 5.90331 44.3639L50.1005 44.3583Z" fill="#FF4155"/>
<path d="M27.8548 2.02734C21.6354 2.02734 16.5756 7.08714 16.5756 13.3065C16.59 13.5231 16.5355 13.6402 16.6442 13.7185C16.7889 13.8228 16.8752 13.9909 16.8752 14.1682V14.8074C16.8752 15.3874 17.5617 15.6794 17.6529 15.396C17.8834 14.6803 18.5209 14.6198 18.7882 14.6243C18.7961 14.6244 18.8039 14.6248 18.8121 14.6244C19.0321 14.6253 19.245 14.6913 19.428 14.8156C19.5174 14.8768 19.6441 14.8356 19.678 14.729C19.7785 14.41 19.8128 14.0871 19.7904 13.7847C19.674 12.1982 19.7604 9.41016 21.6478 8.56075C23.3327 7.8018 25.0292 8.32778 26.1442 8.54139C26.7744 8.72481 27.8123 9.16614 29.2678 8.68205C30.6366 8.22672 32.6066 7.83603 34.2174 8.56064C36.1013 9.40852 36.1902 12.1895 36.0755 13.7719C36.0545 14.0637 36.0843 14.3574 36.1638 14.6446C36.1918 14.746 36.3063 14.7949 36.3983 14.7473C36.9813 14.4473 37.826 14.6807 38.0566 15.3959C38.0819 15.4746 38.1611 15.5217 38.2423 15.5078C38.5853 15.4471 38.8344 15.1526 38.8344 14.8073V14.1681C38.8344 13.9909 38.9207 13.8228 39.0654 13.7184C39.1743 13.6399 39.1196 13.5209 39.134 13.3064C39.134 7.08714 34.0742 2.02734 27.8548 2.02734Z" fill="#41416B"/>
<path d="M27.5415 2.39691C27.6626 2.31269 27.6987 2.15858 27.6455 2.0293C21.5224 2.1413 16.5756 7.15636 16.5756 13.3057C16.59 13.5223 16.5355 13.6395 16.6442 13.7178C16.7889 13.822 16.8752 13.9901 16.8752 14.1674V14.8066C16.8752 15.3866 17.5617 15.6786 17.6529 15.3952C17.8834 14.6795 18.5209 14.619 18.7882 14.6235C18.7961 14.6236 18.8039 14.624 18.8121 14.6236C19.0321 14.6245 19.245 14.6905 19.428 14.8148C19.5174 14.8762 19.6441 14.8348 19.678 14.7282C19.7785 14.4092 19.8128 14.0864 19.7904 13.7839C19.674 12.1975 19.7604 9.40937 21.6478 8.55997C23.315 7.809 24.9933 8.31595 26.1087 8.53361L26.183 8.38005C26.1831 8.38005 24.0503 4.82448 27.5415 2.39691Z" fill="#35355E"/>
<path d="M5.82727 44.2543C10.6488 51.3432 18.7802 55.9997 27.9998 55.9997C37.2218 55.9997 45.3551 51.3408 50.1762 44.2486C49.5158 42.1407 48.2978 40.0779 46.0809 38.9367L46.0815 38.9351C45.9322 38.864 45.7333 38.7594 45.3876 38.6239C38.2751 35.4622 37.4556 35.6039 36.7346 35.3633C36.7563 35.3847 36.7758 35.4085 36.7902 35.4371C36.7648 35.6504 36.9015 35.6154 36.4005 36.9032C35.3622 39.4796 33.4743 41.7422 31.2865 43.4723C31.0654 43.6469 30.7596 43.6585 30.5253 43.5021C30.148 43.2501 29.4839 45.6302 29.5199 46.3056C29.5326 46.7108 29.523 46.2287 29.5263 51.7352C29.5263 51.9522 29.3466 52.1287 29.1257 52.1287C29.1072 52.1287 26.8102 52.1287 26.88 52.1287C26.6592 52.1287 26.4793 51.9522 26.4793 51.7352C26.4827 46.2288 26.4731 46.7103 26.4858 46.3056C26.4861 46.3008 26.4859 46.2959 26.4856 46.2912C26.3932 45.1005 25.8213 43.2744 25.4803 43.5021C25.246 43.6586 24.9402 43.6469 24.7192 43.4723C22.5313 41.7421 20.6434 39.4796 19.6051 36.9032C19.1041 35.6154 19.2409 35.6504 19.2154 35.4371C19.2299 35.4085 19.2493 35.3847 19.271 35.3633C18.55 35.6039 17.7306 35.4622 10.6181 38.6239C10.2724 38.7594 10.0733 38.8639 9.92402 38.9351L9.92479 38.9367C7.70568 40.0789 6.48746 42.1444 5.82727 44.2543Z" fill="#FFDD40"/>
<path d="M19.2161 35.4371C19.2305 35.4085 19.2499 35.3847 19.2716 35.3633C18.5506 35.6039 17.7312 35.4622 10.6188 38.6239C10.273 38.7594 10.074 38.8639 9.92467 38.9351L9.92543 38.9367C7.70665 40.0789 6.48843 42.1444 5.82825 44.2543C7.61609 46.8829 9.85882 49.177 12.4438 51.0233L13.3076 48.1727C13.6763 46.956 14.5405 45.951 15.6881 45.4041L22.0781 42.359V40.9272C21.0492 39.712 20.192 38.3576 19.6059 36.9031C19.1046 35.6154 19.2414 35.6504 19.2161 35.4371Z" fill="#FFC839"/>
<path d="M21.4195 33.5488L21.5387 34.2053L21.5425 34.2209C21.577 34.3718 21.6163 34.5237 21.6593 34.6725L21.6659 34.695C21.6803 34.7445 21.6956 34.795 21.711 34.8444L21.7204 34.8745C21.7369 34.9263 21.754 34.9789 21.7725 35.0341L21.7787 35.0521C22.1715 36.2057 23.0295 37.887 24.8853 39.3457C25.3663 39.724 25.892 40.0715 26.4477 40.3789C26.6973 40.5169 26.8792 40.7268 26.9737 40.9859C26.9799 41.0031 26.9895 41.019 27.0016 41.0327C27.2865 41.3534 27.5587 41.7059 27.8107 42.0804C27.8651 42.1609 27.9987 42.1609 28.0527 42.0804C28.3036 41.7071 28.5766 41.3541 28.8637 41.0312C28.8759 41.0175 28.8854 41.0017 28.8916 40.9845C28.9865 40.7259 29.1681 40.5165 29.4168 40.3789C33.4076 38.1716 34.2657 34.918 34.4484 33.525C33.9599 32.4067 33.8039 31.0242 33.7674 29.9629C33.178 30.6494 32.5595 31.2235 31.9684 31.6826C30.8169 32.5768 29.3959 33.0625 27.9324 33.0625C26.4688 33.0625 25.0478 32.5767 23.8963 31.6826C23.3053 31.2235 22.6866 30.6494 22.0972 29.9629C22.0607 31.0242 21.9046 32.4068 21.4161 33.5251L21.4195 33.5488Z" fill="#FCA870"/>
<path d="M23.8973 31.6826C23.3062 31.2235 22.6876 30.6494 22.0982 29.9629C22.0617 31.0242 21.9056 32.4068 21.4171 33.5251L21.4201 33.5489L21.5393 34.2054L21.543 34.221C21.5776 34.3719 21.6168 34.5238 21.6598 34.6726L21.6665 34.6951C21.6808 34.7447 21.696 34.7951 21.7116 34.8445L21.721 34.8746C21.7375 34.9264 21.7545 34.979 21.773 35.0341L21.7793 35.0521C22.172 36.2057 23.0301 37.887 24.8858 39.3457C25.0371 39.4647 25.1943 39.5794 25.354 39.692C26.9812 36.9517 27.5034 34.4067 27.671 33.0571C26.3007 33.0026 24.9799 32.5233 23.8973 31.6826Z" fill="#F9955F"/>
<path d="M37.0051 16.0425C36.8898 15.7416 36.7524 15.4652 36.5967 15.2209C36.3304 14.8032 36.2041 14.2927 36.241 13.7834C36.3588 12.158 36.2614 9.29885 34.286 8.40996C32.627 7.6637 30.6134 8.06062 29.2165 8.52525C28.3891 8.80065 27.4778 8.80054 26.6504 8.52525C25.2533 8.06062 23.2398 7.66326 21.5808 8.40996C20.7313 8.79223 19.3479 10.0004 19.6267 13.7965C19.6635 14.2965 19.5368 14.8025 19.2702 15.2211C19.1189 15.4583 18.9848 15.7261 18.8717 16.0166C18.5404 16.8677 18.4332 17.8123 18.5616 18.7483L19.0249 22.1177C19.0249 27.6979 22.4011 30.9219 23.8527 32.0491C25.0112 32.9489 26.4605 33.4445 27.9334 33.4445C29.4063 33.4445 30.8556 32.949 32.0141 32.0491C33.4656 30.922 36.8418 27.6978 36.841 22.1278L37.305 18.7491C37.4323 17.8223 37.3286 16.8864 37.0051 16.0425Z" fill="#F9BD91"/>
<path d="M27.7504 32.0489C26.7178 30.9218 24.3162 27.6978 24.3162 22.1176L23.9866 18.7482C23.8952 17.8121 23.9714 16.8676 24.2071 16.0164C24.2876 15.7258 24.383 15.4581 24.4906 15.2208C24.6804 14.8022 24.7704 14.2964 24.7443 13.7962C24.546 10.0001 25.53 8.79198 26.1343 8.40971C26.1506 8.39943 26.1671 8.39013 26.1835 8.38018C24.8278 7.98873 23.0628 7.74252 21.5806 8.40971C20.7312 8.79198 19.3478 10.0001 19.6266 13.7962C19.6634 14.2963 19.5367 14.8022 19.27 15.2208C19.1188 15.4581 18.9847 15.7258 18.8716 16.0164C18.5403 16.8676 18.4331 17.8121 18.5615 18.7482L19.0248 22.1176C19.0248 27.6978 22.401 30.9217 23.8525 32.0489C25.011 32.9488 26.4604 33.4443 27.9333 33.4443C28.4707 33.4443 29.0046 33.3776 29.5227 33.2502C28.8809 33.0283 28.2739 32.6205 27.7504 32.0489Z" fill="#FCA870"/>
<path d="M28.0355 42.1541C27.2401 40.9248 26.456 40.2793 26.456 40.2793L24.4298 43.5335C25.8894 44.4731 26.1502 46.7683 26.1967 47.5078C26.3177 45.1312 27.2178 43.3251 28.0355 42.1541Z" fill="#FF9100"/>
<path d="M29.6596 52.2485V47.7426C29.6596 47.7426 29.6849 44.6609 31.4366 43.5335L29.4104 40.2793C29.4104 40.2793 26.1818 42.9322 26.1818 47.7427V52.2486H29.6596V52.2485Z" fill="#FFB332"/>
<path d="M26.5187 40.2498C22.4778 38.015 21.6989 34.6877 21.5495 33.4134C21.5231 33.1876 21.2618 33.0761 21.0786 33.2105L18.3433 35.2159C18.1973 35.3229 18.1273 35.5077 18.1714 35.6831C19.2597 40.0148 22.7581 43.1776 24.3003 44.3969C24.6929 44.7073 25.2653 44.6173 25.5447 44.2021C25.9397 43.615 26.4985 42.7846 26.9598 42.0993C27.3903 41.4593 27.1936 40.6231 26.5187 40.2498Z" fill="#FFC839"/>
<path d="M24.9758 39.2297C22.2694 37.1024 21.6775 34.5048 21.5495 33.4133C21.5231 33.1876 21.2618 33.0761 21.0786 33.2105L18.3433 35.2159C18.1973 35.3229 18.1273 35.5077 18.1714 35.6832C18.8678 38.4552 20.5508 40.7473 22.0769 42.3588C23.2885 38.3815 24.6398 38.9975 24.9758 39.2297Z" fill="#FFB332"/>
<path d="M37.5224 35.2159L34.7871 33.2105C34.6039 33.0761 34.3426 33.1876 34.3162 33.4134C34.1668 34.6877 33.3879 38.015 29.347 40.2498C28.6721 40.6231 28.4753 41.4593 28.906 42.0993C29.3672 42.7846 29.926 43.615 30.3211 44.2021C30.6005 44.6173 31.1731 44.7072 31.5655 44.3969C33.1077 43.1776 36.6061 40.0148 37.6943 35.6831C37.7384 35.5076 37.6684 35.3228 37.5224 35.2159Z" fill="#FFC839"/>
<path d="M28.769 46.4294C28.769 46.8067 28.4632 47.1126 28.0857 47.1126C27.7084 47.1126 27.4025 46.8067 27.4025 46.4294C27.4025 46.052 27.7084 45.7461 28.0857 45.7461C28.4632 45.7461 28.769 46.052 28.769 46.4294Z" fill="#FFC839"/>
<path d="M28.6167 49.8161C28.6167 50.1934 28.3107 50.4993 27.9334 50.4993C27.556 50.4993 27.2501 50.1934 27.2501 49.8161C27.2501 49.4387 27.556 49.1328 27.9334 49.1328C28.3107 49.1328 28.6167 49.4387 28.6167 49.8161Z" fill="#FFC839"/>
<path d="M26.1818 52.0957V53.3723C26.1818 53.6919 26.4443 53.9509 26.768 53.9509H29.0734C29.3972 53.9509 29.6597 53.6919 29.6597 53.3723V52.0957H26.1818Z" fill="#FF9100"/>
<path d="M27.8557 0C20.6356 0 14.7823 5.85309 14.7823 13.0733V14.6274H16.7415V13.3061C16.7415 7.168 21.7175 2.19198 27.8556 2.19198C33.9938 2.19198 38.9699 7.168 38.9699 13.3061V14.6274H40.929V13.0733C40.929 5.85309 35.0759 0 27.8557 0Z" fill="#E3E7FC"/>
<path d="M14.7823 13.0733V14.6274H16.7415V13.3061C16.7415 7.231 21.616 2.29502 27.6673 2.19439C27.6801 2.10897 27.6581 2.01808 27.5976 1.946C27.3024 1.59392 26.9661 0.889547 27.8556 0C20.6354 0 14.7823 5.85309 14.7823 13.0733Z" fill="#C8CEFC"/>
<path d="M40.4176 13.4492H39.3896C38.9923 13.4492 38.6702 13.7713 38.6702 14.1686V14.8078C38.6702 15.1332 38.389 15.382 38.065 15.3528L38.0587 15.3522C38.0989 15.4729 38.1208 15.601 38.1208 15.7336V24.3037C38.1208 24.4364 38.099 24.5645 38.0587 24.6851C38.7576 24.623 39.4141 24.4228 39.9977 24.1136C40.6998 23.7417 41.1369 23.01 41.1369 22.2155V17.3055V16.7533V14.1686C41.137 13.7712 40.8149 13.4492 40.4176 13.4492Z" fill="#C8CEFC"/>
<path d="M39.9976 18.781C39.4314 19.081 38.7962 19.2771 38.1207 19.3454V24.3031C38.1207 24.4358 38.0989 24.5639 38.0587 24.6845C38.7576 24.6224 39.4141 24.4224 39.9977 24.113C40.6998 23.7412 41.1369 23.0095 41.1369 22.2148V17.3048V16.8828C41.1369 17.6774 40.6997 18.4091 39.9976 18.781Z" fill="#B8C0F4"/>
<path d="M37.0013 25.5765H36.9018C36.2013 25.5765 35.6281 25.0034 35.6281 24.3028V15.7328C35.6281 15.0322 36.2013 14.459 36.9018 14.459H37.0013C37.7018 14.459 38.275 15.0322 38.275 15.7328V24.3028C38.2749 25.0034 37.7018 25.5765 37.0013 25.5765Z" fill="#E3E7FC"/>
<path d="M15.2936 13.4492H16.3216C16.7189 13.4492 17.041 13.7713 17.041 14.1686V14.8078C17.041 15.1332 17.3222 15.382 17.6462 15.3528L17.6525 15.3522C17.6123 15.4729 17.5905 15.601 17.5905 15.7336V24.3037C17.5905 24.4364 17.6123 24.5645 17.6525 24.6851C16.9536 24.623 16.2971 24.4228 15.7135 24.1136C15.0114 23.7417 14.5743 23.01 14.5743 22.2155V17.3055V16.7533V14.1686C14.5743 13.7712 14.8963 13.4492 15.2936 13.4492Z" fill="#B8C0F4"/>
<path d="M17.5904 19.236C16.9149 19.1678 16.2796 18.9717 15.7135 18.6716C15.0114 18.2998 14.5743 17.568 14.5743 16.7734V17.3048V22.2148C14.5743 23.0093 15.0115 23.7411 15.7135 24.113C16.2971 24.4223 16.9536 24.6223 17.6525 24.6845C17.6123 24.5639 17.5905 24.4359 17.5905 24.3031V19.236H17.5904Z" fill="#A4B0EA"/>
<path d="M18.7084 25.5765H18.8079C19.5084 25.5765 20.0817 25.0034 20.0817 24.3028V15.7328C20.0817 15.0322 19.5086 14.459 18.8079 14.459H18.7084C18.0078 14.459 17.4347 15.0322 17.4347 15.7328V24.3028C17.4347 25.0034 18.0078 25.5765 18.7084 25.5765Z" fill="#E3E7FC"/>
<path d="M37.0013 20.1682H36.9017C36.2012 20.1682 35.6281 19.595 35.6281 18.8945V24.3039C35.6281 25.0044 36.2012 25.5777 36.9017 25.5777H37.0013C37.7018 25.5777 38.2749 25.0045 38.2749 24.3039V18.8945C38.275 19.595 37.7018 20.1682 37.0013 20.1682Z" fill="#C8CEFC"/>
<path d="M18.8079 20.1682H18.7084C18.0078 20.1682 17.4347 19.595 17.4347 18.8945V24.3039C17.4347 25.0044 18.0078 25.5777 18.7084 25.5777H18.8079C19.5084 25.5777 20.0817 25.0045 20.0817 24.3039V18.8945C20.0816 19.595 19.5084 20.1682 18.8079 20.1682Z" fill="#C8CEFC"/>
<path d="M32.6237 33.6879C32.4898 33.2525 32.7344 32.791 33.1698 32.6571C34.816 32.1513 36.2936 31.5181 37.2432 31.0759C37.5944 30.9125 37.8645 30.6066 37.984 30.2367L39.2843 26.2122C39.5386 25.4254 39.0708 24.8929 38.973 24.6176C38.7715 24.2092 38.9394 23.7146 39.3479 23.513C39.7566 23.3115 40.2509 23.4795 40.4526 23.8879C40.5279 24.1227 41.3458 25.1971 40.8541 26.7194L39.5539 30.7438C39.2938 31.549 38.7052 32.2152 37.9395 32.5716C36.9428 33.0355 35.3903 33.7006 33.6544 34.234C33.217 34.3686 32.7569 34.1215 32.6237 33.6879Z" fill="#E3E7FC"/>
<path d="M28.7603 35.7526C27.9403 35.7526 27.2755 35.088 27.2755 34.2679C27.2755 33.4479 27.9402 32.7831 28.7603 32.7831C29.6977 32.7831 30.812 32.615 32.0722 32.2837C32.8657 32.0748 33.6771 32.5488 33.8857 33.3419C34.0943 34.135 33.6206 34.9469 32.8275 35.1554C31.3209 35.5516 29.9525 35.7526 28.7603 35.7526Z" fill="#FF4155"/>
<path d="M30.2582 33.7936C30.2582 33.3125 30.4622 32.8798 30.7869 32.5742C30.0437 32.7127 29.3647 32.7836 28.7603 32.7836C27.9403 32.7836 27.2755 33.4483 27.2755 34.2683C27.2755 35.0884 27.9402 35.7531 28.7603 35.7531C29.623 35.7531 30.5793 35.6462 31.6121 35.438C30.8406 35.2877 30.2582 34.609 30.2582 33.7936Z" fill="#E80054"/>
<path d="M46.2181 2.02734H38.6788C34.6608 2.02734 31.3732 5.31483 31.3732 9.33294C31.3732 13.351 34.6607 16.6385 38.6788 16.6385H43.8163C44.0603 16.6385 44.2582 16.8364 44.2582 17.0804V19.6425C44.2582 19.932 44.5725 20.1134 44.8227 19.9676C46.2334 19.1451 46.9319 18.0006 47.2773 17.0376C47.3848 16.7378 47.6307 16.507 47.9402 16.4315C51.1344 15.6522 53.5238 12.7582 53.5238 9.33283C53.5237 5.31494 50.2362 2.02734 46.2181 2.02734Z" fill="#49DAFC"/>
<path d="M31.3732 9.33294C31.3732 13.351 34.6607 16.6385 38.6787 16.6385H41.016C38.0888 13.7695 40.8072 10.2392 40.8072 10.2392L40.2636 8.43869C37.4689 5.15875 40.2636 2.03095 40.2636 2.03095L40.2582 2.02734H38.6788C34.6607 2.02734 31.3732 5.31494 31.3732 9.33294Z" fill="#26C6F7"/>
<path d="M37.3165 9.41978C37.3165 9.96239 36.8767 10.4022 36.3341 10.4022C35.7915 10.4022 35.3516 9.96239 35.3516 9.41978C35.3516 8.87718 35.7915 8.43738 36.3341 8.43738C36.8767 8.43738 37.3165 8.87718 37.3165 9.41978Z" fill="white"/>
<path d="M41.2461 9.41978C41.2461 9.96239 40.8063 10.4022 40.2637 10.4022C39.7211 10.4022 39.2813 9.96239 39.2813 9.41978C39.2813 8.87718 39.7211 8.43738 40.2637 8.43738C40.8063 8.43738 41.2461 8.87718 41.2461 9.41978Z" fill="white"/>
<path d="M45.1759 9.41978C45.1759 9.96239 44.7361 10.4022 44.1935 10.4022C43.6509 10.4022 43.2111 9.96239 43.2111 9.41978C43.2111 8.87718 43.6509 8.43738 44.1935 8.43738C44.7361 8.43738 45.1759 8.87718 45.1759 9.41978Z" fill="white"/>
<path d="M49.1056 9.41978C49.1056 9.96239 48.6658 10.4022 48.1232 10.4022C47.5805 10.4022 47.1407 9.96239 47.1407 9.41978C47.1407 8.87718 47.5805 8.43738 48.1232 8.43738C48.6658 8.43738 49.1056 8.87718 49.1056 9.41978Z" fill="white"/>
</g>
<defs>
<clipPath id="clip0_815_41365">
<rect width="56" height="56" fill="white"/>
</clipPath>
</defs>
</svg>
