<svg width="48" height="48" viewBox="0 0 48 48" fill="none" xmlns="http://www.w3.org/2000/svg">
<g clip-path="url(#clip0_3820_54281)">
<path d="M36.2731 18.207H46.3448C47.2578 18.2098 47.9973 18.9492 48 19.8622V23.1725C47.9973 24.0855 47.2578 24.825 46.3448 24.8277H1.65517C0.742178 24.825 0.00272673 24.0855 0 23.1725V19.8622C0.00272673 18.9492 0.742178 18.2098 1.65517 18.207H36.2731Z" fill="#8D8D8D"/>
<path d="M30.4135 24.8281H45.5169L41.9914 44.5909C41.6354 46.5648 39.9172 48.0007 37.9114 48.0005H10.0879C8.08214 48.0007 6.36393 46.5648 6.00794 44.5909L2.48242 24.8281H30.4135Z" fill="#C1C1C1"/>
<path d="M4.9643 22.3446C5.42137 22.3446 5.79189 21.9741 5.79189 21.517C5.79189 21.06 5.42137 20.6895 4.9643 20.6895C4.50724 20.6895 4.13672 21.06 4.13672 21.517C4.13672 21.9741 4.50724 22.3446 4.9643 22.3446Z" fill="#C1C1C1"/>
<path d="M9.9311 22.3446C10.3882 22.3446 10.7587 21.9741 10.7587 21.517C10.7587 21.06 10.3882 20.6895 9.9311 20.6895C9.47404 20.6895 9.10352 21.06 9.10352 21.517C9.10352 21.9741 9.47404 22.3446 9.9311 22.3446Z" fill="#C1C1C1"/>
<path d="M38.0678 22.3446C38.5249 22.3446 38.8954 21.9741 38.8954 21.517C38.8954 21.06 38.5249 20.6895 38.0678 20.6895C37.6108 20.6895 37.2402 21.06 37.2402 21.517C37.2402 21.9741 37.6108 22.3446 38.0678 22.3446Z" fill="#C1C1C1"/>
<path d="M43.0346 22.3446C43.4917 22.3446 43.8622 21.9741 43.8622 21.517C43.8622 21.06 43.4917 20.6895 43.0346 20.6895C42.5776 20.6895 42.207 21.06 42.207 21.517C42.207 21.9741 42.5776 22.3446 43.0346 22.3446Z" fill="#C1C1C1"/>
<path d="M25.6541 30.62C25.6541 29.7059 24.913 28.9648 23.9989 28.9648C23.0848 28.9648 22.3438 29.7059 22.3438 30.62V42.2062C22.3438 43.1203 23.0848 43.8614 23.9989 43.8614C24.913 43.8614 25.6541 43.1203 25.6541 42.2062V30.62Z" fill="#636363"/>
<path d="M35.5857 30.62C35.5857 29.7059 34.8447 28.9648 33.9306 28.9648C33.0164 28.9648 32.2754 29.7059 32.2754 30.62V42.2062C32.2754 43.1203 33.0164 43.8614 33.9306 43.8614C34.8447 43.8614 35.5857 43.1203 35.5857 42.2062V30.62Z" fill="#636363"/>
<path d="M15.7244 30.62C15.7244 29.7059 14.9834 28.9648 14.0692 28.9648C13.1551 28.9648 12.4141 29.7059 12.4141 30.62V42.2062C12.4141 43.1203 13.1551 43.8614 14.0692 43.8614C14.9834 43.8614 15.7244 43.1203 15.7244 42.2062V30.62Z" fill="#636363"/>
<path d="M23.9992 26.4828C31.3122 26.4828 37.2406 20.5544 37.2406 13.2414C37.2406 5.92837 31.3122 0 23.9992 0C16.6862 0 10.7578 5.92837 10.7578 13.2414C10.7578 20.5544 16.6862 26.4828 23.9992 26.4828Z" fill="#727272"/>
<path d="M30.6212 11.5855H25.6556V6.62002C25.6556 5.70589 24.9146 4.96484 24.0005 4.96484C23.0863 4.96484 22.3453 5.70589 22.3453 6.62002V11.5855H17.3798C16.4657 11.5855 15.7246 12.3266 15.7246 13.2407C15.7246 14.1548 16.4657 14.8959 17.3798 14.8959H22.3453V19.8614C22.3453 20.7755 23.0863 21.5166 24.0005 21.5166C24.9146 21.5166 25.6556 20.7755 25.6556 19.8614V14.8959H30.6212C31.5353 14.8959 32.2763 14.1548 32.2763 13.2407C32.2763 12.3266 31.5353 11.5855 30.6212 11.5855Z" fill="#ECF0F1"/>
</g>
<defs>
<clipPath id="clip0_3820_54281">
<rect width="48" height="48" fill="white"/>
</clipPath>
</defs>
</svg>
