<svg width="48" height="48" viewBox="0 0 48 48" fill="none" xmlns="http://www.w3.org/2000/svg">
<g clip-path="url(#clip0_3820_54220)">
<path d="M2.46484 5.76172L8.22454 0.00201752L22.463 14.2405L16.7033 20.0002L2.46484 5.76172Z" fill="#A1A1A1"/>
<path d="M21.4439 26.5569C21.4081 26.521 21.3733 26.4852 21.3378 26.4492L12.207 35.58C12.2426 35.6157 12.2776 35.6518 12.3133 35.6874C20.0935 43.4678 29.9853 47.7362 39.7741 48.0002L42.2398 45.5345L27.9992 31.2939C26.6865 30.639 24.0073 29.1203 21.4439 26.5569Z" fill="#B6B6B6"/>
<path d="M27.998 31.293L42.2388 45.5337L37.0329 36.9185L27.998 31.293Z" fill="#B6B6B6"/>
<path d="M21.3373 26.4481C18.8379 23.917 17.3515 21.2936 16.7064 20.0003L8.73567 13.4444L2.4657 5.75977L0 8.22555C0.262817 17.9693 4.49389 27.815 12.2065 35.5789L15.9727 30.2901L21.3373 26.4481Z" fill="#C5C5C5"/>
<path d="M16.7055 20.0004L2.46484 5.75977L8.73482 13.4445L16.7055 20.0004Z" fill="#C5C5C5"/>
<path d="M15.9732 30.2893L12.207 35.5781L21.3378 26.4473L15.9732 30.2893Z" fill="#C5C5C5"/>
<path d="M33.7587 25.5332L27.9982 31.2939L37.0329 36.9193L42.2388 45.5345L47.9994 39.7739L33.7587 25.5332Z" fill="#767676"/>
<path d="M33.7072 21.4895V18.6736H31.1731L31.3374 18.5093C32.7871 17.0596 34.7146 16.2612 36.7649 16.2612C38.8151 16.2612 40.7425 17.0596 42.1922 18.5093C43.4089 19.726 44.1806 21.3198 44.3844 23.0209H47.2161C47.0023 20.5695 45.9259 18.2606 44.1833 16.5182C42.2019 14.5367 39.5671 13.4453 36.7649 13.4453C35.8412 13.4453 34.9358 13.5646 34.0659 13.7946L28.7785 18.2331L26.3711 21.4895H33.7072Z" fill="#838383"/>
<path d="M29.1811 16.6828V14.1488H26.3652V21.4898H26.3702L34.0651 13.7949C32.296 14.2625 30.6738 15.1902 29.3454 16.5186L29.1811 16.6828Z" fill="#ACACAC"/>
</g>
<defs>
<clipPath id="clip0_3820_54220">
<rect width="48" height="48" fill="white"/>
</clipPath>
</defs>
</svg>
