<svg width="56" height="57" viewBox="0 0 56 57" fill="none" xmlns="http://www.w3.org/2000/svg">
<g clip-path="url(#clip0_815_41990)">
<path d="M28 56.5C43.464 56.5 56 43.964 56 28.5C56 13.036 43.464 0.5 28 0.5C12.536 0.5 0 13.036 0 28.5C0 43.964 12.536 56.5 28 56.5Z" fill="#1DD882"/>
<path d="M38.8467 16.6523H17.1533C14.6869 16.6523 12.6875 18.6517 12.6875 21.1181V21.1192C12.6875 23.5856 14.6869 25.585 17.1533 25.585H38.8467C41.3131 25.585 43.3125 23.5856 43.3125 21.1192V21.1181C43.3125 18.6517 41.3131 16.6523 38.8467 16.6523Z" fill="white"/>
<path d="M38.8467 31.418H17.1533C14.6869 31.418 12.6875 33.4174 12.6875 35.8837V35.8848C12.6875 38.3512 14.6869 40.3506 17.1533 40.3506H38.8467C41.3131 40.3506 43.3125 38.3512 43.3125 35.8848V35.8837C43.3125 33.4174 41.3131 31.418 38.8467 31.418Z" fill="white"/>
</g>
<defs>
<clipPath id="clip0_815_41990">
<rect width="56" height="56" fill="white" transform="translate(0 0.5)"/>
</clipPath>
</defs>
</svg>
