<svg width="56" height="56" viewBox="0 0 56 56" fill="none" xmlns="http://www.w3.org/2000/svg">
<g clip-path="url(#clip0_815_41977)">
<path d="M31.4138 55.0852L40.9738 49.566C46.6082 46.3132 50.0792 40.3014 50.0792 33.7955V10.2357C50.0792 9.02204 49.1318 8.01339 47.9197 7.95159C37.6752 7.42987 32.1121 3.25776 29.6283 0.68898C28.74 -0.22966 27.2592 -0.22966 26.371 0.68898C23.8872 3.25776 18.3239 7.42987 8.07942 7.95159C6.86733 8.01328 5.91992 9.02193 5.91992 10.2357V33.7955C5.91992 40.3014 9.39094 46.3131 15.0253 49.566L24.5853 55.0852C26.6981 56.305 29.301 56.305 31.4138 55.0852Z" fill="#E49542"/>
<path d="M21.3988 47.004C17.0963 47.004 13.011 46.0746 9.33203 44.4065C10.8173 46.4782 12.744 48.2483 15.0258 49.5656L24.5858 55.0847C26.6986 56.3045 29.3015 56.3045 31.4143 55.0847L40.9743 49.5656C46.6088 46.3127 50.0797 40.301 50.0797 33.795V23.5176C47.4028 36.9114 35.5801 47.004 21.3988 47.004Z" fill="#E27D47"/>
<path d="M27.9995 51.4475C27.6005 51.4475 27.207 51.3421 26.8614 51.1426L17.3013 45.6234C13.0891 43.1915 10.4724 38.6594 10.4724 33.7955V13.3503C10.4724 12.7784 10.8969 12.2933 11.4643 12.222C19.0521 11.2673 24.1536 8.44596 27.2969 5.96654C27.7091 5.64136 28.2899 5.64136 28.7022 5.96654C31.8456 8.44607 36.947 11.2673 44.5347 12.222C45.1022 12.2934 45.5267 12.7785 45.5267 13.3503V33.7956C45.5267 38.6595 42.91 43.1917 38.6977 45.6235L29.1377 51.1427C28.7921 51.3421 28.3985 51.4475 27.9995 51.4475Z" fill="#FFE07D"/>
<path d="M17.5289 43.135C16.3257 43.135 15.1399 43.0607 13.9749 42.9195C14.9228 43.9771 16.0399 44.895 17.3015 45.6233L26.8615 51.1425C27.207 51.342 27.6007 51.4475 27.9997 51.4475C28.3987 51.4475 28.7922 51.342 29.1378 51.1425L38.6979 45.6233C42.9101 43.1914 45.5268 38.6593 45.5268 33.7954V22.3711C41.8895 34.3867 30.7317 43.135 17.5289 43.135Z" fill="#FFD064"/>
<path d="M24.5847 38.8296C23.7108 38.8296 22.837 38.4963 22.1702 37.8296L15.3409 31.0003C14.0074 29.6668 14.0074 27.5047 15.3409 26.1712C16.6744 24.8377 18.8365 24.8377 20.17 26.1712L24.5848 30.586L35.8289 19.3419C37.1624 18.0084 39.3244 18.0084 40.6579 19.3419C41.9914 20.6754 41.9914 22.8375 40.6579 24.171L26.9992 37.8295C26.3325 38.4962 25.4587 38.8296 24.5847 38.8296Z" fill="#95D6A4"/>
<path d="M40.6579 19.3417C40.3122 18.996 39.9106 18.7407 39.4824 18.5742C39.958 19.7978 39.7027 21.24 38.715 22.2279L25.0564 35.8864C24.3897 36.5532 23.5159 36.8864 22.642 36.8864C21.7681 36.8864 20.8943 36.5532 20.2275 35.8864L22.1705 37.8294C22.8372 38.4961 23.711 38.8294 24.5849 38.8294C25.4588 38.8294 26.3326 38.4961 26.9994 37.8294L40.6579 24.1708C41.9914 22.8373 41.9914 20.6752 40.6579 19.3417Z" fill="#78C2A4"/>
</g>
<defs>
<clipPath id="clip0_815_41977">
<rect width="56" height="56" fill="white"/>
</clipPath>
</defs>
</svg>
