<svg width="56" height="57" viewBox="0 0 56 57" fill="none" xmlns="http://www.w3.org/2000/svg">
<path d="M34.752 2.25977H21.2469C19.585 2.25977 18.5449 4.06 19.3767 5.49955L24.1021 13.6862H31.8968L36.623 5.49955C37.4556 4.06 36.4155 2.25977 34.752 2.25977Z" fill="#FEBB50"/>
<path d="M32.8641 17.4979H23.1358C13.512 20.4635 6.62402 28.413 6.62402 37.756C6.62402 38.1397 6.63555 38.521 6.65861 38.8998C7.20297 47.8928 14.9969 54.7421 24.0063 54.7421H31.9928C41.0014 54.7421 48.7953 47.8928 49.3405 38.8998C49.3636 38.521 49.3751 38.1397 49.3751 37.756C49.3751 28.413 42.4863 20.4643 32.8641 17.4979Z" fill="#FEBB50"/>
<path d="M33.9348 42.7406C33.4514 43.4719 32.7638 44.0558 31.8719 44.4922C30.98 44.9279 29.9465 45.1815 28.7738 45.2515L28.7779 47.0625C28.7787 47.284 28.7063 47.4668 28.563 47.6118C28.4188 47.7559 28.2261 47.8292 27.989 47.8292C27.7683 47.83 27.5854 47.7633 27.4405 47.6274C27.2947 47.4907 27.2231 47.3038 27.2223 47.0666L27.2181 45.2548C25.3808 45.1395 23.6613 44.7451 22.0628 44.0681C21.8586 43.9833 21.6873 43.8433 21.5506 43.6489C21.4147 43.4529 21.3455 43.2454 21.3447 43.0231C21.3447 42.7348 21.4419 42.4844 21.6371 42.2712C21.8314 42.0579 22.0826 41.95 22.389 41.9492C22.5594 41.9492 22.72 41.9829 22.874 42.0513C24.2526 42.6599 25.6987 42.9967 27.2132 43.0618L27.2 37.1941C26.0421 36.8902 25.0679 36.5616 24.2765 36.2059C23.4851 35.8509 22.8246 35.3453 22.2959 34.6922C21.7672 34.0392 21.5012 33.2099 21.4987 32.2068C21.4971 31.3232 21.712 30.5054 22.1444 29.7568C22.5767 29.0066 23.2207 28.3848 24.0788 27.8899C24.937 27.3949 25.9688 27.0943 27.177 26.9898L27.1728 25.2035C27.172 24.9836 27.2437 24.7959 27.3886 24.6427C27.5327 24.4887 27.7147 24.4121 27.9354 24.4121C28.157 24.4113 28.3439 24.4871 28.4979 24.6402C28.6511 24.7926 28.7285 24.9804 28.7285 25.2002L28.7326 26.9609C30.3986 27.0252 31.8793 27.3027 33.1731 27.7927C33.6499 27.9615 33.8887 28.3016 33.8895 28.8114C33.8904 29.084 33.7973 29.3302 33.6112 29.5518C33.4243 29.7733 33.178 29.8836 32.8717 29.8845C32.7704 29.8845 32.6337 29.8523 32.4632 29.784C31.3061 29.3788 30.0643 29.1523 28.7375 29.1046L28.7515 35.1756C29.977 35.4614 30.9924 35.7735 31.8019 36.112C32.6106 36.4513 33.2876 36.9545 33.8344 37.6248C34.3795 38.2968 34.653 39.1846 34.6563 40.2889C34.6579 41.1907 34.4183 42.0076 33.9348 42.7406ZM24.6792 33.7559C25.2499 34.1627 26.0883 34.5102 27.1943 34.796L27.1819 29.1836C26.1615 29.3228 25.3454 29.6341 24.7352 30.12C24.1241 30.6059 23.8186 31.2408 23.8211 32.0232C23.8227 32.7709 24.1085 33.3482 24.6792 33.7559ZM32.3594 40.1415C32.3578 39.4786 32.0547 38.9647 31.4503 38.5999C30.8458 38.2359 29.9481 37.8933 28.7565 37.5729L28.7697 43.0585C31.167 42.883 32.3635 41.9105 32.3594 40.1415Z" fill="white"/>
<path d="M36.8447 15.5973C36.8447 16.2701 36.5737 16.8837 36.1315 17.3251C35.6893 17.7673 35.0667 18.0383 34.3939 18.0383H21.5954C20.2399 18.0383 19.1553 16.9438 19.1553 15.5973C19.1553 14.9245 19.4262 14.3019 19.8684 13.8597C20.3099 13.4174 20.9234 13.1465 21.5954 13.1465H34.3939C35.7494 13.1465 36.8447 14.2418 36.8447 15.5973Z" fill="#C17E48"/>
</svg>
