<svg width="40" height="40" viewBox="0 0 40 40" fill="none" xmlns="http://www.w3.org/2000/svg">
<path fill-rule="evenodd" clip-rule="evenodd" d="M20.5319 37.1418C21.0128 37.5356 21.2522 37.7497 21.4938 37.7588C21.7331 37.7496 21.9748 37.5355 22.4558 37.1418L35.1378 24.1557C38.8888 20.1424 38.8888 13.5734 35.1378 9.55789C31.7297 5.91071 26.1331 6.72125 22.5823 10.2141L21.9149 10.8703C21.5283 11.2502 21.4547 11.2502 21.0588 10.8611L20.403 10.2141C16.8591 6.71891 11.2556 5.91071 7.84744 9.55789C4.09643 13.5734 4.09643 20.1424 7.84744 24.1557L9.36854 25.7145L20.5319 37.1418Z" fill="#FD8087"/>
<path fill-rule="evenodd" clip-rule="evenodd" d="M24.1446 8.93894C25.9694 11.5868 27.028 14.732 27.028 18.1052C27.028 18.4735 27.0142 18.8374 26.9889 19.1966C26.7864 22.1921 25.7462 24.9782 24.0847 27.3567C23.3529 28.4043 22.5014 29.3736 21.5442 30.2486C20.5225 31.1835 19.3833 32.0078 18.1475 32.7008C17.7241 32.938 17.2892 33.1613 16.8428 33.3685L20.5317 37.1446C21.0126 37.5384 21.252 37.7525 21.4936 37.7617C21.7329 37.7525 21.9746 37.5383 22.4556 37.1446L26.3354 33.1705L35.1375 24.1584C38.1015 20.9878 38.7229 16.2194 37.0039 12.3789C36.5459 11.3589 35.9246 10.4033 35.1375 9.56058C34.6197 9.008 34.0514 8.55667 33.4484 8.20214C31.4832 7.04863 29.1428 6.91738 26.9336 7.59425C25.9648 7.89128 25.019 8.34722 24.1446 8.93894Z" fill="#FE636E"/>
<path d="M25.2335 22.7516C25.2299 22.7516 25.2263 22.7515 25.2228 22.7515C25.0063 22.7477 24.8085 22.628 24.7043 22.4382L21.5841 16.7494L19.261 20.8105C19.1557 20.9946 18.9617 21.1099 18.7497 21.1144C18.5362 21.1183 18.339 21.0117 18.2262 20.8323L16.7832 18.538L15.6942 20.3477C15.585 20.5292 15.3888 20.6402 15.1771 20.6402H11.4054C11.072 20.6402 10.8018 20.3698 10.8018 20.0363C10.8018 19.7027 11.072 19.4323 11.4054 19.4323H14.8359L16.2546 17.0746C16.3628 16.895 16.5562 16.7842 16.7658 16.7822C16.7679 16.7821 16.7698 16.7821 16.7718 16.7821C16.9791 16.7821 17.1721 16.8886 17.2826 17.0644L18.7125 19.3376L21.0713 15.2141C21.1789 15.026 21.3789 14.9102 21.5951 14.9102C21.597 14.9102 21.5987 14.9102 21.6006 14.9102C21.8189 14.9122 22.0193 15.032 22.1243 15.2236L25.2549 20.9315L26.8343 18.2789C26.9431 18.0961 27.1401 17.9841 27.3528 17.9841H32.3833C32.7167 17.9841 32.9869 18.2545 32.9869 18.588C32.9869 18.9215 32.7167 19.1919 32.3833 19.1919H27.6959L25.752 22.4567C25.643 22.6397 25.4459 22.7516 25.2335 22.7516Z" fill="#F8F2F0"/>
<path fill-rule="evenodd" clip-rule="evenodd" d="M33.4484 13.4252C37.0567 13.4252 40 10.4803 40 6.86773C40 3.25742 37.0567 0.3125 33.4484 0.3125C29.8378 0.3125 26.8945 3.25742 26.8945 6.86773C26.8945 10.4803 29.8378 13.4252 33.4484 13.4252Z" fill="#F8F2F0"/>
<path fill-rule="evenodd" clip-rule="evenodd" d="M31.0992 0.745391C33.4027 1.76313 35.009 4.06563 35.009 6.7457C35.009 6.78711 35.009 6.82859 35.0067 6.86773C34.9929 7.62984 34.8502 8.35977 34.5971 9.03438C33.9436 10.7935 32.5536 12.1957 30.8047 12.868C31.6124 13.2273 32.5076 13.4252 33.4488 13.4252C34.7582 13.4252 35.9802 13.0407 37.0042 12.3776C38.8084 11.2079 40.0004 9.17711 40.0004 6.86773C40.0004 3.2482 37.0663 0.3125 33.4487 0.3125C32.6203 0.3125 31.8287 0.464453 31.0992 0.745391Z" fill="#D6DCEA"/>
<path d="M35.8324 6.26422H34.0519V4.48281C34.0519 4.1493 33.7817 3.87891 33.4483 3.87891C33.115 3.87891 32.8448 4.1493 32.8448 4.48281V6.2643H31.0643C30.7309 6.2643 30.4607 6.53469 30.4607 6.8682C30.4607 7.20172 30.7309 7.47211 31.0643 7.47211H32.8448V9.25359C32.8448 9.58711 33.115 9.8575 33.4483 9.8575C33.7817 9.8575 34.0519 9.58711 34.0519 9.25359V7.47203H35.8324C36.1658 7.47203 36.436 7.20164 36.436 6.86812C36.436 6.53461 36.1658 6.26422 35.8324 6.26422Z" fill="#FD8087"/>
<path fill-rule="evenodd" clip-rule="evenodd" d="M5.59 27.174L4.24609 31.5349L5.59 36.156L11.7803 37.8414L16.8016 39.2068C19.731 40.1186 21.0243 39.5982 23.7191 38.7325L33.5937 35.5643C36.4287 34.6549 36.0054 30.7544 31.8563 32.0875L26.3356 33.1674L25.4335 33.3446C24.0942 33.6048 23.9101 33.713 22.5593 33.5035L18.1478 32.6977L17.347 32.5503C15.5382 31.9724 16.2423 29.5502 17.821 29.7896C18.8888 29.9255 20.3202 30.1188 21.5444 30.2455C21.5697 30.2477 21.595 30.2501 21.618 30.2524C23.9814 30.4918 24.9295 28.7258 24.085 27.3535C23.7652 26.8309 23.1829 26.3635 22.3199 26.0895L18.9946 25.4793C16.8384 25.0833 15.3057 25.576 11.9598 26.1263L10.0751 26.4372L5.59 27.174Z" fill="#FED1A3"/>
<path fill-rule="evenodd" clip-rule="evenodd" d="M0 26.3941V37.0202C0 37.1537 0.140391 37.262 0.310703 37.262H5.2768C5.44938 37.262 5.58977 37.1538 5.58977 37.0202V36.1567V27.1747V26.3941C5.58977 26.2606 5.44938 26.1523 5.2768 26.1523H0.310703C0.140391 26.1524 0 26.2606 0 26.3941Z" fill="#99E6FC"/>
<path fill-rule="evenodd" clip-rule="evenodd" d="M0 35.3906V37.0231C0 37.1566 0.140391 37.2649 0.310703 37.2649H5.2768C5.44938 37.2649 5.58977 37.1567 5.58977 37.0231V36.1597V35.3906C5.58977 35.5219 5.44938 35.6324 5.2768 35.6324H0.310703C0.140391 35.6324 0 35.5219 0 35.3906Z" fill="#62DBFB"/>
<path fill-rule="evenodd" clip-rule="evenodd" d="M5.58972 35.3884V36.1574L11.78 37.8428L16.8013 39.2082C19.7307 40.12 21.024 39.5996 23.7188 38.7339L33.5934 35.5657C35.1928 35.0545 35.7543 33.5902 35.1974 32.6484C34.9235 33.1918 34.3874 33.6799 33.5934 33.9332L23.7188 37.1014C21.024 37.9648 19.7307 38.4875 16.8013 37.5757L11.78 36.2103L5.58972 34.5226V35.3884Z" fill="#FFBC85"/>
<path fill-rule="evenodd" clip-rule="evenodd" d="M17.821 28.1604C16.5691 27.9716 15.8672 29.4521 16.5299 30.3616C16.7946 29.9678 17.2503 29.7077 17.821 29.7928C18.8887 29.9287 20.3201 30.122 21.5443 30.2487L21.618 30.2555C23.8709 30.4835 24.8374 28.8925 24.1931 27.5547C24.0159 27.8955 23.719 28.1879 23.3094 28.3836C22.8721 28.5931 22.3038 28.6921 21.618 28.623L21.5443 28.6162C20.3201 28.4896 18.8888 28.2962 17.821 28.1604Z" fill="#FFBC85"/>
</svg>
