<svg width="40" height="40" viewBox="0 0 40 40" fill="none" xmlns="http://www.w3.org/2000/svg">
<path d="M16.2958 4.25184L0.579433 31.4735C-1.0669 34.325 0.990995 37.8893 4.28357 37.8893H35.7164C39.009 37.8893 41.0669 34.3249 39.4205 31.4735L23.7041 4.25184C22.0579 1.40043 17.9421 1.40043 16.2958 4.25184Z" fill="#DA4A54"/>
<path d="M4.2836 34.6695C3.75219 34.6695 3.48149 34.3381 3.36743 34.1405C3.25337 33.943 3.10173 33.5429 3.36743 33.0826L19.0838 5.86102C19.3495 5.40078 19.7719 5.33203 20 5.33203C20.2281 5.33203 20.6505 5.40078 20.9162 5.86102L36.6326 33.0826C36.8983 33.5428 36.7466 33.943 36.6326 34.1405C36.5185 34.338 36.2478 34.6695 35.7164 34.6695H4.2836V34.6695Z" fill="#F6E266"/>
<path d="M20 25.5577C18.8766 25.5577 17.9659 24.647 17.9659 23.5236V14.2098C17.9659 13.0865 18.8766 12.1758 20 12.1758C21.1234 12.1758 22.0341 13.0865 22.0341 14.2098V23.5237C22.0341 24.647 21.1234 25.5577 20 25.5577Z" fill="#544F57"/>
<path d="M20 31.8103C21.1234 31.8103 22.0341 30.8996 22.0341 29.7763C22.0341 28.6529 21.1234 27.7422 20 27.7422C18.8766 27.7422 17.9659 28.6529 17.9659 29.7763C17.9659 30.8996 18.8766 31.8103 20 31.8103Z" fill="#544F57"/>
</svg>
