<svg width="49" height="48" viewBox="0 0 49 48" fill="none" xmlns="http://www.w3.org/2000/svg">
<path d="M26.75 1.5C27.575 1.5 28.25 2.175 28.25 3C28.25 3.4125 28.085 3.7875 27.8075 4.0575C27.5375 4.335 27.1625 4.5 26.75 4.5H25.25H11.75H10.25C9.425 4.5 8.75 3.825 8.75 3C8.75 2.5875 8.915 2.2125 9.1925 1.9425C9.4625 1.665 9.8375 1.5 10.25 1.5H26.75Z" fill="#CCD1D9"/>
<path d="M34.7075 26.91C34.9025 27.9075 35 28.9425 35 30C35 31.7175 34.7375 33.3825 34.25 34.9425L34.2275 34.935C33.8975 32.7975 30.29 30.75 26 30.75C22.19 30.75 18.6125 33.1425 16.2275 35.2275V35.235C13.0475 32.9925 9.8675 30.75 6.5 30.75C5.135 30.75 3.62 31.0575 2.075 31.545C2.0225 31.035 2 30.525 2 30C2 23.295 6.005 17.5275 11.75 14.9475V4.5H25.25V9.9675L22.25 11.25V17.25L17 19.5V25.5L22.25 27.75L27.5 25.5L32.75 27.75L34.7075 26.91Z" fill="#E6E9ED"/>
<path d="M16.2275 35.235V35.2275C18.6125 33.1425 22.19 30.75 26 30.75C30.29 30.75 33.8975 32.7975 34.2275 34.935L34.25 34.9425C34.01 35.7075 33.7175 36.4425 33.3725 37.155C32.0075 38.6175 29.195 39.75 26 39.75C22.6175 39.75 19.4225 37.4925 16.2275 35.235Z" fill="#4FC1E9"/>
<path d="M16.2277 35.235C19.4227 37.4925 22.6177 39.75 26.0002 39.75C29.1952 39.75 32.0077 38.6175 33.3727 37.155C30.7102 42.6825 25.0477 46.5 18.5002 46.5C9.9052 46.5 2.8477 39.93 2.0752 31.545C3.6202 31.0575 5.1352 30.75 6.5002 30.75C9.8677 30.75 13.0477 32.9925 16.2277 35.235Z" fill="#69D6F4"/>
<path d="M26 36.75C26.8284 36.75 27.5 36.0784 27.5 35.25C27.5 34.4216 26.8284 33.75 26 33.75C25.1716 33.75 24.5 34.4216 24.5 35.25C24.5 36.0784 25.1716 36.75 26 36.75Z" fill="#3BAFDA"/>
<path d="M17 43.5C17.8284 43.5 18.5 42.8284 18.5 42C18.5 41.1716 17.8284 40.5 17 40.5C16.1716 40.5 15.5 41.1716 15.5 42C15.5 42.8284 16.1716 43.5 17 43.5Z" fill="#4FC1E9"/>
<path d="M8.75 37.5C9.57843 37.5 10.25 36.8284 10.25 36C10.25 35.1716 9.57843 34.5 8.75 34.5C7.92157 34.5 7.25 35.1716 7.25 36C7.25 36.8284 7.92157 37.5 8.75 37.5Z" fill="#4FC1E9"/>
<path d="M38 38.25H47V41.25H38V38.25Z" fill="#B4DD7F"/>
<path d="M38 32.25H47V35.25H38V32.25Z" fill="#B4DD7F"/>
<path d="M38 19.5V25.5L34.7075 26.91L32.75 27.75L27.5 25.5V19.5L32.75 17.25L35.5325 18.4425L38 19.5Z" fill="#FFEAA7"/>
<path d="M32.75 11.25V17.25L27.5 19.5L22.25 17.25V11.25L25.25 9.9675L27.5 9L32.75 11.25Z" fill="#FFEAA7"/>
<path d="M27.5 19.5V25.5L22.25 27.75L17 25.5V19.5L22.25 17.25L27.5 19.5Z" fill="#FFEAA7"/>
<path d="M46.25 12.75V6H44.75V12.75H43.25V9.75H41.75V12.75H40.25V8.25H38.75V12.75H37.5365L35.1748 17.4735L33.5 16.7557V10.7557L27.5 8.184L26 8.82675V5.25H26.75C27.9905 5.25 29 4.2405 29 3C29 1.7595 27.9905 0.75 26.75 0.75H10.25C9.0095 0.75 8 1.7595 8 3C8 4.2405 9.0095 5.25 10.25 5.25H11V14.4667C5.06075 17.3385 1.25 23.3827 1.25 30C1.25 39.5122 8.9885 47.25 18.5 47.25C28.0115 47.25 35.75 39.5122 35.75 30C35.75 29.118 35.6652 28.2397 35.5332 27.3735L38.75 25.9943V19.0057L36.5563 18.0653L38.4635 14.25H47.75V12.75H46.25ZM32 11.7443V16.7557L29.75 17.7203L27.5 18.6847L25.25 17.7203L23 16.7557V11.7443L27.5 9.816L32 11.7443ZM22.25 26.934L17.75 25.0057V19.9943L22.25 18.066L24.5 19.0305L26.75 19.995V25.0065L22.25 26.934ZM9.5 3C9.5 2.586 9.83675 2.25 10.25 2.25H26.75C27.1632 2.25 27.5 2.586 27.5 3C27.5 3.414 27.1632 3.75 26.75 3.75H10.25C9.83675 3.75 9.5 3.414 9.5 3ZM18.5 45.75C10.5245 45.75 3.9305 39.7852 2.9045 32.0857C4.25375 31.704 5.4665 31.5 6.5 31.5C9.63725 31.5 12.6395 33.6188 15.8173 35.8628C19.0468 38.142 22.3873 40.5 26 40.5C27.7775 40.5 29.516 40.1483 30.995 39.5498C28.1143 43.3102 23.5925 45.75 18.5 45.75ZM32.708 36.7523C31.5605 37.8877 29.0945 39 26 39C23.117 39 20.3472 37.2098 17.4508 35.178C19.6737 33.378 22.766 31.5 26 31.5C29.8738 31.5 33.0568 33.2805 33.4513 34.9222C33.2435 35.5522 32.99 36.1597 32.708 36.7523ZM34.25 30C34.25 30.987 34.1473 31.9485 33.9733 32.886C32.438 31.1887 29.3622 30 26 30C22.1705 30 18.6147 32.2448 16.1772 34.281C13.1045 32.1187 9.92525 30 6.5 30C5.4035 30 4.15025 30.1957 2.7785 30.564C2.77175 30.375 2.75 30.1905 2.75 30C2.75 23.8095 6.40325 18.1687 12.0575 15.6285L12.5 15.4298V5.25H24.5V9.4695L21.5 10.755V16.755L16.25 19.005V25.9935L22.25 28.5653L27.5 26.3153L32.75 28.5653L34.106 27.984C34.1915 28.6523 34.25 29.3242 34.25 30ZM37.25 25.0057L32.75 26.934L28.25 25.0057V19.9943L30.5 19.0297L32.75 18.0653L37.25 19.9935V25.0057Z" fill="black"/>
<path d="M40.25 15.75H47.75V17.25H40.25V15.75Z" fill="black"/>
<path d="M40.25 18.75H47.75V20.25H40.25V18.75Z" fill="black"/>
<path d="M43.25 21.75H44.75V23.25H43.25V21.75Z" fill="black"/>
<path d="M40.25 21.75H41.75V23.25H40.25V21.75Z" fill="black"/>
<path d="M46.25 21.75H47.75V23.25H46.25V21.75Z" fill="black"/>
<path d="M37.25 36H47.75V31.5H37.25V36ZM46.25 34.5H44.75V33H46.25V34.5ZM38.75 33H43.25V34.5H38.75V33Z" fill="black"/>
<path d="M37.25 42H47.75V37.5H37.25V42ZM38.75 39H46.25V40.5H38.75V39Z" fill="black"/>
<path d="M8.75 33.75C7.5095 33.75 6.5 34.7595 6.5 36C6.5 37.2405 7.5095 38.25 8.75 38.25C9.9905 38.25 11 37.2405 11 36C11 34.7595 9.9905 33.75 8.75 33.75ZM8.75 36.75C8.33675 36.75 8 36.414 8 36C8 35.586 8.33675 35.25 8.75 35.25C9.16325 35.25 9.5 35.586 9.5 36C9.5 36.414 9.16325 36.75 8.75 36.75Z" fill="black"/>
<path d="M26 33C24.7595 33 23.75 34.0095 23.75 35.25C23.75 36.4905 24.7595 37.5 26 37.5C27.2405 37.5 28.25 36.4905 28.25 35.25C28.25 34.0095 27.2405 33 26 33ZM26 36C25.5868 36 25.25 35.664 25.25 35.25C25.25 34.836 25.5868 34.5 26 34.5C26.4132 34.5 26.75 34.836 26.75 35.25C26.75 35.664 26.4132 36 26 36Z" fill="black"/>
<path d="M17 39.75C15.7595 39.75 14.75 40.7595 14.75 42C14.75 43.2405 15.7595 44.25 17 44.25C18.2405 44.25 19.25 43.2405 19.25 42C19.25 40.7595 18.2405 39.75 17 39.75ZM17 42.75C16.5868 42.75 16.25 42.414 16.25 42C16.25 41.586 16.5868 41.25 17 41.25C17.4132 41.25 17.75 41.586 17.75 42C17.75 42.414 17.4132 42.75 17 42.75Z" fill="black"/>
<path d="M8.75 24C7.5095 24 6.5 25.0095 6.5 26.25C6.5 27.4905 7.5095 28.5 8.75 28.5V27C8.33675 27 8 26.664 8 26.25C8 25.836 8.33675 25.5 8.75 25.5C9.16325 25.5 9.5 25.836 9.5 26.25H11C11 25.0095 9.9905 24 8.75 24Z" fill="black"/>
</svg>
