<svg width="48" height="48" viewBox="0 0 48 48" fill="none" xmlns="http://www.w3.org/2000/svg">
<path d="M44.25 29.25H23.25C22.4216 29.25 21.75 29.9216 21.75 30.75V44.25C21.75 45.0784 22.4216 45.75 23.25 45.75H44.25C45.0784 45.75 45.75 45.0784 45.75 44.25V30.75C45.75 29.9216 45.0784 29.25 44.25 29.25Z" fill="#00B378"/>
<path d="M42.75 11.25H25.5L21.75 15V27.75C21.75 28.1478 21.908 28.5294 22.1893 28.8107C22.4706 29.092 22.8522 29.25 23.25 29.25H42.75C43.1478 29.25 43.5294 29.092 43.8107 28.8107C44.092 28.5294 44.25 28.1478 44.25 27.75V12.75C44.25 12.3522 44.092 11.9706 43.8107 11.6893C43.5294 11.408 43.1478 11.25 42.75 11.25Z" fill="#31C292"/>
<path d="M15.5916 19.1833L13.5 15H4.5L2.40836 19.1833C2.30422 19.3916 2.25 19.6212 2.25 19.8541V44.25C2.25 44.6478 2.40804 45.0294 2.68934 45.3107C2.97064 45.592 3.35218 45.75 3.75 45.75H14.25C14.6478 45.75 15.0294 45.592 15.3107 45.3107C15.592 45.0294 15.75 44.6478 15.75 44.25V19.8541C15.75 19.6212 15.6958 19.3916 15.5916 19.1833Z" fill="#31C292"/>
<path d="M12 11.25H6C5.60218 11.25 5.22065 11.408 4.93934 11.6893C4.65804 11.9706 4.5 12.3522 4.5 12.75V15H13.5V12.75C13.5 12.3522 13.342 11.9706 13.0607 11.6893C12.7794 11.408 12.3978 11.25 12 11.25Z" fill="#31C292"/>
<path d="M2.29297 19.5H15.707C15.6806 19.3904 15.6419 19.2842 15.5916 19.1833L13.5 15H4.50001L2.40837 19.1833C2.38323 19.2338 2.36095 19.2857 2.34165 19.3387C2.32246 19.3915 2.30621 19.4454 2.29297 19.5Z" fill="#AAE5CF"/>
<path d="M11.25 45.75H14.25C14.6478 45.75 15.0294 45.592 15.3107 45.3107C15.592 45.0294 15.75 44.6478 15.75 44.25V19.8541C15.75 19.6212 15.6958 19.3916 15.5916 19.1833L13.5 15L11.25 19.5V45.75Z" fill="#00B378"/>
<path d="M18.3104 20.5607L22.9391 25.1893C23.0784 25.3286 23.2438 25.4391 23.4257 25.5145C23.6077 25.5899 23.8028 25.6287 23.9998 25.6287C24.1968 25.6287 24.3918 25.5899 24.5738 25.5145C24.7558 25.4391 24.9211 25.3286 25.0604 25.1893L33.3104 16.9393C33.4497 16.8001 33.5602 16.6347 33.6356 16.4527C33.711 16.2707 33.7498 16.0757 33.7498 15.8787V9.75H27.6211C27.4241 9.75 27.2291 9.7888 27.0471 9.86418C26.8651 9.93956 26.6997 10.0501 26.5604 10.1893L18.3104 18.4393C18.1711 18.5786 18.0607 18.744 17.9853 18.926C17.9099 19.108 17.8711 19.303 17.8711 19.5C17.8711 19.697 17.9099 19.892 17.9853 20.074C18.0607 20.256 18.1711 20.4214 18.3104 20.5607Z" fill="#486CBC"/>
<path d="M30.9663 11.4736L38.0259 4.41408L39.0864 5.47458L32.0268 12.5341L30.9663 11.4736Z" fill="#5B7BC3"/>
<path d="M27.0001 13.5V15H28.1894L26.2501 16.9394L24.7501 15.4394L20.8447 19.3447L21.9054 20.4053L24.7501 17.5606L26.2501 19.0606L29.2501 16.0607V17.25H30.7501V13.5H27.0001Z" fill="#94A9D8"/>
<path d="M24.75 27.75H21.75C21.3522 27.75 20.9706 27.908 20.6893 28.1893C20.408 28.4706 20.25 28.8522 20.25 29.25V30.75H26.25V29.25C26.25 28.8522 26.092 28.4706 25.8107 28.1893C25.5294 27.908 25.1478 27.75 24.75 27.75Z" fill="#FFE19E"/>
<path d="M27.3107 35.5607L25.9393 34.1893C25.658 33.908 25.5 33.5265 25.5 33.1287V30.75H21V33.1287C21 33.5265 20.842 33.908 20.5607 34.1893L19.1893 35.5607C18.908 35.842 18.75 36.2235 18.75 36.6213V44.25C18.75 44.6478 18.908 45.0294 19.1893 45.3107C19.4706 45.592 19.8522 45.75 20.25 45.75H26.25C26.6478 45.75 27.0294 45.592 27.3107 45.3107C27.592 45.0294 27.75 44.6478 27.75 44.25V36.6213C27.75 36.2235 27.592 35.842 27.3107 35.5607Z" fill="#FFD168"/>
<path d="M15.75 31.0074V28.5L16.9393 27.3107C17.1383 27.1117 17.25 26.842 17.25 26.5607C17.25 26.4214 17.2226 26.2834 17.1693 26.1548C17.116 26.0261 17.0378 25.9092 16.9393 25.8107C16.8408 25.7122 16.7239 25.634 16.5952 25.5807C16.4666 25.5274 16.3286 25.5 16.1893 25.5H10.8107C10.6714 25.5 10.5334 25.5274 10.4048 25.5807C10.2761 25.634 10.1592 25.7122 10.0607 25.8107C9.96217 25.9091 9.88404 26.0261 9.83074 26.1548C9.77743 26.2834 9.75 26.4214 9.75 26.5607C9.75 26.842 9.86175 27.1117 10.0607 27.3107L11.25 28.5V31.0074C11.25 31.803 10.9339 32.5661 10.3713 33.1287L8.68934 34.8107C8.55005 34.9499 8.43956 35.1153 8.36418 35.2973C8.2888 35.4793 8.25 35.6743 8.25 35.8713V44.25C8.25 44.6478 8.40804 45.0294 8.68934 45.3107C8.97064 45.592 9.35218 45.75 9.75 45.75H17.25C17.6478 45.75 18.0294 45.592 18.3107 45.3107C18.592 45.0294 18.75 44.6478 18.75 44.25V35.8713C18.75 35.6743 18.7112 35.4793 18.6358 35.2973C18.5604 35.1153 18.4499 34.9499 18.3107 34.8107L16.6287 33.1287C16.0661 32.5661 15.75 31.803 15.75 31.0074Z" fill="#FFE19E"/>
<path d="M24 1.5H22.5V3.75H20.25V5.25H22.5V7.5H24V5.25H26.25V3.75H24V1.5Z" fill="#FFE19E"/>
<path d="M11.25 3.75H9.75V5.25H8.25V6.75H9.75V8.25H11.25V6.75H12.75V5.25H11.25V3.75Z" fill="#FFE19E"/>
<path d="M46.5 3.75H44.25V1.5H42.75V3.75H40.5V5.25H42.75V7.5H44.25V5.25H46.5V3.75Z" fill="#FFE19E"/>
<path d="M30.75 29.25H35.25V35.25H30.75V29.25Z" fill="#70D6B1"/>
<path d="M36.75 11.25H41.25V17.25H36.75V11.25Z" fill="#AAE5CF"/>
<path d="M13.5 39.75C14.7426 39.75 15.75 38.7426 15.75 37.5C15.75 36.2574 14.7426 35.25 13.5 35.25C12.2574 35.25 11.25 36.2574 11.25 37.5C11.25 38.7426 12.2574 39.75 13.5 39.75Z" fill="#FFD168"/>
<path d="M23.25 42.75C24.0784 42.75 24.75 42.0784 24.75 41.25C24.75 40.4216 24.0784 39.75 23.25 39.75C22.4216 39.75 21.75 40.4216 21.75 41.25C21.75 42.0784 22.4216 42.75 23.25 42.75Z" fill="#FFE19E"/>
<path d="M21.75 36H24.75V37.5H21.75V36Z" fill="#FFE19E"/>
<path d="M10.5 42H16.5V43.5H10.5V42Z" fill="#FFD168"/>
<path d="M34.5 38.25C33.5054 38.25 32.5516 38.6451 31.8483 39.3483C31.1451 40.0516 30.75 41.0054 30.75 42C30.75 42.9946 31.1451 43.9484 31.8483 44.6517C32.5516 45.3549 33.5054 45.75 34.5 45.75H37.5V38.25H34.5Z" fill="#FFD168"/>
<path d="M16.9393 27.3107C17.0378 27.2122 17.116 27.0952 17.1693 26.9666C17.2226 26.8379 17.25 26.6999 17.25 26.5607C17.25 26.2794 17.1382 26.0096 16.9393 25.8107C16.7404 25.6117 16.4706 25.5 16.1893 25.5H10.8107C10.5294 25.5 10.2596 25.6117 10.0607 25.8107C9.86175 26.0096 9.75 26.2794 9.75 26.5607C9.75 26.6999 9.77743 26.8379 9.83074 26.9666C9.88404 27.0952 9.96217 27.2122 10.0607 27.3107L11.25 28.5H15.75L16.9393 27.3107Z" fill="#FFD168"/>
<path d="M30.75 42C30.7499 42.2519 30.7751 42.5031 30.8252 42.75H36V41.25H30.8252C30.7751 41.4969 30.7499 41.7481 30.75 42Z" fill="#FFE19E"/>
<path d="M37.5 45.75C39.5711 45.75 41.25 44.0711 41.25 42C41.25 39.9289 39.5711 38.25 37.5 38.25C35.4289 38.25 33.75 39.9289 33.75 42C33.75 44.0711 35.4289 45.75 37.5 45.75Z" fill="#FFE19E"/>
<path d="M26.2501 19.0606L29.2501 16.0607V17.25H30.7501V13.5H27.0001V15H28.1894L26.2501 16.9394L24.7501 15.4394L20.8447 19.3447L21.9054 20.4053L24.7501 17.5606L26.2501 19.0606Z" fill="black"/>
<path d="M44.8409 28.5794C44.9461 28.3156 45.0001 28.0342 45 27.7501V12.7501C44.9993 12.1536 44.762 11.5817 44.3402 11.1599C43.9184 10.7381 43.3465 10.5008 42.75 10.5001H34.5V10.0608L39.091 5.46982L38.0303 4.40918L33.4393 9.00014H27.6213C27.3257 8.99934 27.0329 9.05717 26.7598 9.1703C26.4867 9.28342 26.2387 9.44959 26.0303 9.65918L17.7803 17.9092C17.359 18.3315 17.1223 18.9036 17.1223 19.5001C17.1223 20.0967 17.359 20.6688 17.7803 21.0911L21 24.3108V27.1292C20.5617 27.2847 20.1822 27.572 19.9136 27.9518C19.6451 28.3315 19.5006 28.785 19.5 29.2501V31.5001H20.25V33.1288C20.2503 33.2274 20.231 33.325 20.1933 33.416C20.1556 33.5071 20.1002 33.5897 20.0303 33.6592L19.0994 34.59C19.0226 34.4794 18.9361 34.3758 18.841 34.2805L17.159 32.5984C16.9494 32.39 16.7832 32.1421 16.6701 31.869C16.557 31.5959 16.4992 31.3031 16.5 31.0075V28.8108L17.4697 27.8411C17.7042 27.6067 17.8697 27.3125 17.9484 26.9906C18.027 26.6686 18.0156 26.3312 17.9156 26.0152C17.8155 25.6992 17.6306 25.4168 17.3809 25.1987C17.1313 24.9807 16.8266 24.8354 16.5 24.7787V19.8542C16.4996 19.505 16.4183 19.1606 16.2624 18.848L14.25 14.8231V12.7501C14.2493 12.1536 14.0121 11.5817 13.5902 11.1599C13.1684 10.7381 12.5965 10.5008 12 10.5001H6C5.40347 10.5008 4.83157 10.7381 4.40975 11.1599C3.98794 11.5817 3.75067 12.1536 3.75 12.7501V14.8231L1.73758 18.8479C1.58175 19.1605 1.50043 19.5049 1.5 19.8542V44.2501C1.50067 44.8467 1.73794 45.4186 2.15975 45.8404C2.58157 46.2622 3.15347 46.4995 3.75 46.5001H17.25C17.8039 46.5005 18.3382 46.2958 18.75 45.9254C19.1618 46.2958 19.6961 46.5005 20.25 46.5001H44.25C44.8465 46.4995 45.4184 46.2622 45.8402 45.8404C46.262 45.4186 46.4993 44.8467 46.5 44.2501V30.7501C46.4993 30.2566 46.3366 29.7769 46.0369 29.3847C45.7372 28.9926 45.317 28.7097 44.8409 28.5794ZM37.5 12.0001H40.5V16.5001H37.5V12.0001ZM36 12.0001V18.0001H42V12.0001H42.75C42.9488 12.0004 43.1395 12.0795 43.2801 12.2201C43.4207 12.3607 43.4998 12.5513 43.5 12.7501V27.7501C43.4998 27.949 43.4207 28.1396 43.2801 28.2802C43.1395 28.4208 42.9488 28.4999 42.75 28.5001H30.75C30.5512 28.4999 30.3605 28.4208 30.2199 28.2802C30.0793 28.1396 30.0002 27.949 30 27.7501V21.3108L33.841 17.4698C34.0506 17.2614 34.2168 17.0134 34.3299 16.7403C34.443 16.4672 34.5008 16.1744 34.5 15.8788V12.0001H36ZM26.871 28.5001C26.7155 28.0618 26.4281 27.6823 26.0484 27.4138C25.6686 27.1452 25.2151 27.0007 24.75 27.0001H22.5V25.802C22.9279 26.1865 23.4869 26.3923 24.0619 26.377C24.6369 26.3617 25.1842 26.1265 25.591 25.7198L28.5 22.8108V27.7501C28.4999 28.0057 28.5435 28.2593 28.629 28.5001H26.871ZM31.5 30.0001H34.5V34.5001H31.5V30.0001ZM18.841 18.9698L27.091 10.7198C27.1605 10.65 27.2431 10.5946 27.3341 10.5568C27.4252 10.5191 27.5228 10.4999 27.6213 10.5001H31.9393L30.9696 11.4698L32.0304 12.5305L33 11.5608V15.8788C33.0003 15.9774 32.981 16.075 32.9433 16.166C32.9056 16.2571 32.8502 16.3397 32.7803 16.4092L24.5303 24.6592C24.3895 24.7996 24.1988 24.8785 24 24.8785C23.8012 24.8785 23.6105 24.7996 23.4697 24.6592L18.841 20.0305C18.7006 19.8897 18.6217 19.699 18.6217 19.5001C18.6217 19.3013 18.7006 19.1106 18.841 18.9698ZM21 29.2501C21.0002 29.0513 21.0793 28.8607 21.2199 28.7201C21.3605 28.5795 21.5512 28.5004 21.75 28.5001H24.75C24.9488 28.5004 25.1395 28.5795 25.2801 28.7201C25.4207 28.8607 25.4998 29.0513 25.5 29.2501V30.0001H21V29.2501ZM16.409 26.7805L15.4393 27.7501H11.5607L10.591 26.7805C10.5476 26.7371 10.518 26.6817 10.506 26.6214C10.494 26.5612 10.5001 26.4987 10.5236 26.4419C10.5471 26.3852 10.587 26.3367 10.638 26.3025C10.6891 26.2684 10.7492 26.2501 10.8106 26.2501H16.1894C16.2508 26.2501 16.3109 26.2684 16.3619 26.3025C16.413 26.3366 16.4528 26.3852 16.4764 26.4419C16.4999 26.4987 16.506 26.5611 16.494 26.6214C16.482 26.6817 16.4524 26.737 16.409 26.7805ZM12.2865 15.7501L10.7865 18.7501H3.46353L4.96353 15.7501H12.2865ZM13.5 16.6772L14.5365 18.7501H12.4635L13.5 16.6772ZM15 20.2501V24.7501H12V20.2501H15ZM6 12.0001H12C12.1988 12.0004 12.3895 12.0795 12.5301 12.2201C12.6707 12.3607 12.7498 12.5513 12.75 12.7501V14.2501H5.25V12.7501C5.25023 12.5513 5.32932 12.3607 5.46992 12.2201C5.61052 12.0795 5.80116 12.0004 6 12.0001ZM3 44.2501V20.2501H10.5V24.7787C10.1734 24.8354 9.86869 24.9807 9.61905 25.1987C9.36942 25.4168 9.18448 25.6992 9.08442 26.0152C8.98435 26.3312 8.97302 26.6686 9.05164 26.9906C9.13027 27.3126 9.29584 27.6068 9.53027 27.8411L10.5 28.8108V31.0075C10.5008 31.3031 10.443 31.5959 10.3299 31.869C10.2167 32.1421 10.0505 32.3901 9.84091 32.5985L8.159 34.2805C7.94941 34.4889 7.78325 34.7369 7.67013 35.0099C7.55701 35.283 7.49919 35.5759 7.5 35.8715V44.2501C7.49989 44.5057 7.54353 44.7593 7.62902 45.0001H3.75C3.55116 44.9999 3.36052 44.9208 3.21992 44.7802C3.07932 44.6396 3.00023 44.449 3 44.2501ZM17.25 45.0001H9.75C9.55116 44.9999 9.36052 44.9208 9.21992 44.7802C9.07932 44.6396 9.00023 44.449 9 44.2501V35.8715C8.99973 35.7729 9.01901 35.6753 9.05673 35.5843C9.09444 35.4932 9.14985 35.4106 9.21973 35.3411L10.9016 33.6592C11.2509 33.3118 11.5279 32.8985 11.7164 32.4434C11.905 31.9882 12.0014 31.5002 12 31.0075V29.2501H15V31.0075C14.9986 31.5001 15.095 31.9882 15.2836 32.4433C15.4721 32.8985 15.749 33.3117 16.0984 33.6591L17.7803 35.3411C17.8502 35.4106 17.9056 35.4932 17.9433 35.5843C17.981 35.6753 18.0003 35.7729 18 35.8715V44.2501C17.9998 44.449 17.9207 44.6396 17.7801 44.7802C17.6395 44.9208 17.4488 44.9999 17.25 45.0001ZM20.25 45.0001C20.0512 44.9999 19.8605 44.9208 19.7199 44.7802C19.5793 44.6396 19.5002 44.449 19.5 44.2501V36.6215C19.4997 36.5229 19.519 36.4253 19.5567 36.3343C19.5944 36.2432 19.6498 36.1606 19.7197 36.0911L21.091 34.7198C21.3006 34.5114 21.4668 34.2634 21.5799 33.9903C21.693 33.7172 21.7508 33.4244 21.75 33.1288V31.5001H24.75V33.1288C24.7492 33.4244 24.807 33.7172 24.9201 33.9903C25.0332 34.2634 25.1994 34.5114 25.409 34.7198L26.7803 36.0911C26.8502 36.1606 26.9056 36.2432 26.9433 36.3343C26.981 36.4253 27.0003 36.5229 27 36.6215V44.2501C26.9998 44.449 26.9207 44.6396 26.7801 44.7802C26.6395 44.9208 26.4488 44.9999 26.25 45.0001H20.25ZM33.0637 41.2501H31.5949C31.7464 40.6683 32.0688 40.1452 32.5204 39.7484C32.9721 39.3515 33.5324 39.0992 34.1289 39.0239C33.5726 39.6518 33.2036 40.4231 33.0637 41.2501ZM33.0637 42.7501C33.2036 43.5772 33.5726 44.3485 34.1289 44.9764C33.5324 44.9011 32.9721 44.6488 32.5204 44.2519C32.0688 43.8551 31.7464 43.332 31.5949 42.7501H33.0637ZM34.5 42.0001C34.5 41.4068 34.6759 40.8268 35.0056 40.3334C35.3352 39.8401 35.8038 39.4556 36.3519 39.2285C36.9001 39.0014 37.5033 38.942 38.0853 39.0578C38.6672 39.1735 39.2018 39.4593 39.6213 39.8788C40.0409 40.2984 40.3266 40.8329 40.4424 41.4149C40.5581 41.9968 40.4987 42.6 40.2716 43.1482C40.0446 43.6964 39.6601 44.1649 39.1667 44.4945C38.6734 44.8242 38.0933 45.0001 37.5 45.0001C36.7046 44.9992 35.9421 44.6829 35.3797 44.1205C34.8173 43.558 34.5009 42.7955 34.5 42.0001ZM45 44.2501C44.9998 44.449 44.9207 44.6396 44.7801 44.7802C44.6395 44.9208 44.4488 44.9999 44.25 45.0001H40.8505C41.4307 44.3533 41.8111 43.5522 41.9457 42.6938C42.0803 41.8354 41.9633 40.9563 41.6089 40.1629C41.2545 39.3696 40.6778 38.6959 39.9486 38.2233C39.2194 37.7508 38.3689 37.4996 37.5 37.5001H34.5C33.6311 37.4996 32.7806 37.7508 32.0514 38.2233C31.3222 38.6959 30.7455 39.3696 30.3911 40.1629C30.0367 40.9563 29.9197 41.8354 30.0543 42.6938C30.1889 43.5522 30.5693 44.3533 31.1495 45.0001H28.371C28.4565 44.7593 28.5001 44.5057 28.5 44.2501V36.6215C28.5008 36.3259 28.443 36.033 28.3299 35.7599C28.2168 35.4869 28.0506 35.2389 27.841 35.0305L26.4697 33.6592C26.3998 33.5897 26.3444 33.507 26.3067 33.416C26.269 33.325 26.2497 33.2274 26.25 33.1288V31.5001H27V30.0001H30V36.0001H36V30.0001H44.25C44.4488 30.0004 44.6395 30.0795 44.7801 30.2201C44.9207 30.3607 44.9998 30.5513 45 30.7501V44.2501Z" fill="black"/>
<path d="M22.5 7.5H24V5.25H26.25V3.75H24V1.5H22.5V3.75H20.25V5.25H22.5V7.5Z" fill="black"/>
<path d="M9.75 8.25H11.25V6.75H12.75V5.25H11.25V3.75H9.75V5.25H8.25V6.75H9.75V8.25Z" fill="black"/>
<path d="M44.25 3.75V1.5H42.75V3.75H40.5V5.25H42.75V7.5H44.25V5.25H46.5V3.75H44.25Z" fill="black"/>
<path d="M13.5 34.5C12.9067 34.5 12.3266 34.6759 11.8333 35.0056C11.3399 35.3352 10.9554 35.8038 10.7284 36.3519C10.5013 36.9001 10.4419 37.5033 10.5576 38.0853C10.6734 38.6672 10.9591 39.2018 11.3787 39.6213C11.7982 40.0409 12.3328 40.3266 12.9147 40.4424C13.4967 40.5581 14.0999 40.4987 14.6481 40.2716C15.1962 40.0446 15.6648 39.6601 15.9944 39.1667C16.3241 38.6734 16.5 38.0933 16.5 37.5C16.4991 36.7046 16.1827 35.9421 15.6203 35.3797C15.0579 34.8173 14.2954 34.5009 13.5 34.5ZM13.5 39C13.2033 39 12.9133 38.912 12.6666 38.7472C12.42 38.5824 12.2277 38.3481 12.1142 38.074C12.0007 37.7999 11.9709 37.4983 12.0288 37.2074C12.0867 36.9164 12.2296 36.6491 12.4393 36.4393C12.6491 36.2296 12.9164 36.0867 13.2074 36.0288C13.4983 35.9709 13.7999 36.0006 14.074 36.1142C14.3481 36.2277 14.5824 36.42 14.7472 36.6666C14.912 36.9133 15 37.2033 15 37.5C14.9995 37.8977 14.8414 38.279 14.5602 38.5602C14.279 38.8414 13.8977 38.9995 13.5 39Z" fill="black"/>
<path d="M23.25 39C22.805 39 22.37 39.132 22 39.3792C21.63 39.6264 21.3416 39.9778 21.1713 40.389C21.001 40.8001 20.9564 41.2525 21.0432 41.689C21.1301 42.1254 21.3443 42.5263 21.659 42.841C21.9737 43.1557 22.3746 43.37 22.811 43.4568C23.2475 43.5436 23.6999 43.499 24.111 43.3287C24.5222 43.1584 24.8736 42.87 25.1208 42.5C25.368 42.13 25.5 41.695 25.5 41.25C25.4993 40.6535 25.2621 40.0816 24.8402 39.6598C24.4184 39.2379 23.8465 39.0007 23.25 39ZM23.25 42C23.1017 42 22.9567 41.956 22.8333 41.8736C22.71 41.7912 22.6139 41.6741 22.5571 41.537C22.5003 41.4 22.4855 41.2492 22.5144 41.1037C22.5434 40.9582 22.6148 40.8246 22.7197 40.7197C22.8246 40.6148 22.9582 40.5433 23.1037 40.5144C23.2492 40.4855 23.4 40.5003 23.537 40.5571C23.6741 40.6139 23.7912 40.71 23.8736 40.8333C23.956 40.9567 24 41.1017 24 41.25C23.9998 41.4488 23.9207 41.6395 23.7801 41.7801C23.6395 41.9207 23.4488 41.9998 23.25 42Z" fill="black"/>
<path d="M21.75 36H24.75V37.5H21.75V36Z" fill="black"/>
<path d="M10.5 42H16.5V43.5H10.5V42Z" fill="black"/>
</svg>
