<svg width="48" height="48" viewBox="0 0 48 48" fill="none" xmlns="http://www.w3.org/2000/svg">
<g clip-path="url(#clip0_5001_20981)">
<path d="M24.1256 8.88506L24.1246 8.88603C23.4927 9.61861 22.5608 10.0647 21.5514 10.0647H21.2775C20.0843 10.0647 18.9791 9.43861 18.3656 8.4157L17.5575 7.06957C17.2314 6.52667 16.644 6.19377 16.0101 6.19377C15.6211 6.19377 15.2553 6.31764 14.9553 6.53441C14.6553 6.75119 14.4211 7.05893 14.2982 7.42764L13.9353 8.51635C13.2946 8.51635 12.714 8.77667 12.293 9.19667C11.873 9.61764 11.6127 10.1983 11.6127 10.8389V11.6131H10.0643C8.91463 11.6131 7.91011 12.2402 7.37592 13.1712C7.24237 12.8799 7.14076 12.5751 7.07205 12.2605C7.00334 11.947 6.96753 11.6247 6.96753 11.2976C6.96753 9.59344 7.93043 8.03441 9.45463 7.2728L10.0643 6.96796L9.56205 6.4657C9.22721 6.13087 8.96592 5.73603 8.78785 5.30732C8.60979 4.87764 8.51592 4.41312 8.51592 3.9399C8.51592 3.38538 8.64463 2.83861 8.89334 2.34312L9.29011 1.54861L9.69463 1.75087C10.0701 1.93958 10.4659 2.08183 10.8733 2.17764C11.2798 2.27441 11.6979 2.3228 12.1179 2.3228C12.8069 2.3228 13.4901 2.19119 14.1298 1.9357L15.7208 1.29893C16.5869 0.952479 17.5111 0.774414 18.444 0.774414H19.1717C19.7417 0.774414 20.3069 0.84022 20.8566 0.970866C21.4072 1.10054 21.9424 1.29409 22.4514 1.54861C23.4695 2.05764 24.592 2.3228 25.7311 2.3228H25.9701C27.9908 2.3228 29.8217 3.14248 31.1456 4.46732C32.4704 5.79119 33.2901 7.62216 33.2901 9.6428C33.2901 10.7325 33.0472 11.7922 32.5953 12.7551C32.0272 12.0583 31.162 11.6131 30.1933 11.6131H28.6449V10.0647H26.6969C25.6991 10.0647 24.7633 9.62732 24.1256 8.88506Z" fill="#B27946"/>
<path d="M28.6451 17.8068V18.6148C28.6451 20.1661 28.2057 21.6468 27.4238 22.9116C27.1431 22.628 26.7531 22.4519 26.3225 22.4519H18.5805C17.7251 22.4519 17.0321 23.1448 17.0321 24.0003V26.3229L16.5628 26.1216C13.5599 24.8345 11.6128 21.8819 11.6128 18.6148V17.8068V11.6132V10.839C11.6128 10.1984 11.8731 9.61772 12.2931 9.19675C12.7141 8.77675 13.2947 8.51643 13.9354 8.51643L14.2983 7.42772C14.4212 7.05901 14.6554 6.75127 14.9554 6.53449C15.2554 6.31772 15.6212 6.19385 16.0102 6.19385C16.6441 6.19385 17.2315 6.52675 17.5576 7.06965L18.3657 8.41578C18.9792 9.43869 20.0844 10.0648 21.2776 10.0648H21.5515C22.5609 10.0648 23.4928 9.61869 24.1247 8.88611L24.1257 8.88514C24.7634 9.6274 25.6992 10.0648 26.697 10.0648H28.6451V11.6132V17.8068Z" fill="#F0D0B4"/>
<path d="M32.5953 12.7562C33.0299 13.2894 33.2902 13.9688 33.2902 14.7101C33.2902 15.5655 32.9437 16.3397 32.3834 16.9001C31.8231 17.4604 31.0489 17.8068 30.1934 17.8068H28.645V11.6133H30.1934C31.1621 11.6133 32.0273 12.0584 32.5953 12.7552V12.7562Z" fill="#F0D0B4"/>
<path d="M11.6127 11.6133V17.8068H10.0643C9.20882 17.8068 8.43463 17.4604 7.8743 16.9001C7.31398 16.3397 6.96753 15.5655 6.96753 14.7101C6.96753 14.1497 7.11656 13.6242 7.37592 13.1713C7.91011 12.2404 8.91463 11.6133 10.0643 11.6133H11.6127Z" fill="#F0D0B4"/>
<path d="M34.8386 47.2261H8.32153C8.87315 47.2261 9.41024 47.1022 9.89605 46.8719C10.3828 46.6416 10.8183 46.3048 11.1677 45.878L17.0322 38.7099L18.3696 38.3751C19.4031 38.1167 20.129 37.1887 20.129 36.1232C20.6128 36.2945 21.1344 36.3874 21.6773 36.3874H23.2257C25.7912 36.3874 27.8709 34.3077 27.8709 31.7422V29.2261L28.4922 29.3035C30.5641 29.5628 32.3719 30.5867 33.6483 32.0703V32.0712C32.9699 32.4767 32.516 33.218 32.516 34.0648V34.839V42.5809V44.9035C32.516 46.1858 33.5564 47.2261 34.8386 47.2261Z" fill="#B4DD7F"/>
<path d="M17.0321 28.6455V31.7423H16.9189C16.0392 31.7423 15.235 32.2397 14.8421 33.0265L13.9353 34.8391L10.0644 38.71H4.64502V37.3697C4.64502 33.2703 7.69825 29.8126 11.7657 29.3036L17.0321 28.6455Z" fill="#B4DD7F"/>
<path d="M40.258 26.323V27.8714C40.258 28.2992 39.9115 28.6456 39.4838 28.6456H38.7096H35.6128H34.8386C34.4109 28.6456 34.0645 28.2992 34.0645 27.8714V26.323C34.0645 25.8953 34.4109 25.5488 34.8386 25.5488H39.4838C39.9115 25.5488 40.258 25.8953 40.258 26.323Z" fill="#AAB2BD"/>
<path d="M41.8062 43.9969V44.9036C41.8062 46.1859 40.7659 47.2262 39.4836 47.2262H35.6126H34.8384C33.5562 47.2262 32.5159 46.1859 32.5159 44.9036V42.5811H38.7094C38.7094 43.4365 39.4023 44.1294 40.2578 44.1294H41.032C41.303 44.1294 41.5643 44.083 41.8062 43.9969Z" fill="#69D6F4"/>
<path d="M41.8062 34.0649V34.8391H32.5159V34.0649C32.5159 33.2181 32.9697 32.4768 33.6481 32.0713C33.9965 31.8623 34.4039 31.7423 34.8384 31.7423H35.6126V28.6455H38.7094V31.7423H39.4836C40.7659 31.7423 41.8062 32.7826 41.8062 34.0649Z" fill="#69D6F4"/>
<path d="M41.8062 34.8389V38.0682C41.5643 37.9821 41.303 37.9356 41.032 37.9356H40.2578C39.4023 37.9356 38.7094 38.6285 38.7094 39.484V42.5808H32.5159V34.8389H41.8062Z" fill="#E6E9ED"/>
<path d="M27.8709 29.2259V31.742C27.8709 34.3075 25.7913 36.3871 23.2258 36.3871H21.6774C21.1345 36.3871 20.6129 36.2942 20.129 36.1229V36.122V34.0646C20.129 32.7823 19.0887 31.742 17.8064 31.742H17.0322V28.6452V26.3226V24C17.0322 23.1446 17.7251 22.4517 18.5806 22.4517H26.3225C26.7532 22.4517 27.1432 22.6278 27.4238 22.9113C27.7006 23.191 27.8709 23.5752 27.8709 24V29.2259Z" fill="#E6E9ED"/>
<path d="M43.3546 40.2581V41.8065C43.3546 42.8168 42.7082 43.6772 41.8062 43.9965C41.5643 44.0826 41.303 44.1291 41.0321 44.1291H40.2579C39.4024 44.1291 38.7095 43.4362 38.7095 42.5807V39.4839C38.7095 38.6285 39.4024 37.9355 40.2579 37.9355H41.0321C41.303 37.9355 41.5643 37.982 41.8062 38.0681C42.7082 38.3875 43.3546 39.2478 43.3546 40.2581Z" fill="#F0D0B4"/>
<path d="M10.0644 38.7099L13.9353 34.839L14.8421 33.0264C15.235 32.2396 16.0392 31.7422 16.9189 31.7422H17.0321H17.8063C19.0886 31.7422 20.1289 32.7825 20.1289 34.0648V36.1222V36.1232C20.1289 37.1886 19.4031 38.1167 18.3695 38.3751L17.0321 38.7099L11.1676 45.878C10.8182 46.3048 10.3828 46.6415 9.89599 46.8719C9.41018 47.1022 8.87308 47.2261 8.32147 47.2261C6.29115 47.2261 4.64502 45.5799 4.64502 43.5496V38.7099H10.0644Z" fill="#F0D0B4"/>
<path d="M42.5805 37.5779V34.0645C42.5805 32.3569 41.1913 30.9677 39.4838 30.9677V29.4194C40.3375 29.4194 41.0321 28.7247 41.0321 27.871V26.3226C41.0321 25.4688 40.3375 24.7742 39.4838 24.7742H34.8386C33.9848 24.7742 33.2902 25.4688 33.2902 26.3226V27.871C33.2902 28.7247 33.9848 29.4194 34.8386 29.4194V30.9677C34.488 30.9677 34.1511 31.0272 33.8366 31.1351C32.4459 29.717 30.6256 28.8043 28.645 28.5437V24C28.645 23.5862 28.5358 23.1976 28.3453 22.8609C29.0487 21.5583 29.4192 20.1013 29.4192 18.6144V18.5806H30.1934C32.3279 18.5806 34.0644 16.8441 34.0644 14.7097C34.0644 13.9596 33.8493 13.2591 33.4784 12.6654C33.8626 11.7085 34.0644 10.6726 34.0644 9.64287C34.0644 5.17955 30.4332 1.54839 25.9698 1.54839H25.731C24.718 1.54839 23.7038 1.30887 22.7976 0.855968C21.6777 0.296032 20.424 0 19.1719 0H18.4444C17.4084 0 16.3954 0.195097 15.4333 0.579871L13.8426 1.21616C13.2914 1.43661 12.7112 1.54839 12.1178 1.54839C11.4005 1.54839 10.6822 1.37884 10.0408 1.05813L8.94395 0.50971L8.20062 1.99635C7.90053 2.59674 7.74182 3.26874 7.74182 3.93997C7.74182 4.98484 8.10801 5.97339 8.77982 6.759C7.1753 7.70584 6.19343 9.41235 6.19343 11.2973C6.19343 11.9325 6.30666 12.5504 6.5273 13.1399C6.31333 13.6201 6.19343 14.151 6.19343 14.7097C6.19343 16.8441 7.92995 18.5806 10.0644 18.5806H10.8386V18.6144C10.8386 22.1962 12.9658 25.4223 16.2579 26.8332V27.9617L11.6698 28.5353C7.22369 29.0909 3.87085 32.889 3.87085 37.3696V43.549C3.87085 46.0033 5.86759 48 8.32188 48H34.8386H35.6128H39.4838C41.1913 48 42.5805 46.6108 42.5805 44.9032V44.4866C43.5052 43.9503 44.1289 42.9501 44.1289 41.8064V40.2581C44.1289 39.1144 43.5052 38.1142 42.5805 37.5779ZM40.2579 37.1613C38.9773 37.1613 37.9354 38.2033 37.9354 39.4839V41.8064H33.2902V35.6129H41.0321V37.1613H40.2579ZM34.8386 26.3226H39.4838L39.4847 27.871C39.4847 27.871 39.4844 27.871 39.4838 27.871H34.8386V26.3226ZM36.387 32.5161V29.4194H37.9354V32.5161H39.4838C40.3375 32.5161 41.0321 33.2108 41.0321 34.0645H33.2902C33.2902 33.2108 33.9848 32.5161 34.8386 32.5161H36.387ZM32.5215 32.0131C32.037 32.5598 31.7418 33.2782 31.7418 34.0645V44.9032C31.7418 45.467 31.894 45.9957 32.1584 46.4516H11.6941C11.7183 46.4235 11.7432 46.3964 11.7668 46.3676L17.4689 39.3985L18.5575 39.1263C19.6151 38.8619 20.4278 38.0753 20.7508 37.082C21.0552 37.1346 21.3648 37.1612 21.6773 37.1612H23.2257C26.214 37.1612 28.645 34.7301 28.645 31.7418V30.1086C30.1055 30.3419 31.4515 31.0057 32.5215 32.0131ZM27.0967 24V31.7419C27.0967 33.8764 25.3601 35.6129 23.2257 35.6129H21.6773C21.4152 35.6129 21.1565 35.5863 20.9031 35.5349V34.0645C20.9031 32.3569 19.5139 30.9677 17.8063 30.9677V24C17.8063 23.5731 18.1537 23.2258 18.5805 23.2258H26.3225C26.7493 23.2258 27.0967 23.5731 27.0967 24ZM30.1934 17.0323H29.4192V12.3871H30.1934C31.474 12.3871 32.516 13.4291 32.516 14.7097C32.516 15.9903 31.474 17.0323 30.1934 17.0323ZM10.0644 17.0323C8.78378 17.0323 7.74182 15.9903 7.74182 14.7097C7.74182 13.4291 8.78378 12.3871 10.0644 12.3871H10.8386V17.0323H10.0644ZM10.8386 10.8387H10.0644C9.19982 10.8387 8.40066 11.1238 7.75566 11.6046C7.74733 11.5028 7.74182 11.4005 7.74182 11.2973C7.74182 9.87687 8.53101 8.60003 9.80146 7.96471L11.3713 7.17977L10.1096 5.91794C9.5812 5.38965 9.2902 4.68716 9.2902 3.93997C9.2902 3.50787 9.3924 3.07529 9.58556 2.68887L9.64024 2.57942C10.4187 2.91861 11.2687 3.09677 12.1178 3.09677C12.909 3.09677 13.6828 2.94774 14.4176 2.65384L16.0084 2.01755C16.7867 1.70623 17.6064 1.54839 18.4445 1.54839H19.172C20.1849 1.54839 21.1992 1.7879 22.1054 2.24081C23.2253 2.80074 24.479 3.09677 25.7311 3.09677H25.9699C29.5794 3.09677 32.516 6.03339 32.516 9.64297C32.516 10.2485 32.4292 10.8565 32.2628 11.4407C31.6637 11.0602 30.9542 10.8387 30.1934 10.8387H29.4192V10.0645C29.4192 8.35065 28.5679 6.76006 27.142 5.80945L26.7519 5.54932L25.8931 6.83768L26.2832 7.09781C27.0581 7.61439 27.5896 8.40213 27.7864 9.29032H26.6973C25.7814 9.29032 24.9197 8.80239 24.4485 8.01706L24.1048 7.44436C23.3554 6.19529 21.9849 5.41935 20.5283 5.41935H20.1289V6.96774H20.5283C21.4442 6.96774 22.3058 7.45568 22.777 8.241L23.102 8.78245C22.6563 9.10926 22.1149 9.29032 21.5517 9.29032H21.2779C20.362 9.29032 19.5004 8.80239 19.0292 8.01706L18.2218 6.67142C17.7584 5.89906 16.9111 5.41935 16.0103 5.41935C14.8986 5.41935 13.9154 6.12794 13.5637 7.18287L13.3595 7.79564C11.9261 8.06632 10.8386 9.32797 10.8386 10.8387ZM12.387 18.6144V10.8387C12.387 9.98497 13.0816 9.29032 13.9354 9.29032H14.4935L15.0326 7.67245C15.1732 7.251 15.5661 6.96774 16.0104 6.96774C16.3703 6.96774 16.7089 7.15935 16.894 7.46806L17.7015 8.81371C18.4508 10.0628 19.8213 10.8387 21.2779 10.8387H21.5517C22.4944 10.8387 23.3982 10.5196 24.127 9.94703C24.852 10.5133 25.756 10.8387 26.6973 10.8387H27.8708V18.6144C27.8708 19.7306 27.6189 20.8269 27.1373 21.8254C26.8836 21.73 26.6091 21.6775 26.3225 21.6775H18.5805C17.2999 21.6775 16.2579 22.7195 16.2579 24.0001V25.1137C13.8864 23.8303 12.387 21.3481 12.387 18.6144ZM11.8618 30.0717L16.2579 29.5222V31.0384C15.3523 31.2338 14.5763 31.8257 14.1493 32.6797L13.2991 34.3801L9.74369 37.9355H5.41924V37.3696C5.41924 33.6682 8.18891 30.5307 11.8618 30.0717ZM5.41924 43.549V39.4839H8.1953L6.85604 40.8231L7.78149 43.5997L9.25053 43.1099L8.62759 41.2413L14.5717 35.2972L15.5342 33.3719C15.7982 32.8439 16.3289 32.5159 16.9192 32.5159H17.8063C18.6601 32.5159 19.3547 33.2106 19.3547 34.0643V36.1219C19.3547 36.8337 18.8725 37.4514 18.1819 37.6241L16.5954 38.0206L10.5685 45.3868C10.0148 46.0635 9.19595 46.4516 8.32188 46.4516C6.72133 46.4516 5.41924 45.1495 5.41924 43.549ZM39.4838 46.4516H35.6128H34.8386C33.9848 46.4516 33.2902 45.757 33.2902 44.9032V43.3548H38.0685C38.3882 44.2559 39.2487 44.9032 40.2579 44.9032H41.0321C41.0321 45.757 40.3375 46.4516 39.4838 46.4516ZM42.5805 41.8064C42.5805 42.6602 41.8859 43.3548 41.0321 43.3548H40.2579C39.8311 43.3548 39.4838 43.0075 39.4838 42.5806V39.4839C39.4838 39.057 39.8311 38.7097 40.2579 38.7097H41.0321C41.8859 38.7097 42.5805 39.4043 42.5805 40.2581V41.8064Z" fill="black"/>
<path d="M17.0321 14.7098V15.484H18.5805V14.7098C18.5805 13.4292 17.5385 12.3872 16.2579 12.3872C14.9773 12.3872 13.9353 13.4292 13.9353 14.7098V15.484H15.4837V14.7098C15.4837 14.2829 15.831 13.9356 16.2579 13.9356C16.6848 13.9356 17.0321 14.2829 17.0321 14.7098Z" fill="black"/>
<path d="M23.2256 14.7098C23.2256 14.2829 23.573 13.9356 23.9998 13.9356C24.4267 13.9356 24.774 14.2829 24.774 14.7098V15.484H26.3224V14.7098C26.3224 13.4292 25.2804 12.3872 23.9998 12.3872C22.7192 12.3872 21.6772 13.4292 21.6772 14.7098V15.484H23.2256V14.7098Z" fill="black"/>
<path d="M23.9998 31.7421C23.9998 32.169 23.6525 32.5163 23.2256 32.5163V34.0647C24.5062 34.0647 25.5482 33.0227 25.5482 31.7421V26.3228H23.9998V31.7421Z" fill="black"/>
<path d="M19.7011 20.8217L21.2494 20.0475C21.6318 19.8563 21.7868 19.3913 21.5956 19.0088L21.5138 18.8455C21.1144 18.0463 20.9032 17.1515 20.9032 16.2583H19.3548C19.3548 17.1934 19.5374 18.1297 19.8862 18.9981L19.0085 19.4368L19.7011 20.8217Z" fill="black"/>
</g>
<defs>
<clipPath id="clip0_5001_20981">
<rect width="48" height="48" fill="white"/>
</clipPath>
</defs>
</svg>
