<svg width="40" height="40" viewBox="0 0 40 40" fill="none" xmlns="http://www.w3.org/2000/svg">
<g clip-path="url(#clip0_6286_49302)">
<path d="M31.7806 19.4434C36.6185 18.6592 39.9047 14.1015 39.1204 9.26353C38.3361 4.4256 33.7785 1.13945 28.9405 1.92371C24.1026 2.70798 20.8164 7.26567 21.6007 12.1036C22.385 16.9415 26.9427 20.2277 31.7806 19.4434Z" fill="#009045"/>
<path fill-rule="evenodd" clip-rule="evenodd" d="M33.7258 6.63066C34.2282 6.12832 35.0428 6.12832 35.5452 6.63066C36.0476 7.13309 36.0476 7.9477 35.5452 8.45012L29.2697 14.7256C28.7007 15.2946 27.7606 15.2051 27.304 14.5511L24.6637 11.2286C24.2224 10.6735 24.3147 9.86566 24.8698 9.42434C25.425 8.98301 26.2328 9.07527 26.6741 9.63043L28.4683 11.8882L33.7258 6.63066Z" fill="#EFF4F7"/>
<path fill-rule="evenodd" clip-rule="evenodd" d="M8.55872 36.5798C8.61716 36.545 2.71833 25.8628 2.77482 25.8282C6.63982 23.4609 6.01396 21.4592 9.82411 14.9115C11.8251 11.4729 15.9664 12.2323 14.659 15.4821L12.6526 20.4692L22.7711 14.6274C23.6537 14.1178 24.7927 14.423 25.3022 15.3055C25.8109 16.1865 25.5077 17.3235 24.628 17.8343L17.2017 22.1219C18.0843 21.6124 19.2233 21.9175 19.7328 22.8001C20.2423 23.6827 19.9371 24.8217 19.0546 25.3312L18.4406 25.6857C19.3222 25.1815 20.4568 25.4872 20.9651 26.3676C21.4746 27.2502 21.1693 28.3892 20.2868 28.8988L19.4709 29.3699C20.3535 28.8603 21.4925 29.1655 22.002 30.0481C22.5115 30.9306 22.2062 32.0697 21.3238 32.5792L18.8422 34.0119C16.9507 35.1039 12.4017 37.3612 8.55872 36.5798Z" fill="#FFB88D"/>
<path fill-rule="evenodd" clip-rule="evenodd" d="M9.86955 36.7394L3.37377 25.4883L0.916741 26.9068C0.767913 26.9927 0.716428 27.1848 0.802366 27.3337L6.98565 38.0434C7.07158 38.1923 7.26369 38.2437 7.41252 38.1578L9.86955 36.7394Z" fill="#64B5F6"/>
</g>
<defs>
<clipPath id="clip0_6286_49302">
<rect width="40" height="40" fill="white"/>
</clipPath>
</defs>
</svg>
