<svg width="40" height="40" viewBox="0 0 40 40" fill="none" xmlns="http://www.w3.org/2000/svg">
<g clip-path="url(#clip0_815_45644)">
<path d="M39.1406 20.8594C39.1406 10.2883 30.5711 1.71875 20 1.71875C9.42891 1.71875 0.859375 10.2883 0.859375 20.8594C0.859375 21.3889 0.881875 21.9131 0.924063 22.4318H17.9688V24.8438H1.27594C1.91914 27.8801 3.28133 30.6509 5.17711 32.9688H23.9755V20.055C23.9755 19.2365 24.6413 18.5706 25.4598 18.5706H33.4375C34.256 18.5706 34.9219 19.2365 34.9219 20.055V32.8459C37.5605 29.5652 39.1406 25.3971 39.1406 20.8594Z" fill="#7CA1B1"/>
<path d="M39.1406 20.8594C39.1406 16.5852 37.7392 12.6388 35.3716 9.45312H24.3977V12.1569C24.3977 12.5184 24.1036 12.8125 23.742 12.8125H21.9531V24.8877C21.9531 25.5054 21.6556 26.0935 21.1573 26.4607L21.1255 26.4841V28.6777C21.1255 29.2687 20.6633 29.7615 20.073 29.7995L20 29.8042V31.086L20.0523 31.1044C20.089 31.1173 20.1169 31.14 20.1352 31.1719L21.1727 32.9688H23.9755V20.055C23.9755 19.2365 24.6414 18.5706 25.4599 18.5706H33.4375C34.256 18.5706 34.9219 19.2365 34.9219 20.055V32.8459C37.5605 29.5652 39.1406 25.3971 39.1406 20.8594Z" fill="#678D98"/>
<path d="M18.8272 32.9688L19.8647 31.1719C19.8929 31.123 19.9435 31.0938 19.9999 31.0938C20.0281 31.0938 20.0548 31.101 20.078 31.1145V29.7993C20.0521 29.8011 20.0263 29.8033 19.9999 29.8033C19.3793 29.8033 18.8744 29.2984 18.8744 28.6777V26.4842L18.8426 26.4608C18.3477 26.0961 18.058 25.5347 18.0479 24.9206L18.0466 24.8438H16.4844V32.9688H18.8272Z" fill="#A8D3D8"/>
<path d="M16.4844 24.8438H17.7344V32.9688H16.4844V24.8438Z" fill="#8EBAC5"/>
<path d="M4.09836 13.8716H4.27555V17.3272H8.21727V13.8716H8.39453C8.58687 13.8716 8.74289 13.7156 8.74289 13.5232V12.4577C8.74289 12.2654 8.58695 12.1094 8.39453 12.1094H4.09836C3.90602 12.1094 3.75 12.2653 3.75 12.4577V13.5232C3.75 13.7156 3.90594 13.8716 4.09836 13.8716Z" fill="#DFF6FD"/>
<path d="M4.27551 17.25H8.21723V22.4327H4.27551V17.25Z" fill="#62DBFB"/>
<path d="M4.27551 24.8438V29.6535C4.27551 30.742 5.15793 31.6244 6.24637 31.6244C7.33481 31.6244 8.21723 30.742 8.21723 29.6535V24.8438H4.27551Z" fill="#62DBFB"/>
<path d="M5.87211 13.8716C5.67969 13.8716 5.52375 13.7156 5.52375 13.5232V12.4577C5.52375 12.2654 5.67969 12.1094 5.87211 12.1094H4.09836C3.90594 12.1094 3.75 12.2653 3.75 12.4577V13.5232C3.75 13.7156 3.90594 13.8716 4.09836 13.8716H4.27555V17.2491H6.0493V14.0488C6.0493 13.9509 5.97 13.8716 5.87211 13.8716Z" fill="#C8EFFE"/>
<path d="M4.27551 17.25H6.04926V22.4327H4.27551V17.25Z" fill="#01D0FB"/>
<path d="M6.04926 29.6535V24.8438H4.27551V29.6535C4.27551 30.742 5.15793 31.6244 6.24637 31.6244C6.56575 31.6244 6.86645 31.5467 7.13325 31.4118C6.49083 31.0871 6.04926 30.4226 6.04926 29.6535Z" fill="#01D0FB"/>
<path d="M14.5735 12.1094H10.2774C10.085 12.1094 9.92902 12.2653 9.92902 12.4577V13.5232C9.92902 13.7156 10.085 13.8716 10.2774 13.8716H10.4546V17.3272H14.3963V13.8716H14.5735C14.7659 13.8716 14.9218 13.7156 14.9218 13.5232V12.4577C14.9219 12.2653 14.766 12.1094 14.5735 12.1094Z" fill="#DFF6FD"/>
<path d="M10.4542 17.25H14.3959V22.4327H10.4542V17.25Z" fill="#62DBFB"/>
<path d="M10.4542 24.8438V29.6535C10.4542 30.742 11.3366 31.6244 12.4251 31.6244C13.5135 31.6244 14.3959 30.742 14.3959 29.6535V24.8438H10.4542Z" fill="#62DBFB"/>
<path d="M12.0512 13.8716C11.8589 13.8716 11.7028 13.7156 11.7028 13.5232V12.4577C11.7028 12.2654 11.8588 12.1094 12.0512 12.1094H10.2774C10.085 12.1094 9.92902 12.2653 9.92902 12.4577V13.5232C9.92902 13.7156 10.085 13.8716 10.2774 13.8716H10.4546V17.2491H12.2283V14.0488C12.2284 13.9509 12.1491 13.8716 12.0512 13.8716Z" fill="#C8EFFE"/>
<path d="M10.4542 17.25H12.228V22.4327H10.4542V17.25Z" fill="#01D0FB"/>
<path d="M12.228 29.6535V24.8438H10.4542V29.6535C10.4542 30.742 11.3366 31.6244 12.4251 31.6244C12.7445 31.6244 13.0452 31.5467 13.312 31.4118C12.6695 31.0871 12.228 30.4226 12.228 29.6535Z" fill="#01D0FB"/>
<path d="M18.0469 24.8895V22.3555H0.917114C0.984614 23.2295 1.11196 24.0866 1.2929 24.9237H18.0479C18.0477 24.9123 18.0469 24.9009 18.0469 24.8895Z" fill="#CBE5E8"/>
<path d="M18.0469 24.8895V23.5955H3.6729C3.24141 23.5955 2.89165 23.2458 2.89165 22.8143V22.3555H0.917114C0.984614 23.2295 1.11196 24.0866 1.2929 24.9237H18.0479C18.0477 24.9123 18.0469 24.9009 18.0469 24.8895Z" fill="#A8D3D8"/>
<path d="M25.0693 36.493C24.4661 36.493 23.9755 36.0023 23.9755 35.3992V32.8906H5.1142C8.62326 37.2268 13.9873 40 20 40C24.1134 40 27.9229 38.7012 31.0432 36.493H25.0693Z" fill="#CBE5E8"/>
<path d="M25.0693 36.493C24.5164 36.493 24.0592 36.0802 23.9867 35.5469H23.8672C23.373 35.5469 22.9688 35.9512 22.9688 36.4453C22.9688 36.9395 23.373 37.3438 23.8672 37.3438H29.7306C30.1804 37.0777 30.6182 36.7936 31.0434 36.493H25.0693Z" fill="#A8D3D8"/>
<path d="M22.1875 5.85938V2.1875C22.1875 0.979375 21.2081 0 20 0C18.7919 0 17.8125 0.979375 17.8125 2.1875V5.85938H22.1875Z" fill="#FE76A8"/>
<path d="M20.9375 0.210781C20.6534 0.0757812 20.3355 0 20 0C18.7919 0 17.8125 0.979375 17.8125 2.1875V5.85938H19.6875V2.1875C19.6875 1.31492 20.1985 0.561875 20.9375 0.210781Z" fill="#FE5694"/>
<path d="M18.0469 18.3498C18.7349 18.6673 19.4702 18.8281 20.2344 18.8281C20.8234 18.8281 21.4009 18.7309 21.9531 18.5388L22.0312 18.4277V12.8125H17.9688V18.2261L18.0469 18.3498Z" fill="#DFF6FD"/>
<path d="M19.5312 12.8125H17.9688V18.2261C18.4519 18.4628 18.9778 18.6247 19.5312 18.7004V12.8125Z" fill="#C8EFFE"/>
<path d="M20 29.8809C20.0395 29.8809 20.0784 29.8788 20.1168 29.875C20.0784 29.8787 20.0395 29.8809 20 29.8809Z" fill="#C8EFFE"/>
<path d="M20.3955 29.8137C20.4109 29.8083 20.4263 29.8029 20.4414 29.7969C20.4263 29.8028 20.4109 29.8083 20.3955 29.8137Z" fill="#C8EFFE"/>
<path d="M20.2812 29.8465C20.3001 29.842 20.3189 29.8375 20.3374 29.832C20.319 29.8374 20.3002 29.842 20.2812 29.8465Z" fill="#C8EFFE"/>
<path d="M23.2455 7.53906V6.50242C23.2455 6.10414 22.9226 5.78125 22.5243 5.78125H17.4763C17.078 5.78125 16.7551 6.10414 16.7551 6.50242V7.53906H23.2455Z" fill="#FE5694"/>
<path d="M19.4654 5.78125H17.4763C17.078 5.78125 16.7551 6.10414 16.7551 6.50242V7.53906H18.7443V6.50242C18.7443 6.10414 19.0672 5.78125 19.4654 5.78125Z" fill="#FE0364"/>
<path d="M23.7424 12.8906H16.2582C15.853 12.8906 15.5245 12.5621 15.5245 12.1569V8.19469C15.5245 7.78945 15.853 7.46094 16.2582 7.46094H23.7424C24.1476 7.46094 24.4761 7.78945 24.4761 8.19469V12.1569C24.4761 12.5621 24.1476 12.8906 23.7424 12.8906Z" fill="white"/>
<path d="M18.2815 12.1569V8.19469C18.2815 7.78945 18.61 7.46094 19.0153 7.46094H16.2582C15.8529 7.46094 15.5244 7.78945 15.5244 8.19469V12.1569C15.5244 12.5621 15.8529 12.8906 16.2582 12.8906H19.0153C18.61 12.8906 18.2815 12.5621 18.2815 12.1569Z" fill="#F2FBFF"/>
<path d="M16.9185 12.3408C16.7159 12.3408 16.5516 12.1765 16.5516 11.9739V8.37859C16.5516 8.17602 16.7159 8.01172 16.9185 8.01172C17.1212 8.01172 17.2854 8.17602 17.2854 8.37859V11.9739C17.2854 12.1765 17.1212 12.3408 16.9185 12.3408Z" fill="#DFF6FD"/>
<path d="M18.4593 12.3408C18.2567 12.3408 18.0925 12.1765 18.0925 11.9739V8.37859C18.0925 8.17602 18.2567 8.01172 18.4593 8.01172C18.662 8.01172 18.8262 8.17602 18.8262 8.37859V11.9739C18.8262 12.1765 18.662 12.3408 18.4593 12.3408Z" fill="#DFF6FD"/>
<path d="M20.0005 12.3408C19.7979 12.3408 19.6337 12.1765 19.6337 11.9739V8.37859C19.6337 8.17602 19.7979 8.01172 20.0005 8.01172C20.2032 8.01172 20.3674 8.17602 20.3674 8.37859V11.9739C20.3674 12.1765 20.2032 12.3408 20.0005 12.3408Z" fill="#DFF6FD"/>
<path d="M21.5416 12.3408C21.3389 12.3408 21.1747 12.1765 21.1747 11.9739V8.37859C21.1747 8.17602 21.3389 8.01172 21.5416 8.01172C21.7442 8.01172 21.9084 8.17602 21.9084 8.37859V11.9739C21.9084 12.1765 21.7442 12.3408 21.5416 12.3408Z" fill="#DFF6FD"/>
<path d="M23.0816 12.3408C22.8789 12.3408 22.7147 12.1765 22.7147 11.9739V8.37859C22.7147 8.17602 22.8789 8.01172 23.0816 8.01172C23.2843 8.01172 23.4485 8.17602 23.4485 8.37859V11.9739C23.4485 12.1765 23.2843 12.3408 23.0816 12.3408Z" fill="#DFF6FD"/>
<path d="M19.7973 31.1328L18.3289 33.6762C17.5861 34.9628 18.5146 36.5711 20.0003 36.5711C21.486 36.5711 22.4145 34.9628 21.6717 33.6762L20.2033 31.1328C20.113 30.9766 19.8875 30.9766 19.7973 31.1328Z" fill="#FFE177"/>
<path d="M20.0273 33.6762L20.8495 32.2522L20.2033 31.1329C20.113 30.9767 19.8875 30.9767 19.7973 31.1329L18.3289 33.6763C17.5861 34.9629 18.5146 36.5712 20.0003 36.5712C20.3114 36.5712 20.5975 36.5 20.8495 36.3767C19.8979 35.911 19.44 34.6934 20.0273 33.6762Z" fill="#FFD15B"/>
<path d="M20.2344 18.7505C19.4214 18.7505 18.6527 18.5617 17.9688 18.2266V24.8882C17.9688 25.5594 18.2945 26.1544 18.7963 26.5242V28.6782C18.7963 29.343 19.3352 29.8819 20 29.8819C20.6648 29.8819 21.2037 29.343 21.2037 28.6782V26.5242C21.7055 26.1544 22.0312 25.5595 22.0312 24.8882V18.4282C21.4716 18.6362 20.8664 18.7505 20.2344 18.7505Z" fill="#FFE177"/>
<path d="M18.7963 26.5241V28.6781C18.7963 29.3429 19.3352 29.8818 20 29.8818C20.2984 29.8818 20.5709 29.7726 20.7812 29.5927C20.523 29.372 20.3588 29.0445 20.3588 28.678V26.5241C19.857 26.1543 19.5312 25.5594 19.5312 24.8882V18.7009C18.9778 18.6252 18.4519 18.4633 17.9688 18.2266V24.8882C17.9688 25.5594 18.2945 26.1543 18.7963 26.5241Z" fill="#FFD15B"/>
<path d="M32.9813 15.0078V14.4609C32.9813 14.2452 32.8064 14.0703 32.5907 14.0703H26.3066C26.0909 14.0703 25.916 14.2452 25.916 14.4609V15.0078H32.9813Z" fill="#FFC344"/>
<path d="M25.916 16.0586H32.9813V16.7661H25.916V16.0586Z" fill="#FFC344"/>
<path d="M25.916 17.8203H32.9813V18.5698H25.916V17.8203Z" fill="#FFC344"/>
<path d="M25.916 16.0586H27.8906V16.7661H25.916V16.0586Z" fill="#F6AB31"/>
<path d="M25.916 17.8203H27.8906V18.5698H25.916V17.8203Z" fill="#F6AB31"/>
<path d="M27.8906 15.0078V14.4609C27.8906 14.2452 28.0655 14.0703 28.2812 14.0703H26.3066C26.0909 14.0703 25.916 14.2452 25.916 14.4609V15.0078H27.8906Z" fill="#F6AB31"/>
<path d="M33.1955 17.9002H25.7018C25.5723 17.9002 25.4674 17.7952 25.4674 17.6658V16.9258C25.4674 16.7963 25.5723 16.6914 25.7018 16.6914H33.1955C33.325 16.6914 33.4299 16.7963 33.4299 16.9258V17.6658C33.4299 17.7952 33.325 17.9002 33.1955 17.9002Z" fill="#F6AB31"/>
<path d="M33.1955 16.1384H25.7018C25.5723 16.1384 25.4674 16.0335 25.4674 15.9041V15.1641C25.4674 15.0346 25.5723 14.9297 25.7018 14.9297H33.1955C33.325 14.9297 33.4299 15.0346 33.4299 15.1641V15.9041C33.4299 16.0334 33.325 16.1384 33.1955 16.1384Z" fill="#F6AB31"/>
<path d="M28.0531 17.6658V16.9258C28.0531 16.7963 28.158 16.6914 28.2875 16.6914H25.7018C25.5723 16.6914 25.4674 16.7963 25.4674 16.9258V17.6658C25.4674 17.7952 25.5723 17.9002 25.7018 17.9002H28.2875C28.158 17.9002 28.0531 17.7952 28.0531 17.6658Z" fill="#ECA026"/>
<path d="M28.0531 15.9041V15.1641C28.0531 15.0346 28.158 14.9297 28.2875 14.9297H25.7018C25.5723 14.9297 25.4674 15.0346 25.4674 15.1641V15.9041C25.4674 16.0335 25.5723 16.1384 25.7018 16.1384H28.2875C28.158 16.1384 28.0531 16.0334 28.0531 15.9041Z" fill="#ECA026"/>
<path d="M35 20.0547C35 19.1917 34.3005 18.4922 33.4375 18.4922H25.4598C24.5969 18.4922 23.8973 19.1917 23.8973 20.0547V35.3989C23.8973 36.0461 24.422 36.5708 25.0692 36.5708H30.9325C32.4676 35.5006 33.8386 34.2117 35 32.7485V20.0547Z" fill="#F6AB31"/>
<path d="M27.1875 35.3989V20.0547C27.1875 19.1917 27.887 18.4922 28.75 18.4922H25.4598C24.5969 18.4922 23.8973 19.1917 23.8973 20.0547V35.3989C23.8973 36.0461 24.422 36.5708 25.0692 36.5708H28.3594C27.7122 36.5708 27.1875 36.0461 27.1875 35.3989Z" fill="#ECA026"/>
<path d="M35 22.4297H29.2969C28.8654 22.4297 28.5156 22.7795 28.5156 23.2109V30.7023C28.5156 31.1338 28.8654 31.4836 29.2969 31.4836H35V22.4297Z" fill="white"/>
<path d="M30.3906 30.7023V23.2109C30.3906 22.7795 30.7404 22.4297 31.1719 22.4297H29.2969C28.8654 22.4297 28.5156 22.7795 28.5156 23.2109V30.7023C28.5156 31.1338 28.8654 31.4836 29.2969 31.4836H31.1719C30.7404 31.4836 30.3906 31.1338 30.3906 30.7023Z" fill="#F2FBFF"/>
<path d="M23.8973 31.4836H25.5469C25.9784 31.4836 26.3281 31.1338 26.3281 30.7023V23.2109C26.3281 22.7795 25.9784 22.4297 25.5469 22.4297H23.8973V31.4836Z" fill="white"/>
<path d="M31.0938 30.2344C31.8273 30.2344 32.4219 29.6398 32.4219 28.9062C32.4219 28.1727 31.8273 27.5781 31.0938 27.5781C30.3602 27.5781 29.7656 28.1727 29.7656 28.9062C29.7656 29.6398 30.3602 30.2344 31.0938 30.2344Z" fill="#05E39C"/>
<path d="M30.7812 28.9062C30.7812 28.3527 31.1201 27.8786 31.6016 27.6791C31.4451 27.6143 31.2737 27.5781 31.0938 27.5781C30.3602 27.5781 29.7656 28.1727 29.7656 28.9062C29.7656 29.6398 30.3602 30.2344 31.0938 30.2344C31.2737 30.2344 31.4451 30.1982 31.6016 30.1334C31.1201 29.9339 30.7812 29.4598 30.7812 28.9062Z" fill="#0ED290"/>
<path d="M33.6719 24.6094H30C29.8705 24.6094 29.7656 24.5045 29.7656 24.375V24.0625C29.7656 23.933 29.8705 23.8281 30 23.8281H33.6719C33.8013 23.8281 33.9062 23.933 33.9062 24.0625V24.375C33.9062 24.5045 33.8013 24.6094 33.6719 24.6094Z" fill="#A8D3D8"/>
<path d="M33.6719 26.3281H30C29.8705 26.3281 29.7656 26.2232 29.7656 26.0938V25.7812C29.7656 25.6518 29.8705 25.5469 30 25.5469H33.6719C33.8013 25.5469 33.9062 25.6518 33.9062 25.7812V26.0938C33.9062 26.2232 33.8013 26.3281 33.6719 26.3281Z" fill="#A8D3D8"/>
</g>
<defs>
<clipPath id="clip0_815_45644">
<rect width="40" height="40" fill="white"/>
</clipPath>
</defs>
</svg>
