<svg height="486pt" viewBox="0 0 486 486.31458" width="486pt" xmlns="http://www.w3.org/2000/svg"><path d="m235.015625 260.59375v184.996094c0 14.9375-8.054687 28.011718-20.070313 35.097656-4.859374 2.882812-10.394531 4.773438-16.292968 5.402344-1.4375.15625-2.875.222656-4.359375.222656h-153.40625c-22.5 0-40.726563-18.246094-40.726563-40.722656v-184.996094c0-6.863281 2.765625-13.453125 7.648438-18.269531l59.402344-40.566407h100.753906l59.402344 40.566407c4.878906 4.816406 7.648437 11.40625 7.648437 18.269531zm0 0" fill="#4f9fe6"/><path d="m235.011719 260.59375v184.996094c0 14.9375-8.054688 28.011718-20.070313 35.097656-4.855468 2.882812-10.394531 4.773438-16.289062 5.402344-1.441406.15625-2.882813.222656-4.363282.222656h-153.40625c-22.5 0-40.726562-18.246094-40.726562-40.722656v-16.964844c14.738281 4.363281 30.328125 6.703125 46.484375 6.703125 90.429687 0 163.753906-73.328125 163.753906-163.753906 0-15.660157-2.203125-30.804688-6.296875-45.136719l23.261719 15.886719c4.882813 4.816406 7.652344 11.40625 7.652344 18.269531zm0 0" fill="#428ad0"/><path d="m183.273438 184.140625h-130.394532c-4.066406 0-7.367187-3.300781-7.367187-7.371094v-28.167969c0-3.523437 2.855469-6.378906 6.378906-6.378906h131.382813c3.527343 0 6.378906 2.855469 6.378906 6.378906v29.160157c0 3.523437-2.851563 6.378906-6.378906 6.378906zm0 0" fill="#4f9fe6"/><path d="m67.207031 184.140625h100.753907v17.605469h-100.753907zm0 0" fill="#bebebe"/><path d="m70 466.988281h-21.851562c-16.484376 0-29.898438-13.414062-29.898438-29.902343v-22.972657c0-3.730469 3.023438-6.75 6.75-6.75 3.730469 0 6.75 3.019531 6.75 6.75v22.972657c0 9.042968 7.355469 16.402343 16.398438 16.402343h21.851562c3.730469 0 6.75 3.019531 6.75 6.75 0 3.726563-3.023438 6.75-6.75 6.75zm0 0" fill="#fff"/><path d="m25 390.113281c-3.726562 0-6.75-3.023437-6.75-6.75v-15c0-3.730469 3.023438-6.75 6.75-6.75s6.75 3.019531 6.75 6.75v15c0 3.726563-3.023438 6.75-6.75 6.75zm0 0" fill="#fff"/><path d="m143.875 330.777344h-19.210938v-19.871094c0-3.730469-3.019531-6.75-6.75-6.75-3.726562 0-6.75 3.019531-6.75 6.75v19.871094h-19.871093c-3.726563 0-6.75 3.023437-6.75 6.75 0 3.726562 3.023437 6.75 6.75 6.75h19.871093v19.210937c0 3.726563 3.023438 6.75 6.75 6.75 3.730469 0 6.75-3.023437 6.75-6.75v-19.210937h19.210938c3.730469 0 6.75-3.023438 6.75-6.75 0-3.726563-3.019531-6.75-6.75-6.75zm0 0" fill="#fff"/><path d="m277.023438 466.785156c-1.328126 1.777344-2.8125 3.488282-4.433594 5.105469-.832032.832031-1.710938 1.644531-2.589844 2.40625-.808594.722656-1.660156 1.398437-2.515625 2.046875-2.792969 2.117188-5.761719 3.894531-8.84375 5.3125-18.203125 8.550781-40.566406 5.289062-55.621094-9.765625-17.570312-17.570313-19.054687-45.15625-4.429687-64.4375 1.324218-1.777344 2.8125-3.488281 4.429687-5.109375 1.621094-1.621094 3.332031-3.101562 5.105469-4.453125 19.285156-14.605469 46.867188-13.117187 64.464844 4.453125 2.269531 2.273438 4.277344 4.726562 6.007812 7.289062 2.585938 3.828126 4.566406 7.921876 5.941406 12.175782 4.902344 15.003906 2.40625 31.902344-7.515624 44.976562zm0 0" fill="#ffd533"/><path d="m235.015625 388.011719v-13.5c-15.707031.675781-30.351563 7.109375-41.535156 18.292969-24.433594 24.433593-24.433594 64.214843 0 88.648437 1.644531 1.640625 3.375 3.195313 5.171875 4.636719 5.898437-.632813 11.433594-2.519532 16.292968-5.402344-4.296874-2.25-8.324218-5.195312-11.925781-8.796875-19.191406-19.191406-19.191406-50.332031 0-69.546875 8.890625-8.886719 20.363281-13.65625 31.996094-14.332031zm0 0" fill="#2d7dc1"/><path d="m277.023438 466.785156c-1.324219 1.777344-2.8125 3.488282-4.429688 5.105469-.835938.832031-1.714844 1.644531-2.589844 2.40625-.8125.722656-1.664062 1.398437-2.519531 2.046875l-18.382813-18.378906-50.511718-50.511719c1.324218-1.78125 2.8125-3.488281 4.429687-5.109375 1.621094-1.621094 3.332031-3.105469 5.109375-4.453125zm0 0" fill="#fff"/><path d="m404.054688 453.125c0 9.160156-3.710938 17.460938-9.714844 23.46875-6.007813 6.007812-14.3125 9.722656-23.472656 9.722656h-75.328126c-18.335937 0-33.1875-14.875-33.1875-33.191406 0-18.335938 14.851563-33.1875 33.1875-33.1875h75.328126c18.316406 0 33.1875 14.851562 33.1875 33.1875zm0 0" fill="#ff5b59"/><path d="m262.351562 453.125c0-.335938 0-.652344.023438-.988281l-11.746094-11.742188c-1.167968 4.046875-1.777344 8.300781-1.777344 12.730469 0 1.621094.089844 3.242188.25 4.839844l18.382813 18.382812c.855469-.652344 1.707031-1.328125 2.519531-2.046875-4.792968-5.738281-7.652344-13.121093-7.652344-21.175781zm0 0" fill="#d2d2d2"/><path d="m284.539062 421.804688c-4.75 1.664062-8.980468 4.367187-12.464843 7.855468-5.785157 5.78125-9.453125 13.703125-9.699219 22.476563l-11.746094-11.742188c3.984375-14.085937 14.46875-25.472656 27.96875-30.761719 2.585938 3.828126 4.566406 7.921876 5.941406 12.171876zm0 0" fill="#efc130"/><path d="m267.484375 476.34375c-2.792969 2.117188-5.761719 3.894531-8.84375 5.3125-5.199219-6.703125-8.617187-14.828125-9.539063-23.691406zm0 0" fill="#efc130"/><path d="m326.457031 419.9375h13.5v66.375h-13.5zm0 0" fill="#fff"/><path d="m339.367188 35.144531c0 18.316407-14.851563 33.167969-33.171876 33.167969-18.320312 0-33.171874-14.851562-33.171874-33.167969 0-18.320312 14.851562-33.171875 33.171874-33.171875 18.320313 0 33.171876 14.851563 33.171876 33.171875zm0 0" fill="#d2d2d2"/><path d="m339.367188 147.292969c0 18.320312-14.851563 33.167969-33.171876 33.167969-18.320312 0-33.171874-14.847657-33.171874-33.167969 0-18.320313 14.851562-33.171875 33.171874-33.171875 18.320313 0 33.171876 14.851562 33.171876 33.171875zm0 0" fill="#d2d2d2"/><path d="m339.367188 259.441406c0 18.320313-14.851563 33.167969-33.171876 33.167969-18.320312 0-33.171874-14.847656-33.171874-33.167969 0-18.320312 14.851562-33.171875 33.171874-33.171875 18.320313 0 33.171876 14.851563 33.171876 33.171875zm0 0" fill="#d2d2d2"/><g fill="#4f9fe6"><path d="m304.371094 49.15625c-1.9375 0-3.78125-.832031-5.058594-2.285156l-10.808594-12.246094c-2.46875-2.792969-2.203125-7.058594.589844-9.527344 2.796875-2.46875 7.066406-2.199218 9.527344.597656l5.648437 6.394532 25.210938-29.707032c2.410156-2.84375 6.667969-3.191406 9.511719-.78125 2.84375 2.414063 3.191406 6.671876.777343 9.515626l-30.253906 35.65625c-1.265625 1.492187-3.117187 2.363281-5.078125 2.382812-.023438 0-.042969 0-.066406 0zm0 0"/><path d="m304.371094 161.152344c-1.9375 0-3.78125-.832032-5.058594-2.285156l-10.808594-12.246094c-2.46875-2.792969-2.203125-7.058594.589844-9.527344 2.796875-2.46875 7.0625-2.199219 9.527344.597656l5.648437 6.394532 25.207031-29.710938c2.410157-2.839844 6.675782-3.1875 9.515626-.777344 2.84375 2.410156 3.191406 6.671875.777343 9.515625l-30.253906 35.65625c-1.265625 1.492188-3.121094 2.363281-5.082031 2.382813-.019532 0-.039063 0-.0625 0zm0 0"/><path d="m304.371094 272.234375c-1.9375 0-3.78125-.828125-5.058594-2.28125l-10.808594-12.246094c-2.46875-2.792969-2.203125-7.058593.589844-9.527343 2.796875-2.46875 7.0625-2.199219 9.527344.59375l5.648437 6.398437 25.207031-29.710937c2.410157-2.839844 6.671876-3.1875 9.515626-.777344s3.191406 6.671875.777343 9.515625l-30.253906 35.65625c-1.265625 1.492187-3.121094 2.359375-5.082031 2.382812-.019532-.003906-.039063-.003906-.0625-.003906zm0 0"/></g><path d="m481.292969 53.007812h-109.351563c-2.613281 0-4.738281-2.121093-4.738281-4.734374v-18.957032c0-2.617187 2.125-4.738281 4.738281-4.738281h109.355469c2.617187 0 4.738281 2.121094 4.738281 4.738281v18.953125c0 2.617188-2.125 4.738281-4.742187 4.738281zm0 0" fill="#ff5b59"/><path d="m481.292969 161.507812h-109.351563c-2.613281 0-4.738281-2.121093-4.738281-4.738281v-18.953125c0-2.617187 2.125-4.738281 4.738281-4.738281h109.355469c2.617187 0 4.738281 2.121094 4.738281 4.738281v18.953125c0 2.617188-2.125 4.738281-4.742187 4.738281zm0 0" fill="#ff5b59"/><path d="m481.292969 270.007812h-109.351563c-2.613281 0-4.738281-2.121093-4.738281-4.734374v-18.957032c0-2.617187 2.125-4.738281 4.738281-4.738281h109.355469c2.617187 0 4.738281 2.121094 4.738281 4.738281v18.957032c0 2.613281-2.125 4.734374-4.742187 4.734374zm0 0" fill="#ff5b59"/></svg>