<svg width="49" height="48" viewBox="0 0 49 48" fill="none" xmlns="http://www.w3.org/2000/svg">
<path fill-rule="evenodd" clip-rule="evenodd" d="M5.38078 5.35156H43.6177C45.1289 5.35156 46.3645 6.58719 46.3645 8.09844V44.5044C46.3645 46.0128 45.1289 47.2484 43.6177 47.2484H5.38078C3.87234 47.2484 2.63672 46.0128 2.63672 44.5044V8.09844C2.63672 6.58719 3.87234 5.35156 5.38078 5.35156Z" fill="#F1F1F1"/>
<path fill-rule="evenodd" clip-rule="evenodd" d="M5.38078 5.35156H43.6177C45.1289 5.35156 46.3645 6.58719 46.3645 8.09844V13.8162H2.63672V8.09844C2.63672 6.58719 3.87234 5.35156 5.38078 5.35156Z" fill="#FF4646"/>
<path fill-rule="evenodd" clip-rule="evenodd" d="M10.3778 0.750977C11.4541 0.750977 12.3344 1.63129 12.3344 2.70754V7.99504C12.3344 9.07129 11.4541 9.9516 10.3778 9.9516C9.29877 9.9516 8.41846 9.07129 8.41846 7.99504V2.70754C8.41846 1.63129 9.29877 0.750977 10.3778 0.750977Z" fill="#2F5274"/>
<path fill-rule="evenodd" clip-rule="evenodd" d="M19.792 0.750977C20.8683 0.750977 21.7486 1.63129 21.7486 2.70754V7.99504C21.7486 9.07129 20.8683 9.9516 19.792 9.9516C18.7158 9.9516 17.8354 9.07129 17.8354 7.99504V2.70754C17.8354 1.63129 18.7158 0.750977 19.792 0.750977Z" fill="#2F5274"/>
<path fill-rule="evenodd" clip-rule="evenodd" d="M29.2084 0.750977C30.2846 0.750977 31.165 1.63129 31.165 2.70754V7.99504C31.165 9.07129 30.2846 9.9516 29.2084 9.9516C28.1293 9.9516 27.249 9.07129 27.249 7.99504V2.70754C27.25 1.63129 28.1303 0.750977 29.2084 0.750977Z" fill="#2F5274"/>
<path fill-rule="evenodd" clip-rule="evenodd" d="M38.6231 0.750977C39.6993 0.750977 40.5796 1.63129 40.5796 2.70754V7.99504C40.5796 9.07129 39.6993 9.9516 38.6231 9.9516C37.5468 9.9516 36.6665 9.07129 36.6665 7.99504V2.70754C36.6665 1.63129 37.5468 0.750977 38.6231 0.750977Z" fill="#2F5274"/>
<path fill-rule="evenodd" clip-rule="evenodd" d="M21.5864 41.3661C27.9754 41.3661 33.1889 36.1527 33.1889 29.7636C33.1889 23.3746 27.9754 18.1611 21.5864 18.1611C15.1945 18.1611 9.98389 23.3746 9.98389 29.7636C9.98389 36.1536 15.1936 41.3661 21.5864 41.3661Z" fill="#0593FC"/>
<path fill-rule="evenodd" clip-rule="evenodd" d="M21.5865 38.3643C26.3237 38.3643 30.1843 34.5 30.1843 29.7637C30.1843 25.0275 26.3227 21.1631 21.5865 21.1631C16.8502 21.1631 12.9858 25.0275 12.9858 29.7637C12.9858 34.5 16.8493 38.3643 21.5865 38.3643Z" fill="#EBF5FC"/>
<path fill-rule="evenodd" clip-rule="evenodd" d="M28.9102 27.2383H38.0255V30.963C38.0255 31.3727 37.8483 31.728 37.5183 31.9717L35.7211 33.3002C35.392 33.5448 35.2139 33.8973 35.2139 34.3089C35.2139 34.7205 35.3911 35.0739 35.7211 35.3177L37.5183 36.6461C37.8473 36.8936 38.0255 37.2461 38.0255 37.6577V41.3805H28.9102V37.6595C28.9102 37.248 29.0873 36.8945 29.4202 36.648L31.2145 35.3195C31.5464 35.0748 31.7245 34.7223 31.7245 34.3108C31.7245 33.8992 31.5473 33.5458 31.2145 33.302L29.4202 31.9736C29.0883 31.7289 28.9102 31.3736 28.9102 30.9648V27.2383Z" fill="#AAE6FA"/>
<path fill-rule="evenodd" clip-rule="evenodd" d="M28.5138 25.7178H38.4222C38.7494 25.7178 39.0166 25.9831 39.0166 26.3103V27.8703C39.0166 28.1975 38.7485 28.4646 38.4222 28.4646H28.5138C28.1866 28.4646 27.9194 28.1965 27.9194 27.8703V26.3103C27.9194 25.9821 28.1866 25.7178 28.5138 25.7178Z" fill="#2F5274"/>
<path fill-rule="evenodd" clip-rule="evenodd" d="M28.5138 40.1572H38.4222C38.7494 40.1572 39.0166 40.4254 39.0166 40.7516V42.3116C39.0166 42.6388 38.7485 42.906 38.4222 42.906H28.5138C28.1866 42.906 27.9194 42.6379 27.9194 42.3116V40.7516C27.9194 40.4244 28.1866 40.1572 28.5138 40.1572Z" fill="#2F5274"/>
<path fill-rule="evenodd" clip-rule="evenodd" d="M28.8176 27.8693V26.3093C28.8176 26.06 28.9751 25.8434 29.1963 25.7562C29.2629 25.7309 29.3351 25.7178 29.4101 25.7178H29.1757H28.5138C28.1866 25.7178 27.9194 25.9831 27.9194 26.3103V27.8703C27.9194 28.1975 28.1876 28.4646 28.5138 28.4646H28.9104H29.4101C29.2019 28.4646 29.0163 28.354 28.9104 28.1918C28.8513 28.099 28.8176 27.9875 28.8176 27.8693Z" fill="#2A4A68"/>
<path fill-rule="evenodd" clip-rule="evenodd" d="M29.4098 28.4639H28.9102V30.9632C28.9102 31.3729 29.0873 31.7282 29.4202 31.972L29.8167 32.2654L31.2145 33.3004C31.5464 33.5451 31.7245 33.8976 31.7245 34.3092C31.7245 34.7207 31.5473 35.0742 31.2145 35.3179L29.4202 36.6464C29.0883 36.8939 28.9102 37.2464 28.9102 37.6579V38.7595V40.1545H29.8064V37.9504V37.6598C29.8064 37.2482 29.9864 36.8948 30.3164 36.6482L31.5239 35.7548L32.1108 35.3198C32.4427 35.0751 32.6208 34.7226 32.6208 34.3111C32.6208 34.1048 32.5767 33.9117 32.4895 33.742C32.4042 33.5723 32.2758 33.4232 32.1108 33.3014L30.3164 31.9729C30.1795 31.8726 30.0689 31.7517 29.9873 31.6176C29.8692 31.4245 29.8073 31.2032 29.8073 30.9642V28.4648H29.4098V28.4639Z" fill="#99CFE1"/>
<path fill-rule="evenodd" clip-rule="evenodd" d="M28.8176 42.3116V40.7516C28.8176 40.4994 28.9751 40.2829 29.1963 40.1985C29.2629 40.1732 29.3351 40.1572 29.4101 40.1572H29.1757H28.5138C28.1866 40.1572 27.9194 40.4254 27.9194 40.7516V42.3116C27.9194 42.6388 28.1876 42.906 28.5138 42.906H28.9104H29.4101C29.2019 42.906 29.0163 42.7954 28.9104 42.6304C28.8513 42.5404 28.8176 42.4297 28.8176 42.3116Z" fill="#2A4A68"/>
<path fill-rule="evenodd" clip-rule="evenodd" d="M14.1596 29.7637C14.1596 25.2121 17.6968 21.4846 22.1733 21.1837C21.9802 21.1706 21.7824 21.1631 21.5865 21.1631C16.8371 21.1631 12.9858 25.0143 12.9858 29.7637C12.9858 34.5131 16.8371 38.3643 21.5865 38.3643C21.7824 38.3643 21.9802 38.3568 22.1733 38.3437C17.6958 38.0428 14.1596 34.3153 14.1596 29.7637Z" fill="#D4DDE3"/>
<path fill-rule="evenodd" clip-rule="evenodd" d="M4.20703 13.8162V8.09844C4.20703 6.58719 5.44266 5.35156 6.95109 5.35156H5.38078C3.87234 5.35156 2.63672 6.58719 2.63672 8.09844V13.8162H4.20703Z" fill="#E63F3F"/>
<path fill-rule="evenodd" clip-rule="evenodd" d="M4.20703 13.8164H2.63672V44.5045C2.63672 46.013 3.87234 47.2486 5.38078 47.2486H6.95109C5.44266 47.2486 4.20703 46.013 4.20703 44.5045V13.8164Z" fill="#D9D9D9"/>
<path d="M43.6195 4.60031H41.3329V2.70656C41.3329 1.21406 40.1179 0 38.6235 0C37.131 0 35.917 1.21406 35.917 2.70656V4.60031H31.9176V2.70656C31.9176 1.21406 30.7026 0 29.2082 0C27.7157 0 26.5016 1.21406 26.5016 2.70656V4.60031H22.5023V2.70656C22.5023 1.21406 21.2873 0 19.7929 0C18.2985 0 17.0835 1.21406 17.0835 2.70656V4.60031H13.0841V2.70656C13.0832 1.21406 11.8691 0 10.3766 0C8.88227 0 7.66727 1.21406 7.66727 2.70656V4.60031H5.3807C3.4532 4.60031 1.88477 6.16875 1.88477 8.09625V44.5041C1.88477 46.4316 3.4532 48 5.3807 48H43.6195C45.547 48 47.1154 46.4316 47.1154 44.5041V8.09625C47.1154 6.16875 45.547 4.60031 43.6195 4.60031ZM37.4179 2.70656C37.4179 2.04188 37.9588 1.50094 38.6235 1.50094C39.2891 1.50094 39.831 2.04188 39.831 2.70656V7.99219C39.831 8.65781 39.2891 9.19969 38.6235 9.19969C37.9588 9.19969 37.4179 8.65781 37.4179 7.99219V2.70656ZM28.0026 2.70656C28.0026 2.04188 28.5435 1.50094 29.2082 1.50094C29.8738 1.50094 30.4157 2.04188 30.4157 2.70656V7.99219C30.4157 8.65781 29.8738 9.19969 29.2082 9.19969C28.5435 9.19969 28.0026 8.65781 28.0026 7.99219V2.70656ZM18.5845 2.70656C18.5845 2.04188 19.1263 1.50094 19.792 1.50094C20.4576 1.50094 20.9995 2.04188 20.9995 2.70656V7.99219C20.9995 8.65781 20.4576 9.19969 19.792 9.19969C19.1263 9.19969 18.5845 8.65781 18.5845 7.99219V2.70656ZM9.16914 2.70656C9.16914 2.04188 9.71102 1.50094 10.3766 1.50094C11.0413 1.50094 11.5823 2.04188 11.5823 2.70656V7.99219C11.5823 8.65781 11.0413 9.19969 10.3766 9.19969C9.71102 9.19969 9.16914 8.65781 9.16914 7.99219V2.70656ZM5.3807 6.10219H7.66727V7.99312C7.66727 9.4875 8.88227 10.7025 10.3766 10.7025C11.8691 10.7025 13.0832 9.4875 13.0832 7.99312V6.10219H17.0826V7.99312C17.0826 9.4875 18.2976 10.7025 19.792 10.7025C21.2863 10.7025 22.5013 9.4875 22.5013 7.99312V6.10219H26.5007V7.99312C26.5007 9.4875 27.7148 10.7025 29.2073 10.7025C30.7016 10.7025 31.9166 9.4875 31.9166 7.99312V6.10219H35.916V7.99312C35.916 9.4875 37.1301 10.7025 38.6226 10.7025C40.117 10.7025 41.332 9.4875 41.332 7.99312V6.10219H43.6185C44.7182 6.10219 45.6126 6.99656 45.6126 8.09625V13.0641H3.38664V8.09625C3.38664 6.99656 4.28102 6.10219 5.3807 6.10219ZM43.6195 46.4981H5.3807C4.28102 46.4981 3.38664 45.6037 3.38664 44.5041V14.5659H45.6145V44.5041C45.6135 45.6037 44.7191 46.4981 43.6195 46.4981ZM26.9207 29.7628C26.9207 30.1772 26.5851 30.5138 26.1698 30.5138H21.5854C21.171 30.5138 20.8345 30.1781 20.8345 29.7628V25.1784C20.8345 24.7641 21.1701 24.4275 21.5854 24.4275C22.0007 24.4275 22.3363 24.7631 22.3363 25.1784V29.0119H26.1698C26.5851 29.0119 26.9207 29.3484 26.9207 29.7628ZM38.4238 24.9647H32.9713C32.0751 22.8375 30.6107 21.015 28.7104 19.6706C26.6188 18.1912 24.1551 17.4094 21.5854 17.4094C14.7735 17.4094 9.23195 22.9509 9.23195 29.7628C9.23195 36.5747 14.7735 42.1162 21.5854 42.1162C23.5345 42.1162 25.4507 41.6512 27.1701 40.7812V42.3112C27.1701 43.0537 27.7729 43.6575 28.5135 43.6575H38.4229C39.1654 43.6575 39.7691 43.0537 39.7691 42.3112V40.7513C39.7691 40.1334 39.3482 39.6131 38.7782 39.4566V37.6575C38.7782 37.0041 38.4885 36.4303 37.9645 36.0441L36.1691 34.7137C36.0295 34.6116 35.9648 34.4822 35.9648 34.3088C35.9648 34.1372 36.0313 34.005 36.171 33.9019L37.9626 32.5744C38.4885 32.1872 38.7782 31.6134 38.7782 30.96V29.1637C39.3482 29.0081 39.7691 28.4869 39.7691 27.8691V26.3091C39.7701 25.5684 39.1663 24.9647 38.4238 24.9647ZM38.2682 27.7125H28.672V26.4666H29.1698H29.1726H38.2673V27.7125H38.2682ZM28.1591 29.1647V30.9609C28.1591 31.5956 28.4329 32.1544 28.9288 32.5397C27.7813 35.595 24.8938 37.6134 21.5854 37.6134C17.256 37.6134 13.7338 34.0912 13.7338 29.7619C13.7338 25.4344 17.256 21.9131 21.5854 21.9131C24.1063 21.9131 26.4398 23.115 27.9079 25.11C27.471 25.3322 27.1701 25.7859 27.1701 26.31V27.87C27.171 28.4888 27.591 29.0091 28.1591 29.1647ZM10.7348 29.7628C10.7348 23.7787 15.6032 18.9113 21.5863 18.9113C25.7273 18.9113 29.5091 21.3047 31.3204 24.9647H29.6123C27.9248 22.1456 24.891 20.4122 21.5863 20.4122C16.4291 20.4122 12.2329 24.6066 12.2329 29.7628C12.2329 34.92 16.4282 39.1162 21.5863 39.1162C23.6329 39.1162 25.5763 38.4675 27.2066 37.2394C28.5032 36.2625 29.5326 34.9463 30.1748 33.4641L30.7701 33.9047C30.9079 34.0059 30.9745 34.1381 30.9745 34.3097C30.9745 34.4831 30.9098 34.6125 30.7682 34.7166L28.9766 36.0441C28.4507 36.4313 28.161 37.005 28.161 37.6584V38.3953C26.2832 39.8278 23.9629 40.6153 21.5873 40.6153C15.6023 40.6144 10.7348 35.7469 10.7348 29.7628ZM38.2682 42.1556H28.672V40.9097H38.2682V42.1556ZM37.071 31.3678L35.2795 32.6953C34.7535 33.0825 34.4638 33.6562 34.4638 34.3097C34.4638 34.9631 34.7535 35.5369 35.2776 35.9231L37.0729 37.2534C37.2126 37.3556 37.2773 37.485 37.2773 37.6584V39.4087H29.661V38.7656V37.6594C29.661 37.4859 29.7257 37.3566 29.8673 37.2525L31.6588 35.925C32.1848 35.5378 32.4745 34.9641 32.4745 34.3106C32.4745 33.6572 32.1848 33.0834 31.6607 32.6972L29.8654 31.3669C29.7257 31.2637 29.661 31.1353 29.661 30.9619V29.2144H37.2773V30.9619C37.2773 31.1353 37.2126 31.2638 37.071 31.3678Z" fill="#5A5A5A"/>
</svg>
