<svg width="48" height="48" viewBox="0 0 48 48" fill="none" xmlns="http://www.w3.org/2000/svg">
<g clip-path="url(#clip0_2655_11241)">
<path d="M35.5326 43.9724C24.5048 50.3393 10.4037 46.5609 4.03674 35.5331C-2.3302 24.5053 1.44811 10.404 12.476 4.03714C23.5039 -2.3297 37.605 1.44871 43.9719 12.4764C50.3388 23.5041 46.5604 37.6055 35.5326 43.9724Z" fill="#78D2FA"/>
<path d="M25.6315 17.1044C25.4656 17.1433 25.144 17.2249 25.005 17.3365C24.8313 17.4757 25.1027 17.6567 25.0036 17.7361C24.8325 17.8729 24.7084 18.1212 24.3422 18.0977C23.577 18.0489 22.401 17.0591 21.7017 16.6849C22.8289 15.5249 21.0455 15.3511 20.3505 15.4092C19.4504 15.4845 17.8927 15.4033 17.0796 15.8611C16.5153 16.1788 15.7569 17.4975 15.3023 18.0212C14.6695 18.7502 14.0328 19.3831 13.6204 20.256C12.1078 23.4578 14.436 27.1336 18.095 26.7037C19.1109 26.5844 20.1766 25.9456 21.0769 26.7885C21.7404 27.4096 21.3893 27.9941 21.5652 28.7184C21.7174 29.3452 22.4115 29.7308 22.6517 30.3064C23.1123 31.4099 22.8206 32.1 22.4918 33.1177C22.0604 34.4532 23.1761 36.0388 23.6103 37.3276C23.829 37.9765 24.4662 39.7937 25.0918 40.0781C26.0754 40.5253 27.6171 39.1842 28.2045 38.4629C28.6637 37.899 28.5138 37.3262 28.8222 36.7982C29.156 36.2267 29.5785 36.0552 29.8124 35.3185C30.0645 34.5244 30.3264 34.3269 30.8588 33.7474C31.716 32.8148 31.5828 32.2695 31.2402 31.1636C30.5282 28.8661 33.1144 27.7921 34.2794 26.1057C35.4959 24.3446 33.1444 24.9317 32.2229 24.3293C31.2753 23.71 30.8613 22.533 30.4047 21.5572C29.9479 20.5814 29.57 19.1149 28.8138 18.3134C28.2311 17.6962 26.4588 17.4099 25.6315 17.1044Z" fill="#A5DC69"/>
<path d="M37.5335 32.5167C37.1659 33.7556 36.7984 34.9944 36.4308 36.2332C36.1738 37.0992 35.2653 39.9324 33.9906 38.1177C33.5061 37.428 33.9002 36.5244 34.1705 35.8898C34.5114 35.0892 34.0506 34.686 34.2884 33.9281C34.561 33.0593 35.6826 33.0296 36.2134 32.4185C36.5835 31.9925 36.8118 31.3152 37.0822 30.8164C37.2328 31.3833 37.3832 31.9499 37.5335 32.5167Z" fill="#A5DC69"/>
<path d="M43.9716 12.4759C40.0003 5.5976 33.0201 1.54001 25.6535 1.00488L22.6383 4.78713L16.176 7.0527L14.4424 11.2553L17.1166 15.0015L17.4009 14.2095C17.8755 12.8871 19.129 12.0052 20.5339 12.0052H24.9414L30.0076 13.7855L31.7526 15.4513V16.5094L34.1785 21.1563L34.8849 20.8957C36.4104 20.3332 37.7956 19.4465 38.9453 18.2969L38.3597 17.4183C38.1734 17.1389 38.3738 16.7647 38.7095 16.7647H40.1232C40.5372 16.7647 40.9304 16.946 41.1993 17.2609L42.3542 18.613C42.4643 18.7418 42.5502 18.8894 42.6082 19.0486L43.8826 22.5532L44.4893 21.9466C44.8718 21.564 45.0654 21.0428 45.0744 20.5019C45.0817 20.067 45.2704 19.6544 45.5956 19.3643L46.0602 18.9499C46.177 18.8458 46.3073 18.7611 46.4461 18.6971C45.9411 16.5657 45.1231 14.4705 43.9716 12.4759Z" fill="#A5DC69"/>
<path d="M9.47882 13.3769L10.5816 12.1951C11.3857 11.3335 11.6135 10.0819 11.1644 8.99216C10.6897 7.83998 9.64879 7.09298 8.4966 6.93848C4.42411 10.632 1.89201 15.5979 1.16357 20.8579C2.02457 21.6105 2.92561 22.4162 2.92045 22.4872C2.91051 22.623 6.14629 22.0805 6.14629 22.0805L4.48054 19.6369L6.87276 17.9264L9.47882 13.3769Z" fill="#A5DC69"/>
<path d="M11.7209 36.3501C12.7604 36.0124 13.3293 34.896 12.9916 33.8566L12.6947 32.9426C12.565 32.5433 12.5656 32.1132 12.6965 31.7143C13.0675 30.5835 12.3636 29.3835 11.1957 29.1552L8.8657 28.6998L4.60954 25.4639L1.09082 26.607C1.43638 29.6627 2.40079 32.6989 4.03654 35.5323C5.54948 38.1527 7.49966 40.3628 9.74085 42.1258L10.7894 36.6527L11.7209 36.3501Z" fill="#A5DC69"/>
<path d="M35.0623 43.1619L35.0262 43.1827C34.5784 43.4424 34.4261 44.0161 34.6858 44.4639C34.8597 44.7637 35.1742 44.9311 35.4974 44.9311C35.657 44.9311 35.819 44.8901 35.967 44.8043L36.0031 44.7834C36.4509 44.5237 36.6032 43.95 36.3435 43.5022C36.0838 43.0546 35.5103 42.9021 35.0623 43.1619Z" fill="black"/>
<path d="M44.7838 12.0074C41.5792 6.45694 36.4051 2.48672 30.2144 0.827912C24.0239 -0.8309 17.5577 0.0204434 12.0073 3.22491C6.45681 6.42938 2.48659 11.6036 0.827871 17.7942C-0.830848 23.9848 0.0204016 30.451 3.22487 36.0014C6.09934 40.9802 10.668 44.764 16.0892 46.6557C18.6589 47.5523 21.3416 47.9998 24.0201 47.9998C26.9325 47.9998 29.8396 47.4705 32.5875 46.4143C33.0707 46.2286 33.3119 45.6863 33.1261 45.203C32.9402 44.7197 32.3978 44.4783 31.9147 44.6644C24.6003 47.4757 16.682 46.1983 10.7661 41.7578L11.606 37.3735L12.0107 37.2421C13.5401 36.7452 14.3801 35.0967 13.8834 33.5673L13.5864 32.6533C13.5177 32.4418 13.5181 32.2182 13.5873 32.0069C13.8479 31.2127 13.7548 30.3437 13.3319 29.6226C12.909 28.9014 12.196 28.3959 11.3756 28.2355L9.25965 27.8221L5.17703 24.718C4.93243 24.532 4.61228 24.4778 4.31996 24.5726L1.92971 25.3491C1.879 24.4942 1.87825 23.6395 1.92643 22.7894C2.02075 22.8773 2.08215 22.937 2.11993 22.9762C2.16671 23.0541 2.22465 23.1255 2.29253 23.1874C2.48771 23.3651 2.66453 23.4458 3.03578 23.4458C3.37693 23.4457 3.88196 23.3777 4.71587 23.2545C5.50675 23.1376 6.2935 23.0059 6.30128 23.0046C6.61656 22.9518 6.88309 22.7418 7.00853 22.4479C7.13396 22.1539 7.10087 21.8163 6.92078 21.5521L5.77131 19.8661L7.41775 18.6888C7.52743 18.6103 7.61893 18.5092 7.68596 18.3922L10.2381 13.9367L11.2668 12.8344C12.3181 11.7077 12.6181 10.0593 12.031 8.63466C11.6847 7.79438 11.0798 7.09482 10.3232 6.62335C11.1426 5.97919 12.0163 5.38444 12.9448 4.84847C16.3515 2.8816 20.0692 1.92844 23.7479 1.89197L22.0739 3.99188L15.8662 6.16819C15.6141 6.25651 15.4116 6.44832 15.3098 6.69535L13.5762 10.898C13.4531 11.1966 13.4922 11.5373 13.6798 11.8001L16.2118 15.3469C15.8492 15.6777 15.4962 16.1596 15.0746 16.7579C14.8897 17.0203 14.7152 17.2681 14.5945 17.407C14.4896 17.528 14.3846 17.6461 14.2805 17.7631C13.7359 18.3758 13.1729 19.0094 12.7728 19.8558C11.8933 21.7176 12.0709 23.8815 13.2364 25.5032C14.3634 27.0712 16.2213 27.8682 18.2043 27.635C18.5274 27.5971 18.8286 27.5226 19.1201 27.4504C19.9238 27.2515 20.1784 27.2317 20.4362 27.473C20.5617 27.5904 20.5732 27.6127 20.5707 28.0109C20.5689 28.2644 20.5669 28.5798 20.6543 28.9399C20.7943 29.516 21.1562 29.9141 21.4467 30.234C21.5912 30.3929 21.7406 30.5573 21.7866 30.6677C22.079 31.3684 21.9517 31.7564 21.6727 32.6067C21.6488 32.6795 21.6244 32.7537 21.6 32.8298C21.1761 34.1419 21.7669 35.4433 22.2882 36.5915C22.4575 36.9643 22.6173 37.3163 22.7221 37.6273C23.565 40.1285 24.1968 40.7013 24.7039 40.9319C24.9695 41.0527 25.2444 41.1056 25.5221 41.1055C26.8735 41.1054 28.2837 39.8507 28.9315 39.0552C29.3384 38.5557 29.4386 38.0556 29.5117 37.6902C29.5482 37.5085 29.5769 37.3651 29.6316 37.2714C29.7154 37.1279 29.8142 37.0167 29.9391 36.8759C30.1905 36.5929 30.5032 36.2408 30.7059 35.6024C30.8598 35.1175 30.9717 34.9987 31.3421 34.6042C31.4066 34.5356 31.4753 34.4623 31.5491 34.3821C32.7977 33.0233 32.4762 31.9854 32.1356 30.8865C31.849 29.9618 32.3503 29.3705 33.5623 28.2418C34.0877 27.7525 34.6308 27.2467 35.0507 26.6389C35.2345 26.3728 35.7935 25.5635 35.4476 24.7613C35.1085 23.9747 34.2467 23.8425 33.5542 23.7364C33.2807 23.6944 32.8675 23.631 32.736 23.545C32.1559 23.1658 31.8011 22.3744 31.4579 21.6089C31.3895 21.4566 31.3221 21.3062 31.2538 21.1602C31.1319 20.8998 31.0101 20.5847 30.8812 20.2511C30.5402 19.3684 30.1536 18.3678 29.4956 17.6703C28.9041 17.0436 27.7892 16.7417 26.8054 16.4753C26.4746 16.3857 26.1623 16.3012 25.9563 16.2251C25.7837 16.1614 25.5964 16.1499 25.4177 16.1919C24.9389 16.3041 24.6402 16.4277 24.4184 16.6055C24.3598 16.6524 24.1862 16.8067 24.0846 17.0545C23.7414 16.8898 23.2695 16.5753 22.979 16.3817C22.973 16.3777 22.9669 16.3736 22.9609 16.3696C23.0588 15.9779 22.9702 15.6636 22.8774 15.4673C22.3536 14.3595 20.6153 14.4462 20.2724 14.4754C20.0776 14.4917 19.8311 14.5004 19.5704 14.5096C19.1609 14.5241 18.7082 14.5404 18.2604 14.5907L18.2835 14.5264C18.6234 13.5792 19.5279 12.9428 20.5342 12.9428H21.0671C21.5848 12.9428 22.0045 12.5229 22.0045 12.0054C22.0045 11.4877 21.5847 11.0679 21.0671 11.0679H20.5342C19.0402 11.0679 17.6721 11.8542 16.9053 13.0918L15.5071 11.1331L16.8827 7.79851L22.9487 5.67179C23.1151 5.61347 23.2617 5.50941 23.3717 5.37151L26.0681 1.9891C32.9582 2.64451 39.4438 6.50757 43.1602 12.9446C44.1501 14.6592 44.8824 16.4643 45.3692 18.3105L44.9718 18.6649C44.4531 19.1277 44.1492 19.7916 44.1376 20.4864C44.1375 20.4939 44.1373 20.5014 44.137 20.5089L43.4896 18.7284C43.3931 18.4628 43.251 18.2191 43.0674 18.0043L41.9125 16.6522C41.4647 16.128 40.8128 15.8275 40.1237 15.8275H38.71C38.2082 15.8275 37.7495 16.1024 37.5128 16.5446C37.2761 16.9869 37.302 17.5211 37.5803 17.9385L37.7234 18.1533C36.8099 18.9388 35.7533 19.5674 34.6283 19.9914L32.6906 16.2795V15.4514C32.6906 15.1953 32.5858 14.9501 32.4004 14.7734L30.6555 13.1076C30.5592 13.0157 30.4444 12.9454 30.3189 12.9012L28.748 12.3492C28.2593 12.1773 27.7244 12.4344 27.5528 12.9228C27.3812 13.4113 27.6379 13.9464 28.1264 14.118L29.5067 14.6032L30.8157 15.8526V16.5096C30.8157 16.6606 30.8522 16.8095 30.9222 16.9434L33.3482 21.5904C33.5663 22.0085 34.0615 22.1995 34.5034 22.036L35.2098 21.7756C36.8509 21.1704 38.372 20.1968 39.6088 18.9602C39.9247 18.6442 39.9738 18.1493 39.7259 17.7774L39.676 17.7024H40.1237C40.2636 17.7024 40.3961 17.7635 40.487 17.87L41.6419 19.2221C41.6792 19.2657 41.7079 19.315 41.7276 19.3691L43.0022 22.8738C43.1117 23.1749 43.3674 23.3992 43.68 23.4685C43.7475 23.4834 43.8154 23.4908 43.883 23.4908C44.1289 23.4908 44.3683 23.3939 44.5458 23.2162L45.1525 22.6095C45.5367 22.2252 45.8012 21.739 45.9275 21.2001C46.8658 28.7193 43.9174 36.4975 37.6855 41.3888C37.2782 41.7084 37.2071 42.2977 37.5269 42.705C37.8465 43.1123 38.4356 43.1834 38.843 42.8636C43.3423 39.3324 46.4332 34.2816 47.5465 28.6417C48.6703 22.9474 47.6892 17.0397 44.7838 12.0074ZM4.43275 26.5074L8.29834 29.4466C8.41262 29.5335 8.54518 29.5929 8.686 29.6204L11.0159 30.0757C11.3132 30.1338 11.5613 30.3097 11.7146 30.571C11.8679 30.8323 11.9001 31.1347 11.8058 31.4226C11.6117 32.0144 11.6108 32.6404 11.8033 33.2326L12.1003 34.1465C12.2777 34.6927 11.9776 35.2815 11.4315 35.459L10.4999 35.7617C10.1748 35.8673 9.93315 36.1414 9.86893 36.4768L9.11912 40.3908C7.47071 38.8821 6.0234 37.0989 4.84862 35.0641C3.41528 32.5819 2.51978 29.9343 2.12509 27.2572L4.43275 26.5074ZM1.98493 22.5449C1.98756 22.5856 1.99271 22.626 2.0005 22.6659C1.9929 22.6283 1.98765 22.5877 1.98493 22.5449ZM10.2976 9.34894C10.606 10.0973 10.4483 10.9634 9.89612 11.5553L8.79334 12.7369C8.74412 12.7897 8.70109 12.848 8.66518 12.9106L6.16093 17.2827L3.93521 18.8742C3.52065 19.1707 3.41884 19.7438 3.7059 20.1649L4.53831 21.3859C4.0585 21.4573 3.6279 21.5162 3.34159 21.5474C3.28656 21.4946 3.229 21.4411 3.16946 21.3858C2.94662 21.1788 2.63696 20.9023 2.17534 20.4984C2.93668 15.7862 5.20731 11.3469 8.77843 7.95835C9.46234 8.17351 10.0234 8.68369 10.2976 9.34894ZM19.6367 16.3834C19.9207 16.3734 20.189 16.3638 20.4287 16.3437C20.5551 16.3331 20.6956 16.3351 20.828 16.3454C20.7689 16.4973 20.7497 16.664 20.7753 16.8294C20.8204 17.1203 20.9998 17.3729 21.2593 17.5118C21.4352 17.6059 21.6799 17.7691 21.9391 17.9419C22.6717 18.4303 23.5023 18.9839 24.2824 19.0336C24.9919 19.0796 25.3867 18.6753 25.5558 18.503C25.5693 18.4893 25.5821 18.4756 25.5956 18.4631C25.6908 18.3855 25.7801 18.2814 25.8465 18.1559C25.9964 18.1988 26.1539 18.2414 26.3153 18.2852C26.8704 18.4355 27.9035 18.7152 28.1319 18.9571C28.5374 19.3869 28.8534 20.2051 29.1323 20.9269C29.2732 21.2917 29.4063 21.6359 29.5557 21.9551C29.6198 22.0921 29.6829 22.2332 29.747 22.3761C30.1796 23.3409 30.6699 24.4346 31.7101 25.1145C32.1817 25.4228 32.7599 25.5114 33.2701 25.5897C33.3317 25.5992 33.4024 25.6101 33.4742 25.6219C33.1714 26.0443 32.7403 26.4458 32.2847 26.87C31.1242 27.9507 29.6799 29.2958 30.3451 31.4417C30.659 32.4549 30.6737 32.5644 30.1688 33.1136C30.1 33.1885 30.0359 33.2568 29.9758 33.3207C29.5434 33.781 29.2019 34.1446 28.9191 35.0352C28.837 35.2939 28.7306 35.4137 28.5374 35.6312C28.3829 35.8052 28.1904 36.0219 28.0128 36.3257C27.8002 36.6896 27.7299 37.0401 27.6736 37.3216C27.618 37.5986 27.5865 37.7377 27.4777 37.8713C27.2301 38.1752 26.7683 38.6166 26.2942 38.9178C25.8536 39.1975 25.5963 39.2358 25.5087 39.2305C25.4087 39.1233 25.0463 38.6538 24.4988 37.0287C24.3638 36.6278 24.1765 36.2153 23.9954 35.8164C23.5961 34.9371 23.1833 34.0277 23.3841 33.4062C23.4078 33.3329 23.4313 33.2613 23.4543 33.1913C23.7752 32.2134 24.078 31.2901 23.517 29.9457C23.3462 29.5363 23.0742 29.2372 22.8345 28.9732C22.6793 28.8024 22.5035 28.6089 22.4764 28.4976C22.4434 28.3617 22.4445 28.2049 22.4457 28.0233C22.4489 27.5334 22.4537 26.7933 21.7179 26.1042C20.6805 25.1332 19.4707 25.4323 18.6701 25.6303C18.4242 25.6911 18.1919 25.7486 17.986 25.7728C16.669 25.9271 15.4932 25.4303 14.7591 24.4088C13.9912 23.3403 13.8797 21.9024 14.4683 20.6565C14.7532 20.0536 15.1836 19.5692 15.682 19.0086C15.7908 18.886 15.9007 18.7625 16.0106 18.6359C16.1934 18.4252 16.3946 18.1398 16.6073 17.8376C16.8615 17.4769 17.3343 16.8057 17.5397 16.678C17.9577 16.4429 18.9282 16.4085 19.6367 16.3834Z" fill="black"/>
<path d="M35.0671 39.63C36.0234 39.4737 36.7422 38.479 37.3297 36.4994L38.4324 32.783C38.4813 32.6178 38.4839 32.4423 38.4397 32.2758L37.9886 30.5757C37.8901 30.2045 37.5751 29.9309 37.1938 29.8853C36.8121 29.8407 36.4419 30.0316 36.2586 30.3692C36.1558 30.5585 36.0633 30.7592 35.9739 30.9531C35.8234 31.2795 35.6678 31.617 35.5059 31.8033C35.4149 31.9079 35.1813 32.0207 34.9555 32.1296C34.4158 32.39 33.6766 32.7468 33.3942 33.647C33.2189 34.2053 33.2844 34.6471 33.3322 34.9696C33.3735 35.2492 33.3831 35.3462 33.3082 35.522L33.2988 35.5439C33.0004 36.2441 32.4452 37.5477 33.2237 38.6559C33.7792 39.4468 34.3632 39.6501 34.8171 39.6501C34.9058 39.6504 34.9896 39.6426 35.0671 39.63ZM34.7578 37.5785C34.5787 37.3233 34.8464 36.6948 35.0236 36.2788L35.0331 36.2569C35.3188 35.5862 35.2424 35.0711 35.1868 34.695C35.1511 34.4541 35.1384 34.3506 35.1831 34.2084C35.2198 34.0915 35.4395 33.9781 35.7704 33.8183C35.9171 33.7475 36.0787 33.6695 36.2417 33.5752L35.5324 35.966C35.2329 36.9754 34.968 37.4465 34.8151 37.6554C34.7974 37.6331 34.7783 37.6076 34.7578 37.5785Z" fill="black"/>
<path d="M25.2518 11.1213C24.7637 10.9503 24.2284 11.2071 24.057 11.6956C23.8856 12.1842 24.1428 12.7191 24.6313 12.8905L24.6945 12.9126C24.7972 12.9486 24.9018 12.9657 25.0048 12.9657C25.3918 12.9657 25.7541 12.7241 25.8894 12.3383C26.0608 11.8497 25.8037 11.3148 25.3151 11.1434L25.2518 11.1213Z" fill="black"/>
</g>
<defs>
<clipPath id="clip0_2655_11241">
<rect width="48" height="48" fill="white"/>
</clipPath>
</defs>
</svg>
