<svg width="40" height="40" viewBox="0 0 40 40" fill="none" xmlns="http://www.w3.org/2000/svg">
<path d="M21.9308 30.3385L22.5276 37.5V38.75C22.5276 38.9158 22.5934 39.0747 22.7106 39.1919C22.8278 39.3092 22.9868 39.375 23.1526 39.375H24.4026C24.5683 39.375 24.7273 39.3092 24.8445 39.1919C24.9617 39.0747 25.0276 38.9158 25.0276 38.75V37.5L25.6244 30.3385C25.628 30.2954 25.6226 30.252 25.6086 30.2111C25.5945 30.1703 25.5722 30.1327 25.5429 30.1009C25.5137 30.0691 25.4781 30.0437 25.4385 30.0263C25.399 30.009 25.3562 30 25.313 30H22.2422C22.199 30 22.1562 30.009 22.1166 30.0263C22.077 30.0437 22.0415 30.0691 22.0122 30.1009C21.983 30.1327 21.9606 30.1702 21.9466 30.2111C21.9326 30.252 21.9272 30.2954 21.9308 30.3385Z" fill="#ADC4E6"/>
<path d="M23.0674 39.0208V37.6875L22.4308 30.0485C22.4316 30.0322 22.4337 30.016 22.437 30H22.2422C22.199 30 22.1562 30.009 22.1166 30.0263C22.0771 30.0437 22.0415 30.0691 22.0122 30.1009C21.983 30.1327 21.9606 30.1702 21.9466 30.2111C21.9326 30.252 21.9272 30.2954 21.9308 30.3384L22.5276 37.5V38.75C22.5276 38.9158 22.5934 39.0747 22.7106 39.1919C22.8278 39.3092 22.9868 39.375 23.1526 39.375H23.1837C23.1111 39.2709 23.0707 39.1477 23.0674 39.0208Z" fill="#A3B9D9"/>
<path d="M35 29.375H37.5C37.8315 29.375 38.1495 29.5067 38.3839 29.7411C38.6183 29.9755 38.75 30.2935 38.75 30.625V38.75C38.75 38.9158 38.6842 39.0747 38.5669 39.1919C38.4497 39.3092 38.2908 39.375 38.125 39.375H34.375C34.2092 39.375 34.0503 39.3092 33.9331 39.1919C33.8158 39.0747 33.75 38.9158 33.75 38.75V30.625C33.75 30.2935 33.8817 29.9755 34.1161 29.7411C34.3505 29.5067 34.6685 29.375 35 29.375Z" fill="#6893CC"/>
<path d="M31.5625 38.125V32.5C31.5625 32.3342 31.4967 32.1753 31.3794 32.0581C31.2622 31.9408 31.1033 31.875 30.9375 31.875H28.4375C28.2717 31.875 28.1128 31.9408 27.9956 32.0581C27.8783 32.1753 27.8125 32.3342 27.8125 32.5V38.125H27.5V39.375H31.875V38.125H31.5625Z" fill="#5B6D80"/>
<path d="M30.4852 27.3416L28.783 28.1927C28.6792 28.2446 28.5919 28.3244 28.5308 28.4231C28.4698 28.5219 28.4375 28.6357 28.4375 28.7517V31.8767H30.9375V27.6211C30.9375 27.5678 30.9239 27.5154 30.8979 27.4689C30.872 27.4224 30.8346 27.3833 30.7893 27.3553C30.744 27.3273 30.6922 27.3113 30.639 27.3089C30.5858 27.3065 30.5329 27.3178 30.4852 27.3416Z" fill="#E67A72"/>
<path d="M28.4375 31.875C28.2717 31.875 28.1128 31.9408 27.9956 32.0581C27.8783 32.1753 27.8125 32.3342 27.8125 32.5V38.125H27.5V39.375H28.4375V31.875Z" fill="#526273"/>
<path d="M27.5 38.125H31.875V39.375H27.5V38.125Z" fill="#495766"/>
<path d="M27.5 38.125H28.4375V39.375H27.5V38.125Z" fill="#404C59"/>
<path d="M21.9807 30.9375H25.5744L25.6244 30.3384C25.628 30.2954 25.6226 30.252 25.6086 30.2111C25.5945 30.1703 25.5722 30.1327 25.5429 30.1009C25.5137 30.0691 25.4781 30.0437 25.4385 30.0263C25.399 30.009 25.3562 30 25.313 30H22.2422C22.199 30 22.1562 30.009 22.1166 30.0263C22.077 30.0437 22.0415 30.0691 22.0122 30.1009C21.983 30.1327 21.9606 30.1702 21.9466 30.2111C21.9326 30.252 21.9272 30.2954 21.9308 30.3384L21.9807 30.9375Z" fill="#5B6D80"/>
<path d="M22.5273 37.5V38.75C22.5273 38.9158 22.5932 39.0747 22.7104 39.1919C22.8276 39.3092 22.9866 39.375 23.1523 39.375H24.4023C24.5681 39.375 24.7271 39.3092 24.8443 39.1919C24.9615 39.0747 25.0273 38.9158 25.0273 38.75V37.5H22.5273Z" fill="#5B6D80"/>
<path d="M9.99084 28.1338C9.99272 27.1925 9.6906 26.2757 9.12944 25.5199C8.56829 24.7641 7.7781 24.2097 6.87647 23.9392L6.88071 21.2539H4.37996L4.37569 23.9362C3.47305 24.2043 2.68115 24.7568 2.11793 25.5114C1.55471 26.266 1.25029 27.1823 1.25 28.1239V38.7505C1.25 38.9163 1.31585 39.0753 1.43306 39.1925C1.55027 39.3097 1.70924 39.3755 1.875 39.3755H9.375C9.45714 39.3755 9.53847 39.3593 9.61435 39.3279C9.69023 39.2964 9.75917 39.2503 9.81721 39.1922C9.87526 39.1341 9.92128 39.0651 9.95264 38.9892C9.98401 38.9133 10.0001 38.8319 10 38.7498L9.99084 28.1338Z" fill="#E6E6E6"/>
<path d="M9.99084 28.1352C9.99272 27.1938 9.6906 26.277 9.12944 25.5212C8.56829 24.7654 7.7781 24.211 6.87647 23.9405L4.37569 23.9375C3.47305 24.2056 2.68115 24.7581 2.11793 25.5127C1.55471 26.2673 1.25029 27.1837 1.25 28.1253V38.7518C1.25 38.9176 1.31585 39.0766 1.43306 39.1938C1.55027 39.311 1.70924 39.3768 1.875 39.3768H9.375C9.45714 39.3768 9.53847 39.3607 9.61435 39.3292C9.69023 39.2977 9.75917 39.2516 9.81721 39.1935C9.87526 39.1354 9.92128 39.0664 9.95264 38.9905C9.98401 38.9146 10.0001 38.8332 10 38.7511L9.99084 28.1352Z" fill="#35B385"/>
<path d="M3.125 20V21.25H8.125L8.75 20.625H10V19.375H3.75C3.58424 19.375 3.42527 19.4408 3.30806 19.5581C3.19085 19.6753 3.125 19.8342 3.125 20Z" fill="#5B6D80"/>
<path d="M2.02633 39.343V28.1746C2.02779 27.2674 2.29778 26.381 2.80227 25.6271C3.30676 24.8731 4.02317 24.2854 4.86118 23.9381L4.37569 23.9375C3.47305 24.2056 2.68116 24.7581 2.11794 25.5127C1.55472 26.2673 1.25029 27.1836 1.25 28.1253V38.7518C1.25 38.9176 1.31585 39.0766 1.43306 39.1938C1.55027 39.311 1.70924 39.3768 1.875 39.3768H2.03316C2.0325 39.365 2.02633 39.355 2.02633 39.343Z" fill="#31A67B"/>
<path d="M12.5 31.875H18.75C19.0815 31.875 19.3995 32.0067 19.6339 32.2411C19.8683 32.4755 20 32.7935 20 33.125V38.75C20 38.9158 19.9342 39.0747 19.8169 39.1919C19.6997 39.3092 19.5408 39.375 19.375 39.375H11.875C11.7092 39.375 11.5503 39.3092 11.4331 39.1919C11.3158 39.0747 11.25 38.9158 11.25 38.75V33.125C11.25 32.7935 11.3817 32.4755 11.6161 32.2411C11.8505 32.0067 12.1685 31.875 12.5 31.875Z" fill="#FFE38F"/>
<path d="M12.0833 39.3229V33.2291C12.0833 33.0513 12.1184 32.8752 12.1864 32.7109C12.2545 32.5466 12.3542 32.3974 12.48 32.2716C12.6057 32.1459 12.755 32.0461 12.9193 31.9781C13.0836 31.91 13.2597 31.875 13.4375 31.875H12.5C12.3358 31.875 12.1733 31.9073 12.0216 31.9701C11.87 32.033 11.7322 32.125 11.6161 32.2411C11.5 32.3572 11.408 32.495 11.3451 32.6466C11.2823 32.7983 11.25 32.9608 11.25 33.125V38.75C11.25 38.9158 11.3158 39.0747 11.4331 39.1919C11.5503 39.3092 11.7092 39.375 11.875 39.375H12.0939C12.0924 39.3569 12.0833 39.3414 12.0833 39.3229Z" fill="#F2D888"/>
<path d="M18.75 31.875H12.5C12.3358 31.875 12.1733 31.9073 12.0216 31.9701C11.87 32.033 11.7322 32.125 11.6161 32.2411C11.5 32.3572 11.408 32.495 11.3451 32.6466C11.2823 32.7983 11.25 32.9608 11.25 33.125V33.75H20V33.125C20 32.7935 19.8683 32.4755 19.6339 32.2411C19.3995 32.0067 19.0815 31.875 18.75 31.875Z" fill="#5B6D80"/>
<path d="M35 27.5V29.375H37.5V27.5C37.5 27.3342 37.4342 27.1753 37.3169 27.0581C37.1997 26.9408 37.0408 26.875 36.875 26.875H35.625C35.4592 26.875 35.3003 26.9408 35.1831 27.0581C35.0658 27.1753 35 27.3342 35 27.5Z" fill="#5B6D80"/>
<path d="M34.375 39.2977V30.1571C34.3764 29.9107 34.4431 29.6692 34.5684 29.457C34.3288 29.5447 34.1218 29.7038 33.9755 29.9128C33.8291 30.1218 33.7504 30.3707 33.75 30.6259V38.7509C33.75 38.9166 33.8158 39.0756 33.9331 39.1928C34.0503 39.31 34.2092 39.3759 34.375 39.3759H34.3908C34.3839 39.3502 34.3787 39.3241 34.375 39.2977Z" fill="#628ABF"/>
<path d="M12.0833 33.2291C12.0833 33.0513 12.1184 32.8752 12.1864 32.7109C12.2545 32.5466 12.3542 32.3974 12.48 32.2716C12.6057 32.1459 12.755 32.0461 12.9193 31.9781C13.0836 31.91 13.2597 31.875 13.4375 31.875H12.5C12.3358 31.875 12.1733 31.9073 12.0216 31.9701C11.87 32.033 11.7322 32.125 11.6161 32.2411C11.5 32.3572 11.408 32.495 11.3451 32.6466C11.2823 32.7983 11.25 32.9608 11.25 33.125V33.75H12.0833L12.0833 33.2291Z" fill="#526273"/>
<path d="M22.4308 30.0485C22.4316 30.0322 22.4337 30.016 22.437 30H22.2422C22.199 30 22.1562 30.009 22.1166 30.0263C22.0771 30.0437 22.0415 30.0691 22.0122 30.1009C21.983 30.1327 21.9606 30.1702 21.9466 30.2111C21.9326 30.252 21.9272 30.2954 21.9308 30.3384L21.9807 30.9375H22.5049L22.4308 30.0485Z" fill="#526273"/>
<path d="M23.0672 39.0208V37.6875L23.0516 37.5H22.5273V38.75C22.5273 38.9158 22.5932 39.0747 22.7104 39.1919C22.8276 39.3092 22.9866 39.375 23.1523 39.375H23.1834C23.1109 39.2709 23.0704 39.1477 23.0672 39.0208Z" fill="#526273"/>
<path d="M38.0538 0.625H13.1963C12.4665 0.625 11.875 1.21654 11.875 1.94625V19.3037C11.875 20.0335 12.4665 20.625 13.1963 20.625H38.0538C38.7835 20.625 39.375 20.0335 39.375 19.3037V1.94625C39.375 1.21654 38.7835 0.625 38.0538 0.625Z" fill="#495766"/>
<path d="M18.125 18.75C20.5412 18.75 22.5 16.7912 22.5 14.375C22.5 11.9588 20.5412 10 18.125 10C15.7088 10 13.75 11.9588 13.75 14.375C13.75 16.7912 15.7088 18.75 18.125 18.75Z" fill="#E6E6E6"/>
<path d="M18.125 9.375C17.1361 9.375 16.1694 9.66825 15.3472 10.2177C14.5249 10.7671 13.884 11.548 13.5056 12.4616C13.1272 13.3752 13.0281 14.3805 13.2211 15.3505C13.414 16.3204 13.8902 17.2113 14.5895 17.9105C15.2887 18.6098 16.1796 19.086 17.1496 19.2789C18.1195 19.4719 19.1248 19.3728 20.0384 18.9944C20.952 18.616 21.7329 17.9751 22.2824 17.1529C22.8318 16.3306 23.125 15.3639 23.125 14.375C23.1235 13.0494 22.5962 11.7785 21.6589 10.8411C20.7215 9.90379 19.4506 9.37652 18.125 9.375ZM18.125 10.625C18.9031 10.625 19.6617 10.8686 20.2943 11.3217L15.0719 16.5446C14.6719 15.9843 14.4341 15.3247 14.3847 14.6381C14.3352 13.9515 14.476 13.2646 14.7915 12.6528C15.107 12.041 15.5851 11.5281 16.1732 11.1704C16.7613 10.8126 17.4366 10.6239 18.125 10.625ZM18.125 18.125C17.3469 18.125 16.5883 17.8814 15.9557 17.4283L21.1781 12.2054C21.5781 12.7657 21.8159 13.4253 21.8654 14.1119C21.9148 14.7985 21.7741 15.4854 21.4585 16.0972C21.143 16.709 20.6649 17.2219 20.0768 17.5797C19.4887 17.9374 18.8134 18.1261 18.125 18.125Z" fill="#CC6C66"/>
<path d="M35.683 9.53562L31.0874 8.96125L32.3268 4.50125L31.423 4.25L30.2087 8.6225L26.158 6.46188L25.7168 7.28937L29.9518 9.54813L28.298 15.5L29.2018 15.7513L30.8343 9.87438L35.5668 10.4656L35.683 9.53562Z" fill="#6893CC"/>
<path d="M30.625 11.25C31.6605 11.25 32.5 10.4105 32.5 9.375C32.5 8.33947 31.6605 7.5 30.625 7.5C29.5895 7.5 28.75 8.33947 28.75 9.375C28.75 10.4105 29.5895 11.25 30.625 11.25Z" fill="#CEDCF2"/>
<path d="M31.875 5.625C32.5654 5.625 33.125 5.06536 33.125 4.375C33.125 3.68464 32.5654 3.125 31.875 3.125C31.1846 3.125 30.625 3.68464 30.625 4.375C30.625 5.06536 31.1846 5.625 31.875 5.625Z" fill="#E6E6E6"/>
<path d="M25.625 8.125C26.3154 8.125 26.875 7.56536 26.875 6.875C26.875 6.18464 26.3154 5.625 25.625 5.625C24.9346 5.625 24.375 6.18464 24.375 6.875C24.375 7.56536 24.9346 8.125 25.625 8.125Z" fill="#E6E6E6"/>
<path d="M28.75 16.875C29.4404 16.875 30 16.3154 30 15.625C30 14.9346 29.4404 14.375 28.75 14.375C28.0596 14.375 27.5 14.9346 27.5 15.625C27.5 16.3154 28.0596 16.875 28.75 16.875Z" fill="#E6E6E6"/>
<path d="M35.625 11.25C36.3154 11.25 36.875 10.6904 36.875 10C36.875 9.30964 36.3154 8.75 35.625 8.75C34.9346 8.75 34.375 9.30964 34.375 10C34.375 10.6904 34.9346 11.25 35.625 11.25Z" fill="#E6E6E6"/>
</svg>
