<svg width="48" height="48" viewBox="0 0 48 48" fill="none" xmlns="http://www.w3.org/2000/svg">
<g clip-path="url(#clip0_4347_73608)">
<path fill-rule="evenodd" clip-rule="evenodd" d="M36.0567 8.39101C37.3076 8.67441 38.4741 9.16501 39.526 9.82997L41.4719 7.8841C42.8373 8.82976 44.0255 10.018 44.9712 11.3834L43.0253 13.3293C43.6903 14.3813 44.1809 15.5477 44.4643 16.7959H47.2168C47.3613 17.5999 47.4376 18.4283 47.4376 19.2731C47.4376 20.118 47.3613 20.9438 47.2168 21.7477H44.4643C44.1809 22.9959 43.6903 24.165 43.0253 25.2143L44.9712 27.1601C44.0256 28.5282 42.8373 29.7137 41.4719 30.6622L39.526 28.7163C38.4741 29.3785 37.3076 29.8719 36.0567 30.1553V32.905C35.2554 33.0522 34.427 33.1258 33.5822 33.1258C32.7374 33.1258 31.9116 33.0522 31.1076 32.905V30.1553C29.8595 29.8719 28.6903 29.3785 27.6383 28.7163L25.6952 30.6622C24.3271 29.7138 23.1416 28.5282 22.1931 27.1601L24.139 25.217C23.4768 24.165 22.9835 22.9959 22.7001 21.7477H19.9503C19.8031 20.9437 19.7295 20.1179 19.7295 19.2731C19.7295 18.4283 19.8031 17.5998 19.9503 16.7959H22.7001C22.9835 15.5477 23.4768 14.3813 24.139 13.3293L22.1931 11.3834C23.1415 10.018 24.3271 8.82985 25.6952 7.8841L27.6383 9.82997C28.6903 9.16501 29.8595 8.67441 31.1076 8.39101V5.63851C31.9116 5.49404 32.7374 5.41772 33.5822 5.41772C34.427 5.41772 35.2555 5.49404 36.0567 5.63851V8.39101ZM33.5821 12.6915C37.2176 12.6915 40.1636 15.6375 40.1636 19.2731C40.1636 22.9059 37.2176 25.8519 33.5821 25.8519C29.9493 25.8519 27.0033 22.9059 27.0033 19.2731C27.0033 15.6375 29.9493 12.6915 33.5821 12.6915Z" fill="#6C90B8"/>
<path fill-rule="evenodd" clip-rule="evenodd" d="M6.69995 16.665H21.3784V31.3462H6.69995V16.665Z" fill="#FFC06C"/>
<path fill-rule="evenodd" clip-rule="evenodd" d="M16.2194 22.9496V16.665H11.8562V22.9496L14.0392 21.2844L16.2194 22.9496Z" fill="#FF4C4C"/>
<path fill-rule="evenodd" clip-rule="evenodd" d="M16.2193 22.9496V16.665H14.0391V21.2844L16.2193 22.9496Z" fill="#D11E1E"/>
<path fill-rule="evenodd" clip-rule="evenodd" d="M21.3782 16.665H36.0566V31.3462H21.3782V16.665Z" fill="#FFC06C"/>
<path fill-rule="evenodd" clip-rule="evenodd" d="M30.9006 22.9496V16.665H26.5374V22.9496L28.7176 21.2844L30.9006 22.9496Z" fill="#FF4C4C"/>
<path fill-rule="evenodd" clip-rule="evenodd" d="M19.6013 16.665H21.3782V31.3462H19.6013V16.665Z" fill="#EDA558"/>
<path fill-rule="evenodd" clip-rule="evenodd" d="M30.9005 22.9496V16.665H28.7175V21.2844L30.9005 22.9496Z" fill="#D11E1E"/>
<path fill-rule="evenodd" clip-rule="evenodd" d="M34.2825 16.665H36.0566V31.3462H34.2825V16.665Z" fill="#EDA558"/>
<path fill-rule="evenodd" clip-rule="evenodd" d="M6.18206 31.3462H36.5745C39.665 31.3462 42.1941 33.8726 42.1941 36.963C42.1941 40.0535 39.665 42.5826 36.5745 42.5826H6.18206C3.09159 42.5825 0.5625 40.0534 0.5625 36.9629C0.5625 33.8725 3.09159 31.3462 6.18206 31.3462Z" fill="#4A5470"/>
<path fill-rule="evenodd" clip-rule="evenodd" d="M5.42447 32.608H31.9197H35.8169C36.1766 32.608 36.5282 32.6407 36.8716 32.7061C39.4633 33.2022 41.4365 35.4941 41.4365 38.2248C41.4365 39.0124 41.273 39.7646 40.9759 40.4459C41.739 39.4866 42.1941 38.2766 42.1941 36.963C42.1941 33.9733 39.8258 31.507 36.8716 31.3516C36.7735 31.3462 36.6754 31.3462 36.5745 31.3462H36.0567H34.2826H31.9198H21.3784H19.6015H6.69994H6.18216C3.87929 31.3462 1.8871 32.7497 1.02319 34.7446C2.05332 33.4446 3.64491 32.608 5.42447 32.608Z" fill="#3E4864"/>
<path fill-rule="evenodd" clip-rule="evenodd" d="M15.6254 34.4229C17.0289 34.4229 18.1681 35.5593 18.1681 36.9628C18.1681 38.3664 17.0289 39.5055 15.6254 39.5055C14.2219 39.5055 13.0854 38.3664 13.0854 36.9628C13.0854 35.5593 14.2219 34.4229 15.6254 34.4229Z" fill="#252F4B"/>
<path fill-rule="evenodd" clip-rule="evenodd" d="M25.7907 34.4229C27.1942 34.4229 28.3334 35.5593 28.3334 36.9628C28.3334 38.3664 27.1942 39.5055 25.7907 39.5055C24.3872 39.5055 23.2507 38.3664 23.2507 36.9628C23.2507 35.5593 24.3872 34.4229 25.7907 34.4229Z" fill="#252F4B"/>
<path fill-rule="evenodd" clip-rule="evenodd" d="M5.87692 39.5055C7.27773 39.5055 8.4196 38.3636 8.4196 36.9628C8.4196 35.562 7.27773 34.4229 5.87692 34.4229C4.4761 34.4229 3.33423 35.562 3.33423 36.9628C3.33423 38.3636 4.4761 39.5055 5.87692 39.5055Z" fill="#252F4B"/>
<path fill-rule="evenodd" clip-rule="evenodd" d="M35.4382 39.5055C36.8363 39.5055 37.9782 38.3636 37.9782 36.9628C37.9782 35.562 36.8363 34.4229 35.4382 34.4229C34.0374 34.4229 32.8955 35.562 32.8955 36.9628C32.8955 38.3636 34.0374 39.5055 35.4382 39.5055Z" fill="#252F4B"/>
<path fill-rule="evenodd" clip-rule="evenodd" d="M16.3474 34.4229C17.7509 34.4229 18.8873 35.5593 18.8873 36.9628C18.8873 38.3664 17.7509 39.5055 16.3474 39.5055C14.9438 39.5055 13.8047 38.3664 13.8047 36.9628C13.8047 35.5593 14.9438 34.4229 16.3474 34.4229Z" fill="#F0F0FC"/>
<path fill-rule="evenodd" clip-rule="evenodd" d="M26.5127 34.4229C27.9162 34.4229 29.0553 35.5593 29.0553 36.9628C29.0553 38.3664 27.9162 39.5055 26.5127 39.5055C25.1091 39.5055 23.97 38.3664 23.97 36.9628C23.97 35.5593 25.1091 34.4229 26.5127 34.4229Z" fill="#F0F0FC"/>
<path fill-rule="evenodd" clip-rule="evenodd" d="M6.59908 39.5055C7.99718 39.5055 9.13905 38.3636 9.13905 36.9628C9.13905 35.562 7.99718 34.4229 6.59908 34.4229C5.19827 34.4229 4.0564 35.562 4.0564 36.9628C4.0564 38.3636 5.19827 39.5055 6.59908 39.5055Z" fill="#F0F0FC"/>
<path fill-rule="evenodd" clip-rule="evenodd" d="M36.1574 39.5055C37.5582 39.5055 38.7001 38.3636 38.7001 36.9628C38.7001 35.562 37.5582 34.4229 36.1574 34.4229C34.7593 34.4229 33.6174 35.562 33.6174 36.9628C33.6174 38.3636 34.7593 39.5055 36.1574 39.5055Z" fill="#F0F0FC"/>
<path fill-rule="evenodd" clip-rule="evenodd" d="M6.59901 34.4229C8.00254 34.4229 9.13898 35.5593 9.13898 36.9628C9.13898 38.3664 8.00245 39.5055 6.59901 39.5055C6.47638 39.5055 6.35648 39.4974 6.23657 39.4782C7.47117 39.3039 8.41954 38.2436 8.41954 36.9628C8.41954 35.6819 7.47117 34.6218 6.23657 34.4474C6.35638 34.4311 6.47629 34.4229 6.59901 34.4229Z" fill="#D7D7E3"/>
<path fill-rule="evenodd" clip-rule="evenodd" d="M36.1576 34.4229C37.5611 34.4229 38.7003 35.5593 38.7003 36.9628C38.7003 38.3664 37.5611 39.5055 36.1576 39.5055C36.0349 39.5055 35.915 39.4974 35.7979 39.4782C37.0297 39.3039 37.9781 38.2436 37.9781 36.9628C37.9781 35.6819 37.0324 34.6218 35.7979 34.4474C35.915 34.4311 36.0349 34.4229 36.1576 34.4229Z" fill="#D7D7E3"/>
<path fill-rule="evenodd" clip-rule="evenodd" d="M16.3473 34.4229C17.7508 34.4229 18.8872 35.5593 18.8872 36.9628C18.8872 38.3664 17.7508 39.5055 16.3473 39.5055C16.2246 39.5055 16.1047 39.4974 15.9875 39.4782C17.2194 39.3039 18.1678 38.2436 18.1678 36.9628C18.1678 35.6819 17.2194 34.6218 15.9875 34.4474C16.1047 34.4311 16.2246 34.4229 16.3473 34.4229Z" fill="#D7D7E3"/>
<path fill-rule="evenodd" clip-rule="evenodd" d="M26.5128 34.4229C27.9163 34.4229 29.0555 35.5593 29.0555 36.9628C29.0555 38.3664 27.9163 39.5055 26.5128 39.5055C26.3902 39.5055 26.2703 39.4974 26.1531 39.4782C27.385 39.3039 28.3333 38.2436 28.3333 36.9628C28.3333 35.6819 27.385 34.6218 26.1531 34.4474C26.2703 34.4311 26.3902 34.4229 26.5128 34.4229Z" fill="#D7D7E3"/>
<path fill-rule="evenodd" clip-rule="evenodd" d="M44.4642 21.7475H43.2215C42.9381 22.9957 42.4447 24.1649 41.7825 25.2141L43.7284 27.16C42.9489 28.2829 42.0087 29.2857 40.9404 30.1306L41.4719 30.662C42.8373 29.7137 44.0255 28.5281 44.9712 27.16L43.0253 25.2141C43.6902 24.1649 44.1808 22.9957 44.4642 21.7475ZM34.814 8.39089C36.0622 8.67429 37.2313 9.16489 38.2833 9.82986L38.7357 9.3747C37.8991 8.93867 37.0025 8.60342 36.0567 8.39089V5.63839C35.6507 5.56479 35.2337 5.51032 34.814 5.47217V8.39089ZM43.7284 11.3833L41.7825 13.3292C42.4447 14.3811 42.9381 15.5476 43.2215 16.7958H44.4642C44.1808 15.5476 43.6902 14.3811 43.0252 13.3292L44.9711 11.3833C44.0255 10.0179 42.8372 8.82973 41.4718 7.88398L40.9403 8.41273C42.0087 9.26023 42.9489 10.2604 43.7284 11.3833ZM47.2167 16.7957H45.9712C46.1184 17.5997 46.192 18.4281 46.192 19.2729C46.192 20.1178 46.1184 20.9435 45.9712 21.7475H47.2167C47.3612 20.9435 47.4375 20.1177 47.4375 19.2729C47.4375 18.4281 47.3612 17.5997 47.2167 16.7957Z" fill="#587AA1"/>
<path d="M47.7693 16.7069C47.7112 16.3893 47.4343 16.1586 47.1114 16.1586H44.8953C44.6374 15.2228 44.2649 14.3256 43.7834 13.4802L45.3515 11.9121C45.5803 11.6832 45.6125 11.3235 45.4279 11.0576C44.4315 9.62314 43.202 8.39371 41.7733 7.40314C41.5073 7.21874 41.1477 7.25127 40.9191 7.48021L39.3533 9.04818C38.5047 8.56574 37.6068 8.19383 36.6728 7.93789V5.71996C36.6728 5.39614 36.4409 5.11893 36.1223 5.06174C34.4193 4.75583 32.656 4.75639 30.9562 5.06174C30.6375 5.11893 30.4057 5.39614 30.4057 5.71996V7.93799C29.4734 8.19374 28.5764 8.56564 27.7276 9.04827L26.1592 7.47993C25.9303 7.25099 25.5705 7.21874 25.3047 7.40352C23.8718 8.39877 22.6432 9.62849 21.6529 11.0584C21.4688 11.3241 21.5012 11.6835 21.7297 11.9121L23.2977 13.4801C22.8399 14.2839 22.4812 15.1378 22.224 16.0284H6.77588C6.4065 16.0284 6.10706 16.3278 6.10706 16.6972V30.645C2.72587 30.727 0 33.5022 0 36.9043C0 40.3578 2.80838 43.1675 6.26044 43.1675H36.5197C39.9717 43.1675 42.7801 40.3578 42.7801 36.9043C42.7801 33.5022 40.0542 30.727 36.6729 30.645V30.6442C37.6107 30.3861 38.5084 30.0158 39.3514 29.5364L40.9195 31.1046C41.0489 31.234 41.2202 31.3005 41.3927 31.3005C41.525 31.3005 41.6581 31.2613 41.7735 31.1813C43.202 30.1911 44.4316 28.9615 45.4281 27.527C45.6127 27.2612 45.5805 26.9014 45.3517 26.6725L43.7836 25.1044C44.2651 24.2588 44.6376 23.3616 44.8955 22.4259H47.1116C47.4345 22.4259 47.7113 22.1952 47.7695 21.8777C47.9226 21.0417 48.0002 20.1714 48.0002 19.2909C48 18.4123 47.9224 17.543 47.7693 16.7069ZM22.0601 17.366H25.8585V22.9536C25.8585 23.2079 26.0028 23.4402 26.2308 23.5531C26.4589 23.6659 26.731 23.6394 26.9332 23.485L28.6977 22.1374L30.4623 23.485C30.5812 23.5759 30.7242 23.6224 30.8683 23.6224C30.9693 23.6224 31.0707 23.5996 31.1647 23.5531C31.3927 23.4403 31.5369 23.2079 31.5369 22.9536V17.366H35.3353V30.6411H22.0601V17.366ZM27.196 21.6012V17.366H30.1995V21.6012L29.1038 20.7644C28.8641 20.5812 28.5315 20.5812 28.2919 20.7644L27.196 21.6012ZM12.5806 17.366H15.5867V21.6022L14.4878 20.7641C14.2481 20.5812 13.9158 20.5815 13.6763 20.7644L12.5806 21.6012V17.366ZM7.44469 17.366H11.2431V22.9536C11.2431 23.2079 11.3873 23.4402 11.6153 23.5531C11.7093 23.5995 11.8108 23.6224 11.9117 23.6224C12.0558 23.6224 12.1988 23.5759 12.3177 23.485L14.0825 22.1372L15.8498 23.4853C16.0521 23.6395 16.3241 23.6656 16.5521 23.553C16.78 23.4402 16.9242 23.2079 16.9242 22.9536V17.366H20.7226V30.6411H7.44469V17.366ZM41.4426 36.9043C41.4426 39.6203 39.2341 41.8299 36.5197 41.8299H6.26044C3.546 41.8299 1.33753 39.6203 1.33753 36.9043C1.33753 34.1883 3.546 31.9787 6.26044 31.9787H36.5197C39.2341 31.9787 41.4426 34.1883 41.4426 36.9043ZM36.0041 16.0284H28.6453C29.7246 14.411 31.5504 13.4103 33.5407 13.4103C36.7833 13.4103 39.4213 16.0483 39.4213 19.2908C39.4213 21.3467 38.3693 23.2076 36.6729 24.2713V16.6971C36.6728 16.3279 36.3734 16.0284 36.0041 16.0284ZM46.5413 21.0884H44.374C44.0617 21.0884 43.791 21.3045 43.7218 21.6091C43.4606 22.7591 43.0078 23.85 42.3759 24.8512C42.2092 25.1156 42.2477 25.4601 42.4687 25.681L44.0022 27.2147C43.2724 28.1774 42.421 29.029 41.4621 29.7553L39.9282 28.2216C39.7073 28.0003 39.3626 27.962 39.0984 28.1288C38.34 28.6075 37.5269 28.9828 36.673 29.2508V25.7962C39.1694 24.5961 40.7589 22.0906 40.7589 19.2908C40.7589 15.3108 37.5208 12.0727 33.5408 12.0727C30.8067 12.0727 28.3257 13.6117 27.0997 16.0284H23.6225C23.8883 15.222 24.2508 14.453 24.7053 13.7335C24.8723 13.4692 24.8338 13.1246 24.6128 12.9036L23.0787 11.3695C23.8049 10.4099 24.6557 9.55846 25.6171 8.82946L27.1506 10.3629C27.3712 10.5837 27.7154 10.6223 27.9798 10.456C28.9871 9.82189 30.0777 9.36993 31.2213 9.11277C31.5264 9.04405 31.7433 8.77311 31.7433 8.46027V6.29127C32.933 6.12908 34.1439 6.12871 35.3354 6.29127V8.46018C35.3354 8.77302 35.5523 9.04396 35.8574 9.11268C37.0037 9.37049 38.0952 9.82236 39.1017 10.4559C39.3661 10.6226 39.7105 10.5836 39.9312 10.3626L41.4623 8.82927C42.4213 9.55583 43.2725 10.4072 44.0022 11.3698L42.4687 12.9035C42.2477 13.1244 42.2092 13.4691 42.376 13.7332C43.0079 14.7344 43.4607 15.8252 43.7219 16.9754C43.7911 17.28 44.0618 17.4961 44.3741 17.4961H46.5415C46.622 18.0822 46.6627 18.6837 46.6627 19.2907C46.6625 19.8995 46.6218 20.5018 46.5413 21.0884ZM16.3803 33.7042C14.6172 33.7042 13.1829 35.1398 13.1829 36.9043C13.1829 38.6673 14.6172 40.1016 16.3803 40.1016C18.1448 40.1016 19.5803 38.6673 19.5803 36.9043C19.5803 35.1398 18.1448 33.7042 16.3803 33.7042ZM16.3803 38.7641C15.3548 38.7641 14.5205 37.9298 14.5205 36.9043C14.5205 35.8773 15.3548 35.0418 16.3803 35.0418C17.4073 35.0418 18.2428 35.8773 18.2428 36.9043C18.2428 37.9298 17.4073 38.7641 16.3803 38.7641ZM26.5028 33.7042C24.7383 33.7042 23.3028 35.1398 23.3028 36.9043C23.3028 38.6673 24.7383 40.1016 26.5028 40.1016C28.2659 40.1016 29.7002 38.6673 29.7002 36.9043C29.7002 35.1398 28.2659 33.7042 26.5028 33.7042ZM26.5028 38.7641C25.4758 38.7641 24.6403 37.9298 24.6403 36.9043C24.6403 35.8773 25.4759 35.0418 26.5028 35.0418C27.5284 35.0418 28.3627 35.8773 28.3627 36.9043C28.3627 37.9298 27.5284 38.7641 26.5028 38.7641ZM6.67556 33.7042C4.9125 33.7042 3.47822 35.1398 3.47822 36.9043C3.47822 38.6673 4.9125 40.1016 6.67556 40.1016C8.44013 40.1016 9.87562 38.6673 9.87562 36.9043C9.87562 35.1398 8.44013 33.7042 6.67556 33.7042ZM6.67556 38.7641C5.65003 38.7641 4.81575 37.9298 4.81575 36.9043C4.81575 35.8773 5.65013 35.0418 6.67556 35.0418C7.70259 35.0418 8.53809 35.8773 8.53809 36.9043C8.53809 37.9298 7.7025 38.7641 6.67556 38.7641ZM32.9044 36.9043C32.9044 38.6673 34.3399 40.1016 36.1044 40.1016C37.869 40.1016 39.3045 38.6673 39.3045 36.9043C39.3045 35.1398 37.869 33.7042 36.1044 33.7042C34.34 33.7042 32.9044 35.1398 32.9044 36.9043ZM37.9671 36.9043C37.9671 37.9298 37.1315 38.7641 36.1045 38.7641C35.0776 38.7641 34.242 37.9298 34.242 36.9043C34.242 35.8773 35.0776 35.0418 36.1045 35.0418C37.1315 35.0418 37.9671 35.8773 37.9671 36.9043Z" fill="black"/>
</g>
<defs>
<clipPath id="clip0_4347_73608">
<rect width="48" height="48" fill="white"/>
</clipPath>
</defs>
</svg>
