<svg width="48" height="48" viewBox="0 0 48 48" fill="none" xmlns="http://www.w3.org/2000/svg">
<g clip-path="url(#clip0_4347_73636)">
<path d="M13.5139 44.5349C14.183 43.9946 14.7504 43.3393 15.1895 42.5999C17.0748 39.4122 14.062 32.427 14.062 32.427L13.3234 23.4807C12.3721 22.6713 10.742 22.8461 10.0741 23.829L3.52882 32.6393C3.24598 33.02 3.09326 33.4817 3.09326 33.956V45.5691" fill="#EFCDB1"/>
<path d="M3.0932 46.1206C2.94695 46.1206 2.80668 46.0625 2.70327 45.9591C2.59985 45.8556 2.54175 45.7154 2.54175 45.5691V33.956C2.5431 33.3636 2.73385 32.7871 3.08613 32.3108L9.62492 23.5094C10.0189 22.9364 10.6834 22.5488 11.4501 22.445C11.8443 22.3857 12.2465 22.4099 12.6308 22.5159C13.0151 22.622 13.3728 22.8077 13.6807 23.0608C13.7918 23.1553 13.8609 23.29 13.8729 23.4354L14.6042 32.2934C14.9639 33.1522 17.575 39.6494 15.6641 42.8807C15.1881 43.6827 14.5717 44.3925 13.8443 44.9762C13.7273 45.064 13.5802 45.1016 13.4354 45.081C13.2906 45.0603 13.16 44.9829 13.0723 44.8659C12.9845 44.7489 12.9468 44.6018 12.9675 44.4571C12.9882 44.3123 13.0655 44.1816 13.1825 44.0939C13.7926 43.5959 14.3111 42.9953 14.7147 42.319C16.144 39.9018 14.3625 34.5166 13.5553 32.6453C13.5317 32.5904 13.5171 32.532 13.5121 32.4724L12.7941 23.7756C12.4345 23.5611 12.0121 23.477 11.5978 23.5374C11.1366 23.5998 10.7473 23.8191 10.53 24.1389C10.5256 24.145 10.5211 24.1514 10.5165 24.1579L3.97149 32.9678C3.75997 33.2538 3.64545 33.5999 3.64466 33.9556V45.5691C3.64466 45.7154 3.58656 45.8556 3.48314 45.9591C3.37972 46.0625 3.23946 46.1206 3.0932 46.1206Z" fill="black"/>
<path d="M2.52612 44.5349H14.7799V47.4484H2.52612V44.5349Z" fill="#5ABDE0"/>
<path d="M14.7798 48.0001H2.52607C2.37981 48.0001 2.23955 47.942 2.13613 47.8386C2.03271 47.7351 1.97461 47.5949 1.97461 47.4486V44.5351C1.97461 44.3888 2.03271 44.2486 2.13613 44.1452C2.23955 44.0417 2.37981 43.9836 2.52607 43.9836H14.7798C14.926 43.9836 15.0663 44.0417 15.1697 44.1452C15.2731 44.2486 15.3312 44.3888 15.3312 44.5351V47.4486C15.3312 47.5949 15.2731 47.7351 15.1697 47.8386C15.0663 47.942 14.926 48.0001 14.7798 48.0001ZM3.07752 46.8972H14.2283V45.0866H3.07752V46.8972Z" fill="black"/>
<path d="M44.9072 33.9561V45.5686L34.4861 44.5346C33.8173 43.9943 33.2501 43.3392 32.8111 42.6C32.7664 42.5238 32.7243 42.4457 32.6857 42.3659C31.0677 39.0834 33.938 32.4271 33.938 32.4271L34.6431 23.8854L36.4935 22.9939C37.0715 23.0755 37.6082 23.3605 37.9265 23.8288L42.2641 29.6683L44.4713 32.6394C44.7545 33.02 44.9074 33.4817 44.9072 33.9561Z" fill="#EFCDB1"/>
<path d="M44.9073 46.1206C44.8891 46.1206 44.8709 46.1197 44.8528 46.1179L34.4318 45.0839C34.3319 45.0739 34.2365 45.0368 34.1561 44.9765C33.4289 44.3929 32.8127 43.683 32.337 42.881C32.2825 42.7884 32.2333 42.6965 32.1899 42.6061C30.5637 39.3066 33.0473 33.1273 33.3964 32.2939L34.0943 23.8404C34.1022 23.7447 34.1349 23.6527 34.1893 23.5735C34.2437 23.4944 34.3178 23.4308 34.4044 23.3891L36.2548 22.4975C36.3531 22.4502 36.4632 22.433 36.5712 22.4483C37.3288 22.5552 37.986 22.9415 38.3763 23.509L44.9146 32.3113C45.2697 32.7861 45.4608 33.3635 45.4593 33.9564V45.5692C45.4593 45.7154 45.4012 45.8557 45.2978 45.9591C45.1944 46.0625 45.0541 46.1206 44.9078 46.1206H44.9073ZM34.7044 44.0027L44.3558 44.9603V33.9562C44.3568 33.6005 44.2421 33.254 44.029 32.969L37.484 24.1577C37.4794 24.1515 37.4748 24.1453 37.4705 24.1393C37.2533 23.8431 36.9324 23.6396 36.5719 23.5695L35.1669 24.2457L34.4877 32.4729C34.4828 32.5325 34.4682 32.591 34.4445 32.6459C34.417 32.7102 31.694 39.1071 33.1804 42.1227C33.2131 42.19 33.2483 42.2557 33.2868 42.3214C33.6656 42.9546 34.1443 43.5223 34.7044 44.0027Z" fill="black"/>
<path d="M45.4744 47.4485H33.2206V44.535H45.4744V47.4485Z" fill="#5ABDE0"/>
<path d="M45.4741 48.0001H33.2204C33.0741 48.0001 32.9339 47.942 32.8305 47.8386C32.727 47.7351 32.6689 47.5949 32.6689 47.4486V44.5351C32.6689 44.3888 32.727 44.2486 32.8305 44.1452C32.9339 44.0417 33.0741 43.9836 33.2204 43.9836H45.4741C45.6204 43.9836 45.7606 44.0417 45.8641 44.1452C45.9675 44.2486 46.0256 44.3888 46.0256 44.5351V47.4486C46.0256 47.5949 45.9675 47.7351 45.8641 47.8386C45.7606 47.942 45.6204 48.0001 45.4741 48.0001ZM33.7719 46.8972H44.9227V45.0866H33.7719V46.8972Z" fill="black"/>
<path d="M28.1338 3.46507C28.8029 4.00539 29.3703 4.66062 29.8094 5.40004C31.6947 8.58773 28.6819 15.5729 28.6819 15.5729L27.9433 24.5192C26.9919 25.3285 25.3619 25.1538 24.694 24.1708L18.1488 15.3607C17.8659 14.98 17.7131 14.5183 17.7131 14.044V2.43091" fill="#EFCDB1"/>
<path d="M26.4856 25.5834C26.3466 25.5833 26.2077 25.5739 26.0699 25.5552C25.3032 25.4515 24.6389 25.0639 24.2449 24.491L17.706 15.6895C17.3538 15.2132 17.163 14.6367 17.1616 14.0443V2.43085C17.1616 2.2846 17.2197 2.14433 17.3231 2.04091C17.4266 1.93749 17.5668 1.87939 17.7131 1.87939C17.8593 1.87939 17.9996 1.93749 18.103 2.04091C18.2064 2.14433 18.2645 2.2846 18.2645 2.43085V14.0438C18.2654 14.3996 18.3801 14.7458 18.5918 15.0318L25.1371 23.8419C25.1417 23.8481 25.1463 23.8544 25.1506 23.8608C25.3679 24.1806 25.7572 24.3999 26.2183 24.4622C26.6326 24.5229 27.0551 24.4388 27.4147 24.2242L28.1327 15.5275C28.1376 15.4679 28.1522 15.4095 28.1758 15.3546C28.2049 15.2873 31.0555 8.5896 29.3352 5.68067C28.9315 5.00446 28.4127 4.40394 27.8024 3.90618C27.6854 3.81843 27.6081 3.68779 27.5874 3.543C27.5667 3.39822 27.6044 3.25114 27.6921 3.13414C27.7799 3.01714 27.9105 2.93978 28.0553 2.9191C28.2001 2.89842 28.3472 2.9361 28.4642 3.02385C29.1916 3.60745 29.8081 4.31729 30.284 5.11938C32.195 8.35045 29.5838 14.8478 29.2241 15.7067L28.4928 24.5646C28.4807 24.71 28.4116 24.8446 28.3006 24.9392C27.7911 25.3623 27.1479 25.5906 26.4856 25.5834Z" fill="black"/>
<path d="M17.146 0.551514H29.3998V3.46504H17.146V0.551514Z" fill="#5ABDE0"/>
<path d="M29.3996 4.01644H17.1457C16.9994 4.01644 16.8592 3.95834 16.7558 3.85492C16.6523 3.7515 16.5942 3.61124 16.5942 3.46498V0.551456C16.5942 0.405201 16.6523 0.264936 16.7558 0.161518C16.8592 0.0580996 16.9994 0 17.1457 0L29.3996 0C29.5458 0 29.6861 0.0580996 29.7895 0.161518C29.893 0.264936 29.9511 0.405201 29.9511 0.551456V3.46498C29.9511 3.61124 29.893 3.7515 29.7895 3.85492C29.6861 3.95834 29.5458 4.01644 29.3996 4.01644ZM17.6971 2.91353H28.8481V1.10291H17.6971V2.91353Z" fill="black"/>
<path d="M39.7584 18.8081L25.5102 25.6772L10.855 19.725C12.0079 16.8893 13.9587 14.4489 16.471 12.6998C18.9832 10.9507 21.949 9.96806 25.0086 9.871C28.0683 9.77393 31.0903 10.5666 33.7084 12.1529C36.3265 13.7393 38.4281 16.0511 39.7584 18.8081Z" fill="#BE1E2D"/>
<path d="M25.5103 26.2285C25.4392 26.2285 25.3687 26.2147 25.3028 26.1879L10.6476 20.2358C10.5805 20.2085 10.5194 20.1683 10.4679 20.1175C10.4163 20.0666 10.3753 20.0061 10.3471 19.9393C10.319 19.8726 10.3042 19.801 10.3037 19.7286C10.3032 19.6561 10.317 19.5843 10.3443 19.5172C11.5372 16.5825 13.5559 14.0569 16.1557 12.2467C18.7555 10.4365 21.8247 9.41952 24.991 9.31903C28.1573 9.21855 31.2848 10.0389 33.9941 11.6806C36.7035 13.3223 38.8783 15.7148 40.2549 18.568C40.2864 18.6333 40.3047 18.7041 40.3089 18.7764C40.313 18.8488 40.3028 18.9213 40.2789 18.9897C40.255 19.0581 40.2179 19.1211 40.1696 19.1752C40.1213 19.2292 40.0628 19.2732 39.9975 19.3047L25.7499 26.1737C25.6752 26.2098 25.5933 26.2285 25.5103 26.2285ZM11.5828 19.4252L25.4912 25.074L39.0127 18.5552C36.3862 13.5921 31.1463 10.4145 25.5103 10.4145C22.5656 10.4063 19.6818 11.2534 17.2094 12.853C14.7369 14.4526 12.7822 16.7358 11.5828 19.4252Z" fill="black"/>
<path d="M42.3763 27.7813C42.378 29.8585 41.9701 31.9157 41.176 33.8351C40.382 35.7545 39.2172 37.4985 37.7485 38.9673C36.2797 40.4362 34.5358 41.601 32.6164 42.3952C30.697 43.1894 28.6399 43.5974 26.5627 43.5958V27.7813L34.6431 23.8859L36.4935 22.9943L40.8109 20.9133C41.8446 23.0551 42.3798 25.4032 42.3763 27.7813Z" fill="#FDC00F"/>
<path d="M26.5627 44.1473C26.4164 44.1473 26.2762 44.0892 26.1727 43.9858C26.0693 43.8824 26.0112 43.7421 26.0112 43.5958V27.7815C26.0114 27.6777 26.0407 27.5761 26.096 27.4883C26.1513 27.4005 26.2302 27.3301 26.3237 27.2851L40.5719 20.4167C40.7036 20.3532 40.8551 20.3447 40.9932 20.393C41.1312 20.4412 41.2444 20.5423 41.3079 20.674C42.3808 22.8897 42.935 25.3206 42.9282 27.7824C42.9298 29.9319 42.5076 32.0607 41.6857 34.047C40.8638 36.0332 39.6584 37.8379 38.1383 39.3578C36.6183 40.8778 34.8136 42.0832 32.8273 42.905C30.8411 43.7268 28.7123 44.1489 26.5627 44.1473ZM27.1141 28.1275V43.0346C29.6018 42.9431 32.0293 42.2449 34.1855 41.0008C36.3416 39.7567 38.1609 38.0044 39.485 35.8964C40.8092 33.7885 41.598 31.3888 41.7827 28.9064C41.9675 26.4239 41.5427 23.934 40.5452 21.6532L27.1141 28.1275Z" fill="black"/>
<path d="M24.4578 27.7817V43.5957C21.8667 43.5944 19.3156 42.9566 17.0286 41.7386C14.7416 40.5206 12.7887 38.7595 11.3415 36.6102C9.89436 34.4609 8.9972 31.989 8.72887 29.4118C8.46054 26.8346 8.82925 24.231 9.80261 21.8296L24.4578 27.7817Z" fill="#3D5CA9"/>
<path d="M24.4579 44.1472C15.4338 44.1472 8.09231 36.8057 8.09231 27.7817C8.08874 25.67 8.49615 23.5779 9.29182 21.6219C9.34687 21.4864 9.45348 21.3784 9.58819 21.3215C9.72291 21.2646 9.8747 21.2636 10.0102 21.3186L24.6654 27.2707C24.767 27.312 24.854 27.3827 24.9153 27.4737C24.9766 27.5647 25.0093 27.6719 25.0093 27.7816V43.5958C25.0093 43.742 24.9512 43.8823 24.8478 43.9857C24.7444 44.0891 24.6041 44.1472 24.4579 44.1472ZM10.115 22.5517C9.50372 24.2274 9.19236 25.9977 9.19522 27.7814C9.19522 36.0129 15.7447 42.7432 23.9064 43.0343V28.153L10.115 22.5517Z" fill="black"/>
<path d="M6.4458 34.5221C7.04321 33.9998 8.72662 33.8932 8.72662 33.8932L11.559 29.6824C11.7838 29.3633 12.1251 29.1454 12.5093 29.0758C12.8934 29.0062 13.2895 29.0906 13.612 29.3107L13.8687 29.4862C14.154 29.6731 14.3555 29.9637 14.4304 30.2965C14.5053 30.6292 14.4479 30.9781 14.2702 31.2693L9.83293 38.5155C9.83293 38.5155 9.20712 40.5301 8.23693 41.5932L7.26673 42.6564" fill="#EFCDB1"/>
<path d="M7.26639 43.2077C7.15948 43.2077 7.05489 43.1766 6.96533 43.1182C6.87578 43.0598 6.80513 42.9766 6.76198 42.8788C6.71883 42.781 6.70504 42.6728 6.72229 42.5673C6.73954 42.4618 6.78709 42.3635 6.85914 42.2846L7.82915 41.2213C8.70349 40.2632 9.2997 38.3702 9.30604 38.3513C9.31962 38.3078 9.33852 38.2661 9.36229 38.2271L13.7996 30.981C13.9026 30.8103 13.935 30.606 13.8897 30.4118C13.8444 30.2175 13.7251 30.0486 13.5571 29.9411L13.3005 29.7656C13.0917 29.6254 12.8359 29.5736 12.589 29.6215C12.4738 29.6418 12.3639 29.6849 12.2656 29.7481C12.1673 29.8114 12.0826 29.8936 12.0164 29.9899L9.18399 34.2009C9.13682 34.271 9.07417 34.3294 9.00086 34.3714C8.92755 34.4135 8.84556 34.4382 8.7612 34.4435C8.13898 34.4835 7.12163 34.6632 6.80877 34.9371C6.75447 34.986 6.69097 35.0236 6.62199 35.0478C6.553 35.072 6.47989 35.0822 6.40692 35.0779C6.33395 35.0735 6.26257 35.0547 6.19693 35.0226C6.13129 34.9904 6.07271 34.9455 6.02458 34.8905C5.97645 34.8354 5.93974 34.7714 5.91658 34.7021C5.89343 34.6327 5.88429 34.5595 5.88969 34.4866C5.8951 34.4137 5.91495 34.3426 5.94808 34.2774C5.98121 34.2123 6.02697 34.1543 6.08269 34.107C6.66062 33.6015 7.84202 33.4238 8.41719 33.3657L11.1011 29.3742C11.2482 29.1567 11.4371 28.9707 11.6569 28.8271C11.8767 28.6834 12.1229 28.5851 12.3811 28.5378C12.9168 28.4355 13.4711 28.5497 13.9227 28.8553L14.1793 29.0308C14.5837 29.2957 14.8686 29.7081 14.9733 30.1801C15.078 30.652 14.9943 31.1462 14.74 31.5573L10.3375 38.7468C10.2141 39.1246 9.59252 40.925 8.64393 41.9649L7.67401 43.0279C7.62236 43.0847 7.55941 43.13 7.48921 43.1609C7.41901 43.1919 7.34311 43.2078 7.26639 43.2077Z" fill="black"/>
<path d="M41.5545 34.5221C40.9571 33.9998 39.2737 33.8932 39.2737 33.8932L36.4414 29.6824C36.2166 29.3633 35.8752 29.1454 35.4911 29.0758C35.1069 29.0062 34.7108 29.0906 34.3884 29.3107L34.1317 29.4862C33.8463 29.6731 33.6449 29.9637 33.5699 30.2964C33.495 30.6292 33.5524 30.9781 33.7301 31.2693L38.1675 38.5154C38.1675 38.5154 38.7933 40.53 39.7635 41.5932L40.7336 42.6563" fill="#EFCDB1"/>
<path d="M40.7339 43.2077C40.6572 43.2078 40.5813 43.1919 40.5111 43.1609C40.4409 43.1299 40.378 43.0846 40.3263 43.0279L39.3562 41.9648C38.4077 40.9255 37.7862 39.1248 37.6627 38.7468L33.2603 31.5573C33.0059 31.1461 32.9222 30.652 33.027 30.18C33.1317 29.7081 33.4166 29.2957 33.8209 29.0308L34.0777 28.8553C34.5294 28.5499 35.0838 28.4359 35.6194 28.5385C35.8776 28.5858 36.1239 28.6842 36.3436 28.8278C36.5634 28.9714 36.7524 29.1574 36.8994 29.3749L39.584 33.3657C40.1588 33.4237 41.3402 33.6013 41.9185 34.107C41.9742 34.1543 42.02 34.2122 42.0531 34.2774C42.0862 34.3426 42.1061 34.4137 42.1115 34.4866C42.1169 34.5595 42.1078 34.6327 42.0846 34.702C42.0614 34.7714 42.0247 34.8354 41.9766 34.8904C41.9285 34.9454 41.8699 34.9904 41.8042 35.0225C41.7386 35.0547 41.6672 35.0735 41.5943 35.0778C41.5213 35.0822 41.4482 35.072 41.3792 35.0478C41.3102 35.0236 41.2467 34.986 41.1924 34.937C40.8795 34.6631 39.8621 34.4835 39.2396 34.4435C39.1553 34.4381 39.0733 34.4134 39 34.3713C38.9267 34.3293 38.864 34.2709 38.8168 34.2008L35.9838 29.9899C35.9176 29.8936 35.8329 29.8114 35.7346 29.7481C35.6363 29.6848 35.5263 29.6418 35.4112 29.6215C35.1643 29.5735 34.9085 29.6254 34.6998 29.7656L34.443 29.9411C34.275 30.0487 34.1557 30.2176 34.1104 30.4118C34.0651 30.606 34.0975 30.8102 34.2005 30.981L38.6379 38.2271C38.6617 38.2661 38.6806 38.3079 38.6942 38.3515C38.7001 38.3698 39.2967 40.2632 40.1708 41.2212L41.141 42.2844C41.2131 42.3633 41.2606 42.4615 41.2779 42.567C41.2951 42.6725 41.2814 42.7808 41.2382 42.8786C41.1951 42.9764 41.1244 43.0595 41.0349 43.1179C40.9454 43.1763 40.8408 43.2074 40.7339 43.2075V43.2077Z" fill="black"/>
<path d="M17.9053 11.5262C19.8983 14.0078 23.3463 14.1069 23.3463 14.1069L26.1789 18.3176C26.4036 18.6367 26.745 18.8547 27.1291 18.9242C27.5132 18.9938 27.9093 18.9094 28.2317 18.6893L28.4884 18.5138C28.7738 18.3269 28.9753 18.0363 29.0502 17.7036C29.1251 17.3708 29.0677 17.0219 28.89 16.7308L24.4526 9.48463C24.4526 9.48463 23.8268 7.46989 22.8564 6.40687L21.8865 5.34375" fill="#EFCDB1"/>
<path d="M27.3881 19.498C27.2583 19.498 27.1289 19.4857 27.0015 19.4613C26.7432 19.414 26.497 19.3156 26.2772 19.172C26.0573 19.0284 25.8684 18.8424 25.7213 18.6249L23.0396 14.6381C22.1221 14.5541 19.2788 14.1162 17.4753 11.871C17.3837 11.757 17.3411 11.6113 17.357 11.4659C17.3729 11.3205 17.4459 11.1873 17.5599 11.0957C17.6739 11.0041 17.8197 10.9616 17.9651 10.9775C18.1105 10.9933 18.2436 11.0663 18.3352 11.1803C20.1478 13.4369 23.3304 13.5543 23.3626 13.5552C23.4503 13.5577 23.5361 13.5811 23.613 13.6235C23.6898 13.6658 23.7554 13.7259 23.8043 13.7986L26.6367 18.0094C26.7029 18.1057 26.7877 18.188 26.886 18.2512C26.9843 18.3144 27.0943 18.3575 27.2094 18.3778C27.4562 18.4257 27.712 18.374 27.9208 18.2338L28.1781 18.0582C28.346 17.9506 28.4653 17.7817 28.5106 17.5874C28.5558 17.3932 28.5235 17.189 28.4204 17.0182L23.9831 9.7721C23.9592 9.73316 23.9403 9.69138 23.9269 9.64775C23.9209 9.62937 23.3243 7.73603 22.4502 6.77806L21.4793 5.71541C21.4287 5.66223 21.3893 5.59949 21.3633 5.53088C21.3373 5.46226 21.3252 5.38914 21.3278 5.3158C21.3304 5.24247 21.3476 5.17039 21.3785 5.10379C21.4093 5.03719 21.4531 4.97741 21.5073 4.92796C21.5615 4.87851 21.6251 4.84037 21.6942 4.81579C21.7634 4.79121 21.8367 4.78068 21.91 4.78481C21.9832 4.78894 22.0549 4.80765 22.1209 4.83985C22.1868 4.87205 22.2457 4.91709 22.294 4.97232L23.264 6.03544C24.2125 7.07484 24.8342 8.87543 24.9576 9.25346L29.3601 16.4431C29.6143 16.8542 29.698 17.3483 29.5933 17.8202C29.4886 18.2921 29.2037 18.7045 28.7994 18.9695L28.5421 19.1451C28.2015 19.3758 27.7994 19.4987 27.3881 19.498Z" fill="black"/>
</g>
<defs>
<clipPath id="clip0_4347_73636">
<rect width="48" height="48" fill="white"/>
</clipPath>
</defs>
</svg>
