<svg width="232" height="100" viewBox="0 0 232 100" fill="none" xmlns="http://www.w3.org/2000/svg">
<path d="M218.926 82.7451H210.642V99.8417H218.926V82.7451Z" fill="#37582A"/>
<path d="M96.8608 34.8129V27.3373H99.1233V14.4915H111.267V27.3373H122.626V9.73428L135.156 4.98374V19.9949H138.011V0L150.541 4.15756V34.1932H166.384V51.9295H172.307V56.3935H185.908V48.6981H193.713V27.7903H203.362V66.3877H213.004V99.9746H203.362H195.091H193.713H185.908H181.496H174.423H172.307H166.384H160.822H150.541H147.393H141.125H138.011H135.156H128.595H124.13H122.626H111.267H99.3296H99.1233H96.8608H87.1855V34.8129H96.8608Z" fill="#418227"/>
<path d="M140.22 8.77734L148.671 8.77734V5.67916L140.22 5.67916V8.77734Z" fill="#091205"/>
<path d="M140.22 14.5996L148.671 14.5996V11.5014H140.22V14.5996Z" fill="#091205"/>
<path d="M140.22 19.8389H148.671V16.7407H140.22V19.8389Z" fill="#091205"/>
<path d="M203.355 41.8828H193.534V46.6667H203.355V41.8828Z" fill="#81B66C"/>
<path d="M203.361 56.5615H193.633V61.3454H203.361V56.5615Z" fill="#81B66C"/>
<path d="M203.361 63.7891H193.633V68.5729H203.361V63.7891Z" fill="#81B66C"/>
<path d="M193.794 76.1338H203.522V71.3499H193.794V76.1338Z" fill="#81B66C"/>
<path d="M203.515 78.7529H193.786V83.5368H203.515V78.7529Z" fill="#81B66C"/>
<path d="M193.794 91.0977H203.522V86.3138H193.794V91.0977Z" fill="#81B66C"/>
<path d="M133.505 16.7432H124.615V19.8413H133.505V16.7432Z" fill="#091205"/>
<path d="M133.505 11.5527H124.615V14.6509H133.505V11.5527Z" fill="#091205"/>
<path d="M148.883 21.8213H124.615V24.9195H148.883V21.8213Z" fill="#091205"/>
<path d="M148.883 26.4775H124.615V29.5757H148.883V26.4775Z" fill="#091205"/>
<path d="M148.883 31.1074H124.615V34.0857H148.883V31.1074Z" fill="#091205"/>
<path d="M203.362 49.3379H193.634V54.1217H203.362V49.3379Z" fill="#81B66C"/>
<path d="M163.956 37.0986H161.833V40.0969H163.956V37.0986Z" fill="#091205"/>
<path d="M159.989 37.0986H157.866V40.0969H159.989V37.0986Z" fill="#091205"/>
<path d="M156.103 37.0986H153.98V40.0969H156.103V37.0986Z" fill="#091205"/>
<path d="M152.423 37.0986H150.3V40.0969H152.423V37.0986Z" fill="#091205"/>
<path d="M148.671 37.0986H146.548V40.0969H148.671V37.0986Z" fill="#091205"/>
<path d="M144.871 37.0986H142.748V40.0969H144.871V37.0986Z" fill="#091205"/>
<path d="M140.904 37.0986H138.782V40.0969H140.904V37.0986Z" fill="#091205"/>
<path d="M137.019 37.0986H134.896V40.0969H137.019V37.0986Z" fill="#091205"/>
<path d="M133.339 37.0986H131.216V40.0969H133.339V37.0986Z" fill="#091205"/>
<path d="M129.586 37.0986H127.463V40.0969H129.586V37.0986Z" fill="#091205"/>
<path d="M125.673 37.0986H123.551V40.0969H125.673V37.0986Z" fill="#091205"/>
<path d="M121.701 37.0986H119.578V40.0969H121.701V37.0986Z" fill="#091205"/>
<path d="M117.821 37.0986H115.699V40.0969H117.821V37.0986Z" fill="#091205"/>
<path d="M114.135 37.0986H112.012V40.0969H114.135V37.0986Z" fill="#091205"/>
<path d="M110.382 37.0986H108.259V40.0969H110.382V37.0986Z" fill="#091205"/>
<path d="M106.589 37.0986H104.466V40.0969H106.589V37.0986Z" fill="#091205"/>
<path d="M102.616 37.0986H100.494V40.0969H102.616V37.0986Z" fill="#091205"/>
<path d="M98.7365 37.0986H96.6138V40.0969H98.7365V37.0986Z" fill="#091205"/>
<path d="M95.0504 37.0986H92.9277V40.0969H95.0504V37.0986Z" fill="#091205"/>
<path d="M91.2975 37.0986H89.1748V40.0969H91.2975V37.0986Z" fill="#091205"/>
<path d="M163.956 42.3896H161.833V45.3879H163.956V42.3896Z" fill="#091205"/>
<path d="M159.989 42.3896H157.866V45.3879H159.989V42.3896Z" fill="#091205"/>
<path d="M156.103 42.3896H153.98V45.3879H156.103V42.3896Z" fill="#091205"/>
<path d="M152.423 42.3896H150.3V45.3879H152.423V42.3896Z" fill="#091205"/>
<path d="M148.671 42.3896H146.548V45.3879H148.671V42.3896Z" fill="#091205"/>
<path d="M144.871 42.3896H142.748V45.3879H144.871V42.3896Z" fill="#091205"/>
<path d="M140.904 42.3896H138.782V45.3879H140.904V42.3896Z" fill="#091205"/>
<path d="M137.019 42.3896H134.896V45.3879H137.019V42.3896Z" fill="#091205"/>
<path d="M133.339 42.3896H131.216V45.3879H133.339V42.3896Z" fill="#091205"/>
<path d="M129.586 42.3896H127.463V45.3879H129.586V42.3896Z" fill="#091205"/>
<path d="M125.673 42.3896H123.551V45.3879H125.673V42.3896Z" fill="#091205"/>
<path d="M121.701 42.3896H119.578V45.3879H121.701V42.3896Z" fill="#091205"/>
<path d="M117.821 42.3896H115.699V45.3879H117.821V42.3896Z" fill="#091205"/>
<path d="M114.135 42.3896H112.012V45.3879H114.135V42.3896Z" fill="#091205"/>
<path d="M110.382 42.3896H108.259V45.3879H110.382V42.3896Z" fill="#091205"/>
<path d="M106.589 42.3896H104.466V45.3879H106.589V42.3896Z" fill="#091205"/>
<path d="M102.616 42.3896H100.494V45.3879H102.616V42.3896Z" fill="#091205"/>
<path d="M98.7365 42.3896H96.6138V45.3879H98.7365V42.3896Z" fill="#091205"/>
<path d="M95.0504 42.3896H92.9277V45.3879H95.0504V42.3896Z" fill="#091205"/>
<path d="M91.2975 42.3896H89.1748V45.3879H91.2975V42.3896Z" fill="#091205"/>
<path d="M163.956 47.5986H161.833V50.5969H163.956V47.5986Z" fill="#091205"/>
<path d="M159.989 47.5986H157.866V50.5969H159.989V47.5986Z" fill="#091205"/>
<path d="M156.103 47.5986H153.98V50.5969H156.103V47.5986Z" fill="#091205"/>
<path d="M152.423 47.5986H150.3V50.5969H152.423V47.5986Z" fill="#091205"/>
<path d="M148.671 47.5986H146.548V50.5969H148.671V47.5986Z" fill="#091205"/>
<path d="M144.871 47.5986H142.748V50.5969H144.871V47.5986Z" fill="#091205"/>
<path d="M140.904 47.5986H138.782V50.5969H140.904V47.5986Z" fill="#091205"/>
<path d="M137.019 47.5986H134.896V50.5969H137.019V47.5986Z" fill="#091205"/>
<path d="M133.339 47.5986H131.216V50.5969H133.339V47.5986Z" fill="#091205"/>
<path d="M129.586 47.5986H127.463V50.5969H129.586V47.5986Z" fill="#091205"/>
<path d="M125.673 47.5986H123.551V50.5969H125.673V47.5986Z" fill="#091205"/>
<path d="M121.701 47.5986H119.578V50.5969H121.701V47.5986Z" fill="#091205"/>
<path d="M117.821 47.5986H115.699V50.5969H117.821V47.5986Z" fill="#091205"/>
<path d="M114.135 47.5986H112.012V50.5969H114.135V47.5986Z" fill="#091205"/>
<path d="M110.382 47.5986H108.259V50.5969H110.382V47.5986Z" fill="#091205"/>
<path d="M106.589 47.5986H104.466V50.5969H106.589V47.5986Z" fill="#091205"/>
<path d="M102.616 47.5986H100.494V50.5969H102.616V47.5986Z" fill="#091205"/>
<path d="M98.7365 47.5986H96.6138V50.5969H98.7365V47.5986Z" fill="#091205"/>
<path d="M95.0504 47.5986H92.9277V50.5969H95.0504V47.5986Z" fill="#091205"/>
<path d="M91.2975 47.5986H89.1748V50.5969H91.2975V47.5986Z" fill="#091205"/>
<path d="M163.956 53.1299H161.833V56.1281H163.956V53.1299Z" fill="#091205"/>
<path d="M159.989 53.1299H157.866V56.1281H159.989V53.1299Z" fill="#091205"/>
<path d="M156.103 53.1299H153.98V56.1281H156.103V53.1299Z" fill="#091205"/>
<path d="M152.423 53.1299H150.3V56.1281H152.423V53.1299Z" fill="#091205"/>
<path d="M148.671 53.1299H146.548V56.1281H148.671V53.1299Z" fill="#091205"/>
<path d="M144.871 53.1299H142.748V56.1281H144.871V53.1299Z" fill="#091205"/>
<path d="M140.904 53.1299H138.782V56.1281H140.904V53.1299Z" fill="#091205"/>
<path d="M137.019 53.1299H134.896V56.1281H137.019V53.1299Z" fill="#091205"/>
<path d="M133.339 53.1299H131.216V56.1281H133.339V53.1299Z" fill="#091205"/>
<path d="M129.586 53.1299H127.463V56.1281H129.586V53.1299Z" fill="#091205"/>
<path d="M125.673 53.1299H123.551V56.1281H125.673V53.1299Z" fill="#091205"/>
<path d="M121.701 53.1299H119.578V56.1281H121.701V53.1299Z" fill="#091205"/>
<path d="M117.821 53.1299H115.699V56.1281H117.821V53.1299Z" fill="#091205"/>
<path d="M114.135 53.1299H112.012V56.1281H114.135V53.1299Z" fill="#091205"/>
<path d="M110.382 53.1299H108.259V56.1281H110.382V53.1299Z" fill="#091205"/>
<path d="M106.589 53.1299H104.466V56.1281H106.589V53.1299Z" fill="#091205"/>
<path d="M102.616 53.1299H100.494V56.1281H102.616V53.1299Z" fill="#091205"/>
<path d="M98.7365 53.1299H96.6138V56.1281H98.7365V53.1299Z" fill="#091205"/>
<path d="M95.0504 53.1299H92.9277V56.1281H95.0504V53.1299Z" fill="#091205"/>
<path d="M91.2975 53.1299H89.1748V56.1281H91.2975V53.1299Z" fill="#091205"/>
<path d="M163.956 58.4189H161.833V61.4172H163.956V58.4189Z" fill="#091205"/>
<path d="M159.989 58.4189H157.866V61.4172H159.989V58.4189Z" fill="#091205"/>
<path d="M156.103 58.4189H153.98V61.4172H156.103V58.4189Z" fill="#091205"/>
<path d="M152.423 58.4189H150.3V61.4172H152.423V58.4189Z" fill="#091205"/>
<path d="M148.671 58.4189H146.548V61.4172H148.671V58.4189Z" fill="#091205"/>
<path d="M144.871 58.4189H142.748V61.4172H144.871V58.4189Z" fill="#091205"/>
<path d="M140.904 58.4189H138.782V61.4172H140.904V58.4189Z" fill="#091205"/>
<path d="M137.019 58.4189H134.896V61.4172H137.019V58.4189Z" fill="#091205"/>
<path d="M133.339 58.4189H131.216V61.4172H133.339V58.4189Z" fill="#091205"/>
<path d="M129.586 58.4189H127.463V61.4172H129.586V58.4189Z" fill="#091205"/>
<path d="M125.673 58.4189H123.551V61.4172H125.673V58.4189Z" fill="#091205"/>
<path d="M121.701 58.4189H119.578V61.4172H121.701V58.4189Z" fill="#091205"/>
<path d="M117.821 58.4189H115.699V61.4172H117.821V58.4189Z" fill="#091205"/>
<path d="M114.135 58.4189H112.012V61.4172H114.135V58.4189Z" fill="#091205"/>
<path d="M110.382 58.4189H108.259V61.4172H110.382V58.4189Z" fill="#091205"/>
<path d="M106.589 58.4189H104.466V61.4172H106.589V58.4189Z" fill="#091205"/>
<path d="M102.616 58.4189H100.494V61.4172H102.616V58.4189Z" fill="#091205"/>
<path d="M95.0504 58.4189H92.9277V61.4172H95.0504V58.4189Z" fill="#091205"/>
<path d="M98.7365 58.4189H96.6138V61.4172H98.7365V58.4189Z" fill="#091205"/>
<path d="M91.2975 58.4189H89.1748V61.4172H91.2975V58.4189Z" fill="#091205"/>
<path d="M163.956 63.6309H161.833V66.6291H163.956V63.6309Z" fill="#091205"/>
<path d="M159.989 63.6309H157.866V66.6291H159.989V63.6309Z" fill="#091205"/>
<path d="M156.103 63.6309H153.98V66.6291H156.103V63.6309Z" fill="#091205"/>
<path d="M152.423 63.6309H150.3V66.6291H152.423V63.6309Z" fill="#091205"/>
<path d="M148.671 63.6309H146.548V66.6291H148.671V63.6309Z" fill="#091205"/>
<path d="M144.871 63.6309H142.748V66.6291H144.871V63.6309Z" fill="#091205"/>
<path d="M140.904 63.6309H138.782V66.6291H140.904V63.6309Z" fill="#091205"/>
<path d="M137.019 63.6309H134.896V66.6291H137.019V63.6309Z" fill="#091205"/>
<path d="M133.339 63.6309H131.216V66.6291H133.339V63.6309Z" fill="#091205"/>
<path d="M129.586 63.6309H127.463V66.6291H129.586V63.6309Z" fill="#091205"/>
<path d="M125.673 63.6309H123.551V66.6291H125.673V63.6309Z" fill="#091205"/>
<path d="M121.701 63.6309H119.578V66.6291H121.701V63.6309Z" fill="#091205"/>
<path d="M117.821 63.6309H115.699V66.6291H117.821V63.6309Z" fill="#091205"/>
<path d="M114.135 63.6309H112.012V66.6291H114.135V63.6309Z" fill="#091205"/>
<path d="M110.382 63.6309H108.259V66.6291H110.382V63.6309Z" fill="#091205"/>
<path d="M106.589 63.6309H104.466V66.6291H106.589V63.6309Z" fill="#091205"/>
<path d="M102.616 63.6309H100.494V66.6291H102.616V63.6309Z" fill="#091205"/>
<path d="M95.0504 63.6309H92.9277V66.6291H95.0504V63.6309Z" fill="#091205"/>
<path d="M91.2975 63.6309H89.1748V66.6291H91.2975V63.6309Z" fill="#091205"/>
<path d="M100.9 57.7012H96.1753V89.709H100.9V57.7012Z" fill="#4AAA24"/>
<path d="M100.904 99.4004H105.974V77.1668H100.904V99.4004Z" fill="#ABC7DE"/>
<path d="M182.454 48.6857V42.4561H182.194V48.6857H178.694V56.3812H185.908V48.6857H182.454Z" fill="#81B66C"/>
<path d="M203.363 32.5871V27.8032H201.333V25.7178H201.074V27.8032H193.674H193.534H192.137V25.7178H191.884V27.8032H190.087V48.7043H193.674V39.7029H203.363V34.919H193.674V32.5871H203.363Z" fill="#81B66C"/>
<path d="M128.003 62.3651V89.3492H100.907V57.7012L128.003 62.3651Z" fill="#63F22B"/>
<path d="M94.194 99.8408H127.998V77.0809H94.194V99.8408Z" fill="#5BCC2E"/>
<path d="M94.194 71.0068H127.998V63.6112L94.194 63.6112V71.0068Z" fill="#37582A"/>
<path d="M96.1684 83.251H94.4316V85.7029H96.1684V83.251Z" fill="#37582A"/>
<path d="M92.9204 83.251H91.1836V85.7029H92.9204V83.251Z" fill="#37582A"/>
<path d="M89.7465 83.251H88.0098V85.7029H89.7465V83.251Z" fill="#37582A"/>
<path d="M116.271 83.251H114.534V85.7029H116.271V83.251Z" fill="#37582A"/>
<path d="M113.204 83.251H111.467V85.7029H113.204V83.251Z" fill="#37582A"/>
<path d="M110.103 83.251H108.366V85.7029H110.103V83.251Z" fill="#37582A"/>
<path d="M106.855 83.251H105.118V85.7029H106.855V83.251Z" fill="#37582A"/>
<path d="M103.682 83.251H101.945V85.7029H103.682V83.251Z" fill="#37582A"/>
<path d="M100.674 83.251H98.937V85.7029H100.674V83.251Z" fill="#37582A"/>
<path d="M97.6064 83.251H95.8696V85.7029H97.6064V83.251Z" fill="#37582A"/>
<path d="M96.1684 87.5732H94.4316V90.0251H96.1684V87.5732Z" fill="#37582A"/>
<path d="M92.9204 87.5732H91.1836V90.0251H92.9204V87.5732Z" fill="#37582A"/>
<path d="M89.7465 87.5732H88.0098V90.0251H89.7465V87.5732Z" fill="#37582A"/>
<path d="M116.271 87.5732H114.534V90.0251H116.271V87.5732Z" fill="#37582A"/>
<path d="M113.204 87.5732H111.467V90.0251H113.204V87.5732Z" fill="#37582A"/>
<path d="M110.103 87.5732H108.366V90.0251H110.103V87.5732Z" fill="#37582A"/>
<path d="M106.855 87.5732H105.118V90.0251H106.855V87.5732Z" fill="#37582A"/>
<path d="M103.682 87.5732H101.945V90.0251H103.682V87.5732Z" fill="#37582A"/>
<path d="M100.674 87.5732H98.937V90.0251H100.674V87.5732Z" fill="#37582A"/>
<path d="M97.6064 87.5732H95.8696V90.0251H97.6064V87.5732Z" fill="#37582A"/>
<path d="M96.1684 74.543H94.4316V76.9949H96.1684V74.543Z" fill="#37582A"/>
<path d="M92.9204 74.543H91.1836V76.9949H92.9204V74.543Z" fill="#37582A"/>
<path d="M89.7465 74.543H88.0098V76.9949H89.7465V74.543Z" fill="#37582A"/>
<path d="M116.271 74.543H114.534V76.9949H116.271V74.543Z" fill="#37582A"/>
<path d="M113.204 74.543H111.467V76.9949H113.204V74.543Z" fill="#37582A"/>
<path d="M110.103 74.543H108.366V76.9949H110.103V74.543Z" fill="#37582A"/>
<path d="M106.855 74.543H105.118V76.9949H106.855V74.543Z" fill="#37582A"/>
<path d="M103.682 74.543H101.945V76.9949H103.682V74.543Z" fill="#37582A"/>
<path d="M96.1684 78.8652H94.4316V81.3171H96.1684V78.8652Z" fill="#37582A"/>
<path d="M92.9204 78.8652H91.1836V81.3171H92.9204V78.8652Z" fill="#37582A"/>
<path d="M89.7465 78.8652H88.0098V81.3171H89.7465V78.8652Z" fill="#37582A"/>
<path d="M116.271 78.8652H114.534V81.3171H116.271V78.8652Z" fill="#37582A"/>
<path d="M113.204 78.8652H111.467V81.3171H113.204V78.8652Z" fill="#37582A"/>
<path d="M110.103 78.8652H108.366V81.3171H110.103V78.8652Z" fill="#37582A"/>
<path d="M106.855 78.8652H105.118V81.3171H106.855V78.8652Z" fill="#37582A"/>
<path d="M103.682 78.8652H101.945V81.3171H103.682V78.8652Z" fill="#37582A"/>
<path d="M100.674 78.8652H98.937V81.3171H100.674V78.8652Z" fill="#37582A"/>
<path d="M97.6064 78.8652H95.8696V81.3171H97.6064V78.8652Z" fill="#37582A"/>
<path d="M96.1684 91.833H94.4316V94.2849H96.1684V91.833Z" fill="#37582A"/>
<path d="M92.9204 91.833H91.1836V94.2849H92.9204V91.833Z" fill="#37582A"/>
<path d="M89.7465 91.833H88.0098V94.2849H89.7465V91.833Z" fill="#37582A"/>
<path d="M116.271 91.833H114.534V94.2849H116.271V91.833Z" fill="#37582A"/>
<path d="M113.204 91.833H111.467V94.2849H113.204V91.833Z" fill="#37582A"/>
<path d="M110.103 91.833H108.366V94.2849H110.103V91.833Z" fill="#37582A"/>
<path d="M106.855 91.833H105.118V94.2849H106.855V91.833Z" fill="#37582A"/>
<path d="M103.682 91.833H101.945V94.2849H103.682V91.833Z" fill="#37582A"/>
<path d="M100.674 91.833H98.937V94.2849H100.674V91.833Z" fill="#37582A"/>
<path d="M97.6064 91.833H95.8696V94.2849H97.6064V91.833Z" fill="#37582A"/>
<path d="M103.222 52.623H102.723V59.0393H103.222V52.623Z" fill="#091205"/>
<path d="M95.8894 65.6875H94.4321V68.2127H95.8894V65.6875Z" fill="#091205"/>
<path d="M110.935 65.6875H109.478V68.2127H110.935V65.6875Z" fill="#091205"/>
<path d="M99.4163 65.6875H97.959V68.2127H99.4163V65.6875Z" fill="#091205"/>
<path d="M188.483 71.3516H139.841V99.8415H188.483V71.3516Z" fill="#62D535"/>
<path d="M144.346 74.2686H141.75V78.2329H144.346V74.2686Z" fill="#091205"/>
<path d="M148.917 74.2686H146.322V78.2329H148.917V74.2686Z" fill="#091205"/>
<path d="M153.522 74.2686H150.927V78.2329H153.522V74.2686Z" fill="#091205"/>
<path d="M158.093 74.2686H155.498V78.2329H158.093V74.2686Z" fill="#091205"/>
<path d="M162.805 74.2686H160.209V78.2329H162.805V74.2686Z" fill="#091205"/>
<path d="M167.383 74.2686H164.788V78.2329H167.383V74.2686Z" fill="#091205"/>
<path d="M171.988 74.2686H169.393V78.2329H171.988V74.2686Z" fill="#091205"/>
<path d="M176.559 74.2686H173.964V78.2329H176.559V74.2686Z" fill="#091205"/>
<path d="M181.356 74.2686H178.761V78.2329H181.356V74.2686Z" fill="#091205"/>
<path d="M185.927 74.2686H183.332V78.2329H185.927V74.2686Z" fill="#091205"/>
<path d="M144.346 80.1318H141.75V84.0962H144.346V80.1318Z" fill="#091205"/>
<path d="M148.917 80.1318H146.322V84.0962H148.917V80.1318Z" fill="#091205"/>
<path d="M153.522 80.1318H150.927V84.0962H153.522V80.1318Z" fill="#091205"/>
<path d="M158.093 80.1318H155.498V84.0962H158.093V80.1318Z" fill="#091205"/>
<path d="M162.805 80.1318H160.209V84.0962H162.805V80.1318Z" fill="#091205"/>
<path d="M167.383 80.1318H164.788V84.0962H167.383V80.1318Z" fill="#091205"/>
<path d="M171.988 80.1318H169.393V84.0962H171.988V80.1318Z" fill="#091205"/>
<path d="M176.559 80.1318H173.964V84.0962H176.559V80.1318Z" fill="#091205"/>
<path d="M181.356 80.1318H178.761V84.0962H181.356V80.1318Z" fill="#091205"/>
<path d="M185.927 80.1318H183.332V84.0962H185.927V80.1318Z" fill="#091205"/>
<path d="M144.345 86.4355H141.75V90.3999H144.345V86.4355Z" fill="#091205"/>
<path d="M148.917 86.4355H146.322V90.3999H148.917V86.4355Z" fill="#091205"/>
<path d="M153.521 86.4355H150.926V90.3999H153.521V86.4355Z" fill="#091205"/>
<path d="M158.093 86.4355H155.498V90.3999H158.093V86.4355Z" fill="#091205"/>
<path d="M162.805 86.4355H160.209V90.3999H162.805V86.4355Z" fill="#091205"/>
<path d="M167.383 86.4355H164.788V90.3999H167.383V86.4355Z" fill="#091205"/>
<path d="M171.987 86.4355H169.392V90.3999H171.987V86.4355Z" fill="#091205"/>
<path d="M176.559 86.4355H173.964V90.3999H176.559V86.4355Z" fill="#091205"/>
<path d="M181.356 86.4355H178.761V90.3999H181.356V86.4355Z" fill="#091205"/>
<path d="M185.927 86.4355H183.332V90.3999H185.927V86.4355Z" fill="#091205"/>
<path d="M144.346 92.2988H141.75V96.2632H144.346V92.2988Z" fill="#091205"/>
<path d="M148.917 92.2988H146.322V96.2632H148.917V92.2988Z" fill="#091205"/>
<path d="M153.522 92.2988H150.927V96.2632H153.522V92.2988Z" fill="#091205"/>
<path d="M158.093 92.2988H155.498V96.2632H158.093V92.2988Z" fill="#091205"/>
<path d="M162.805 92.2988H160.209V96.2632H162.805V92.2988Z" fill="#091205"/>
<path d="M167.383 92.2988H164.788V96.2632H167.383V92.2988Z" fill="#091205"/>
<path d="M171.988 92.2988H169.393V96.2632H171.988V92.2988Z" fill="#091205"/>
<path d="M176.559 92.2988H173.964V96.2632H176.559V92.2988Z" fill="#091205"/>
<path d="M181.356 92.2988H178.761V96.2632H181.356V92.2988Z" fill="#091205"/>
<path d="M185.927 92.2988H183.332V96.2632H185.927V92.2988Z" fill="#091205"/>
<path d="M171.728 72.6505H181.882V63.7891L171.728 67.6801V72.6505Z" fill="#62D535"/>
<path d="M121.701 99.8414H98.4707V74.543L121.701 82.5916V99.8414Z" fill="#37582A"/>
<path d="M121.088 83.4307H99.0825V84.2102H121.088V83.4307Z" fill="#091205"/>
<path d="M121.088 85.9443H99.0825V86.7239H121.088V85.9443Z" fill="#091205"/>
<path d="M121.088 88.4561H99.0825V89.2356H121.088V88.4561Z" fill="#091205"/>
<path d="M121.088 90.9668H99.0825V91.7463H121.088V90.9668Z" fill="#091205"/>
<path d="M121.088 93.4844H99.0825V94.2639H121.088V93.4844Z" fill="#091205"/>
<path d="M121.088 95.9971H99.0825V96.7766H121.088V95.9971Z" fill="#091205"/>
<path d="M183.832 63.7891H181.882V71.3513H183.832V63.7891Z" fill="#62D535"/>
<path d="M179.734 70.1825V67.584H175.775V70.1825H179.734Z" fill="#091205"/>
<path d="M101.891 15.5498H100.547V26.9831H101.891V15.5498Z" fill="#091205"/>
<path d="M104.566 15.5498H103.222V26.9831H104.566V15.5498Z" fill="#091205"/>
<path d="M107.207 15.5498H105.863V26.9831H107.207V15.5498Z" fill="#091205"/>
<path d="M109.942 15.5498H108.598V26.9831H109.942V15.5498Z" fill="#091205"/>
<path d="M0.193848 99.9739C0.193848 99.9739 2.60614 93.6689 13.9322 95.3771C25.2583 97.0783 30.2668 95.8909 35.8415 94.523C41.409 93.162 43.7992 93.0925 49.1019 94.9118C54.4045 96.7311 56.2579 100.481 73.5264 96.7311C90.795 92.9814 98.9586 89.9192 109.726 92.8148C120.493 95.7104 133.761 90.4122 147.043 95.3701C160.325 100.321 180.83 91.6205 191.229 99.9669H0.193848V99.9739Z" fill="#37582A"/>
<path d="M38.8416 48.4867L24.9875 42.3969C24.8478 42.337 24.7812 42.1704 24.8478 42.0305L33.0591 23.2948C33.119 23.1549 33.2853 23.0883 33.4251 23.1549L47.2792 29.2447L38.8416 48.4867Z" fill="#F5492D"/>
<path d="M38.8408 48.4871L25.7319 42.7238L31.042 34.2488C33.0051 31.124 36.951 29.9047 40.3247 31.3905L45.362 33.6025L38.8408 48.4871Z" fill="#D0301A"/>
<path d="M32.4665 85.3038C32.4665 85.2239 32.4598 85.1372 32.4532 85.0573L43.0468 83.2783L42.9935 82.9452L32.3999 84.7242C32.2735 84.1778 31.9608 83.7048 31.5416 83.365L37.9696 74.1704L37.6967 73.9771L31.5282 82.7986L34.8554 72.8045L34.536 72.6979L31.0824 83.0718C30.7963 82.9319 30.4835 82.8453 30.1508 82.8253V71.7451H29.8114V82.8253C29.6185 82.8386 29.4322 82.8719 29.2525 82.9252L25.8189 73.3442L25.4995 73.4574L28.7667 82.5788L22.1923 75.0032L21.9394 75.2231L28.7867 83.1184C28.4274 83.3117 28.1213 83.5915 27.9017 83.9313L27.5157 83.8647L17.9403 79.0008L17.7872 79.3007L26.3912 83.6648L16.7957 82.0124L16.7358 82.3456L27.4026 84.1845L27.6821 84.3244C27.5557 84.6242 27.4825 84.9507 27.4825 85.2971C27.4825 85.3638 27.4891 85.4304 27.4891 85.497L16.9022 87.0694L16.9488 87.4026L27.5357 85.8302C27.5556 85.9301 27.5823 86.0301 27.6155 86.1233L17.9469 90.2809L18.08 90.5874L27.7486 86.4298C27.7486 86.4365 27.7553 86.4365 27.7553 86.4431L20.1694 94.1053L20.409 94.3452L27.9416 86.7363C28.0946 86.9495 28.281 87.1427 28.4939 87.296L22.9243 96.0642L23.2104 96.2441L28.78 87.4759C28.8266 87.5025 28.8798 87.5292 28.9331 87.5492C27.5423 91.2137 24.9937 97.9364 24.9339 98.1229L25.2533 98.2296C25.3065 98.063 27.549 92.1465 29.2525 87.6691C29.4787 87.7357 29.7249 87.7757 29.9711 87.7757C30.0111 87.7757 30.051 87.7757 30.0976 87.7757L29.2192 98.4161L29.5519 98.4428L30.4369 87.7291C30.5434 87.7091 30.6499 87.6824 30.7497 87.6491C32.4998 91.9599 34.7955 97.6232 34.862 97.8031L35.1814 97.6965C35.1215 97.51 32.5064 91.0804 31.0624 87.5225C31.0957 87.5092 31.1223 87.4892 31.1556 87.4759L37.0646 96.8304L37.3507 96.6505L31.4417 87.2893C31.6746 87.1161 31.8809 86.9029 32.0406 86.6564L40.8109 92.7461L41.0039 92.4663L32.207 86.3565C32.38 86.0567 32.4665 85.6903 32.4665 85.3038Z" fill="#2C3B64"/>
<path d="M29.9842 99.8688C21.9592 99.8688 15.438 93.3327 15.438 85.304C15.438 77.2688 21.9658 70.7393 29.9842 70.7393C38.0026 70.7393 44.5304 77.2754 44.5304 85.304C44.5304 87.8759 43.8517 90.4077 42.5607 92.6264C41.3031 94.7918 39.4998 96.6041 37.3371 97.8767C35.1213 99.1759 32.5794 99.8688 29.9842 99.8688ZM29.9842 72.7581C23.0771 72.7581 17.4542 78.3881 17.4542 85.304C17.4542 92.22 23.0771 97.85 29.9842 97.85C32.22 97.85 34.4093 97.257 36.3257 96.131C38.1822 95.0383 39.7393 93.4726 40.824 91.607C41.9286 89.7015 42.5141 87.5227 42.5141 85.304C42.5208 78.3814 36.898 72.7581 29.9842 72.7581Z" fill="#2C3B64"/>
<path d="M30.0978 98.2235C23.031 98.2235 17.2817 92.4669 17.2817 85.3911C17.2817 78.3152 23.031 72.5586 30.0978 72.5586C37.1647 72.5586 42.9139 78.3152 42.9139 85.3911C42.9139 92.4669 37.1647 98.2235 30.0978 98.2235ZM30.0978 73.0783C23.3172 73.0783 17.8008 78.6017 17.8008 85.3911C17.8008 92.1804 23.3172 97.7038 30.0978 97.7038C36.8785 97.7038 42.3949 92.1804 42.3949 85.3911C42.3949 78.6017 36.8785 73.0783 30.0978 73.0783Z" fill="#425DA3"/>
<path d="M79.0593 85.3038C79.0593 85.2239 79.0526 85.1372 79.046 85.0573L89.6396 83.2783L89.5863 82.9452L78.9928 84.7242C78.8663 84.1778 78.5602 83.7048 78.1343 83.365L84.5623 74.1704L84.2895 73.9771L78.121 82.7986L81.4482 72.8045L81.1287 72.6979L77.6752 83.0718C77.3891 82.9319 77.0763 82.8453 76.7436 82.8253V71.7451H76.4042V82.8253C76.2112 82.8386 76.0249 82.8719 75.8453 82.9252L72.4117 73.3442L72.0923 73.4574L75.3595 82.5788L68.7851 75.0032L68.5323 75.2231L75.3795 83.1184C75.0201 83.3117 74.7141 83.5915 74.4945 83.9313L74.1085 83.8647L64.533 79.0008L64.38 79.3007L72.9839 83.6648L63.3885 82.0124L63.3286 82.3456L73.9954 84.1845L74.2749 84.3244C74.1484 84.6242 74.0752 84.9507 74.0752 85.2971C74.0752 85.3638 74.0819 85.4304 74.0819 85.497L63.495 87.0694L63.5416 87.4026L74.1285 85.8302C74.1484 85.9301 74.175 86.0301 74.2083 86.1233L64.5397 90.2809L64.6728 90.5874L74.3414 86.4298C74.3414 86.4365 74.3481 86.4365 74.3481 86.4431L66.7622 94.1053L67.0018 94.3452L74.5344 86.7363C74.6874 86.9495 74.8738 87.1427 75.0867 87.296L69.5171 96.0642L69.8032 96.2441L75.3728 87.4759C75.4194 87.5025 75.4726 87.5292 75.5259 87.5492C74.1351 91.2137 71.5866 97.9364 71.5267 98.1229L71.8461 98.2296C71.8993 98.063 74.1484 92.1465 75.8453 87.6691C76.0715 87.7357 76.3177 87.7757 76.5639 87.7757C76.6039 87.7757 76.6438 87.7757 76.6904 87.7757L75.812 98.4161L76.1447 98.4428L77.0297 87.7291C77.1362 87.7091 77.2427 87.6824 77.3425 87.6491C79.0925 91.9599 81.3883 97.6232 81.4548 97.8031L81.7742 97.6965C81.7143 97.51 79.0992 91.0804 77.6552 87.5225C77.6885 87.5092 77.7151 87.4892 77.7484 87.4759L83.6574 96.8304L83.9435 96.6505L78.0345 87.2893C78.2674 87.1161 78.4737 86.9029 78.6334 86.6564L87.4037 92.7461L87.5967 92.4663L78.8131 86.3832C78.9661 86.0567 79.0593 85.6903 79.0593 85.3038Z" fill="#2C3B64"/>
<path d="M76.577 99.8688C68.5519 99.8688 62.0308 93.3327 62.0308 85.304C62.0308 77.2688 68.5586 70.7393 76.577 70.7393C84.602 70.7393 91.1298 77.2754 91.1298 85.304C91.1298 87.8759 90.4511 90.4077 89.1602 92.6264C87.9025 94.7918 86.0992 96.6041 83.9366 97.8767C81.7141 99.1759 79.1655 99.8688 76.577 99.8688ZM76.577 72.7581C69.6699 72.7581 64.047 78.3881 64.047 85.304C64.047 92.22 69.6699 97.85 76.577 97.85C78.8128 97.85 81.0021 97.257 82.9185 96.131C84.775 95.0383 86.3321 93.4726 87.4167 91.607C88.5213 89.7015 89.1069 87.5227 89.1069 85.304C89.1069 78.3814 83.4841 72.7581 76.577 72.7581Z" fill="#2C3B64"/>
<path d="M76.6896 98.2235C69.6228 98.2235 63.8735 92.4669 63.8735 85.3911C63.8735 78.3152 69.6228 72.5586 76.6896 72.5586C83.7564 72.5586 89.5057 78.3152 89.5057 85.3911C89.5057 92.4669 83.7564 98.2235 76.6896 98.2235ZM76.6896 73.0783C69.9089 73.0783 64.3926 78.6017 64.3926 85.3911C64.3926 92.1804 69.9089 97.7038 76.6896 97.7038C83.4703 97.7038 88.9867 92.1804 88.9867 85.3911C88.9867 78.6017 83.4703 73.0783 76.6896 73.0783Z" fill="#425DA3"/>
<path d="M47.2316 83.6254C48.05 83.0325 48.396 81.7266 48.396 81.7266L45.8408 82.4728C45.8408 82.4728 46.4197 84.2184 47.2316 83.6254Z" fill="#CC8C55"/>
<path d="M53.6261 85.444C53.5529 85.2441 53.3799 85.0909 53.1803 85.0309C52.6746 84.8843 51.6698 84.7511 50.7515 83.9182C50.2325 83.4518 48.2561 82.1992 48.2561 82.1992H48.2429C48.1963 82.1992 47.99 82.2658 47.0917 83.0254C46.6259 83.4185 45.834 82.4724 45.834 82.4724C45.834 82.4724 45.6876 82.5923 45.5745 82.8255C45.488 83.0054 45.4215 83.2586 45.4747 83.5651C45.5479 83.9982 45.315 84.8044 45.1287 85.344C45.0155 85.6705 44.9224 85.9037 44.9224 85.9037C44.9224 85.9037 44.8691 86.1769 45.8407 86.2968H46.9719C47.3512 86.2368 47.6307 86.1302 48.0166 86.0769C48.6022 85.997 48.875 86.2435 48.9282 86.2968C48.9349 86.3035 48.9416 86.3101 48.9416 86.3101H53.7326C53.859 86.1369 53.7393 85.7371 53.6261 85.444Z" fill="#303876"/>
<path d="M41.0097 60.0127C42.7863 63.424 50.319 67.9747 49.9663 68.3878C47.4576 71.3327 45.8407 82.4728 45.8407 82.4728C45.8407 82.4728 46.3464 82.7593 46.8188 82.7727C47.6107 82.7927 48.4159 82.5195 48.4159 82.5195C51.5367 76.1432 56.4542 69.1807 56.0283 67.6482C54.937 63.7439 46.6658 53.31 46.6658 53.31L39.2596 51.6709L37.0171 51.5977C37.0105 51.5977 38.5875 55.3488 41.0097 60.0127Z" fill="#2C3B64"/>
<path d="M41.5799 60.3246L40.1411 60.7852L48.6918 87.5664L50.1305 87.1059L41.5799 60.3246Z" fill="#2AADC0"/>
<path d="M65.0724 60.8397L65.2189 60.5332L64.9527 60.7131L64.946 60.7198L29.8981 84.4525C29.1994 84.9255 29.4788 86.0249 30.3239 86.0982L47.9777 87.6373L48.1108 86.1248L32.1871 84.739L61.8318 65.7368L49.4283 85.6318L50.6993 86.4513L66.7626 62.5987L65.0724 60.8397Z" fill="#1B92A6"/>
<path d="M75.6715 84.9171L66.9478 66.1081L68.1056 65.6417C68.8575 65.3419 69.7159 65.7084 70.0153 66.4613L77.1021 84.2974C77.2618 84.6972 77.0689 85.1436 76.6763 85.3102C76.2903 85.4634 75.8511 85.2902 75.6715 84.9171Z" fill="#425DA3"/>
<path d="M66.9482 66.1021C65.6972 62.8506 63.6077 57.7403 63.641 57.7936L64.8987 56.9541C64.9586 57.0474 64.9985 57.1073 68.2857 65.6357L66.9482 66.1021Z" fill="#1B92A6"/>
<path d="M66.862 55.9883C66.2964 55.9883 65.8173 56.3481 65.6376 56.8544L62.051 56.6479C61.8447 56.1948 61.3922 55.875 60.8599 55.875C60.1412 55.875 59.5557 56.4613 59.5557 57.1809C59.5557 57.9005 60.1412 58.4868 60.8599 58.4868C61.1926 58.4868 61.4987 58.3602 61.7316 58.1537L66.1766 58.4068C66.3763 58.5268 66.6092 58.6001 66.8554 58.6001C67.574 58.6001 68.1596 58.0137 68.1596 57.2942C68.1596 56.5746 67.5873 55.9883 66.862 55.9883Z" fill="#425DA3"/>
<path d="M57.3459 89.7949H54.0654C53.6794 89.7949 53.3667 90.1081 53.3667 90.4945C53.3667 90.881 53.6794 91.1941 54.0654 91.1941H57.3459C57.7319 91.1941 58.0446 90.881 58.0446 90.4945C58.0513 90.1081 57.7319 89.7949 57.3459 89.7949Z" fill="#425DA3"/>
<path d="M49.3527 86.7751L49.1099 87.3086L55.7526 90.3397L55.9954 89.8061L49.3527 86.7751Z" fill="#425DA3"/>
<path d="M41.842 70.3537C41.6291 70.427 41.3962 70.407 41.1966 70.2871C34.3893 66.1695 24.9735 67.7153 22.2452 68.2883H22.2386C22.0855 68.3216 21.9458 68.2083 21.9458 68.0484V67.5154C21.9458 67.109 22.2452 66.7625 22.6445 66.7025C24.1151 66.4826 27.562 66.0096 29.4851 66.0029C29.5383 66.0029 29.5915 66.0029 29.6381 66.0029C33.9501 66.0029 37.6698 66.7758 40.7241 68.3016C41.3496 68.6147 42.0749 68.6547 42.7337 68.4282L43.5721 68.135C44.0512 67.9684 44.5769 68.2216 44.7433 68.7013C44.8497 69.0145 44.69 69.3476 44.3773 69.4609L41.842 70.3537Z" fill="#1B92A6"/>
<path d="M35.5141 59.9788C35.5141 59.9788 35.2413 58.7396 36.0198 58.6529C36.7984 58.5663 39.6331 59.1793 40.3917 59.0927C41.1503 59.0061 45.1029 58.3531 45.7949 59.0327C46.487 59.7123 46.1942 60.2986 44.8034 60.4252C43.4127 60.5518 41.5628 60.785 41.0371 61.2248C40.5181 61.6578 36.7119 62.9637 35.5141 59.9788Z" fill="#425DA3"/>
<path d="M49.4147 91.1154C51.5058 91.1154 53.201 89.4181 53.201 87.3243C53.201 85.2305 51.5058 83.5332 49.4147 83.5332C47.3236 83.5332 45.6284 85.2305 45.6284 87.3243C45.6284 89.4181 47.3236 91.1154 49.4147 91.1154Z" fill="#425DA3"/>
<path d="M55.6826 86.1718C55.6826 86.1718 56.0686 87.551 56.8604 87.451C57.6589 87.3511 58.0848 85.9053 58.0848 85.9053L55.6826 86.1718Z" fill="#CC8C55"/>
<path d="M55.6893 89.9931H56.8205C57.1998 89.9331 57.4793 89.8265 57.8653 89.7732C58.4508 89.6933 58.7236 89.9398 58.7769 89.9931C58.7835 89.9998 58.7902 90.0064 58.7902 90.0064H63.5813C63.701 89.8332 63.5879 89.4334 63.4748 89.1403C63.4016 88.9404 63.2286 88.7871 63.0289 88.7272C62.5232 88.5806 61.5184 88.4473 60.6001 87.6145C60.0811 87.1481 58.1048 85.8955 58.1048 85.8955H58.0915C58.0449 85.8955 57.8386 85.9621 56.9403 86.7217C56.4745 87.1148 55.6826 86.1687 55.6826 86.1687C55.6826 86.1687 55.5363 86.2886 55.4231 86.5218C55.3366 86.7017 55.2701 86.9549 55.3233 87.2614C55.3965 87.6945 55.1636 88.5006 54.9773 89.0403C54.8642 89.3668 54.771 89.6067 54.771 89.6067C54.771 89.6067 54.7178 89.8732 55.6893 89.9931Z" fill="#303876"/>
<path d="M37.3635 49.8057C37.3635 49.8057 34.3957 56.2552 37.9889 59.1935C41.5822 62.1384 52.0228 66.3026 52.1891 66.9556C52.3555 67.6085 53.0675 78.3222 55.6826 86.171C55.6826 86.171 56.5809 86.5307 58.0915 85.8978C58.9365 85.5447 60.0678 65.1966 58.5972 63.2378C57.1266 61.2789 48.9419 55.6689 48.9419 55.6689L37.3635 49.8057Z" fill="#364789"/>
<path d="M46.9058 28.1317C46.9058 28.1317 50.519 31.5963 53.2406 31.6029C53.2406 31.6029 52.8746 30.6302 52.0029 29.7107C52.1759 29.3709 52.329 29.0578 52.4621 28.7713C52.9345 27.7519 53.1341 27.1522 53.1341 27.1522L51.1778 24.2006L50.7386 23.541C50.5989 24.0474 50.4192 24.5071 50.2196 24.9135C50.2063 24.9469 50.1863 24.9802 50.173 25.0068C48.9353 27.4187 46.9058 28.1317 46.9058 28.1317Z" fill="#CC8C55"/>
<path d="M64.553 54.6428C64.553 54.6428 59.376 48.0133 58.9235 47.427C58.4644 46.8407 53.8862 36.9598 53.8862 36.9598L46.9126 36.3535C46.9126 36.3535 54.4252 48.5597 55.6097 50.0188C57.5727 52.4307 63.1357 55.3957 63.1357 55.3957C63.0292 56.0353 63.5349 56.6616 64.3334 56.9348C65.1253 57.2079 64.8658 57.2146 65.4181 57.4211C65.977 57.6277 66.1767 56.7749 66.1767 56.7749C66.4961 54.7161 64.553 54.6428 64.553 54.6428Z" fill="#BE783D"/>
<path d="M37.3634 49.8062C37.2636 50.0727 37.7294 50.5524 37.9423 50.7389C38.8739 51.5651 39.7856 52.298 40.7638 52.9177C41.4425 53.3507 42.1545 53.7305 42.9264 54.0637C45.1423 55.0231 48.0169 55.3696 48.9418 55.676C49.0417 55.7094 49.1415 55.696 49.2346 55.6627C49.3145 55.6294 50.2461 52.8444 51.3174 49.2931C51.3573 49.1599 51.4106 49.0066 51.4372 48.8667L51.4505 48.8201C51.8764 47.4409 52.2823 45.9684 52.6749 44.5093C53.5399 41.2912 54.2652 38.1463 54.3783 36.3141C54.5114 34.162 53.7928 32.483 53.0542 31.1838L52.4353 30.1577C51.5237 30.0578 50.6387 29.7246 49.8734 28.9917C49.0483 28.1989 48.1433 27.3394 47.9304 27.406C45.4151 28.2855 42.9863 32.4564 41.3893 37.5667C41.336 37.7266 41.2894 37.8932 41.2429 38.0531C41.0832 38.5861 40.9368 39.1258 40.797 39.6721C39.8255 43.5099 38.5679 46.708 37.8359 48.5602C37.6363 49.0866 37.4699 49.513 37.3634 49.8062Z" fill="#FBBA01"/>
<path d="M37.3634 49.8042C37.2636 50.0707 37.7294 50.5504 37.9423 50.737C38.8739 51.5632 39.7856 52.2961 40.7638 52.9157C46.7459 44.2874 46.1337 33.8936 46.1337 33.8936L41.2562 38.0444C41.0965 38.5775 40.9501 39.1171 40.8103 39.6635C39.8388 43.5012 38.5812 46.6994 37.8492 48.5516C37.6363 49.0846 37.4699 49.511 37.3634 49.8042Z" fill="#FA7205"/>
<path d="M50.1592 24.9597C50.1592 24.9597 50.1592 24.9731 50.1658 25.0064C50.239 25.3528 50.7647 27.6315 52.4616 28.7708C52.934 27.7514 53.1336 27.1518 53.1336 27.1518L51.1773 24.2002C50.7048 24.5 50.3455 24.7932 50.2191 24.9131C50.1791 24.9398 50.1592 24.9597 50.1592 24.9597Z" fill="#BE783D"/>
<path d="M54.2985 27.2254C54.2985 27.2254 49.9533 27.3587 49.9133 24.6536C49.8734 21.9418 49.2812 20.1362 52.0493 19.9364C54.8242 19.7365 55.3765 20.7625 55.6094 21.662C55.8423 22.5615 55.4231 27.1188 54.2985 27.2254Z" fill="#CC8C55"/>
<path d="M49.9135 24.8388C49.9135 24.8388 50.4791 21.2943 54.4251 21.241C57.1267 21.2076 55.8225 18.7691 55.563 18.376C55.563 18.376 53.4869 18.4892 51.3442 18.6691C46.8659 19.0423 49.5209 24.2459 49.9135 24.8388Z" fill="#2C3B64"/>
<path d="M60.7406 54.9156C60.7406 54.9156 55.5635 48.2861 55.1111 47.6998C54.6519 47.1135 50.0738 37.2326 50.0738 37.2326L46.7866 36.5264L43.7988 37.759C43.7988 37.759 50.6061 48.8258 51.7973 50.2849C53.7603 52.6969 59.3232 55.6618 59.3232 55.6618C59.2168 56.3014 59.7225 56.9277 60.521 57.2009C61.3128 57.4741 61.0533 57.4807 61.6056 57.6873C62.1646 57.8938 62.3642 57.041 62.3642 57.041C62.6903 54.9889 60.7406 54.9156 60.7406 54.9156Z" fill="#CC8C55"/>
<path d="M50.6054 37.2322C50.6054 37.2322 45.8809 36.5326 43.6051 38.0051C43.6051 38.0051 43.0861 35.0468 43.492 32.555C43.7116 31.1824 45.0225 30.2563 46.3866 30.5095C47.2983 30.6761 48.2565 31.0292 48.7023 31.7621C49.6871 33.3745 50.6054 37.2322 50.6054 37.2322Z" fill="#FBBA01"/>
<path d="M47.7973 23.4134L56.4678 21.208C56.4678 21.208 56.3014 17.2037 53.1606 16.9106C50.0132 16.6174 46.5396 20.6684 47.7973 23.4134Z" fill="#2AADC0"/>
<path d="M54.152 20.6896C53.9125 21.0694 53.5931 21.3026 53.44 21.2093C53.2937 21.116 53.3668 20.7296 53.6064 20.3498C53.846 19.97 54.1653 19.7368 54.3184 19.8301C54.4714 19.9234 54.3916 20.3032 54.152 20.6896Z" fill="#1B92A6"/>
<path d="M52.6149 21.0421C52.3754 21.4219 52.056 21.6551 51.9029 21.5618C51.7565 21.4686 51.8297 21.0821 52.0693 20.7023C52.3088 20.3226 52.6282 20.0894 52.7813 20.1827C52.9343 20.2759 52.8611 20.6624 52.6149 21.0421Z" fill="#1B92A6"/>
<path d="M51.0647 21.3683C50.8251 21.7481 50.5057 21.9813 50.3526 21.888C50.2062 21.7947 50.2794 21.4083 50.519 21.0285C50.7586 20.6487 51.078 20.4155 51.231 20.5088C51.3841 20.6021 51.3042 20.9885 51.0647 21.3683Z" fill="#1B92A6"/>
<path d="M49.4216 21.8488C49.182 22.2286 48.8626 22.4618 48.7096 22.3685C48.5632 22.2752 48.6364 21.8888 48.8759 21.509C49.1155 21.1292 49.4349 20.896 49.5879 20.9893C49.741 21.0826 49.6611 21.469 49.4216 21.8488Z" fill="#1B92A6"/>
<path d="M52.4416 18.2166C55.2031 18.0101 55.8686 21.3681 55.8686 21.3681L56.4675 21.2149C56.4675 21.2149 56.3011 17.2106 53.1603 16.9174C50.0195 16.6242 46.5393 20.6752 47.7969 23.4203C47.2047 20.4353 49.6801 18.4232 52.4416 18.2166Z" fill="#1B92A6"/>
<path d="M45.6683 28.5303L45.1426 29.7096C45.1426 29.7096 51.0516 31.4619 50.4394 38.0114L50.9052 39.0108C50.9052 39.0108 52.256 30.196 45.6683 28.5303Z" fill="#F5492D"/>
<path d="M47.4981 43.709C47.4981 43.709 41.7023 47.3868 38.6347 46.5007L38.0757 47.9532C38.0757 47.9532 44.0046 47.4668 47.7576 44.1221L47.4981 43.709Z" fill="#D0301A"/>
<path d="M207.947 3.80762C194.951 3.80762 184.417 14.3548 184.417 27.3671C184.417 40.3795 207.947 63.7591 207.947 63.7591C207.947 63.7591 231.476 40.3795 231.476 27.3671C231.476 14.3548 220.943 3.80762 207.947 3.80762ZM207.947 41.3123C199.13 41.3123 191.983 34.1565 191.983 25.3283C191.983 16.5002 199.13 9.34436 207.947 9.34436C216.764 9.34436 223.91 16.5002 223.91 25.3283C223.91 34.1565 216.764 41.3123 207.947 41.3123Z" fill="#F5492D"/>
<path d="M166.311 1.22559C159.688 1.22559 154.314 6.58668 154.314 13.1948C154.314 19.803 166.311 31.6805 166.311 31.6805C166.311 31.6805 178.309 19.803 178.309 13.1948C178.309 6.58057 172.935 1.22559 166.311 1.22559ZM166.311 20.2737C161.814 20.2737 158.174 16.6364 158.174 12.1556C158.174 7.66868 161.82 4.03756 166.311 4.03756C170.809 4.03756 174.449 7.67479 174.449 12.1556C174.449 16.6426 170.809 20.2737 166.311 20.2737Z" fill="#FBBA01"/>
</svg>
