<svg width="40" height="40" viewBox="0 0 40 40" fill="none" xmlns="http://www.w3.org/2000/svg">
<path d="M36.818 10.455V29.546L19.9998 38.6369L3.18164 29.546V10.455L4.13619 9.94141L19.9998 18.5141L35.8635 9.94141L36.818 10.455Z" fill="#FFB655"/>
<path d="M19.9998 19.544V38.6349L3.18164 29.544V10.4531L19.9998 19.544Z" fill="#FCCC97"/>
<path d="M10.942 30.5785C10.8666 30.5785 10.7925 30.5598 10.7262 30.524L4.78342 27.3117C4.73089 27.2833 4.68447 27.2449 4.6468 27.1985C4.60914 27.1522 4.58097 27.0989 4.5639 27.0417C4.52942 26.9261 4.54227 26.8016 4.5996 26.6955C4.62799 26.643 4.66645 26.5966 4.71278 26.5589C4.75911 26.5212 4.81241 26.4931 4.86962 26.476C4.98518 26.4415 5.1097 26.4544 5.21579 26.5117L11.1587 29.724C11.2478 29.7721 11.3183 29.8486 11.359 29.9413C11.3997 30.034 11.4083 30.1376 11.3834 30.2357C11.3585 30.3339 11.3016 30.4209 11.2216 30.483C11.1417 30.5451 11.0432 30.5787 10.942 30.5785Z" fill="#FFB655"/>
<path d="M7.1556 30.0788C7.08028 30.0788 7.00614 30.0601 6.93988 30.0243L4.78342 28.8586C4.73089 28.8302 4.68447 28.7917 4.6468 28.7454C4.60914 28.6991 4.58097 28.6458 4.5639 28.5886C4.54683 28.5313 4.5412 28.4713 4.54732 28.4119C4.55345 28.3525 4.57121 28.2949 4.5996 28.2424C4.62799 28.1899 4.66645 28.1435 4.71278 28.1058C4.75911 28.0681 4.81241 28.0399 4.86962 28.0229C4.92684 28.0058 4.98686 28.0002 5.04626 28.0063C5.10565 28.0124 5.16326 28.0302 5.21578 28.0586L7.37233 29.2243C7.46142 29.2724 7.5319 29.3488 7.57261 29.4415C7.61332 29.5342 7.62192 29.6378 7.59705 29.7359C7.57217 29.8341 7.51525 29.9211 7.43531 29.9832C7.35537 30.0453 7.25684 30.079 7.1556 30.0788Z" fill="#FFB655"/>
<path d="M8.94043 13.5664V21.3761C8.94042 21.4483 8.9576 21.5194 8.99053 21.5836C9.02345 21.6478 9.0712 21.7033 9.1298 21.7454C9.1884 21.7874 9.25619 21.815 9.32754 21.8257C9.3989 21.8364 9.47178 21.83 9.54016 21.8069L11.4145 21.1751L13.4145 24.0107C13.4701 24.0895 13.5494 24.1486 13.6409 24.1794C13.7323 24.2102 13.8312 24.2111 13.9232 24.1819C14.0152 24.1528 14.0956 24.0951 14.1526 24.0172C14.2096 23.9394 14.2404 23.8454 14.2404 23.7489V16.4313L8.94043 13.5664Z" fill="#FFB655"/>
<path d="M3.18164 10.4542L19.9998 19.5451L36.818 10.4542L19.9998 1.36328L3.18164 10.4542Z" fill="#FC9F30"/>
<path d="M8.91699 13.5558L14.2643 16.4462L31.0824 7.35575L25.7352 4.46484L8.91699 13.5558Z" fill="#DB811F"/>
</svg>
