<svg width="40" height="40" viewBox="0 0 40 40" fill="none" xmlns="http://www.w3.org/2000/svg">
<path d="M33.6227 4.08203H6.45605C5.03941 4.08203 3.95605 5.16539 3.95605 6.58203V37.4987C3.95605 38.9153 5.03941 39.9987 6.45605 39.9987H33.5394C34.9561 39.9987 36.0394 38.9153 36.0394 37.4987V6.58203C36.1227 5.24867 34.9561 4.08203 33.6227 4.08203Z" fill="#FFD15C"/>
<path d="M32.7057 7.41797H7.28906V36.5846H32.7057V7.41797Z" fill="white"/>
<path d="M22.8731 2.75C22.7898 1.16664 21.5398 0 20.0398 0C18.5398 0 17.2898 1.16664 17.2064 2.75C14.2064 2.75 11.873 5.16664 11.873 8.08336H28.2065C28.2065 5.08336 25.7898 2.75 22.8731 2.75Z" fill="#415A6B"/>
<path d="M20.0397 3.66531C20.5459 3.66531 20.9563 3.25492 20.9563 2.74867C20.9563 2.24243 20.5459 1.83203 20.0397 1.83203C19.5334 1.83203 19.123 2.24243 19.123 2.74867C19.123 3.25492 19.5334 3.66531 20.0397 3.66531Z" fill="white"/>
<path d="M13.123 17.0842C13.0396 17.1675 12.873 17.2508 12.7063 17.3342C12.4563 17.4175 12.2063 17.3342 12.0397 17.0842L10.1231 15.1675C9.78971 14.8342 9.78971 14.3342 10.1231 14.0842C10.4564 13.7508 10.9564 13.7508 11.2064 14.0842L12.3731 15.1675C13.2063 13.7508 14.2063 12.5008 15.5396 11.5008C15.873 11.2508 16.373 11.3342 16.623 11.6675C16.873 12.0008 16.7896 12.5008 16.4563 12.7508C15.123 13.8342 14.0397 15.1675 13.2897 16.7508C13.2896 16.9175 13.2063 17.0008 13.123 17.0842Z" fill="#F3705A"/>
<path d="M30.123 12.082H18.373V13.2487H30.123V12.082Z" fill="#E8EAE9"/>
<path d="M24.4564 15.332H18.373V16.4987H24.4564V15.332Z" fill="#E8EAE9"/>
<path d="M13.123 25.1649C13.0396 25.2482 12.873 25.3315 12.7063 25.4149C12.4563 25.4982 12.2063 25.4149 12.0397 25.1649L10.1231 23.3315C9.78971 22.9982 9.78971 22.4982 10.1231 22.2482C10.4564 21.9148 10.9564 21.9148 11.2064 22.2482L12.3731 23.3315C13.2064 21.9149 14.2064 20.6649 15.5397 19.6649C15.8731 19.4149 16.3731 19.4982 16.6231 19.8315C16.8731 20.1648 16.7897 20.6649 16.4564 20.9149C15.1231 21.9982 14.0398 23.3315 13.2898 24.9149C13.2896 24.9982 13.2063 25.0816 13.123 25.1649Z" fill="#66C6B9"/>
<path d="M30.123 20.25H18.373V21.4166H30.123V20.25Z" fill="#E8EAE9"/>
<path d="M24.4564 23.5H18.373V24.6666H24.4564V23.5Z" fill="#E8EAE9"/>
<path d="M13.123 33.3342C13.0396 33.4175 12.873 33.5008 12.7063 33.5842C12.4563 33.6675 12.2063 33.5842 12.0397 33.3342L10.1231 31.4175C9.78971 31.0842 9.78971 30.5842 10.1231 30.3342C10.4564 30.0008 10.9564 30.0008 11.2064 30.3342L12.3731 31.4175C13.2063 30.0008 14.2063 28.7508 15.5396 27.7508C15.873 27.5008 16.373 27.5842 16.623 27.9175C16.873 28.2508 16.7896 28.7508 16.4563 29.0008C15.123 30.0842 14.0397 31.4175 13.2897 33.0008C13.2896 33.1675 13.2063 33.2508 13.123 33.3342Z" fill="#F3705A"/>
<path d="M30.123 28.332H18.373V29.4987H30.123V28.332Z" fill="#E8EAE9"/>
<path d="M24.4564 31.582H18.373V32.7487H24.4564V31.582Z" fill="#E8EAE9"/>
</svg>
