<svg width="40" height="40" viewBox="0 0 40 40" fill="none" xmlns="http://www.w3.org/2000/svg">
<path fill-rule="evenodd" clip-rule="evenodd" d="M9.03027 14.5781H35.7357V36.4055C18.2887 36.4055 26.4771 36.4055 9.03027 36.4055V14.5781Z" fill="#ECEFF1"/>
<path fill-rule="evenodd" clip-rule="evenodd" d="M34.3242 14.5781H35.7351V36.4056H34.3242V14.5781Z" fill="#D1D1D6"/>
<path fill-rule="evenodd" clip-rule="evenodd" d="M15.6201 22.7656H29.1451V36.2788H15.6201V22.7656Z" fill="#D8ECFE"/>
<path fill-rule="evenodd" clip-rule="evenodd" d="M15.6201 23.1406H16.87V35.757H15.6201V23.1406Z" fill="#C4E2FF"/>
<path fill-rule="evenodd" clip-rule="evenodd" d="M22.3828 23.1406H28.2559V35.757H22.3828V23.1406Z" fill="#C4E2FF"/>
<path fill-rule="evenodd" clip-rule="evenodd" d="M27.8955 23.1406H29.1454V35.757H27.8955V23.1406Z" fill="#ADD5FA"/>
<path fill-rule="evenodd" clip-rule="evenodd" d="M15.3623 21.9688H29.4029C29.6607 21.9688 29.8717 22.1797 29.8717 22.4375V23.2669C29.8717 23.5247 29.6608 23.7356 29.4029 23.7356H15.3623C15.1045 23.7356 14.8936 23.5247 14.8936 23.2669V22.4375C14.8936 22.1796 15.1045 21.9688 15.3623 21.9688Z" fill="#8AC9FE"/>
<path fill-rule="evenodd" clip-rule="evenodd" d="M29.0904 21.9688H29.4029C29.6607 21.9688 29.8717 22.1797 29.8717 22.4375V23.2669C29.8717 23.5247 29.6608 23.7356 29.4029 23.7356H15.3623C15.1045 23.7356 14.8936 23.5247 14.8936 23.2669V22.9543H28.6216C28.8794 22.9543 29.0904 22.7434 29.0904 22.4855V21.9688Z" fill="#60B7FF"/>
<path fill-rule="evenodd" clip-rule="evenodd" d="M11.8181 10.2931H32.8132C33.414 10.2931 33.9057 9.80148 33.9057 9.20062V4.155C33.9057 3.55406 33.414 3.0625 32.8132 3.0625H11.8181C11.2172 3.0625 10.7256 3.55414 10.7256 4.155V9.20062C10.7256 9.80141 11.2171 10.2931 11.8181 10.2931Z" fill="#8AC9FE"/>
<path fill-rule="evenodd" clip-rule="evenodd" d="M31.4023 10.2931H32.8132C33.4141 10.2931 33.9057 9.80148 33.9057 9.20062V4.155C33.9057 3.55406 33.4141 3.0625 32.8132 3.0625H31.4023C32.0032 3.0625 32.4948 3.55414 32.4948 4.155V9.20062C32.4948 9.80148 32.0032 10.2931 31.4023 10.2931Z" fill="#60B7FF"/>
<path fill-rule="evenodd" clip-rule="evenodd" d="M6.29297 15.1263L10.7263 7.79047C10.8429 7.5975 11.0591 7.48438 11.3114 7.48438H33.4558C33.708 7.48438 33.9243 7.5975 34.0409 7.79047L38.4742 15.1263C38.4742 17.0432 36.6733 18.5971 34.4516 18.5971C32.2298 18.5971 30.4289 17.0432 30.4289 15.1263C30.4289 17.0432 28.628 18.5971 26.4063 18.5971C24.1845 18.5971 22.3836 17.0432 22.3836 15.1263C22.3836 17.0432 20.5827 18.5971 18.3609 18.5971C16.1392 18.5971 14.3383 17.0432 14.3383 15.1263C14.3383 17.0432 12.5373 18.5971 10.3156 18.5971C8.09383 18.5971 6.29297 17.0432 6.29297 15.1263Z" fill="#FFE177"/>
<path fill-rule="evenodd" clip-rule="evenodd" d="M10.3146 18.5958C12.5364 18.5958 14.3373 17.0419 14.3373 15.125H9.02996H6.29199C6.29199 16.6543 7.43824 17.9525 9.02996 18.415C9.43332 18.5323 9.86535 18.5958 10.3146 18.5958ZM22.3826 15.125C22.3826 17.0419 24.1836 18.5958 26.4053 18.5958C28.627 18.5958 30.4279 17.0419 30.4279 15.125H22.3826Z" fill="#FFD064"/>
<path fill-rule="evenodd" clip-rule="evenodd" d="M38.4738 15.1264L34.0405 7.79055C33.9238 7.59758 33.7076 7.48445 33.4553 7.48445H28.0942L30.4284 15.1265C30.4284 17.0434 32.2294 18.5973 34.4511 18.5973C34.9003 18.5973 35.3323 18.5337 35.7358 18.4165C37.3275 17.9539 38.4738 16.6557 38.4738 15.1264ZM18.3605 18.5972C20.5823 18.5972 22.3832 17.0433 22.3832 15.1264V7.48438H16.6721L14.3379 15.1264C14.3378 17.0433 16.1388 18.5972 18.3605 18.5972Z" fill="#FE646F"/>
<path fill-rule="evenodd" clip-rule="evenodd" d="M30.4285 15.125C30.4285 17.0419 32.2295 18.5958 34.4512 18.5958C34.9004 18.5958 35.3324 18.5323 35.7359 18.415C37.3276 17.9525 38.4738 16.6543 38.4738 15.125H30.4285ZM18.3605 18.5958C20.5823 18.5958 22.3832 17.0419 22.3832 15.125H14.3379C14.3378 17.0419 16.1388 18.5958 18.3605 18.5958Z" fill="#FD4755"/>
<path fill-rule="evenodd" clip-rule="evenodd" d="M6.34652 33.9414H38.4194C38.6011 33.9414 38.7493 34.0896 38.7493 34.2713V36.5907C38.7493 36.7724 38.6011 36.9206 38.4194 36.9206H6.34652C6.1648 36.9206 6.0166 36.7724 6.0166 36.5907V34.2713C6.0166 34.0896 6.1648 33.9414 6.34652 33.9414Z" fill="#9FACBA"/>
<path fill-rule="evenodd" clip-rule="evenodd" d="M38.0439 33.9414H38.4194C38.6011 33.9414 38.7493 34.0896 38.7493 34.2713V36.5907C38.7493 36.7724 38.6011 36.9206 38.4194 36.9206H6.34652C6.1648 36.9206 6.0166 36.7724 6.0166 36.5907V36.2152H37.714C37.8957 36.2152 38.0439 36.067 38.0439 35.8853V33.9414Z" fill="#8D9CA8"/>
<path fill-rule="evenodd" clip-rule="evenodd" d="M14.273 24.8373L13.147 29.8734C13.0806 30.1738 12.8142 30.3784 12.5187 30.378V30.3805H4.73782C4.40962 30.3805 4.13852 30.1356 4.09735 29.8187L2.73501 23.7261C2.65837 23.3791 2.87751 23.0357 3.22454 22.9591C3.2711 22.9488 3.31751 22.9439 3.36329 22.9438V22.9414H12.7546C12.8478 22.9414 12.9528 22.9541 13.0652 22.9792C13.3463 23.0421 13.6516 23.1941 13.8862 23.432C14.1391 23.6884 14.3165 24.0372 14.3165 24.4744C14.3165 24.5838 14.3027 24.7045 14.273 24.8373Z" fill="#FFE177"/>
<path fill-rule="evenodd" clip-rule="evenodd" d="M14.2726 24.8373L13.1466 29.8734C13.0803 30.1738 12.8139 30.3784 12.5183 30.378V30.3805H11.4697V30.378C11.7653 30.3784 12.0316 30.1738 12.098 29.8734L13.2241 24.8373C13.2538 24.7045 13.2675 24.5838 13.2675 24.4744C13.2675 24.0372 13.0903 23.6884 12.8372 23.432C12.6025 23.1941 12.2974 23.0421 12.0163 22.9792C11.9056 22.9545 11.8021 22.9418 11.71 22.9414H12.7542C12.8474 22.9414 12.9524 22.9541 13.0648 22.9792C13.3459 23.0421 13.6511 23.1941 13.8857 23.432C14.1387 23.6884 14.3161 24.0372 14.3161 24.4744C14.3161 24.5838 14.3024 24.7045 14.2726 24.8373Z" fill="#FFD064"/>
<path fill-rule="evenodd" clip-rule="evenodd" d="M6.15 31.422C6.91016 31.422 7.52656 32.0384 7.52656 32.7986C7.52656 33.5588 6.91016 34.1751 6.15 34.1751C5.38984 34.1751 4.77344 33.5587 4.77344 32.7986C4.77352 32.0384 5.38984 31.422 6.15 31.422ZM11.8987 31.4219C12.659 31.4219 13.2754 32.0383 13.2754 32.7985C13.2754 33.5587 12.6589 34.1752 11.8987 34.1752C11.1385 34.1752 10.5221 33.5588 10.5221 32.7985C10.5221 32.0384 11.1385 31.4219 11.8987 31.4219Z" fill="#9FACBA"/>
</svg>
