<svg width="40" height="40" viewBox="0 0 40 40" fill="none" xmlns="http://www.w3.org/2000/svg">
<path d="M33.6229 4.08203H6.4563C5.03966 4.08203 3.9563 5.16539 3.9563 6.58203V37.4987C3.9563 38.9153 5.03966 39.9987 6.4563 39.9987H33.5397C34.9563 39.9987 36.0397 38.9153 36.0397 37.4987V6.58203C36.1229 5.24867 34.9563 4.08203 33.6229 4.08203Z" fill="#FFD15C"/>
<path d="M32.7057 7.41797H7.28906V36.5846H32.7057V7.41797Z" fill="white"/>
<path d="M22.8729 2.75C22.7895 1.16664 21.5395 0 20.0395 0C18.5395 0 17.2895 1.16664 17.2062 2.75C14.2062 2.75 11.8728 5.16664 11.8728 8.08336H28.2062C28.2062 5.08336 25.7895 2.75 22.8729 2.75Z" fill="#415A6B"/>
<path d="M20.0396 3.66531C20.5458 3.66531 20.9562 3.25492 20.9562 2.74867C20.9562 2.24243 20.5458 1.83203 20.0396 1.83203C19.5333 1.83203 19.1229 2.24243 19.1229 2.74867C19.1229 3.25492 19.5333 3.66531 20.0396 3.66531Z" fill="white"/>
<path d="M13.1229 17.0842C13.0395 17.1675 12.8729 17.2508 12.7062 17.3342C12.4562 17.4175 12.2062 17.3342 12.0396 17.0842L10.1229 15.1675C9.78958 14.8342 9.78958 14.3342 10.1229 14.0842C10.4563 13.7508 10.9563 13.7508 11.2063 14.0842L12.3729 15.1675C13.2062 13.7508 14.2062 12.5008 15.5395 11.5008C15.8729 11.2508 16.3729 11.3342 16.6229 11.6675C16.8729 12.0008 16.7895 12.5008 16.4562 12.7508C15.1229 13.8342 14.0396 15.1675 13.2896 16.7508C13.2895 16.9175 13.2062 17.0008 13.1229 17.0842Z" fill="#F3705A"/>
<path d="M30.1229 12.082H18.3729V13.2487H30.1229V12.082Z" fill="#E8EAE9"/>
<path d="M24.4563 15.332H18.3729V16.4987H24.4563V15.332Z" fill="#E8EAE9"/>
<path d="M13.1229 25.1649C13.0395 25.2482 12.8729 25.3315 12.7062 25.4149C12.4562 25.4982 12.2062 25.4149 12.0396 25.1649L10.1229 23.3315C9.78958 22.9982 9.78958 22.4982 10.1229 22.2482C10.4563 21.9148 10.9563 21.9148 11.2063 22.2482L12.3729 23.3315C13.2063 21.9149 14.2063 20.6649 15.5396 19.6649C15.8729 19.4149 16.3729 19.4982 16.6229 19.8315C16.8729 20.1648 16.7896 20.6649 16.4563 20.9149C15.1229 21.9982 14.0397 23.3315 13.2897 24.9149C13.2895 24.9982 13.2062 25.0816 13.1229 25.1649Z" fill="#66C6B9"/>
<path d="M30.1229 20.25H18.3729V21.4166H30.1229V20.25Z" fill="#E8EAE9"/>
<path d="M24.4562 23.5H18.3729V24.6666H24.4562V23.5Z" fill="#E8EAE9"/>
<path d="M13.1229 33.3342C13.0395 33.4175 12.8729 33.5008 12.7062 33.5842C12.4562 33.6675 12.2062 33.5842 12.0396 33.3342L10.1229 31.4175C9.78958 31.0842 9.78958 30.5842 10.1229 30.3342C10.4563 30.0008 10.9563 30.0008 11.2063 30.3342L12.3729 31.4175C13.2062 30.0008 14.2062 28.7508 15.5395 27.7508C15.8729 27.5008 16.3729 27.5842 16.6229 27.9175C16.8729 28.2508 16.7895 28.7508 16.4562 29.0008C15.1229 30.0842 14.0396 31.4175 13.2896 33.0008C13.2895 33.1675 13.2062 33.2508 13.1229 33.3342Z" fill="#F3705A"/>
<path d="M30.1229 28.332H18.3729V29.4987H30.1229V28.332Z" fill="#E8EAE9"/>
<path d="M24.4563 31.582H18.3729V32.7487H24.4563V31.582Z" fill="#E8EAE9"/>
</svg>
