<svg width="186" height="141" viewBox="0 0 186 141" fill="none" xmlns="http://www.w3.org/2000/svg">
<path d="M85.1745 141C119.411 141 147.166 113.245 147.166 79.0084C147.166 44.7714 119.411 17.0168 85.1745 17.0168C50.9374 17.0168 23.1829 44.7714 23.1829 79.0084C23.1829 113.245 50.9374 141 85.1745 141Z" fill="#62DBFB"/>
<path d="M53.1685 40.4587C53.8622 39.5594 54.9544 39.0225 56.0903 39.0225H154.729L142.039 2.53509C141.355 0.566544 139.204 -0.474026 137.235 0.210328L46.7923 31.6651C45.6874 32.0494 44.8232 32.9243 44.4525 34.0338L34.012 65.2926L53.1685 40.4587Z" fill="#05E39C"/>
<path d="M64.2049 39.0225L65.0867 36.3827C65.4574 35.2732 66.3215 34.3982 67.4265 34.014L143.755 7.46822L142.039 2.53509C141.355 0.566544 139.204 -0.474026 137.236 0.210328L46.7923 31.6651C45.6874 32.0494 44.8232 32.9243 44.4525 34.0338L34.012 65.2926L53.1685 40.4587C53.8622 39.5594 54.9544 39.0225 56.0902 39.0225H64.2049Z" fill="#0ED290"/>
<path d="M142.44 39.0225C142.455 38.7321 142.464 38.44 142.464 38.1459C142.464 29.1395 135.163 21.8383 126.156 21.8383C117.15 21.8383 109.849 29.1395 109.849 38.1459C109.849 38.44 109.857 38.7321 109.873 39.0225H142.44Z" fill="#FED402"/>
<path d="M118.95 39.0225C118.935 38.7321 118.924 38.4403 118.924 38.1459C118.924 30.7147 123.896 24.4492 130.694 22.4829C129.253 22.066 127.732 21.8383 126.156 21.8383C117.15 21.8383 109.849 29.1395 109.849 38.1459C109.849 38.44 109.857 38.7321 109.873 39.0225H118.95Z" fill="#FAC600"/>
<path d="M180.822 38.7388H51.8005C50.2245 38.7388 48.7374 39.4326 47.7746 40.6172L18.3943 76.7727H43.6537C45.4543 76.7727 46.9197 78.1634 46.9197 79.8731C46.9197 81.5827 45.4543 82.9734 43.6537 82.9734H18.3943L47.7746 119.129C48.7374 120.314 50.2245 121.007 51.8005 121.007H180.822C183.63 121.007 185.906 118.846 185.906 116.181V43.5653C185.907 40.8997 183.63 38.7388 180.822 38.7388Z" fill="#FD5426"/>
<path d="M75.305 119.129L45.8009 82.8211C45.6956 82.6916 45.6006 82.5569 45.5109 82.4201C44.9829 82.768 44.3435 82.9733 43.6537 82.9733H18.3943L47.7746 119.129C48.7374 120.314 50.2245 121.007 51.8006 121.007H79.3309C77.7549 121.007 76.2677 120.314 75.305 119.129Z" fill="#EF4424"/>
<path d="M43.6537 76.7727C44.3435 76.7727 44.9833 76.978 45.5109 77.326C45.6006 77.1892 45.6956 77.0545 45.8009 76.925L75.305 40.6172C76.2677 39.4326 77.7549 38.7388 79.3309 38.7388H51.8006C50.2245 38.7388 48.7374 39.4326 47.7746 40.6172L18.3943 76.7727H43.6537Z" fill="#EF4424"/>
<path d="M45.1771 66.5065C38.5253 66.5065 32.9545 70.8862 31.4812 76.7727H43.6536C45.4543 76.7727 46.9197 78.1634 46.9197 79.8731C46.9197 81.5827 45.4543 82.9734 43.6536 82.9734H31.4812C32.9545 88.8599 38.5253 93.2397 45.1771 93.2397C52.9538 93.2397 59.2579 87.2553 59.2579 79.8731C59.2579 72.4908 52.9538 66.5065 45.1771 66.5065Z" fill="#D73D24"/>
<path d="M45.1771 73.7407C42.8023 73.7407 40.7328 74.9608 39.6104 76.7728H43.6537C45.4543 76.7728 46.9197 78.1635 46.9197 79.8731C46.9197 81.5828 45.4543 82.9735 43.6537 82.9735H39.6104C40.7328 84.7855 42.8027 86.0056 45.1771 86.0056C48.745 86.0056 51.6373 83.2601 51.6373 79.8731C51.6373 76.4862 48.745 73.7407 45.1771 73.7407Z" fill="#01D0FB"/>
<path d="M43.6536 76.4283H0.186525C0.138261 77.5717 0.106689 78.7188 0.106689 79.8732C0.106689 81.0275 0.137898 82.1747 0.186525 83.318H43.6536C45.6578 83.318 47.2825 81.7754 47.2825 79.8732C47.2825 77.9709 45.6578 76.4283 43.6536 76.4283Z" fill="#FAC600"/>
<path d="M44.3446 76.4924C44.3653 76.6408 44.3794 76.791 44.3794 76.945C44.3794 78.8473 42.7548 80.3898 40.7505 80.3898H0.113281C0.120902 81.3695 0.145216 82.3458 0.186585 83.3179H43.6536C45.6579 83.3179 47.2825 81.7754 47.2825 79.8731C47.2825 78.1951 46.0179 76.799 44.3446 76.4924Z" fill="#E8B800"/>
</svg>
