<svg width="72" height="32" viewBox="0 0 58 26" fill="none" xmlns="http://www.w3.org/2000/svg">
<path d="M10.1227 10.0903H0.00012207V17.1806C0.00012207 18.8752 0.378927 20.369 1.13654 21.6622C1.91176 22.9554 2.98651 23.9662 4.36078 24.6946C5.75267 25.4229 7.38241 25.7871 9.25001 25.7871C11.1352 25.7871 12.765 25.4229 14.1392 24.6946C15.5135 23.9662 16.5794 22.9554 17.337 21.6622C18.1123 20.369 18.4999 18.8752 18.4999 17.1806V10.0903H16.855L14.9849 13.7123V17.0023C14.9849 18.0428 14.7471 18.9421 14.2714 19.7001C13.8133 20.4731 13.1526 21.0677 12.2893 21.4839C11.4436 21.9149 10.4305 22.1305 9.25001 22.1305C8.08716 22.1305 7.07408 21.9149 6.21076 21.4839C5.34744 21.0677 4.67792 20.4731 4.20221 19.7001C3.74412 18.9421 3.51508 18.0428 3.51508 17.0023V13.7024L8.25776 13.7024L10.1227 10.0903Z" fill="white"/>
<path d="M10.1227 10.0903H0.00012207V17.1806C0.00012207 18.8752 0.378927 20.369 1.13654 21.6622C1.91176 22.9554 2.98651 23.9662 4.36078 24.6946C5.75267 25.4229 7.38241 25.7871 9.25001 25.7871C11.1352 25.7871 12.765 25.4229 14.1392 24.6946C15.5135 23.9662 16.5794 22.9554 17.337 21.6622C18.1123 20.369 18.4999 18.8752 18.4999 17.1806V10.0903H16.855L14.9849 13.7123V17.0023C14.9849 18.0428 14.7471 18.9421 14.2714 19.7001C13.8133 20.4731 13.1526 21.0677 12.2893 21.4839C11.4436 21.9149 10.4305 22.1305 9.25001 22.1305C8.08716 22.1305 7.07408 21.9149 6.21076 21.4839C5.34744 21.0677 4.67792 20.4731 4.20221 19.7001C3.74412 18.9421 3.51508 18.0428 3.51508 17.0023V13.7024L8.25776 13.7024L10.1227 10.0903Z" fill="#E75634"/>
<path d="M8.78396 19.6916C7.95765 19.2674 7.63167 18.2537 8.05586 17.4274L14.3647 5.13795C14.7889 4.31164 15.8026 3.98566 16.6289 4.40985C17.4552 4.83404 17.7812 5.84778 17.357 6.67409L11.0482 18.9635C10.624 19.7898 9.61027 20.1158 8.78396 19.6916Z" fill="white"/>
<path d="M8.78396 19.6916C7.95765 19.2674 7.63167 18.2537 8.05586 17.4274L14.3647 5.13795C14.7889 4.31164 15.8026 3.98566 16.6289 4.40985C17.4552 4.83404 17.7812 5.84778 17.357 6.67409L11.0482 18.9635C10.624 19.7898 9.61027 20.1158 8.78396 19.6916Z" fill="#37582A"/>
<path d="M19.4832 1.6818C19.4832 2.61063 18.7302 3.36359 17.8014 3.36359C16.8725 3.36359 16.1196 2.61063 16.1196 1.6818C16.1196 0.752966 16.8725 0 17.8014 0C18.7302 0 19.4832 0.752966 19.4832 1.6818Z" fill="white"/>
<path d="M19.4832 1.6818C19.4832 2.61063 18.7302 3.36359 17.8014 3.36359C16.8725 3.36359 16.1196 2.61063 16.1196 1.6818C16.1196 0.752966 16.8725 0 17.8014 0C18.7302 0 19.4832 0.752966 19.4832 1.6818Z" fill="#37582A"/>
<path d="M45.834 11.3489C45.834 10.8294 46.1533 10.5696 46.7919 10.5696C47.4305 10.5696 47.7498 10.8294 47.7498 11.3489V22.5517C47.7498 22.9305 47.5496 23.2065 47.1491 23.3797H47.1653C46.9921 23.4555 46.8081 23.515 46.6133 23.5583C46.4185 23.6016 46.2291 23.6232 46.045 23.6232C45.9043 23.6232 45.7582 23.607 45.6067 23.5745C45.4551 23.5529 45.309 23.515 45.1683 23.4609C45.0384 23.3959 44.9139 23.3148 44.7949 23.2173C44.6866 23.1091 44.6001 22.9792 44.5351 22.8277L41.0119 14.0441L40.5736 14.0928V22.8602C40.5736 23.3797 40.2488 23.6395 39.5994 23.6395C38.9608 23.6395 38.6415 23.3797 38.6415 22.8602V11.6736C38.6415 11.2298 38.8363 10.9322 39.226 10.7806C39.5832 10.6399 39.962 10.5696 40.3625 10.5696C40.6439 10.5696 40.9253 10.6291 41.2068 10.7482C41.499 10.8564 41.7209 11.0675 41.8724 11.3814L45.3794 20.1812L45.834 20.1325V11.3489Z" fill="#107649"/>
<path d="M51.2074 23.5583C50.8069 23.5583 50.5363 23.4555 50.3956 23.2498C50.2549 23.0442 50.1846 22.8169 50.1846 22.5679V11.6249C50.1846 11.376 50.2549 11.1541 50.3956 10.9592C50.5363 10.7536 50.8069 10.6508 51.2074 10.6508H56.8575C57.258 10.6508 57.4691 10.9214 57.4907 11.4626C57.5124 12.0146 57.3013 12.2906 56.8575 12.2906H52.1004V21.9185H57.1498C57.5502 21.9185 57.7559 22.1837 57.7667 22.714C57.7884 23.2769 57.5827 23.5583 57.1498 23.5583H51.2074ZM56.2568 16.8366C56.2568 17.2155 56.1215 17.5348 55.8509 17.7946C55.5911 18.0543 55.2718 18.1842 54.893 18.1842C54.525 18.1842 54.2111 18.0543 53.9513 17.7946C53.6915 17.5348 53.5616 17.2155 53.5616 16.8366C53.5616 16.4578 53.6915 16.1385 53.9513 15.8787C54.2111 15.6189 54.525 15.4891 54.893 15.4891C55.2718 15.4891 55.5911 15.6189 55.8509 15.8787C56.1215 16.1385 56.2568 16.4578 56.2568 16.8366Z" fill="#107649"/>
<path d="M35.5308 17.0476C35.5308 20.082 33.0709 22.5419 30.0365 22.5419C27.002 22.5419 24.5421 20.082 24.5421 17.0476C24.5421 14.0131 27.002 11.5532 30.0365 11.5532C33.0709 11.5532 35.5308 14.0131 35.5308 17.0476Z" fill="white" stroke="#107649" stroke-width="2"/>
<path d="M33.2837 17.0477C33.2837 18.8411 31.8299 20.2949 30.0365 20.2949C28.2431 20.2949 26.7893 18.8411 26.7893 17.0477C26.7893 15.2543 28.2431 13.8005 30.0365 13.8005C31.8299 13.8005 33.2837 15.2543 33.2837 17.0477Z" fill="#107649"/>
</svg>
