<svg width="43" height="57" viewBox="0 0 43 57" fill="none" xmlns="http://www.w3.org/2000/svg">
<g clip-path="url(#clip0_5781_115643)">
<path d="M30.6119 27.7487L12.6031 22.031C12.328 21.9437 12.1141 21.7261 12.0314 21.4496C10.7616 17.2108 12.7074 10.4503 13.0095 9.45094C13.021 9.41167 13.0331 9.3721 13.0455 9.33289C13.1912 8.87418 13.6807 8.62001 14.1397 8.76479L14.1415 8.76534C14.5993 8.9107 14.8538 9.39921 14.7101 9.85782C14.7083 9.86342 14.6929 9.91261 14.6672 10.0003C13.9892 12.3899 15.3332 14.9106 17.717 15.6675C20.1471 16.439 22.7519 15.0897 23.5234 12.6596C23.6693 12.2002 24.16 11.9462 24.6192 12.0919L26.5296 12.6985C26.989 12.8443 27.2431 13.3349 27.0972 13.7942C26.3257 16.2244 27.6752 18.8292 30.1054 19.6007C32.4914 20.3582 35.0457 19.0714 35.8679 16.7242C35.8959 16.6415 35.9111 16.5951 35.9128 16.5898C36.06 16.132 36.5495 15.8797 37.0075 16.0252L37.009 16.0256C37.4675 16.1721 37.7208 16.6622 37.5751 17.1209C37.5626 17.1603 37.5497 17.1994 37.5367 17.2384C37.2068 18.2287 34.8964 24.8737 31.4143 27.6038C31.1873 27.7817 30.8869 27.836 30.6119 27.7487Z" fill="#FFF780"/>
<path d="M37.009 16.0258C37.0086 16.0257 37.0082 16.0256 37.0075 16.0253C36.5497 15.88 36.06 16.1322 35.9128 16.5897C35.9111 16.5953 35.8961 16.6418 35.8679 16.7244C35.0457 19.0714 32.4914 20.3584 30.1054 19.6009C27.6752 18.8293 26.3259 16.2246 27.0974 13.7945C27.2433 13.3351 26.989 12.8445 26.5298 12.6988L25.5747 12.3955L21.6078 24.8899L30.612 27.7487C30.8872 27.836 31.1874 27.7817 31.4144 27.6038C34.8967 24.8738 37.2071 18.2288 37.5367 17.2384C37.55 17.1996 37.5629 17.1603 37.5754 17.1211C37.7208 16.6624 37.4675 16.1723 37.009 16.0258Z" fill="#FFC02E"/>
<path d="M26.4755 9.55751C24.9938 9.08708 23.4056 9.90983 22.9352 11.3915C22.4647 12.8732 23.2876 14.4612 24.7693 14.9317C26.251 15.4021 27.8391 14.5796 28.3095 13.0979C28.78 11.6162 27.9572 10.0279 26.4755 9.55751Z" fill="#FFC02E"/>
<path d="M26.4756 9.55762L24.7693 14.932C26.251 15.4022 27.839 14.5796 28.3094 13.0979C28.7798 11.6162 27.957 10.0282 26.4756 9.55762Z" fill="#FFA73B"/>
<path d="M14.384 8.00136C12.9023 7.53093 11.314 8.35368 10.8436 9.83538C10.3732 11.3171 11.1959 12.9053 12.6776 13.3757C14.1593 13.8462 15.7473 13.0233 16.2178 11.5416C16.6882 10.0599 15.8657 8.47179 14.384 8.00136Z" fill="#FFC02E"/>
<path d="M37.25 15.2613C35.7683 14.7909 34.1803 15.6137 33.7098 17.0954C33.2395 18.5769 34.062 20.165 35.5437 20.6355C37.0254 21.1059 38.6136 20.2831 39.084 18.8016C39.5544 17.3199 38.7317 15.7317 37.25 15.2613Z" fill="#FFA73B"/>
<path d="M29.7458 30.4771L11.737 24.7594C11.2776 24.6136 11.0235 24.1231 11.1694 23.6637L11.9568 21.1836L31.6289 27.4294L30.8415 29.9095C30.6957 30.3688 30.2051 30.623 29.7458 30.4771Z" fill="#FFC02E"/>
<path d="M20.7415 27.6184L29.7457 30.4772C30.205 30.623 30.6956 30.3689 30.8414 29.9096L31.6288 27.4295L21.793 24.3066L20.7415 27.6184Z" fill="#FFA73B"/>
</g>
<path d="M15.9999 56.9999C24.8365 56.9999 31.9999 49.8365 31.9999 40.9999C31.9999 32.1634 24.8365 25 15.9999 25C7.16342 25 0 32.1634 0 40.9999C0 49.8365 7.16342 56.9999 15.9999 56.9999Z" fill="url(#paint0_linear_5781_115643)"/>
<path d="M31.9999 41C31.9999 49.8374 24.8374 56.9999 15.9999 56.9999C13.3628 57.0017 10.7662 56.3509 8.44167 55.1055C6.11713 53.8602 4.13688 52.0589 2.67749 49.8624C11.8293 49.7237 15.4668 44.1999 15.4668 44.1999C20.6737 36.325 27.038 34.6444 30.5655 34.3706C31.5145 36.4516 32.0037 38.7128 31.9999 41Z" fill="url(#paint1_linear_5781_115643)"/>
<path d="M30.2294 48.326C28.8932 50.9187 26.8739 53.097 24.3898 54.6256C21.9057 56.1542 19.0512 56.975 16.1345 56.9993C13.2179 57.0236 10.35 56.2505 7.84076 54.7636C5.3315 53.2766 3.27623 51.1323 1.89697 48.5623C5.14696 49.3998 10.7219 50.2673 14.4869 47.7554C14.4869 47.7554 24.105 40.5235 30.2294 48.326Z" fill="url(#paint2_linear_5781_115643)"/>
<path d="M15.7419 39.765C17.6445 39.765 19.1869 38.2226 19.1869 36.32C19.1869 34.4174 17.6445 32.875 15.7419 32.875C13.8392 32.875 12.2969 34.4174 12.2969 36.32C12.2969 38.2226 13.8392 39.765 15.7419 39.765Z" fill="white"/>
<path d="M16 41.0862C14.3934 41.0862 12.8526 41.7244 11.7165 42.8603C10.5804 43.9963 9.94206 45.5371 9.94189 47.1437C9.94189 47.6691 10.1506 48.1731 10.5222 48.5446C10.8937 48.9162 11.3977 49.1249 11.9231 49.1249H20.0769C20.6023 49.1249 21.1063 48.9162 21.4778 48.5446C21.8494 48.1731 22.0581 47.6691 22.0581 47.1437C22.0579 45.5371 21.4196 43.9963 20.2835 42.8603C19.1474 41.7244 17.6066 41.0862 16 41.0862Z" fill="white"/>
<defs>
<linearGradient id="paint0_linear_5781_115643" x1="8.32747" y1="27.755" x2="23.5781" y2="54.0812" gradientUnits="userSpaceOnUse">
<stop stop-color="#FAAD5F"/>
<stop offset="0.09" stop-color="#FBA659"/>
<stop offset="0.69" stop-color="#FE7E35"/>
<stop offset="1" stop-color="#FF6F27"/>
</linearGradient>
<linearGradient id="paint1_linear_5781_115643" x1="10.9018" y1="55.598" x2="26.2737" y2="38.7125" gradientUnits="userSpaceOnUse">
<stop stop-color="#FF6F27"/>
<stop offset="1" stop-color="#FF5E1F"/>
</linearGradient>
<linearGradient id="paint2_linear_5781_115643" x1="9.16945" y1="55.1447" x2="21.8332" y2="44.251" gradientUnits="userSpaceOnUse">
<stop stop-color="#FF6B2C"/>
<stop offset="1" stop-color="#FF2D0F"/>
</linearGradient>
<clipPath id="clip0_5781_115643">
<rect width="29.6296" height="29.6296" fill="white" transform="translate(13.9663) rotate(17.6143)"/>
</clipPath>
</defs>
</svg>
