<svg width="237" height="237" viewBox="0 0 237 237" fill="none" xmlns="http://www.w3.org/2000/svg">
<circle opacity="0.1" cx="118.5" cy="118.5" r="102.7" fill="url(#paint0_radial_4316_47376)" fill-opacity="0.3"/>
<circle cx="118.5" cy="118.5" r="88.875" fill="url(#paint1_radial_4316_47376)" fill-opacity="0.3"/>
<circle opacity="0.1" cx="118.5" cy="118.5" r="118.5" fill="url(#paint2_radial_4316_47376)" fill-opacity="0.1"/>
<circle cx="118.5" cy="118.5" r="64.0778" fill="#D9D9D9"/>
<circle cx="118.5" cy="118.5" r="64.0778" fill="url(#paint3_radial_4316_47376)"/>
<path d="M85.0296 93.5721C85.6053 92.8259 86.5115 92.3804 87.4541 92.3804H169.303L158.773 62.1036C158.205 60.4701 156.421 59.6067 154.787 60.1745L79.7388 86.2753C78.8219 86.5942 78.1048 87.3202 77.7973 88.2408L69.1338 114.179L85.0296 93.5721Z" fill="#05E39C"/>
<path d="M94.1875 92.3804L94.9192 90.1899C95.2268 89.2692 95.9439 88.5432 96.8607 88.2243L160.197 66.197L158.774 62.1036C158.206 60.4701 156.421 59.6067 154.788 60.1745L79.7388 86.2753C78.8219 86.5942 78.1048 87.3202 77.7973 88.2408L69.1338 114.179L85.0296 93.5721C85.6053 92.8259 86.5115 92.3804 87.4541 92.3804H94.1875Z" fill="#0ED290"/>
<path d="M159.106 92.3804C159.119 92.1394 159.126 91.897 159.126 91.653C159.126 84.1796 153.068 78.1211 145.594 78.1211C138.121 78.1211 132.062 84.1796 132.062 91.653C132.062 91.897 132.07 92.1394 132.083 92.3804H159.106Z" fill="#FED402"/>
<path d="M139.615 92.3804C139.602 92.1394 139.593 91.8973 139.593 91.653C139.593 85.4867 143.719 80.2876 149.36 78.656C148.164 78.3101 146.902 78.1211 145.594 78.1211C138.121 78.1211 132.062 84.1796 132.062 91.653C132.062 91.897 132.07 92.1394 132.083 92.3804H139.615Z" fill="#FAC600"/>
<path d="M190.956 92.1445H83.8949C82.5871 92.1445 81.3531 92.7202 80.5542 93.7033L56.1748 123.705H77.1347C78.6289 123.705 79.8448 124.859 79.8448 126.277C79.8448 127.696 78.6289 128.85 77.1347 128.85H56.1748L80.5542 158.851C81.3531 159.834 82.5871 160.41 83.8949 160.41H190.955C193.285 160.41 195.174 158.617 195.174 156.405V96.1495C195.175 93.9377 193.286 92.1445 190.956 92.1445Z" fill="#FD5426"/>
<path d="M103.399 158.851L78.9164 128.723C78.8291 128.616 78.7502 128.504 78.6758 128.391C78.2377 128.679 77.7071 128.85 77.1347 128.85H56.1748L80.5543 158.851C81.3531 159.834 82.5871 160.41 83.8949 160.41H106.739C105.431 160.41 104.197 159.834 103.399 158.851Z" fill="#EF4424"/>
<path d="M77.1347 123.705C77.7071 123.705 78.238 123.875 78.6758 124.164C78.7502 124.05 78.8291 123.938 78.9164 123.831L103.399 93.7033C104.197 92.7202 105.431 92.1445 106.739 92.1445H83.8949C82.5871 92.1445 81.3531 92.7202 80.5543 93.7033L56.1748 123.705H77.1347Z" fill="#EF4424"/>
<path d="M78.3988 115.186C72.8793 115.186 68.2567 118.82 67.0342 123.704H77.1347C78.6289 123.704 79.8448 124.858 79.8448 126.277C79.8448 127.696 78.6289 128.85 77.1347 128.85H67.0342C68.2567 133.734 72.8793 137.369 78.3988 137.369C84.8519 137.369 90.083 132.403 90.083 126.277C90.083 120.151 84.8519 115.186 78.3988 115.186Z" fill="#D73D24"/>
<path d="M78.3985 121.189C76.428 121.189 74.7107 122.201 73.7793 123.705H77.1344C78.6286 123.705 79.8445 124.859 79.8445 126.277C79.8445 127.696 78.6286 128.85 77.1344 128.85H73.7793C74.7107 130.353 76.4283 131.366 78.3985 131.366C81.3591 131.366 83.7591 129.088 83.7591 126.277C83.7591 123.467 81.3591 121.189 78.3985 121.189Z" fill="#01D0FB"/>
<path d="M77.1346 123.419H41.0662C41.0262 124.368 41 125.32 41 126.277C41 127.235 41.0259 128.187 41.0662 129.136H77.1346C78.7977 129.136 80.1459 127.856 80.1459 126.277C80.1459 124.699 78.7977 123.419 77.1346 123.419Z" fill="#FAC600"/>
<path d="M77.7084 123.472C77.7256 123.595 77.7373 123.72 77.7373 123.847C77.7373 125.426 76.3892 126.706 74.7261 126.706H41.0059C41.0122 127.519 41.0324 128.329 41.0667 129.136H77.1351C78.7982 129.136 80.1463 127.856 80.1463 126.277C80.1463 124.885 79.0969 123.726 77.7084 123.472Z" fill="#E8B800"/>
<path d="M106.205 107.104C105.511 107.104 104.848 107 104.216 106.792C103.583 106.575 103.085 106.298 102.721 105.96L103.202 104.946C103.548 105.249 103.99 105.501 104.528 105.7C105.065 105.899 105.624 105.999 106.205 105.999C106.733 105.999 107.162 105.938 107.492 105.817C107.821 105.696 108.064 105.531 108.22 105.323C108.376 105.106 108.454 104.864 108.454 104.595C108.454 104.283 108.35 104.032 108.142 103.841C107.942 103.65 107.678 103.499 107.349 103.386C107.028 103.265 106.673 103.161 106.283 103.074C105.893 102.987 105.498 102.888 105.1 102.775C104.71 102.654 104.35 102.502 104.021 102.32C103.7 102.138 103.44 101.895 103.241 101.592C103.041 101.28 102.942 100.881 102.942 100.396C102.942 99.928 103.063 99.499 103.306 99.109C103.557 98.7103 103.938 98.394 104.45 98.16C104.97 97.9173 105.628 97.796 106.426 97.796C106.954 97.796 107.479 97.8653 107.999 98.004C108.519 98.1427 108.969 98.342 109.35 98.602L108.922 99.642C108.532 99.382 108.12 99.1957 107.687 99.083C107.253 98.9617 106.833 98.901 106.426 98.901C105.914 98.901 105.494 98.966 105.165 99.096C104.835 99.226 104.593 99.3993 104.437 99.616C104.289 99.8327 104.216 100.075 104.216 100.344C104.216 100.665 104.315 100.92 104.515 101.111C104.723 101.302 104.987 101.453 105.308 101.566C105.637 101.679 105.997 101.783 106.387 101.878C106.777 101.965 107.167 102.064 107.557 102.177C107.955 102.29 108.315 102.437 108.636 102.619C108.965 102.801 109.229 103.044 109.429 103.347C109.628 103.65 109.728 104.04 109.728 104.517C109.728 104.976 109.602 105.405 109.35 105.804C109.099 106.194 108.709 106.51 108.181 106.753C107.661 106.987 107.002 107.104 106.205 107.104ZM113.811 107.078C113.117 107.078 112.58 106.892 112.199 106.519C111.817 106.146 111.627 105.613 111.627 104.92V98.602H112.875V104.868C112.875 105.241 112.966 105.527 113.148 105.726C113.338 105.925 113.607 106.025 113.954 106.025C114.344 106.025 114.669 105.917 114.929 105.7L115.319 106.597C115.128 106.762 114.898 106.883 114.63 106.961C114.37 107.039 114.097 107.078 113.811 107.078ZM110.457 101.137V100.11H114.851V101.137H110.457ZM121.105 107V105.544L121.04 105.271V102.788C121.04 102.259 120.884 101.852 120.572 101.566C120.268 101.271 119.809 101.124 119.194 101.124C118.786 101.124 118.388 101.193 117.998 101.332C117.608 101.462 117.278 101.64 117.01 101.865L116.49 100.929C116.845 100.643 117.27 100.426 117.764 100.279C118.266 100.123 118.791 100.045 119.337 100.045C120.281 100.045 121.009 100.275 121.521 100.734C122.032 101.193 122.288 101.895 122.288 102.84V107H121.105ZM118.843 107.078C118.331 107.078 117.881 106.991 117.491 106.818C117.109 106.645 116.815 106.406 116.607 106.103C116.399 105.791 116.295 105.44 116.295 105.05C116.295 104.677 116.381 104.339 116.555 104.036C116.737 103.733 117.027 103.49 117.426 103.308C117.833 103.126 118.379 103.035 119.064 103.035H121.248V103.932H119.116C118.492 103.932 118.071 104.036 117.855 104.244C117.638 104.452 117.53 104.703 117.53 104.998C117.53 105.336 117.664 105.609 117.933 105.817C118.201 106.016 118.574 106.116 119.051 106.116C119.519 106.116 119.926 106.012 120.273 105.804C120.628 105.596 120.884 105.293 121.04 104.894L121.287 105.752C121.122 106.159 120.832 106.484 120.416 106.727C120 106.961 119.475 107.078 118.843 107.078ZM124.597 107V100.11H125.793V101.982L125.676 101.514C125.867 101.037 126.187 100.673 126.638 100.422C127.089 100.171 127.643 100.045 128.302 100.045V101.254C128.25 101.245 128.198 101.241 128.146 101.241C128.103 101.241 128.059 101.241 128.016 101.241C127.349 101.241 126.82 101.44 126.43 101.839C126.04 102.238 125.845 102.814 125.845 103.568V107H124.597ZM132.486 107.078C131.792 107.078 131.255 106.892 130.874 106.519C130.492 106.146 130.302 105.613 130.302 104.92V98.602H131.55V104.868C131.55 105.241 131.641 105.527 131.823 105.726C132.013 105.925 132.282 106.025 132.629 106.025C133.019 106.025 133.344 105.917 133.604 105.7L133.994 106.597C133.803 106.762 133.573 106.883 133.305 106.961C133.045 107.039 132.772 107.078 132.486 107.078ZM129.132 101.137V100.11H133.526V101.137H129.132ZM135.502 107V100.11H136.75V107H135.502ZM136.126 98.784C135.884 98.784 135.68 98.706 135.515 98.55C135.359 98.394 135.281 98.2033 135.281 97.978C135.281 97.744 135.359 97.549 135.515 97.393C135.68 97.237 135.884 97.159 136.126 97.159C136.369 97.159 136.568 97.237 136.724 97.393C136.889 97.5403 136.971 97.7267 136.971 97.952C136.971 98.186 136.893 98.3853 136.737 98.55C136.581 98.706 136.378 98.784 136.126 98.784ZM142.812 100.045C143.376 100.045 143.87 100.153 144.294 100.37C144.728 100.587 145.066 100.916 145.308 101.358C145.551 101.8 145.672 102.359 145.672 103.035V107H144.424V103.178C144.424 102.511 144.26 102.008 143.93 101.67C143.61 101.332 143.155 101.163 142.565 101.163C142.123 101.163 141.738 101.25 141.408 101.423C141.079 101.596 140.823 101.852 140.641 102.19C140.468 102.528 140.381 102.948 140.381 103.451V107H139.133V100.11H140.329V101.969L140.134 101.475C140.36 101.024 140.706 100.673 141.174 100.422C141.642 100.171 142.188 100.045 142.812 100.045ZM150.998 109.6C150.365 109.6 149.75 109.509 149.152 109.327C148.562 109.154 148.081 108.902 147.709 108.573L148.307 107.611C148.627 107.888 149.022 108.105 149.49 108.261C149.958 108.426 150.447 108.508 150.959 108.508C151.773 108.508 152.371 108.317 152.753 107.936C153.134 107.555 153.325 106.974 153.325 106.194V104.738L153.455 103.373L153.39 101.995V100.11H154.573V106.064C154.573 107.277 154.269 108.17 153.663 108.742C153.056 109.314 152.168 109.6 150.998 109.6ZM150.842 106.714C150.174 106.714 149.576 106.575 149.048 106.298C148.528 106.012 148.112 105.618 147.8 105.115C147.496 104.612 147.345 104.032 147.345 103.373C147.345 102.706 147.496 102.125 147.8 101.631C148.112 101.128 148.528 100.738 149.048 100.461C149.576 100.184 150.174 100.045 150.842 100.045C151.431 100.045 151.968 100.166 152.454 100.409C152.939 100.643 153.325 101.007 153.611 101.501C153.905 101.995 154.053 102.619 154.053 103.373C154.053 104.118 153.905 104.738 153.611 105.232C153.325 105.726 152.939 106.099 152.454 106.35C151.968 106.593 151.431 106.714 150.842 106.714ZM150.985 105.622C151.444 105.622 151.851 105.527 152.207 105.336C152.562 105.145 152.839 104.881 153.039 104.543C153.247 104.205 153.351 103.815 153.351 103.373C153.351 102.931 153.247 102.541 153.039 102.203C152.839 101.865 152.562 101.605 152.207 101.423C151.851 101.232 151.444 101.137 150.985 101.137C150.525 101.137 150.114 101.232 149.75 101.423C149.394 101.605 149.113 101.865 148.905 102.203C148.705 102.541 148.606 102.931 148.606 103.373C148.606 103.815 148.705 104.205 148.905 104.543C149.113 104.881 149.394 105.145 149.75 105.336C150.114 105.527 150.525 105.622 150.985 105.622ZM160.631 107V99.499C160.631 98.823 160.826 98.2857 161.216 97.887C161.614 97.4797 162.178 97.276 162.906 97.276C163.174 97.276 163.43 97.3107 163.673 97.38C163.924 97.4407 164.136 97.5403 164.31 97.679L163.933 98.628C163.803 98.524 163.655 98.446 163.491 98.394C163.326 98.3333 163.153 98.303 162.971 98.303C162.607 98.303 162.329 98.407 162.139 98.615C161.948 98.8143 161.853 99.1133 161.853 99.512V100.435L161.879 101.007V107H160.631ZM159.461 101.137V100.11H163.855V101.137H159.461ZM165.032 107V100.11H166.228V101.982L166.111 101.514C166.301 101.037 166.622 100.673 167.073 100.422C167.523 100.171 168.078 100.045 168.737 100.045V101.254C168.685 101.245 168.633 101.241 168.581 101.241C168.537 101.241 168.494 101.241 168.451 101.241C167.783 101.241 167.255 101.44 166.865 101.839C166.475 102.238 166.28 102.814 166.28 103.568V107H165.032ZM173.162 107.078C172.469 107.078 171.854 106.926 171.316 106.623C170.779 106.32 170.354 105.904 170.042 105.375C169.73 104.838 169.574 104.231 169.574 103.555C169.574 102.87 169.73 102.264 170.042 101.735C170.354 101.206 170.779 100.795 171.316 100.5C171.854 100.197 172.469 100.045 173.162 100.045C173.847 100.045 174.458 100.197 174.995 100.5C175.541 100.795 175.966 101.206 176.269 101.735C176.581 102.255 176.737 102.862 176.737 103.555C176.737 104.24 176.581 104.846 176.269 105.375C175.966 105.904 175.541 106.32 174.995 106.623C174.458 106.926 173.847 107.078 173.162 107.078ZM173.162 105.986C173.604 105.986 173.999 105.886 174.345 105.687C174.701 105.488 174.978 105.206 175.177 104.842C175.377 104.469 175.476 104.04 175.476 103.555C175.476 103.061 175.377 102.636 175.177 102.281C174.978 101.917 174.701 101.635 174.345 101.436C173.999 101.237 173.604 101.137 173.162 101.137C172.72 101.137 172.326 101.237 171.979 101.436C171.633 101.635 171.355 101.917 171.147 102.281C170.939 102.636 170.835 103.061 170.835 103.555C170.835 104.04 170.939 104.469 171.147 104.842C171.355 105.206 171.633 105.488 171.979 105.687C172.326 105.886 172.72 105.986 173.162 105.986ZM187.082 100.045C187.637 100.045 188.127 100.153 188.551 100.37C188.976 100.587 189.305 100.916 189.539 101.358C189.782 101.8 189.903 102.359 189.903 103.035V107H188.655V103.178C188.655 102.511 188.499 102.008 188.187 101.67C187.875 101.332 187.438 101.163 186.874 101.163C186.458 101.163 186.094 101.25 185.782 101.423C185.47 101.596 185.228 101.852 185.054 102.19C184.89 102.528 184.807 102.948 184.807 103.451V107H183.559V103.178C183.559 102.511 183.403 102.008 183.091 101.67C182.788 101.332 182.35 101.163 181.778 101.163C181.371 101.163 181.011 101.25 180.699 101.423C180.387 101.596 180.145 101.852 179.971 102.19C179.798 102.528 179.711 102.948 179.711 103.451V107H178.463V100.11H179.659V101.943L179.464 101.475C179.681 101.024 180.015 100.673 180.465 100.422C180.916 100.171 181.44 100.045 182.038 100.045C182.697 100.045 183.265 100.21 183.741 100.539C184.218 100.86 184.53 101.349 184.677 102.008L184.17 101.8C184.378 101.271 184.742 100.847 185.262 100.526C185.782 100.205 186.389 100.045 187.082 100.045Z" fill="white"/>
<path d="M103.553 154V146.499C103.553 145.823 103.748 145.286 104.138 144.887C104.536 144.48 105.1 144.276 105.828 144.276C106.096 144.276 106.352 144.311 106.595 144.38C106.846 144.441 107.058 144.54 107.232 144.679L106.855 145.628C106.725 145.524 106.577 145.446 106.413 145.394C106.248 145.333 106.075 145.303 105.893 145.303C105.529 145.303 105.251 145.407 105.061 145.615C104.87 145.814 104.775 146.113 104.775 146.512V147.435L104.801 148.007V154H103.553ZM102.383 148.137V147.11H106.777V148.137H102.383ZM110.803 154.078C110.11 154.078 109.494 153.926 108.957 153.623C108.42 153.32 107.995 152.904 107.683 152.375C107.371 151.838 107.215 151.231 107.215 150.555C107.215 149.87 107.371 149.264 107.683 148.735C107.995 148.206 108.42 147.795 108.957 147.5C109.494 147.197 110.11 147.045 110.803 147.045C111.488 147.045 112.099 147.197 112.636 147.5C113.182 147.795 113.607 148.206 113.91 148.735C114.222 149.255 114.378 149.862 114.378 150.555C114.378 151.24 114.222 151.846 113.91 152.375C113.607 152.904 113.182 153.32 112.636 153.623C112.099 153.926 111.488 154.078 110.803 154.078ZM110.803 152.986C111.245 152.986 111.639 152.886 111.986 152.687C112.341 152.488 112.619 152.206 112.818 151.842C113.017 151.469 113.117 151.04 113.117 150.555C113.117 150.061 113.017 149.636 112.818 149.281C112.619 148.917 112.341 148.635 111.986 148.436C111.639 148.237 111.245 148.137 110.803 148.137C110.361 148.137 109.967 148.237 109.62 148.436C109.273 148.635 108.996 148.917 108.788 149.281C108.58 149.636 108.476 150.061 108.476 150.555C108.476 151.04 108.58 151.469 108.788 151.842C108.996 152.206 109.273 152.488 109.62 152.687C109.967 152.886 110.361 152.986 110.803 152.986ZM116.104 154V147.11H117.3V148.982L117.183 148.514C117.374 148.037 117.694 147.673 118.145 147.422C118.596 147.171 119.15 147.045 119.809 147.045V148.254C119.757 148.245 119.705 148.241 119.653 148.241C119.61 148.241 119.566 148.241 119.523 148.241C118.856 148.241 118.327 148.44 117.937 148.839C117.547 149.238 117.352 149.814 117.352 150.568V154H116.104ZM128.19 154.104C127.384 154.104 126.695 153.926 126.123 153.571C125.551 153.216 125.113 152.704 124.81 152.037C124.515 151.361 124.368 150.538 124.368 149.567C124.368 148.536 124.55 147.665 124.914 146.954C125.278 146.243 125.785 145.706 126.435 145.342C127.085 144.978 127.83 144.796 128.671 144.796C129.104 144.796 129.516 144.839 129.906 144.926C130.305 145.013 130.647 145.147 130.933 145.329L130.439 146.343C130.205 146.178 129.936 146.066 129.633 146.005C129.338 145.944 129.026 145.914 128.697 145.914C127.77 145.914 127.033 146.204 126.487 146.785C125.941 147.357 125.668 148.211 125.668 149.346C125.668 149.528 125.677 149.745 125.694 149.996C125.711 150.247 125.755 150.494 125.824 150.737L125.382 150.295C125.512 149.896 125.716 149.563 125.993 149.294C126.279 149.017 126.617 148.813 127.007 148.683C127.406 148.544 127.835 148.475 128.294 148.475C128.901 148.475 129.438 148.588 129.906 148.813C130.374 149.038 130.742 149.359 131.011 149.775C131.28 150.182 131.414 150.668 131.414 151.231C131.414 151.812 131.271 152.319 130.985 152.752C130.699 153.185 130.313 153.519 129.828 153.753C129.343 153.987 128.797 154.104 128.19 154.104ZM128.138 153.051C128.537 153.051 128.883 152.977 129.178 152.83C129.481 152.683 129.72 152.479 129.893 152.219C130.066 151.95 130.153 151.638 130.153 151.283C130.153 150.746 129.967 150.321 129.594 150.009C129.221 149.688 128.714 149.528 128.073 149.528C127.657 149.528 127.293 149.606 126.981 149.762C126.669 149.918 126.422 150.13 126.24 150.399C126.067 150.659 125.98 150.958 125.98 151.296C125.98 151.608 126.062 151.898 126.227 152.167C126.392 152.427 126.634 152.639 126.955 152.804C127.276 152.969 127.67 153.051 128.138 153.051ZM145.061 147.045C145.615 147.045 146.105 147.153 146.53 147.37C146.954 147.587 147.284 147.916 147.518 148.358C147.76 148.8 147.882 149.359 147.882 150.035V154H146.634V150.178C146.634 149.511 146.478 149.008 146.166 148.67C145.854 148.332 145.416 148.163 144.853 148.163C144.437 148.163 144.073 148.25 143.761 148.423C143.449 148.596 143.206 148.852 143.033 149.19C142.868 149.528 142.786 149.948 142.786 150.451V154H141.538V150.178C141.538 149.511 141.382 149.008 141.07 148.67C140.766 148.332 140.329 148.163 139.757 148.163C139.349 148.163 138.99 148.25 138.678 148.423C138.366 148.596 138.123 148.852 137.95 149.19C137.776 149.528 137.69 149.948 137.69 150.451V154H136.442V147.11H137.638V148.943L137.443 148.475C137.659 148.024 137.993 147.673 138.444 147.422C138.894 147.171 139.419 147.045 140.017 147.045C140.675 147.045 141.243 147.21 141.72 147.539C142.196 147.86 142.508 148.349 142.656 149.008L142.149 148.8C142.357 148.271 142.721 147.847 143.241 147.526C143.761 147.205 144.367 147.045 145.061 147.045ZM153.129 154.078C152.436 154.078 151.82 153.926 151.283 153.623C150.746 153.32 150.321 152.904 150.009 152.375C149.697 151.838 149.541 151.231 149.541 150.555C149.541 149.87 149.697 149.264 150.009 148.735C150.321 148.206 150.746 147.795 151.283 147.5C151.82 147.197 152.436 147.045 153.129 147.045C153.814 147.045 154.425 147.197 154.962 147.5C155.508 147.795 155.933 148.206 156.236 148.735C156.548 149.255 156.704 149.862 156.704 150.555C156.704 151.24 156.548 151.846 156.236 152.375C155.933 152.904 155.508 153.32 154.962 153.623C154.425 153.926 153.814 154.078 153.129 154.078ZM153.129 152.986C153.571 152.986 153.965 152.886 154.312 152.687C154.667 152.488 154.945 152.206 155.144 151.842C155.343 151.469 155.443 151.04 155.443 150.555C155.443 150.061 155.343 149.636 155.144 149.281C154.945 148.917 154.667 148.635 154.312 148.436C153.965 148.237 153.571 148.137 153.129 148.137C152.687 148.137 152.293 148.237 151.946 148.436C151.599 148.635 151.322 148.917 151.114 149.281C150.906 149.636 150.802 150.061 150.802 150.555C150.802 151.04 150.906 151.469 151.114 151.842C151.322 152.206 151.599 152.488 151.946 152.687C152.293 152.886 152.687 152.986 153.129 152.986ZM162.109 147.045C162.672 147.045 163.166 147.153 163.591 147.37C164.024 147.587 164.362 147.916 164.605 148.358C164.848 148.8 164.969 149.359 164.969 150.035V154H163.721V150.178C163.721 149.511 163.556 149.008 163.227 148.67C162.906 148.332 162.451 148.163 161.862 148.163C161.42 148.163 161.034 148.25 160.705 148.423C160.376 148.596 160.12 148.852 159.938 149.19C159.765 149.528 159.678 149.948 159.678 150.451V154H158.43V147.11H159.626V148.969L159.431 148.475C159.656 148.024 160.003 147.673 160.471 147.422C160.939 147.171 161.485 147.045 162.109 147.045ZM169.645 154.078C168.951 154.078 168.414 153.892 168.033 153.519C167.651 153.146 167.461 152.613 167.461 151.92V145.602H168.709V151.868C168.709 152.241 168.8 152.527 168.982 152.726C169.172 152.925 169.441 153.025 169.788 153.025C170.178 153.025 170.503 152.917 170.763 152.7L171.153 153.597C170.962 153.762 170.732 153.883 170.464 153.961C170.204 154.039 169.931 154.078 169.645 154.078ZM166.291 148.137V147.11H170.685V148.137H166.291ZM176.341 147.045C176.904 147.045 177.398 147.153 177.823 147.37C178.256 147.587 178.594 147.916 178.837 148.358C179.079 148.8 179.201 149.359 179.201 150.035V154H177.953V150.178C177.953 149.511 177.788 149.008 177.459 148.67C177.138 148.332 176.683 148.163 176.094 148.163C175.652 148.163 175.266 148.25 174.937 148.423C174.607 148.596 174.352 148.852 174.17 149.19C173.996 149.528 173.91 149.948 173.91 150.451V154H172.662V144.354H173.91V148.969L173.663 148.475C173.888 148.024 174.235 147.673 174.703 147.422C175.171 147.171 175.717 147.045 176.341 147.045ZM183.486 154.078C182.914 154.078 182.368 154 181.848 153.844C181.337 153.688 180.934 153.497 180.639 153.272L181.159 152.284C181.454 152.483 181.818 152.652 182.251 152.791C182.684 152.93 183.126 152.999 183.577 152.999C184.158 152.999 184.574 152.917 184.825 152.752C185.085 152.587 185.215 152.358 185.215 152.063C185.215 151.846 185.137 151.677 184.981 151.556C184.825 151.435 184.617 151.344 184.357 151.283C184.106 151.222 183.824 151.17 183.512 151.127C183.2 151.075 182.888 151.014 182.576 150.945C182.264 150.867 181.978 150.763 181.718 150.633C181.458 150.494 181.25 150.308 181.094 150.074C180.938 149.831 180.86 149.511 180.86 149.112C180.86 148.696 180.977 148.332 181.211 148.02C181.445 147.708 181.774 147.47 182.199 147.305C182.632 147.132 183.144 147.045 183.733 147.045C184.184 147.045 184.639 147.101 185.098 147.214C185.566 147.318 185.947 147.47 186.242 147.669L185.709 148.657C185.397 148.449 185.072 148.306 184.734 148.228C184.396 148.15 184.058 148.111 183.72 148.111C183.174 148.111 182.767 148.202 182.498 148.384C182.229 148.557 182.095 148.783 182.095 149.06C182.095 149.294 182.173 149.476 182.329 149.606C182.494 149.727 182.702 149.823 182.953 149.892C183.213 149.961 183.499 150.022 183.811 150.074C184.123 150.117 184.435 150.178 184.747 150.256C185.059 150.325 185.341 150.425 185.592 150.555C185.852 150.685 186.06 150.867 186.216 151.101C186.381 151.335 186.463 151.647 186.463 152.037C186.463 152.453 186.342 152.813 186.099 153.116C185.856 153.419 185.514 153.658 185.072 153.831C184.63 153.996 184.101 154.078 183.486 154.078Z" fill="white"/>
<path d="M103.692 127.256V125.512H106.572C107.564 125.512 108.273 125.304 108.7 124.888C109.137 124.472 109.356 123.965 109.356 123.368C109.356 122.611 109.116 122.013 108.636 121.576C108.166 121.128 107.43 120.909 106.428 120.92H102.748V119.8H112.94V120.92H108.908L109.484 120.328C110.198 120.637 110.705 121.075 111.003 121.64C111.302 122.195 111.452 122.803 111.452 123.464C111.452 124.253 111.26 124.936 110.876 125.512C110.492 126.077 109.948 126.509 109.244 126.808C108.54 127.107 107.692 127.256 106.7 127.256H103.692ZM109.42 131L106.492 126.52H108.716L111.66 131H109.42ZM102.748 123.144V122.024H112.94V123.144H102.748ZM116.371 131V120.6L117.283 121.544H114.003V119.8H118.451V131H116.371ZM120.513 128.456V127.016L126.033 119.8H128.257L122.817 127.016L121.777 126.696H130.657V128.456H120.513ZM126.657 131V128.456L126.721 126.696V124.44H128.673V131H126.657ZM135.23 119.64C136.254 119.64 137.123 119.859 137.838 120.296C138.563 120.723 139.118 121.347 139.502 122.168C139.886 122.989 140.078 124.003 140.078 125.208C140.078 126.488 139.843 127.571 139.374 128.456C138.915 129.341 138.275 130.013 137.454 130.472C136.633 130.931 135.678 131.16 134.59 131.16C134.025 131.16 133.486 131.101 132.974 130.984C132.462 130.867 132.019 130.685 131.646 130.44L132.414 128.872C132.723 129.075 133.059 129.219 133.422 129.304C133.785 129.379 134.158 129.416 134.542 129.416C135.598 129.416 136.435 129.091 137.054 128.44C137.673 127.789 137.982 126.829 137.982 125.56C137.982 125.357 137.977 125.123 137.966 124.856C137.955 124.579 137.918 124.301 137.854 124.024L138.494 124.728C138.313 125.165 138.051 125.533 137.71 125.832C137.369 126.12 136.969 126.339 136.51 126.488C136.051 126.637 135.545 126.712 134.99 126.712C134.265 126.712 133.609 126.573 133.022 126.296C132.446 126.008 131.987 125.608 131.646 125.096C131.305 124.573 131.134 123.965 131.134 123.272C131.134 122.525 131.315 121.885 131.678 121.352C132.041 120.808 132.531 120.387 133.15 120.088C133.779 119.789 134.473 119.64 135.23 119.64ZM135.342 121.272C134.915 121.272 134.537 121.352 134.206 121.512C133.875 121.661 133.614 121.88 133.422 122.168C133.241 122.445 133.15 122.781 133.15 123.176C133.15 123.763 133.353 124.227 133.758 124.568C134.163 124.909 134.707 125.08 135.39 125.08C135.838 125.08 136.233 125 136.574 124.84C136.915 124.669 137.182 124.44 137.374 124.152C137.566 123.853 137.662 123.523 137.662 123.16C137.662 122.808 137.571 122.493 137.39 122.216C137.209 121.928 136.947 121.699 136.606 121.528C136.265 121.357 135.843 121.272 135.342 121.272Z" fill="white"/>
<defs>
<radialGradient id="paint0_radial_4316_47376" cx="0" cy="0" r="1" gradientUnits="userSpaceOnUse" gradientTransform="translate(77.3285 44.3744) scale(224.019 236.366)">
<stop stop-color="#CCF9FD"/>
<stop offset="0.2517" stop-color="#B4EDF2"/>
<stop offset="0.7817" stop-color="#75CED7"/>
<stop offset="1" stop-color="#5AC1CB"/>
</radialGradient>
<radialGradient id="paint1_radial_4316_47376" cx="0" cy="0" r="1" gradientUnits="userSpaceOnUse" gradientTransform="translate(82.871 54.353) scale(193.862 204.547)">
<stop stop-color="#CCF9FD"/>
<stop offset="0.2517" stop-color="#B4EDF2"/>
<stop offset="0.7817" stop-color="#75CED7"/>
<stop offset="1" stop-color="#5AC1CB"/>
</radialGradient>
<radialGradient id="paint2_radial_4316_47376" cx="0" cy="0" r="1" gradientUnits="userSpaceOnUse" gradientTransform="translate(70.9947 32.9706) scale(258.483 272.73)">
<stop stop-color="#CCF9FD"/>
<stop offset="0.2517" stop-color="#B4EDF2"/>
<stop offset="0.7817" stop-color="#75CED7"/>
<stop offset="1" stop-color="#5AC1CB"/>
</radialGradient>
<radialGradient id="paint3_radial_4316_47376" cx="0" cy="0" r="1" gradientUnits="userSpaceOnUse" gradientTransform="translate(92.8057 72.2581) scale(139.256 147.895)">
<stop stop-color="#CCF9FD"/>
<stop offset="0.2517" stop-color="#B4EDF2"/>
<stop offset="0.7817" stop-color="#75CED7"/>
<stop offset="1" stop-color="#5AC1CB"/>
</radialGradient>
</defs>
</svg>
