<svg width="157" height="156" viewBox="0 0 157 156" fill="none" xmlns="http://www.w3.org/2000/svg">
<path d="M141.23 57.0039H15.7695C7.53704 57.0039 0.863281 63.6777 0.863281 71.9102V140.23C0.863281 148.463 7.53704 155.137 15.7695 155.137H141.23C149.463 155.137 156.137 148.463 156.137 140.23V71.9102C156.137 63.6777 149.463 57.0039 141.23 57.0039Z" fill="#15CF74"/>
<path d="M156.137 71.9102V85.5742H0.863281V71.9102C0.863281 67.9568 2.43376 64.1653 5.22922 61.3698C8.02468 58.5744 11.8161 57.0039 15.7695 57.0039H141.23C145.184 57.0039 148.975 58.5744 151.771 61.3698C154.566 64.1653 156.137 67.9568 156.137 71.9102Z" fill="#37474F"/>
<path d="M41.2344 143.957C54.6122 143.957 65.457 133.112 65.457 119.734C65.457 106.357 54.6122 95.5117 41.2344 95.5117C27.8566 95.5117 17.0117 106.357 17.0117 119.734C17.0117 133.112 27.8566 143.957 41.2344 143.957Z" fill="#ECEFF1"/>
<path d="M41.2343 143.957C44.6961 143.96 48.118 143.219 51.2684 141.784C54.4189 140.349 57.2242 138.254 59.4944 135.641C58.1661 131.858 55.6958 128.581 52.4247 126.263C49.1537 123.945 45.2435 122.699 41.2343 122.699C37.2251 122.699 33.3148 123.945 30.0438 126.263C26.7728 128.581 24.3025 131.858 22.9741 135.641C25.2444 138.254 28.0497 140.349 31.2001 141.784C34.3505 143.219 37.7725 143.96 41.2343 143.957Z" fill="#E75634"/>
<path d="M41.2342 122.699C46.1483 122.699 50.132 118.716 50.132 113.802C50.132 108.887 46.1483 104.904 41.2342 104.904C36.3201 104.904 32.3364 108.887 32.3364 113.802C32.3364 118.716 36.3201 122.699 41.2342 122.699Z" fill="#E75634"/>
<path d="M138.125 106.07H95.8906C94.8616 106.07 94.0273 106.905 94.0273 107.934V112.902C94.0273 113.931 94.8616 114.766 95.8906 114.766H138.125C139.154 114.766 139.988 113.931 139.988 112.902V107.934C139.988 106.905 139.154 106.07 138.125 106.07Z" fill="white"/>
<path d="M138.125 124.703H95.8906C94.8616 124.703 94.0273 125.537 94.0273 126.566V131.535C94.0273 132.564 94.8616 133.398 95.8906 133.398H138.125C139.154 133.398 139.988 132.564 139.988 131.535V126.566C139.988 125.537 139.154 124.703 138.125 124.703Z" fill="white"/>
<path d="M145.742 1.35389C144.924 0.543284 143.819 0.088501 142.668 0.088501C141.516 0.088501 140.411 0.543284 139.593 1.35389L132.566 8.38094C131.764 9.1991 131.318 10.3006 131.324 11.4462C131.33 12.5917 131.787 13.6886 132.597 14.4986C133.408 15.3085 134.505 15.766 135.65 15.7716C136.796 15.7772 137.897 15.3305 138.715 14.5285L145.742 7.50147C146.553 6.68377 147.007 5.57902 147.007 4.42768C147.007 3.27634 146.553 2.17159 145.742 1.35389Z" fill="#FFC107"/>
<path d="M145.742 40.674L138.715 33.6507C137.897 32.8488 136.796 32.402 135.65 32.4076C134.505 32.4133 133.408 32.8707 132.597 33.6807C131.787 34.4906 131.33 35.5875 131.324 36.7331C131.318 37.8786 131.764 38.9801 132.566 39.7983L139.593 46.8254C139.995 47.2357 140.475 47.5623 141.004 47.7863C141.533 48.0102 142.102 48.127 142.676 48.1299C143.251 48.1328 143.82 48.0218 144.352 47.8033C144.883 47.5848 145.366 47.2631 145.772 46.8569C146.179 46.4506 146.501 45.9678 146.719 45.4364C146.938 44.9051 147.049 44.3356 147.046 43.761C147.043 43.1864 146.927 42.6181 146.703 42.0889C146.479 41.5596 146.152 41.08 145.742 40.6778V40.674Z" fill="#FFC107"/>
<path d="M11.2581 1.35389C12.076 0.543284 13.1809 0.088501 14.3325 0.088501C15.484 0.088501 16.589 0.543284 17.4069 1.35389L24.4339 8.38094C25.2357 9.1991 25.6822 10.3006 25.6764 11.4462C25.6705 12.5917 25.2128 13.6886 24.4027 14.4986C23.5926 15.3085 22.4956 15.766 21.3501 15.7716C20.2046 15.7772 19.1031 15.3305 18.2851 14.5285L11.2581 7.49775C10.4487 6.6802 9.99463 5.57625 9.99463 4.42582C9.99463 3.27538 10.4487 2.17143 11.2581 1.35389Z" fill="#FFC107"/>
<path d="M11.2581 40.674L18.2852 33.6507C19.1032 32.8488 20.2046 32.402 21.3502 32.4076C22.4957 32.4133 23.5927 32.8707 24.4028 33.6807C25.2129 34.4906 25.6706 35.5875 25.6765 36.7331C25.6823 37.8786 25.2358 38.9801 24.434 39.7983L17.407 46.8179C16.589 47.6199 15.4875 48.0666 14.342 48.061C13.1965 48.0554 12.0994 47.5979 11.2893 46.7879C10.4792 45.978 10.0215 44.8811 10.0157 43.7355C10.0098 42.59 10.4563 41.4885 11.2581 40.6703V40.674Z" fill="#FFC107"/>
<path d="M80.1077 73.5846L96.8002 77.1497C97.8562 77.3742 98.9475 77.3743 100.003 77.1499C101.059 76.9255 102.056 76.4815 102.93 75.8469C103.803 75.2123 104.533 74.4012 105.073 73.4662C105.612 72.5312 105.949 71.4932 106.062 70.4195L107.831 53.4425C107.943 52.3649 108.282 51.3231 108.825 50.3855L117.372 35.6122C117.912 34.6773 118.25 33.6394 118.363 32.5657C118.476 31.4921 118.362 30.4066 118.028 29.3798C117.694 28.3531 117.149 27.4079 116.426 26.6057C115.704 25.8034 114.821 25.162 113.834 24.7231L98.235 17.7955C97.2447 17.3557 96.3583 16.7119 95.6338 15.9061L84.2243 3.21715C83.5028 2.41384 82.6202 1.7714 81.634 1.33162C80.6478 0.891833 79.5801 0.664551 78.5003 0.664551C77.4205 0.664551 76.3528 0.891833 75.3667 1.33162C74.3805 1.7714 73.4979 2.41384 72.7763 3.21715L61.3668 15.9123C60.6424 16.7181 59.756 17.3619 58.7657 17.8017L43.1663 24.7231C42.1799 25.162 41.2969 25.8034 40.5744 26.6057C39.8519 27.4079 39.3062 28.3531 38.9726 29.3798C38.639 30.4066 38.525 31.4921 38.638 32.5657C38.751 33.6394 39.0885 34.6773 39.6286 35.6122L48.1761 50.3855C48.719 51.3231 49.0576 52.3649 49.1698 53.4425L50.9387 70.4195C51.0512 71.4932 51.3882 72.5312 51.9278 73.4662C52.4674 74.4012 53.1976 75.2123 54.0709 75.8469C54.9442 76.4815 55.9412 76.9255 56.9972 77.1499C58.0532 77.3743 59.1445 77.3742 60.2004 77.1497L76.893 73.5846C77.9526 73.3584 79.0481 73.3584 80.1077 73.5846Z" fill="#FFC107"/>
<path d="M96.831 16.9806L78.5 42.2219V0.663248C79.5801 0.659765 80.6487 0.885624 81.635 1.32589C82.6213 1.76616 83.5029 2.4108 84.2215 3.21718L95.6422 15.9024C95.9945 16.3075 96.3935 16.6694 96.831 16.9806Z" fill="#FFA000"/>
<path d="M48.8291 51.8587L78.5 42.2218L54.0761 75.8466C53.1986 75.2156 52.4647 74.4058 51.923 73.4706C51.3813 72.5353 51.044 71.4958 50.9334 70.4207L49.1757 53.4487C49.1203 52.9074 49.004 52.374 48.8291 51.8587Z" fill="#FFA000"/>
<path d="M78.5002 42.2218L38.9775 29.3714C39.3086 28.3466 39.8522 27.4033 40.573 26.6032C41.2937 25.803 42.1753 25.1641 43.16 24.7281L58.7718 17.8017C59.2626 17.573 59.7306 17.298 60.1693 16.9806L78.5002 42.2218Z" fill="#FFA000"/>
<path d="M102.924 75.8466C102.055 76.4859 101.06 76.9332 100.005 77.1587C98.9501 77.3843 97.8593 77.3828 96.8049 77.1546L80.1037 73.5883C79.5767 73.4752 79.039 73.4194 78.5 73.4218V42.2218L102.924 75.8466Z" fill="#FFA000"/>
<path d="M117.368 35.606L108.824 50.388C108.555 50.8553 108.336 51.35 108.171 51.8638L78.5 42.2219L118.023 29.3851C118.359 30.4094 118.475 31.4935 118.362 32.5658C118.249 33.6381 117.911 34.6742 117.368 35.606Z" fill="#FFA000"/>
</svg>
