<svg width="56" height="56" viewBox="0 0 56 56" fill="none" xmlns="http://www.w3.org/2000/svg">
<path d="M45.1368 6.96631H43.5778L27.9998 9.21983L12.4219 6.96631H10.6377C8.71398 6.96631 7.15454 5.40687 7.15454 3.48315C7.15443 1.55944 8.71398 0 10.6377 0H45.1368C47.0606 0 48.62 1.55944 48.62 3.48315C48.6201 5.40687 47.0606 6.96631 45.1368 6.96631Z" fill="#B98080"/>
<path d="M45.3622 0H41.9819C43.9057 0 45.4651 1.55944 45.4651 3.48315C45.4651 5.40687 43.9057 6.96631 41.9819 6.96631H45.3622C47.2859 6.96631 48.8454 5.40687 48.8454 3.48315C48.8455 1.55944 47.2859 0 45.3622 0Z" fill="#AE6C6C"/>
<path d="M43.3526 11.3389V6.96631H12.4221V11.3389C12.4221 18.122 16.7577 23.8917 22.8087 26.0299C23.6439 26.325 24.2023 27.1143 24.2023 27.9999C24.2023 28.8856 23.6439 29.6749 22.8087 29.9699C16.7578 32.1081 12.4221 37.8777 12.4221 44.6608V49.0335H43.3525V44.6608C43.3525 37.8777 39.0169 32.1081 32.9659 29.9699C32.1307 29.6748 31.5723 28.8855 31.5723 27.9999H31.7977C31.7977 27.1141 32.1307 26.325 32.9659 26.0299C39.0169 23.8918 43.3526 18.122 43.3526 11.3389Z" fill="#EFEDEF"/>
<path d="M12.4221 6.96631V9.17465H38.0334C39.2287 9.17465 40.1977 10.1437 40.1977 11.3389C40.1977 18.101 35.8889 23.8559 29.8674 26.0098C29.1224 26.2763 28.5525 26.9123 28.4395 27.6954C28.2945 28.7003 28.8813 29.6413 29.8111 29.9699C35.862 32.1081 40.1977 37.8779 40.1977 44.6608V49.0335H43.5779V44.6608C43.5779 37.8988 39.2692 32.1439 33.2477 29.99C32.5027 29.7235 31.9328 29.0874 31.8198 28.3043C31.6747 27.2995 32.2616 26.3584 33.1914 26.0299C39.2423 23.8917 43.5779 18.1219 43.5779 11.3389V9.17476V6.96631H12.4221Z" fill="#D7D0D6"/>
<path d="M45.1369 56H10.6377C8.71398 56 7.15454 54.4405 7.15454 52.5168C7.15454 50.5931 8.71398 49.0337 10.6377 49.0337H12.4221L28.0001 46.7802L43.578 49.0337H45.1371C47.0608 49.0337 48.6202 50.5931 48.6202 52.5168C48.6201 54.4405 47.0606 56 45.1369 56Z" fill="#B98080"/>
<path d="M45.3622 49.0337H41.9819C43.9057 49.0337 45.4651 50.5931 45.4651 52.5168C45.4651 54.4406 43.9057 56 41.9819 56H45.3622C47.2859 56 48.8454 54.4406 48.8454 52.5168C48.8455 50.5931 47.2859 49.0337 45.3622 49.0337Z" fill="#AE6C6C"/>
<path d="M35.5013 36.8132H33.8607C32.2107 36.8132 30.5777 35.6196 30.3079 33.992L29.6385 29.9545C29.2977 27.8995 30.8829 26.03 32.9659 26.03C37.0081 24.6017 40.2824 21.5514 42.0125 17.6624H13.762C15.492 21.5515 18.7663 24.6017 22.8086 26.03C24.8916 26.03 26.4768 27.8995 26.136 29.9545L25.4666 33.992C25.1968 35.6196 23.789 36.8132 22.1392 36.8132H20.2732C15.9719 36.8132 12.4456 40.2741 12.4223 44.5753C12.4222 44.6039 12.4221 44.6325 12.4221 44.6611V49.0337H43.3525V44.6611C43.3525 44.6325 43.3524 44.6039 43.3523 44.5753C43.3289 40.2741 39.8026 36.8132 35.5013 36.8132Z" fill="#FED402"/>
<path d="M43.5776 44.5753C43.5543 40.2741 40.0281 36.8132 35.7268 36.8132H33.8606C32.2107 36.8132 30.8031 35.6196 30.5332 33.992L29.8638 29.9545C29.5231 27.8995 31.1082 26.03 33.1912 26.03C37.2335 24.6017 40.5077 21.5514 42.2379 17.6624H38.8576C37.1276 21.5515 33.8532 24.6017 29.8109 26.03C27.7279 26.03 26.1428 27.8995 26.4835 29.9545L27.1529 33.992C27.4228 35.6196 28.8306 36.8132 30.4804 36.8132H32.3465C36.6478 36.8132 40.1741 40.2741 40.1973 44.5753C40.1974 44.6039 40.1975 44.6325 40.1975 44.6611V49.0337H43.5778V44.6611C43.5778 44.6325 43.5777 44.6039 43.5776 44.5753Z" fill="#FAC600"/>
</svg>
