<svg width="186" height="141" viewBox="0 0 186 141" fill="none" xmlns="http://www.w3.org/2000/svg">
<path d="M85.1742 140.999C119.411 140.999 147.166 113.244 147.166 79.0072C147.166 44.7702 119.411 17.0156 85.1742 17.0156C50.9372 17.0156 23.1826 44.7702 23.1826 79.0072C23.1826 113.244 50.9372 140.999 85.1742 140.999Z" fill="#62DBFB"/>
<path d="M53.1681 40.4587C53.8618 39.5594 54.954 39.0225 56.0899 39.0225H154.728L142.039 2.53509C141.354 0.566544 139.204 -0.474026 137.235 0.210328L46.792 31.6651C45.687 32.0494 44.8229 32.9243 44.4522 34.0338L34.0116 65.2926L53.1681 40.4587Z" fill="#05E39C"/>
<path d="M64.2046 39.0225L65.0863 36.3827C65.457 35.2732 66.3212 34.3982 67.4261 34.014L143.755 7.46822L142.039 2.53509C141.354 0.566544 139.204 -0.474026 137.235 0.210328L46.792 31.6651C45.687 32.0494 44.8229 32.9243 44.4522 34.0338L34.0116 65.2926L53.1681 40.4587C53.8618 39.5594 54.954 39.0225 56.0899 39.0225H64.2046Z" fill="#0ED290"/>
<path d="M142.44 39.0241C142.455 38.7337 142.464 38.4416 142.464 38.1475C142.464 29.1411 135.163 21.8398 126.156 21.8398C117.15 21.8398 109.849 29.1411 109.849 38.1475C109.849 38.4416 109.857 38.7337 109.873 39.0241H142.44Z" fill="#FED402"/>
<path d="M118.95 39.0241C118.935 38.7337 118.924 38.4419 118.924 38.1475C118.924 30.7163 123.896 24.4508 130.694 22.4845C129.253 22.0676 127.732 21.8398 126.156 21.8398C117.15 21.8398 109.849 29.1411 109.849 38.1475C109.849 38.4416 109.857 38.7337 109.873 39.0241H118.95Z" fill="#FAC600"/>
<path d="M180.822 38.7383H51.7998C50.2238 38.7383 48.7367 39.4321 47.7739 40.6167L18.3936 76.7722H43.6529C45.4536 76.7722 46.9189 78.1629 46.9189 79.8726C46.9189 81.5822 45.4536 82.9729 43.6529 82.9729H18.3936L47.7739 119.128C48.7367 120.313 50.2238 121.007 51.7998 121.007H180.821C183.629 121.007 185.906 118.846 185.906 116.18V43.5648C185.906 40.8992 183.63 38.7383 180.822 38.7383Z" fill="#FD5426"/>
<path d="M75.3043 119.127L45.8001 82.8189C45.6949 82.6894 45.5998 82.5547 45.5102 82.418C44.9822 82.7659 44.3428 82.9712 43.6529 82.9712H18.3936L47.7739 119.127C48.7367 120.311 50.2238 121.005 51.7998 121.005H79.3302C77.7541 121.005 76.267 120.311 75.3043 119.127Z" fill="#EF4424"/>
<path d="M43.6529 76.7722C44.3428 76.7722 44.9826 76.9775 45.5102 77.3255C45.5998 77.1887 45.6949 77.054 45.8001 76.9245L75.3043 40.6167C76.267 39.4321 77.7541 38.7383 79.3302 38.7383H51.7998C50.2238 38.7383 48.7367 39.4321 47.7739 40.6167L18.3936 76.7722H43.6529Z" fill="#EF4424"/>
<path d="M45.1763 66.5078C38.5245 66.5078 32.9538 70.8876 31.4805 76.7741H43.6529C45.4536 76.7741 46.9189 78.1648 46.9189 79.8744C46.9189 81.5841 45.4536 82.9748 43.6529 82.9748H31.4805C32.9538 88.8613 38.5245 93.241 45.1763 93.241C52.9531 93.241 59.2572 87.2567 59.2572 79.8744C59.2572 72.4922 52.9531 66.5078 45.1763 66.5078Z" fill="#D73D24"/>
<path d="M45.1761 73.7383C42.8014 73.7383 40.7318 74.9584 39.6094 76.7704H43.6527C45.4534 76.7704 46.9187 78.1611 46.9187 79.8708C46.9187 81.5804 45.4534 82.9711 43.6527 82.9711H39.6094C40.7318 84.7831 42.8017 86.0032 45.1761 86.0032C48.7441 86.0032 51.6363 83.2577 51.6363 79.8708C51.6363 76.4838 48.7441 73.7383 45.1761 73.7383Z" fill="#01D0FB"/>
<path d="M43.6533 76.4297H0.186281C0.138017 77.573 0.106445 78.7202 0.106445 79.8745C0.106445 81.0289 0.137654 82.176 0.186281 83.3193H43.6533C45.6576 83.3193 47.2822 81.7767 47.2822 79.8745C47.2822 77.9723 45.6576 76.4297 43.6533 76.4297Z" fill="#FAC600"/>
<path d="M44.3446 76.4922C44.3653 76.6407 44.3794 76.7909 44.3794 76.9448C44.3794 78.8471 42.7548 80.3897 40.7505 80.3897H0.113281C0.120902 81.3694 0.145216 82.3456 0.186585 83.3178H43.6536C45.6579 83.3178 47.2825 81.7752 47.2825 79.8729C47.2825 78.195 46.0179 76.7988 44.3446 76.4922Z" fill="#E8B800"/>
<path d="M82.326 59.112C81.5793 59.112 80.8653 59 80.184 58.776C79.5027 58.5427 78.966 58.244 78.574 57.88L79.092 56.788C79.4653 57.1147 79.9413 57.3853 80.52 57.6C81.0987 57.8147 81.7007 57.922 82.326 57.922C82.8953 57.922 83.3573 57.8567 83.712 57.726C84.0667 57.5953 84.328 57.418 84.496 57.194C84.664 56.9607 84.748 56.6993 84.748 56.41C84.748 56.074 84.636 55.8033 84.412 55.598C84.1973 55.3927 83.9127 55.2293 83.558 55.108C83.2127 54.9773 82.83 54.8653 82.41 54.772C81.99 54.6787 81.5653 54.5713 81.136 54.45C80.716 54.3193 80.3287 54.156 79.974 53.96C79.6287 53.764 79.3487 53.5027 79.134 53.176C78.9193 52.84 78.812 52.4107 78.812 51.888C78.812 51.384 78.9427 50.922 79.204 50.502C79.4747 50.0727 79.8853 49.732 80.436 49.48C80.996 49.2187 81.7053 49.088 82.564 49.088C83.1333 49.088 83.698 49.1627 84.258 49.312C84.818 49.4613 85.3033 49.676 85.714 49.956L85.252 51.076C84.832 50.796 84.3887 50.5953 83.922 50.474C83.4553 50.3433 83.0027 50.278 82.564 50.278C82.0133 50.278 81.5607 50.348 81.206 50.488C80.8513 50.628 80.59 50.8147 80.422 51.048C80.2633 51.2813 80.184 51.5427 80.184 51.832C80.184 52.1773 80.2913 52.4527 80.506 52.658C80.73 52.8633 81.0147 53.0267 81.36 53.148C81.7147 53.2693 82.102 53.3813 82.522 53.484C82.942 53.5773 83.362 53.6847 83.782 53.806C84.2113 53.9273 84.5987 54.086 84.944 54.282C85.2987 54.478 85.5833 54.7393 85.798 55.066C86.0127 55.3927 86.12 55.8127 86.12 56.326C86.12 56.8207 85.9847 57.2827 85.714 57.712C85.4433 58.132 85.0233 58.4727 84.454 58.734C83.894 58.986 83.1847 59.112 82.326 59.112ZM90.5173 59.084C89.7706 59.084 89.192 58.8833 88.7813 58.482C88.3706 58.0807 88.1653 57.5067 88.1653 56.76V49.956H89.5093V56.704C89.5093 57.1053 89.6073 57.4133 89.8033 57.628C90.0086 57.8427 90.298 57.95 90.6713 57.95C91.0913 57.95 91.4413 57.8333 91.7213 57.6L92.1413 58.566C91.936 58.7433 91.6886 58.874 91.3993 58.958C91.1193 59.042 90.8253 59.084 90.5173 59.084ZM86.9053 52.686V51.58H91.6373V52.686H86.9053ZM98.3722 59V57.432L98.3022 57.138V54.464C98.3022 53.8947 98.1342 53.456 97.7982 53.148C97.4715 52.8307 96.9769 52.672 96.3142 52.672C95.8755 52.672 95.4462 52.7467 95.0262 52.896C94.6062 53.036 94.2515 53.2273 93.9622 53.47L93.4022 52.462C93.7849 52.154 94.2422 51.9207 94.7742 51.762C95.3155 51.594 95.8802 51.51 96.4682 51.51C97.4855 51.51 98.2695 51.7573 98.8202 52.252C99.3709 52.7467 99.6462 53.5027 99.6462 54.52V59H98.3722ZM95.9362 59.084C95.3855 59.084 94.9002 58.9907 94.4802 58.804C94.0695 58.6173 93.7522 58.3607 93.5282 58.034C93.3042 57.698 93.1922 57.32 93.1922 56.9C93.1922 56.4987 93.2855 56.1347 93.4722 55.808C93.6682 55.4813 93.9809 55.22 94.4102 55.024C94.8489 54.828 95.4369 54.73 96.1742 54.73H98.5262V55.696H96.2302C95.5582 55.696 95.1055 55.808 94.8722 56.032C94.6389 56.256 94.5222 56.5267 94.5222 56.844C94.5222 57.208 94.6669 57.502 94.9562 57.726C95.2455 57.9407 95.6469 58.048 96.1602 58.048C96.6642 58.048 97.1029 57.936 97.4762 57.712C97.8589 57.488 98.1342 57.1613 98.3022 56.732L98.5682 57.656C98.3909 58.0947 98.0782 58.4447 97.6302 58.706C97.1822 58.958 96.6175 59.084 95.9362 59.084ZM102.133 59V51.58H103.421V53.596L103.295 53.092C103.501 52.5787 103.846 52.1867 104.331 51.916C104.817 51.6453 105.414 51.51 106.123 51.51V52.812C106.067 52.8027 106.011 52.798 105.955 52.798C105.909 52.798 105.862 52.798 105.815 52.798C105.097 52.798 104.527 53.0127 104.107 53.442C103.687 53.8713 103.477 54.492 103.477 55.304V59H102.133ZM110.629 59.084C109.882 59.084 109.303 58.8833 108.893 58.482C108.482 58.0807 108.277 57.5067 108.277 56.76V49.956H109.621V56.704C109.621 57.1053 109.719 57.4133 109.915 57.628C110.12 57.8427 110.409 57.95 110.783 57.95C111.203 57.95 111.553 57.8333 111.833 57.6L112.253 58.566C112.047 58.7433 111.8 58.874 111.511 58.958C111.231 59.042 110.937 59.084 110.629 59.084ZM107.017 52.686V51.58H111.749V52.686H107.017ZM113.878 59V51.58H115.222V59H113.878ZM114.55 50.152C114.288 50.152 114.069 50.068 113.892 49.9C113.724 49.732 113.64 49.5267 113.64 49.284C113.64 49.032 113.724 48.822 113.892 48.654C114.069 48.486 114.288 48.402 114.55 48.402C114.811 48.402 115.026 48.486 115.194 48.654C115.371 48.8127 115.46 49.0133 115.46 49.256C115.46 49.508 115.376 49.7227 115.208 49.9C115.04 50.068 114.82 50.152 114.55 50.152ZM121.75 51.51C122.356 51.51 122.888 51.6267 123.346 51.86C123.812 52.0933 124.176 52.448 124.438 52.924C124.699 53.4 124.83 54.002 124.83 54.73V59H123.486V54.884C123.486 54.1653 123.308 53.624 122.954 53.26C122.608 52.896 122.118 52.714 121.484 52.714C121.008 52.714 120.592 52.8073 120.238 52.994C119.883 53.1807 119.608 53.456 119.412 53.82C119.225 54.184 119.132 54.6367 119.132 55.178V59H117.788V51.58H119.076V53.582L118.866 53.05C119.108 52.5647 119.482 52.1867 119.986 51.916C120.49 51.6453 121.078 51.51 121.75 51.51ZM130.565 61.8C129.884 61.8 129.221 61.702 128.577 61.506C127.942 61.3193 127.424 61.0487 127.023 60.694L127.667 59.658C128.012 59.9567 128.437 60.19 128.941 60.358C129.445 60.5353 129.972 60.624 130.523 60.624C131.4 60.624 132.044 60.4187 132.455 60.008C132.866 59.5973 133.071 58.972 133.071 58.132V56.564L133.211 55.094L133.141 53.61V51.58H134.415V57.992C134.415 59.2987 134.088 60.26 133.435 60.876C132.782 61.492 131.825 61.8 130.565 61.8ZM130.397 58.692C129.678 58.692 129.034 58.5427 128.465 58.244C127.905 57.936 127.457 57.5113 127.121 56.97C126.794 56.4287 126.631 55.8033 126.631 55.094C126.631 54.3753 126.794 53.75 127.121 53.218C127.457 52.6767 127.905 52.2567 128.465 51.958C129.034 51.6593 129.678 51.51 130.397 51.51C131.032 51.51 131.61 51.6407 132.133 51.902C132.656 52.154 133.071 52.546 133.379 53.078C133.696 53.61 133.855 54.282 133.855 55.094C133.855 55.8967 133.696 56.564 133.379 57.096C133.071 57.628 132.656 58.0293 132.133 58.3C131.61 58.5613 131.032 58.692 130.397 58.692ZM130.551 57.516C131.046 57.516 131.484 57.4133 131.867 57.208C132.25 57.0027 132.548 56.718 132.763 56.354C132.987 55.99 133.099 55.57 133.099 55.094C133.099 54.618 132.987 54.198 132.763 53.834C132.548 53.47 132.25 53.19 131.867 52.994C131.484 52.7887 131.046 52.686 130.551 52.686C130.056 52.686 129.613 52.7887 129.221 52.994C128.838 53.19 128.535 53.47 128.311 53.834C128.096 54.198 127.989 54.618 127.989 55.094C127.989 55.57 128.096 55.99 128.311 56.354C128.535 56.718 128.838 57.0027 129.221 57.208C129.613 57.4133 130.056 57.516 130.551 57.516ZM140.939 59V50.922C140.939 50.194 141.149 49.6153 141.569 49.186C141.998 48.7473 142.605 48.528 143.389 48.528C143.678 48.528 143.953 48.5653 144.215 48.64C144.485 48.7053 144.714 48.8127 144.901 48.962L144.495 49.984C144.355 49.872 144.196 49.788 144.019 49.732C143.841 49.6667 143.655 49.634 143.459 49.634C143.067 49.634 142.768 49.746 142.563 49.97C142.357 50.1847 142.255 50.5067 142.255 50.936V51.93L142.283 52.546V59H140.939ZM139.679 52.686V51.58H144.411V52.686H139.679ZM145.678 59V51.58H146.966V53.596L146.84 53.092C147.046 52.5787 147.391 52.1867 147.876 51.916C148.362 51.6453 148.959 51.51 149.668 51.51V52.812C149.612 52.8027 149.556 52.798 149.5 52.798C149.454 52.798 149.407 52.798 149.36 52.798C148.642 52.798 148.072 53.0127 147.652 53.442C147.232 53.8713 147.022 54.492 147.022 55.304V59H145.678ZM154.434 59.084C153.688 59.084 153.025 58.9207 152.446 58.594C151.868 58.2673 151.41 57.8193 151.074 57.25C150.738 56.6713 150.57 56.018 150.57 55.29C150.57 54.5527 150.738 53.8993 151.074 53.33C151.41 52.7607 151.868 52.3173 152.446 52C153.025 51.6733 153.688 51.51 154.434 51.51C155.172 51.51 155.83 51.6733 156.408 52C156.996 52.3173 157.454 52.7607 157.78 53.33C158.116 53.89 158.284 54.5433 158.284 55.29C158.284 56.0273 158.116 56.6807 157.78 57.25C157.454 57.8193 156.996 58.2673 156.408 58.594C155.83 58.9207 155.172 59.084 154.434 59.084ZM154.434 57.908C154.91 57.908 155.335 57.8007 155.708 57.586C156.091 57.3713 156.39 57.068 156.604 56.676C156.819 56.2747 156.926 55.8127 156.926 55.29C156.926 54.758 156.819 54.3007 156.604 53.918C156.39 53.526 156.091 53.2227 155.708 53.008C155.335 52.7933 154.91 52.686 154.434 52.686C153.958 52.686 153.534 52.7933 153.16 53.008C152.787 53.2227 152.488 53.526 152.264 53.918C152.04 54.3007 151.928 54.758 151.928 55.29C151.928 55.8127 152.04 56.2747 152.264 56.676C152.488 57.068 152.787 57.3713 153.16 57.586C153.534 57.8007 153.958 57.908 154.434 57.908ZM169.425 51.51C170.022 51.51 170.55 51.6267 171.007 51.86C171.464 52.0933 171.819 52.448 172.071 52.924C172.332 53.4 172.463 54.002 172.463 54.73V59H171.119V54.884C171.119 54.1653 170.951 53.624 170.615 53.26C170.279 52.896 169.808 52.714 169.201 52.714C168.753 52.714 168.361 52.8073 168.025 52.994C167.689 53.1807 167.428 53.456 167.241 53.82C167.064 54.184 166.975 54.6367 166.975 55.178V59H165.631V54.884C165.631 54.1653 165.463 53.624 165.127 53.26C164.8 52.896 164.329 52.714 163.713 52.714C163.274 52.714 162.887 52.8073 162.551 52.994C162.215 53.1807 161.954 53.456 161.767 53.82C161.58 54.184 161.487 54.6367 161.487 55.178V59H160.143V51.58H161.431V53.554L161.221 53.05C161.454 52.5647 161.814 52.1867 162.299 51.916C162.784 51.6453 163.349 51.51 163.993 51.51C164.702 51.51 165.314 51.6873 165.827 52.042C166.34 52.3873 166.676 52.9147 166.835 53.624L166.289 53.4C166.513 52.8307 166.905 52.3733 167.465 52.028C168.025 51.6827 168.678 51.51 169.425 51.51Z" fill="white"/>
<path d="M79.47 109V100.922C79.47 100.194 79.68 99.6153 80.1 99.186C80.5293 98.7473 81.136 98.528 81.92 98.528C82.2093 98.528 82.4847 98.5653 82.746 98.64C83.0167 98.7053 83.2453 98.8127 83.432 98.962L83.026 99.984C82.886 99.872 82.7273 99.788 82.55 99.732C82.3727 99.6667 82.186 99.634 81.99 99.634C81.598 99.634 81.2993 99.746 81.094 99.97C80.8887 100.185 80.786 100.507 80.786 100.936V101.93L80.814 102.546V109H79.47ZM78.21 102.686V101.58H82.942V102.686H78.21ZM87.2782 109.084C86.5315 109.084 85.8688 108.921 85.2902 108.594C84.7115 108.267 84.2542 107.819 83.9182 107.25C83.5822 106.671 83.4142 106.018 83.4142 105.29C83.4142 104.553 83.5822 103.899 83.9182 103.33C84.2542 102.761 84.7115 102.317 85.2902 102C85.8688 101.673 86.5315 101.51 87.2782 101.51C88.0155 101.51 88.6735 101.673 89.2522 102C89.8402 102.317 90.2975 102.761 90.6242 103.33C90.9602 103.89 91.1282 104.543 91.1282 105.29C91.1282 106.027 90.9602 106.681 90.6242 107.25C90.2975 107.819 89.8402 108.267 89.2522 108.594C88.6735 108.921 88.0155 109.084 87.2782 109.084ZM87.2782 107.908C87.7542 107.908 88.1788 107.801 88.5522 107.586C88.9348 107.371 89.2335 107.068 89.4482 106.676C89.6628 106.275 89.7702 105.813 89.7702 105.29C89.7702 104.758 89.6628 104.301 89.4482 103.918C89.2335 103.526 88.9348 103.223 88.5522 103.008C88.1788 102.793 87.7542 102.686 87.2782 102.686C86.8022 102.686 86.3775 102.793 86.0042 103.008C85.6308 103.223 85.3322 103.526 85.1082 103.918C84.8842 104.301 84.7722 104.758 84.7722 105.29C84.7722 105.813 84.8842 106.275 85.1082 106.676C85.3322 107.068 85.6308 107.371 86.0042 107.586C86.3775 107.801 86.8022 107.908 87.2782 107.908ZM92.9869 109V101.58H94.2749V103.596L94.1489 103.092C94.3542 102.579 94.6996 102.187 95.1849 101.916C95.6702 101.645 96.2676 101.51 96.9769 101.51V102.812C96.9209 102.803 96.8649 102.798 96.8089 102.798C96.7622 102.798 96.7156 102.798 96.6689 102.798C95.9502 102.798 95.3809 103.013 94.9609 103.442C94.5409 103.871 94.3309 104.492 94.3309 105.304V109H92.9869ZM106.003 109.112C105.135 109.112 104.393 108.921 103.777 108.538C103.161 108.155 102.69 107.605 102.363 106.886C102.046 106.158 101.887 105.271 101.887 104.226C101.887 103.115 102.083 102.177 102.475 101.412C102.867 100.647 103.413 100.068 104.113 99.676C104.813 99.284 105.616 99.088 106.521 99.088C106.988 99.088 107.431 99.1347 107.851 99.228C108.28 99.3213 108.649 99.466 108.957 99.662L108.425 100.754C108.173 100.577 107.884 100.455 107.557 100.39C107.24 100.325 106.904 100.292 106.549 100.292C105.55 100.292 104.757 100.605 104.169 101.23C103.581 101.846 103.287 102.765 103.287 103.988C103.287 104.184 103.296 104.417 103.315 104.688C103.334 104.959 103.38 105.225 103.455 105.486L102.979 105.01C103.119 104.581 103.338 104.221 103.637 103.932C103.945 103.633 104.309 103.414 104.729 103.274C105.158 103.125 105.62 103.05 106.115 103.05C106.768 103.05 107.347 103.171 107.851 103.414C108.355 103.657 108.752 104.002 109.041 104.45C109.33 104.889 109.475 105.411 109.475 106.018C109.475 106.643 109.321 107.189 109.013 107.656C108.705 108.123 108.29 108.482 107.767 108.734C107.244 108.986 106.656 109.112 106.003 109.112ZM105.947 107.978C106.376 107.978 106.75 107.899 107.067 107.74C107.394 107.581 107.65 107.362 107.837 107.082C108.024 106.793 108.117 106.457 108.117 106.074C108.117 105.495 107.916 105.038 107.515 104.702C107.114 104.357 106.568 104.184 105.877 104.184C105.429 104.184 105.037 104.268 104.701 104.436C104.365 104.604 104.099 104.833 103.903 105.122C103.716 105.402 103.623 105.724 103.623 106.088C103.623 106.424 103.712 106.737 103.889 107.026C104.066 107.306 104.328 107.535 104.673 107.712C105.018 107.889 105.443 107.978 105.947 107.978ZM124.171 101.51C124.769 101.51 125.296 101.627 125.753 101.86C126.211 102.093 126.565 102.448 126.817 102.924C127.079 103.4 127.209 104.002 127.209 104.73V109H125.865V104.884C125.865 104.165 125.697 103.624 125.361 103.26C125.025 102.896 124.554 102.714 123.947 102.714C123.499 102.714 123.107 102.807 122.771 102.994C122.435 103.181 122.174 103.456 121.987 103.82C121.81 104.184 121.721 104.637 121.721 105.178V109H120.377V104.884C120.377 104.165 120.209 103.624 119.873 103.26C119.547 102.896 119.075 102.714 118.459 102.714C118.021 102.714 117.633 102.807 117.297 102.994C116.961 103.181 116.7 103.456 116.513 103.82C116.327 104.184 116.233 104.637 116.233 105.178V109H114.889V101.58H116.177V103.554L115.967 103.05C116.201 102.565 116.56 102.187 117.045 101.916C117.531 101.645 118.095 101.51 118.739 101.51C119.449 101.51 120.06 101.687 120.573 102.042C121.087 102.387 121.423 102.915 121.581 103.624L121.035 103.4C121.259 102.831 121.651 102.373 122.211 102.028C122.771 101.683 123.425 101.51 124.171 101.51ZM132.86 109.084C132.114 109.084 131.451 108.921 130.872 108.594C130.294 108.267 129.836 107.819 129.5 107.25C129.164 106.671 128.996 106.018 128.996 105.29C128.996 104.553 129.164 103.899 129.5 103.33C129.836 102.761 130.294 102.317 130.872 102C131.451 101.673 132.114 101.51 132.86 101.51C133.598 101.51 134.256 101.673 134.834 102C135.422 102.317 135.88 102.761 136.206 103.33C136.542 103.89 136.71 104.543 136.71 105.29C136.71 106.027 136.542 106.681 136.206 107.25C135.88 107.819 135.422 108.267 134.834 108.594C134.256 108.921 133.598 109.084 132.86 109.084ZM132.86 107.908C133.336 107.908 133.761 107.801 134.134 107.586C134.517 107.371 134.816 107.068 135.03 106.676C135.245 106.275 135.352 105.813 135.352 105.29C135.352 104.758 135.245 104.301 135.03 103.918C134.816 103.526 134.517 103.223 134.134 103.008C133.761 102.793 133.336 102.686 132.86 102.686C132.384 102.686 131.96 102.793 131.586 103.008C131.213 103.223 130.914 103.526 130.69 103.918C130.466 104.301 130.354 104.758 130.354 105.29C130.354 105.813 130.466 106.275 130.69 106.676C130.914 107.068 131.213 107.371 131.586 107.586C131.96 107.801 132.384 107.908 132.86 107.908ZM142.531 101.51C143.138 101.51 143.67 101.627 144.127 101.86C144.594 102.093 144.958 102.448 145.219 102.924C145.48 103.4 145.611 104.002 145.611 104.73V109H144.267V104.884C144.267 104.165 144.09 103.624 143.735 103.26C143.39 102.896 142.9 102.714 142.265 102.714C141.789 102.714 141.374 102.807 141.019 102.994C140.664 103.181 140.389 103.456 140.193 103.82C140.006 104.184 139.913 104.637 139.913 105.178V109H138.569V101.58H139.857V103.582L139.647 103.05C139.89 102.565 140.263 102.187 140.767 101.916C141.271 101.645 141.859 101.51 142.531 101.51ZM150.646 109.084C149.9 109.084 149.321 108.883 148.91 108.482C148.5 108.081 148.294 107.507 148.294 106.76V99.956H149.638V106.704C149.638 107.105 149.736 107.413 149.932 107.628C150.138 107.843 150.427 107.95 150.8 107.95C151.22 107.95 151.57 107.833 151.85 107.6L152.27 108.566C152.065 108.743 151.818 108.874 151.528 108.958C151.248 109.042 150.954 109.084 150.646 109.084ZM147.034 102.686V101.58H151.766V102.686H147.034ZM157.857 101.51C158.464 101.51 158.996 101.627 159.453 101.86C159.92 102.093 160.284 102.448 160.545 102.924C160.806 103.4 160.937 104.002 160.937 104.73V109H159.593V104.884C159.593 104.165 159.416 103.624 159.061 103.26C158.716 102.896 158.226 102.714 157.591 102.714C157.115 102.714 156.7 102.807 156.345 102.994C155.99 103.181 155.715 103.456 155.519 103.82C155.332 104.184 155.239 104.637 155.239 105.178V109H153.895V98.612H155.239V103.582L154.973 103.05C155.216 102.565 155.589 102.187 156.093 101.916C156.597 101.645 157.185 101.51 157.857 101.51ZM165.552 109.084C164.936 109.084 164.348 109 163.788 108.832C163.238 108.664 162.804 108.459 162.486 108.216L163.046 107.152C163.364 107.367 163.756 107.549 164.222 107.698C164.689 107.847 165.165 107.922 165.65 107.922C166.276 107.922 166.724 107.833 166.994 107.656C167.274 107.479 167.414 107.231 167.414 106.914C167.414 106.681 167.33 106.499 167.162 106.368C166.994 106.237 166.77 106.139 166.49 106.074C166.22 106.009 165.916 105.953 165.58 105.906C165.244 105.85 164.908 105.785 164.572 105.71C164.236 105.626 163.928 105.514 163.648 105.374C163.368 105.225 163.144 105.024 162.976 104.772C162.808 104.511 162.724 104.165 162.724 103.736C162.724 103.288 162.85 102.896 163.102 102.56C163.354 102.224 163.709 101.967 164.166 101.79C164.633 101.603 165.184 101.51 165.818 101.51C166.304 101.51 166.794 101.571 167.288 101.692C167.792 101.804 168.203 101.967 168.52 102.182L167.946 103.246C167.61 103.022 167.26 102.868 166.896 102.784C166.532 102.7 166.168 102.658 165.804 102.658C165.216 102.658 164.778 102.756 164.488 102.952C164.199 103.139 164.054 103.381 164.054 103.68C164.054 103.932 164.138 104.128 164.306 104.268C164.484 104.399 164.708 104.501 164.978 104.576C165.258 104.651 165.566 104.716 165.902 104.772C166.238 104.819 166.574 104.884 166.91 104.968C167.246 105.043 167.55 105.15 167.82 105.29C168.1 105.43 168.324 105.626 168.492 105.878C168.67 106.13 168.758 106.466 168.758 106.886C168.758 107.334 168.628 107.721 168.366 108.048C168.105 108.375 167.736 108.631 167.26 108.818C166.784 108.995 166.215 109.084 165.552 109.084Z" fill="white"/>
<path d="M79.88 81.32V79.14H83.48C84.72 79.14 85.6067 78.88 86.14 78.36C86.6867 77.84 86.96 77.2067 86.96 76.46C86.96 75.5133 86.66 74.7667 86.06 74.22C85.4733 73.66 84.5533 73.3867 83.3 73.4H78.7V72H91.44V73.4H86.4L87.12 72.66C88.0133 73.0467 88.6467 73.5933 89.02 74.3C89.3933 74.9933 89.58 75.7533 89.58 76.58C89.58 77.5667 89.34 78.42 88.86 79.14C88.38 79.8467 87.7 80.3867 86.82 80.76C85.94 81.1333 84.88 81.32 83.64 81.32H79.88ZM87.04 86L83.38 80.4H86.16L89.84 86H87.04ZM78.7 76.18V74.78H91.44V76.18H78.7ZM95.7294 86V73L96.8694 74.18H92.7694V72H98.3294V86H95.7294ZM100.907 82.82V81.02L107.807 72H110.587L103.787 81.02L102.487 80.62H113.587V82.82H100.907ZM108.587 86V82.82L108.667 80.62V77.8H111.107V86H108.587ZM119.303 71.8C120.583 71.8 121.67 72.0733 122.563 72.62C123.47 73.1533 124.163 73.9333 124.643 74.96C125.123 75.9867 125.363 77.2533 125.363 78.76C125.363 80.36 125.07 81.7133 124.483 82.82C123.91 83.9267 123.11 84.7667 122.083 85.34C121.056 85.9133 119.863 86.2 118.503 86.2C117.796 86.2 117.123 86.1267 116.483 85.98C115.843 85.8333 115.29 85.6067 114.823 85.3L115.783 83.34C116.17 83.5933 116.59 83.7733 117.043 83.88C117.496 83.9733 117.963 84.02 118.443 84.02C119.763 84.02 120.81 83.6133 121.583 82.8C122.356 81.9867 122.743 80.7867 122.743 79.2C122.743 78.9467 122.736 78.6533 122.723 78.32C122.71 77.9733 122.663 77.6267 122.583 77.28L123.383 78.16C123.156 78.7067 122.83 79.1667 122.403 79.54C121.976 79.9 121.476 80.1733 120.903 80.36C120.33 80.5467 119.696 80.64 119.003 80.64C118.096 80.64 117.276 80.4667 116.543 80.12C115.823 79.76 115.25 79.26 114.823 78.62C114.396 77.9667 114.183 77.2067 114.183 76.34C114.183 75.4067 114.41 74.6067 114.863 73.94C115.316 73.26 115.93 72.7333 116.703 72.36C117.49 71.9867 118.356 71.8 119.303 71.8ZM119.443 73.84C118.91 73.84 118.436 73.94 118.023 74.14C117.61 74.3267 117.283 74.6 117.043 74.96C116.816 75.3067 116.703 75.7267 116.703 76.22C116.703 76.9533 116.956 77.5333 117.463 77.96C117.97 78.3867 118.65 78.6 119.503 78.6C120.063 78.6 120.556 78.5 120.983 78.3C121.41 78.0867 121.743 77.8 121.983 77.44C122.223 77.0667 122.343 76.6533 122.343 76.2C122.343 75.76 122.23 75.3667 122.003 75.02C121.776 74.66 121.45 74.3733 121.023 74.16C120.596 73.9467 120.07 73.84 119.443 73.84Z" fill="white"/>
</svg>
