<svg width="60" height="60" viewBox="0 0 60 60" fill="none" xmlns="http://www.w3.org/2000/svg">
<path d="M51.7163 27.6234C53.1338 21.7697 51.8109 15.6975 48.0867 10.9641C44.3625 6.23062 38.7722 3.51562 32.7492 3.51562C21.9886 3.51562 13.2342 12.27 13.2342 23.0306V25.2122L9.73172 35.9259C9.47531 36.7106 9.60609 37.5441 10.0908 38.2125C10.5755 38.8809 11.3269 39.2644 12.1523 39.2644H13.5731C13.8877 39.2644 14.1436 39.5203 14.1436 39.8348V45.81C14.1436 47.7872 15.7523 49.3959 17.7295 49.3959H24.6141C26.0747 49.3959 27.2625 50.5842 27.2625 52.0448V56.8509C27.2625 57.6825 27.9389 58.3589 28.7705 58.3589H47.8097C48.2536 58.3589 48.6727 58.1648 48.9595 57.8264C49.2464 57.488 49.3697 57.0431 49.2975 56.6058L48.4908 51.7134C47.7895 47.4633 47.948 43.1855 48.9619 38.9986L51.7163 27.6234Z" fill="#E75634"/>
<path d="M25.8567 54.9764V50.1703C25.8567 48.4486 24.4608 47.0527 22.7391 47.0527H15.8545C14.1328 47.0527 12.7369 45.6567 12.7369 43.935V37.9603C12.7369 37.3866 12.2714 36.9211 11.6977 36.9211H10.2773C8.86359 36.9211 7.86281 35.5406 8.30203 34.1972L11.828 23.4122V21.1556C11.828 10.6369 20.3555 2.10938 30.8742 2.10938C43.207 2.10938 52.2881 13.6514 49.3856 25.6378L46.6313 37.0139C45.6084 41.2388 45.4458 45.6263 46.1531 49.9148L46.9603 54.8072C47.0648 55.44 46.5764 56.0156 45.9352 56.0156H26.8959C26.3217 56.0156 25.8567 55.5502 25.8567 54.9764Z" fill="#FFD7E5"/>
<path d="M30.8742 3.51562C41.385 3.51562 49.5277 11.9002 49.9092 21.7973C50.2875 11.3016 41.8795 2.10938 30.8742 2.10938C20.3555 2.10938 11.828 10.6369 11.828 21.1556V22.5619C11.828 12.0431 20.3555 3.51562 30.8742 3.51562Z" fill="white"/>
<path d="M45.3961 20.0133C43.3036 18.6905 40.9303 19.1995 39.4941 20.4399C37.9702 21.7561 37.4977 23.7516 37.4977 24.533V25.1953H36.0188C36.0188 23.6377 34.8286 22.3406 33.2766 22.207C31.6327 22.0655 29.6447 21.6942 28.4972 20.7614C27.4064 19.875 26.3864 17.7689 25.7386 16.2066C25.3144 15.1828 24.3783 14.4249 23.2734 14.3367C21.5766 14.2013 20.1572 15.5381 20.1572 17.2069V22.6172H17.2308C15.998 22.6172 14.9086 23.4202 14.5439 24.5981L11.8613 33.263C11.6747 33.8663 12.1252 34.4775 12.757 34.4775H28.4775L30.7884 36.1439C31.0791 36.3535 31.2511 36.6895 31.2511 37.0477C31.2511 37.9749 30.1842 38.4966 29.4525 37.927L28.0594 36.8433H20.1928C18.4256 36.8433 16.9931 38.2758 16.9931 40.043V41.6836C16.9931 43.4508 18.4256 44.8833 20.1928 44.8833H23.6058C24.2189 44.8833 24.7777 44.4422 24.8386 43.8324C24.9089 43.1311 24.36 42.5395 23.6728 42.5395H20.1928C19.7203 42.5395 19.3369 42.1566 19.3369 41.6836V40.043C19.3369 39.5705 19.7198 39.187 20.1928 39.187H27.255L27.6347 39.4824C29.9166 41.2575 31.2511 43.9866 31.2511 46.8774V56.0156H35.5495V29.648H37.4972V30.1083C37.4972 30.1083 37.4391 31.9102 38.3283 33.1945C39.0778 34.2774 40.7114 34.8122 42.0169 34.2506C44.258 33.2874 43.5905 31.2483 44.1712 29.6855C44.4619 28.9041 46.2727 27.2935 47.0053 25.4747C47.738 23.6564 47.2336 21.1749 45.3961 20.0133Z" fill="#FA759E"/>
<path d="M49.8413 25.7484C51.2588 19.8947 49.9359 13.8225 46.2117 9.08906C42.4875 4.35562 36.8972 1.64062 30.8742 1.64062C20.1136 1.64062 11.3592 10.395 11.3592 21.1556V23.3372L7.85672 34.0509C7.60031 34.8356 7.73109 35.6691 8.21578 36.3375C8.70047 37.0059 9.45187 37.3894 10.2773 37.3894H11.6981C12.0127 37.3894 12.2686 37.6453 12.2686 37.9598V43.935C12.2686 45.9122 13.8773 47.5209 15.8545 47.5209H22.7391C24.1997 47.5209 25.3875 48.7092 25.3875 50.1698V54.9759C25.3875 55.8075 26.0639 56.4839 26.8955 56.4839H31.2511H35.5495H45.9347C46.3781 56.4839 46.7972 56.2898 47.0845 55.9519C47.3714 55.6134 47.4947 55.1686 47.4225 54.7308L46.6158 49.8384C45.9145 45.5883 46.073 41.3105 47.0869 37.1236L49.8413 25.7484ZM45.6905 49.9913L46.4972 54.8836C46.5248 55.0514 46.4794 55.2155 46.3692 55.3458C46.2591 55.4756 46.1048 55.5469 45.9347 55.5469H36.0183V44.8828C36.0183 44.6241 35.8083 44.4141 35.5495 44.4141C35.2908 44.4141 35.0808 44.6241 35.0808 44.8828V55.5469H31.7198V46.8769C31.7198 43.8192 30.3356 40.9889 27.9225 39.112L27.5428 38.8167C27.4603 38.7525 27.3591 38.7178 27.255 38.7178H20.1928C19.4625 38.7178 18.8681 39.3122 18.8681 40.0425V41.6831C18.8681 42.4134 19.4625 43.0078 20.1928 43.0078H23.6728C23.8711 43.0078 24.0614 43.0922 24.1945 43.2394C24.3295 43.3884 24.3923 43.582 24.3722 43.785C24.337 44.1375 24.0005 44.4141 23.6058 44.4141H20.1928C18.6872 44.4141 17.4619 43.1892 17.4619 41.6831V40.0425C17.4619 38.5369 18.6867 37.3116 20.1928 37.3116H27.8986L29.1647 38.2969C29.6456 38.6709 30.2855 38.737 30.832 38.4694C31.3795 38.2017 31.7198 37.6566 31.7198 37.0472C31.7198 36.5395 31.4742 36.06 31.0627 35.7633L28.7517 34.0964C28.672 34.0387 28.5759 34.0078 28.4775 34.0078H12.757C12.6066 34.0078 12.4687 33.9384 12.3797 33.817C12.2906 33.6956 12.2648 33.5442 12.3094 33.4003L14.992 24.7355C15.2977 23.7483 16.1977 23.085 17.2312 23.085L23.1497 23.093C24.4725 23.093 25.5483 24.1688 25.5483 25.4916V27.4706C25.5483 28.6969 26.2186 29.8209 27.2972 30.4041L35.0812 34.6134V37.7344C35.0812 37.9931 35.2912 38.2031 35.55 38.2031C35.8087 38.2031 36.0187 37.9931 36.0187 37.7344V30.1167H37.0289C37.0242 30.3525 37.0233 32.1323 37.9434 33.4613C38.8556 34.7798 40.7264 35.3152 42.2025 34.6819C44.018 33.9014 44.1886 32.4862 44.3391 31.238C44.3991 30.7387 44.4562 30.2667 44.6114 29.8495C44.7019 29.6053 45.0717 29.1492 45.4636 28.6664C46.1386 27.8344 46.9781 26.7989 47.4408 25.6505C48.2137 23.7309 47.7544 20.9494 45.6473 19.6172C43.2877 18.1252 40.7025 18.7772 39.1884 20.085C37.6158 21.4434 37.0298 23.5341 37.0298 24.533V24.727H36.4575C36.2461 23.1314 34.9669 21.8827 33.3178 21.7402C31.2159 21.5588 29.6517 21.0947 28.7939 20.3981C28.0069 19.7583 27.0759 18.2063 26.1727 16.027C25.6622 14.7966 24.5662 13.9697 23.3114 13.8694C22.365 13.7953 21.4608 14.1052 20.7666 14.7464C20.0822 15.3787 19.6894 16.2755 19.6894 17.2069V22.1484H17.2317C15.7847 22.1484 14.5252 23.077 14.0972 24.4589L11.4141 33.1233C11.2805 33.5545 11.3573 34.0102 11.6255 34.3734C11.8936 34.7367 12.3061 34.9453 12.7575 34.9453H28.3266L30.5147 36.5236C30.6825 36.6445 30.7828 36.8405 30.7828 37.0472C30.7828 37.2994 30.6473 37.5159 30.4209 37.627C30.1945 37.7386 29.9405 37.7119 29.7408 37.5572L28.3477 36.4734C28.2652 36.4092 28.1639 36.3745 28.0598 36.3745H20.1928C18.1702 36.3745 16.5244 38.0203 16.5244 40.043V41.6836C16.5244 43.7063 18.1702 45.352 20.1928 45.352H23.6058C24.4758 45.352 25.222 44.7052 25.305 43.8787C25.3514 43.4161 25.2 42.9539 24.8897 42.6108C24.5789 42.2677 24.1359 42.0708 23.6728 42.0708H20.1928C19.9795 42.0708 19.8056 41.8969 19.8056 41.6836V40.043C19.8056 39.8297 19.9795 39.6558 20.1928 39.6558H27.0942L27.3469 39.8522C29.5298 41.5505 30.7823 44.1108 30.7823 46.8769V55.5469H26.8955C26.5809 55.5469 26.325 55.2909 26.325 54.9764V50.1703C26.325 48.1927 24.7162 46.5839 22.7391 46.5839H15.8545C14.3939 46.5839 13.2061 45.3956 13.2061 43.9355V37.9603C13.2061 37.1287 12.5297 36.4523 11.6981 36.4523H10.2773C9.75562 36.4523 9.28078 36.21 8.97469 35.7877C8.66859 35.3653 8.58562 34.8384 8.74781 34.3425L12.2733 23.5575C12.2888 23.5106 12.2962 23.4614 12.2962 23.4117V21.1556C12.2967 10.912 20.6306 2.57812 30.8742 2.57812C36.6075 2.57812 41.9292 5.16234 45.4744 9.66844C49.0195 14.1745 50.2791 19.9547 48.9295 25.5277L46.1756 36.9037C45.1322 41.213 44.9691 45.6159 45.6905 49.9913ZM37.4977 29.1792H35.55C35.2912 29.1792 35.0812 29.3892 35.0812 29.648V33.5484L27.743 29.58C26.9677 29.1605 26.4858 28.3523 26.4858 27.4706V25.4916C26.4858 23.6522 24.9891 22.1555 23.1497 22.1555H20.6264V17.2064C20.6264 16.5356 20.9091 15.8902 21.4022 15.435C21.9019 14.9733 22.5548 14.7516 23.2364 14.8036C24.1247 14.8748 24.9366 15.4959 25.3059 16.3856C25.9861 18.0272 27.0408 20.182 28.2019 21.1252C29.22 21.9525 30.9141 22.4737 33.2362 22.6739C34.5548 22.7878 35.55 23.872 35.55 25.1953C35.55 25.4541 35.76 25.6641 36.0187 25.6641H37.4977C37.7564 25.6641 37.9664 25.4541 37.9664 25.1953V24.5325C37.9664 23.8294 38.415 21.9914 39.8006 20.7942C41.0527 19.7123 43.1911 19.1737 45.1458 20.4094C46.8394 21.48 47.1998 23.737 46.5703 25.3003C46.1606 26.3175 45.3698 27.2925 44.7347 28.0758C44.2552 28.6673 43.8759 29.1342 43.7316 29.5228C43.5375 30.0445 43.4714 30.5944 43.4077 31.1259C43.2647 32.3147 43.1517 33.2531 41.8317 33.8208C40.7695 34.2773 39.3703 33.8775 38.7136 32.9283C37.9266 31.7906 37.9655 30.1392 37.9659 30.1083V29.648C37.9664 29.3892 37.7564 29.1792 37.4977 29.1792Z" fill="#3A2C60"/>
<path d="M35.5495 39.082C35.2908 39.082 35.0808 39.292 35.0808 39.5508V42.9492C35.0808 43.208 35.2908 43.418 35.5495 43.418C35.8083 43.418 36.0183 43.208 36.0183 42.9492V39.5508C36.0183 39.292 35.8087 39.082 35.5495 39.082Z" fill="#3A2C60"/>
<path d="M39.2995 30.5161H40.3228C41.4478 30.5161 42.3633 29.6006 42.3633 28.4756C42.3633 27.435 41.5805 26.5739 40.5727 26.4506V24.967C40.5727 23.8954 41.4445 23.0236 42.5161 23.0236C43.5877 23.0236 44.4595 23.8954 44.4595 24.967V25.9172C44.4595 26.1759 44.6695 26.3859 44.9283 26.3859C45.187 26.3859 45.397 26.1759 45.397 25.9172V24.967C45.397 23.3784 44.1047 22.0861 42.5161 22.0861C40.9275 22.0861 39.6352 23.3784 39.6352 24.967V26.9039C39.6352 27.1626 39.8452 27.3726 40.1039 27.3726H40.3233C40.9313 27.3726 41.4263 27.8672 41.4263 28.4756C41.4263 29.084 40.9317 29.5786 40.3233 29.5786H39.3C39.0413 29.5786 38.8313 29.7886 38.8313 30.0473C38.8313 30.3061 39.0408 30.5161 39.2995 30.5161Z" fill="#3A2C60"/>
</svg>
