<svg width="60" height="60" viewBox="0 0 60 60" fill="none" xmlns="http://www.w3.org/2000/svg">
<g clip-path="url(#clip0_815_41558)">
<path d="M29.3144 11.5477C29.3144 11.5477 21.3726 11.1856 19.868 16.8985C18.3633 22.6113 23.1785 22.3699 23.7129 27.961C23.9637 30.5801 21.9551 31.3887 21.8742 33.5625C21.7933 35.7363 26.0543 45.9375 26.0543 45.9375H29.3144L30.8496 45.9516H34.1098C34.1098 45.9516 38.373 35.7563 38.2898 33.5789C38.2066 31.4016 36.2004 30.5977 36.4512 27.9774C36.9867 22.3863 41.8019 22.6266 40.2961 16.9149C38.7902 11.2031 30.8496 11.5641 30.8496 11.5641L29.3144 11.5477Z" fill="#FF808C"/>
<path d="M34.1102 46.9029H30.8501L29.3067 46.8889H26.0548C25.8665 46.8889 25.6824 46.8334 25.5256 46.7291C25.3688 46.6249 25.2463 46.4766 25.1735 46.3029C24.4481 44.5674 20.8376 35.7947 20.9208 33.5295C20.9677 32.3025 21.495 31.4365 21.9614 30.6725C22.47 29.8381 22.8719 29.1783 22.7641 28.0557C22.552 25.8455 21.6227 24.7123 20.6384 23.5147C19.3364 21.9291 17.9899 20.2885 18.9462 16.6592C19.6493 13.9803 21.7083 12.0807 24.8934 11.1678C26.3399 10.7629 27.8377 10.571 29.3395 10.5982L30.8372 10.6123C32.3357 10.5843 33.8302 10.7745 35.2739 11.1772C38.4591 12.0912 40.5157 13.9897 41.2212 16.6686C42.1774 20.3014 40.8309 21.942 39.5278 23.524C38.5434 24.7264 37.6177 25.8549 37.402 28.0662C37.2942 29.1889 37.6962 29.8486 38.2048 30.683C38.6735 31.4471 39.1973 32.3119 39.2454 33.54C39.3321 35.8088 35.718 44.5814 34.9927 46.3135C34.9203 46.488 34.7979 46.6371 34.6408 46.742C34.4838 46.847 34.2991 46.903 34.1102 46.9029ZM26.6923 44.9799H29.3149L30.8583 44.9939H33.4727C35.0887 41.0729 37.388 34.9732 37.3399 33.6127C37.3118 32.8814 36.9884 32.3494 36.577 31.6768C36.0239 30.7697 35.336 29.64 35.5036 27.8846C35.7708 25.0943 37.0364 23.5486 38.0536 22.3135C39.2313 20.8791 40.0833 19.842 39.3755 17.1572C38.0864 12.2471 30.9673 12.5143 30.8958 12.5178H30.843L29.3079 12.5037H29.2739C29.2024 12.5037 22.0809 12.2529 20.793 17.1432C20.0899 19.8291 20.9372 20.865 22.1149 22.2994C23.1321 23.5381 24.3989 25.0803 24.6649 27.8705C24.8337 29.6283 24.1446 30.7557 23.5915 31.6627C23.1813 32.3365 22.8567 32.8686 22.8286 33.5986C22.777 34.958 25.0786 41.0588 26.6923 44.9799Z" fill="#5E1235"/>
<path d="M6.39613 22.8C6.34193 22.7999 6.28783 22.7952 6.23442 22.7859C3.42192 22.3066 1.30082 20.6121 0.413712 18.1371C-0.352694 15.9996 -0.0362879 13.684 1.21879 12.2297C2.20902 11.0848 3.63988 10.6348 5.2477 10.9605C10.5469 12.0375 30.0973 16.5234 30.2942 16.5668C30.5341 16.6298 30.7401 16.7838 30.8685 16.996C30.997 17.2082 31.0378 17.4621 30.9824 17.7039C30.927 17.9457 30.7796 18.1564 30.5716 18.2915C30.3635 18.4266 30.111 18.4755 29.8676 18.4277C29.6707 18.3832 10.145 13.9043 4.86801 12.832C3.93988 12.6434 3.19809 12.8613 2.66371 13.4789C1.86449 14.4023 1.68285 16.016 2.21137 17.4926C2.59223 18.5543 3.66332 20.4105 6.55551 20.9027C6.79078 20.9435 7.00223 21.071 7.14818 21.26C7.29413 21.449 7.36399 21.6858 7.34399 21.9238C7.32399 22.1617 7.21558 22.3835 7.04013 22.5455C6.86468 22.7075 6.63492 22.7979 6.39613 22.7988V22.8Z" fill="#5E1235"/>
<path d="M14.6007 24.0868C14.9354 22.247 13.1442 20.3803 10.6 19.9174C8.05578 19.4546 5.72195 20.5709 5.38726 22.4108C5.05257 24.2507 6.84375 26.1174 9.38798 26.5802C11.9322 27.043 14.266 25.9267 14.6007 24.0868Z" fill="#FF808C"/>
<path d="M10.5575 27.6443C10.1067 27.6437 9.65682 27.6025 9.21337 27.5213C6.10439 26.9552 4.00907 24.6373 4.44501 22.2478C4.88095 19.8584 7.65712 18.4146 10.7673 18.983C12.1934 19.242 13.4708 19.8982 14.3649 20.8298C15.3388 21.8447 15.7536 23.0634 15.5368 24.2623C15.1642 26.3013 13.0888 27.6443 10.5575 27.6443ZM9.45947 20.7713C7.86337 20.7713 6.5204 21.5002 6.32353 22.5841C6.08915 23.8802 7.56806 25.2795 9.55439 25.6427C11.5407 26.006 13.4216 25.2138 13.6559 23.9177C13.7989 23.1349 13.2974 22.474 12.9856 22.1494C12.3774 21.5154 11.4434 21.0455 10.4239 20.8603C10.1057 20.8018 9.78297 20.772 9.45947 20.7713Z" fill="#5E1235"/>
<path d="M53.6039 22.7995C53.3651 22.7986 53.1353 22.7082 52.9599 22.5462C52.7844 22.3842 52.676 22.1624 52.656 21.9245C52.636 21.6865 52.7059 21.4497 52.8518 21.2607C52.9978 21.0717 53.2092 20.9443 53.4445 20.9034C56.3379 20.4101 57.4078 18.5597 57.7886 17.4933C58.3183 16.0167 58.1402 14.4042 57.3363 13.4796C56.8007 12.862 56.0589 12.6441 55.132 12.8327C49.8586 13.905 30.3281 18.3839 30.1324 18.4284C30.0086 18.461 29.8796 18.4683 29.7529 18.45C29.6263 18.4316 29.5046 18.3881 29.3951 18.3218C29.2857 18.2556 29.1906 18.168 29.1156 18.0643C29.0407 17.9606 28.9873 17.8428 28.9587 17.7181C28.9301 17.5934 28.9269 17.4642 28.9492 17.3382C28.9715 17.2122 29.0189 17.0919 29.0886 16.9846C29.1583 16.8773 29.2489 16.785 29.3549 16.7134C29.4609 16.6417 29.5802 16.5921 29.7058 16.5675C29.9027 16.5218 49.4519 12.0382 54.7523 10.9613C56.3589 10.6343 57.7898 11.0855 58.7812 12.2304C60.0375 13.6812 60.3539 16.0003 59.5863 18.1378C58.6992 20.6128 56.5769 22.3073 53.7656 22.7866C53.7121 22.7955 53.658 22.7998 53.6039 22.7995Z" fill="#5E1235"/>
<path d="M50.6234 26.5865C53.1677 26.1236 54.9589 24.2569 54.6242 22.4171C54.2895 20.5772 51.9557 19.4609 49.4114 19.9237C46.8672 20.3865 45.076 22.2532 45.4107 24.0931C45.7454 25.933 48.0792 27.0493 50.6234 26.5865Z" fill="#FF808C"/>
<path d="M49.4426 27.6457C46.9114 27.6457 44.8371 26.3027 44.4657 24.2613C44.2477 23.0625 44.6637 21.8425 45.6375 20.8289C46.5305 19.8972 47.809 19.2422 49.2352 18.982C50.6614 18.7218 52.0887 18.8859 53.2524 19.4437C54.5203 20.0508 55.3395 21.0445 55.5575 22.2445C55.9934 24.6386 53.8981 26.9578 50.7891 27.5179C50.345 27.6009 49.8944 27.6436 49.4426 27.6457ZM50.543 20.7726C50.2168 20.7722 49.8913 20.8013 49.5703 20.8593C48.5508 21.0445 47.618 21.5144 47.0086 22.1484C46.6969 22.473 46.1965 23.134 46.3383 23.9168C46.5727 25.2129 48.4477 26.0027 50.4399 25.6418C52.4321 25.2808 53.9075 23.884 53.6707 22.5832C53.5278 21.8004 52.8258 21.3574 52.4203 21.164C51.8309 20.8974 51.1899 20.7637 50.543 20.7726Z" fill="#5E1235"/>
<path d="M33.7334 48.4566V41.4383C33.7335 40.1778 33.2782 38.9597 32.4514 38.0082C31.9557 37.4387 30.185 36.7191 30.1369 35.968C29.9752 33.4215 29.7326 27.568 30.8623 26.9164C32.3107 26.0809 32.4232 24.6031 32.674 21.8445C32.9248 19.0859 34.8479 16.5781 34.8479 16.5781H25.3721C25.3721 16.5781 27.2951 19.0859 27.5459 21.8445C27.7967 24.6031 27.7135 26.0797 29.1619 26.9164C30.2916 27.568 30.049 33.4215 29.8873 35.968C29.8393 36.7215 28.2643 37.4387 27.7686 38.0082C26.9409 38.9593 26.4848 40.1775 26.4842 41.4383V48.4566" fill="#FF3351"/>
<path d="M33.734 49.4113C33.4807 49.4113 33.2378 49.3107 33.0587 49.1316C32.8796 48.9525 32.779 48.7095 32.779 48.4562V41.4379C32.779 40.4078 32.4069 39.4124 31.7313 38.6348C31.6364 38.5258 31.2626 38.2832 31.0106 38.1227C30.6734 37.9145 30.349 37.6864 30.0391 37.4395C29.7536 37.6865 29.4539 37.9166 29.1415 38.1285C28.9107 38.2796 28.6925 38.4489 28.4887 38.6348C27.8131 39.4124 27.4411 40.4078 27.4411 41.4379V48.4562C27.4411 48.7095 27.3404 48.9525 27.1613 49.1316C26.9822 49.3107 26.7393 49.4113 26.486 49.4113C26.2327 49.4113 25.9898 49.3107 25.8106 49.1316C25.6315 48.9525 25.5309 48.7095 25.5309 48.4562V41.4379C25.5317 39.9476 26.0706 38.5078 27.0485 37.3832C27.3004 37.0938 27.659 36.8395 28.0399 36.5711C28.3129 36.3777 28.8098 36.0262 28.9399 35.8363C29.0008 34.8543 29.0395 33.9789 29.0571 33.1996C29.0383 32.418 29.0348 31.607 29.0571 30.8289C28.9973 28.8895 28.7852 27.9672 28.6176 27.7047C26.977 26.7215 26.854 25.1207 26.677 22.9164C26.6524 22.6082 26.6254 22.2801 26.5938 21.932C26.3711 19.477 24.6309 17.1824 24.6133 17.1602C24.5052 17.0187 24.4387 16.8498 24.4215 16.6726C24.4042 16.4953 24.4369 16.3168 24.5157 16.1571C24.5946 15.9975 24.7165 15.863 24.8677 15.769C25.019 15.675 25.1935 15.6251 25.3715 15.625H34.8473C35.0254 15.6251 35.1999 15.675 35.3511 15.769C35.5023 15.863 35.6243 15.9975 35.7031 16.1571C35.782 16.3168 35.8146 16.4953 35.7974 16.6726C35.7801 16.8498 35.7137 17.0187 35.6055 17.1602C35.5891 17.1824 33.8477 19.4922 33.6251 21.932L33.6133 22.0645C33.3649 24.8066 33.1985 26.6348 31.4067 27.7047C31.2391 27.9672 31.027 28.8895 30.9672 30.8289C30.9895 31.607 30.986 32.4168 30.9672 33.1984C30.9872 33.9707 31.0247 34.8391 31.0844 35.8094C31.2403 35.9992 31.7583 36.3332 32.0454 36.5184C32.4848 36.802 32.8997 37.0691 33.1715 37.3832C34.1491 38.5079 34.6876 39.9478 34.6879 41.4379V48.4562C34.6879 48.7093 34.5875 48.9521 34.4086 49.1312C34.2298 49.3103 33.9871 49.411 33.734 49.4113ZM27.1036 17.5363C27.6895 18.6086 28.3493 20.1332 28.4969 21.7621C28.5297 22.1137 28.5555 22.4523 28.5813 22.7664C28.7512 24.8828 28.8497 25.6375 29.636 26.0922C29.7757 26.1732 29.9018 26.2756 30.0098 26.3957C30.1178 26.2756 30.2439 26.1732 30.3836 26.0922C31.3317 25.5449 31.4653 24.5863 31.709 21.8945L31.7208 21.7621C31.8684 20.1344 32.5282 18.6086 33.1141 17.5363H27.1036Z" fill="#5E1235"/>
<path d="M33.5156 34.9293C33.2623 34.9293 33.0194 34.8287 32.8403 34.6496C32.6612 34.4704 32.5605 34.2275 32.5605 33.9742V31.6973C32.5605 31.444 32.6612 31.201 32.8403 31.0219C33.0194 30.8428 33.2623 30.7422 33.5156 30.7422C33.7689 30.7422 34.0119 30.8428 34.191 31.0219C34.3701 31.201 34.4707 31.444 34.4707 31.6973V33.9754C34.4704 34.2285 34.3696 34.4711 34.1906 34.65C34.0115 34.8288 33.7687 34.9293 33.5156 34.9293Z" fill="white"/>
</g>
<defs>
<clipPath id="clip0_815_41558">
<rect width="60" height="60" fill="white"/>
</clipPath>
</defs>
</svg>
