<svg width="60" height="60" viewBox="0 0 60 60" fill="none" xmlns="http://www.w3.org/2000/svg">
<g clip-path="url(#clip0_815_41514)">
<path d="M13.2207 26.1672C13.2207 26.1672 13.5523 25.0715 13.8863 23.4004C14.5156 20.2457 15.1531 15.0379 13.5816 11.2668C13.5816 11.2668 15.7449 9.34375 20.6715 9.34375C20.6715 9.34375 22.2336 13.4289 21.5129 18.1152C20.7922 22.8016 13.2207 26.1672 13.2207 26.1672Z" fill="#5E93FF"/>
<path d="M18.0285 18.8387C18.0285 18.8387 17.0676 17.0364 19.2297 14.6328C21.3918 12.2293 24.877 9.94535 23.6758 7.06253C22.4746 4.17972 20.9125 3.33714 20.9125 3.33714C20.9125 3.33714 23.3207 -0.50778 27.1609 0.693392C27.1609 0.693392 27.6414 6.34066 30.5254 7.90277C33.4094 9.46488 35.5715 5.97738 36.052 3.57738C36.052 3.57738 38.6957 2.49574 40.1371 5.26019C40.1371 5.26019 42.9004 5.01996 43.2613 7.42347C43.2613 7.42347 41.9395 9.10628 42.5406 10.6684C42.5406 10.6684 46.6258 10.3075 46.266 16.5559C45.9062 22.8043 15.1445 34.1024 15.1445 34.1024L18.0285 18.8387Z" fill="#FFE3B8"/>
<path d="M34.3704 21.1195C34.3704 21.1195 38.9407 15.1113 48.6672 14.8711C48.6672 14.8711 50.8305 18.2355 48.6672 23.1621C48.6672 23.1621 41.9383 23.2793 37.3715 26.8875C32.8047 30.4957 34.3704 21.1195 34.3704 21.1195Z" fill="#FFC7CA"/>
<path d="M12.7404 40.4672C12.7404 40.4672 12.2599 46.2352 22.1154 53.0848C31.9708 59.9344 40.8654 61.2563 42.9032 57.4102C44.9411 53.5641 42.3044 50.1996 45.1837 44.9121C48.063 39.6246 46.3849 37.2223 46.3849 37.2223C46.3849 37.2223 47.5861 36.5016 46.8654 33.3773C46.1447 30.2531 44.9423 30.1324 44.4618 27.2496C43.9814 24.3668 43.14 21.6023 41.0974 22.3277C41.0974 22.3277 40.3767 19.8047 34.7282 20.1645C29.0798 20.5242 27.8786 25.6922 24.0337 28.0957C20.1888 30.4992 18.2657 30.259 18.2657 30.259C18.2657 30.259 20.6693 24.1313 18.0255 18.8438C18.0279 18.8379 5.17005 29.1715 12.7404 40.4672Z" fill="#F55555"/>
<path d="M12.6379 40.3121C12.5746 39.4707 12.6485 38.0375 13.4582 36.2633C14.7801 33.3793 17.7567 31.8992 18.2629 30.2551C19.736 25.4867 19.1805 22.0742 18.6145 20.2824C18.45 19.7881 18.2507 19.306 18.018 18.8398C18.018 18.8398 5.29026 29.0762 12.6379 40.3121Z" fill="#F55555"/>
<path d="M12.7402 40.4668C12.7315 40.6892 12.7424 40.912 12.773 41.1324L12.7402 40.4668Z" fill="#FFC7CA"/>
<path d="M46.3949 37.2162C46.4992 37.1459 47.5527 36.349 46.8637 33.3771C46.1429 30.2529 44.9406 30.1322 44.4601 27.2494C43.9797 24.3666 43.15 21.6314 41.1332 22.3123C41.8234 24.0783 39.6367 26.9775 38.5773 29.4115C37.3762 32.1748 39.8992 33.6174 42.9027 34.699C45.2441 35.5416 46.1219 36.7322 46.3949 37.2162Z" fill="#FFC7CA"/>
<path d="M40.1379 5.25977C40.1379 5.25977 38.6965 7.90352 38.6965 10.0645L40.1379 5.25977Z" fill="#F55555"/>
<path d="M38.6951 10.5283C38.5727 10.5283 38.4552 10.4797 38.3686 10.3931C38.282 10.3065 38.2334 10.1891 38.2334 10.0666C38.2334 7.81192 39.6701 5.15176 39.7322 5.03926C39.7908 4.93126 39.8899 4.85095 40.0077 4.81601C40.1255 4.78106 40.2523 4.79434 40.3604 4.85293C40.4684 4.91152 40.5487 5.01061 40.5836 5.1284C40.6185 5.2462 40.6053 5.37305 40.5467 5.48106C40.5326 5.50684 39.1615 8.04981 39.1615 10.0666C39.1615 10.1276 39.1494 10.1881 39.1259 10.2444C39.1024 10.3007 39.068 10.3518 39.0246 10.3948C38.9813 10.4377 38.9298 10.4716 38.8732 10.4945C38.8167 10.5175 38.7561 10.5289 38.6951 10.5283Z" fill="black"/>
<path d="M22.2808 53.4585C22.2115 53.4586 22.143 53.4431 22.0805 53.413C22.018 53.383 21.9631 53.3392 21.9199 53.285C21.0567 52.1492 20.3616 50.8949 19.8562 49.5608C18.7898 46.6909 19.0757 44.1772 20.6836 42.2952C20.7229 42.249 20.7709 42.211 20.8249 42.1834C20.8789 42.1558 20.9378 42.1391 20.9982 42.1343C21.0587 42.1294 21.1195 42.1366 21.1772 42.1552C21.2349 42.1739 21.2884 42.2037 21.3345 42.243C21.3807 42.2824 21.4187 42.3304 21.4463 42.3844C21.4739 42.4384 21.4906 42.4973 21.4954 42.5577C21.5003 42.6182 21.4932 42.679 21.4745 42.7367C21.4558 42.7944 21.426 42.8478 21.3867 42.894C18.0234 46.8421 22.5949 52.6557 22.6418 52.7132C22.696 52.781 22.73 52.8628 22.7398 52.9491C22.7497 53.0354 22.735 53.1228 22.6974 53.2011C22.6598 53.2795 22.6009 53.3456 22.5274 53.392C22.4539 53.4383 22.3689 53.463 22.282 53.4632L22.2808 53.4585Z" fill="black"/>
<path d="M21.3786 49.0286C20.7594 49.0223 20.1596 48.8118 19.6723 48.4298C19.6237 48.3935 19.5827 48.3481 19.5516 48.296C19.5205 48.2439 19.5001 48.1862 19.4913 48.1262C19.4825 48.0662 19.4857 48.005 19.5006 47.9462C19.5154 47.8874 19.5417 47.8321 19.578 47.7835C19.6142 47.7349 19.6597 47.6938 19.7118 47.6628C19.7639 47.6317 19.8216 47.6112 19.8816 47.6025C19.9416 47.5937 20.0027 47.5968 20.0615 47.6117C20.1203 47.6266 20.1756 47.6529 20.2243 47.6891C21.9938 49.0075 23.7082 46.7645 23.7797 46.6684C23.8543 46.5736 23.9631 46.5117 24.0827 46.4961C24.2024 46.4804 24.3234 46.5122 24.4198 46.5847C24.5163 46.6571 24.5806 46.7644 24.599 46.8837C24.6173 47.0029 24.5883 47.1246 24.518 47.2227C23.9461 47.9845 22.745 49.0286 21.3786 49.0286Z" fill="black"/>
<path d="M33.2456 46.316C33.1481 46.316 33.0531 46.285 32.9742 46.2277C32.8954 46.1703 32.8367 46.0894 32.8067 45.9966C32.7766 45.9039 32.7767 45.804 32.8069 45.7112C32.8371 45.6185 32.8959 45.5377 32.9749 45.4805C33.0745 45.4067 35.4605 43.5961 35.4605 39.1114C35.4605 33.9551 40.5745 33.2965 40.6261 33.2907C40.7453 33.2807 40.8637 33.3175 40.9564 33.3931C41.0491 33.4688 41.1088 33.5775 41.1229 33.6963C41.137 33.8151 41.1045 33.9347 41.0321 34.03C40.9598 34.1253 40.8533 34.1888 40.7351 34.2071C40.5569 34.2282 36.3839 34.786 36.3839 39.1114C36.3839 44.0942 33.6335 46.1426 33.5163 46.2282C33.4377 46.2854 33.3429 46.3161 33.2456 46.316Z" fill="black"/>
<path d="M40.1374 40.9265C40.0978 40.9261 40.0584 40.9206 40.0202 40.9101C39.903 40.8785 37.1726 40.1003 35.9316 37.0195C35.9078 36.963 35.8956 36.9024 35.8955 36.8412C35.8954 36.78 35.9075 36.7193 35.9311 36.6628C35.9547 36.6063 35.9893 36.5551 36.0329 36.512C36.0764 36.469 36.1281 36.4351 36.1849 36.4123C36.2417 36.3894 36.3025 36.3781 36.3638 36.379C36.425 36.3798 36.4854 36.3929 36.5416 36.4173C36.5977 36.4417 36.6484 36.4771 36.6908 36.5213C36.7331 36.5656 36.7662 36.6178 36.7882 36.675C37.8534 39.3175 40.1679 39.9937 40.2663 40.0207C40.3742 40.0502 40.4677 40.118 40.5295 40.2113C40.5912 40.3046 40.6169 40.4172 40.6019 40.528C40.5868 40.6389 40.532 40.7405 40.4477 40.8141C40.3633 40.8876 40.2552 40.9279 40.1433 40.9277L40.1374 40.9265Z" fill="black"/>
<path d="M13.8868 23.8618C13.8184 23.8619 13.7509 23.8468 13.6891 23.8176C13.6273 23.7885 13.5727 23.746 13.5293 23.6932C13.4859 23.6404 13.4548 23.5786 13.4382 23.5123C13.4216 23.446 13.4199 23.3768 13.4332 23.3098C13.9981 20.4821 14.7118 15.1805 13.1555 11.4446C13.1183 11.3561 13.1096 11.2582 13.1306 11.1645C13.1516 11.0708 13.2013 10.986 13.2727 10.9219C13.3664 10.8387 15.6247 8.88286 20.6684 8.88286C20.7575 8.88158 20.8451 8.90613 20.9206 8.95354C20.9961 9.00095 21.0562 9.0692 21.0938 9.15005C21.1149 9.19575 21.6176 10.2915 21.9293 12.2942C21.9414 12.3552 21.941 12.4181 21.9281 12.4789C21.9153 12.5398 21.8903 12.5974 21.8546 12.6484C21.8189 12.6994 21.7733 12.7426 21.7205 12.7755C21.6677 12.8084 21.6088 12.8302 21.5473 12.8398C21.4858 12.8494 21.4231 12.8464 21.3628 12.8311C21.3025 12.8158 21.2459 12.7885 21.1964 12.7508C21.147 12.713 21.1056 12.6657 21.0749 12.6116C21.0442 12.5575 21.0247 12.4978 21.0176 12.436C20.8881 11.5411 20.6699 10.6614 20.3661 9.80981C16.8106 9.87075 14.8137 10.9817 14.1457 11.427C15.552 15.1512 15.0364 20.0168 14.3438 23.4915C14.3225 23.5967 14.2653 23.6912 14.1819 23.7588C14.0985 23.8264 13.9941 23.8628 13.8868 23.8618Z" fill="black"/>
<path d="M18.0242 19.2965C17.9411 19.2966 17.8596 19.2741 17.7884 19.2314C17.7171 19.1886 17.6589 19.1273 17.6199 19.0539C17.5742 18.9684 16.5336 16.9364 18.8855 14.3219C19.3543 13.7957 19.898 13.2672 20.4195 12.7657C22.2945 10.9399 24.0723 9.21488 23.2484 7.23793C22.1363 4.56957 20.7043 3.74925 20.6891 3.74105C20.6347 3.71014 20.5871 3.66866 20.549 3.61907C20.5109 3.56947 20.4831 3.51275 20.4673 3.45225C20.4514 3.39175 20.4479 3.3287 20.4568 3.2668C20.4657 3.2049 20.4869 3.14541 20.5191 3.09183C20.5449 3.05082 23.1594 -1.0402 27.2961 0.252378C27.3835 0.279693 27.4608 0.332383 27.5182 0.403747C27.5756 0.475112 27.6104 0.561928 27.6183 0.653159C27.6183 0.707066 28.1129 6.07191 30.7426 7.49691C31.4797 7.89652 32.2027 7.93519 32.8906 7.6141C34.2535 6.97543 35.2836 5.05472 35.5976 3.48793C35.6126 3.41332 35.6458 3.34357 35.6943 3.2849C35.7427 3.22622 35.805 3.18043 35.8754 3.1516C36.8867 2.73793 39.084 2.57855 40.4 4.79222C41.559 4.79222 43.4082 5.31019 43.7152 7.35863C43.7242 7.42052 43.7206 7.4836 43.7044 7.54403C43.6883 7.60447 43.6601 7.661 43.6215 7.71019C43.6109 7.72308 42.6336 8.99925 42.8832 10.2121C43.6877 10.268 44.4534 10.5792 45.0687 11.1004C46.0426 11.9325 46.598 13.2532 46.7211 15.0262C46.727 15.147 46.6854 15.2652 46.6051 15.3556C46.5248 15.446 46.4122 15.5013 46.2916 15.5096C46.1709 15.5179 46.0519 15.4785 45.96 15.4C45.868 15.3214 45.8106 15.2099 45.8 15.0895C45.6957 13.5731 45.248 12.4668 44.4687 11.8024C43.943 11.3521 43.2693 11.1121 42.5773 11.1286C42.4779 11.1369 42.3784 11.1128 42.2939 11.0597C42.2093 11.0067 42.1443 10.9276 42.1086 10.8344C41.5355 9.34496 42.4238 7.82503 42.7707 7.31878C42.3723 5.56097 40.2687 5.71683 40.1762 5.72503C40.0845 5.73247 39.9927 5.71235 39.9125 5.66725C39.8323 5.62215 39.7674 5.55413 39.7262 5.47191C38.7066 3.51722 37.0426 3.76566 36.4449 3.93089C36.0383 5.62542 34.9133 7.68089 33.2808 8.4473C32.3269 8.89496 31.2957 8.84691 30.3008 8.30785C27.616 6.85121 26.8871 2.31488 26.7336 1.05394C24.0933 0.40355 22.2148 2.38988 21.5621 3.2266C22.148 3.69535 23.225 4.77347 24.1039 6.88285C25.1691 9.43871 23.0832 11.4661 21.0664 13.4266C20.5555 13.9223 20.0281 14.4356 19.5758 14.9383C17.6797 17.0477 18.4039 18.5594 18.4402 18.6227C18.4761 18.6932 18.4933 18.7718 18.4901 18.8509C18.487 18.93 18.4636 19.007 18.4222 19.0744C18.3808 19.1419 18.3228 19.1977 18.2538 19.2363C18.1847 19.275 18.1069 19.2953 18.0277 19.2953L18.0242 19.2965Z" fill="black"/>
<path d="M43.6087 24.4028C43.4965 24.4027 43.3882 24.3618 43.3041 24.2877C43.2199 24.2136 43.1655 24.1114 43.1512 24.0002C43.1368 23.8889 43.1634 23.7763 43.2261 23.6833C43.2887 23.5902 43.383 23.5232 43.4915 23.4946C45.0838 23.0733 46.7141 22.8114 48.3583 22.7129C49.9286 18.8985 48.7954 16.12 48.4016 15.3419C41.62 15.5879 37.4797 18.6465 35.6024 20.4641C35.5592 20.5078 35.5076 20.5424 35.4509 20.5659C35.3941 20.5895 35.3332 20.6014 35.2717 20.6011C35.2102 20.6007 35.1495 20.5881 35.0929 20.564C35.0364 20.5399 34.9853 20.5047 34.9425 20.4605C34.8997 20.4164 34.8662 20.3641 34.8439 20.3068C34.8216 20.2495 34.811 20.1884 34.8127 20.127C34.8143 20.0655 34.8282 20.005 34.8536 19.949C34.8789 19.893 34.9152 19.8426 34.9602 19.8008C36.9594 17.8649 41.3973 14.5895 48.6571 14.4102C48.7362 14.409 48.8143 14.4278 48.8842 14.4649C48.9541 14.502 49.0134 14.5561 49.0567 14.6223C49.1505 14.7688 51.3278 18.2551 49.0907 23.3481C49.0552 23.4287 48.9974 23.4974 48.9241 23.5462C48.8508 23.595 48.765 23.6218 48.677 23.6235C47.0045 23.7004 45.3451 23.9562 43.727 24.3864C43.6884 24.397 43.6487 24.4025 43.6087 24.4028Z" fill="black"/>
<path d="M38.1636 60.0004C36.482 60.0004 34.5062 59.6347 32.3324 58.9129C29.0253 57.8148 25.4007 55.9304 21.8499 53.4625C12.7093 47.1074 12.2687 41.6406 12.2745 40.5988C9.15736 35.8562 9.11049 30.5312 12.1445 25.1886C13.6128 22.6487 15.5049 20.3789 17.739 18.4773C17.7928 18.434 17.8555 18.4032 17.9228 18.3874C17.99 18.3715 18.0599 18.3709 18.1273 18.3856C18.1948 18.4004 18.2581 18.43 18.3126 18.4725C18.3671 18.5149 18.4113 18.569 18.4421 18.6308C20.6617 23.0711 19.4792 27.9929 18.9273 29.7566C19.7382 29.6394 21.366 29.2152 23.7929 27.6988C25.1499 26.8504 26.1554 25.6515 27.2183 24.3824C29.0488 22.198 30.9425 19.9386 34.7019 19.6949C39.3109 19.4019 40.8648 20.984 41.3464 21.7761C41.8122 21.6835 42.2957 21.767 42.7035 22.0105C43.7441 22.6246 44.4273 24.216 44.9195 27.1668C45.1538 28.559 45.5476 29.2445 46.0058 30.0379C46.6206 31.033 47.0639 32.1244 47.3171 33.2664C47.8749 35.6804 47.3488 36.823 46.955 37.3082C47.3417 38.1941 47.9886 40.7324 45.591 45.1269C44.0851 47.8879 44.1449 50.0746 44.2035 52.1886C44.2538 54.0226 44.3019 55.7547 43.3105 57.6191C42.748 58.6738 41.7003 59.4179 40.2812 59.7625C39.5872 59.9251 38.8764 60.005 38.1636 60.0004ZM13.2027 40.5027C13.2027 40.5285 13.1206 41.916 14.1894 44.0863C15.1878 46.1148 17.4191 49.2566 22.3796 52.7043C29.1519 57.4117 36.0906 59.8328 40.0656 58.8718C41.2374 58.5883 42.0578 58.0234 42.496 57.1926C43.3726 55.5426 43.3304 54.0027 43.2812 52.2203C43.2226 50.0875 43.1558 47.6711 44.7812 44.691C47.4636 39.7691 46.0222 37.5039 46.007 37.4816C45.9685 37.4294 45.9415 37.3696 45.928 37.3061C45.9144 37.2426 45.9146 37.177 45.9285 37.1136C45.9417 37.0536 45.9677 36.9971 46.0047 36.9479C46.0417 36.8988 46.0888 36.8582 46.1429 36.8289C46.2214 36.7644 47.0101 36.039 46.4195 33.4797C46.082 32.0195 45.6378 31.2531 45.2078 30.5054C44.7472 29.7062 44.2703 28.8812 44.0101 27.3238C43.8519 26.3722 43.3691 23.4754 42.2359 22.8062C41.9488 22.6363 41.6371 22.6211 41.255 22.7558C41.1956 22.7768 41.1326 22.7854 41.0697 22.7811C41.0069 22.7768 40.9456 22.7597 40.8896 22.7308C40.8336 22.702 40.7841 22.662 40.7442 22.6133C40.7043 22.5645 40.6747 22.5082 40.6574 22.4476C40.6574 22.4336 39.8956 20.289 34.7617 20.6183C31.396 20.8328 29.7109 22.8449 27.9261 24.9742C26.8632 26.2422 25.764 27.5523 24.2828 28.4804C20.3441 30.9414 18.298 30.7211 18.2136 30.707C18.1438 30.6983 18.0769 30.6737 18.018 30.6352C17.9591 30.5967 17.9098 30.5452 17.8738 30.4847C17.8379 30.4243 17.8162 30.3563 17.8105 30.2862C17.8048 30.2161 17.8152 30.1455 17.841 30.08C17.8632 30.0226 19.9761 24.4926 17.8691 19.5824C16.9152 20.4402 14.637 22.6574 12.9367 25.6621C10.0304 30.7972 10.0949 35.6898 13.1253 40.2097C13.1829 40.2961 13.2098 40.3993 13.2015 40.5027H13.2027Z" fill="black"/>
<path d="M12.6374 40.7711C12.5606 40.7712 12.4851 40.7521 12.4176 40.7157C12.3501 40.6793 12.2927 40.6266 12.2506 40.5625C9.14517 35.814 9.11939 30.4843 12.1756 25.1312C13.6396 22.6144 15.5202 20.3645 17.7374 18.4773C17.7911 18.434 17.8539 18.4032 17.9211 18.3874C17.9883 18.3715 18.0582 18.3709 18.1257 18.3856C18.1932 18.4004 18.2565 18.43 18.311 18.4725C18.3654 18.5149 18.4097 18.569 18.4405 18.6308C18.6826 19.1168 18.8902 19.6192 19.0616 20.1343C19.5924 21.8289 20.2499 25.4078 18.71 30.3894C18.4417 31.2566 17.6495 32.016 16.7319 32.8937C15.7147 33.8676 14.5616 34.9715 13.8819 36.4539C13.1213 38.1121 13.037 39.448 13.0991 40.2765C13.1038 40.3399 13.0953 40.4035 13.0743 40.4634C13.0533 40.5233 13.0201 40.5783 12.9769 40.6248C12.9336 40.6713 12.8813 40.7084 12.8231 40.7338C12.7649 40.7592 12.702 40.7722 12.6385 40.7722L12.6374 40.7711ZM17.8663 19.5859C16.917 20.439 14.6624 22.6328 12.9643 25.6117C10.3487 30.2008 10.1073 34.6023 12.2401 38.7179C12.3788 37.8005 12.6487 36.9077 13.0417 36.0672C13.794 34.4265 15.069 33.2054 16.0885 32.2258C16.9088 31.4359 17.626 30.7539 17.8229 30.1164C19.2901 25.3691 18.676 22.0023 18.1745 20.4179C18.0889 20.1367 17.9835 19.8578 17.8663 19.5859Z" fill="black"/>
<path d="M12.7732 41.5926C12.6599 41.5925 12.5507 41.5507 12.4662 41.4753C12.3817 41.3999 12.3279 41.2961 12.315 41.1836C12.2815 40.9335 12.2709 40.6809 12.2833 40.4289C12.293 40.3137 12.3456 40.2063 12.4307 40.1279C12.5157 40.0496 12.6271 40.006 12.7427 40.0059H12.7521C12.8693 40.0081 12.9813 40.0549 13.0654 40.1368C13.1494 40.2186 13.1991 40.3293 13.2044 40.4465L13.2349 41.1109C13.2401 41.2304 13.1989 41.3472 13.1197 41.4368C13.0406 41.5264 12.9298 41.5818 12.8107 41.5914L12.7732 41.5926Z" fill="black"/>
<path d="M46.3946 37.6785C46.3128 37.6785 46.2326 37.6569 46.1619 37.6157C46.0913 37.5745 46.0329 37.5153 45.9926 37.4442C45.7489 37.0129 44.945 35.9207 42.7442 35.1344C40.9243 34.4793 38.7458 33.5184 38.0438 31.8942C37.6922 31.0891 37.7321 30.1926 38.1516 29.2293C38.4551 28.5262 38.8547 27.7949 39.2321 27.0813C40.1602 25.3481 41.1212 23.5563 40.7005 22.4817C40.6777 22.4235 40.6669 22.3612 40.6689 22.2988C40.6709 22.2363 40.6855 22.1749 40.7119 22.1182C40.7383 22.0616 40.7759 22.0109 40.8225 21.9692C40.8691 21.9275 40.9236 21.8958 40.9829 21.8758C41.6145 21.6625 42.1969 21.7129 42.7149 22.0223C43.7485 22.6422 44.4282 24.2313 44.918 27.1785C45.1524 28.5707 45.5462 29.2563 46.0044 30.0508C46.6192 31.0459 47.0625 32.1373 47.3157 33.2793C48.0516 36.4692 46.8926 37.4418 46.6536 37.6047C46.5765 37.6545 46.4863 37.6802 46.3946 37.6785ZM41.6965 22.6692C41.8934 24.0684 40.9559 25.818 40.0465 27.516C39.6727 28.2133 39.2872 28.9328 38.9989 29.5961C38.6813 30.3262 38.6473 30.9578 38.8922 31.5274C39.4536 32.827 41.413 33.6731 43.0583 34.2649C44.8934 34.9258 45.8942 35.8082 46.411 36.4363C46.6126 35.9887 46.7919 35.1039 46.4169 33.482C46.0794 32.0219 45.6352 31.2555 45.2051 30.5078C44.7434 29.7086 44.2676 28.8836 44.0075 27.3262C43.8493 26.3781 43.3688 23.4918 42.2403 22.8145C42.0776 22.7128 41.8882 22.6622 41.6965 22.6692Z" fill="black"/>
</g>
<defs>
<clipPath id="clip0_815_41514">
<rect width="60" height="60" fill="white"/>
</clipPath>
</defs>
</svg>
