<svg width="60" height="60" viewBox="0 0 60 60" fill="none" xmlns="http://www.w3.org/2000/svg">
<g clip-path="url(#clip0_815_41573)">
<path d="M28.1731 57.7901C29.2575 57.7901 30.0192 57.0283 30.0192 55.9441V37.165C30.0192 28.1205 37.4946 20.5279 46.5391 20.5279V16.8357C35.3295 16.8357 26.2098 25.9553 26.2098 37.165V55.9441C26.2098 56.5892 26.5209 57.1617 27.0014 57.5196C27.0764 57.5755 27.1556 57.6262 27.2384 57.6711C27.5163 57.8218 27.8347 57.7901 28.1731 57.7901Z" fill="#3C87D0"/>
<path d="M46.5391 16.8357V20.7626C37.4945 20.7626 30.1363 28.1209 30.1363 37.1654V55.9447C30.1363 57.0287 29.2574 57.9076 28.1735 57.9076C27.8336 57.9076 27.5149 57.822 27.2371 57.6697C27.8477 57.3357 28.2613 56.6888 28.2613 55.9447V37.1654C28.2613 28.1209 35.6195 20.7626 44.6641 20.7626V16.9224C45.2817 16.865 45.9074 16.8357 46.5391 16.8357Z" fill="#0078C8"/>
<path d="M38.0016 27.2459C36.4762 30.8842 38.0068 35.1124 41.5342 36.8794C42.4084 37.3173 43.3264 37.6313 44.2768 37.806C44.8526 37.9118 45.4403 37.8492 46.0374 37.8492C53.2632 37.8492 59.0025 29.9621 59.0025 20.0877C59.0025 10.2121 53.2632 2.32491 46.0374 2.32491C45.9387 2.32491 45.8403 2.32643 45.7421 2.32936C45.271 2.34366 44.8138 2.28389 44.3737 2.38045C40.2503 3.28455 37.6123 7.61135 38.8286 11.856C39.4072 13.8749 40.9706 16.0724 40.9706 18.3709C40.9706 21.6011 39.0979 24.631 38.0016 27.2459Z" fill="#F47C7C"/>
<path d="M32.0944 57.673C31.7338 57.673 31.396 57.693 31.1056 57.5233C30.5227 57.1829 30.1311 56.5505 30.1311 55.8268V37.0478C30.1311 28.0033 22.7729 20.6451 13.7283 20.6451V16.8357C24.9379 16.8357 33.9405 25.8382 33.9405 37.0478V55.8269C33.9405 56.9112 33.1788 57.673 32.0944 57.673Z" fill="#E94444"/>
<path d="M59.1199 20.088C59.1199 29.9623 53.2629 37.9673 46.0371 37.9673C45.4407 37.9673 44.8524 37.9123 44.277 37.8068C50.6731 36.6349 55.6043 29.149 55.6043 20.088C55.6043 11.0658 50.7153 3.60562 44.3602 2.38452C44.8043 2.28491 45.266 2.22632 45.7418 2.21226C45.8403 2.20991 45.9387 2.20874 46.0371 2.20874C53.2629 2.20874 59.1199 10.2126 59.1199 20.088Z" fill="#EE6161"/>
<path d="M34.057 37.0482V55.8275C34.057 56.9115 33.1781 57.7904 32.0941 57.7904C31.7309 57.7904 31.3898 57.6908 31.098 57.5185C31.677 57.1775 32.0648 56.547 32.0648 55.8275V37.0482C32.0648 26.5107 24.0059 17.8201 13.7285 16.8158V16.7185C24.9375 16.7185 34.057 25.838 34.057 37.0482Z" fill="#D83131"/>
<path d="M21.8787 27.2456C23.4041 30.8839 21.9907 34.995 18.4634 36.762C17.0596 37.4652 15.5427 37.849 13.9602 37.849C13.3363 37.849 12.7226 37.9065 12.122 37.7911C5.76669 36.57 0.877747 29.1091 0.877747 20.0875C0.877747 11.0646 5.76658 3.60375 12.1219 2.38253C12.7225 2.2671 13.3362 2.32464 13.9601 2.32464C14.0588 2.32464 14.1572 2.32617 14.2554 2.3291C19.1399 2.47687 22.3977 7.15804 21.0516 11.8557C20.473 13.8746 18.9096 16.0721 18.9096 18.3707C18.9096 21.6008 20.7823 24.6307 21.8787 27.2456Z" fill="#F47C7C"/>
<path d="M18.4629 36.8798C17.059 37.583 15.5426 37.9673 13.9606 37.9673C13.3652 37.9673 12.7793 37.9134 12.2051 37.8068C13.1555 37.6322 14.0731 37.3181 14.9473 36.8798C18.4746 35.1126 20.0051 30.8845 18.4805 27.247C17.3836 24.6314 15.5109 21.6021 15.5109 18.3712C15.5109 16.0732 17.0742 13.8759 17.6531 11.8568C18.8684 7.61694 16.2375 3.2939 12.1219 2.38452C12.7219 2.26851 13.3359 2.20874 13.9606 2.20874C14.059 2.20874 14.1574 2.20991 14.2559 2.21226C19.1402 2.35991 22.5152 7.15874 21.1688 11.8568C20.5899 13.8759 19.0266 16.0732 19.0266 18.3712C19.0266 21.6021 20.8992 24.6314 21.9961 27.247C23.5207 30.8845 21.9902 35.1126 18.4629 36.8798Z" fill="#EE6161"/>
<path d="M55.9989 6.92636C53.3583 3.31733 49.821 1.32983 46.0386 1.32983C43.3771 1.32983 40.866 2.58362 39.2929 4.73788C37.7332 6.87362 37.2565 9.55675 37.985 12.0992C38.4616 13.7624 39.4136 15.2458 39.874 16.9146C36.0818 18.1757 32.6795 20.5222 30.1318 23.6275C27.5828 20.5098 24.1494 18.1062 20.1491 16.8342C20.6188 15.1979 21.5457 13.7357 22.0146 12.0992C22.7432 9.55687 22.2664 6.87374 20.7068 4.73788C19.1339 2.58386 16.6227 1.32983 13.961 1.32983C10.1787 1.32983 6.64148 3.31733 4.00078 6.92636C1.4209 10.4528 0 15.1271 0 20.0887C0 25.5701 1.76965 30.7584 4.8552 34.3235C5.17277 34.6904 5.72777 34.7306 6.09492 34.4129C6.46195 34.0953 6.50203 33.5402 6.18434 33.1732C3.37125 29.9229 1.75781 25.1538 1.75781 20.0887C1.75781 10.7143 7.23223 3.08765 13.9613 3.08765C16.0635 3.08765 18.0442 4.07202 19.2874 5.77452C21.1318 8.30026 20.6747 11.0743 19.4789 13.7441C18.8556 15.1358 18.1491 16.7132 18.1491 18.3721C18.1491 21.0615 19.3245 23.5625 20.3614 25.7691C20.6607 26.406 20.9435 27.0075 21.1864 27.5869C22.5362 30.8064 21.1677 34.5435 18.0708 36.0948C16.7542 36.7543 15.3715 37.0887 13.9613 37.0887C12.1882 37.0887 10.477 36.5667 8.87531 35.5373C8.46715 35.2751 7.92316 35.3933 7.66078 35.8016C7.3984 36.2099 7.51664 36.7537 7.92504 37.0161C9.8148 38.2307 11.8458 38.8465 13.9614 38.8465C15.6475 38.8465 17.295 38.4494 18.8582 37.6664C22.7789 35.7026 24.5138 30.9765 22.8076 26.9072C22.3199 25.7436 21.7455 24.6187 21.2364 23.4648C23.5734 24.7583 25.5479 26.6539 26.9503 28.9255C25.8769 31.5027 25.332 34.2329 25.332 37.0491V55.8281C25.332 57.3953 26.607 58.6703 28.1741 58.6703C28.9338 58.6703 29.6243 58.37 30.1348 57.8828C30.6452 58.37 31.3357 58.6703 32.0954 58.6703C33.6627 58.6703 34.9376 57.3953 34.9376 55.8281V48.6077C34.9376 48.1223 34.5441 47.7288 34.0587 47.7288C33.5733 47.7288 33.1798 48.1223 33.1798 48.6077V55.8281C33.1798 56.426 32.6933 56.9125 32.0954 56.9125C31.5211 56.9125 31.0509 56.4634 31.0146 55.8981C31.0152 55.8748 31.0164 55.8516 31.0164 55.8281C31.0164 55.796 31.0144 55.7644 31.0111 55.7331V37.0489C31.0111 33.4944 29.9355 30.0776 27.9008 27.1678C25.9957 24.4434 23.3865 22.3483 20.3375 21.0833C20.097 20.2686 19.939 19.4434 19.9134 18.6069C27.7767 21.2474 33.1798 28.6802 33.1798 37.0491V44.7773C33.1798 45.2627 33.5733 45.6562 34.0587 45.6562C34.5441 45.6562 34.9376 45.2627 34.9376 44.7773V37.0491C34.9376 34.2022 34.3637 31.4548 33.3144 28.9342C34.6458 26.7741 36.497 24.9643 38.6686 23.6783C38.1844 24.7581 37.6501 25.8157 37.1925 26.9072C35.4864 30.9765 37.2213 35.7025 41.142 37.6664C42.7051 38.4494 44.3527 38.8465 46.0387 38.8465C48.8565 38.8465 51.5691 37.7311 53.883 35.6211C54.2418 35.2941 54.2674 34.7381 53.9403 34.3795C53.613 34.0207 53.0572 33.9951 52.6988 34.3222C50.7139 36.1321 48.411 37.0887 46.0387 37.0887C44.6285 37.0887 43.2458 36.7542 41.9292 36.0948C38.8323 34.5436 37.4638 30.8064 38.8136 27.5869C39.0565 27.0074 39.3393 26.4057 39.6386 25.7688C40.6755 23.5623 41.8508 21.0615 41.8508 18.3721C41.8508 16.7132 41.1443 15.1358 40.521 13.7441C40.1842 12.9921 39.8659 12.2817 39.6749 11.615C39.0968 9.59788 39.475 7.46905 40.7125 5.77452C41.9556 4.07214 43.9363 3.08765 46.0386 3.08765C52.7678 3.08765 58.2422 10.7143 58.2422 20.0887C58.2422 24.3442 57.1017 28.4191 55.0308 31.5632C54.7637 31.9685 54.8759 32.5135 55.2813 32.7806C55.6867 33.0477 56.2317 32.9355 56.4988 32.5301C58.7565 29.1023 60 24.6839 60 20.0887C60 15.1271 58.579 10.4528 55.9989 6.92636ZM29.2549 55.898C29.2186 56.4633 28.7484 56.9123 28.1741 56.9123C27.5761 56.9123 27.0898 56.4259 27.0898 55.828V37.0489C27.0898 34.9837 27.4092 32.9693 28.04 31.0371C28.8373 32.9265 29.2532 34.9608 29.2532 37.0489V55.828C29.253 55.8514 29.2543 55.8746 29.2549 55.898ZM32.4342 27.0775C32.0661 26.3892 31.6602 25.7226 31.22 25.0801C33.5094 22.1587 36.6089 19.9308 40.0839 18.7011C40.0479 19.5497 39.8767 20.3866 39.6238 21.2127C36.7506 22.4732 34.2513 24.5182 32.4342 27.0775Z" fill="#2E2E2E"/>
</g>
<defs>
<clipPath id="clip0_815_41573">
<rect width="60" height="60" fill="white"/>
</clipPath>
</defs>
</svg>
