<svg width="60" height="60" viewBox="0 0 60 60" fill="none" xmlns="http://www.w3.org/2000/svg">
<path d="M52.8328 58.8141H7.16718C7.16718 58.8141 8.52655 44.25 9.61874 40.186C10.5797 36.6047 13.7672 33.1735 17.3015 32.5031C19.4203 32.0953 21.4078 31.7906 22.7156 31.3735C23.6578 31.0688 24.4078 30.3844 24.2531 29.4094C24.0375 28.0547 23.6578 26.536 23.3859 26.236C22.6219 25.3922 21.6984 25.5891 20.4234 25.6406C16.6406 25.7953 16.8984 23.8547 16.8984 21.8438C16.9185 21.1899 16.8037 20.5388 16.5609 19.9313C16.5013 19.81 16.429 19.6953 16.3453 19.5891C15.6984 18.7735 14.5312 18.6656 14.6203 17.8219C14.7564 17.3762 14.9741 16.9598 15.2625 16.5938H15.2672C15.9047 15.6235 16.7953 14.3719 16.8187 13.3828C16.8375 12.6797 16.5797 11.7188 16.5328 10.9875C16.1203 4.44377 22.2375 0.8344 28.4859 1.15784C34.2047 1.45315 38.6765 4.87971 39.3375 10.6922C39.7219 14.0906 38.6906 16.5891 36.3234 20.7328C35.7326 21.6769 35.3285 22.7255 35.1328 23.8219C34.9078 25.5047 34.7906 27.4219 36.2016 29.0063C38.3437 31.4203 40.6875 31.575 42.3515 32.0672C44.2721 32.6262 46.0179 33.6668 47.4233 35.0902C48.8286 36.5135 49.8468 38.2725 50.3812 40.2C51.5109 44.25 52.8328 58.8141 52.8328 58.8141Z" fill="#FF9EA7"/>
<path d="M18.5719 14.4783C18.9553 14.4783 19.2661 14.1675 19.2661 13.7841C19.2661 13.4007 18.9553 13.0898 18.5719 13.0898C18.1885 13.0898 17.8777 13.4007 17.8777 13.7841C17.8777 14.1675 18.1885 14.4783 18.5719 14.4783Z" fill="#332C44"/>
<path d="M10.9022 21.0797C10.4975 21.0781 10.0954 21.0149 9.7097 20.8922C9.5321 20.8363 9.3839 20.7123 9.29761 20.5473C9.21132 20.3823 9.19398 20.1899 9.2494 20.0121C9.30482 19.8344 9.42847 19.6859 9.59324 19.5992C9.758 19.5125 9.95042 19.4947 10.1283 19.5497C10.5674 19.6864 11.0355 19.7013 11.4824 19.5929C11.9294 19.4844 12.3385 19.2566 12.6661 18.9337C12.7947 18.8056 12.9679 18.7321 13.1494 18.7288C13.331 18.7254 13.5068 18.7924 13.64 18.9157C13.7733 19.039 13.8536 19.2091 13.8643 19.3904C13.875 19.5716 13.8152 19.75 13.6974 19.8881C12.9567 20.6347 11.9537 21.0623 10.9022 21.0797Z" fill="#332C44"/>
<path d="M12.6211 26.2472C12.4523 26.2469 12.2892 26.1859 12.1616 26.0753C12.0341 25.9647 11.9506 25.8119 11.9264 25.6448C11.8285 24.8397 11.901 24.0229 12.1394 23.2476C12.3778 22.4723 12.7767 21.7559 13.3101 21.1448C13.4382 21.0114 13.6137 20.9338 13.7986 20.9288C13.9835 20.9239 14.1629 20.992 14.2979 21.1184C14.433 21.2448 14.5128 21.4193 14.52 21.6041C14.5273 21.7889 14.4614 21.9692 14.3367 22.1058C13.9494 22.564 13.6593 23.0962 13.4842 23.67C13.3091 24.2439 13.2526 24.8474 13.3181 25.4437C13.3314 25.5352 13.3265 25.6283 13.3038 25.7178C13.281 25.8074 13.2409 25.8915 13.1856 25.9655C13.1303 26.0395 13.061 26.1019 12.9816 26.1491C12.9022 26.1963 12.8142 26.2274 12.7228 26.2406C12.6891 26.2451 12.6551 26.2473 12.6211 26.2472Z" fill="#332C44"/>
<path d="M27.4219 38.8898C28.0608 41.4455 27.69 47.0428 27.0159 50.1352C26.1628 54.0502 22.882 55.3261 19.8694 55.8103C16.8788 56.2912 14.6845 56.1206 13.8544 53.5205C10.6692 43.5436 17.7338 36.1275 21.1594 34.6931C23.7586 33.6037 26.2941 34.3837 27.4219 38.8898Z" fill="#FF5581"/>
<path d="M31.6833 38.8898C31.0449 41.4455 31.4152 47.0428 32.0892 50.1352C32.9424 54.0502 36.2231 55.3261 39.2358 55.8103C42.2264 56.2912 44.4206 56.1206 45.2508 53.5205C48.4383 43.5436 41.3719 36.1275 37.9463 34.6931C35.3438 33.6037 32.8092 34.3837 31.6833 38.8898Z" fill="#FF5581"/>
<path d="M41.6156 49.5375C41.789 49.9875 41.9906 50.5687 42.0094 50.6203C42.0449 50.7081 42.0625 50.8022 42.0609 50.8969C42.0581 51.0629 42.0063 51.2244 41.9121 51.3612C41.8179 51.4979 41.6854 51.6038 41.5312 51.6656C41.3434 51.7258 41.1406 51.7201 40.9565 51.6493C40.7724 51.5785 40.6179 51.447 40.5187 51.2766C40.3125 50.9859 39.6937 49.9734 39.3 49.3266C39.2399 49.2238 39.144 49.1469 39.0306 49.1106C38.9173 49.0742 38.7945 49.081 38.6859 49.1297C38.3049 49.2829 37.9352 49.4631 37.5797 49.6687C37.4486 49.7536 37.2952 49.7977 37.139 49.7953C37.0094 49.7964 36.8814 49.7658 36.7662 49.7061C36.651 49.6465 36.5521 49.5596 36.4781 49.4531C36.3868 49.3228 36.3355 49.1687 36.3305 49.0097C36.3255 48.8506 36.367 48.6936 36.45 48.5578C36.7532 48.1507 37.136 47.8095 37.575 47.5547C37.6426 47.5118 37.7007 47.4554 37.7455 47.389C37.7903 47.3226 37.821 47.2477 37.8355 47.1689C37.85 47.0901 37.8481 47.0092 37.8299 46.9312C37.8117 46.8532 37.7776 46.7798 37.7297 46.7156C37.4185 46.2877 37.0852 45.8762 36.7312 45.4828C36.618 45.3616 36.4617 45.2898 36.2959 45.2828C36.1302 45.2757 35.9684 45.3341 35.8453 45.4453C35.5025 45.7683 35.0905 46.0088 34.6406 46.1484C34.4738 46.2019 34.2937 46.1959 34.1308 46.1315C33.968 46.0671 33.8325 45.9482 33.7474 45.7951C33.6623 45.6421 33.6329 45.4643 33.6641 45.2919C33.6953 45.1196 33.7853 44.9634 33.9187 44.85C34.3314 44.4274 34.6691 43.9376 34.9172 43.4016C34.9778 43.2177 34.9876 43.0209 34.9455 42.8319C34.9035 42.6429 34.8111 42.4689 34.6781 42.3281C33.0127 40.8838 31.5509 39.2202 30.3328 37.3828C30.2508 37.2495 30.136 37.1395 29.9994 37.0631C29.8627 36.9868 29.7088 36.9467 29.5523 36.9467C29.3958 36.9467 29.2419 36.9868 29.1053 37.0631C28.9687 37.1395 28.8539 37.2495 28.7719 37.3828C27.5537 39.2202 26.0919 40.8838 24.4265 42.3281C24.2941 42.4692 24.2017 42.643 24.1588 42.8317C24.116 43.0204 24.1243 43.2171 24.1828 43.4016C24.4326 43.9366 24.7701 44.4262 25.1812 44.85C25.3158 44.963 25.4069 45.1193 25.4388 45.2921C25.4707 45.4649 25.4414 45.6435 25.356 45.7971C25.2706 45.9506 25.1344 46.0697 24.9708 46.1338C24.8072 46.198 24.6264 46.2031 24.4594 46.1484C24.01 46.0078 23.5982 45.7674 23.2547 45.4453C23.1325 45.3342 22.9714 45.2758 22.8063 45.2828C22.6413 45.2898 22.4857 45.3617 22.3734 45.4828C22.0181 45.875 21.6848 46.2865 21.375 46.7156C21.3271 46.7798 21.293 46.8532 21.2748 46.9312C21.2566 47.0092 21.2547 47.0901 21.2692 47.1689C21.2837 47.2477 21.3143 47.3226 21.3592 47.389C21.404 47.4554 21.462 47.5118 21.5297 47.5547C21.9663 47.8109 22.3473 48.152 22.65 48.5578C22.7311 48.6817 22.7735 48.8269 22.7719 48.975C22.7718 49.146 22.7195 49.3128 22.6219 49.4531C22.5026 49.6242 22.3216 49.7422 22.117 49.7824C21.9124 49.8227 21.7001 49.7819 21.525 49.6687C21.1695 49.4631 20.7998 49.2829 20.4187 49.1297C20.3094 49.0811 20.186 49.0743 20.072 49.1106C19.9579 49.1469 19.8612 49.2237 19.8 49.3266C19.4062 49.9734 18.7875 50.9859 18.5859 51.2766C18.5052 51.4036 18.3957 51.5097 18.2661 51.5863C18.1366 51.6629 17.9908 51.7077 17.8406 51.7172C17.7492 51.716 17.6587 51.6985 17.5734 51.6656C17.3724 51.5889 17.2094 51.4366 17.1192 51.2413C17.0289 51.046 17.0187 50.8231 17.0906 50.6203C17.114 50.5687 17.3156 49.9875 17.489 49.5375C17.4999 49.5086 17.5043 49.4777 17.5019 49.447C17.4995 49.4162 17.4904 49.3864 17.4752 49.3596C17.46 49.3327 17.4391 49.3096 17.4139 49.2917C17.3888 49.2739 17.36 49.2618 17.3297 49.2562C16.8459 49.2289 16.3761 49.0841 15.9609 48.8344C15.8274 48.735 15.7306 48.5941 15.6856 48.4338C15.6406 48.2735 15.6501 48.1028 15.7125 47.9484L15.7219 47.9297C15.7906 47.7604 15.9179 47.6214 16.0804 47.5379C16.243 47.4545 16.4301 47.4322 16.6078 47.475C17.0769 47.5764 17.5535 47.6391 18.0328 47.6625C18.1386 47.6692 18.2442 47.647 18.3383 47.5983C18.4324 47.5495 18.5115 47.4761 18.5672 47.3859C18.7734 47.0437 18.9984 46.6781 19.2 46.3031C19.302 46.1121 19.3307 45.8904 19.2806 45.6798C19.2306 45.4691 19.1052 45.284 18.9281 45.1594C18.4095 44.8067 17.7924 44.6278 17.1656 44.6484C17.0627 44.6522 16.9601 44.6353 16.8639 44.5986C16.7676 44.562 16.6798 44.5064 16.6054 44.4351C16.5311 44.3638 16.4719 44.2784 16.4312 44.1838C16.3905 44.0892 16.3693 43.9873 16.3687 43.8844V43.8609C16.3679 43.6576 16.442 43.4611 16.5769 43.3089C16.7118 43.1567 16.898 43.0596 17.1 43.0359C18.067 42.9008 19.0519 43.0817 19.9078 43.5516C20.0913 43.6499 20.3037 43.6798 20.5072 43.636C20.7106 43.5922 20.8919 43.4776 21.0187 43.3125C21.0844 43.2281 21.15 43.1437 21.2109 43.0641C21.3443 42.8971 21.4106 42.6863 21.3967 42.473C21.3828 42.2597 21.2898 42.0592 21.1359 41.9109C20.5415 41.4089 20.085 40.7635 19.8094 40.0359C19.7656 39.8675 19.7854 39.6889 19.865 39.5342C19.9445 39.3794 20.0782 39.2593 20.2406 39.1969C20.378 39.1445 20.5281 39.1348 20.6711 39.1691C20.8141 39.2034 20.9435 39.28 21.0422 39.3891C21.3441 39.796 21.706 40.1548 22.1156 40.4531C22.2862 40.5663 22.4882 40.6227 22.6927 40.6143C22.8973 40.6059 23.094 40.5331 23.2547 40.4062C24.375 39.4641 26.9156 37.5656 27.6187 33.8109C28.0906 30.8964 28.3039 27.9459 28.2562 24.9937C28.2562 19.5328 20.1422 19.5891 16.3453 19.5891C15.6984 18.7734 14.5312 18.6656 14.6203 17.8219C14.7563 17.3762 14.9741 16.9598 15.2625 16.5938H15.2672C15.4828 16.5984 21.6234 16.7859 24.9515 17.4375C29.3672 18.2953 31.3547 20.8078 31.2234 24.8812C31.1156 28.2141 31.1156 31.8516 31.4812 33.8109C32.189 37.5656 34.7297 39.4641 35.85 40.4062C36.0107 40.5331 36.2074 40.6059 36.4119 40.6143C36.6165 40.6227 36.8185 40.5663 36.989 40.4531C37.3986 40.1548 37.7606 39.796 38.0625 39.3891C38.1612 39.28 38.2905 39.2034 38.4336 39.1691C38.5766 39.1348 38.7266 39.1445 38.864 39.1969C39.0263 39.2593 39.1597 39.3795 39.2384 39.5345C39.3172 39.6894 39.3358 39.8681 39.2906 40.0359C39.0185 40.7642 38.5632 41.41 37.9687 41.9109C37.8138 42.0586 37.72 42.2592 37.7061 42.4729C37.6922 42.6865 37.7592 42.8975 37.8937 43.0641C37.9547 43.1437 38.0203 43.2281 38.0859 43.3125C38.2124 43.478 38.3937 43.5929 38.5973 43.6367C38.801 43.6805 39.0135 43.6503 39.1969 43.5516C40.0528 43.0817 41.0376 42.9008 42.0047 43.0359C42.2066 43.0596 42.3928 43.1567 42.5277 43.3089C42.6626 43.4611 42.7367 43.6576 42.7359 43.8609V43.8844C42.7354 43.9873 42.7141 44.0892 42.6735 44.1838C42.6328 44.2784 42.5736 44.3638 42.4992 44.4351C42.4249 44.5064 42.337 44.562 42.2408 44.5986C42.1446 44.6353 42.0419 44.6522 41.939 44.6484C41.3122 44.6271 40.6948 44.806 40.1765 45.1594C39.9987 45.2833 39.8726 45.4685 39.8225 45.6794C39.7723 45.8903 39.8016 46.1124 39.9047 46.3031C40.1062 46.6781 40.3312 47.0437 40.5375 47.3859C40.5931 47.4761 40.6722 47.5495 40.7664 47.5983C40.8605 47.647 40.9661 47.6692 41.0719 47.6625C41.5512 47.6391 42.0278 47.5764 42.4969 47.475C42.6745 47.4322 42.8616 47.4545 43.0242 47.5379C43.1868 47.6214 43.314 47.7604 43.3828 47.9297L43.3922 47.9484C43.4546 48.1028 43.464 48.2735 43.4191 48.4338C43.3741 48.5941 43.2773 48.735 43.1437 48.8344C42.7285 49.0841 42.2587 49.2289 41.775 49.2562C41.7442 49.2609 41.7148 49.2724 41.6892 49.2901C41.6635 49.3077 41.6422 49.331 41.6268 49.3581C41.6115 49.3852 41.6025 49.4154 41.6005 49.4465C41.5986 49.4776 41.6037 49.5087 41.6156 49.5375Z" fill="#FFE1D8"/>
<path d="M51.0605 40.0097C50.4948 37.9676 49.4162 36.1041 47.9272 34.5964C46.4383 33.0886 44.5885 31.9868 42.5536 31.3955C42.2447 31.3017 41.9128 31.223 41.5636 31.1386C40.0524 30.7725 38.3395 30.3577 36.728 28.5417C35.5163 27.1763 35.6189 25.5071 35.8285 23.9147C36.013 22.9076 36.3895 21.9455 36.9375 21.0806C39.3614 16.8356 40.4438 14.1867 40.0378 10.6149C39.3708 4.76815 34.8516 0.780958 28.523 0.455645C24.5649 0.250333 20.7886 1.55486 18.4256 3.94361C17.5053 4.86719 16.7966 5.97972 16.3486 7.2042C15.9006 8.42868 15.7241 9.73588 15.8311 11.0353C15.8536 11.3808 15.916 11.7596 15.976 12.1261C16.0565 12.5357 16.1035 12.9511 16.1166 13.3683C16.1016 14.0714 15.3755 15.1566 14.8453 15.9511C14.3391 16.7096 13.9735 17.258 13.9219 17.7502C13.8244 18.6877 14.5617 19.1442 15.0497 19.4456C15.4249 19.6281 15.7375 19.9178 15.9478 20.2781C16.1213 20.7709 16.2043 21.291 16.193 21.8133V22.2071C16.1841 23.3841 16.1752 24.601 17.0592 25.4564C17.7535 26.1281 18.8269 26.4099 20.4511 26.3471C20.632 26.34 20.806 26.3297 20.9733 26.3199C21.9844 26.2608 22.4845 26.2261 22.8445 26.6864C23.2075 27.5953 23.4473 28.5486 23.5575 29.521C23.6747 30.2663 22.7785 30.615 22.501 30.7041C21.2361 31.0535 19.9525 31.3313 18.6563 31.5361C18.1739 31.6238 17.677 31.7147 17.1727 31.8108C13.5492 32.5013 10.0102 36.0239 8.93955 40.0046C7.84361 44.0794 6.52361 58.1541 6.46783 58.7513C6.45924 58.8432 6.46885 58.9359 6.4961 59.0242C6.52334 59.1124 6.5677 59.1944 6.62664 59.2655C6.68558 59.3365 6.75794 59.3953 6.83959 59.4384C6.92124 59.4815 7.01058 59.5082 7.10252 59.5167C7.12502 59.5186 7.14705 59.5196 7.16861 59.5196C7.34369 59.5194 7.5124 59.4539 7.64174 59.3359C7.77109 59.2179 7.85176 59.0559 7.86799 58.8816C7.88158 58.7367 9.23252 44.3297 10.2975 40.3697C11.2369 36.8742 14.3058 33.7889 17.4375 33.1922C17.9386 33.0985 18.4317 33.0047 18.9103 32.9194C20.2678 32.7059 21.6116 32.4126 22.9345 32.041C24.3497 31.5867 25.141 30.5105 24.9502 29.2997C24.8738 28.8169 24.465 26.3752 23.9105 25.7653C23.0241 24.7899 21.991 24.8503 20.895 24.9141C20.7356 24.9235 20.5702 24.9328 20.3981 24.9403C19.2206 24.9872 18.4294 24.8213 18.0403 24.4453C17.5899 24.0089 17.5955 23.1797 17.6025 22.2169V21.7585C17.5933 21.2672 17.5381 20.7779 17.4375 20.2969C19.5147 20.2562 21.589 20.4732 23.6128 20.9428C26.2622 21.6675 27.5503 22.9927 27.5503 24.9933C27.6021 27.9022 27.3944 30.81 26.9297 33.6821C26.8309 34.2052 26.6857 34.7185 26.4956 35.2158C26.0936 34.7034 25.586 34.2834 25.0074 33.9844C23.8228 33.391 22.3974 33.4111 20.8861 34.0444C17.2547 35.5655 9.88033 43.3903 13.1827 53.7342C13.9327 56.078 15.6342 56.7263 17.6283 56.7263C18.4165 56.7142 19.2025 56.6401 19.9791 56.5046C24.4186 55.7911 26.9447 53.7567 27.7013 50.2847C28.2989 47.5425 28.741 42.2878 28.2253 39.316C28.6427 38.8214 29.0253 38.2986 29.3705 37.7513C29.3895 37.7204 29.4162 37.6948 29.4479 37.6771C29.4796 37.6594 29.5153 37.6501 29.5517 37.6501C29.588 37.6501 29.6237 37.6594 29.6554 37.6771C29.6871 37.6948 29.7138 37.7204 29.7328 37.7513C30.0799 38.3039 30.4609 38.8345 30.8738 39.3399C30.3652 42.3146 30.8058 47.5481 31.402 50.2833C32.1586 53.7553 34.6833 55.7897 39.1242 56.5031C39.9006 56.6386 40.6865 56.7128 41.4745 56.7249C43.4686 56.7249 45.1725 56.0761 45.9206 53.7328C49.223 43.3889 41.8491 35.5641 38.2177 34.0453C36.706 33.413 35.2814 33.3924 34.096 33.9853C33.5174 34.2839 33.0097 34.7032 32.6072 35.2149C32.4174 34.7182 32.2723 34.2055 32.1736 33.683C31.8788 32.1169 31.793 29.0803 31.9261 24.9024C32.0695 20.4024 29.7699 17.6564 25.087 16.7461C22.2549 16.3019 19.3981 16.0326 16.5328 15.9399C17.0739 15.1908 17.4148 14.316 17.5233 13.3983C17.5142 12.8946 17.4607 12.3926 17.3635 11.8983C17.3063 11.55 17.2524 11.2214 17.2345 10.9458C17.1426 9.84465 17.2908 8.73666 17.6691 7.69844C18.0474 6.66022 18.6467 5.71655 19.4255 4.93268C21.5105 2.8233 24.885 1.67768 28.4503 1.86049C34.1424 2.15299 38.0466 5.5683 38.6381 10.7738C39.0024 13.9772 38.0288 16.3275 35.7136 20.3831C35.0739 21.4055 34.6393 22.5426 34.4339 23.731C34.26 25.0538 33.9375 27.5156 35.6756 29.475C37.5802 31.621 39.6914 32.1319 41.2327 32.5055C41.5575 32.5842 41.8664 32.6583 42.1542 32.7436C43.9603 33.2677 45.6022 34.2452 46.9239 35.5829C48.2456 36.9207 49.2031 38.5743 49.7053 40.3866C50.8017 44.3316 52.1189 58.7349 52.1325 58.8802C52.1391 58.9735 52.1642 59.0646 52.2064 59.1481C52.2486 59.2316 52.307 59.3058 52.3783 59.3664C52.4496 59.4271 52.5322 59.4729 52.6214 59.5011C52.7106 59.5294 52.8045 59.5396 52.8977 59.5311C52.9909 59.5226 53.0814 59.4957 53.164 59.4517C53.2466 59.4078 53.3196 59.3478 53.3788 59.2753C53.4379 59.2028 53.482 59.1193 53.5084 59.0295C53.5348 58.9398 53.5431 58.8457 53.5327 58.7527C53.4783 58.1555 52.1902 44.0766 51.0605 40.0097ZM26.3274 49.9852C25.6992 52.8661 23.6114 54.4964 19.756 55.1166C16.4869 55.643 15.1153 55.1681 14.5224 53.3067C11.4989 43.838 18.1472 36.7158 21.4289 35.3419C21.9661 35.1021 22.5456 34.9715 23.1338 34.9575C23.5641 34.9533 23.9894 35.0508 24.375 35.2421C24.9724 35.5677 25.4643 36.0575 25.7925 36.6535C25.0521 37.8139 24.1164 38.8374 23.0269 39.6788L22.8 39.8663C22.7579 39.8917 22.7102 39.9063 22.6611 39.9086C22.6119 39.9109 22.563 39.9008 22.5188 39.8794C22.1671 39.6216 21.8568 39.3116 21.5986 38.9602C21.4043 38.7262 21.1406 38.5602 20.8457 38.486C20.5507 38.4118 20.2398 38.4334 19.958 38.5477C19.6377 38.677 19.3764 38.9199 19.224 39.2298C19.0716 39.5398 19.0389 39.8951 19.132 40.2277C19.4345 41.0817 19.9598 41.8392 20.6536 42.4219C20.6797 42.4495 20.6947 42.4857 20.6958 42.5237C20.6968 42.5617 20.6838 42.5987 20.6592 42.6277L20.4605 42.8846C20.4339 42.9173 20.3967 42.9397 20.3554 42.9479C20.314 42.956 20.2711 42.9494 20.2341 42.9291C19.2549 42.3946 18.1308 42.1859 17.025 42.3333C16.646 42.3759 16.2966 42.5584 16.0451 42.8451C15.7937 43.1319 15.6584 43.5022 15.6656 43.8835C15.6651 44.0784 15.7038 44.2714 15.7795 44.451C15.8552 44.6306 15.9663 44.7931 16.1063 44.9288C16.2486 45.0666 16.4168 45.1748 16.6013 45.2472C16.7857 45.3196 16.9826 45.3548 17.1806 45.3506C17.6621 45.3371 18.1358 45.4744 18.5353 45.7435C18.5684 45.7647 18.5922 45.7976 18.6022 45.8356C18.6122 45.8736 18.6076 45.914 18.5892 45.9488C18.4781 46.156 18.286 46.4836 18.1514 46.7086C18.1071 46.7837 18.0426 46.8447 17.9651 46.8847C17.8876 46.9247 17.8005 46.942 17.7136 46.9346C17.3971 46.9096 17.0828 46.8627 16.7728 46.7939C16.4281 46.7121 16.0654 46.7571 15.7511 46.9206C15.4368 47.0842 15.1918 47.3553 15.061 47.6846C14.9361 47.985 14.9168 48.3188 15.0062 48.6316C15.0956 48.9444 15.2884 49.2177 15.5531 49.4067C15.874 49.6281 16.2384 49.7786 16.6219 49.8483C16.5581 50.0241 16.5028 50.1806 16.4672 50.281L16.4363 50.3686C16.2947 50.7446 16.3079 51.1614 16.4731 51.5276C16.6383 51.8938 16.942 52.1796 17.3175 52.3224C17.6512 52.4442 18.0168 52.4472 18.3524 52.3307C18.6881 52.2142 18.9732 51.9854 19.1597 51.683C19.2956 51.4894 19.6008 51.0042 20.0883 50.2055C20.1484 50.1064 20.2429 50.0329 20.3536 49.9988C20.4644 49.9648 20.5838 49.9726 20.6892 50.0208C20.8406 50.0887 20.9877 50.1656 21.1299 50.251C21.4332 50.4469 21.796 50.5292 22.1542 50.4833C22.5124 50.4374 22.8428 50.2663 23.0869 50.0002C23.3089 49.755 23.4442 49.4436 23.4721 49.114C23.4999 48.7844 23.4188 48.4548 23.2411 48.1758C23.0103 47.8408 22.7251 47.5468 22.3974 47.3058C22.3475 47.2681 22.3057 47.2209 22.2744 47.1669C22.243 47.1128 22.2228 47.0531 22.2149 46.9911C22.207 46.9291 22.2116 46.8662 22.2283 46.806C22.2451 46.7458 22.2737 46.6896 22.3125 46.6406C22.3913 46.5413 22.4691 46.4442 22.5469 46.3528C22.623 46.262 22.7311 46.2038 22.8488 46.1903C22.9665 46.1767 23.085 46.2089 23.1797 46.2802C23.5085 46.5298 23.8812 46.7157 24.2785 46.8281C24.6083 46.9129 24.957 46.8852 25.2693 46.7493C25.5816 46.6135 25.8397 46.3773 26.0025 46.0781C26.1361 45.792 26.1763 45.4711 26.1174 45.1608C26.0585 44.8506 25.9035 44.5667 25.6744 44.3494C25.337 43.9991 25.0567 43.5979 24.8438 43.1606C24.826 43.1143 24.8187 43.0645 24.8225 43.015C24.8264 42.9654 24.8411 42.9174 24.8658 42.8742C25.2647 42.4158 26.0902 41.6395 26.9752 40.711C27.147 43.8173 26.9294 46.9329 26.3274 49.9852ZM34.7264 35.2421C35.5449 34.8314 36.5367 34.8671 37.6749 35.3419C40.9561 36.7158 47.6044 43.8371 44.581 53.3067C43.9866 55.1686 42.616 55.6425 39.3474 55.1166C35.4924 54.4964 33.4041 52.8666 32.776 49.9852C32.1784 46.954 31.9588 43.8604 32.122 40.7752C32.9827 41.6996 33.7899 42.4599 34.2235 42.8606C34.2505 42.8972 34.2691 42.9392 34.2781 42.9838C34.2871 43.0283 34.2862 43.0743 34.2755 43.1185C34.0886 43.5869 33.799 44.0074 33.428 44.3489C33.1989 44.5662 33.0439 44.8499 32.985 45.1601C32.9262 45.4703 32.9663 45.7911 33.0999 46.0772C33.2627 46.3763 33.5207 46.6125 33.833 46.7484C34.1454 46.8842 34.4941 46.912 34.8239 46.8272C35.2213 46.7151 35.5941 46.5296 35.9231 46.2802C36.0179 46.209 36.1363 46.1769 36.254 46.1904C36.3717 46.204 36.4798 46.2621 36.556 46.3528C36.6319 46.4466 36.7102 46.5403 36.7903 46.6411C36.8286 46.69 36.8568 46.746 36.8732 46.8059C36.8896 46.8658 36.894 46.9283 36.8861 46.9899C36.8781 47.0515 36.858 47.1109 36.827 47.1646C36.7959 47.2183 36.7544 47.2654 36.705 47.303C36.3773 47.5439 36.0921 47.838 35.8613 48.173C35.6838 48.4512 35.6025 48.7798 35.6297 49.1087C35.6568 49.4375 35.791 49.7483 36.0117 49.9936C36.2553 50.2612 36.5859 50.4337 36.9447 50.4804C37.3035 50.5271 37.6672 50.445 37.9711 50.2486C38.1145 50.1618 38.2629 50.0835 38.4155 50.0142C38.5205 49.9692 38.6382 49.9629 38.7475 49.9965C38.8567 50.03 38.9505 50.1013 39.0122 50.1975C39.5002 50.9981 39.8058 51.4842 39.9422 51.6783C40.0851 51.8988 40.2794 52.0814 40.5084 52.2102C40.7375 52.3391 40.9944 52.4104 41.257 52.418C41.4376 52.4177 41.6165 52.3836 41.7844 52.3172C42.0472 52.2156 42.277 52.0439 42.449 51.8207C42.621 51.5976 42.7285 51.3316 42.7599 51.0516C42.7547 50.6688 42.6751 50.2907 42.5255 49.9383C42.5202 49.9268 42.5176 49.9142 42.5178 49.9016C42.5181 49.8889 42.5211 49.8764 42.5268 49.8651C42.5324 49.8538 42.5406 49.8439 42.5506 49.8361C42.5606 49.8283 42.5722 49.8229 42.5845 49.8202C42.9307 49.7469 43.2586 49.6049 43.5488 49.4025C43.8383 49.193 44.0405 48.8842 44.1167 48.535C44.1929 48.1858 44.1377 47.8208 43.9617 47.5097C43.7971 47.2248 43.5437 47.0016 43.2402 46.8744C42.9367 46.7471 42.5999 46.7228 42.2813 46.8052C41.9166 46.8803 41.5471 46.9294 41.1755 46.9524C41.153 46.9543 41.1303 46.95 41.1101 46.9398C41.0899 46.9296 41.0729 46.914 41.0611 46.8947C40.9552 46.7189 40.6542 46.2155 40.5108 45.9464C40.4931 45.9127 40.4885 45.8736 40.4979 45.8368C40.5074 45.7999 40.5302 45.7678 40.5619 45.7467C40.961 45.4728 41.4375 45.3342 41.9213 45.3511C42.1194 45.3554 42.3163 45.3204 42.5008 45.2479C42.6852 45.1755 42.8534 45.0672 42.9956 44.9292C43.1376 44.7905 43.2499 44.6244 43.3256 44.4409C43.4013 44.2574 43.4388 44.0604 43.4358 43.8619C43.4391 43.484 43.3018 43.1183 43.0505 42.8359C42.7993 42.5535 42.4522 42.3746 42.0764 42.3338C40.9707 42.1851 39.8465 42.3939 38.8678 42.9296C38.831 42.95 38.7882 42.9568 38.7468 42.9488C38.7055 42.9407 38.6683 42.9183 38.6419 42.8855L38.4431 42.6291C38.4183 42.6001 38.4052 42.5629 38.4061 42.5247C38.4071 42.4866 38.4221 42.4501 38.4483 42.4224C39.1409 41.8393 39.665 41.0818 39.9666 40.2281C40.0595 39.8958 40.0266 39.5409 39.8742 39.2313C39.7218 38.9217 39.4606 38.6791 39.1406 38.55C38.8588 38.4361 38.548 38.4146 38.2532 38.4887C37.9583 38.5627 37.6946 38.7285 37.5 38.9621C37.2418 39.3139 36.9314 39.6242 36.5794 39.8822C36.5357 39.9034 36.4873 39.9134 36.4388 39.9112C36.3903 39.909 36.343 39.8947 36.3014 39.8696L36.0727 39.6788C34.9829 38.837 34.0471 37.8128 33.307 36.6516C33.6369 36.0566 34.1292 35.5677 34.7264 35.2421ZM30.5208 24.8564C30.3802 29.1966 30.4739 32.2533 30.7917 33.9422C31.5 37.7138 33.9844 39.7721 35.176 40.7616L35.3967 40.9458C35.6845 41.1665 36.034 41.2915 36.3964 41.3035C36.7588 41.3154 37.1159 41.2136 37.4175 41.0124C37.7164 40.791 37.9893 40.5364 38.2308 40.2535C38.3442 40.1236 38.4563 39.9863 38.5683 39.841C38.6152 39.7941 38.6344 39.8316 38.6278 39.8672C38.5964 39.9665 38.5518 40.0611 38.4952 40.1485C38.2335 40.6206 37.8919 41.0438 37.4855 41.3991C37.2019 41.6664 37.0292 42.0306 37.002 42.4194C36.9747 42.8082 37.0948 43.1929 37.3383 43.4972L37.5258 43.7396C37.7535 44.0347 38.0778 44.2403 38.4419 44.3203C38.8059 44.4004 39.1866 44.3498 39.5171 44.1774C40.2512 43.7684 41.0994 43.612 41.9311 43.7325C41.9547 43.7361 41.9765 43.7472 41.9933 43.764C42.0102 43.7809 42.0212 43.8027 42.0249 43.8263C42.03 43.8614 42.0249 43.9374 41.9564 43.9449C41.8753 43.9538 41.7956 43.9449 41.7178 43.9449C41.0238 43.9643 40.3503 44.1842 39.7786 44.5781C39.4571 44.7998 39.229 45.1325 39.1381 45.5122C39.0473 45.892 39.1001 46.2919 39.2864 46.635C39.4739 46.988 39.6858 47.3381 39.8836 47.663L39.9342 47.7464C40.0569 47.9468 40.2317 48.1101 40.4399 48.219C40.648 48.3279 40.8819 48.3782 41.1164 48.3647C41.6378 48.3383 42.1561 48.2691 42.6661 48.158C42.6942 48.1528 42.721 48.1664 42.7383 48.21C42.7419 48.2175 42.7434 48.2257 42.7427 48.234C42.7421 48.2422 42.7393 48.2501 42.7346 48.2569C42.4069 48.4404 42.0409 48.5449 41.6658 48.562C41.5315 48.5829 41.4035 48.6336 41.2914 48.7104C41.1793 48.7873 41.0859 48.8883 41.018 49.0061C40.9501 49.1239 40.9095 49.2554 40.8992 49.3909C40.8889 49.5264 40.9092 49.6626 40.9585 49.7892C41.0925 50.1324 41.2397 50.5528 41.31 50.7474L41.3569 50.8758C41.3607 50.8889 41.3619 50.9026 41.3604 50.9161C41.3588 50.9297 41.3546 50.9428 41.3479 50.9547C41.3412 50.9665 41.3322 50.977 41.3215 50.9853C41.3107 50.9937 41.2983 50.9998 41.2852 51.0033C41.2191 51.0141 41.1595 50.9644 41.0939 50.8706C40.9955 50.73 40.7095 50.2861 39.9042 48.9586C39.7544 48.7109 39.5196 48.5261 39.2437 48.4386C38.9678 48.3511 38.6695 48.3668 38.4042 48.4828L38.3133 48.5227C37.9279 48.6784 37.5547 48.8627 37.1967 49.0739C37.1748 49.0893 37.1477 49.0953 37.1214 49.0907C37.0951 49.0862 37.0716 49.0714 37.0561 49.0496C37.0438 49.0341 37.0358 49.0157 37.0329 48.9962C37.03 48.9767 37.0324 48.9568 37.0397 48.9385C37.2877 48.6173 37.5964 48.348 37.9481 48.1458C38.0968 48.0518 38.2245 47.9282 38.3233 47.7827C38.4221 47.6373 38.49 47.473 38.5227 47.3002C38.5554 47.1274 38.5523 46.9497 38.5134 46.7782C38.4746 46.6067 38.4009 46.445 38.2969 46.3031C37.9696 45.8526 37.6191 45.4194 37.2469 45.0052C37.0098 44.7516 36.6835 44.6001 36.3368 44.5826C35.9901 44.5651 35.6502 44.683 35.3888 44.9114C35.1243 45.1634 34.8074 45.3538 34.4606 45.4688C34.4466 45.4701 34.4325 45.4668 34.4204 45.4594C34.4083 45.4521 34.399 45.441 34.3937 45.4279C34.3884 45.4148 34.3875 45.4003 34.3912 45.3866C34.3948 45.373 34.4027 45.3608 34.4138 45.3521C34.8818 44.8612 35.2693 44.2994 35.5617 43.6875C35.6856 43.3615 35.7097 43.0059 35.6308 42.6662C35.5519 42.3264 35.3736 42.0178 35.1188 41.7797C33.5123 40.3891 32.1027 38.7861 30.9291 37.0149C30.7898 36.7874 30.596 36.5981 30.3654 36.4642C30.1347 36.3302 29.8743 36.2558 29.6077 36.2475C29.3135 36.2449 29.0237 36.319 28.7669 36.4624C28.51 36.6059 28.295 36.8137 28.1428 37.0655C26.9743 38.816 25.5758 40.4016 23.985 41.7797C23.7298 42.0177 23.5514 42.3264 23.4725 42.6663C23.3936 43.0062 23.4178 43.3619 23.542 43.688C23.8262 44.305 24.2145 44.8684 24.69 45.3535C24.7195 45.3792 24.7252 45.4852 24.6431 45.4716C24.296 45.3558 23.9787 45.1647 23.7141 44.9119C23.4528 44.6833 23.1128 44.5652 22.766 44.5827C22.4193 44.6002 22.0929 44.7519 21.856 45.0056C21.4837 45.4197 21.1333 45.8529 20.8064 46.3036C20.702 46.4454 20.6279 46.6072 20.5887 46.7788C20.5496 46.9505 20.5462 47.1284 20.5788 47.3015C20.6113 47.4745 20.6792 47.639 20.7781 47.7846C20.8771 47.9303 21.0049 48.0541 21.1538 48.1481C21.5058 48.3506 21.8148 48.62 22.0631 48.9413C22.0704 48.9596 22.0726 48.9796 22.0696 48.9991C22.0667 49.0186 22.0586 49.037 22.0463 49.0524C22.0386 49.0632 22.029 49.0724 22.0178 49.0795C22.0066 49.0866 21.9941 49.0915 21.981 49.0937C21.9679 49.096 21.9546 49.0957 21.9416 49.0927C21.9287 49.0898 21.9165 49.0844 21.9056 49.0767C21.5478 48.8655 21.1748 48.6812 20.7895 48.5255L20.6958 48.4856C20.4306 48.3697 20.1323 48.3541 19.8564 48.4416C19.5805 48.5291 19.3457 48.7138 19.1958 48.9614C18.391 50.2889 18.105 50.7342 18.007 50.8735C17.9414 50.9672 17.9044 51.0291 17.827 51.0113C17.723 50.9878 17.776 50.8139 17.7905 50.7492C17.8913 50.4247 18.0083 50.1054 18.1411 49.7925C18.1908 49.666 18.2115 49.5299 18.2016 49.3942C18.1918 49.2586 18.1516 49.1269 18.0841 49.0089C18.0166 48.8909 17.9234 48.7895 17.8115 48.7122C17.6996 48.635 17.5718 48.5838 17.4375 48.5625C17.0893 48.5381 16.7486 48.4491 16.433 48.3C16.411 48.2864 16.3495 48.2466 16.3716 48.1946C16.3763 48.1816 16.3855 48.1707 16.3975 48.164C16.4096 48.1573 16.4237 48.1551 16.4372 48.158C16.9474 48.2691 17.4659 48.3383 17.9874 48.3647C18.222 48.3796 18.4563 48.3298 18.6647 48.2208C18.873 48.1118 19.0475 47.9477 19.1691 47.7464L19.2108 47.6771C19.4114 47.3461 19.6247 46.9931 19.8174 46.635C20.0035 46.2918 20.0562 45.8919 19.9653 45.5122C19.8743 45.1324 19.6462 44.7998 19.3247 44.5781C18.6842 44.1411 17.9214 43.919 17.1464 43.9439C17.1075 43.9406 17.0785 43.8891 17.0728 43.8624C17.0691 43.8322 17.0773 43.8017 17.0956 43.7774C17.114 43.7532 17.1412 43.7371 17.1713 43.7325C18.003 43.6119 18.8513 43.7682 19.5853 44.1774C19.9161 44.3496 20.2968 44.4001 20.661 44.3199C21.0252 44.2398 21.3496 44.0342 21.5775 43.7391L21.765 43.4972C22.0085 43.193 22.1286 42.8082 22.1014 42.4195C22.0742 42.0308 21.9018 41.6665 21.6183 41.3991C21.1424 40.9894 20.759 40.4834 20.4933 39.9146C20.4689 39.8531 20.4933 39.8372 20.5135 39.8541C20.5377 39.8791 20.5592 39.9066 20.5777 39.9361C20.9056 40.3572 21.2922 40.7291 21.7256 41.0405C22.0208 41.2435 22.3746 41.3439 22.7324 41.3262C23.0903 41.3085 23.4324 41.1737 23.7061 40.9425L23.9255 40.7602C25.118 39.7706 27.6 37.7133 28.3097 33.9408C28.7912 30.9835 29.0075 27.9891 28.9561 24.9933C28.9561 22.3083 27.2831 20.4891 23.9841 19.5863C21.5039 18.9075 18.6249 18.8855 16.6524 18.8869C16.3888 18.6424 16.0987 18.4281 15.7875 18.248C15.616 18.1421 15.3295 17.9897 15.3188 17.9035C15.3683 17.6845 15.4699 17.4808 15.615 17.3096C17.0095 17.3606 21.99 17.5763 24.817 18.1252C28.8281 18.9056 30.6422 21.0441 30.5208 24.8564Z" fill="#332C44"/>
</svg>
