<svg width="60" height="60" viewBox="0 0 60 60" fill="none" xmlns="http://www.w3.org/2000/svg">
<g clip-path="url(#clip0_815_41538)">
<path d="M0.9375 6.87695L28.6036 9.96168C36.3117 10.8211 42.0366 17.5046 41.7021 25.2531L41.1434 38.1966L37.7168 59.0625H17.588L17.433 38.3632C17.417 36.222 15.6768 34.4946 13.5355 34.4946H0.9375V6.87695Z" fill="#FDD4BB"/>
<path d="M17.433 38.3631L17.4491 38.3964L17.433 36.2537C17.417 34.1125 15.6768 32.3851 13.5355 32.3851H0.9375V34.4945H13.5355C15.6768 34.4946 17.4171 36.222 17.433 38.3631Z" fill="#F7C4A8"/>
<path d="M17.588 56.9531L17.572 56.9384L17.588 59.0625H37.7168L38.0632 56.9531H17.588Z" fill="#F7C4A8"/>
<path d="M25.0991 23.099C24.5123 20.1473 24.7897 15.4127 21.3268 15.4127C19.2225 15.4127 18.1424 16.7506 17.618 17.801H0.9375V26.4457H17.6798C18.9545 28.0417 22.371 31.8783 24.9611 30.7512C27.6192 29.5946 25.517 25.2019 25.0991 23.099Z" fill="#EBF2F8"/>
<path d="M24.9612 28.642C22.4862 29.7191 19.9805 26.2636 18.6506 24.5618C18.5394 24.4195 18.3694 24.3364 18.1888 24.3364H0.9375V26.4458H17.6798C18.9545 28.0418 22.371 31.8784 24.9611 30.7513C26.3089 30.1647 26.4325 28.746 26.1725 27.2157C26.0072 27.8407 25.6395 28.3468 24.9612 28.642Z" fill="#D6E3ED"/>
<path d="M32.616 28.8309C34.2711 28.8309 35.6129 26.6888 35.6129 24.0464C35.6129 21.4039 34.2711 19.2618 32.616 19.2618C30.9608 19.2618 29.619 21.4039 29.619 24.0464C29.619 26.6888 30.9608 28.8309 32.616 28.8309Z" fill="#EBF2F8"/>
<path d="M32.616 26.7215C31.1879 26.7215 29.994 25.1264 29.693 22.9917C29.6452 23.3312 29.619 23.6838 29.619 24.0464C29.619 26.6888 30.9608 28.8309 32.616 28.8309C34.2711 28.8309 35.6129 26.6888 35.6129 24.0464C35.6129 23.6838 35.5868 23.3312 35.539 22.9917C35.2379 25.1264 34.044 26.7215 32.616 26.7215Z" fill="#D6E3ED"/>
<path d="M33.9745 35.5347C32.2626 34.6224 29.7348 36.5814 26.8429 35.5693C24.0127 34.5787 21.6355 36.7297 21.9807 39.5579C22.1526 40.9667 23.2982 42.1556 24.3931 42.9891V59.0626H32.2795V43.9061C37.2685 40.9596 35.6144 36.4087 33.9745 35.5347Z" fill="#EBF2F8"/>
<path d="M24.1751 40.7093C23.2847 39.9951 22.406 39.0526 22.0859 37.9547C21.9536 38.4487 21.9113 38.9891 21.9806 39.5578C22.1525 40.9667 23.2982 42.1555 24.3931 42.9891V41.1648C24.3932 40.9876 24.3133 40.8202 24.1751 40.7093Z" fill="#D6E3ED"/>
<path d="M32.2794 42.1245V43.9062C35.3509 42.0922 35.9041 39.6704 35.4933 37.8726C35.2014 39.1508 34.3398 40.498 32.5505 41.631C32.3817 41.7379 32.2794 41.9246 32.2794 42.1245Z" fill="#D6E3ED"/>
<path d="M24.3932 56.9531H32.2796V59.0625H24.3932V56.9531Z" fill="#D6E3ED"/>
<path d="M45.998 22.4143L55.3716 18.4304L52.7885 16.1133L59.0626 13.125L54.5136 8.7395L47.6742 15.6743L49.5609 17.2159L45.998 22.4143Z" fill="#FFDE91"/>
<path d="M42.9456 13.7314L46.1613 6.1152L43.3466 6.22289L45.3174 0.9375H40.1884L40.1167 8.85504L42.0874 8.6884L42.9456 13.7314Z" fill="#FFDE91"/>
<path d="M46.2686 29.6661L53.8848 32.8817L53.7771 30.067L59.0625 32.0377V26.9089L51.145 26.837L51.3116 28.8078L46.2686 29.6661Z" fill="#FFDE91"/>
<path d="M39.4709 48.5275C38.9895 48.4472 38.5371 48.7742 38.4581 49.2543L36.983 58.237H33.1651V44.4226C36.1219 42.4872 36.5318 40.1048 36.5037 38.822C36.4654 37.0755 35.5989 35.4081 34.3966 34.7676C33.3087 34.1875 32.0789 34.4443 30.8896 34.6924C29.6816 34.9443 28.4325 35.2049 27.128 34.7481C25.536 34.1911 23.9302 34.429 22.7223 35.4013C21.4938 36.3903 20.8836 37.9911 21.0901 39.6831C21.2502 40.9949 22.0607 42.2575 23.5007 43.4408V58.2371H18.4387L18.2902 38.3726C18.2706 35.753 16.1232 33.6219 13.5036 33.6219H1.76285V27.3204H7.29621C7.78301 27.3204 8.1777 26.9259 8.1777 26.439C8.1777 25.952 7.78301 25.5575 7.29621 25.5575H1.76285V18.659H17.5939C17.9279 18.659 18.2333 18.4702 18.3825 18.1714C19.0138 16.9072 19.9988 16.2661 21.31 16.2661C23.0174 16.2661 23.4976 17.8045 23.9284 21.2526C24.0171 21.9626 24.1009 22.6334 24.225 23.2577C24.3204 23.738 24.4897 24.3058 24.669 24.9069C25.3922 27.3318 25.886 29.3848 24.5996 29.9446C23.5178 30.4151 21.3066 29.5973 18.3448 25.889C18.1775 25.6796 17.9241 25.5577 17.6561 25.5577H10.8186C10.3318 25.5577 9.93715 25.9523 9.93715 26.4392C9.93715 26.9261 10.3318 27.3207 10.8186 27.3207H17.2363C18.8225 29.2421 21.4331 31.8419 23.9434 31.8419C24.4022 31.8419 24.8577 31.7551 25.303 31.5612C26.1878 31.1761 27.2271 30.2749 27.1533 28.1672C27.1098 26.9238 26.7105 25.5847 26.3583 24.4032C26.1912 23.8429 26.0333 23.3136 25.954 22.9143C25.8423 22.3522 25.7624 21.7121 25.6777 21.0344C25.3334 18.2783 24.8618 14.5036 21.31 14.5036C19.5132 14.5036 18.0281 15.3485 17.076 16.8965H1.76285V7.81798L22.0363 10.0785C22.5197 10.1328 22.956 9.78392 23.01 9.30017C23.0639 8.81642 22.7155 8.38037 22.2316 8.32646L0.979102 5.95646C0.730312 5.92916 0.480586 6.00838 0.293672 6.1756C0.106758 6.34283 0 6.58177 0 6.83255V34.5033C0 34.9902 0.394688 35.3848 0.881484 35.3848H13.5037C15.1587 35.3848 16.515 36.7312 16.5274 38.386L16.6826 59.1251C16.6862 59.6094 17.0798 60 17.5641 60H37.7316C38.1633 60 38.5314 59.6874 38.6013 59.2615L40.1978 49.5404C40.2766 49.0598 39.9512 48.6064 39.4709 48.5275ZM25.2636 58.2371V43.0141C25.2636 42.7388 25.1351 42.4795 24.9161 42.3127C24.0465 41.6508 22.9805 40.6203 22.8401 39.4696C22.7079 38.3863 23.077 37.3788 23.8277 36.7744C24.5613 36.184 25.5265 36.0554 26.5455 36.412C28.3126 37.0305 29.9409 36.691 31.2495 36.4179C32.2121 36.2172 33.0435 36.044 33.5674 36.3231V36.3233C34.0236 36.5663 34.7121 37.541 34.7411 38.8607C34.7876 40.9797 33.1866 42.3759 31.8353 43.1739C31.5668 43.3326 31.4021 43.6211 31.4021 43.9329V58.2371H25.2636Z" fill="black"/>
<path d="M28.6984 9.04732L25.7272 8.71603C25.2441 8.66306 24.8075 9.01064 24.7534 9.49439C24.6994 9.97813 25.0479 10.4142 25.5318 10.4681L28.5031 10.7994C32.0154 11.191 35.2159 12.8847 37.515 15.5688C39.814 18.2527 40.9963 21.6754 40.8439 25.2062L40.2864 38.1218L39.0292 45.7775C38.9502 46.258 39.2758 46.7113 39.756 46.7901C39.8044 46.7982 39.8526 46.802 39.8999 46.802C40.3239 46.802 40.6977 46.4953 40.7686 46.0633L42.0345 38.3554C42.0402 38.3206 42.0439 38.2857 42.0454 38.2506L42.6052 25.2821C42.7769 21.3034 41.4447 17.4464 38.8539 14.4219C36.2631 11.3974 32.6565 9.48876 28.6984 9.04732Z" fill="black"/>
<path d="M36.5049 24.035C36.5049 20.8527 34.7989 18.3597 32.6209 18.3597C30.4428 18.3597 28.7367 20.8527 28.7367 24.035C28.7367 27.2174 30.4428 29.7102 32.6209 29.7102C34.7988 29.7102 36.5049 27.2174 36.5049 24.035ZM30.4995 24.035C30.4995 21.7294 31.6175 20.1226 32.6209 20.1226C33.6242 20.1226 34.7421 21.7294 34.7421 24.035C34.7421 26.3407 33.6242 27.9473 32.6209 27.9473C31.6175 27.9473 30.4995 26.3406 30.4995 24.035Z" fill="black"/>
<path d="M46.3735 23.2112L55.7651 19.2195C56.348 18.9919 56.4868 18.1559 56.0089 17.7522L54.4054 16.3137L59.4973 13.8887C60.0434 13.6471 60.1712 12.8605 59.73 12.4583L55.1724 8.06433C54.8247 7.72893 54.272 7.7362 53.9331 8.07991L47.0805 15.028C46.7182 15.3793 46.7526 16.019 47.1503 16.3294L48.4132 17.3615L45.3016 21.9017C44.7928 22.5928 45.6009 23.5721 46.3735 23.2112ZM50.156 16.5089L49.0152 15.5767L54.5762 9.93815L57.5904 12.8442L52.4532 15.2908C51.8951 15.5373 51.7779 16.3487 52.2436 16.7428L53.8001 18.1392L48.4626 20.4077L50.3254 17.6896C50.5844 17.3119 50.5108 16.7987 50.156 16.5089Z" fill="black"/>
<path d="M46.9174 5.56836C46.7461 5.32039 46.4592 5.17578 46.1586 5.18868L44.66 5.24598L46.1724 1.18965C46.3964 0.637113 45.9423 -0.0164421 45.3465 0.000315732H40.2077C39.7241 0.000315732 39.3308 0.390081 39.3262 0.873714L39.2543 8.80649C39.2387 9.31086 39.7082 9.74633 40.2099 9.69289L41.3771 9.59422L42.1011 13.8482C42.2177 14.6961 43.4721 14.8443 43.7821 14.0432L47.004 6.41235C47.1216 6.13461 47.0887 5.81633 46.9174 5.56836ZM43.3328 10.5759L42.9793 8.49969C42.9067 8.07301 42.5367 7.7661 42.1112 7.7661C42.0864 7.7661 42.0613 7.76715 42.0362 7.76914L41.026 7.85469L41.0814 1.76317H44.0773L42.5462 5.8693C42.3164 6.43403 42.7982 7.09977 43.4058 7.05793L44.8412 7.00309L43.3328 10.5759Z" fill="black"/>
<path d="M59.1262 26.0216L51.1934 25.9497C50.6893 25.9341 50.2535 26.4036 50.307 26.9054L50.4057 28.0726L46.1517 28.7964C45.3027 28.9126 45.1572 30.1701 45.9567 30.4774L53.5876 33.6993C54.1552 33.9598 54.8541 33.478 54.8111 32.8536L54.7538 31.3551L58.81 32.8675C59.3626 33.0916 60.0161 32.6373 59.9994 32.0416V26.9028C59.9996 26.4193 59.6098 26.0259 59.1262 26.0216ZM58.2368 30.7723L54.1306 29.2413C53.5652 29.0115 52.9011 29.4924 52.942 30.1008L52.9968 31.5362L49.4243 30.0277L51.5002 29.6744C51.9519 29.5976 52.2693 29.1877 52.2308 28.7313L52.1454 27.7211L58.2368 27.7763V30.7723Z" fill="black"/>
</g>
<defs>
<clipPath id="clip0_815_41538">
<rect width="60" height="60" fill="white"/>
</clipPath>
</defs>
</svg>
