<svg width="60" height="60" viewBox="0 0 60 60" fill="none" xmlns="http://www.w3.org/2000/svg">
<path d="M45.5855 11.6719C42.3384 5.76567 36.4519 1.32192 30 1.31958C23.5481 1.31724 17.6616 5.76567 14.4145 11.6719C12.7331 14.7319 13.0481 20.8332 14.1099 25.7002H45.8906C46.9519 20.8336 47.2669 14.7324 45.5855 11.6719Z" fill="#B26B88"/>
<path d="M43.1062 24.9066L41.9016 33.4252C44.0442 33.7753 46.4986 31.3078 46.8539 29.1656C47.2908 26.5336 45.7908 24.6848 43.1062 24.9066Z" fill="#FFA39C"/>
<path d="M13.1461 29.1656C13.5014 31.3078 15.9558 33.7753 18.0984 33.4252L16.8937 24.9066C14.2092 24.6848 12.7092 26.5336 13.1461 29.1656Z" fill="#FFA39C"/>
<path d="M52.2117 58.9031H7.78827C8.48921 57.0603 9.59816 55.4001 11.032 54.0469C13.3101 51.9328 19.0898 50.8828 22.0476 49.3828C22.8258 49.0082 23.5082 48.461 24.0427 47.7826C24.5772 47.1043 24.9498 46.3129 25.132 45.4687C25.1789 45.2859 25.2164 45.1078 25.2445 44.9297C25.3741 44.0881 25.4555 43.2399 25.4883 42.389H34.507C34.5414 43.2384 34.6243 44.0851 34.7555 44.925C34.7836 45.1031 34.8211 45.2859 34.868 45.4687C35.0502 46.3129 35.4227 47.1043 35.9573 47.7826C36.4918 48.461 37.1742 49.0082 37.9523 49.3828C40.9055 50.8828 46.6851 51.9328 48.968 54.0469C50.3988 55.4026 51.5073 57.0621 52.2117 58.9031Z" fill="#FFA39C"/>
<path d="M34.7554 44.925C33.488 45.6469 32.1174 46.1701 30.6914 46.4765C30.2362 46.5797 29.7637 46.5797 29.3086 46.4765C27.8836 46.1691 26.5133 45.6475 25.2445 44.9297C25.3741 44.0881 25.4555 43.2399 25.4883 42.389H34.507C34.5414 43.2384 34.6243 44.0851 34.7554 44.925Z" fill="#FF6C73"/>
<path d="M42.6488 30.8906C41.941 34.4906 40.4691 37.3875 38.5613 39.2719C38.5378 39.3 38.5097 39.3234 38.4863 39.3469C36.6816 41.0953 34.3847 42.9844 30.6863 43.8C30.2311 43.9031 29.7586 43.9031 29.3035 43.8C25.605 42.9844 23.3082 41.0953 21.5035 39.3469C21.48 39.3234 21.4519 39.3 21.4285 39.2719C19.5113 37.3828 18.1003 34.4812 17.3972 30.8719C17.02 28.9059 16.8488 26.9061 16.8863 24.9047C16.9894 16.575 20.6175 20.8219 23.3035 13.064C25.5469 6.55779 32.5238 7.22341 36.0938 11.5828C36.3813 11.9282 36.762 12.1836 37.1907 12.3187C41.8782 13.8234 42.8719 18.3562 43.0969 24.9047C43.1771 26.9106 43.0268 28.919 42.6488 30.8906Z" fill="#FFB3A9"/>
<path d="M30 31.9547C29.3442 31.9326 28.719 31.6723 28.2412 31.2225C28.1259 31.1051 28.0588 30.9487 28.0533 30.7842C28.0479 30.6197 28.1044 30.4592 28.2118 30.3344C28.3192 30.2097 28.4695 30.1298 28.6329 30.1107C28.7964 30.0915 28.9611 30.1345 29.0944 30.2311C29.2066 30.3613 29.3456 30.4658 29.5019 30.5374C29.6582 30.609 29.8281 30.646 30 30.646C30.1719 30.646 30.3418 30.609 30.4981 30.5374C30.6543 30.4658 30.7934 30.3613 30.9056 30.2311C31.0389 30.1345 31.2036 30.0915 31.367 30.1107C31.5305 30.1298 31.6808 30.2097 31.7882 30.3344C31.8955 30.4592 31.9521 30.6197 31.9466 30.7842C31.9412 30.9487 31.8741 31.1051 31.7587 31.2225C31.281 31.6723 30.6558 31.9326 30 31.9547Z" fill="black"/>
<path d="M34.0823 34.9097C34.0563 34.7784 33.9792 34.6629 33.868 34.5884C33.7568 34.514 33.6206 34.4867 33.4894 34.5126H33.4814C32.9414 34.6235 32.3862 34.6394 31.8408 34.5595C31.7048 34.5403 31.5717 34.5126 31.4142 34.484C31.1906 34.4326 30.9596 34.4217 30.7322 34.4517C30.4941 34.4935 30.2678 34.5862 30.0689 34.7236C30.0474 34.7356 30.0232 34.7419 29.9986 34.7419C29.974 34.7419 29.9497 34.7356 29.9283 34.7236C29.7293 34.5862 29.5031 34.4935 29.265 34.4517C29.0375 34.4217 28.8065 34.4326 28.583 34.484C28.4255 34.5145 28.2923 34.5403 28.1564 34.5595C27.6109 34.6394 27.0558 34.6235 26.5158 34.5126H26.5073C26.385 34.4883 26.258 34.5102 26.1509 34.5741C26.0437 34.638 25.964 34.7393 25.9272 34.8584C25.8904 34.9776 25.899 35.1062 25.9514 35.2193C26.0039 35.3325 26.0964 35.4223 26.2111 35.4712C26.857 35.7495 27.556 35.8832 28.259 35.8631C28.4334 35.8579 28.6097 35.8429 28.7606 35.8312C28.9145 35.8219 29.0662 35.8704 29.1862 35.9672C29.4151 36.1062 29.6769 36.1821 29.9447 36.187H30.0497C30.3175 36.1821 30.5792 36.1062 30.8081 35.9672C30.9282 35.8704 31.0802 35.8219 31.2342 35.8312C31.3847 35.8429 31.5623 35.8579 31.7358 35.8631C32.4387 35.8831 33.1374 35.7494 33.7833 35.4712C33.8899 35.4261 33.9778 35.3456 34.0323 35.2434C34.0867 35.1412 34.1044 35.0234 34.0823 34.9097Z" fill="black"/>
<path d="M30 38.5674C29.632 38.5653 29.2693 38.4795 28.9392 38.3166C28.8517 38.2794 28.7726 38.2249 28.7067 38.1562C28.6408 38.0876 28.5896 38.0063 28.5561 37.9173C28.5225 37.8283 28.5074 37.7334 28.5116 37.6383C28.5158 37.5433 28.5393 37.4501 28.5805 37.3644C28.6218 37.2787 28.68 37.2023 28.7517 37.1397C28.8234 37.0772 28.907 37.0298 28.9975 37.0005C29.088 36.9712 29.1835 36.9606 29.2782 36.9692C29.373 36.9779 29.4649 37.0057 29.5486 37.051C29.6871 37.1249 29.8416 37.1635 29.9986 37.1635C30.1556 37.1635 30.3101 37.1249 30.4486 37.051C30.615 36.9804 30.8021 36.9765 30.9713 37.0402C31.1404 37.1039 31.2785 37.2303 31.3569 37.3932C31.4354 37.556 31.448 37.7428 31.3924 37.9148C31.3367 38.0867 31.217 38.2306 31.058 38.3166C30.7288 38.4791 30.3671 38.5648 30 38.5674Z" fill="black"/>
<path d="M33.7838 20.5054C34.4203 20.2235 35.0998 20.0506 35.7938 19.994C36.4619 19.9204 37.1364 19.9274 37.8028 20.0151C38.463 20.1025 39.1171 20.2301 39.7617 20.3972C40.4207 20.5542 41.0569 20.7946 41.655 21.1125C41.7227 21.1507 41.7737 21.2127 41.7984 21.2864C41.823 21.3601 41.8196 21.4403 41.7886 21.5116C41.7576 21.5829 41.7013 21.6401 41.6306 21.6724C41.5599 21.7046 41.4798 21.7096 41.4056 21.6862L41.3864 21.6797C40.801 21.5059 40.1992 21.3926 39.5906 21.3417C38.9727 21.2848 38.3519 21.2646 37.7316 21.2812C37.1138 21.2986 36.502 21.2981 35.8974 21.3234C35.3069 21.3523 34.7188 21.4185 34.1367 21.5217L34.1138 21.5264C33.9841 21.5516 33.8496 21.5284 33.7359 21.4611C33.6222 21.3939 33.537 21.2873 33.4966 21.1615C33.4562 21.0357 33.4633 20.8995 33.5165 20.7786C33.5698 20.6577 33.6655 20.5605 33.7856 20.5054H33.7838Z" fill="#9E5969"/>
<path d="M34.4461 25.8188C34.8297 25.9462 35.2363 25.9892 35.6381 25.9449C36.0822 25.9055 36.5206 25.8175 36.9455 25.6824C37.163 25.6135 37.3814 25.5418 37.5919 25.4551C37.7002 25.4176 38.2598 25.1686 38.2598 25.1686C38.5647 25.0328 38.8966 24.9686 39.2302 24.9811C39.4151 24.9885 39.5955 25.0406 39.7559 25.133C39.9163 25.2253 40.052 25.3551 40.1512 25.5113C40.1793 25.5622 40.1924 25.62 40.189 25.678C40.1855 25.736 40.1657 25.7918 40.1318 25.839C40.0978 25.8862 40.0512 25.9227 39.9973 25.9445C39.9435 25.9662 39.8845 25.9722 39.8273 25.9618L39.758 25.9491C39.5965 25.9196 39.4299 25.937 39.278 25.9993C39.11 26.0604 38.9496 26.141 38.8003 26.2393C38.7534 26.2711 38.4839 26.4418 38.4839 26.4418C38.3611 26.5093 38.2383 26.5824 38.1127 26.6396C37.8606 26.7583 37.601 26.8601 37.3355 26.9443C36.7923 27.1171 36.2244 27.1993 35.6545 27.1876C35.0328 27.1883 34.4286 26.9816 33.9375 26.6002C33.8536 26.5296 33.7972 26.4319 33.7779 26.3239C33.7587 26.216 33.7778 26.1048 33.8321 26.0095C33.8864 25.9143 33.9724 25.8411 34.075 25.8026C34.1777 25.7642 34.2906 25.7629 34.3941 25.7991L34.4461 25.8188Z" fill="black"/>
<path d="M26.0625 26.6001C25.5714 26.9814 24.9672 27.1881 24.3454 27.1875C23.7755 27.1986 23.2076 27.1158 22.6645 26.9423C22.399 26.8581 22.1393 26.7563 21.8873 26.6376C21.7617 26.5781 21.2456 26.2692 21.1997 26.2373C21.0503 26.139 20.89 26.0585 20.722 25.9973C20.5701 25.9351 20.4035 25.9177 20.242 25.9472L20.1726 25.9598C20.1155 25.9702 20.0566 25.9641 20.0027 25.9424C19.9489 25.9206 19.9023 25.8841 19.8683 25.8369C19.8344 25.7898 19.8145 25.734 19.8109 25.676C19.8074 25.6181 19.8203 25.5603 19.8483 25.5094C19.9477 25.3532 20.0835 25.2234 20.2439 25.1311C20.4044 25.0388 20.5848 24.9867 20.7698 24.9792C21.1033 24.9667 21.4353 25.0308 21.7401 25.1667C21.7401 25.1667 22.2998 25.4156 22.4081 25.4531C22.6186 25.5403 22.837 25.6115 23.0545 25.6804C23.4794 25.8155 23.9178 25.9036 24.3619 25.9429C24.7636 25.9873 25.1703 25.9442 25.5539 25.8169L25.6064 25.7976C25.7098 25.7613 25.8228 25.7624 25.9255 25.8007C26.0282 25.839 26.1143 25.9121 26.1687 26.0073C26.2231 26.1025 26.2424 26.2138 26.2233 26.3218C26.2041 26.4297 26.1477 26.5276 26.0639 26.5983L26.0625 26.6001Z" fill="black"/>
<path d="M25.9022 21.5217C25.3198 21.4185 24.7314 21.3522 24.1406 21.3234C23.5359 21.2981 22.9219 21.2986 22.3069 21.2812C21.6865 21.2646 21.0658 21.2848 20.4478 21.3417C19.8392 21.3926 19.2375 21.5058 18.652 21.6797L18.6324 21.6857C18.5581 21.7098 18.4776 21.7054 18.4065 21.6733C18.3353 21.6412 18.2787 21.5838 18.2476 21.5122C18.2164 21.4407 18.2131 21.3601 18.2381 21.2862C18.2631 21.2123 18.3148 21.1504 18.383 21.1125C18.9811 20.7946 19.6173 20.5542 20.2763 20.3972C20.9209 20.2301 21.575 20.1025 22.2352 20.0151C22.9016 19.9274 23.5761 19.9204 24.2442 19.994C24.9382 20.0505 25.6177 20.2234 26.2542 20.5054C26.3739 20.5608 26.4692 20.6581 26.5222 20.7789C26.5751 20.8997 26.5821 21.0357 26.5418 21.1612C26.5014 21.2868 26.4166 21.3933 26.3032 21.4606C26.1898 21.528 26.0557 21.5515 25.9261 21.5268L25.9022 21.5217Z" fill="#9E5969"/>
<path d="M21.4547 39.2719C19.5375 37.3829 18.1266 34.4813 17.4235 30.8719C19.3125 30.2391 21.5625 31.2516 22.6641 33.3329C23.8406 35.5454 23.2922 38.1516 21.4547 39.2719Z" fill="#FFE1E1"/>
<path d="M42.675 30.8906C41.9672 34.4906 40.4953 37.3875 38.5875 39.2719C36.7453 38.1563 36.1969 35.5453 37.3735 33.3328C38.4891 31.2328 40.7719 30.2203 42.675 30.8906Z" fill="#FFE1E1"/>
<path d="M22.6106 38.6128C22.5264 38.6125 22.4438 38.5896 22.3716 38.5464C22.2993 38.5032 22.24 38.4413 22.1999 38.3672C22.1598 38.2932 22.1404 38.2097 22.1437 38.1255C22.147 38.0414 22.173 37.9597 22.2188 37.889C22.2921 37.7759 22.3589 37.6587 22.4189 37.5379C22.4454 37.4814 22.483 37.4307 22.5293 37.3889C22.5757 37.3471 22.6299 37.3149 22.6889 37.2944C22.7478 37.2738 22.8103 37.2652 22.8726 37.2691C22.9349 37.273 22.9958 37.2893 23.0518 37.3171C23.1077 37.3448 23.1575 37.3835 23.1983 37.4307C23.2391 37.478 23.27 37.533 23.2892 37.5924C23.3085 37.6518 23.3157 37.7144 23.3104 37.7766C23.3051 37.8388 23.2875 37.8994 23.2585 37.9547C23.1828 38.1076 23.0982 38.2559 23.0053 38.399C22.9627 38.4648 22.9042 38.5189 22.8352 38.5562C22.7663 38.5936 22.6891 38.613 22.6106 38.6128ZM23.2814 36.4495H23.2594C23.1979 36.4467 23.1376 36.4318 23.0818 36.4056C23.0261 36.3795 22.9761 36.3426 22.9346 36.2971C22.8931 36.2516 22.861 36.1984 22.8401 36.1405C22.8191 36.0826 22.8098 36.0212 22.8127 35.9597C22.8155 35.8969 22.8169 35.8331 22.8169 35.7722C22.8169 35.6958 22.8169 35.6217 22.8113 35.5481C22.8082 35.4865 22.8173 35.425 22.838 35.3669C22.8587 35.3089 22.8906 35.2555 22.932 35.2098C23.0155 35.1175 23.1323 35.0621 23.2566 35.0559C23.3809 35.0497 23.5026 35.0931 23.5949 35.1766C23.6872 35.2602 23.7425 35.3769 23.7488 35.5012C23.7535 35.5926 23.7558 35.6836 23.7553 35.7745C23.7553 35.8504 23.7553 35.9278 23.7502 36.0051C23.7439 36.1252 23.6918 36.2382 23.6045 36.3209C23.5173 36.4036 23.4016 36.4497 23.2814 36.4495ZM22.8638 34.215C22.772 34.2151 22.6822 34.1882 22.6055 34.1377C22.5288 34.0872 22.4687 34.0153 22.4325 33.9309C22.3786 33.8034 22.3181 33.6773 22.252 33.5526C22.1942 33.4441 22.1805 33.3175 22.214 33.1991C22.2474 33.0808 22.3254 32.98 22.4316 32.9179C22.5364 32.8569 22.6609 32.8395 22.7784 32.8693C22.896 32.8991 22.9971 32.9738 23.0602 33.0773C23.0695 33.0928 23.0855 33.1242 23.093 33.1387C23.1586 33.2615 23.2303 33.4106 23.295 33.5606C23.3255 33.6319 23.3378 33.7097 23.3308 33.7869C23.3239 33.8641 23.2979 33.9384 23.2551 34.0032C23.2124 34.0679 23.1543 34.121 23.086 34.1577C23.0177 34.1944 22.9413 34.2136 22.8638 34.2136V34.215ZM21.5363 32.3494C21.4201 32.3494 21.308 32.3063 21.2217 32.2284C21.1186 32.1347 21.012 32.0467 20.902 31.9645C20.8528 31.9276 20.8113 31.8813 20.7799 31.8283C20.7486 31.7754 20.728 31.7167 20.7193 31.6558C20.7106 31.5949 20.7139 31.5328 20.7292 31.4732C20.7445 31.4135 20.7714 31.3575 20.8083 31.3083C20.8452 31.259 20.8915 31.2175 20.9445 31.1862C20.9974 31.1548 21.0561 31.1342 21.117 31.1255C21.1779 31.1168 21.24 31.1201 21.2996 31.1354C21.3593 31.1507 21.4153 31.1776 21.4645 31.2145C21.5972 31.3139 21.727 31.4198 21.8522 31.5333C21.9225 31.5968 21.9719 31.6801 21.9939 31.7723C22.0159 31.8645 22.0094 31.9611 21.9754 32.0496C21.9413 32.138 21.8813 32.214 21.8031 32.2676C21.725 32.3212 21.6324 32.3499 21.5377 32.3498L21.5363 32.3494ZM19.5385 31.2712C19.5007 31.2713 19.4631 31.2667 19.4264 31.2576C19.2949 31.2254 19.1617 31.2002 19.0275 31.1822C18.9649 31.1761 18.9042 31.1576 18.8489 31.1276C18.7936 31.0976 18.7449 31.0568 18.7057 31.0075C18.6666 30.9583 18.6377 30.9018 18.6209 30.8412C18.604 30.7806 18.5995 30.7172 18.6077 30.6548C18.6158 30.5925 18.6364 30.5324 18.6683 30.4782C18.7001 30.4239 18.7426 30.3767 18.7931 30.3392C18.8436 30.3017 18.9011 30.2748 18.9623 30.26C19.0234 30.2452 19.0869 30.2428 19.1489 30.2531C19.3176 30.2749 19.4849 30.3062 19.65 30.3469C19.7612 30.3742 19.8585 30.4414 19.9236 30.5356C19.9887 30.6298 20.017 30.7445 20.0033 30.8582C19.9896 30.9719 19.9347 31.0766 19.8491 31.1526C19.7635 31.2286 19.653 31.2711 19.5385 31.2712Z" fill="#9B506B"/>
<path d="M37.0345 38.3991C36.9416 38.256 36.8571 38.1076 36.7814 37.9547C36.7524 37.8994 36.7347 37.8389 36.7294 37.7767C36.7241 37.7144 36.7313 37.6518 36.7506 37.5924C36.7698 37.533 36.8008 37.4781 36.8415 37.4308C36.8823 37.3835 36.9321 37.3448 36.9881 37.3171C37.044 37.2893 37.1049 37.273 37.1672 37.2691C37.2296 37.2652 37.292 37.2738 37.351 37.2944C37.4099 37.315 37.4642 37.3471 37.5105 37.3889C37.5569 37.4308 37.5944 37.4814 37.6209 37.538C37.6811 37.6586 37.7479 37.7758 37.8211 37.8891C37.8554 37.9407 37.8792 37.9987 37.891 38.0595C37.9028 38.1204 37.9024 38.1831 37.8898 38.2438C37.8773 38.3046 37.8528 38.3622 37.8177 38.4134C37.7827 38.4646 37.7379 38.5083 37.6859 38.5421C37.6338 38.5758 37.5756 38.5989 37.5146 38.61C37.4535 38.6211 37.3909 38.6199 37.3303 38.6066C37.2697 38.5933 37.2124 38.5681 37.1616 38.5325C37.1108 38.4969 37.0676 38.4515 37.0345 38.3991ZM36.2897 36.0024C36.2864 35.925 36.285 35.8477 36.285 35.7717C36.285 35.6808 36.285 35.5899 36.2911 35.4984C36.2973 35.3741 36.3526 35.2574 36.4449 35.1739C36.5372 35.0903 36.6589 35.0469 36.7833 35.0531C36.9076 35.0593 37.0243 35.1147 37.1078 35.207C37.1914 35.2993 37.2348 35.421 37.2286 35.5453C37.2253 35.6189 37.2229 35.693 37.2234 35.7694C37.2234 35.8327 37.2234 35.8964 37.2272 35.9569C37.23 36.0184 37.2207 36.0798 37.1998 36.1377C37.1789 36.1956 37.1467 36.2488 37.1053 36.2943C37.0638 36.3398 37.0137 36.3767 36.958 36.4028C36.9023 36.429 36.8419 36.4439 36.7804 36.4467H36.7584C36.6382 36.4469 36.5225 36.4009 36.4353 36.3182C36.348 36.2355 36.2959 36.1224 36.2897 36.0024ZM36.9928 34.1775C36.9361 34.1533 36.8848 34.1182 36.8417 34.0742C36.7986 34.0302 36.7647 33.9781 36.7417 33.921C36.7188 33.8638 36.7073 33.8027 36.708 33.7411C36.7087 33.6795 36.7215 33.6187 36.7458 33.562C36.8109 33.4106 36.8822 33.2616 36.9483 33.1402C36.9553 33.1242 36.9717 33.0933 36.9806 33.0788C37.0437 32.9752 37.1448 32.9005 37.2623 32.8707C37.3799 32.8409 37.5044 32.8584 37.6092 32.9194C37.7154 32.9814 37.7935 33.0821 37.8271 33.2005C37.8606 33.3188 37.847 33.4455 37.7892 33.5541C37.7226 33.6791 37.6623 33.8052 37.6083 33.9324C37.5721 34.0167 37.5119 34.0886 37.4353 34.1391C37.3586 34.1896 37.2688 34.2165 37.177 34.2164C37.113 34.2164 37.0496 34.2032 36.9909 34.1775H36.9928ZM38.1562 32.1952C38.1149 32.1495 38.083 32.0961 38.0623 32.0381C38.0416 31.9801 38.0325 31.9186 38.0356 31.8571C38.0387 31.7956 38.0539 31.7353 38.0803 31.6796C38.1067 31.624 38.1438 31.5741 38.1895 31.5328C38.3145 31.4194 38.4437 31.3131 38.5772 31.2141C38.6264 31.1771 38.6824 31.1503 38.7421 31.135C38.8017 31.1197 38.8638 31.1163 38.9247 31.125C38.9856 31.1337 39.0443 31.1544 39.0972 31.1857C39.1502 31.2171 39.1965 31.2586 39.2334 31.3078C39.2703 31.3571 39.2972 31.4131 39.3125 31.4727C39.3278 31.5324 39.3312 31.5944 39.3224 31.6554C39.3137 31.7163 39.2931 31.7749 39.2618 31.8279C39.2304 31.8809 39.1889 31.9271 39.1397 31.9641C39.0297 32.0459 38.9229 32.1339 38.8195 32.228C38.7738 32.2693 38.7205 32.3012 38.6625 32.3219C38.6045 32.3426 38.5429 32.3517 38.4814 32.3486C38.4199 32.3455 38.3596 32.3303 38.304 32.3039C38.2483 32.2775 38.1985 32.2404 38.1572 32.1947L38.1562 32.1952ZM40.0467 30.9141C40.0171 30.7934 40.0367 30.6658 40.1012 30.5596C40.1656 30.4533 40.2696 30.377 40.3903 30.3473C40.5553 30.3067 40.7224 30.2754 40.8909 30.2536C40.9529 30.2434 41.0163 30.2459 41.0773 30.2607C41.1384 30.2755 41.1958 30.3025 41.2462 30.3399C41.2967 30.3774 41.339 30.4246 41.3709 30.4788C41.4027 30.5329 41.4233 30.5929 41.4315 30.6552C41.4396 30.7175 41.4352 30.7808 41.4184 30.8413C41.4017 30.9019 41.3729 30.9584 41.3338 31.0076C41.2948 31.0568 41.2462 31.0977 41.1911 31.1277C41.1359 31.1578 41.0753 31.1765 41.0128 31.1827C40.8784 31.2007 40.7451 31.2258 40.6134 31.2581C40.5768 31.2672 40.5391 31.2718 40.5014 31.2717C40.3959 31.2723 40.2934 31.2373 40.2103 31.1724C40.1272 31.1075 40.0684 31.0165 40.0434 30.9141H40.0467Z" fill="#9B506B"/>
<path d="M43.5441 34.9903C43.2887 34.9401 43.0237 34.991 42.8051 35.1323C42.5865 35.2736 42.4313 35.4943 42.3722 35.7478L43.822 45.3689C45.4603 44.3015 45.9938 43.3964 45.9731 41.0432C45.9656 40.0411 44.888 35.2392 43.5441 34.9903Z" fill="#FFA39C"/>
<path d="M45.2058 58.9083C45.2058 58.9083 42.7683 53.4328 42.4322 51.855C42.0272 49.9463 44.31 45.1688 44.31 45.1688C44.92 43.346 44.8882 41.3694 44.22 39.5672C43.5961 37.8853 42.8062 35.8008 42.2559 34.1958C42.177 33.9637 42.0217 33.7652 41.8154 33.6327C41.609 33.5002 41.3639 33.4417 41.12 33.4665C40.876 33.4914 40.6478 33.5982 40.4724 33.7696C40.297 33.941 40.185 34.1667 40.1545 34.41C40.1545 34.4255 40.1512 34.441 40.1498 34.4569C40.0692 35.3944 40.6734 39.217 40.9416 40.4185C41.2003 41.5763 39.4415 43.1728 38.6086 44.4028C35.9437 48.3253 37.2286 50.5735 37.784 51.856C38.2589 52.9524 39.5742 58.9111 39.5742 58.9111L45.2058 58.9083Z" fill="#FFC2B6"/>
<path d="M16.4559 34.9904C15.112 35.2393 14.0344 40.0411 14.0259 41.0433C14.0058 43.3965 14.5388 44.3016 16.177 45.369L17.625 35.7479C17.5659 35.495 17.4111 35.2748 17.1931 35.1335C16.9751 34.9923 16.7109 34.941 16.4559 34.9904Z" fill="#FFA39C"/>
<path d="M14.7942 58.9083C14.7942 58.9083 17.2317 53.4328 17.5678 51.855C17.9728 49.9463 15.69 45.1688 15.69 45.1688C15.08 43.346 15.1117 41.3694 15.78 39.5672C16.4039 37.8853 17.1937 35.8008 17.744 34.1958C17.823 33.9637 17.9783 33.7652 18.1846 33.6327C18.3909 33.5002 18.6361 33.4417 18.88 33.4665C19.1239 33.4914 19.3522 33.5982 19.5276 33.7696C19.7029 33.941 19.815 34.1667 19.8454 34.41C19.8454 34.4255 19.8487 34.441 19.8501 34.4569C19.9308 35.3944 19.3265 39.217 19.0584 40.4185C18.7997 41.5763 20.5584 43.1728 21.3914 44.4028C24.0562 48.3253 22.7714 50.5735 22.2159 51.856C21.7411 52.9524 20.4258 58.9111 20.4258 58.9111L14.7942 58.9083Z" fill="#FFC2B6"/>
<path d="M33.7589 20.49C34.397 20.2072 35.0771 20.0311 35.7722 19.9688C36.4417 19.8984 37.1171 19.9072 37.7846 19.995C38.4453 20.0839 39.1 20.2132 39.7449 20.3822C40.4047 20.5408 41.0414 20.7832 41.6396 21.1036C41.7093 21.1429 41.762 21.2067 41.7875 21.2826C41.8131 21.3585 41.8095 21.4412 41.7777 21.5147C41.7458 21.5881 41.6878 21.6472 41.615 21.6804C41.5421 21.7137 41.4595 21.7188 41.3832 21.6947L41.3625 21.6881C40.7775 21.5164 40.1764 21.4051 39.5686 21.3558C38.9511 21.3005 38.3307 21.2818 37.711 21.3C36.5105 21.2828 35.3105 21.3621 34.1227 21.5372L34.0997 21.5414C33.9661 21.5675 33.8276 21.5438 33.7103 21.4747C33.593 21.4057 33.5051 21.296 33.4631 21.1665C33.4212 21.037 33.4281 20.8967 33.4826 20.7719C33.5371 20.6472 33.6354 20.5472 33.7589 20.49Z" fill="black"/>
<path d="M25.8773 21.5377C24.6895 21.3626 23.4896 21.2832 22.2891 21.3005C21.6693 21.2823 21.049 21.3009 20.4314 21.3563C19.8237 21.4056 19.2226 21.5169 18.6375 21.6886L18.6169 21.6947C18.5407 21.7182 18.4585 21.7128 18.3861 21.6795C18.3136 21.6462 18.256 21.5873 18.2242 21.5142C18.1925 21.4411 18.1888 21.3588 18.214 21.2831C18.2391 21.2074 18.2913 21.1437 18.3605 21.1041C18.9586 20.7837 19.5954 20.5413 20.2552 20.3827C20.9001 20.2137 21.5547 20.0844 22.2155 19.9955C22.8829 19.9077 23.5583 19.8989 24.2278 19.9693C24.9237 20.0312 25.6046 20.2072 26.2434 20.49C26.3664 20.5476 26.4642 20.6481 26.5183 20.7726C26.5725 20.8971 26.5793 21.0371 26.5375 21.1663C26.4957 21.2955 26.4082 21.405 26.2914 21.4743C26.1746 21.5435 26.0365 21.5677 25.9031 21.5424L25.8773 21.5377Z" fill="black"/>
<path d="M52.8605 58.6378C52.1205 56.6999 50.9524 54.9541 49.4433 53.5308C48.037 52.2286 45.4899 51.33 43.1288 50.5477C43.4091 49.1802 43.8333 47.8462 44.3944 46.568C44.5871 46.1198 44.8915 45.7284 45.2785 45.4313C46.5216 44.4558 47.1478 43.3346 47.1277 41.0372C47.1216 40.29 46.1686 34.6777 44.1235 34.2994C43.7764 34.2334 43.4174 34.2766 43.096 34.4232C43.0556 34.3092 43.0186 34.201 42.9802 34.0903C45.1496 33.6797 47.1989 31.3777 47.5491 29.2805C47.6946 28.6205 47.6898 27.9363 47.535 27.2784C47.3803 26.6205 47.0796 26.0058 46.6552 25.4799C47.5983 20.933 48.0249 14.6518 46.2028 11.3339C42.5705 4.7255 36.3628 0.618781 30 0.615968C23.6372 0.613156 17.4295 4.7255 13.7986 11.3339C11.9766 14.6503 12.4031 20.9349 13.3463 25.4799C12.9218 26.0058 12.6211 26.6205 12.4664 27.2784C12.3117 27.9363 12.3069 28.6205 12.4524 29.2805C12.8002 31.3777 14.8519 33.6797 17.0213 34.0903C16.9828 34.201 16.9453 34.3092 16.9055 34.4232C16.5844 34.2763 16.2257 34.2331 15.8789 34.2994C13.8328 34.6777 12.8789 40.29 12.8738 41.0372C12.8536 43.3341 13.4799 44.4563 14.7239 45.4317C15.1115 45.7284 15.4164 46.1197 15.6094 46.568C16.1711 47.8452 16.5954 49.1784 16.875 50.5453C14.5205 51.3225 11.9747 52.2169 10.5595 53.5308C9.05045 54.954 7.88246 56.6998 7.14283 58.6378C7.07728 58.8095 7.08152 59 7.15464 59.1685C7.22776 59.3371 7.36395 59.4703 7.53407 59.5397C7.70419 59.6091 7.89472 59.6092 8.06488 59.5399C8.23504 59.4706 8.37132 59.3374 8.44455 59.1689C9.10867 57.4218 10.1585 55.8471 11.5158 54.5621C12.6141 53.5425 14.7825 52.7307 16.7813 52.0585C16.2933 53.6522 14.7549 57.2368 14.1417 58.6182C14.0674 58.7884 14.0635 58.9811 14.1308 59.1542C14.1981 59.3273 14.3312 59.4667 14.5009 59.5421C14.6707 59.6174 14.8633 59.6225 15.0369 59.5563C15.2104 59.4901 15.3507 59.3579 15.427 59.1886C15.5292 58.958 17.933 53.5327 18.2794 51.9014C18.7106 49.8661 16.6856 45.4796 16.3674 44.8064C15.8235 43.1463 15.8565 41.3511 16.4611 39.7121L16.8567 38.6503C17.3888 37.2244 17.9883 35.6072 18.4331 34.3191C18.4563 34.2444 18.5022 34.1789 18.5644 34.1316C18.6249 34.0923 18.6943 34.0686 18.7662 34.0628C18.8381 34.057 18.9104 34.0692 18.9764 34.0983C19.0368 34.1268 19.0875 34.1724 19.1223 34.2293C19.1572 34.2863 19.1745 34.3522 19.1724 34.4189C19.1807 34.5871 19.1777 34.7556 19.1635 34.9233C19.003 36.6839 18.7462 38.4343 18.3942 40.1668C18.1322 41.3419 19.102 42.5288 20.04 43.6763C20.3395 44.0419 20.6217 44.3878 20.8327 44.6972C23.1183 48.0619 22.2661 49.9678 21.7022 51.2283L21.5935 51.4749C21.1055 52.5999 19.882 58.126 19.7442 58.7527C19.7238 58.8431 19.7214 58.9367 19.7372 59.028C19.753 59.1194 19.7868 59.2067 19.8365 59.285C19.8862 59.3632 19.9509 59.4309 20.0268 59.4841C20.1028 59.5372 20.1885 59.5748 20.2791 59.5947C20.3696 59.6146 20.4632 59.6164 20.5544 59.6C20.6457 59.5836 20.7328 59.5493 20.8107 59.4991C20.8887 59.4489 20.9559 59.3838 21.0086 59.3075C21.0613 59.2312 21.0983 59.1452 21.1177 59.0546C21.6474 56.6485 22.5549 52.7921 22.8835 52.0341L22.9856 51.803C23.4033 50.9592 23.6552 50.0431 23.7277 49.1044C25.7053 47.4399 26.0133 45.1711 26.1267 43.4794C27.2085 43.9674 28.3426 44.3299 29.5069 44.5599C29.6661 44.5983 29.8288 44.6202 29.9925 44.625C30.1765 44.6189 30.3594 44.5946 30.5386 44.5524C31.6888 44.3245 32.8092 43.966 33.878 43.4836C33.9919 45.1739 34.2999 47.4455 36.2785 49.1086C36.3516 50.0451 36.6033 50.9589 37.02 51.8007L37.1222 52.0317C37.4503 52.7897 38.3578 56.6457 38.888 59.0522C38.9073 59.1429 38.9444 59.2289 38.9971 59.3051C39.0497 59.3814 39.117 59.4466 39.1949 59.4968C39.2729 59.547 39.36 59.5813 39.4512 59.5977C39.5425 59.6141 39.6361 59.6123 39.7266 59.5924C39.8172 59.5725 39.9029 59.5349 39.9788 59.4817C40.0548 59.4285 40.1195 59.3609 40.1692 59.2826C40.2189 59.2044 40.2526 59.117 40.2685 59.0257C40.2843 58.9343 40.2819 58.8408 40.2614 58.7503C40.1236 58.1236 38.9021 52.598 38.4122 51.4725L38.3035 51.226C37.741 49.9655 36.8874 48.0596 39.173 44.6949C39.3839 44.3855 39.6661 44.0386 39.9656 43.6739C40.9031 42.5264 41.8735 41.3396 41.6114 40.1639C41.2585 38.432 41.0008 36.682 40.8394 34.9219C40.8235 34.7403 40.8219 34.5577 40.8347 34.3758C40.8371 34.316 40.8563 34.2581 40.8903 34.2088C40.9242 34.1596 40.9714 34.1209 41.0264 34.0974C41.0925 34.0683 41.1647 34.0561 41.2367 34.0619C41.3086 34.0677 41.3779 34.0913 41.4385 34.1307C41.5007 34.1779 41.5464 34.2435 41.5692 34.3182C42.0136 35.6077 42.6141 37.2244 43.1461 38.6503L43.5417 39.7121C44.1464 41.3511 44.1794 43.1463 43.6355 44.8064C43.3163 45.4796 41.2917 49.8661 41.7235 51.9014C42.0699 53.5327 44.4736 58.958 44.5758 59.1886C44.6522 59.3579 44.7925 59.4901 44.966 59.5563C45.1395 59.6225 45.3322 59.6174 45.5019 59.5421C45.6717 59.4667 45.8047 59.3273 45.872 59.1542C45.9393 58.9811 45.9354 58.7884 45.8611 58.6182C45.2485 57.2377 43.7119 53.6593 43.223 52.0622C45.2855 52.756 47.3888 53.5467 48.4861 54.5625C49.8435 55.8472 50.8932 57.4219 51.5569 59.1689C51.6097 59.2983 51.6999 59.4091 51.816 59.487C51.932 59.5649 52.0687 59.6064 52.2085 59.6063C52.2993 59.6064 52.3893 59.5887 52.4733 59.5543C52.5589 59.5195 52.6369 59.4683 52.7027 59.4034C52.7685 59.3386 52.8209 59.2614 52.8568 59.1763C52.8928 59.0912 52.9116 58.9998 52.9122 58.9074C52.9129 58.815 52.8953 58.7234 52.8605 58.6378ZM15.5363 38.1586L15.1406 39.2232C14.6786 40.4763 14.497 41.8156 14.6086 43.1466C14.347 42.4798 14.235 41.7637 14.2805 41.0489C14.2908 39.7697 15.4491 35.9161 16.1358 35.6818C16.1871 35.672 16.24 35.6752 16.2897 35.691C16.3395 35.7067 16.3845 35.7347 16.4208 35.7722C16.1292 36.5682 15.8227 37.3908 15.5363 38.1586ZM15.0305 12.0113C18.3638 5.94566 24.2395 2.02456 30 2.02222C35.7605 2.01987 41.6367 5.94566 44.97 12.0113C46.4372 14.6832 46.2577 20.0653 45.4031 24.5663C44.8843 24.3412 44.3277 24.2159 43.7625 24.1969C43.3163 18.0563 42.45 13.2657 37.4175 11.6499C37.1168 11.5558 36.8496 11.3767 36.6483 11.1342C34.4817 8.4905 31.1714 7.12362 28.2146 7.65097C25.6191 8.11456 23.6419 9.95441 22.6463 12.8316C21.4927 16.1667 20.2135 17.1169 19.0838 17.9546C17.6695 19.005 16.4424 19.9322 16.222 24.1969C15.6633 24.2185 15.1132 24.3431 14.5997 24.5644C13.7438 20.0649 13.5628 14.6822 15.0305 12.0113ZM13.8394 29.0508C13.7274 28.588 13.7227 28.1057 13.8255 27.6408C13.9284 27.1759 14.1361 26.7406 14.4328 26.3682C14.9045 25.8884 15.546 25.6135 16.2188 25.6027C16.2306 26.2589 16.2599 26.9028 16.3064 27.5344C16.0492 27.4628 15.781 27.4391 15.5152 27.4646C15.4229 27.473 15.3332 27.4995 15.2512 27.5427C15.1692 27.5859 15.0966 27.6449 15.0375 27.7163C14.9784 27.7877 14.9339 27.87 14.9068 27.9586C14.8796 28.0472 14.8702 28.1403 14.8791 28.2325C14.8881 28.3248 14.9151 28.4143 14.9588 28.4961C15.0024 28.5778 15.0618 28.6501 15.1335 28.7088C15.2052 28.7675 15.2878 28.8115 15.3766 28.8381C15.4653 28.8648 15.5585 28.8737 15.6506 28.8643C15.788 28.8516 16.2014 28.8132 16.5099 29.4553C16.6562 30.5452 16.8721 31.6246 17.1563 32.6869C15.6469 32.3307 14.0878 30.5461 13.8394 29.0508ZM24.75 42.9211C24.6741 44.2177 24.5714 45.8944 23.5547 47.2533C23.242 46.0518 22.7124 44.9175 21.9919 43.9064C21.7472 43.5455 21.4453 43.1761 21.1256 42.7852C20.5027 42.0235 19.65 40.981 19.7635 40.4724C19.8441 40.1124 19.957 39.5044 20.0738 38.8046C20.3662 39.1738 20.6818 39.524 21.0188 39.8532C22.1413 40.976 23.3976 41.9566 24.7594 42.773C24.757 42.8241 24.7533 42.8686 24.75 42.9211ZM38.8735 42.7852C38.5538 43.1761 38.2519 43.5455 38.0072 43.9064C37.2874 44.9166 36.758 46.0497 36.4453 47.25C35.43 45.8907 35.325 44.2177 35.2486 42.923C35.2458 42.8705 35.2421 42.8255 35.2392 42.7744C36.601 41.9563 37.8575 40.9747 38.9808 39.8513C39.3176 39.5217 39.6331 39.171 39.9253 38.8013C40.0421 39.5016 40.1555 40.11 40.2361 40.47C40.3495 40.981 39.4964 42.0235 38.8735 42.7852ZM41.4253 32.6682C41.0942 32.6273 40.7581 32.6772 40.4531 32.8125C40.1728 32.9369 39.9306 33.1338 39.7516 33.3828C39.5725 33.6319 39.4631 33.9242 39.4346 34.2296C39.4346 34.2296 39.4153 34.7025 39.4346 35.0091C39.4646 35.4971 39.5349 36.1299 39.6221 36.7964C39.1661 37.5415 38.6213 38.2284 37.9997 38.8421C36.1247 40.6594 33.8883 42.4421 30.2611 43.1724C30.0872 43.2071 29.9081 43.2071 29.7342 43.1724C26.107 42.4421 23.8716 40.6594 21.9956 38.8421C21.3749 38.2284 20.8309 37.5416 20.3756 36.7969C20.4642 36.1303 20.5341 35.4985 20.5631 35.01C20.582 34.7727 20.5841 34.5342 20.5692 34.2966C20.5692 34.2924 20.5636 34.2342 20.5631 34.2305C20.535 33.9252 20.426 33.6329 20.2474 33.3837C20.0687 33.1344 19.827 32.9373 19.5469 32.8125C19.2529 32.6812 18.9297 32.629 18.6094 32.6611C17.8948 30.1597 17.5604 27.5651 17.6175 24.9643C17.6817 21.0057 18.6099 20.0578 19.9214 19.0838C21.1486 18.1721 22.6767 17.0372 23.9728 13.2914C25.0256 10.2483 26.9935 9.29769 28.4588 9.03612C30.923 8.59409 33.7088 9.76972 35.558 12.0267C35.9312 12.4777 36.4266 12.8114 36.9849 12.9877C40.988 14.2739 42.2006 18.0858 42.4191 25.1532C42.491 27.6951 42.1552 30.2322 41.4253 32.6682ZM43.5431 29.3546C43.6059 29.1969 43.7182 29.0638 43.8631 28.9754C44.0079 28.8869 44.1776 28.848 44.3466 28.8643C44.4388 28.8737 44.5319 28.8648 44.6207 28.8381C44.7094 28.8115 44.792 28.7675 44.8637 28.7088C44.9354 28.6501 44.9948 28.5778 45.0384 28.4961C45.0821 28.4143 45.1092 28.3248 45.1181 28.2325C45.127 28.1403 45.1176 28.0472 45.0905 27.9586C45.0633 27.87 45.0189 27.7877 44.9598 27.7163C44.9006 27.6449 44.828 27.5859 44.746 27.5427C44.664 27.4995 44.5743 27.473 44.482 27.4646C44.2305 27.4406 43.9767 27.4606 43.732 27.5236C43.7777 26.8971 43.8066 26.2575 43.8188 25.605C44.4786 25.6231 45.1056 25.8967 45.5677 26.3682C45.8644 26.7406 46.0721 27.1759 46.175 27.6408C46.2778 28.1057 46.2731 28.588 46.1611 29.0508C45.9155 30.5311 44.3799 32.2955 42.8883 32.6766C43.1792 31.5848 43.3976 30.4751 43.5431 29.3546ZM43.5792 35.7722C43.6143 35.7347 43.6582 35.7065 43.7069 35.6902C43.7556 35.6738 43.8075 35.6698 43.8581 35.6785C44.551 35.9128 45.7092 39.7678 45.7196 41.0471C45.7641 41.7601 45.6521 42.4743 45.3914 43.1396C45.5018 41.8109 45.3202 40.4742 44.8594 39.2232L44.4633 38.1586C44.1774 37.3908 43.8703 36.5682 43.5792 35.7722Z" fill="black"/>
</svg>
