<svg width="60" height="60" viewBox="0 0 60 60" fill="none" xmlns="http://www.w3.org/2000/svg">
<path d="M46.9076 9.52703C46.6354 9.38102 46.4231 9.14078 46.3346 8.84488C46.2493 8.55906 46.1434 8.2757 46.0155 7.9968C44.8379 5.42734 42.1954 3.99297 39.5321 4.22969C38.9445 4.28195 38.3635 4.10406 37.8994 3.73996C35.7121 2.02363 32.9554 1 29.9595 1C26.9636 1 24.2069 2.02363 22.0196 3.73996C21.5555 4.10406 20.9745 4.28195 20.3869 4.22969C17.7236 3.99285 15.0813 5.42734 13.9035 7.9968C13.7757 8.2757 13.6698 8.55906 13.5844 8.84488C13.4961 9.14078 13.2836 9.38113 13.0114 9.52703C9.46648 11.4282 7.6516 15.7454 9.13952 19.7672L12.5715 29.0436H47.3473L50.7793 19.7672C52.2675 15.7454 50.4526 11.4282 46.9076 9.52703Z" fill="#7A6D79"/>
<path d="M46.909 9.52703C46.6368 9.38102 46.4244 9.14078 46.3359 8.84488C46.2506 8.55906 46.1447 8.2757 46.0168 7.9968C44.8392 5.42734 42.1968 3.99297 39.5334 4.22969C38.9459 4.28195 38.3648 4.10406 37.9008 3.73996C35.7135 2.02363 32.9568 1 29.9609 1C27.8329 1 25.8268 1.51855 24.0586 2.43285C25.0227 2.20223 26.0278 2.07754 27.0626 2.07754C30.0585 2.07754 32.8152 3.10117 35.0025 4.8175C35.4666 5.1816 36.0476 5.35949 36.6352 5.30723C39.2985 5.07039 41.9408 6.50488 43.1186 9.07434C43.2464 9.35324 43.3523 9.6366 43.4377 9.92242C43.526 10.2183 43.7385 10.4587 44.0107 10.6046C47.5556 12.5057 49.3705 16.8229 47.8826 20.8448L44.8492 29.0436H47.3489L50.7809 19.7672C52.2688 15.7454 50.4539 11.4282 46.909 9.52703Z" fill="#685E68"/>
<path d="M44.0696 49.0019H36.3221C35.6866 49.0019 35.1714 48.4867 35.1714 47.8512V32.6523H24.748V47.8512C24.748 48.4867 24.2329 49.0019 23.5974 49.0019H15.8499C12.5284 49.0019 9.83594 51.6944 9.83594 55.0158V58.3397C9.83594 58.8386 10.2404 59.2431 10.7393 59.2431H49.1802C49.6791 59.2431 50.0835 58.8387 50.0835 58.3398V55.0159C50.0835 51.6944 47.391 49.0019 44.0696 49.0019Z" fill="#62DBFB"/>
<path d="M44.07 49.0019H36.3225C35.687 49.0019 35.1719 48.4867 35.1719 47.8512V32.6523H32.8281V49.9605C32.8281 50.596 33.3433 51.1111 33.9788 51.1111H43.3075C45.7557 51.1111 47.7402 53.0957 47.7402 55.5439V58.3396C47.7402 58.8385 47.3358 59.2429 46.837 59.2429H49.1807C49.6796 59.2429 50.084 58.8385 50.084 58.3396V55.0157C50.084 51.6944 47.3915 49.0019 44.07 49.0019Z" fill="#01D0FB"/>
<path d="M29.9592 53.3819C33.1026 53.3819 35.9209 51.6851 37.8324 49.0019H36.3215C35.686 49.0019 35.1709 48.4867 35.1709 47.8512V32.6523H24.7475V47.8512C24.7475 48.4867 24.2323 49.0019 23.5968 49.0019H22.0859C23.9975 51.6851 26.8157 53.3819 29.9592 53.3819Z" fill="#FED2A4"/>
<path d="M33.9788 51.1113H35.9061C36.6181 50.5072 37.266 49.7984 37.8334 49.0019H36.3225C35.687 49.0019 35.1719 48.4867 35.1719 47.8512V32.6523H32.8281V49.9605C32.8281 50.596 33.3433 51.1113 33.9788 51.1113Z" fill="#FFBD86"/>
<path d="M42.0626 25.9626V33.032H46.7221C48.4009 33.032 49.7618 31.6711 49.7618 29.9923V29.0025C49.7618 27.3237 48.4009 25.9628 46.7221 25.9628H42.0626V25.9626Z" fill="#FED2A4"/>
<path d="M17.8556 25.9626V33.032H13.1961C11.5173 33.032 10.1564 31.6711 10.1564 29.9923V29.0025C10.1564 27.3237 11.5173 25.9628 13.1961 25.9628H17.8556V25.9626Z" fill="#FED2A4"/>
<path d="M32.7443 41.487L22.4937 59.2413H13.0547L25.6637 37.4004L32.7443 41.487Z" fill="#FED2A4"/>
<path d="M30.9867 40.4727L20.1504 59.2416H22.4941L32.7448 41.4873L30.9867 40.4727Z" fill="#FFBD86"/>
<path d="M44.4867 29.4571C44.4867 37.9156 37.9834 42.3506 29.9602 42.3506C21.9369 42.3506 15.4336 37.9156 15.4336 29.4571C15.4336 24.4459 16.6691 20.44 18.7274 17.5148C18.8771 17.3009 19.1715 17.2518 19.3867 17.4003C21.2324 18.6722 23.3284 18.9264 24.7111 17.8607C25.1109 17.552 25.4194 17.1579 25.6369 16.7027C25.8116 16.3369 26.2836 16.222 26.61 16.4623C27.5471 17.1528 28.7058 17.5613 29.96 17.5613C31.2143 17.5613 32.3729 17.1528 33.3101 16.4623C33.6364 16.2218 34.1085 16.3369 34.2832 16.7027C34.5007 17.1579 34.809 17.552 35.209 17.8607C36.5917 18.9263 38.6878 18.6722 40.5334 17.4003C40.7486 17.2518 41.0429 17.3009 41.1927 17.5148C43.2512 20.44 44.4867 24.4459 44.4867 29.4571Z" fill="#FED2A4"/>
<path d="M41.1925 17.5145C41.0427 17.3006 40.7483 17.2515 40.5332 17.4C40.0805 17.7119 39.6127 17.9622 39.1441 18.1474C40.9536 21.0307 42.0253 24.853 42.0253 29.5539C42.0253 37.0446 36.9996 41.4023 30.334 42.347C38.1841 42.2109 44.4863 37.7833 44.4863 29.4567C44.4864 24.4455 43.2509 20.4396 41.1925 17.5145Z" fill="#FFBD86"/>
<path d="M29.9582 28.3398C26.866 28.3398 17.3226 38.4146 18.4935 42.9227C18.806 44.1261 20.7803 43.9959 23.0049 43.4218C23.5287 43.2865 24.0235 43.7178 23.9665 44.2558C23.878 45.0907 23.8635 45.8586 23.9427 46.5208C24.3437 49.8734 28.4123 45.0873 29.9582 45.0873C31.5041 45.0873 35.5727 49.8734 35.9737 46.5208C36.0529 45.8586 36.0384 45.0907 35.9499 44.2558C35.8929 43.7178 36.3877 43.2865 36.9115 43.4218C39.1361 43.9959 41.1103 44.1261 41.4229 42.9227C42.5938 38.4146 33.0504 28.3398 29.9582 28.3398Z" fill="#EAF6FF"/>
<path d="M29.9609 28.3398C29.6211 28.3398 29.2033 28.4617 28.7305 28.6843C32.5604 30.4871 40.007 38.9099 38.9647 42.9225C38.8634 43.3122 38.5872 43.5613 38.1856 43.7016C39.8503 43.9952 41.1745 43.8896 41.4256 42.9225C42.5966 38.4146 33.0532 28.3398 29.9609 28.3398Z" fill="#D8ECFE"/>
<path d="M10.4336 11.684C11.1273 10.8098 11.9992 10.0703 13.0117 9.52656C13.2836 9.38125 13.4957 9.14102 13.5848 8.84453C13.6691 8.55859 13.7758 8.27617 13.9035 7.99727C15.0813 5.42734 17.7238 3.99297 20.3863 4.22969C20.9746 4.28242 21.5559 4.1043 22.0199 3.73984C24.2066 2.02305 26.9629 1 29.9594 1C32.9559 1 35.7121 2.02305 37.8988 3.73984C38.3629 4.1043 38.9441 4.28242 39.5324 4.22969C42.1949 3.99297 44.8375 5.42734 46.0152 7.99727C46.143 8.27617 46.2496 8.55859 46.334 8.84453C46.423 9.14102 46.6352 9.38125 46.907 9.52656C50.452 11.4285 52.2672 15.7457 50.7789 19.7676L48.3203 26.4156" stroke="black" stroke-width="1.5" stroke-miterlimit="10" stroke-linecap="round" stroke-linejoin="round"/>
<path d="M8.7497 15.3984C8.49423 16.807 8.59969 18.307 9.13993 19.7672L11.5985 26.4152" stroke="black" stroke-width="1.5" stroke-miterlimit="10" stroke-linecap="round" stroke-linejoin="round"/>
<path d="M18.9687 49.002H15.8518C12.5304 49.002 9.83789 51.6945 9.83789 55.0159V58.3398C9.83789 58.8387 10.2423 59.2432 10.7413 59.2432H39.0513" stroke="black" stroke-width="1.5" stroke-miterlimit="10" stroke-linecap="round" stroke-linejoin="round"/>
<path d="M43.1532 59.241H49.1825C49.6814 59.241 50.0858 58.8366 50.0858 58.3377V55.0138C50.0858 51.6924 47.3933 49 44.0718 49H36.3242" stroke="black" stroke-width="1.5" stroke-miterlimit="10" stroke-linecap="round" stroke-linejoin="round"/>
<path d="M35.173 47.7031V47.8508C35.173 48.4859 35.6888 49.0014 36.3239 49.0014H37.8344C35.923 51.685 33.1047 53.3809 29.9617 53.3809C28.6867 53.3809 27.4645 53.102 26.3359 52.591" stroke="black" stroke-width="1.5" stroke-miterlimit="10" stroke-linecap="round" stroke-linejoin="round"/>
<path d="M44.2727 25.9629H46.7254C48.4035 25.9629 49.7652 27.3246 49.7652 29.0027V29.993C49.7652 31.6723 48.4035 33.0328 46.7254 33.0328H44.0547" stroke="black" stroke-width="1.5" stroke-miterlimit="10" stroke-linecap="round" stroke-linejoin="round"/>
<path d="M15.6508 25.9629H13.198C11.5199 25.9629 10.1582 27.3246 10.1582 29.0027V29.993C10.1582 31.6723 11.5199 33.0328 13.198 33.0328H15.8688" stroke="black" stroke-width="1.5" stroke-miterlimit="10" stroke-linecap="round" stroke-linejoin="round"/>
<path d="M22.4961 59.241L30.5727 45.25" stroke="black" stroke-width="1.5" stroke-miterlimit="10" stroke-linecap="round" stroke-linejoin="round"/>
<path d="M22.0629 43.6387L13.0547 59.2422" stroke="black" stroke-width="1.5" stroke-miterlimit="10" stroke-linecap="round" stroke-linejoin="round"/>
<path d="M40.5785 38.7782C43.002 36.6185 44.4867 33.4978 44.4867 29.4571C44.4867 24.445 43.2516 20.4396 41.1926 17.5146C41.0426 17.3001 40.7484 17.2521 40.534 17.3997C38.6883 18.6724 36.5918 18.9255 35.209 17.8603C34.8094 17.5521 34.5012 17.1571 34.2832 16.7024C34.1086 16.3368 33.6363 16.222 33.3105 16.4622C32.373 17.1524 31.2141 17.5614 29.9602 17.5614C28.7063 17.5614 27.5473 17.1524 26.6098 16.4622C26.284 16.222 25.8117 16.3368 25.6371 16.7024C25.4191 17.1571 25.1109 17.5521 24.7113 17.8603C23.3285 18.9255 21.232 18.6724 19.3863 17.3997C19.1719 17.2521 18.8777 17.3001 18.7277 17.5146C16.6688 20.4396 15.4336 24.445 15.4336 29.4571C15.4336 33.4978 16.9184 36.6185 19.3418 38.7782" stroke="black" stroke-width="1.5" stroke-miterlimit="10" stroke-linecap="round" stroke-linejoin="round"/>
<path d="M29.9621 28.3398C26.8699 28.3398 17.3265 38.4146 18.4974 42.9227C18.81 44.1261 20.7842 43.9959 23.0088 43.4218C23.5326 43.2865 24.0274 43.7178 23.9704 44.2558C23.8819 45.0907 23.8674 45.8586 23.9466 46.5208C24.3477 49.8734 28.4162 45.0873 29.9621 45.0873C31.508 45.0873 35.5766 49.8734 35.9776 46.5208C36.0568 45.8586 36.0423 45.0907 35.9538 44.2558C35.8968 43.7178 36.3916 43.2865 36.9154 43.4218C39.14 43.9959 41.1143 44.1261 41.4268 42.9227C42.5977 38.4146 33.0543 28.3398 29.9621 28.3398Z" stroke="black" stroke-width="1.5" stroke-miterlimit="10" stroke-linecap="round" stroke-linejoin="round"/>
<path d="M23.9466 46.5192C23.6307 43.8826 24.7968 39.5761 26.2251 36.0078" stroke="black" stroke-width="1.5" stroke-miterlimit="10" stroke-linecap="round" stroke-linejoin="round"/>
<path d="M33.6992 36.0078C35.1276 39.5759 36.2936 43.8825 35.9777 46.5192" stroke="black" stroke-width="1.5" stroke-miterlimit="10" stroke-linecap="round" stroke-linejoin="round"/>
<path d="M33.8867 21.9316C35.7148 22.8645 37.543 22.8645 39.3711 21.9316" stroke="black" stroke-width="1.5" stroke-miterlimit="10" stroke-linecap="round" stroke-linejoin="round"/>
<path d="M35.0723 26.0868L37.4849 25.5508" stroke="black" stroke-width="1.5" stroke-miterlimit="10" stroke-linecap="round" stroke-linejoin="round"/>
<path d="M26.0352 21.9316C24.207 22.8645 22.3789 22.8645 20.5508 21.9316" stroke="black" stroke-width="1.5" stroke-miterlimit="10" stroke-linecap="round" stroke-linejoin="round"/>
<path d="M24.8502 26.0868L22.4375 25.5508" stroke="black" stroke-width="1.5" stroke-miterlimit="10" stroke-linecap="round" stroke-linejoin="round"/>
<path d="M46.9609 38.0256L52.9222 40.0975" stroke="black" stroke-width="1.5" stroke-miterlimit="10" stroke-linecap="round" stroke-linejoin="round"/>
<path d="M46.0918 41.9124L49.1833 44.6741" stroke="black" stroke-width="1.5" stroke-miterlimit="10" stroke-linecap="round" stroke-linejoin="round"/>
<path d="M12.9612 38.0256L7 40.0975" stroke="black" stroke-width="1.5" stroke-miterlimit="10" stroke-linecap="round" stroke-linejoin="round"/>
<path d="M13.8298 41.9124L10.7383 44.6741" stroke="black" stroke-width="1.5" stroke-miterlimit="10" stroke-linecap="round" stroke-linejoin="round"/>
</svg>
