<svg width="60" height="60" viewBox="0 0 60 60" fill="none" xmlns="http://www.w3.org/2000/svg">
<mask id="mask0_815_41702" style="mask-type:luminance" maskUnits="userSpaceOnUse" x="0" y="0" width="60" height="60">
<path d="M0 3.8147e-06H60V60H0V3.8147e-06Z" fill="white"/>
</mask>
<g mask="url(#mask0_815_41702)">
<path fill-rule="evenodd" clip-rule="evenodd" d="M48.0096 30.1934C52.4687 30.1934 56.1183 26.5437 56.1183 22.0845V5.29922C56.1183 3.13934 54.549 1.32774 52.4919 0.949574H36.9779C34.9209 1.32774 33.3516 3.13934 33.3516 5.29922V22.0845C33.3516 26.5437 37.0012 30.1934 41.4602 30.1934H48.0096Z" fill="#FFE58A"/>
<path fill-rule="evenodd" clip-rule="evenodd" d="M38.5739 12.5918H50.8995C51.2246 12.5918 51.4933 12.3231 51.4933 11.9945V6.09867C51.4933 5.7702 51.2246 5.50148 50.8995 5.50148H38.5739C38.2454 5.50148 37.9766 5.7702 37.9766 6.09867V11.9945C37.9766 12.3231 38.2454 12.5918 38.5739 12.5918Z" fill="#CAE7FF"/>
<path fill-rule="evenodd" clip-rule="evenodd" d="M53.6396 5.29922V22.0845C53.6396 25.9829 50.8494 29.261 47.1699 30.0241V30.1934H48.0093C52.4684 30.1934 56.118 26.5437 56.118 22.0845V5.29922C56.118 3.13922 54.5487 1.32774 52.4916 0.949455H50.0134C52.067 1.32774 53.6396 3.13922 53.6396 5.29922Z" fill="#FFD772"/>
<path fill-rule="evenodd" clip-rule="evenodd" d="M48.5431 6.09672V11.9927C48.5431 12.3211 48.2743 12.5898 47.9492 12.5898H50.8988C51.2239 12.5898 51.4926 12.3211 51.4926 11.9927V6.09672C51.4926 5.76824 51.2239 5.49953 50.8988 5.49953H47.9492C48.2776 5.49953 48.5431 5.76824 48.5431 6.09672Z" fill="#BEDFFC"/>
<path fill-rule="evenodd" clip-rule="evenodd" d="M37.9766 20.0069C37.9766 21.2877 39.0151 22.3262 40.2924 22.3262C41.573 22.3262 42.6116 21.2877 42.6116 20.0069C42.6116 18.7262 41.573 17.6911 40.2924 17.6911C39.0151 17.6911 37.9766 18.7262 37.9766 20.0069Z" fill="#F37C7C"/>
<path fill-rule="evenodd" clip-rule="evenodd" d="M46.8574 20.0069C46.8574 21.2877 47.8958 22.3262 49.1766 22.3262C50.4573 22.3262 51.4924 21.2877 51.4924 20.0069C51.4924 18.7262 50.4573 17.6911 49.1766 17.6911C47.8958 17.6911 46.8574 18.7262 46.8574 20.0069Z" fill="#A1D4FF"/>
<path fill-rule="evenodd" clip-rule="evenodd" d="M9.00977 36.5926V55.6439H14.0959C17.7157 55.6439 17.9048 58.6433 22.3307 59.1211H30.539C26.5676 59.1211 26.5642 53.4906 30.539 53.4906C26.5676 53.4906 26.5642 47.8568 30.539 47.8568C26.5676 47.8568 26.5642 42.2264 30.539 42.2264H40.7479H47.6954C51.6667 42.2264 51.6667 36.5926 47.6954 36.5926H47.075C46.7829 37.6079 45.8407 38.3544 44.7359 38.3544C43.6309 38.3544 42.692 37.6079 42.3968 36.5926H27.9013C29.8688 32.7638 28.2298 28.6562 25.9239 26.964C24.7593 26.1114 22.9677 26.4864 22.7687 28.5036C22.4171 32.1102 21.2293 33.9814 19.7329 35.0232C18.1968 36.0916 16.3355 36.2906 14.7031 36.5926H13.2266H9.00977Z" fill="#FFEEE6"/>
<path fill-rule="evenodd" clip-rule="evenodd" d="M25.6582 38.1184C26.4643 38.0886 27.453 37.5544 27.9011 36.5922C29.8685 32.7633 28.2294 28.6558 25.9236 26.9636C24.8354 26.1674 23.203 26.4394 22.8281 28.1217C25.8307 29.1933 26.7232 33.8085 25.8207 36.9306C25.5819 37.7501 24.6363 38.1582 25.6582 38.1184Z" fill="#FFDFCF"/>
<path fill-rule="evenodd" clip-rule="evenodd" d="M42.3027 30.1935V35.9235C42.3027 36.1557 42.3359 36.3813 42.3957 36.5937C42.691 37.609 43.6298 38.3555 44.7347 38.3555C45.8396 38.3555 46.7818 37.609 47.0738 36.5937C47.1367 36.3813 47.1699 36.1557 47.1699 35.9235V30.1935V26.4077C47.1699 26.1059 46.9211 25.8571 46.6192 25.8571H42.8502C42.5482 25.8571 42.3027 26.1059 42.3027 26.4077V30.1935Z" fill="#7E707D"/>
<path fill-rule="evenodd" clip-rule="evenodd" d="M45.2859 26.4077V30.1935V35.9235C45.2859 36.1557 45.2528 36.3813 45.1897 36.5937C44.9841 37.3037 44.4664 37.881 43.793 38.1663C44.0849 38.2891 44.4034 38.3555 44.7353 38.3555C45.8401 38.3555 46.7823 37.6089 47.0743 36.5937C47.1373 36.3813 47.1704 36.1557 47.1704 35.9235V30.1935V30.0243V26.4077C47.1704 26.1057 46.9216 25.857 46.6198 25.857H44.7353C45.0371 25.857 45.2859 26.1057 45.2859 26.4077Z" fill="#6A5D6A"/>
<path fill-rule="evenodd" clip-rule="evenodd" d="M30.5384 47.8574H39.3604H40.7472C44.7187 47.8574 44.7187 42.227 40.7472 42.227H30.5384C26.5637 42.227 26.567 47.8574 30.5384 47.8574Z" fill="#FFDFCF"/>
<path fill-rule="evenodd" clip-rule="evenodd" d="M30.5384 53.4902H37.9769H39.3604C43.3318 53.4902 43.3351 47.8564 39.3604 47.8564H30.5384C26.5637 47.8564 26.567 53.4902 30.5384 53.4902Z" fill="#FFDFCF"/>
<path fill-rule="evenodd" clip-rule="evenodd" d="M30.538 47.8555H39.36H40.7468C43.6232 47.8555 44.4163 44.8992 43.1257 43.2702C42.7508 44.2556 41.8184 45.0419 40.3353 45.0419H27.5586C27.5586 46.4488 28.5506 47.8555 30.538 47.8555Z" fill="#FFCEBF"/>
<path fill-rule="evenodd" clip-rule="evenodd" d="M3.88281 35.3348V56.901C3.88281 57.1101 4.05203 57.2793 4.26109 57.2793H10.9763C11.182 57.2793 11.3512 57.1101 11.3512 56.901V55.6435V36.5922V35.3348C11.3512 35.1257 11.182 34.9565 10.9763 34.9565H4.26109C4.05203 34.9565 3.88281 35.1257 3.88281 35.3348Z" fill="#F37C7C"/>
<path fill-rule="evenodd" clip-rule="evenodd" d="M30.5384 53.4902H37.9769H39.3604C41.6032 53.4902 42.5786 51.6986 42.29 50.1359C41.7957 50.6302 41.069 50.9554 40.1136 50.9554H27.5723C27.695 52.2626 28.6837 53.4902 30.5384 53.4902Z" fill="#FFCEBF"/>
<path fill-rule="evenodd" clip-rule="evenodd" d="M22.3302 59.1211H30.5384C28.6406 59.1211 27.6519 57.8371 27.5656 56.4966H24.3507C19.928 56.0156 19.7356 53.0162 16.1159 53.0162H11.3516V55.6439H14.0954C17.7151 55.6439 17.9042 58.6433 22.3302 59.1211Z" fill="#FFDFCF"/>
<path fill-rule="evenodd" clip-rule="evenodd" d="M31.4441 59.1211H37.9768C41.9483 59.1211 41.9483 53.4907 37.9768 53.4907H30.5383C26.5637 53.4907 26.567 59.1211 30.5383 59.1211H31.4441Z" fill="#FFDFCF"/>
<path fill-rule="evenodd" clip-rule="evenodd" d="M31.4429 59.1211H37.9756C40.683 59.1211 41.5456 56.5032 40.5568 54.8377C40.1555 55.77 39.2431 56.4966 37.8165 56.4966H27.5645C27.6507 57.8371 28.6394 59.1211 30.5371 59.1211H31.4429Z" fill="#FFCEBF"/>
<path fill-rule="evenodd" clip-rule="evenodd" d="M4.26109 57.2793H10.9763C11.1821 57.2793 11.3512 57.1101 11.3512 56.901V55.6436V53.2513C11.3512 53.4604 11.1821 53.6296 10.9763 53.6296H9.00883H4.26109C4.05203 53.6296 3.88281 53.4604 3.88281 53.2513V56.901C3.88281 57.1101 4.05203 57.2793 4.26109 57.2793Z" fill="#EE6161"/>
<path d="M49.1766 22.3242C50.4539 22.3242 51.4924 21.2824 51.4924 20.005C51.4924 18.7276 50.4539 17.6891 49.1766 17.6891C47.8992 17.6891 46.8574 18.7276 46.8574 20.005C46.8574 21.2824 47.8992 22.3242 49.1766 22.3242Z" stroke="black" stroke-width="1.5" stroke-miterlimit="10" stroke-linecap="round" stroke-linejoin="round"/>
<path d="M47.6953 36.5928C51.6668 36.5928 51.6668 42.2266 47.6953 42.2266H30.5391" stroke="black" stroke-width="1.5" stroke-miterlimit="10" stroke-linecap="round" stroke-linejoin="round"/>
<path d="M30.5384 42.2251C26.5637 42.2251 26.567 47.8555 30.5384 47.8555" stroke="black" stroke-width="1.5" stroke-miterlimit="10" stroke-linecap="round" stroke-linejoin="round"/>
<path d="M40.7479 42.2251C44.7193 42.2251 44.7193 47.8555 40.7479 47.8555H30.5391" stroke="black" stroke-width="1.5" stroke-miterlimit="10" stroke-linecap="round" stroke-linejoin="round"/>
<path d="M37.9756 53.4907C41.9471 53.4907 41.9471 59.1211 37.9756 59.1211H30.5371" stroke="black" stroke-width="1.5" stroke-miterlimit="10" stroke-linecap="round" stroke-linejoin="round"/>
<path d="M30.5372 53.4907C26.5657 53.4907 26.5657 59.1211 30.5372 59.1211" stroke="black" stroke-width="1.5" stroke-miterlimit="10" stroke-linecap="round" stroke-linejoin="round"/>
<path d="M42.3963 36.5926H27.9008C29.8682 32.7638 28.2293 28.6562 25.9234 26.964C24.7589 26.1114 22.9673 26.4864 22.7682 28.5036C22.4165 32.1102 21.2287 33.9814 19.7325 35.0232C18.1963 36.0916 16.335 36.2906 14.7027 36.5926H13.2262H11.3516M11.3516 55.6439H14.0955C17.7152 55.6439 17.9042 58.6433 22.3303 59.1211H30.5384" stroke="black" stroke-width="1.5" stroke-miterlimit="10" stroke-linecap="round" stroke-linejoin="round"/>
<path d="M39.3611 47.8564C43.3357 47.8564 43.3324 53.4902 39.3611 53.4902H30.5391" stroke="black" stroke-width="1.5" stroke-miterlimit="10" stroke-linecap="round" stroke-linejoin="round"/>
<path d="M30.5384 47.8564C26.5637 47.8564 26.567 53.4902 30.5384 53.4902" stroke="black" stroke-width="1.5" stroke-miterlimit="10" stroke-linecap="round" stroke-linejoin="round"/>
<path d="M3.88281 47.9063V56.9011C3.88281 57.1102 4.05203 57.2793 4.26109 57.2793H10.9763C11.182 57.2793 11.3512 57.1102 11.3512 56.9011V35.3349C11.3512 35.1258 11.182 34.9566 10.9763 34.9566H4.26109C4.05203 34.9566 3.88281 35.1258 3.88281 35.3349V43.8551" stroke="black" stroke-width="1.5" stroke-miterlimit="10" stroke-linecap="round" stroke-linejoin="round"/>
<path d="M40.2957 22.3242C41.5698 22.3242 42.6116 21.2824 42.6116 20.005C42.6116 18.7276 41.5698 17.6891 40.2957 17.6891C39.0184 17.6891 37.9766 18.7276 37.9766 20.005C37.9766 21.2824 39.0184 22.3242 40.2957 22.3242Z" stroke="black" stroke-width="1.5" stroke-miterlimit="10" stroke-linecap="round" stroke-linejoin="round"/>
<path d="M46.6192 25.8571H42.8502C42.5482 25.8571 42.3027 26.1059 42.3027 26.4079V35.9235C42.3027 37.2607 43.3976 38.3555 44.7347 38.3555C46.075 38.3555 47.1699 37.2607 47.1699 35.9235V26.4079C47.1699 26.1059 46.9211 25.8571 46.6192 25.8571Z" stroke="black" stroke-width="1.5" stroke-miterlimit="10" stroke-linecap="round" stroke-linejoin="round"/>
<path d="M47.1004 12.5918H50.8994C51.2245 12.5918 51.4932 12.3231 51.4932 11.9945V6.09867C51.4932 5.7702 51.2245 5.50149 50.8994 5.50149H38.5738C38.2454 5.50149 37.9766 5.7702 37.9766 6.09867V11.9945C37.9766 12.3231 38.2454 12.5918 38.5738 12.5918H42.8272" stroke="black" stroke-width="1.5" stroke-miterlimit="10" stroke-linecap="round" stroke-linejoin="round"/>
<path d="M42.303 30.1934H41.4604C37.0013 30.1934 33.3516 26.5437 33.3516 22.0845V5.29922C33.3516 2.86723 35.3423 0.879846 37.7709 0.879846H51.699C54.131 0.879846 56.1184 2.86723 56.1184 5.29922V22.0845C56.1184 26.5437 52.4687 30.1934 48.0096 30.1934H47.1702" stroke="black" stroke-width="1.5" stroke-miterlimit="10" stroke-linecap="round" stroke-linejoin="round"/>
</g>
</svg>
