<svg width="60" height="60" viewBox="0 0 60 60" fill="none" xmlns="http://www.w3.org/2000/svg">
<path d="M50.625 2.8125L49.1841 13.6228C49.0475 14.6483 48.7002 15.6344 48.1641 16.5192C47.6279 17.404 46.9145 18.1683 46.0688 18.7641L37.5169 24.7866C35.3167 26.3362 32.6912 27.1679 30 27.1678C27.3091 27.1678 24.684 26.3361 22.4841 24.7866L13.9322 18.7641C13.0864 18.1683 12.373 17.404 11.8369 16.5192C11.3008 15.6344 10.9535 14.6483 10.8169 13.6228L9.37501 2.8125H50.625ZM56.0175 49.7316C46.1363 45.81 40.0584 30.7997 42.5813 21.2156L37.5188 24.7875C36.4211 25.5552 35.2137 26.1525 33.9375 26.5594C32.6643 26.9645 31.3361 27.1691 30 27.1678C27.3085 27.166 24.6831 26.3354 22.4813 24.7875L17.4188 21.2156C19.9378 30.7781 13.8788 45.8044 3.98063 49.7316C3.63503 49.8696 3.33889 50.1084 3.1306 50.4168C2.92232 50.7252 2.81149 51.0891 2.81251 51.4613V57.18H57.1875V51.4613C57.1884 51.089 57.0775 50.725 56.869 50.4166C56.6606 50.1082 56.3633 49.8695 56.0175 49.7316Z" fill="#FFCEBF"/>
<path d="M35.438 35.9405C34.193 35.1961 32.393 35.8468 31.1676 37.0786C30.8553 37.3822 30.4369 37.552 30.0014 37.552C29.5659 37.552 29.1475 37.3822 28.8352 37.0786C27.6098 35.8496 25.8098 35.1961 24.5648 35.9405C23.0236 36.7721 22.7658 39.053 23.9892 41.0339C25.1892 43.0027 27.5161 43.9918 29.0405 43.0852C29.3305 42.9104 29.6628 42.8181 30.0014 42.8181C30.34 42.8181 30.6723 42.9104 30.9623 43.0852C32.4867 43.9918 34.8136 43.0018 36.0136 41.0339C37.2361 39.053 36.9783 36.7721 35.438 35.9405Z" fill="#B3291C"/>
<path d="M55.3125 2.8125L54.6797 5.97656C54.4855 6.95136 53.9123 7.80919 53.0859 8.36156L49.5778 10.7006L50.625 2.8125H55.3125ZM9.375 2.8125H4.6875L5.32031 5.97656C5.51449 6.95136 6.08773 7.80919 6.91406 8.36156L10.4231 10.7053L9.375 2.8125ZM30 29.9803C33.2713 29.9857 36.4635 28.9743 39.135 27.0863L42.0281 25.0491C42.0732 23.7551 42.2584 22.4697 42.5803 21.2156L37.5178 24.7875C35.3169 26.3371 32.6908 27.1689 29.9991 27.1689C27.3073 27.1689 24.6813 26.3371 22.4803 24.7875L17.4178 21.2156C17.7394 22.4695 17.9245 23.7545 17.97 25.0481L20.8641 27.0863C23.5358 28.9745 26.7283 29.9859 30 29.9803Z" fill="#FFA78F"/>
<path d="M30 48.75C30.5178 48.75 30.9375 48.3303 30.9375 47.8125C30.9375 47.2947 30.5178 46.875 30 46.875C29.4822 46.875 29.0625 47.2947 29.0625 47.8125C29.0625 48.3303 29.4822 48.75 30 48.75Z" fill="#1E120B"/>
<path d="M25.7656 15.8202C27.1083 15.2775 28.5543 15.0381 30.0003 15.1189C31.4459 15.0391 32.8913 15.2785 34.234 15.8202C34.4507 15.9385 34.7054 15.9666 34.9427 15.8983C35.18 15.83 35.3807 15.6708 35.5014 15.4554C35.622 15.2399 35.6528 14.9856 35.587 14.7476C35.5212 14.5096 35.3641 14.3072 35.15 14.1843C33.5341 13.4611 31.7673 13.1394 30.0003 13.2468C28.2332 13.1394 26.4664 13.4611 24.8506 14.1843C24.64 14.3089 24.4866 14.5109 24.4229 14.7471C24.3593 14.9834 24.3905 15.2351 24.5099 15.4487C24.6293 15.6622 24.8275 15.8206 25.0621 15.89C25.2967 15.9594 25.5492 15.9344 25.7656 15.8202Z" fill="#1E120B"/>
<path d="M31.6198 16.91C30.5624 17.218 29.4391 17.218 28.3817 16.91C28.2631 16.8757 28.1388 16.8651 28.016 16.879C27.8933 16.8928 27.7745 16.9308 27.6665 16.9907C27.5584 17.0506 27.4633 17.1312 27.3866 17.228C27.3098 17.3248 27.2529 17.4358 27.2192 17.5546C27.1855 17.6734 27.1756 17.7978 27.1901 17.9204C27.2045 18.0431 27.2431 18.1617 27.3036 18.2694C27.364 18.3771 27.4452 18.4718 27.5424 18.5481C27.6395 18.6244 27.7508 18.6806 27.8698 18.7138C29.262 19.1159 30.7396 19.1159 32.1317 18.7138C32.3697 18.6449 32.5708 18.4845 32.691 18.2678C32.8112 18.0511 32.8406 17.7956 32.773 17.5573C32.7053 17.3189 32.5461 17.117 32.33 16.9957C32.1139 16.8744 31.8586 16.8436 31.6198 16.91Z" fill="#1E120B"/>
<path d="M36.8104 41.5241C37.2148 40.9111 37.4911 40.2226 37.6224 39.4999C37.7537 38.7773 37.7374 38.0356 37.5744 37.3195C37.4602 36.8586 37.2528 36.426 36.965 36.0484C36.6772 35.6708 36.3151 35.3561 35.901 35.1238C34.3738 34.2229 32.1585 34.7535 30.5029 36.4148C30.3637 36.5363 30.1851 36.6033 30.0004 36.6033C29.8156 36.6033 29.6371 36.5363 29.4979 36.4148C27.8357 34.747 25.6082 34.221 24.1185 35.1145C23.7005 35.346 23.3349 35.6613 23.0445 36.0407C22.7541 36.4202 22.5452 36.8555 22.431 37.3195C22.2679 38.0348 22.2512 38.7758 22.3821 39.4978C22.5129 40.2197 22.7885 40.9078 23.1922 41.5204C24.68 43.9579 27.5788 45.0445 29.5232 43.8895C29.6681 43.8003 29.8349 43.7531 30.005 43.7531C30.1752 43.7531 30.342 43.8003 30.4869 43.8895C32.736 45.0988 35.3544 43.8145 36.8104 41.5241ZM28.5604 42.2741C27.5179 42.8957 25.7188 42.0679 24.7841 40.537C24.5168 40.1397 24.3308 39.6934 24.2368 39.2239C24.1429 38.7544 24.1428 38.2709 24.2366 37.8013C24.7279 35.9685 26.9769 36.4204 28.1694 37.7357C28.6647 38.2004 29.3184 38.459 29.9975 38.459C30.6767 38.459 31.3304 38.2004 31.8257 37.7357C33.2319 36.2901 35.2757 36.0557 35.7632 37.8013C35.857 38.2718 35.8566 38.7562 35.7622 39.2265C35.6677 39.6969 35.481 40.1439 35.2129 40.5416C34.2754 42.0679 32.48 42.8929 31.4394 42.2741C31.0047 42.0128 30.5068 41.8752 29.9996 41.8762C29.4923 41.8772 28.995 42.0168 28.5613 42.2798L28.5604 42.2741Z" fill="#1E120B"/>
<path d="M33.8381 48.1875C38.2706 46.8544 41.25 43.3125 41.25 39.375C41.25 34.2056 36.2034 30 30 30C23.7966 30 18.75 34.2056 18.75 39.375C18.75 43.3125 21.7294 46.8544 26.1619 48.1875C26.3999 48.2594 26.6568 48.2337 26.876 48.1162C27.0951 47.9986 27.2586 47.7989 27.3305 47.5608C27.4023 47.3227 27.3767 47.0658 27.2591 46.8467C27.1416 46.6275 26.9418 46.464 26.7037 46.3922C23.0672 45.3 20.625 42.4781 20.625 39.375C20.625 35.2397 24.8306 31.875 30 31.875C35.1694 31.875 39.375 35.2397 39.375 39.375C39.375 42.4781 36.9375 45.3 33.2962 46.3959C33.0582 46.4678 32.8584 46.6313 32.7409 46.8504C32.6233 47.0696 32.5977 47.3265 32.6695 47.5645C32.7414 47.8026 32.9049 48.0024 33.124 48.1199C33.3432 48.2374 33.6001 48.2631 33.8381 48.1912V48.1875Z" fill="#1E120B"/>
<path d="M56.3647 48.8587C46.8547 45.0843 41.2869 30.7059 43.4122 21.78L46.6082 19.53C47.5588 18.8588 48.3608 17.9988 48.9641 17.0037C49.5673 16.0086 49.959 14.8998 50.1144 13.7465L50.4482 11.249L53.6028 9.14528C54.1162 8.80504 54.5571 8.36636 54.8998 7.85464C55.2426 7.34291 55.4805 6.76829 55.5997 6.16403L56.2316 2.99903C56.2813 2.75537 56.2322 2.50193 56.0951 2.29446C55.9579 2.087 55.744 1.94251 55.5003 1.89278C55.2567 1.84306 55.0032 1.89216 54.7958 2.0293C54.5883 2.16643 54.4438 2.38037 54.3941 2.62403L53.7613 5.7881C53.6123 6.51881 53.1815 7.16144 52.5622 7.57685L50.781 8.76653L51.5582 2.93153C51.5774 2.80816 51.5718 2.68218 51.5417 2.56099C51.5116 2.43981 51.4575 2.32586 51.3828 2.22585C51.308 2.12583 51.214 2.04175 51.1063 1.97855C50.9986 1.91535 50.8794 1.8743 50.7556 1.85782C50.6319 1.84133 50.506 1.84974 50.3855 1.88254C50.2651 1.91535 50.1523 1.97189 50.054 2.04886C49.9557 2.12582 49.8737 2.22165 49.8129 2.33073C49.7521 2.4398 49.7138 2.55992 49.7 2.68403L48.2563 13.499C48.1357 14.3965 47.8312 15.2594 47.3618 16.0337C46.8923 16.808 46.2681 17.4771 45.5282 17.999L36.9763 24.0225C34.9345 25.4604 32.4982 26.2323 30.0008 26.2323C27.5035 26.2323 25.0671 25.4604 23.0253 24.0225L14.4725 17.999C13.7328 17.4769 13.1088 16.8078 12.6396 16.0335C12.1703 15.2592 11.8659 14.3964 11.7453 13.499L10.3044 2.68778C10.2907 2.56367 10.2523 2.44355 10.1915 2.33448C10.1307 2.2254 10.0488 2.12957 9.95042 2.05261C9.85209 1.97564 9.73937 1.9191 9.61889 1.88629C9.49841 1.85349 9.37258 1.84508 9.24881 1.86157C9.12503 1.87805 9.00579 1.9191 8.8981 1.9823C8.7904 2.0455 8.69642 2.12958 8.62166 2.2296C8.5469 2.32961 8.49288 2.44356 8.46276 2.56474C8.43265 2.68593 8.42704 2.81191 8.44628 2.93528L9.2244 8.77122L7.43847 7.5806C6.81934 7.16541 6.38859 6.52315 6.2394 5.79278L5.60659 2.62403C5.55686 2.38037 5.41237 2.16643 5.20491 2.0293C4.99745 1.89216 4.74401 1.84306 4.50034 1.89278C4.25667 1.94251 4.04274 2.087 3.9056 2.29446C3.76847 2.50193 3.71936 2.75537 3.76909 2.99903L4.40097 6.16403C4.52037 6.76811 4.75832 7.34253 5.10107 7.85408C5.44382 8.36563 5.88457 8.80417 6.39784 9.14435L9.55347 11.249L9.88722 13.7512C10.0426 14.9043 10.434 16.0129 11.0372 17.0078C11.6403 18.0028 12.4421 18.8626 13.3925 19.5337L16.5885 21.7837C18.7166 30.7106 13.1478 45.089 3.63503 48.8634C3.40379 48.9552 3.21847 49.135 3.11984 49.3634C3.02121 49.5918 3.01734 49.85 3.10909 50.0812C3.20084 50.3125 3.38069 50.4978 3.60907 50.5964C3.83746 50.695 4.09567 50.6989 4.3269 50.6072C14.1491 46.7043 19.9691 33.0928 18.7625 23.3109L21.9444 25.5515C24.3025 27.2127 27.1164 28.1043 30.0008 28.1043C32.8852 28.1043 35.6991 27.2127 38.0572 25.5515L41.2382 23.3118C40.0316 33.0928 45.8525 46.7043 55.6728 50.6025C55.9041 50.6942 56.1623 50.6903 56.3907 50.5917C56.6191 50.4931 56.7989 50.3078 56.8907 50.0765C56.9824 49.8453 56.9785 49.5871 56.8799 49.3587C56.7813 49.1303 56.596 48.9505 56.3647 48.8587Z" fill="#1E120B"/>
</svg>
