<svg width="72" height="23" viewBox="0 0 72 23" fill="none" xmlns="http://www.w3.org/2000/svg">
<g clip-path="url(#clip0_1348_6610)">
<path d="M71.7561 6.71764C71.0861 4.83284 69.3196 3.46484 67.218 3.46484H67.1571C65.7866 3.46484 64.5683 4.04244 63.6851 4.95444C62.8018 4.04244 61.5835 3.46484 60.213 3.46484H60.1521C58.9642 3.46484 57.8678 3.92084 57.015 4.62004V4.25524C56.9845 3.89044 56.68 3.58644 56.3145 3.58644H53.1165C52.7206 3.58644 52.416 3.92084 52.416 4.31604V21.9176C52.416 22.3128 52.751 22.6472 53.1165 22.6472H56.3145C56.68 22.6472 56.9845 22.3736 57.015 22.0088V9.39284C57.015 9.33204 57.015 9.30164 57.015 9.27124C57.0759 8.72404 57.4719 8.23764 58.1114 8.17684H58.6901C58.9642 8.20724 59.1774 8.29844 59.3602 8.45044C59.6343 8.66324 59.7866 9.02804 59.7866 9.39284L59.817 21.9784C59.817 22.3736 60.1521 22.708 60.5175 22.708H63.7155C64.1114 22.708 64.416 22.404 64.416 22.0088V9.39284C64.416 8.96724 64.5988 8.60244 64.9338 8.38964C65.0861 8.26804 65.2993 8.20724 65.5125 8.17684H66.0911C66.7916 8.23764 67.218 8.75444 67.1876 9.39284L67.218 21.948C67.218 22.3432 67.5531 22.6776 67.9186 22.6776H71.1165C71.5125 22.6776 71.817 22.3432 71.817 21.948V8.42004C71.9998 7.50804 71.9084 7.11284 71.7561 6.71764Z" fill="#00BCF1"/>
<path d="M50.0406 3.6784H48.2132V0.6688C48.2132 0.304 47.9391 0 47.5736 0C47.5432 0 47.4822 0 47.4518 0.0304C45.4112 0.5776 45.8376 3.4352 42.1218 3.6784H41.7259C41.665 3.6784 41.6345 3.6784 41.5736 3.7088C41.2386 3.7696 41.0254 4.0736 41.0254 4.408V7.6608C41.0254 8.056 41.3604 8.3904 41.7259 8.3904H43.6751V22.1312C43.6751 22.5264 43.9797 22.8304 44.3756 22.8304H47.5432C47.9391 22.8304 48.2437 22.496 48.2437 22.1312V8.3296H50.0406C50.4366 8.3296 50.7411 7.9952 50.7411 7.6V4.3776C50.7411 3.9824 50.4366 3.6784 50.0406 3.6784Z" fill="#00BCF1"/>
<path d="M38.4983 3.67969H35.3003C34.9044 3.67969 34.5998 4.01409 34.5998 4.40929V11.1277C34.5998 11.5533 34.2648 11.8877 33.8384 11.8877H32.4983C32.0719 11.8877 31.7369 11.5533 31.7369 11.1277L31.7064 4.43969C31.7064 4.04449 31.3714 3.71009 31.0059 3.71009H27.8079C27.412 3.71009 27.1074 4.04449 27.1074 4.43969V11.7965C27.1074 14.5933 29.0871 16.5693 31.8282 16.5693C31.8282 16.5693 33.8993 16.5693 33.9602 16.5997C34.3257 16.6605 34.6303 16.9645 34.6303 17.3597C34.6303 17.7549 34.3562 18.0589 33.9602 18.1197C33.9298 18.1197 33.9298 18.1197 33.8993 18.1197L29.2089 18.1501C28.813 18.1501 28.5084 18.4845 28.5084 18.8797V22.1021C28.5084 22.4973 28.8435 22.8317 29.2089 22.8317H34.4475C37.0668 22.8317 39.1683 20.6733 39.1683 18.0589V4.37889C39.1988 3.98369 38.8638 3.67969 38.4983 3.67969Z" fill="#172B75"/>
<path d="M7.70558 3.67969H0.700508C0.304569 3.67969 0 3.98369 0 4.37889V7.54049V7.57089L0 7.60129V21.9805C0 22.3757 0.274112 22.6797 0.639594 22.7101H3.89848C4.29442 22.7101 4.59898 22.3757 4.59898 21.9805L4.62944 17.0557H7.70558C10.264 17.0557 12.0609 15.2621 12.0609 12.6477V8.08769C12.0609 5.47329 10.264 3.67969 7.70558 3.67969ZM7.43147 9.60769V11.6141C7.43147 12.0397 7.09645 12.3741 6.67005 12.3741H4.62944V8.36129H6.67005C7.09645 8.36129 7.43147 8.69569 7.43147 9.12129V9.60769Z" fill="#172B75"/>
<path d="M20.2238 3.67773H15.7771C15.3812 3.67773 15.0766 3.98173 15.0766 4.34653V5.62333V5.65373V7.38653C15.0766 7.78173 15.4116 8.08573 15.838 8.08573H20.0715C20.4066 8.14653 20.6807 8.38973 20.7111 8.78493V9.21053C20.6807 9.57533 20.4066 9.84893 20.102 9.87933H18.0005C15.1984 9.87933 13.2188 11.7641 13.2188 14.3785V18.1481C13.2188 20.7625 14.9243 22.6169 17.6959 22.6169H23.5132C24.5487 22.6169 25.4015 21.8265 25.4015 20.8233V8.54173C25.4015 5.56253 23.8786 3.67773 20.2238 3.67773ZM20.7416 17.2057V17.7225C20.7416 17.7529 20.7416 17.8137 20.7111 17.8441C20.7111 17.8745 20.6807 17.9049 20.6807 17.9353C20.5893 18.2089 20.2847 18.4217 19.9802 18.4217H18.6401C18.2137 18.4217 17.8786 18.0873 17.8786 17.7225V17.0841V15.4425V14.9257C17.8786 14.5305 18.2137 14.2265 18.6401 14.2265H19.9802C20.4066 14.2265 20.7416 14.5609 20.7416 14.9257V17.2057Z" fill="#172B75"/>
</g>
<defs>
<clipPath id="clip0_1348_6610">
<rect width="72" height="22.8" fill="white"/>
</clipPath>
</defs>
</svg>
