<svg width="102" height="29" viewBox="0 0 102 29" fill="none" xmlns="http://www.w3.org/2000/svg">
<g clip-path="url(#clip0_1348_6605)">
<path d="M13.8457 28.7826C21.4924 28.7826 27.6914 22.5185 27.6914 14.7913C27.6914 7.06417 21.4924 0.800049 13.8457 0.800049C6.19892 0.800049 0 7.06417 0 14.7913C0 22.5185 6.19892 28.7826 13.8457 28.7826Z" fill="#5F259F"/>
<path d="M70.0372 22.7969V17.7155C70.0372 16.4626 69.5722 15.8361 68.4184 15.8361C67.9534 15.8361 67.4196 15.9057 67.1096 15.9927V23.4234C67.1096 23.6497 66.8857 23.8933 66.6446 23.8933H64.8709C64.647 23.8933 64.4059 23.6671 64.4059 23.4234V14.7398C64.4059 14.4265 64.6298 14.2003 64.8709 14.1133C66.0247 13.7304 67.1957 13.4868 68.4356 13.4868C71.2254 13.4868 72.7753 14.966 72.7753 17.7155V23.493C72.7753 23.7193 72.5514 23.9629 72.3103 23.9629H71.2254C70.5021 23.9629 70.0372 23.4234 70.0372 22.7969ZM76.9945 19.7516L76.9256 20.4477C76.9256 21.3874 77.5455 21.9268 78.5443 21.9268C79.3193 21.9268 80.0081 21.7006 80.7831 21.3004C80.852 21.3004 80.9381 21.2308 81.007 21.2308C81.1619 21.2308 81.2308 21.3004 81.3169 21.3874C81.3858 21.457 81.5408 21.7006 81.5408 21.7006C81.6958 21.9268 81.8508 22.2401 81.8508 22.4837C81.8508 22.8666 81.6269 23.2668 81.3169 23.4234C80.4731 23.8933 79.4571 24.1195 78.3721 24.1195C77.1322 24.1195 76.1334 23.8063 75.3585 23.1798C74.5835 22.4837 74.1186 21.544 74.1186 20.3607V17.3153C74.1186 14.8964 75.6684 13.3998 78.3033 13.3998C80.852 13.3998 82.333 14.8094 82.333 17.3153V19.1947C82.333 19.4209 82.1091 19.6646 81.868 19.6646H76.9945V19.7516ZM76.9256 18.0288H79.8704V17.2457C79.8704 16.306 79.3365 15.6795 78.4066 15.6795C77.4767 15.6795 76.9428 16.2189 76.9428 17.2457C76.9256 17.2457 76.9256 18.0288 76.9256 18.0288ZM96.6436 19.7516L96.5747 20.4477C96.5747 21.3874 97.1947 21.9268 98.1935 21.9268C98.9685 21.9268 99.6573 21.7006 100.432 21.3004C100.501 21.3004 100.587 21.2308 100.656 21.2308C100.811 21.2308 100.88 21.3004 100.966 21.3874C101.035 21.457 101.19 21.7006 101.19 21.7006C101.345 21.9268 101.5 22.2401 101.5 22.4837C101.5 22.8666 101.276 23.2668 100.966 23.4234C100.122 23.8933 99.1062 24.1195 98.0213 24.1195C96.7814 24.1195 95.7826 23.8063 95.0076 23.1798C94.2327 22.4837 93.7677 21.544 93.7677 20.3607V17.3153C93.7677 14.8964 95.3176 13.3998 97.9524 13.3998C100.501 13.3998 101.982 14.8094 101.982 17.3153V19.1947C101.982 19.4209 101.758 19.6646 101.517 19.6646H96.6436V19.7516ZM96.5747 18.0288H99.5195V17.2457C99.5195 16.306 98.9857 15.6795 98.0558 15.6795C97.1258 15.6795 96.592 16.2189 96.592 17.2457V18.0288H96.5747ZM51.0769 23.9629H52.1618C52.3856 23.9629 52.6267 23.7367 52.6267 23.493V17.7155C52.6267 15.053 51.2318 13.4868 48.907 13.4868C48.2182 13.4868 47.4432 13.6434 46.9783 13.8001V10.9113C46.9783 10.2848 46.4444 9.74536 45.8244 9.74536H44.7395C44.5156 9.74536 44.2746 9.97159 44.2746 10.2152V23.5104C44.2746 23.7367 44.4984 23.9803 44.7395 23.9803H46.5133C46.7372 23.9803 46.9783 23.7541 46.9783 23.5104V16.1493C47.3571 15.9927 47.9082 15.9231 48.287 15.9231C49.4409 15.9231 49.9058 16.4626 49.9058 17.8025V22.884C49.9919 23.4234 50.4569 23.9629 51.0769 23.9629ZM62.7527 17.4023V20.291C62.7527 22.7099 61.1339 24.2065 58.413 24.2065C55.7782 24.2065 54.0733 22.7273 54.0733 20.291V17.4023C54.0733 14.9834 55.6921 13.4868 58.413 13.4868C61.1339 13.4868 62.7527 14.9834 62.7527 17.4023ZM60.049 17.4023C60.049 16.4626 59.5151 15.8361 58.4991 15.8361C57.4831 15.8361 56.9492 16.3756 56.9492 17.4023V20.291C56.9492 21.2308 57.4831 21.7702 58.4991 21.7702C59.5151 21.7702 60.049 21.2308 60.049 20.291V17.4023ZM42.7935 16.0797C42.7935 18.5682 40.9337 20.291 38.4711 20.291C37.8511 20.291 37.3173 20.2214 36.7662 19.9778V23.493C36.7662 23.7193 36.5423 23.9629 36.3012 23.9629H34.5275C34.3036 23.9629 34.0625 23.7367 34.0625 23.493V11.0679C34.0625 10.7547 34.2864 10.5285 34.5275 10.4414C35.6813 10.0586 36.8523 9.81497 38.0922 9.81497C40.882 9.81497 42.8108 11.5378 42.8108 14.2003C42.7935 14.2003 42.7935 16.0797 42.7935 16.0797ZM40.021 14.0437C40.021 12.7907 39.1771 12.1643 38.0061 12.1643C37.3173 12.1643 36.8523 12.3905 36.8523 12.3905V17.5589C37.3173 17.7851 37.5411 17.8721 38.0922 17.8721C39.246 17.8721 40.1071 17.1761 40.1071 15.9927V14.0437H40.021ZM92.7861 16.0797C92.7861 18.5856 90.9263 20.3084 88.4464 20.3084C87.8265 20.3084 87.2926 20.2388 86.7416 19.9952V23.5104C86.7416 23.7367 86.5177 23.9803 86.2766 23.9803H84.5028C84.2789 23.9803 84.0378 23.7541 84.0378 23.5104V11.0679C84.0378 10.7547 84.2617 10.5285 84.5028 10.4414C85.6566 10.0586 86.8277 9.81497 88.0676 9.81497C90.8574 9.81497 92.7861 11.5378 92.7861 14.2003V16.0797ZM89.9963 14.0437C89.9963 12.7907 89.1525 12.1643 87.9815 12.1643C87.2926 12.1643 86.8277 12.3905 86.8277 12.3905V17.5589C87.2926 17.7851 87.5165 17.8721 88.0676 17.8721C89.2214 17.8721 90.0824 17.1761 90.0824 15.9927V14.0437H89.9963Z" fill="#5F259F"/>
<path d="M20.1322 11.1378C20.1322 10.5983 19.6672 10.1284 19.1334 10.1284H17.2735L13.0199 5.20364C12.641 4.73378 12.0211 4.57716 11.4011 4.73378L9.93734 5.20364C9.71346 5.27325 9.62736 5.58649 9.78235 5.7431L14.432 10.198H7.38863C7.16475 10.198 7.00977 10.3547 7.00977 10.5809V11.364C7.00977 11.9035 7.47473 12.3733 8.00858 12.3733H9.09351V16.1496C9.09351 18.9687 10.5573 20.6045 13.0371 20.6045C13.8121 20.6045 14.432 20.5349 15.207 20.2217V22.7276C15.207 23.4237 15.7408 23.9805 16.4469 23.9805H17.5318C17.7557 23.9805 17.9968 23.7543 17.9968 23.5107V12.3385H19.7705C19.9944 12.3385 20.1494 12.1819 20.1494 11.9557C20.1322 11.9209 20.1322 11.1378 20.1322 11.1378ZM15.1725 17.8724C14.7076 18.0986 14.0876 18.1856 13.6226 18.1856C12.3827 18.1856 11.7628 17.5591 11.7628 16.1496V12.3907H15.1725V17.8724Z" fill="white"/>
</g>
<defs>
<clipPath id="clip0_1348_6605">
<rect width="102" height="28" fill="white" transform="translate(0 0.800049)"/>
</clipPath>
</defs>
</svg>
