<svg width="435" height="230" viewBox="0 0 435 230" fill="none" xmlns="http://www.w3.org/2000/svg">
<g clip-path="url(#clip0_2479_44830)">
<g opacity="0.1">
<path fill-rule="evenodd" clip-rule="evenodd" d="M-10.1491 170.493C-27.8127 151.841 -53.431 131.088 -47.8944 105.912C-42.1603 79.8382 -4.17124 73.6083 15.458 54.0546C30.778 38.7936 33.773 12.4345 54.1476 4.26291C74.5113 -3.90427 95.3882 15.4206 117.166 13.2629C150.402 9.97005 187.228 -31.0199 212.465 -11.4224C237.11 7.71632 196.953 48.4007 201.391 78.6685C205.089 103.886 246.726 121.717 235.459 145.41C223.699 170.143 180.583 158.075 156.526 173.021C136.823 185.262 133.493 216.062 111.14 222.644C88.8195 229.217 67.1151 214.375 46.3756 205.457C25.3907 196.434 5.15677 186.656 -10.1491 170.493Z" stroke="white" stroke-width="3"/>
<path opacity="0.95875" fill-rule="evenodd" clip-rule="evenodd" d="M-6.55432 168.745C-23.4938 149.496 -48.2946 127.881 -41.8386 102.87C-35.1522 76.9654 2.99206 71.9847 23.3052 53.0642C39.1589 38.2974 43.1221 12.0172 63.7585 4.51206C84.3838 -2.9891 104.505 17.0394 126.32 15.599C159.612 13.4007 197.881 -26.4046 222.343 -5.95925C246.233 14.0075 204.651 53.397 207.962 83.8341C210.72 109.193 251.616 128.411 239.496 151.75C226.845 176.114 184.261 162.614 159.698 176.777C139.582 188.376 135.12 219.09 112.568 224.939C90.0489 230.78 68.9358 215.21 48.5667 205.601C27.9567 195.879 8.12403 185.425 -6.55432 168.745Z" stroke="white" stroke-width="3"/>
<path opacity="0.9175" fill-rule="evenodd" clip-rule="evenodd" d="M-2.90206 167.114C-19.0968 147.291 -43.0499 124.841 -35.6823 100.024C-28.0518 74.3207 10.2013 70.5954 31.1735 52.3311C47.5417 38.0764 52.4682 11.9073 73.3412 5.07761C94.2031 -1.74839 113.545 18.9594 135.37 18.238C168.677 17.137 208.341 -21.4351 232 -0.166919C255.105 20.6034 212.15 58.6501 214.329 89.2195C216.145 114.689 256.249 135.271 243.291 158.228C229.764 182.193 187.763 167.277 162.726 180.64C142.221 191.584 136.632 222.173 113.909 227.282C91.2181 232.384 70.722 216.106 50.7482 205.817C30.5381 195.407 11.1309 184.291 -2.90206 167.114Z" stroke="white" stroke-width="3"/>
<path opacity="0.87625" fill-rule="evenodd" clip-rule="evenodd" d="M0.803291 165.602C-14.6269 145.229 -37.7032 121.972 -29.433 97.379C-20.8677 71.9083 17.4476 69.4429 39.0535 51.8571C55.9161 38.132 61.8 12.1057 82.8842 5.95984C103.957 -0.182688 122.495 21.1792 144.304 21.1777C177.587 21.1753 218.598 -16.1167 241.424 5.94847C263.715 27.4971 219.439 64.1547 220.484 94.8191C221.355 120.367 260.62 142.289 246.839 164.836C232.453 188.372 191.086 172.058 165.604 184.605C144.736 194.88 138.028 225.308 115.16 229.671C92.3257 234.028 72.4717 217.061 52.9175 206.105C33.1319 195.02 14.1738 183.255 0.803291 165.602Z" stroke="white" stroke-width="3"/>
<path opacity="0.835" fill-rule="evenodd" clip-rule="evenodd" d="M4.55722 164.211C-10.0897 143.314 -32.2609 119.277 -23.0983 94.9385C-13.6086 69.7313 24.7222 68.5288 46.9353 51.6429C64.2719 38.464 71.106 12.6123 92.3758 7.15784C113.634 1.70627 131.346 23.6962 153.112 24.4145C186.329 25.5107 228.637 -10.4556 250.603 12.3797C272.054 34.6804 226.511 69.9041 226.421 100.626C226.346 126.222 264.723 149.457 250.136 171.565C234.909 194.644 194.226 176.953 168.331 188.668C147.123 198.262 139.304 228.492 116.321 232.103C93.3704 235.71 74.1826 218.074 55.0718 206.465C35.7349 194.719 17.249 182.318 4.55722 164.211Z" stroke="white" stroke-width="3"/>
<path opacity="0.79375" fill-rule="evenodd" clip-rule="evenodd" d="M8.35514 162.943C-5.49063 141.546 -26.7298 116.76 -16.6858 92.7052C-6.28335 67.7923 32.0163 67.8541 54.8096 51.6887C72.599 39.0722 80.3749 13.4266 101.804 8.67004C123.222 3.91607 140.087 26.5073 161.783 27.9446C194.894 30.1381 238.448 -4.45889 259.526 19.1187C280.111 42.1443 233.356 75.8912 232.131 106.633C231.11 132.247 268.553 156.766 253.178 178.409C237.128 201.003 197.179 181.955 170.902 192.824C149.382 201.726 140.461 231.72 117.389 234.576C94.3509 237.427 75.8526 219.145 57.2085 206.896C38.3439 194.503 20.3528 181.483 8.35514 162.943Z" stroke="white" stroke-width="3"/>
<path opacity="0.7525" fill-rule="evenodd" clip-rule="evenodd" d="M12.1924 161.799C-0.83533 139.93 -21.1167 114.423 -10.2035 90.6819C1.09909 66.0936 39.3209 67.4197 62.6666 51.9945C80.8872 39.9556 89.5955 14.5473 111.158 10.4945C132.71 6.44396 148.706 29.6089 170.307 31.7634C203.271 35.0515 248.018 1.86615 268.183 26.1573C287.876 49.8798 239.966 82.1088 237.607 112.834C235.642 138.433 272.105 164.206 255.961 185.358C239.107 207.439 199.941 187.059 173.314 197.069C151.508 205.266 141.496 234.989 118.364 237.085C95.266 239.178 77.4798 220.272 59.3252 207.398C40.9558 194.373 23.4812 180.749 12.1924 161.799Z" stroke="white" stroke-width="3"/>
<path opacity="0.71125" fill-rule="evenodd" clip-rule="evenodd" d="M16.0644 160.781C3.87054 138.465 -15.4282 112.27 -3.65921 88.8711C8.52974 64.6373 46.6271 67.226 70.4968 52.5598C89.1263 41.1133 98.7565 15.9733 120.427 12.6292C142.085 9.28697 157.194 32.9974 178.672 35.8666C211.45 40.2453 257.335 8.51188 276.563 33.487C295.34 57.8774 246.334 88.5493 242.844 119.22C239.937 144.773 275.376 171.769 258.481 192.405C240.845 213.946 202.509 192.257 175.565 201.396C153.498 208.88 142.408 238.294 119.244 239.628C96.1145 240.961 79.0621 221.453 61.419 207.971C43.5673 194.329 26.6306 180.118 16.0644 160.781Z" stroke="white" stroke-width="3"/>
<path opacity="0.67" fill-rule="evenodd" clip-rule="evenodd" d="M19.9664 159.89C8.62126 137.155 -9.67134 110.303 2.9391 87.275C15.9996 63.4253 53.9261 67.2735 78.2907 53.3841C97.3065 42.5439 107.847 17.7028 129.598 15.0715C151.337 12.4417 165.54 36.6687 186.869 40.249C219.421 45.713 266.388 15.4702 284.655 41.0988C302.494 66.1275 252.451 95.2049 247.835 125.783C243.989 151.26 278.36 179.446 260.736 199.54C242.339 220.515 204.88 197.545 177.651 205.801C155.352 212.562 143.196 241.632 120.029 242.203C96.8955 242.773 80.5977 222.687 63.4876 208.612C46.1752 194.371 29.7972 179.591 19.9664 159.89Z" stroke="white" stroke-width="3"/>
<path opacity="0.62875" fill-rule="evenodd" clip-rule="evenodd" d="M23.8936 159.127C13.411 136.001 -3.8532 108.524 9.58337 85.8954C23.4994 62.4588 61.209 67.5618 86.0388 54.4662C105.418 44.2455 116.855 19.7336 138.66 17.8183C160.454 15.904 173.733 40.6182 194.889 44.9053C227.174 51.4478 275.166 22.7326 292.45 48.9835C309.329 74.6199 258.31 102.067 252.573 132.516C247.793 157.885 281.055 187.228 262.723 206.754C243.587 227.138 207.051 202.914 179.571 210.277C157.065 216.308 143.86 244.999 120.717 244.805C97.6081 244.612 82.0846 223.973 65.5285 209.323C48.7765 194.499 32.9769 179.167 23.8936 159.127Z" stroke="white" stroke-width="3"/>
<path opacity="0.5875" fill-rule="evenodd" clip-rule="evenodd" d="M27.8412 158.494C18.234 135.003 2.0192 106.937 16.2655 84.7341C31.0202 61.7392 68.4668 68.0908 93.7315 55.8049C113.45 46.2162 125.77 22.0633 147.604 20.8663C169.425 19.67 181.765 44.8411 202.72 49.8297C234.7 57.4429 283.658 30.2902 299.938 57.1314C315.837 83.3443 263.904 109.128 257.053 139.411C251.345 164.641 283.456 195.104 264.44 214.04C244.588 233.808 209.019 208.359 181.321 214.821C158.637 220.113 144.397 248.39 121.307 247.432C98.2512 246.476 83.5211 225.309 67.539 210.102C51.3678 194.714 36.1661 178.849 27.8412 158.494Z" stroke="white" stroke-width="3"/>
<path opacity="0.54625" fill-rule="evenodd" clip-rule="evenodd" d="M31.8045 157.99C23.0843 134.165 7.93869 105.542 22.9774 83.7925C38.5528 61.2672 75.6907 68.8597 101.36 57.3985C121.393 48.4534 134.582 24.689 156.417 24.2118C178.239 23.7349 189.625 49.3323 210.354 55.0164C241.989 63.691 291.855 38.1338 307.11 65.5327C322.009 92.2901 269.225 116.379 261.269 146.459C254.64 171.519 285.563 203.065 265.883 221.388C245.34 240.515 210.783 213.873 182.9 219.426C160.065 223.973 144.809 251.801 121.8 250.081C98.8242 248.362 84.9053 226.694 69.5168 210.947C53.9462 195.014 39.3607 178.635 31.8045 157.99Z" stroke="white" stroke-width="3"/>
<path opacity="0.505" fill-rule="evenodd" clip-rule="evenodd" d="M35.7785 157.616C27.956 133.485 13.898 104.341 29.7108 83.0717C46.0879 61.0436 82.872 69.8676 108.914 59.2451C129.239 50.9545 143.28 27.6075 165.089 27.8507C186.886 28.0937 197.303 54.0863 217.781 60.459C249.034 70.1843 299.745 46.2538 313.958 74.1769C327.838 101.446 274.269 123.812 265.216 153.651C257.674 178.512 287.37 211.102 267.053 228.789C245.843 247.253 212.338 219.45 184.306 224.086C161.348 227.883 145.093 255.229 122.193 252.747C99.3263 250.269 86.2357 228.125 71.4594 211.858C56.5083 195.399 42.5569 178.527 35.7785 157.616Z" stroke="white" stroke-width="3"/>
<path opacity="0.46375" fill-rule="evenodd" clip-rule="evenodd" d="M39.7586 157.374C32.8432 132.966 19.89 103.336 36.4576 82.5727C53.6164 61.0685 90.0019 71.1134 116.385 61.3425C136.976 53.7166 151.852 30.8154 173.609 31.7787C195.354 32.7414 204.79 59.0974 224.993 66.1508C255.824 76.9151 307.32 54.6405 320.473 83.0538C333.318 110.802 279.028 131.416 268.89 160.979C260.444 185.609 288.877 219.204 267.946 236.234C246.096 254.012 213.685 225.082 185.536 228.797C162.484 231.839 145.25 258.668 122.487 255.429C99.757 252.195 87.5105 229.601 73.3645 212.835C59.0512 195.869 45.7508 178.524 39.7586 157.374Z" stroke="white" stroke-width="3"/>
<path opacity="0.4225" fill-rule="evenodd" clip-rule="evenodd" d="M43.7397 157.263C37.74 132.608 25.9073 102.528 43.2095 82.2959C61.1292 61.3419 97.0716 72.5955 123.764 63.688C144.596 56.736 160.289 34.3087 181.967 35.9908C203.634 37.672 212.077 64.3594 231.979 72.085C262.352 83.8751 314.569 63.2835 326.647 92.1524C338.441 120.346 283.496 139.183 272.286 168.434C262.947 192.804 290.082 227.363 268.563 243.715C246.099 260.784 214.821 230.763 186.591 233.551C163.471 235.834 145.28 262.115 122.681 258.122C100.116 254.135 88.7283 231.121 75.2298 213.874C61.5717 196.424 48.9386 178.626 43.7397 157.263Z" stroke="white" stroke-width="3"/>
<path opacity="0.38125" fill-rule="evenodd" clip-rule="evenodd" d="M47.7171 157.283C42.6403 132.412 31.9426 101.918 49.9583 82.2419C68.617 61.8636 104.073 74.312 131.041 66.2789C152.089 60.0093 168.58 38.0831 190.154 40.482C211.715 42.8797 219.156 69.866 238.733 78.2543C268.61 91.0559 321.486 72.1724 332.472 101.462C343.201 130.065 287.669 147.103 275.4 176.006C265.178 200.087 290.983 235.567 268.902 251.221C245.852 267.562 215.745 236.486 187.467 238.344C164.308 239.866 145.182 265.566 122.776 260.824C100.402 256.089 89.8875 232.681 77.053 214.976C64.0667 197.062 52.1162 178.834 47.7171 157.283Z" stroke="white" stroke-width="3"/>
<path opacity="0.34" fill-rule="evenodd" clip-rule="evenodd" d="M51.6859 157.434C47.5382 132.377 37.9885 101.507 56.6958 82.4106C76.0708 62.6328 110.996 76.261 138.209 69.112C159.447 63.5325 176.716 42.134 198.158 45.2469C219.588 48.3581 226.017 75.6103 245.246 84.6512C274.591 98.4486 328.059 81.2962 337.942 110.97C347.593 139.95 291.54 155.167 278.228 183.687C267.136 207.448 291.579 243.807 268.963 258.744C245.354 274.337 216.455 242.243 188.164 243.169C164.995 243.928 144.957 269.016 122.77 263.531C100.615 258.054 90.9868 234.282 78.8319 216.14C66.5332 197.783 55.2799 179.146 51.6859 157.434Z" stroke="white" stroke-width="3"/>
<path opacity="0.29875" fill-rule="evenodd" clip-rule="evenodd" d="M55.6413 157.716C52.4277 132.503 44.0377 101.295 63.4138 82.8018C83.4814 63.6486 117.835 78.44 145.257 72.1839C166.66 67.3012 184.685 46.4566 205.97 50.2796C227.243 54.1005 232.652 81.5855 251.509 91.2679C280.286 106.044 334.283 90.644 343.049 120.667C351.611 149.987 295.106 163.365 280.766 191.467C268.818 214.88 291.869 252.074 268.746 266.275C244.607 281.1 216.951 248.028 188.682 248.022C165.531 248.016 144.605 272.462 122.664 266.24C100.756 260.028 92.0247 235.919 80.5642 217.362C68.9682 198.586 58.4258 179.564 55.6413 157.716Z" stroke="white" stroke-width="3"/>
<path opacity="0.2575" fill-rule="evenodd" clip-rule="evenodd" d="M59.5784 158.13C57.303 132.792 50.0828 101.283 70.1041 83.415C90.8399 64.9098 124.579 80.8462 152.179 75.4906C173.719 71.3107 192.48 51.0453 213.581 55.5738C234.671 60.0998 239.054 87.7841 257.515 98.0963C285.69 113.834 340.149 100.204 347.789 130.539C355.25 160.163 298.362 171.687 283.012 199.337C270.222 222.373 291.853 260.356 268.251 273.804C243.612 287.844 217.233 253.834 189.02 252.894C165.914 252.125 144.126 275.898 122.459 268.948C100.823 262.007 93.0001 237.592 82.248 218.643C71.3687 199.47 61.5501 180.085 59.5784 158.13Z" stroke="white" stroke-width="3"/>
<path opacity="0.21625" fill-rule="evenodd" clip-rule="evenodd" d="M63.4925 158.673C62.1579 133.241 56.1164 101.47 76.7585 84.2495C98.1373 66.4148 131.221 83.477 158.964 79.0283C180.617 75.5563 200.089 55.8949 220.981 61.1233C241.862 66.3489 245.213 94.1988 263.257 105.128C290.795 121.808 345.651 109.965 352.154 140.575C358.505 170.468 301.304 180.123 284.962 207.287C271.347 229.918 291.531 268.643 267.479 281.323C242.37 294.56 217.299 259.654 189.176 257.782C166.145 256.249 143.521 279.321 122.154 271.65C100.817 263.99 93.9117 239.299 83.8811 219.981C73.7318 200.434 64.6489 180.711 63.4925 158.673Z" stroke="white" stroke-width="3"/>
<path opacity="0.175" fill-rule="evenodd" clip-rule="evenodd" d="M67.3788 159.346C66.9867 133.851 62.1312 101.856 83.3689 85.3044C105.365 68.1619 137.752 86.329 165.605 82.7928C187.343 80.0328 207.504 60.9994 228.162 66.9214C248.809 72.8402 251.124 100.822 268.728 112.355C295.595 129.956 350.78 119.915 356.14 150.763C361.374 180.888 303.928 188.662 286.615 215.307C272.19 237.506 290.904 276.927 266.43 288.822C240.881 301.24 217.15 265.48 189.152 262.679C166.223 260.384 142.791 282.727 121.749 274.345C100.738 265.975 94.7585 241.037 85.4616 221.373C76.0546 201.477 67.7186 181.439 67.3788 159.346Z" stroke="white" stroke-width="3"/>
<path opacity="0.13375" fill-rule="evenodd" clip-rule="evenodd" d="M71.2326 160.148C71.7834 134.62 68.1198 102.442 89.9274 86.5783C112.513 70.1489 144.165 89.3987 172.094 86.7792C193.891 84.7348 214.715 66.3524 235.114 72.9608C255.501 79.5656 256.778 107.645 273.921 119.768C300.084 138.269 355.532 130.042 359.741 161.09C363.851 191.411 306.232 197.294 287.968 223.388C272.751 245.128 289.971 285.195 265.106 296.292C239.149 307.876 216.786 271.306 188.947 267.578C166.148 264.525 141.937 286.111 121.246 277.028C100.585 267.958 95.5394 242.804 86.9874 222.819C78.3344 202.597 70.7552 182.268 71.2326 160.148Z" stroke="white" stroke-width="3"/>
<path opacity="0.0925" fill-rule="evenodd" clip-rule="evenodd" d="M75.0491 161.078C76.5422 135.549 74.0751 103.225 96.4258 88.0694C119.574 72.3732 150.453 92.6824 178.423 90.9828C200.253 89.6563 221.715 71.9474 241.829 79.2341C261.932 86.5169 262.168 114.659 278.83 127.357C304.258 146.736 359.9 140.333 362.953 171.543C365.935 202.023 308.212 206.009 289.02 231.519C273.03 252.773 288.735 293.44 263.509 303.724C237.175 314.46 216.208 277.124 188.561 272.474C165.92 268.666 140.959 289.47 120.644 279.697C100.36 269.938 96.2534 244.599 88.4569 224.316C80.5682 203.793 73.7553 183.199 75.0491 161.078Z" stroke="white" stroke-width="3"/>
<path opacity="0.05125" fill-rule="evenodd" clip-rule="evenodd" d="M78.8237 162.134C81.2574 136.635 79.9896 104.205 102.856 89.7764C126.539 74.8324 156.606 96.1761 184.584 95.3985C206.42 94.7916 228.494 77.7778 248.299 85.7339C268.094 93.6858 267.289 121.857 283.449 135.115C308.111 155.347 363.88 150.777 365.773 182.111C367.623 212.712 309.867 214.796 289.77 239.692C273.025 260.434 287.197 301.65 261.64 311.109C234.962 320.984 215.415 282.927 187.995 277.362C165.539 272.803 139.859 292.799 119.945 282.348C100.062 271.912 96.8997 246.418 89.8682 225.862C82.7534 205.063 76.715 184.229 78.8237 162.134Z" stroke="white" stroke-width="3"/>
<path opacity="0.01" fill-rule="evenodd" clip-rule="evenodd" d="M82.5519 163.315C85.923 137.877 85.8562 105.381 109.211 91.6958C133.399 77.5223 162.618 99.8746 190.57 100.02C212.385 100.133 235.044 83.8354 254.516 92.4512C273.978 101.062 272.134 129.228 287.772 143.03C311.637 164.091 367.465 161.358 368.197 192.779C368.912 223.464 311.193 223.643 290.215 247.894C272.738 268.099 285.358 309.814 259.503 318.437C232.512 327.438 214.41 288.708 187.25 282.233C165.006 276.93 138.638 296.093 119.15 284.977C99.6909 273.877 97.4775 248.259 91.2194 227.456C84.8874 206.406 79.6308 185.357 82.5519 163.315Z" stroke="white" stroke-width="3"/>
</g>
<g opacity="0.5">
<circle cx="293.762" cy="65.7618" r="33.5" transform="rotate(30 293.762 65.7618)" fill="url(#paint0_linear_2479_44830)" style="mix-blend-mode:soft-light"/>
<circle cx="293.762" cy="65.7618" r="33.5" transform="rotate(30 293.762 65.7618)" fill="url(#paint1_linear_2479_44830)" style="mix-blend-mode:soft-light"/>
</g>
<g opacity="0.5">
<circle cx="311.004" cy="187.591" r="17.5724" transform="rotate(30 311.004 187.591)" fill="url(#paint2_linear_2479_44830)" style="mix-blend-mode:soft-light"/>
<circle cx="311.004" cy="187.591" r="17.5724" transform="rotate(30 311.004 187.591)" fill="url(#paint3_linear_2479_44830)" style="mix-blend-mode:soft-light"/>
</g>
<g opacity="0.5">
<circle cx="389.004" cy="44.0044" r="17.5724" transform="rotate(30 389.004 44.0044)" fill="url(#paint4_linear_2479_44830)" style="mix-blend-mode:soft-light"/>
<circle cx="389.004" cy="44.0044" r="17.5724" transform="rotate(30 389.004 44.0044)" fill="url(#paint5_linear_2479_44830)" style="mix-blend-mode:soft-light"/>
</g>
<g opacity="0.5">
<circle cx="133.209" cy="108.11" r="87.343" transform="rotate(30 133.209 108.11)" fill="url(#paint6_linear_2479_44830)" style="mix-blend-mode:soft-light"/>
<circle cx="133.209" cy="108.11" r="87.343" transform="rotate(30 133.209 108.11)" fill="url(#paint7_linear_2479_44830)" style="mix-blend-mode:soft-light"/>
</g>
</g>
<defs>
<linearGradient id="paint0_linear_2479_44830" x1="293.762" y1="32.2618" x2="293.762" y2="99.2618" gradientUnits="userSpaceOnUse">
<stop stop-color="white"/>
<stop offset="1" stop-opacity="0"/>
</linearGradient>
<linearGradient id="paint1_linear_2479_44830" x1="293.762" y1="32.2618" x2="293.762" y2="99.2618" gradientUnits="userSpaceOnUse">
<stop stop-color="white"/>
<stop offset="1" stop-opacity="0"/>
</linearGradient>
<linearGradient id="paint2_linear_2479_44830" x1="311.004" y1="170.019" x2="311.004" y2="205.164" gradientUnits="userSpaceOnUse">
<stop stop-color="white"/>
<stop offset="1" stop-opacity="0"/>
</linearGradient>
<linearGradient id="paint3_linear_2479_44830" x1="311.004" y1="170.019" x2="311.004" y2="205.164" gradientUnits="userSpaceOnUse">
<stop stop-color="white"/>
<stop offset="1" stop-opacity="0"/>
</linearGradient>
<linearGradient id="paint4_linear_2479_44830" x1="389.004" y1="26.432" x2="389.004" y2="61.5768" gradientUnits="userSpaceOnUse">
<stop stop-color="white"/>
<stop offset="1" stop-opacity="0"/>
</linearGradient>
<linearGradient id="paint5_linear_2479_44830" x1="389.004" y1="26.432" x2="389.004" y2="61.5768" gradientUnits="userSpaceOnUse">
<stop stop-color="white"/>
<stop offset="1" stop-opacity="0"/>
</linearGradient>
<linearGradient id="paint6_linear_2479_44830" x1="133.209" y1="20.7666" x2="133.209" y2="195.453" gradientUnits="userSpaceOnUse">
<stop stop-color="white"/>
<stop offset="1" stop-opacity="0"/>
</linearGradient>
<linearGradient id="paint7_linear_2479_44830" x1="133.209" y1="20.7666" x2="133.209" y2="195.453" gradientUnits="userSpaceOnUse">
<stop stop-color="white"/>
<stop offset="1" stop-opacity="0"/>
</linearGradient>
<clipPath id="clip0_2479_44830">
<rect width="435" height="230" fill="white"/>
</clipPath>
</defs>
</svg>
