<svg width="259" height="213" viewBox="0 0 259 213" fill="none" xmlns="http://www.w3.org/2000/svg">
<g clip-path="url(#clip0_1521_37379)" filter="url(#filter0_dddd_1521_37379)">
<path fill-rule="evenodd" clip-rule="evenodd" d="M116.365 25.4194C119.02 25.2517 122.052 26.2853 124.367 27.3079C131.179 30.3194 137.708 33.9138 143.925 37.4215C145.966 38.5719 148.059 39.8648 150.261 40.9784C154.676 43.212 158.848 44.9844 163.262 47.7566C165.64 49.2495 168.211 51.0512 169.152 53.4228C170.925 57.8875 168.74 63.4428 167.152 66.6494C165.26 70.4653 163.285 74.0353 161.484 77.5367C157.683 84.932 154.041 91.6388 150.038 99.2085C146.017 106.817 142.47 113.991 138.926 121.214C136.289 126.583 133.227 132.158 130.369 137.551C128.761 140.574 127.453 143.546 124.254 144.773C123.613 145.019 122.318 145.228 121.144 145.106C118.552 144.841 116.03 143.315 113.698 142.219C111.353 141.114 109.039 139.838 106.919 138.66C98.4196 133.944 88.3451 129.383 79.9136 124.325C75.8488 121.887 70.9758 118.953 68.9111 114.768C66.5395 109.954 69.6558 103.209 71.5802 99.3208C73.4815 95.4758 75.3416 92.189 77.2471 88.9837C79.3027 85.5299 81.2933 81.9753 83.1375 78.7618C86.8956 72.2129 91.0739 64.925 94.2492 57.758C95.8171 54.2197 97.7346 50.2622 99.4731 46.977C102.113 41.9961 105.087 36.4968 108.253 31.6421C109.342 29.9691 110.573 28.2248 111.809 27.1963C112.796 26.3747 114.263 25.5524 116.365 25.4194Z" fill="#B9D5E8"/>
<path d="M140.782 43.4113C140.878 43.4377 141.022 43.4155 141.026 43.5264C142.685 43.2009 143.467 41.4158 144.188 40.1476C144.535 39.5367 144.929 38.8736 145.24 38.1756C144.8 37.9192 144.361 37.6661 143.926 37.4215C143.69 37.2867 143.449 37.154 143.211 37.0193C142.779 37.672 142.374 38.3879 141.998 39.0944C141.327 40.3701 140.187 41.8757 140.782 43.4113Z" fill="white"/>
<path d="M136.768 50.2915C135.821 51.742 134.453 53.6592 133.727 55.3057C133.19 56.5312 133.111 57.8127 134.216 57.8724C135.058 57.9184 135.803 56.4372 136.16 55.8902C136.753 54.9783 137.363 54.2062 137.742 53.5588C138.812 51.725 139.925 50.2915 139.808 48.0768C138.295 46.9567 137.441 49.2628 136.768 50.2915Z" fill="white"/>
<path d="M129.714 63.8195C128.17 65.5691 126.418 68.4717 125.459 70.8175C125.157 71.552 124.726 72.5925 125.579 73.15C126.63 73.2139 127.2 72.1887 127.648 71.5171C128.181 70.7108 128.573 69.8374 128.985 69.0673C129.847 67.4556 131.092 65.7106 131.053 63.8195C130.791 63.585 129.933 63.4248 129.714 63.8195Z" fill="white"/>
<path d="M120.592 79.5634C119.839 80.3635 119.256 81.7559 118.404 83.2951C118.015 83.9947 116.018 86.5454 117.187 87.2587C117.864 87.6746 118.931 86.5242 119.255 86.093C119.896 85.2417 120.229 84.4638 120.593 83.8773C121.566 82.3075 122.605 80.9304 122.539 79.0956C121.843 78.5584 121.039 79.0878 120.592 79.5634Z" fill="white"/>
<path d="M113.66 94.2575C113.659 94.4102 113.447 94.3642 113.417 94.4901C112.086 95.5247 111.293 96.7951 110.377 98.5705C109.929 99.4404 107.827 102.739 109.04 103.353C109.931 103.805 110.679 102.55 111.107 101.952C112.211 100.415 112.998 98.8764 113.783 97.2906C114.182 96.4794 114.892 95.6219 114.634 94.6062C114.365 94.4356 114.111 94.2533 113.66 94.2575Z" fill="white"/>
<path d="M104.904 110.118C104.039 111.272 103.23 112.41 102.229 114.199C101.834 114.901 99.6149 118.241 101.255 118.514C102.055 118.646 102.715 117.514 103.081 116.997C103.595 116.271 104.066 115.454 104.418 114.898C105.393 113.359 106.388 111.981 106.241 110.118C105.982 109.882 105.123 109.723 104.904 110.118Z" fill="white"/>
<path d="M97.7288 125.511C97.4682 125.275 96.609 125.118 96.3892 125.511C95.5415 126.434 94.8657 127.255 94.0806 129.007C93.9168 129.369 93.2847 130.475 93.0254 131.432C93.5939 131.724 94.1631 132.013 94.7316 132.302C95.4629 131.471 96.0881 130.146 96.2672 129.825C97.0735 128.398 97.8651 127.114 97.7288 125.511Z" fill="white"/>
<g opacity="0.38">
<path fill-rule="evenodd" clip-rule="evenodd" d="M118.136 115.088C117.927 115.911 116.921 115.81 116.374 115.969C112.397 117.108 108.672 119.677 108.571 124.903C108.467 130.447 113.054 134.536 118.64 133.963C121.068 133.715 122.896 132.498 124.176 131.07C124.636 130.557 125.013 129.441 126.189 129.938C127.155 131.796 125.052 133.224 123.8 134.09C116.471 139.149 105.77 133.696 106.684 123.897C107.1 119.439 110.779 115.097 115.367 114.584C116.446 114.464 117.506 114.505 118.136 115.088Z" fill="#1A4E72"/>
</g>
<path fill-rule="evenodd" clip-rule="evenodd" d="M117.003 118.736C118.144 118.607 120.093 118.774 121.155 119.365C123.264 120.537 125.104 123.609 124.302 126.664C123.565 129.467 118.866 133.09 114.739 131.07C113.529 130.477 112 128.759 111.591 127.167C110.601 123.305 112.985 119.917 115.367 118.988C115.832 118.805 116.382 118.807 117.003 118.736Z" fill="#37582A"/>
<g opacity="0.38">
<path fill-rule="evenodd" clip-rule="evenodd" d="M117.129 119.617C118.423 121.45 119.193 124.374 119.647 127.167C119.78 127.994 120.271 129.093 119.52 129.812C118.453 130.047 118.19 128.87 117.884 128.051C117.607 127.304 117.345 126.336 117.129 125.532C116.667 123.805 115.957 121.259 116.247 119.997C116.243 119.779 116.341 119.669 116.5 119.617C116.712 119.617 116.922 119.617 117.129 119.617Z" fill="white"/>
</g>
<g opacity="0.38">
<path fill-rule="evenodd" clip-rule="evenodd" d="M131.433 93.2662C131.225 94.0885 130.217 93.9897 129.671 94.1465C125.694 95.2852 121.969 97.8551 121.869 103.081C121.764 108.624 126.35 112.713 131.937 112.142C134.365 111.895 136.193 110.675 137.473 109.248C137.933 108.734 138.311 107.62 139.487 108.115C140.452 109.975 138.349 111.402 137.097 112.268C129.77 117.327 119.068 111.875 119.981 102.076C120.397 97.6164 124.076 93.2744 128.664 92.7606C129.743 92.6396 130.803 92.684 131.433 93.2662Z" fill="#1A4E72"/>
</g>
<path fill-rule="evenodd" clip-rule="evenodd" d="M130.301 96.9146C131.441 96.7858 133.391 96.9548 134.453 97.5461C136.56 98.7145 138.401 101.787 137.599 104.843C136.862 107.646 132.163 111.268 128.034 109.248C126.827 108.655 125.297 106.938 124.888 105.347C123.897 101.485 126.283 98.098 128.663 97.1668C129.131 96.9854 129.678 96.9854 130.301 96.9146Z" fill="#37582A"/>
<g opacity="0.38">
<path fill-rule="evenodd" clip-rule="evenodd" d="M130.425 97.7949C131.719 99.629 132.49 102.552 132.942 105.347C133.077 106.173 133.565 107.272 132.816 107.989C131.75 108.226 131.485 107.048 131.18 106.225C130.902 105.481 130.641 104.517 130.425 103.71C129.963 101.984 129.254 99.4362 129.544 98.1749C129.54 97.9567 129.639 97.8468 129.797 97.7949C130.007 97.7949 130.216 97.7949 130.425 97.7949Z" fill="white"/>
</g>
<g opacity="0.38">
<path fill-rule="evenodd" clip-rule="evenodd" d="M142.725 71.6691C142.516 72.495 141.511 72.3935 140.964 72.552C136.986 73.6881 133.262 76.2606 133.161 81.4862C133.056 87.0289 137.644 91.1168 143.23 90.5466C145.657 90.2987 147.485 89.0792 148.767 87.6509C149.226 87.1404 149.603 86.0249 150.78 86.519C151.745 88.3785 149.641 89.8085 148.39 90.6725C141.062 95.7301 130.362 90.2805 131.273 80.4787C131.689 76.0219 135.369 71.6799 139.958 71.1678C141.038 71.0454 142.096 71.0898 142.725 71.6691Z" fill="#1A4E72"/>
</g>
<path fill-rule="evenodd" clip-rule="evenodd" d="M141.593 75.3199C142.734 75.1914 144.685 75.359 145.746 75.9497C147.853 77.1197 149.695 80.191 148.891 83.2488C148.156 86.0526 143.457 89.6718 139.329 87.6512C138.12 87.0614 136.591 85.3435 136.181 83.7514C135.191 79.8876 137.577 76.501 139.958 75.5724C140.422 75.3897 140.97 75.3897 141.593 75.3199Z" fill="#37582A"/>
<g opacity="0.38">
<path fill-rule="evenodd" clip-rule="evenodd" d="M141.72 76.1982C143.012 78.0339 143.783 80.9558 144.236 83.7511C144.371 84.5776 144.862 85.6752 144.109 86.3927C143.044 86.6289 142.78 85.4527 142.474 84.6311C142.197 83.8871 141.936 82.92 141.72 82.1147C141.257 80.3882 140.547 77.8412 140.837 76.5772C140.833 76.3626 140.933 76.2508 141.09 76.1982C141.299 76.1982 141.511 76.1982 141.72 76.1982Z" fill="white"/>
</g>
<g opacity="0.38">
<path fill-rule="evenodd" clip-rule="evenodd" d="M154.71 48.3328C154.501 49.1594 153.495 49.0579 152.948 49.2148C148.972 50.3535 145.247 52.9227 145.146 58.1483C145.041 63.6942 149.628 67.7831 155.213 67.2104C157.643 66.9625 159.471 65.7429 160.75 64.3162C161.211 63.8006 161.587 62.6886 162.762 63.1828C163.73 65.0413 161.626 66.4713 160.374 67.3379C153.045 72.3929 142.347 66.9452 143.258 57.1424C143.675 52.6837 147.355 48.3446 151.942 47.8322C153.02 47.7099 154.079 47.7523 154.71 48.3328Z" fill="#1A4E72"/>
</g>
<path fill-rule="evenodd" clip-rule="evenodd" d="M153.58 51.9848C154.72 51.8543 156.671 52.0233 157.731 52.6146C159.84 53.7846 161.682 56.8552 160.878 59.9127C160.142 62.7155 155.442 66.3357 151.313 64.3167C150.105 63.726 148.575 62.0081 148.167 60.4154C147.177 56.5532 149.563 53.1665 151.944 52.2369C152.408 52.0546 152.957 52.0546 153.58 51.9848Z" fill="#37582A"/>
<g opacity="0.38">
<path fill-rule="evenodd" clip-rule="evenodd" d="M153.706 52.8635C154.999 54.6973 155.77 57.6204 156.224 60.4157C156.357 61.2422 156.849 62.3408 156.097 63.0574C155.031 63.2925 154.767 62.1147 154.462 61.2957C154.183 60.5491 153.921 59.5836 153.706 58.7809C153.243 57.0535 152.533 54.5071 152.824 53.2425C152.819 53.0269 152.92 52.916 153.078 52.8635C153.286 52.8635 153.497 52.8635 153.706 52.8635Z" fill="white"/>
</g>
<g opacity="0.38">
<path fill-rule="evenodd" clip-rule="evenodd" d="M86.7731 98.4694C86.5634 99.2936 85.5572 99.1954 85.0118 99.353C81.0338 100.49 77.3089 103.062 77.2085 108.287C77.1038 113.829 81.6917 117.918 87.2761 117.348C89.7048 117.1 91.5336 115.879 92.8135 114.452C93.2744 113.938 93.6485 112.825 94.8273 113.321C95.7921 115.179 93.6896 116.608 92.4368 117.471C85.109 122.531 74.408 117.079 75.3225 107.28C75.7384 102.823 79.4163 98.4795 84.0046 97.9664C85.0832 97.8464 86.1423 97.8891 86.7731 98.4694Z" fill="#1A4E72"/>
</g>
<path fill-rule="evenodd" clip-rule="evenodd" d="M85.6415 102.121C86.7825 101.991 88.7323 102.161 89.794 102.75C91.9014 103.921 93.7413 106.991 92.9403 110.048C92.2047 112.852 87.5026 116.474 83.3762 114.452C82.1678 113.863 80.6374 112.142 80.23 110.552C79.2397 106.689 81.6241 103.301 84.0051 102.373C84.4706 102.191 85.0185 102.191 85.6415 102.121Z" fill="#37582A"/>
<g opacity="0.38">
<path fill-rule="evenodd" clip-rule="evenodd" d="M85.7656 103C87.0585 104.836 87.8296 107.757 88.284 110.553C88.4177 111.38 88.9086 112.479 88.1577 113.194C87.0899 113.429 86.826 112.252 86.5207 111.433C86.2421 110.689 85.9822 109.721 85.7656 108.915C85.3021 107.19 84.5937 104.641 84.8843 103.378C84.8784 103.164 84.9789 103.053 85.1364 103C85.3471 103 85.5568 103 85.7656 103Z" fill="white"/>
</g>
<g opacity="0.38">
<path fill-rule="evenodd" clip-rule="evenodd" d="M100.071 76.651C99.8621 77.4733 98.8549 77.3735 98.3086 77.5314C94.3332 78.6681 90.6073 81.24 90.5069 86.4639C90.4012 92.0092 94.9901 96.0987 100.575 95.5259C103.003 95.2781 104.831 94.0575 106.113 92.6328C106.572 92.1165 106.948 91.0026 108.124 91.4984C109.091 93.3579 106.987 94.7852 105.735 95.6519C98.4067 100.709 87.7057 95.2565 88.6193 85.4574C89.0361 81.0005 92.7141 76.6576 97.303 76.1455C98.381 76.0264 99.442 76.0691 100.071 76.651Z" fill="#1A4E72"/>
</g>
<path fill-rule="evenodd" clip-rule="evenodd" d="M98.938 80.2995C100.08 80.1683 102.031 80.3386 103.091 80.9283C105.197 82.0993 107.04 85.1695 106.237 88.2264C105.501 91.0308 100.801 94.6536 96.6717 92.633C95.4649 92.0407 93.9345 90.3227 93.5271 88.73C92.5362 84.8704 94.9212 81.4805 97.3022 80.5506C97.767 80.3686 98.3156 80.3702 98.938 80.2995Z" fill="#37582A"/>
<g opacity="0.38">
<path fill-rule="evenodd" clip-rule="evenodd" d="M99.0633 81.1808C100.358 83.0139 101.127 85.9367 101.582 88.7304C101.716 89.5579 102.206 90.6571 101.455 91.373C100.388 91.6098 100.125 90.433 99.8201 89.6107C99.5422 88.8677 99.2796 87.9012 99.0633 87.0949C98.6025 85.3685 97.8924 82.8205 98.183 81.5582C98.1778 81.3426 98.2776 81.2317 98.4361 81.1808C98.6449 81.1808 98.8546 81.1808 99.0633 81.1808Z" fill="white"/>
</g>
<g opacity="0.38">
<path fill-rule="evenodd" clip-rule="evenodd" d="M111.366 55.0545C111.156 55.8778 110.15 55.779 109.604 55.9349C105.627 57.0742 101.901 59.6444 101.802 64.8691C101.696 70.4143 106.284 74.5012 111.868 73.9311C114.297 73.6806 116.125 72.4627 117.406 71.0353C117.866 70.5223 118.242 69.4077 119.419 69.9029C120.383 71.763 118.281 73.1897 117.028 74.0557C109.7 79.1149 98.9992 73.663 99.9144 63.8635C100.329 59.4047 104.008 55.0647 108.595 54.55C109.675 54.4309 110.735 54.4727 111.366 55.0545Z" fill="#1A4E72"/>
</g>
<path fill-rule="evenodd" clip-rule="evenodd" d="M110.232 58.7058C111.373 58.5747 113.325 58.744 114.385 59.3321C116.493 60.503 118.334 63.5759 117.531 66.6318C116.795 69.4336 112.094 73.0564 107.967 71.0358C106.759 70.4451 105.23 68.7271 104.822 67.1354C103.832 63.2732 106.215 59.8869 108.596 58.9554C109.061 58.774 109.61 58.774 110.232 58.7058Z" fill="#37582A"/>
<g opacity="0.38">
<path fill-rule="evenodd" clip-rule="evenodd" d="M110.357 59.584C111.652 61.418 112.42 64.3409 112.875 67.1362C113.009 67.962 113.5 69.0622 112.749 69.7798C111.681 70.0143 111.418 68.8372 111.113 68.0165C110.835 67.2719 110.574 66.3044 110.357 65.5001C109.894 63.7737 109.185 61.2266 109.476 59.9653C109.471 59.7497 109.57 59.6355 109.729 59.5843C109.94 59.584 110.149 59.584 110.357 59.584Z" fill="white"/>
</g>
<g opacity="0.38">
<path fill-rule="evenodd" clip-rule="evenodd" d="M123.345 31.7185C123.137 32.5433 122.13 32.4435 121.584 32.5998C117.609 33.7381 113.882 36.3083 113.784 41.5339C113.676 47.0766 118.265 51.1661 123.849 50.5937C126.278 50.3465 128.105 49.1279 129.386 47.7005C129.848 47.1875 130.223 46.073 131.4 46.5681C132.366 48.4276 130.261 49.8549 129.01 50.7199C121.682 55.7795 110.981 50.3279 111.895 40.5277C112.311 36.0683 115.989 31.7279 120.579 31.2158C121.656 31.0955 122.716 31.1372 123.345 31.7185Z" fill="#1A4E72"/>
</g>
<path fill-rule="evenodd" clip-rule="evenodd" d="M122.212 35.3673C123.353 35.2378 125.305 35.4064 126.366 35.9971C128.474 37.1671 130.314 40.2377 129.514 43.2962C128.775 46.098 124.076 49.7198 119.949 47.7002C118.739 47.1105 117.21 45.3899 116.802 43.7972C115.812 39.9386 118.195 36.5503 120.578 35.6197C121.042 35.4381 121.59 35.4381 122.212 35.3673Z" fill="#37582A"/>
<g opacity="0.38">
<path fill-rule="evenodd" clip-rule="evenodd" d="M122.34 36.2482C123.633 38.0803 124.403 41.0051 124.857 43.7968C124.99 44.6233 125.481 45.7244 124.732 46.442C123.664 46.6765 123.4 45.4997 123.096 44.6781C122.818 43.9331 122.557 42.9693 122.34 42.1623C121.877 40.4375 121.167 37.8888 121.459 36.6249C121.454 36.4103 121.554 36.2994 121.712 36.2482C121.922 36.2482 122.13 36.2482 122.34 36.2482Z" fill="white"/>
</g>
<path fill-rule="evenodd" clip-rule="evenodd" d="M5.59766 100.582L9.14021 105.062C10.8856 107.269 15.9177 106.196 20.3804 102.663C24.8431 99.1361 27.047 94.4849 25.3001 92.2787L21.7565 87.7987L5.59766 100.582Z" fill="#ED971A"/>
<g opacity="0.14">
<path fill-rule="evenodd" clip-rule="evenodd" d="M5.59766 100.582L9.14021 105.062C10.8856 107.269 15.9177 106.196 20.3804 102.663C24.8431 99.1361 27.047 94.4849 25.3001 92.2787L21.7565 87.7987L5.59766 100.582Z" fill="#1A4E72"/>
</g>
<path fill-rule="evenodd" clip-rule="evenodd" d="M21.7575 87.7986C23.5044 90.0042 21.3015 94.657 16.8372 98.1849C12.3751 101.715 7.34197 102.789 5.59858 100.581C3.85259 98.3757 6.0562 93.7255 10.5182 90.1957C13.5272 87.8166 16.7944 86.553 19.139 86.6583C19.4296 86.6714 19.0538 87.3576 19.3138 87.4134C19.5134 87.4561 20.3559 86.8592 20.5353 86.9274C21.0321 87.1169 21.447 87.4056 21.7575 87.7986Z" fill="#ED971A"/>
<path d="M20.5408 86.9308C20.1223 86.7713 19.6484 86.6829 19.1304 86.6581C18.2204 87.4908 17.161 88.6393 16.129 89.7456C14.383 91.6126 12.3744 93.8055 10.768 95.6673C9.23828 97.4407 7.11392 99.7297 6.30273 101.196C6.61879 101.391 6.98182 101.531 7.38758 101.617C10.5058 99.0781 14.9104 93.8446 18.3773 89.6002C19.03 88.8004 19.9622 87.8085 20.5408 86.9308Z" fill="white"/>
<path fill-rule="evenodd" clip-rule="evenodd" d="M64.8711 73.0693L65.2283 78.7705C65.4031 81.5765 70.1489 83.5649 75.8285 83.2119C81.5075 82.8548 85.9685 80.293 85.794 77.4853L85.4385 71.7842L64.8711 73.0693Z" fill="#ED971A"/>
<g opacity="0.14">
<path fill-rule="evenodd" clip-rule="evenodd" d="M64.8711 73.0693L65.2283 78.7705C65.4116 81.5765 70.1446 83.5665 75.8285 83.2119C81.5075 82.8548 85.9685 80.293 85.794 77.4853L85.4385 71.7842L64.8711 73.0693Z" fill="#1A4E72"/>
</g>
<path fill-rule="evenodd" clip-rule="evenodd" d="M85.4395 71.7841C85.6134 74.5947 81.153 77.1561 75.4724 77.51C69.7944 77.8636 65.0476 75.8772 64.8721 73.0692C64.6983 70.2596 69.1603 67.6988 74.8393 67.3426C78.6763 67.1032 82.0868 67.934 83.9502 69.3636C84.1528 69.5188 83.6844 69.6813 83.8488 69.8502C84.0132 70.0192 84.8103 70.1943 84.934 70.3757C85.2331 70.8134 85.4082 71.2857 85.4395 71.7841Z" fill="#ED971A"/>
<path d="M84.9318 70.3774C84.6823 70.0101 84.3447 69.6666 83.9289 69.3506C82.7086 69.515 81.1831 69.8532 79.7046 70.1755C77.2042 70.7114 74.3052 71.3676 71.9225 71.9812C69.6549 72.564 66.6055 73.233 65.1016 73.9754C65.2516 74.3152 65.4705 74.6365 65.7526 74.9399C69.7613 74.6313 76.3656 72.8452 81.6329 71.3353C82.6274 71.0506 83.9585 70.7714 84.9318 70.3774Z" fill="white"/>
<path fill-rule="evenodd" clip-rule="evenodd" d="M34.3854 87.2663C33.8263 86.8579 32.5464 86.0366 31.7154 85.2636C29.1885 82.9125 27.951 79.992 31.8129 77.8546C33.2164 77.0793 35.5045 77.1738 37.1774 77.7446C39.2186 78.4417 41.4597 79.4652 44.0639 81.2562C44.4237 81.5035 44.7779 81.7533 45.1236 82.0025C48.0152 84.0929 51.6888 86.8641 52.6073 89.0116C53.5483 91.2162 52.9482 94.3788 50.0074 95.6195C47.3351 96.7471 44.394 94.7017 41.1447 92.6344C39.9933 91.9015 38.914 91.1663 37.8477 90.4151C36.7025 89.6082 35.5727 88.1296 34.3854 87.2663Z" fill="#C4C4C4"/>
<path d="M31.7159 85.9159C32.547 86.689 33.8269 87.5103 34.386 87.9186C35.5928 88.7954 36.739 89.634 37.9031 90.454C37.6875 87.0119 38.5489 82.5228 44.1147 81.2931C41.4978 79.4884 38.5799 77.7933 36.526 77.0927C34.853 76.5215 32.5649 76.427 31.1614 77.2026C27.2989 79.3397 29.1891 83.5649 31.7159 85.9159Z" fill="#E75634"/>
<path fill-rule="evenodd" clip-rule="evenodd" d="M41.2866 89.9478C40.8332 89.0198 39.3631 88.0814 37.865 87.2497C37.2225 86.8925 36.1768 86.3328 35.7919 86.8697C35.33 87.5139 36.4181 88.3414 36.8102 88.6362C38.0461 89.5652 39.7272 90.436 40.7585 90.6405C40.995 90.5802 41.2439 90.2283 41.2866 89.9478Z" fill="white"/>
<path fill-rule="evenodd" clip-rule="evenodd" d="M38.7601 85.8487C39.9695 84.7035 37.0506 82.5211 36.352 83.7107C36.0477 84.228 37.0643 85.8132 37.9209 86.0858C38.231 86.1837 38.5497 86.048 38.7601 85.8487Z" fill="white"/>
<path d="M62.1815 42.4379C61.1589 45.0816 60.2972 47.7871 59.9403 50.9725C59.5832 54.1495 60.7107 56.6372 62.8292 57.3078C65.1728 58.0482 67.3363 56.0099 68.608 54.4179C70.3207 52.272 71.5863 49.2024 72.6441 46.1374C69.8478 41.4372 65.0788 41.7161 62.1815 42.4379Z" fill="#E75634"/>
<path d="M70.9423 29.6356C70.5845 29.6833 69.8591 29.7984 69.4977 29.9687C66.6241 31.3363 64.7904 36.072 63.4968 39.1944C63.045 40.2835 62.6021 41.3563 62.1816 42.4379C65.079 41.7161 69.848 41.4375 72.6439 46.137C73.0673 44.9132 73.4587 43.6894 73.8302 42.5279C74.5383 40.3233 75.4382 38.0173 75.6095 35.7481C75.9138 31.732 74.1456 29.2146 70.9423 29.6356Z" fill="#C4C4C4"/>
<path fill-rule="evenodd" clip-rule="evenodd" d="M68.567 34.4497C68.5924 35.5942 67.6221 37.2678 66.5685 38.853C66.1168 39.5295 65.3695 40.6153 64.7185 40.2819C63.9344 39.8788 64.5874 38.5118 64.8225 38.0229C65.5682 36.4752 66.7799 34.7592 67.6951 34.0364C67.9587 33.9738 68.3863 34.1939 68.567 34.4497Z" fill="white"/>
<path fill-rule="evenodd" clip-rule="evenodd" d="M68.1625 39.7783C69.9401 40.2923 68.1746 43.9301 66.8774 43.1104C66.3151 42.7559 66.5117 40.6782 67.2156 39.9694C67.4697 39.7169 67.8549 39.6882 68.1625 39.7783Z" fill="white"/>
<path fill-rule="evenodd" clip-rule="evenodd" d="M62.1474 48.3627C62.7916 48.4795 62.9987 49.4091 62.8496 50.3475C62.7312 51.1016 62.1575 52.4908 61.3763 52.087C61.0302 51.9105 60.7687 51.1887 60.8727 50.4029C60.9921 49.4848 61.315 48.2143 62.1474 48.3627Z" fill="white"/>
<path fill-rule="evenodd" clip-rule="evenodd" d="M161.081 74.3563L155.942 76.8489C153.413 78.076 153.373 83.2217 155.858 88.3413C158.341 93.4596 162.407 96.6133 164.938 95.3879L170.076 92.8927L161.081 74.3563Z" fill="#ED971A"/>
<g opacity="0.14">
<path fill-rule="evenodd" clip-rule="evenodd" d="M161.081 74.3563L155.942 76.8489C153.413 78.076 153.373 83.2217 155.858 88.3413C158.341 93.4596 162.407 96.6133 164.938 95.3879L170.076 92.8927L161.081 74.3563Z" fill="#1A4E72"/>
</g>
<path fill-rule="evenodd" clip-rule="evenodd" d="M170.077 92.893C167.545 94.1217 163.48 90.9669 160.997 85.849C158.512 80.729 158.551 75.5837 161.082 74.3566C163.612 73.1296 167.678 76.2833 170.163 81.4026C171.835 84.8489 172.364 88.306 171.759 90.5723C171.692 90.8221 170.96 90.4056 170.866 90.6248C170.771 90.8446 171.315 91.7005 171.193 91.8864C170.9 92.3313 170.528 92.6744 170.077 92.893Z" fill="#ED971A"/>
<path d="M171.184 91.8923C171.43 91.5198 171.621 91.0752 171.756 90.5713C171.138 89.5044 170.245 88.2235 169.389 86.9779C167.942 84.8705 166.235 82.4349 164.764 80.4629C163.362 78.5881 161.586 76.0214 160.329 74.9082C160.07 75.1776 159.856 75.5022 159.684 75.8805C161.49 79.4717 165.652 84.9018 169.047 89.2011C169.687 90.0158 170.454 91.1382 171.184 91.8923Z" fill="white"/>
<path fill-rule="evenodd" clip-rule="evenodd" d="M135.758 146.346L138.976 151.066C140.561 153.388 145.656 152.674 150.357 149.468C155.057 146.262 157.584 141.782 156.001 139.457L152.783 134.736L135.758 146.346Z" fill="#F6BD4A"/>
<g opacity="0.14">
<path fill-rule="evenodd" clip-rule="evenodd" d="M135.758 146.346L138.976 151.066C140.568 153.387 145.652 152.679 150.357 149.468C155.057 146.262 157.584 141.782 156.001 139.457L152.783 134.736L135.758 146.346Z" fill="#1A4E72"/>
</g>
<path fill-rule="evenodd" clip-rule="evenodd" d="M152.783 134.736C154.367 137.061 151.842 141.545 147.141 144.75C142.439 147.955 137.344 148.67 135.759 146.346C134.173 144.023 136.699 139.539 141.4 136.333C144.566 134.174 147.91 133.145 150.242 133.413C150.5 133.442 150.093 133.814 150.325 133.876C150.565 133.94 151.442 133.694 151.65 133.793C152.121 134.016 152.506 134.33 152.783 134.736Z" fill="#F6BD4A"/>
<path d="M151.63 133.787C151.225 133.598 150.758 133.476 150.241 133.415C149.276 134.183 148.14 135.251 147.031 136.28C145.156 138.023 142.999 140.065 141.263 141.811C139.614 143.471 137.333 145.603 136.418 147.012C136.721 147.225 137.074 147.392 137.472 147.505C140.761 145.192 145.524 140.283 149.283 136.295C149.991 135.542 150.991 134.619 151.63 133.787Z" fill="white"/>
<path fill-rule="evenodd" clip-rule="evenodd" d="M137.83 120.676C137.268 121.08 135.982 121.896 135.15 122.661C132.608 124.998 131.019 127.579 134.867 129.741C136.265 130.527 138.229 130.771 139.904 130.209C141.952 129.524 144.861 128.515 147.477 126.737C147.835 126.493 148.188 126.248 148.532 126.002C151.437 123.932 155.126 121.181 156.058 119.038C157.013 116.842 156.432 113.675 153.498 112.419C150.834 111.273 147.88 113.301 144.617 115.349C143.454 116.079 142.363 116.811 141.286 117.561C140.143 118.357 139.015 119.824 137.83 120.676Z" fill="#C4C4C4"/>
<path d="M135.149 122.009C135.981 121.243 137.267 120.428 137.829 120.024C139.04 119.154 140.193 118.322 141.361 117.512C141.124 120.949 141.959 125.446 147.517 126.707C144.891 128.495 141.963 130.172 139.903 130.861C138.228 131.423 135.938 131.505 134.54 130.719C130.692 128.558 132.607 124.345 135.149 122.009Z" fill="#E75634"/>
<path fill-rule="evenodd" clip-rule="evenodd" d="M144.74 118.036C144.281 118.962 142.807 119.888 141.304 120.714C140.659 121.065 139.609 121.619 139.229 121.079C138.771 120.433 139.865 119.614 140.256 119.322C141.497 118.397 143.185 117.538 144.216 117.342C144.451 117.401 144.701 117.755 144.74 118.036Z" fill="white"/>
<path fill-rule="evenodd" clip-rule="evenodd" d="M142.191 122.12C143.391 123.271 140.46 125.437 139.768 124.239C139.469 123.721 140.494 122.146 141.353 121.876C141.662 121.78 141.981 121.917 142.191 122.12Z" fill="white"/>
<path d="M122.897 144.721C125.26 146.289 127.523 148.001 129.657 150.394C131.781 152.781 132.299 155.462 130.956 157.235C129.472 159.193 126.53 158.779 124.572 158.213C121.934 157.451 119.128 155.673 116.493 153.785C116.06 148.332 120.116 145.805 122.897 144.721Z" fill="#E75634"/>
<path d="M108.352 139.328C108.672 139.159 109.33 138.836 109.725 138.768C112.859 138.224 117.091 141.031 119.949 142.832C120.947 143.46 121.931 144.08 122.897 144.721C120.115 145.805 116.06 148.332 116.493 153.785C115.44 153.027 114.415 152.255 113.438 151.521C111.59 150.131 109.524 148.769 108.072 147.016C105.504 143.913 105.493 140.835 108.352 139.328Z" fill="#C4C4C4"/>
<path fill-rule="evenodd" clip-rule="evenodd" d="M113.074 141.885C113.713 142.838 115.472 143.642 117.248 144.327C118.008 144.619 119.244 145.073 119.584 144.426C119.99 143.645 118.667 142.905 118.194 142.642C116.692 141.81 114.712 141.109 113.547 141.047C113.295 141.145 113.075 141.572 113.074 141.885Z" fill="white"/>
<path fill-rule="evenodd" clip-rule="evenodd" d="M116.479 146.003C115.327 147.449 118.87 149.398 119.456 147.984C119.708 147.365 118.349 145.783 117.364 145.611C117.01 145.554 116.681 145.752 116.479 146.003Z" fill="white"/>
<path fill-rule="evenodd" clip-rule="evenodd" d="M126.349 149.54C125.889 150.008 126.258 150.885 126.924 151.563C127.456 152.111 128.726 152.914 129.13 152.132C129.311 151.79 129.107 151.047 128.57 150.467C127.941 149.788 126.943 148.937 126.349 149.54Z" fill="white"/>
<path d="M47.4549 56.5321C47.5296 56.3713 48.5737 56.5112 48.6356 56.3537C49.2573 54.7734 49.2394 53.3624 48.6692 52.1761L48.6744 52.1718L44.8729 42.083C45.1678 43.2197 45.0109 44.5244 44.3461 45.957C42.6494 49.6036 39.0449 51.8473 36.6074 53.394C29.4737 57.9235 22.4509 60.3565 14.5804 61.4377C12.8803 61.6703 11.2459 61.9994 9.83781 61.6063C8.2001 61.153 6.95576 59.8789 6.42475 59.0805C6.23655 58.8 6.08292 58.5028 5.96289 58.1907L9.88119 68.5352C10.0123 69.0447 10.2204 69.5196 10.5094 69.9515C11.0404 70.7525 12.2854 72.0256 13.9215 72.4826C14.2698 72.5788 14.6319 72.6313 15.0054 72.6518C15.2634 72.6662 15.326 71.9665 15.5941 71.9548C15.8622 71.9431 16.3355 72.6192 16.6121 72.5895C17.2781 72.5181 17.9663 72.4059 18.6666 72.3103C19.7391 72.1636 20.7962 71.9913 21.8396 71.792C22.1645 71.7301 22.1081 70.9407 22.4307 70.8735C22.7258 70.8119 23.4004 71.4724 23.6936 71.4062C24.8424 71.1469 25.9765 70.852 27.0992 70.5196C27.4824 70.4061 27.5274 69.4916 27.9084 69.3689C28.2633 69.2548 28.9541 69.9335 29.307 69.8115C30.81 69.2919 32.2961 68.6999 33.7736 68.029C34.0401 67.908 33.9279 67.04 34.194 66.9138C34.4354 66.7993 35.0555 67.4266 35.2968 67.3078C36.4704 66.7292 37.6404 66.0994 38.8113 65.4144C39.1238 65.2317 38.9741 64.2509 39.2866 64.0601C39.5635 63.8912 40.3029 64.5135 40.5802 64.3384C40.618 64.3146 40.6558 64.2904 40.694 64.2663C41.6412 63.6651 42.7652 62.9587 43.8849 62.1054C44.155 61.8996 43.9883 61.0261 44.2551 60.8027C44.4701 60.6229 45.1198 61.0965 45.3299 60.9044C46.1482 60.1565 46.9187 59.3143 47.5635 58.36C47.8871 57.8802 47.2041 57.0719 47.4549 56.5321Z" fill="#1A4E72"/>
<path d="M48.4313 56.8316C48.5063 56.6715 48.5666 56.5155 48.6283 56.357C47.2818 53.2398 46.0786 49.5097 44.0156 46.6074C43.6065 47.3488 43.1183 48.0253 42.582 48.6519C42.6401 48.7804 42.6998 48.9082 42.7507 49.0328C43.902 51.7342 45.1059 54.1665 46.5966 56.7067C46.8862 57.1986 47.1915 57.8059 47.5561 58.3607C47.8813 57.8799 48.1788 57.3737 48.4313 56.8316Z" fill="#B9D5E8"/>
<path d="M39.4668 51.4785C39.0219 51.8083 38.577 52.1142 38.1484 52.4006C38.411 52.7092 38.7202 53.0141 38.9332 53.3566C39.989 55.0475 40.7236 57.1291 41.7725 58.9658C42.2898 59.8742 42.9742 60.7953 43.6209 61.6972C43.7087 61.8172 43.799 61.9571 43.891 62.0993C44.3767 61.7288 44.8607 61.3315 45.3294 60.9029C45.2844 60.8204 45.2365 60.7376 45.1947 60.6567C43.7778 57.9788 41.7122 53.8201 39.4668 51.4785Z" fill="#B9D5E8"/>
<path d="M38.8248 60.2718C37.8081 57.9667 36.7941 55.4986 35.4666 54.0967C35.0174 54.3684 34.5702 54.6309 34.1211 54.8873C34.1619 55.7967 34.8615 56.6359 35.2249 57.4686C36.2158 59.7378 36.89 61.9333 38.0577 64.0798C38.2723 64.4735 38.511 64.9634 38.8017 65.4142C39.393 65.0681 39.9863 64.7119 40.5777 64.3372C40.4593 64.0475 40.3288 63.7543 40.2189 63.4774C39.8014 62.4362 39.2831 61.3106 38.8248 60.2718Z" fill="#B9D5E8"/>
<path d="M34.392 65.3493C33.4778 63.3697 32.679 61.3449 31.7445 59.5043C31.3038 58.6366 30.8198 57.5296 30.1587 56.9376C29.6619 57.1695 29.1632 57.3943 28.6605 57.6076C28.6468 58.3744 29.0004 59.1892 29.2757 59.883C30.1714 62.142 31.2239 64.0364 32.5182 66.0792C32.877 66.6474 33.2204 67.5144 33.7648 68.0297C34.2717 67.8014 34.7746 67.5663 35.2799 67.3164C35.1582 66.6745 34.6905 65.9954 34.392 65.3493Z" fill="#B9D5E8"/>
<path d="M27.336 64.7593C26.4922 62.8665 25.6888 60.6952 24.6336 59.1357C24.01 59.3438 23.3834 59.5346 22.752 59.7176C22.9053 60.4209 23.1815 61.1639 23.3365 61.6241C24.2703 64.3705 25.0544 66.38 26.1725 68.7226C26.4485 69.3002 26.741 69.9464 27.1021 70.5155C27.8419 70.2964 28.5754 70.057 29.3067 69.8058C29.1133 69.2751 28.8279 68.733 28.6319 68.2268C28.1941 67.1038 27.8363 65.8764 27.336 64.7593Z" fill="#B9D5E8"/>
<path d="M20.404 63.4935C19.9718 62.5597 19.5093 61.301 18.8367 60.6992C18.3987 60.7922 17.9564 60.8789 17.5141 60.9634C17.4766 61.94 17.8876 62.9557 18.2317 63.9179C19.0608 66.2314 20.0596 68.316 21.1734 70.472C21.3711 70.8572 21.5756 71.3406 21.8356 71.7904C22.4569 71.6726 23.0711 71.5425 23.683 71.4035C23.4945 70.8905 23.2068 70.363 23.014 69.8568C22.1917 67.6809 21.3975 65.6512 20.404 63.4935Z" fill="#B9D5E8"/>
<path d="M15.8714 70.4897C15.0449 68.3174 14.2445 66.181 13.4411 64.053C13.1489 63.281 12.8599 62.3997 12.4629 61.7196C11.8928 61.7793 11.3406 61.8047 10.8105 61.7666C10.9231 62.4577 11.4156 63.2213 11.6475 63.874C12.4655 66.1784 13.0954 68.3393 14.0449 70.5745C14.3218 71.2272 14.5801 72.024 15.0045 72.6513C15.5208 72.6803 16.0587 72.648 16.6125 72.5873C16.5678 71.9291 16.1239 71.1483 15.8714 70.4897Z" fill="#B9D5E8"/>
<path fill-rule="evenodd" clip-rule="evenodd" d="M41.3708 38.5298C44.6968 39.9486 45.901 42.6066 44.3458 45.9574C42.6491 49.604 39.0445 51.8477 36.607 53.3944C29.4733 57.924 22.4505 60.3569 14.58 61.4381C12.88 61.6707 11.2456 61.9998 9.83747 61.6068C8.19976 61.1534 6.95542 59.8794 6.42441 59.0809C4.92728 56.8319 5.56136 53.4727 8.08854 50.1288C8.93398 49.009 10.2931 48.0119 11.5893 47.0337C14.8762 44.5538 19.1702 42.3091 22.6736 40.9235C27.6181 38.9704 33.3779 37.0649 38.8302 37.8063C39.6147 37.912 40.4666 38.142 41.3708 38.5298Z" fill="#B9D5E8"/>
<path fill-rule="evenodd" clip-rule="evenodd" d="M9.60976 57.6369C9.83058 58.996 6.41491 57.9497 7.34711 56.9604C7.82952 56.4454 9.13421 57.1639 9.60976 57.6369Z" fill="white"/>
<path fill-rule="evenodd" clip-rule="evenodd" d="M11.1474 59.4864C10.9207 59.3005 10.5571 58.8011 10.9609 58.3768C11.4893 57.8177 12.989 58.1696 13.6094 58.1954C14.3645 58.2277 15.8012 57.9465 16.1897 58.7059C16.7445 59.7839 14.5484 59.8573 13.7917 59.852C13.3886 59.8504 12.9949 59.806 12.6556 59.7855C12.0711 59.7542 11.5812 59.8409 11.1474 59.4864Z" fill="white"/>
<path fill-rule="evenodd" clip-rule="evenodd" d="M33.6368 39.7925C34.4601 39.1842 38.576 39.7132 38.3102 41.105C38.091 42.2375 34.4669 41.6853 33.6929 40.7632C33.491 40.5254 33.4424 40.315 33.6368 39.7925Z" fill="white"/>
<path fill-rule="evenodd" clip-rule="evenodd" d="M37.6561 43.8237C37.4897 42.4619 39.5368 42.8106 39.6219 43.6244C39.7371 44.7213 37.8052 45.0237 37.6561 43.8237Z" fill="white"/>
<path fill-rule="evenodd" clip-rule="evenodd" d="M40.1186 41.1533C40.2158 39.8565 43.3288 40.4103 43.0841 41.5777C42.9837 42.0702 42.6229 42.1351 41.983 42.1759C41.0355 42.2375 40.0504 42.0601 40.1186 41.1533Z" fill="white"/>
<path fill-rule="evenodd" clip-rule="evenodd" d="M63.8012 99.9863C65.1016 102.028 65.9154 103.936 67.9139 104.876C70.6997 106.187 75.4422 105.307 78.0249 106.766C79.9219 107.836 81.3619 110.598 82.693 112.878C84.094 115.275 85.4081 117.592 86.5823 119.767C89.1594 124.549 91.8174 129.209 94.3618 133.55C95.7918 135.987 96.8052 138.42 97.9181 140.772C100.216 145.62 102.22 150.43 104.362 155.886C105.41 158.546 107.068 162.978 105.919 166.109C104.728 169.358 100.351 171.467 97.0283 173.111C87.7115 177.72 79.659 181.704 70.0242 185.891C67.4915 186.99 64.2881 188.336 61.245 187.113C60.091 186.651 58.4278 185.107 57.4656 183.89C56.0647 182.115 54.9798 179.824 53.7988 177.668C49.1936 169.249 55.1159 160.547 50.3812 151.663C48.0813 147.345 35.9999 143.006 33.9046 138.214C32.7251 135.514 31.6599 132.673 32.2385 129.658C32.6449 127.545 33.994 125.717 35.129 124.103C36.2455 122.51 37.7808 120.633 37.907 118.433C38.0297 116.293 37.1249 114.812 36.5727 113.101C43.085 109.69 49.9271 106.553 56.6883 103.208C59.011 102.061 61.5887 100.723 63.8012 99.9863Z" fill="#E75634"/>
<path d="M73.1372 168.999C75.7048 167.778 78.4241 166.414 80.2487 164.554C80.8332 163.958 81.6591 162.796 81.9164 162.109C82.7687 159.828 81.8926 157.067 81.1375 154.886C80.5605 153.216 79.8328 151.597 79.249 150.218C76.4684 143.64 74.071 138.585 71.2477 132.215C69.7394 128.813 67.6379 124.486 63.1358 124.548C59.9504 124.592 56.9669 126.304 54.3559 127.325C51.5965 128.405 48.9173 129.478 46.1324 130.77C42.4561 132.477 38.0871 134.461 34.6851 136.771C34.3544 136.996 33.9802 137.246 33.6055 137.51C33.7043 137.747 33.8048 137.983 33.9062 138.215C36.0019 143.007 37.9413 147.345 40.2414 151.663C44.9761 160.548 49.1955 169.25 53.8004 177.669C53.8898 177.829 53.9759 177.994 54.0636 178.156C57.8371 176.354 61.8875 174.14 65.2477 172.555C67.9722 171.27 70.4834 170.263 73.1372 168.999Z" fill="#B9D5E8"/>
<path fill-rule="evenodd" clip-rule="evenodd" d="M53.9544 140.136C55.3563 139.76 57.7253 138.316 59.8395 138.189C61.3438 138.1 63.2304 142.601 62.9081 144.679C62.7333 145.811 59.3476 146.847 57.6969 148.021C58.3055 149.593 60.0414 152.313 59.1669 153.097C57.9347 154.206 55.5663 155.308 54.4903 155.504C53.4133 155.698 52.1118 152.386 51.0159 150.825C49.4196 151.675 47.279 153.21 45.6703 152.43C44.802 152.012 43.2442 149.132 42.997 147.887C42.5315 145.541 45.5809 144.41 47.2731 143.344C46.8657 141.928 45.8927 141.1 46.0698 139.468C46.2342 137.966 48.6939 136.297 50.48 136.127C52.8842 135.902 53.1553 138.478 53.9544 140.136Z" fill="white"/>
<path fill-rule="evenodd" clip-rule="evenodd" d="M69.0995 154.001C65.3974 155.653 59.999 158.31 56.1335 160.253C55.1579 160.744 53.7175 161.415 52.8594 162.147C53.4259 163.16 53.9733 164.188 54.5255 165.2C56.0184 165.128 58.0729 163.505 59.175 162.914C62.595 161.076 65.8042 159.602 68.8653 157.971C69.4191 157.677 70.0499 157.383 70.6302 157.028C70.1155 156.025 69.6067 155.014 69.0995 154.001Z" fill="#1A4E72"/>
<path fill-rule="evenodd" clip-rule="evenodd" d="M73.4917 162.209C73.0833 161.541 72.6975 160.866 72.3181 160.189C70.8259 160.574 69.4234 161.764 68.2958 162.344C65.66 163.696 61.7909 165.618 59.1757 166.905C58.4513 167.259 57.2242 167.736 56.2852 168.272C56.3116 168.315 56.338 168.359 56.3634 168.402C56.8553 169.195 57.3452 169.99 57.8368 170.785C58.1306 170.631 58.4444 170.468 58.7937 170.324C63.2737 168.483 66.6346 166.448 70.7659 164.244C71.474 163.864 72.7914 163.283 73.7203 162.589C73.6453 162.463 73.5684 162.334 73.4917 162.209Z" fill="#1A4E72"/>
<path fill-rule="evenodd" clip-rule="evenodd" d="M86.527 129.763C85.0628 128.705 83.8902 125.892 82.9061 123.062C82.4808 121.85 81.8317 119.876 82.8738 119.377C84.1231 118.774 85.2184 120.898 85.6059 121.659C86.8391 124.068 87.8378 127.227 87.876 129.063C87.7031 129.455 87.0172 129.781 86.527 129.763Z" fill="white"/>
<path fill-rule="evenodd" clip-rule="evenodd" d="M76.8899 119.919C74.5522 121.656 71.6676 115.976 73.9312 115.129C74.9136 114.759 77.3332 116.984 77.5504 118.549C77.6261 119.106 77.2963 119.616 76.8899 119.919Z" fill="white"/>
<path fill-rule="evenodd" clip-rule="evenodd" d="M76.282 112.229C75.52 112.929 74.1582 112.302 73.1213 111.222C72.287 110.351 71.0896 108.307 72.3392 107.716C72.8904 107.446 74.0529 107.804 74.9358 108.685C75.9767 109.709 77.2592 111.327 76.282 112.229Z" fill="white"/>
<path fill-rule="evenodd" clip-rule="evenodd" d="M64.5851 181.757C62.6532 182.876 67.4645 186.091 67.7525 183.91C67.9026 182.773 65.6647 181.873 64.5851 181.757Z" fill="white"/>
<path fill-rule="evenodd" clip-rule="evenodd" d="M60.6906 181.726C61.1525 181.82 62.1522 181.765 62.2732 180.823C62.4317 179.588 60.4554 178.067 59.7858 177.314C58.9736 176.4 57.8513 174.311 56.5032 174.599C54.5798 175.009 56.7384 177.84 57.5215 178.783C57.9364 179.284 58.394 179.735 58.7675 180.142C59.4048 180.837 59.7992 181.543 60.6906 181.726Z" fill="white"/>
<path fill-rule="evenodd" clip-rule="evenodd" d="M64.1072 93.6541C63.5184 92.5787 63.1401 91.6729 62.414 90.5548C61.7392 89.5117 60.5757 88.1039 59.4755 87.6258C58.0567 87.0106 56.3368 87.5413 54.7134 88.1985C51.5861 89.4683 40.9131 95.1721 40.9108 95.1753C38.0884 96.4843 35.4507 97.7175 32.7836 99.2675C31.2711 100.144 29.9142 101.145 29.4149 102.678C28.515 105.451 30.6657 109.216 31.156 110.34C32.1573 112.638 33.4431 115.713 37.0691 115.314C38.5007 115.155 40.0468 114.362 41.4196 113.69C43.8203 112.512 58.4419 105.028 60.8272 103.859C62.1991 103.187 63.7715 102.451 64.7752 101.414C67.3115 98.7932 65.3104 95.8508 64.1072 93.6541Z" fill="#FCAA17"/>
<path d="M31.2847 104.814C35.0021 102.907 38.5796 101.261 42.2803 99.432C43.2553 98.9496 44.4928 98.2356 45.6653 97.5197C46.0685 97.2744 47.6723 96.6234 47.2743 95.9195C47.0995 95.6142 46.4495 95.6537 45.9951 95.7678C45.2358 95.9554 45.3936 96.0072 44.6947 96.2545C40.3109 97.8181 35.8498 99.8975 31.653 101.992C30.8826 102.376 30.0789 102.761 29.2889 103.179C29.1294 103.995 29.1969 104.875 29.3793 105.735C30.0926 105.403 30.741 105.092 31.2847 104.814Z" fill="#E75634"/>
<path d="M58.1482 89.5086C56.3928 90.3864 54.4556 91.2566 52.9073 92.5313C52.6157 92.7691 52.3763 93.0988 52.3492 93.1526C52.2034 93.4406 52.1166 93.7851 52.3704 94.0636C52.8835 94.6237 54.2368 93.9938 55.0607 93.624C56.0943 93.1595 57.0353 92.7139 57.7793 92.3304C59.2543 91.5746 60.7031 90.8645 62.1494 90.1642C61.7113 89.5439 61.1428 88.8638 60.5371 88.338C59.735 88.7262 58.9362 89.1166 58.1482 89.5086Z" fill="#E75634"/>
<path d="M37.8628 106.333C38.7464 105.864 40.8516 104.85 40.2439 104.011C39.7762 103.36 38.2634 104.079 37.2868 104.494C35.198 105.381 33.044 106.53 31.1894 107.485C30.8945 107.636 30.5008 107.807 30.0918 107.997C30.3413 108.619 30.6013 109.169 30.8136 109.609C33.2038 108.648 35.4495 107.613 37.8628 106.333Z" fill="#E75634"/>
<path d="M62.4441 96.4934C60.5582 97.3839 58.3376 98.3973 56.363 99.517C55.4392 100.041 53.948 100.801 54.1805 101.571C54.4796 102.564 56.5632 101.508 57.4716 101.093C60.2976 99.7975 62.739 98.4834 65.2785 96.9357C65.3969 96.8633 65.5206 96.7919 65.6416 96.7237C65.4667 96.2338 65.2469 95.7546 65.0085 95.2902C64.1373 95.539 63.1105 96.179 62.4441 96.4934Z" fill="#E75634"/>
<path d="M48.0938 105.896C48.5002 105.669 50.3359 104.666 50.0316 103.988C49.6157 103.058 48.0775 103.898 47.6232 104.061C45.0317 104.995 42.6644 106.187 40.2833 107.383C37.7985 108.631 35.3911 109.773 32.9223 111.343C32.6274 111.533 32.2686 111.752 31.9141 111.985C32.2634 112.673 32.675 113.341 33.1897 113.902C34.1281 113.387 35.0551 112.839 35.9876 112.309C40.0909 109.984 43.9103 108.249 48.0938 105.896Z" fill="#E75634"/>
<path d="M48.8556 98.8238C47.5483 99.4569 45.5143 100.196 46.0936 101.197C47.6002 101.4 58.6421 95.8308 63.8224 93.1174C63.5634 92.6216 63.3305 92.1457 63.0647 91.6552C58.9917 93.6647 49.6296 98.4513 48.8556 98.8238Z" fill="#E75634"/>
</g>
<defs>
<filter id="filter0_dddd_1521_37379" x="0" y="-2" width="259" height="217" filterUnits="userSpaceOnUse" color-interpolation-filters="sRGB">
<feFlood flood-opacity="0" result="BackgroundImageFix"/>
<feColorMatrix in="SourceAlpha" type="matrix" values="0 0 0 0 0 0 0 0 0 0 0 0 0 0 0 0 0 0 127 0" result="hardAlpha"/>
<feOffset dx="4"/>
<feGaussianBlur stdDeviation="4.5"/>
<feColorMatrix type="matrix" values="0 0 0 0 0 0 0 0 0 0 0 0 0 0 0 0 0 0 0.1 0"/>
<feBlend mode="normal" in2="BackgroundImageFix" result="effect1_dropShadow_1521_37379"/>
<feColorMatrix in="SourceAlpha" type="matrix" values="0 0 0 0 0 0 0 0 0 0 0 0 0 0 0 0 0 0 127 0" result="hardAlpha"/>
<feOffset dx="16"/>
<feGaussianBlur stdDeviation="8"/>
<feColorMatrix type="matrix" values="0 0 0 0 0 0 0 0 0 0 0 0 0 0 0 0 0 0 0.09 0"/>
<feBlend mode="normal" in2="effect1_dropShadow_1521_37379" result="effect2_dropShadow_1521_37379"/>
<feColorMatrix in="SourceAlpha" type="matrix" values="0 0 0 0 0 0 0 0 0 0 0 0 0 0 0 0 0 0 127 0" result="hardAlpha"/>
<feOffset dx="35"/>
<feGaussianBlur stdDeviation="10.5"/>
<feColorMatrix type="matrix" values="0 0 0 0 0 0 0 0 0 0 0 0 0 0 0 0 0 0 0.05 0"/>
<feBlend mode="normal" in2="effect2_dropShadow_1521_37379" result="effect3_dropShadow_1521_37379"/>
<feColorMatrix in="SourceAlpha" type="matrix" values="0 0 0 0 0 0 0 0 0 0 0 0 0 0 0 0 0 0 127 0" result="hardAlpha"/>
<feOffset dx="62"/>
<feGaussianBlur stdDeviation="12.5"/>
<feColorMatrix type="matrix" values="0 0 0 0 0 0 0 0 0 0 0 0 0 0 0 0 0 0 0.01 0"/>
<feBlend mode="normal" in2="effect3_dropShadow_1521_37379" result="effect4_dropShadow_1521_37379"/>
<feBlend mode="normal" in="SourceGraphic" in2="effect4_dropShadow_1521_37379" result="shape"/>
</filter>
<clipPath id="clip0_1521_37379">
<rect width="167" height="167" fill="white" transform="translate(5 23)"/>
</clipPath>
</defs>
</svg>
