<svg width="369" height="230" viewBox="0 0 369 230" fill="none" xmlns="http://www.w3.org/2000/svg">
<g clip-path="url(#clip0_2479_45188)">
<g opacity="0.2">
<path fill-rule="evenodd" clip-rule="evenodd" d="M378.156 28.8543C403.651 37.3606 437.24 43.9935 445.942 69.423C454.955 95.7599 425.061 119.439 418.405 146.468C413.21 167.563 424.773 192.857 411.34 209.932C397.913 226.997 369.243 219.407 351.345 231.701C324.03 250.463 313.859 305.071 281.228 299.304C249.36 293.671 262.61 237.759 242.438 212.453C225.632 191.369 179.597 194.989 176.707 168.182C173.69 140.198 217.917 130.657 230.928 105.699C241.584 85.2586 227.924 55.7825 243.945 39.2084C259.942 22.6585 286.923 25.7957 309.872 24.0252C333.093 22.2338 356.063 21.4834 378.156 28.8543Z" stroke="white" stroke-width="3"/>
<path opacity="0.95875" fill-rule="evenodd" clip-rule="evenodd" d="M375.95 32.1449C401.133 41.5358 434.469 49.3369 442.279 75.0545C450.367 101.69 419.665 124.311 412.07 151.091C406.142 171.992 416.815 197.675 402.794 214.27C388.78 230.856 360.393 222.27 342.076 233.932C314.124 251.729 302.053 305.949 269.642 299.047C237.99 292.306 253.184 236.89 233.907 210.895C217.847 189.238 171.715 191.249 169.762 164.357C167.723 136.285 212.256 128.293 226.13 103.804C237.493 83.7485 224.87 53.8136 241.459 37.8087C258.024 21.8272 284.88 25.9042 307.877 24.9357C331.146 23.9558 354.128 24.0075 375.95 32.1449Z" stroke="white" stroke-width="3"/>
<path opacity="0.9175" fill-rule="evenodd" clip-rule="evenodd" d="M373.631 35.3565C398.472 45.6205 431.515 54.5803 438.423 80.5548C445.576 107.456 414.104 128.992 405.578 155.491C398.924 176.172 408.695 202.212 394.103 218.308C379.519 234.395 351.448 224.823 332.736 235.839C304.179 252.649 290.224 306.415 258.074 298.386C226.676 290.544 243.795 235.692 225.437 209.041C210.142 186.836 163.968 187.236 162.955 160.292C161.897 132.166 206.681 125.733 221.402 101.744C233.458 82.0966 221.888 51.7394 239.025 36.3232C256.137 20.9296 282.835 25.9413 305.851 25.776C329.14 25.6087 352.107 26.4625 373.631 35.3565Z" stroke="white" stroke-width="3"/>
<path opacity="0.87625" fill-rule="evenodd" clip-rule="evenodd" d="M371.202 38.4852C395.669 49.6099 428.38 59.7175 434.377 85.9172C440.587 113.052 408.382 133.476 398.937 159.661C391.565 180.098 400.422 206.463 385.277 222.039C370.14 237.608 342.421 227.062 323.335 237.418C294.209 253.222 278.386 306.468 246.536 297.321C215.431 288.389 234.453 234.168 217.037 206.892C202.526 184.167 156.366 182.955 156.294 155.992C156.218 127.846 201.2 122.981 216.749 99.5192C229.483 80.3049 218.979 49.5624 236.644 34.7537C254.283 19.9666 280.789 25.907 303.798 26.5451C327.079 27.1907 350.001 28.8455 371.202 38.4852Z" stroke="white" stroke-width="3"/>
<path opacity="0.835" fill-rule="evenodd" clip-rule="evenodd" d="M368.666 41.5273C392.729 53.4991 425.068 64.7421 430.146 91.1352C435.406 118.47 402.508 137.758 392.154 163.598C384.074 183.764 392.005 210.422 376.326 225.461C360.655 240.491 333.32 228.985 313.885 238.668C284.225 253.446 266.553 306.107 235.042 295.855C204.268 285.842 225.17 232.318 208.717 204.451C195.008 181.233 148.918 178.411 149.787 151.463C150.694 123.331 195.818 120.038 212.176 97.1337C225.573 78.3756 216.149 47.2853 234.32 33.1021C252.464 18.9396 278.747 25.8014 301.719 27.2421C324.963 28.6998 347.814 31.1535 368.666 41.5273Z" stroke="white" stroke-width="3"/>
<path opacity="0.79375" fill-rule="evenodd" clip-rule="evenodd" d="M366.024 44.479C389.656 57.2833 421.582 69.648 425.736 96.2023C430.039 123.704 396.487 141.832 385.238 167.295C376.459 187.167 383.455 214.086 367.26 228.568C351.074 243.042 324.158 230.589 304.397 239.588C274.239 253.322 254.74 305.334 223.606 293.988C193.2 282.908 215.958 230.145 200.487 201.721C187.597 178.039 141.634 173.611 143.442 146.709C145.33 118.626 190.542 116.91 207.69 94.5901C221.733 76.3109 213.399 44.9107 232.054 31.3703C250.682 17.8496 276.709 25.6245 299.617 27.866C322.796 30.1341 345.547 33.3838 366.024 44.479Z" stroke="white" stroke-width="3"/>
<path opacity="0.7525" fill-rule="evenodd" clip-rule="evenodd" d="M363.281 47.3367C386.451 60.9579 417.927 74.4293 421.152 101.112C424.492 128.748 390.328 145.694 378.198 170.748C368.73 190.302 374.782 217.448 358.092 231.356C341.411 245.257 314.946 231.872 294.883 240.176C264.264 252.849 242.962 304.149 212.242 291.724C182.241 279.589 206.827 227.653 192.357 198.706C180.302 174.589 134.521 168.558 137.267 141.736C140.134 113.736 185.378 113.599 203.294 91.8915C217.967 74.1136 210.734 42.4416 229.851 29.5605C248.939 16.6982 274.679 25.3767 297.494 28.4163C320.58 31.4918 343.204 35.5336 363.281 47.3367Z" stroke="white" stroke-width="3"/>
<path opacity="0.71125" fill-rule="evenodd" clip-rule="evenodd" d="M360.441 50.0969C383.121 64.5185 414.107 79.0801 416.399 105.86C418.773 133.595 384.038 149.338 371.041 173.954C360.897 193.165 365.998 220.506 348.832 233.823C331.676 247.134 305.694 232.833 285.353 240.432C254.311 252.029 231.231 302.554 200.964 289.064C171.405 275.889 197.788 224.843 184.338 195.409C173.131 170.886 127.589 163.261 131.27 136.551C135.112 108.668 180.333 110.11 198.996 89.0411C214.28 71.7861 208.157 39.881 227.711 27.6749C247.237 15.4866 272.658 25.0581 295.354 28.8921C318.318 32.7715 340.788 37.6004 360.441 50.0969Z" stroke="white" stroke-width="3"/>
<path opacity="0.67" fill-rule="evenodd" clip-rule="evenodd" d="M357.505 52.7563C379.669 67.9607 410.127 83.5948 411.483 110.438C412.888 138.239 377.625 152.76 363.776 176.908C352.968 195.754 357.112 223.256 339.492 235.966C321.882 248.669 296.415 233.471 275.821 240.355C244.393 250.861 219.564 300.55 189.786 286.012C160.705 271.814 188.854 221.72 176.438 191.834C166.094 166.934 120.846 157.725 125.457 131.16C130.27 103.428 175.413 106.448 194.8 86.0425C210.677 69.3314 205.671 37.232 225.639 25.7158C245.578 14.2163 270.65 24.6692 293.198 29.293C316.013 33.9714 338.3 39.5815 357.505 52.7563Z" stroke="white" stroke-width="3"/>
<path opacity="0.62875" fill-rule="evenodd" clip-rule="evenodd" d="M354.479 55.3117C376.098 71.2803 405.993 87.9679 406.411 114.842C406.844 142.675 371.096 155.957 356.413 179.606C344.954 198.064 348.135 225.694 330.083 237.781C312.04 249.862 287.119 233.784 266.297 239.945C234.522 249.348 207.974 298.141 178.721 282.572C150.153 267.368 180.033 218.286 168.668 187.985C159.2 162.74 114.3 151.957 119.835 125.569C125.613 98.0223 170.624 102.615 190.711 82.8993C207.162 66.7524 203.279 34.4979 223.637 23.6856C243.965 12.889 268.657 24.2105 291.03 29.6183C313.667 35.0902 335.745 41.4747 354.479 55.3117Z" stroke="white" stroke-width="3"/>
<path opacity="0.5875" fill-rule="evenodd" clip-rule="evenodd" d="M351.365 57.7599C372.414 74.4732 401.708 92.194 401.188 119.066C400.65 146.897 364.46 158.924 348.961 182.046C336.864 200.092 339.079 227.817 320.615 239.267C302.162 250.71 277.817 233.772 256.794 239.203C224.709 247.492 196.475 295.328 167.783 278.748C139.763 262.556 171.338 214.547 161.038 183.868C152.456 158.308 107.96 145.965 114.413 119.786C121.148 92.4572 165.971 98.6182 186.734 79.6152C203.738 64.0523 200.984 31.682 221.707 21.5867C242.399 11.5061 266.681 23.6824 288.851 29.8678C311.284 36.1264 333.126 43.2775 351.365 57.7599Z" stroke="white" stroke-width="3"/>
<path opacity="0.54625" fill-rule="evenodd" clip-rule="evenodd" d="M348.168 60.0979C368.62 77.5356 397.278 96.268 395.821 123.106C394.311 150.901 357.724 161.657 341.427 184.225C328.708 201.838 329.954 229.622 311.102 240.421C292.261 251.214 268.522 233.436 247.322 238.13C214.968 245.294 185.081 292.116 156.985 274.544C129.548 257.384 162.778 210.507 153.555 179.487C145.871 153.643 101.832 139.754 109.195 113.816C116.88 86.7396 161.461 94.4611 182.874 76.1944C200.411 61.2344 198.788 28.7876 219.851 19.4217C240.882 10.0695 264.724 23.0858 286.665 30.0411C308.866 37.0787 330.445 44.9878 348.168 60.0979Z" stroke="white" stroke-width="3"/>
<path opacity="0.505" fill-rule="evenodd" clip-rule="evenodd" d="M344.891 62.3229C364.722 80.4638 392.709 100.185 390.316 126.955C387.837 154.681 350.897 164.154 333.822 186.139C320.496 203.297 320.772 231.108 301.555 241.242C282.348 251.371 259.244 232.776 237.893 236.728C205.309 242.758 173.806 288.508 146.341 269.966C119.519 251.859 154.365 206.17 146.23 174.847C139.452 148.751 95.9256 133.334 104.189 107.669C112.815 80.8766 157.098 90.1492 179.136 72.6409C197.185 58.3021 196.695 25.8184 218.071 17.1933C239.417 8.58073 262.79 22.4212 284.475 30.138C306.417 37.9462 327.706 46.6035 344.891 62.3229Z" stroke="white" stroke-width="3"/>
<path opacity="0.46375" fill-rule="evenodd" clip-rule="evenodd" d="M341.538 64.4322C360.724 83.2541 388.006 103.94 384.68 130.611C381.235 158.233 343.987 166.411 326.155 187.786C312.238 204.469 311.543 232.273 291.984 241.73C272.436 251.183 249.995 231.793 228.519 234.996C195.744 239.886 162.663 284.508 135.862 265.02C109.689 245.988 146.108 201.542 139.071 169.955C133.208 143.638 90.2464 126.711 99.4001 101.35C108.956 74.8752 152.889 85.6877 175.524 68.9592C194.062 55.259 194.706 22.778 216.371 14.9041C238.004 7.04177 260.88 21.6895 282.282 30.1585C303.938 38.7276 324.913 48.1226 341.538 64.4322Z" stroke="white" stroke-width="3"/>
<path opacity="0.4225" fill-rule="evenodd" clip-rule="evenodd" d="M338.114 66.4232C356.632 85.9033 383.174 107.529 378.92 134.067C374.513 161.552 337.002 168.425 318.435 189.165C303.945 205.352 302.28 233.115 282.403 241.884C262.536 250.648 240.786 230.487 219.211 232.939C186.285 236.682 151.668 280.123 125.563 259.711C100.069 239.777 138.018 196.629 132.088 164.816C127.147 138.31 84.8017 119.894 94.835 94.8679C105.309 68.7428 148.838 81.082 172.043 65.1536C191.048 52.1087 192.825 19.67 214.752 12.557C236.646 5.45444 258.996 20.8916 280.09 30.1023C301.434 39.422 322.068 49.5433 338.114 66.4232Z" stroke="white" stroke-width="3"/>
<path opacity="0.38125" fill-rule="evenodd" clip-rule="evenodd" d="M334.622 68.2934C352.449 88.4079 378.221 110.946 373.042 137.32C367.679 164.635 329.951 170.194 310.672 190.274C295.626 205.945 292.993 233.633 272.822 241.703C252.661 249.769 231.627 228.861 209.98 230.558C176.944 233.149 140.832 275.356 115.455 254.045C90.6729 233.234 130.104 191.437 125.288 159.436C121.275 132.773 79.5983 112.891 90.4989 88.2305C101.878 62.4869 144.95 76.3377 168.697 61.2289C188.146 48.8552 191.054 16.4983 213.215 10.1548C235.344 3.82066 257.142 20.0284 277.902 29.9697C298.907 40.0286 319.175 50.8639 334.622 68.2934Z" stroke="white" stroke-width="3"/>
<path opacity="0.34" fill-rule="evenodd" clip-rule="evenodd" d="M331.067 70.0407C348.181 90.7651 373.151 114.189 367.055 140.366C360.742 167.477 322.843 171.717 302.875 191.111C287.291 206.248 283.693 233.827 263.253 241.188C242.823 248.545 222.532 226.916 200.838 227.857C167.732 229.293 130.169 270.214 105.551 248.031C81.5104 226.367 122.376 185.972 118.68 153.822C115.6 127.036 74.6425 105.711 86.3971 81.4458C98.6677 56.1151 141.23 71.4606 165.49 57.1898C185.358 45.5024 189.394 13.2667 211.763 7.7005C234.099 2.14245 255.319 19.1011 275.719 29.7609C296.36 40.5467 316.238 52.0827 331.067 70.0407Z" stroke="white" stroke-width="3"/>
<path opacity="0.29875" fill-rule="evenodd" clip-rule="evenodd" d="M327.454 71.6629C343.834 92.9719 367.971 117.253 360.965 143.201C353.71 170.076 315.686 172.99 295.053 191.676C278.95 206.259 274.392 233.696 253.707 240.339C233.034 246.979 213.509 224.654 191.796 224.838C158.66 225.118 119.691 264.703 95.8634 241.674C72.5931 219.184 114.844 180.24 112.272 147.981C110.128 121.104 69.9402 98.3625 82.5345 74.5222C95.6817 49.6351 137.682 66.4567 162.426 53.0412C182.69 42.0543 187.848 9.9791 210.398 5.19698C232.915 0.421832 253.529 18.1107 273.545 29.4759C293.797 40.9756 313.26 53.1982 327.454 71.6629Z" stroke="white" stroke-width="3"/>
<path opacity="0.2575" fill-rule="evenodd" clip-rule="evenodd" d="M323.786 73.1579C339.412 95.0257 362.687 120.135 354.78 145.822C346.592 172.427 308.489 174.012 287.217 191.967C270.614 205.98 265.102 233.24 244.198 239.158C223.305 245.072 204.572 222.08 182.865 221.505C149.739 220.629 109.413 258.829 86.4032 234.983C63.932 211.695 107.516 174.249 106.071 141.92C104.867 114.984 65.4973 90.8542 78.9159 67.4679C92.9237 43.0549 134.312 61.332 159.508 48.7882C180.144 38.5152 186.418 6.63958 209.121 2.64733C231.79 -1.33909 251.775 17.0584 271.382 29.1153C291.221 41.3147 310.245 54.2092 323.786 73.1579Z" stroke="white" stroke-width="3"/>
<path opacity="0.21625" fill-rule="evenodd" clip-rule="evenodd" d="M320.068 74.5241C334.922 96.9238 357.306 122.83 348.508 148.226C339.395 174.529 301.26 174.783 279.375 191.984C262.293 205.409 255.833 232.461 234.735 237.645C213.648 242.826 195.729 219.194 174.056 217.863C140.981 215.831 99.3459 252.601 77.1823 227.966C55.5375 203.908 100.402 168.006 100.086 135.646C99.8231 108.684 61.3191 83.1954 75.5457 60.2917C90.397 36.3823 131.122 56.0927 156.741 44.436C177.722 34.8894 185.105 3.25217 207.934 0.0546668C230.728 -3.13817 250.059 15.9456 269.233 28.6794C288.634 41.5638 307.197 55.1143 320.068 74.5241Z" stroke="white" stroke-width="3"/>
<path opacity="0.175" fill-rule="evenodd" clip-rule="evenodd" d="M316.305 75.7596C330.368 98.6641 351.834 125.335 342.155 150.409C332.13 176.378 294.01 175.301 271.537 191.728C253.997 204.549 246.596 231.359 225.331 235.803C204.076 240.245 186.992 216.003 165.379 213.916C132.395 210.731 89.5022 246.025 68.2118 220.632C47.4199 195.833 93.51 161.518 94.3238 129.167C95.0017 102.213 57.4108 75.3955 72.4281 53.0022C88.1047 29.6257 128.117 50.7454 154.127 39.9898C175.429 31.1813 183.912 -0.178982 206.837 -2.57785C229.73 -4.97321 248.383 14.7736 267.101 28.1687C286.04 41.7224 304.119 55.9125 316.305 75.7596Z" stroke="white" stroke-width="3"/>
<path opacity="0.13375" fill-rule="evenodd" clip-rule="evenodd" d="M312.5 76.8631C325.756 100.244 346.278 127.649 335.73 152.369C324.805 177.972 286.745 175.566 263.713 191.199C245.737 203.399 237.404 229.934 215.996 233.634C194.6 237.332 178.373 212.508 156.845 209.668C123.993 205.333 79.894 239.109 59.5028 212.989C39.589 187.479 86.8487 154.794 88.7909 122.491C90.4092 95.5767 53.7771 67.4639 69.5667 45.6084C86.0496 22.7932 125.3 45.2964 151.67 35.4551C173.266 27.3954 182.838 -3.64971 205.834 -5.24701C228.796 -6.84198 246.748 13.5437 264.987 27.584C283.442 41.7903 301.015 56.6027 312.5 76.8631Z" stroke="white" stroke-width="3"/>
<path opacity="0.0925" fill-rule="evenodd" clip-rule="evenodd" d="M308.66 77.8331C321.091 101.663 340.645 129.766 329.24 154.104C317.428 179.31 279.476 175.577 255.912 190.396C237.521 201.962 228.268 228.19 206.744 231.141C185.231 234.09 169.88 208.714 148.465 205.124C115.783 199.646 70.533 231.863 51.0659 205.046C32.0544 178.857 80.426 147.842 83.4945 115.625C86.051 88.7845 50.4223 59.4104 66.9651 38.1192C84.2342 15.8932 122.676 39.7525 149.373 30.8375C171.237 23.5364 181.887 -7.15578 204.924 -7.94958C227.928 -8.74221 245.158 12.2576 262.896 26.9258C280.844 41.7676 297.888 57.1842 308.66 77.8331Z" stroke="white" stroke-width="3"/>
<path opacity="0.05125" fill-rule="evenodd" clip-rule="evenodd" d="M304.788 78.6685C316.38 102.918 334.941 131.687 322.694 155.611C310.009 180.39 272.21 175.335 248.144 189.322C229.36 200.239 219.197 226.129 197.583 228.326C175.981 230.522 161.525 204.626 140.248 200.292C107.778 193.676 61.4307 224.294 42.9113 196.814C24.8254 169.978 74.2499 140.669 78.4408 108.58C81.9325 81.8442 47.3507 51.2446 64.6264 30.5437C82.6607 8.93396 120.246 34.1203 147.238 26.1425C169.344 19.6089 181.058 -10.6929 204.109 -10.6822C227.127 -10.6716 243.613 10.9168 260.828 26.1951C278.247 41.6542 294.744 57.6563 304.788 78.6685Z" stroke="white" stroke-width="3"/>
<path opacity="0.01" fill-rule="evenodd" clip-rule="evenodd" d="M300.89 79.3683C311.629 104.007 329.175 133.406 316.1 156.889C302.559 181.21 264.959 174.838 240.419 187.978C221.266 198.233 210.206 223.751 188.528 225.193C166.862 226.634 153.319 200.25 132.206 195.175C99.9865 187.43 52.599 216.412 35.0499 188.303C17.9116 160.851 68.3289 133.285 73.6371 101.362C78.0598 74.7645 44.5669 42.9767 62.5546 22.8913C81.332 1.92408 118.015 28.4068 145.27 21.3758C167.59 15.6177 180.355 -14.2568 203.391 -13.4417C226.394 -12.6277 242.117 9.52281 258.789 25.3927C275.658 41.4503 291.585 58.0183 300.89 79.3683Z" stroke="white" stroke-width="3"/>
</g>
<g opacity="0.5">
<circle cx="129.5" cy="119.5" r="58.5" fill="url(#paint0_linear_2479_45188)" style="mix-blend-mode:soft-light"/>
<circle cx="129.5" cy="119.5" r="58.5" fill="url(#paint1_linear_2479_45188)" style="mix-blend-mode:soft-light"/>
</g>
<g opacity="0.5">
<circle cx="310.5" cy="192.5" r="58.5" fill="url(#paint2_linear_2479_45188)" style="mix-blend-mode:soft-light"/>
<circle cx="310.5" cy="192.5" r="58.5" fill="url(#paint3_linear_2479_45188)" style="mix-blend-mode:soft-light"/>
</g>
<g opacity="0.5">
<circle cx="47.8065" cy="26.2682" r="19.9617" transform="rotate(30 47.8065 26.2682)" fill="url(#paint4_linear_2479_45188)" style="mix-blend-mode:soft-light"/>
<circle cx="47.8065" cy="26.2682" r="19.9617" transform="rotate(30 47.8065 26.2682)" fill="url(#paint5_linear_2479_45188)" style="mix-blend-mode:soft-light"/>
</g>
<g opacity="0.5">
<circle cx="323.268" cy="33.2682" r="19.9617" transform="rotate(30 323.268 33.2682)" fill="url(#paint6_linear_2479_45188)" style="mix-blend-mode:soft-light"/>
<circle cx="323.268" cy="33.2682" r="19.9617" transform="rotate(30 323.268 33.2682)" fill="url(#paint7_linear_2479_45188)" style="mix-blend-mode:soft-light"/>
</g>
</g>
<defs>
<linearGradient id="paint0_linear_2479_45188" x1="129.5" y1="61" x2="129.5" y2="178" gradientUnits="userSpaceOnUse">
<stop stop-color="white"/>
<stop offset="1" stop-opacity="0"/>
</linearGradient>
<linearGradient id="paint1_linear_2479_45188" x1="129.5" y1="61" x2="129.5" y2="178" gradientUnits="userSpaceOnUse">
<stop stop-color="white"/>
<stop offset="1" stop-opacity="0"/>
</linearGradient>
<linearGradient id="paint2_linear_2479_45188" x1="310.5" y1="134" x2="310.5" y2="251" gradientUnits="userSpaceOnUse">
<stop stop-color="white"/>
<stop offset="1" stop-opacity="0"/>
</linearGradient>
<linearGradient id="paint3_linear_2479_45188" x1="310.5" y1="134" x2="310.5" y2="251" gradientUnits="userSpaceOnUse">
<stop stop-color="white"/>
<stop offset="1" stop-opacity="0"/>
</linearGradient>
<linearGradient id="paint4_linear_2479_45188" x1="47.8065" y1="6.30649" x2="47.8065" y2="46.2299" gradientUnits="userSpaceOnUse">
<stop stop-color="white"/>
<stop offset="1" stop-opacity="0"/>
</linearGradient>
<linearGradient id="paint5_linear_2479_45188" x1="47.8065" y1="6.30649" x2="47.8065" y2="46.2299" gradientUnits="userSpaceOnUse">
<stop stop-color="white"/>
<stop offset="1" stop-opacity="0"/>
</linearGradient>
<linearGradient id="paint6_linear_2479_45188" x1="323.268" y1="13.3065" x2="323.268" y2="53.2299" gradientUnits="userSpaceOnUse">
<stop stop-color="white"/>
<stop offset="1" stop-opacity="0"/>
</linearGradient>
<linearGradient id="paint7_linear_2479_45188" x1="323.268" y1="13.3065" x2="323.268" y2="53.2299" gradientUnits="userSpaceOnUse">
<stop stop-color="white"/>
<stop offset="1" stop-opacity="0"/>
</linearGradient>
<clipPath id="clip0_2479_45188">
<rect width="369" height="230" fill="white"/>
</clipPath>
</defs>
</svg>
